<?xml version="1.0" encoding="utf-8" standalone="no"?>
<!DOCTYPE svg PUBLIC "-//W3C//DTD SVG 1.1//EN"
  "http://www.w3.org/Graphics/SVG/1.1/DTD/svg11.dtd">
<svg xmlns:xlink="http://www.w3.org/1999/xlink" width="216pt" height="216pt" viewBox="0 0 216 216" xmlns="http://www.w3.org/2000/svg" version="1.1">
 <metadata>
  <rdf:RDF xmlns:dc="http://purl.org/dc/elements/1.1/" xmlns:cc="http://creativecommons.org/ns#" xmlns:rdf="http://www.w3.org/1999/02/22-rdf-syntax-ns#">
   <cc:Work>
    <dc:type rdf:resource="http://purl.org/dc/dcmitype/StillImage"/>
    <dc:date>2024-05-19T17:19:28.272200</dc:date>
    <dc:format>image/svg+xml</dc:format>
    <dc:creator>
     <cc:Agent>
      <dc:title>Matplotlib v3.8.1, https://matplotlib.org/</dc:title>
     </cc:Agent>
    </dc:creator>
   </cc:Work>
  </rdf:RDF>
 </metadata>
 <defs>
  <style type="text/css">*{stroke-linejoin: round; stroke-linecap: butt}</style>
 </defs>
 <g id="figure_1">
  <g id="patch_1">
   <path d="M 0 216 
L 216 216 
L 216 0 
L 0 0 
z
" style="fill: #ffffff"/>
  </g>
  <g id="axes_1">
   <g id="patch_2">
    <path d="M 57.17 154.591221 
L 190.46743 154.591221 
L 190.46743 26.16 
L 57.17 26.16 
z
" style="fill: #ffffff"/>
   </g>
   <g id="patch_3">
    <path d="M -58.76544 154.591221 
L -50.834243 154.591221 
L -50.834243 154.591221 
L -58.76544 154.591221 
z
" clip-path="url(#p498af9703e)" style="fill: #029e73; fill-opacity: 0.2; stroke: #000000; stroke-width: 0.507273; stroke-linejoin: miter"/>
   </g>
   <g id="patch_4">
    <path d="M -50.834243 154.591221 
L -42.903046 154.591221 
L -42.903046 154.591221 
L -50.834243 154.591221 
z
" clip-path="url(#p498af9703e)" style="fill: #029e73; fill-opacity: 0.2; stroke: #000000; stroke-width: 0.507273; stroke-linejoin: miter"/>
   </g>
   <g id="patch_5">
    <path d="M -42.903046 154.591221 
L -34.971849 154.591221 
L -34.971849 154.591221 
L -42.903046 154.591221 
z
" clip-path="url(#p498af9703e)" style="fill: #029e73; fill-opacity: 0.2; stroke: #000000; stroke-width: 0.507273; stroke-linejoin: miter"/>
   </g>
   <g id="patch_6">
    <path d="M -34.971849 154.591221 
L -27.040652 154.591221 
L -27.040652 154.591221 
L -34.971849 154.591221 
z
" clip-path="url(#p498af9703e)" style="fill: #029e73; fill-opacity: 0.2; stroke: #000000; stroke-width: 0.507273; stroke-linejoin: miter"/>
   </g>
   <g id="patch_7">
    <path d="M -27.040652 154.591221 
L -19.109454 154.591221 
L -19.109454 154.591221 
L -27.040652 154.591221 
z
" clip-path="url(#p498af9703e)" style="fill: #029e73; fill-opacity: 0.2; stroke: #000000; stroke-width: 0.507273; stroke-linejoin: miter"/>
   </g>
   <g id="patch_8">
    <path d="M -19.109454 154.591221 
L -11.178257 154.591221 
L -11.178257 154.591221 
L -19.109454 154.591221 
z
" clip-path="url(#p498af9703e)" style="fill: #029e73; fill-opacity: 0.2; stroke: #000000; stroke-width: 0.507273; stroke-linejoin: miter"/>
   </g>
   <g id="patch_9">
    <path d="M -11.178257 154.591221 
L -3.24706 154.591221 
L -3.24706 154.591221 
L -11.178257 154.591221 
z
" clip-path="url(#p498af9703e)" style="fill: #029e73; fill-opacity: 0.2; stroke: #000000; stroke-width: 0.507273; stroke-linejoin: miter"/>
   </g>
   <g id="patch_10">
    <path d="M -3.24706 154.591221 
L 4.684137 154.591221 
L 4.684137 154.591221 
L -3.24706 154.591221 
z
" clip-path="url(#p498af9703e)" style="fill: #029e73; fill-opacity: 0.2; stroke: #000000; stroke-width: 0.507273; stroke-linejoin: miter"/>
   </g>
   <g id="patch_11">
    <path d="M 4.684137 154.591221 
L 12.615334 154.591221 
L 12.615334 154.591221 
L 4.684137 154.591221 
z
" clip-path="url(#p498af9703e)" style="fill: #029e73; fill-opacity: 0.2; stroke: #000000; stroke-width: 0.507273; stroke-linejoin: miter"/>
   </g>
   <g id="patch_12">
    <path d="M 12.615334 154.591221 
L 20.546531 154.591221 
L 20.546531 154.591221 
L 12.615334 154.591221 
z
" clip-path="url(#p498af9703e)" style="fill: #029e73; fill-opacity: 0.2; stroke: #000000; stroke-width: 0.507273; stroke-linejoin: miter"/>
   </g>
   <g id="patch_13">
    <path d="M 20.546531 154.591221 
L 28.477728 154.591221 
L 28.477728 154.591221 
L 20.546531 154.591221 
z
" clip-path="url(#p498af9703e)" style="fill: #029e73; fill-opacity: 0.2; stroke: #000000; stroke-width: 0.507273; stroke-linejoin: miter"/>
   </g>
   <g id="patch_14">
    <path d="M 28.477728 154.591221 
L 36.408925 154.591221 
L 36.408925 154.488165 
L 28.477728 154.488165 
z
" clip-path="url(#p498af9703e)" style="fill: #029e73; fill-opacity: 0.2; stroke: #000000; stroke-width: 0.507273; stroke-linejoin: miter"/>
   </g>
   <g id="patch_15">
    <path d="M 36.408925 154.591221 
L 44.340122 154.591221 
L 44.340122 154.405721 
L 36.408925 154.405721 
z
" clip-path="url(#p498af9703e)" style="fill: #029e73; fill-opacity: 0.2; stroke: #000000; stroke-width: 0.507273; stroke-linejoin: miter"/>
   </g>
   <g id="patch_16">
    <path d="M 44.340122 154.591221 
L 52.271319 154.591221 
L 52.271319 154.22022 
L 44.340122 154.22022 
z
" clip-path="url(#p498af9703e)" style="fill: #029e73; fill-opacity: 0.2; stroke: #000000; stroke-width: 0.507273; stroke-linejoin: miter"/>
   </g>
   <g id="patch_17">
    <path d="M 52.271319 154.591221 
L 60.202517 154.591221 
L 60.202517 153.84922 
L 52.271319 153.84922 
z
" clip-path="url(#p498af9703e)" style="fill: #029e73; fill-opacity: 0.2; stroke: #000000; stroke-width: 0.507273; stroke-linejoin: miter"/>
   </g>
   <g id="patch_18">
    <path d="M 60.202517 154.591221 
L 68.133714 154.591221 
L 68.133714 153.065997 
L 60.202517 153.065997 
z
" clip-path="url(#p498af9703e)" style="fill: #029e73; fill-opacity: 0.2; stroke: #000000; stroke-width: 0.507273; stroke-linejoin: miter"/>
   </g>
   <g id="patch_19">
    <path d="M 68.133714 154.591221 
L 76.064911 154.591221 
L 76.064911 152.550719 
L 68.133714 152.550719 
z
" clip-path="url(#p498af9703e)" style="fill: #029e73; fill-opacity: 0.2; stroke: #000000; stroke-width: 0.507273; stroke-linejoin: miter"/>
   </g>
   <g id="patch_20">
    <path d="M 76.064911 154.591221 
L 83.996108 154.591221 
L 83.996108 151.355273 
L 76.064911 151.355273 
z
" clip-path="url(#p498af9703e)" style="fill: #029e73; fill-opacity: 0.2; stroke: #000000; stroke-width: 0.507273; stroke-linejoin: miter"/>
   </g>
   <g id="patch_21">
    <path d="M 83.996108 154.591221 
L 91.927305 154.591221 
L 91.927305 150.427772 
L 83.996108 150.427772 
z
" clip-path="url(#p498af9703e)" style="fill: #029e73; fill-opacity: 0.2; stroke: #000000; stroke-width: 0.507273; stroke-linejoin: miter"/>
   </g>
   <g id="patch_22">
    <path d="M 91.927305 154.591221 
L 99.858502 154.591221 
L 99.858502 148.613992 
L 91.927305 148.613992 
z
" clip-path="url(#p498af9703e)" style="fill: #029e73; fill-opacity: 0.2; stroke: #000000; stroke-width: 0.507273; stroke-linejoin: miter"/>
   </g>
   <g id="patch_23">
    <path d="M 99.858502 154.591221 
L 107.789699 154.591221 
L 107.789699 146.800212 
L 99.858502 146.800212 
z
" clip-path="url(#p498af9703e)" style="fill: #029e73; fill-opacity: 0.2; stroke: #000000; stroke-width: 0.507273; stroke-linejoin: miter"/>
   </g>
   <g id="patch_24">
    <path d="M 107.789699 154.591221 
L 115.720896 154.591221 
L 115.720896 141.11154 
L 107.789699 141.11154 
z
" clip-path="url(#p498af9703e)" style="fill: #029e73; fill-opacity: 0.2; stroke: #000000; stroke-width: 0.507273; stroke-linejoin: miter"/>
   </g>
   <g id="patch_25">
    <path d="M 115.720896 154.591221 
L 123.652093 154.591221 
L 123.652093 132.310586 
L 115.720896 132.310586 
z
" clip-path="url(#p498af9703e)" style="fill: #029e73; fill-opacity: 0.2; stroke: #000000; stroke-width: 0.507273; stroke-linejoin: miter"/>
   </g>
   <g id="patch_26">
    <path d="M 123.652093 154.591221 
L 131.58329 154.591221 
L 131.58329 111.452119 
L 123.652093 111.452119 
z
" clip-path="url(#p498af9703e)" style="fill: #029e73; fill-opacity: 0.2; stroke: #000000; stroke-width: 0.507273; stroke-linejoin: miter"/>
   </g>
   <g id="patch_27">
    <path d="M 131.58329 154.591221 
L 139.514488 154.591221 
L 139.514488 69.982518 
L 131.58329 69.982518 
z
" clip-path="url(#p498af9703e)" style="fill: #029e73; fill-opacity: 0.2; stroke: #000000; stroke-width: 0.507273; stroke-linejoin: miter"/>
   </g>
   <g id="patch_28">
    <path d="M 139.514488 154.591221 
L 147.445685 154.591221 
L 147.445685 32.655756 
L 139.514488 32.655756 
z
" clip-path="url(#p498af9703e)" style="fill: #029e73; fill-opacity: 0.2; stroke: #000000; stroke-width: 0.507273; stroke-linejoin: miter"/>
   </g>
   <g id="patch_29">
    <path d="M 147.445685 154.591221 
L 155.376882 154.591221 
L 155.376882 81.813309 
L 147.445685 81.813309 
z
" clip-path="url(#p498af9703e)" style="fill: #029e73; fill-opacity: 0.2; stroke: #000000; stroke-width: 0.507273; stroke-linejoin: miter"/>
   </g>
   <g id="patch_30">
    <path d="M 155.376882 154.591221 
L 163.308079 154.591221 
L 163.308079 137.916814 
L 155.376882 137.916814 
z
" clip-path="url(#p498af9703e)" style="fill: #029e73; fill-opacity: 0.2; stroke: #000000; stroke-width: 0.507273; stroke-linejoin: miter"/>
   </g>
   <g id="patch_31">
    <path d="M 163.308079 154.591221 
L 171.239276 154.591221 
L 171.239276 150.901828 
L 163.308079 150.901828 
z
" clip-path="url(#p498af9703e)" style="fill: #029e73; fill-opacity: 0.2; stroke: #000000; stroke-width: 0.507273; stroke-linejoin: miter"/>
   </g>
   <g id="patch_32">
    <path d="M 171.239276 154.591221 
L 179.170473 154.591221 
L 179.170473 154.591221 
L 171.239276 154.591221 
z
" clip-path="url(#p498af9703e)" style="fill: #029e73; fill-opacity: 0.2; stroke: #000000; stroke-width: 0.507273; stroke-linejoin: miter"/>
   </g>
   <g id="patch_33">
    <path d="M -58.76544 154.591221 
L -50.834243 154.591221 
L -50.834243 154.591221 
L -58.76544 154.591221 
z
" clip-path="url(#p498af9703e)" style="fill: #de8f05; fill-opacity: 0.2; stroke: #000000; stroke-width: 0.507273; stroke-linejoin: miter"/>
   </g>
   <g id="patch_34">
    <path d="M -50.834243 154.591221 
L -42.903046 154.591221 
L -42.903046 154.591221 
L -50.834243 154.591221 
z
" clip-path="url(#p498af9703e)" style="fill: #de8f05; fill-opacity: 0.2; stroke: #000000; stroke-width: 0.507273; stroke-linejoin: miter"/>
   </g>
   <g id="patch_35">
    <path d="M -42.903046 154.591221 
L -34.971849 154.591221 
L -34.971849 154.591221 
L -42.903046 154.591221 
z
" clip-path="url(#p498af9703e)" style="fill: #de8f05; fill-opacity: 0.2; stroke: #000000; stroke-width: 0.507273; stroke-linejoin: miter"/>
   </g>
   <g id="patch_36">
    <path d="M -34.971849 154.591221 
L -27.040652 154.591221 
L -27.040652 154.591221 
L -34.971849 154.591221 
z
" clip-path="url(#p498af9703e)" style="fill: #de8f05; fill-opacity: 0.2; stroke: #000000; stroke-width: 0.507273; stroke-linejoin: miter"/>
   </g>
   <g id="patch_37">
    <path d="M -27.040652 154.591221 
L -19.109454 154.591221 
L -19.109454 154.591221 
L -27.040652 154.591221 
z
" clip-path="url(#p498af9703e)" style="fill: #de8f05; fill-opacity: 0.2; stroke: #000000; stroke-width: 0.507273; stroke-linejoin: miter"/>
   </g>
   <g id="patch_38">
    <path d="M -19.109454 154.591221 
L -11.178257 154.591221 
L -11.178257 154.591221 
L -19.109454 154.591221 
z
" clip-path="url(#p498af9703e)" style="fill: #de8f05; fill-opacity: 0.2; stroke: #000000; stroke-width: 0.507273; stroke-linejoin: miter"/>
   </g>
   <g id="patch_39">
    <path d="M -11.178257 154.591221 
L -3.24706 154.591221 
L -3.24706 154.591221 
L -11.178257 154.591221 
z
" clip-path="url(#p498af9703e)" style="fill: #de8f05; fill-opacity: 0.2; stroke: #000000; stroke-width: 0.507273; stroke-linejoin: miter"/>
   </g>
   <g id="patch_40">
    <path d="M -3.24706 154.591221 
L 4.684137 154.591221 
L 4.684137 154.591221 
L -3.24706 154.591221 
z
" clip-path="url(#p498af9703e)" style="fill: #de8f05; fill-opacity: 0.2; stroke: #000000; stroke-width: 0.507273; stroke-linejoin: miter"/>
   </g>
   <g id="patch_41">
    <path d="M 4.684137 154.591221 
L 12.615334 154.591221 
L 12.615334 154.57061 
L 4.684137 154.57061 
z
" clip-path="url(#p498af9703e)" style="fill: #de8f05; fill-opacity: 0.2; stroke: #000000; stroke-width: 0.507273; stroke-linejoin: miter"/>
   </g>
   <g id="patch_42">
    <path d="M 12.615334 154.591221 
L 20.546531 154.591221 
L 20.546531 154.549999 
L 12.615334 154.549999 
z
" clip-path="url(#p498af9703e)" style="fill: #de8f05; fill-opacity: 0.2; stroke: #000000; stroke-width: 0.507273; stroke-linejoin: miter"/>
   </g>
   <g id="patch_43">
    <path d="M 20.546531 154.591221 
L 28.477728 154.591221 
L 28.477728 154.591221 
L 20.546531 154.591221 
z
" clip-path="url(#p498af9703e)" style="fill: #de8f05; fill-opacity: 0.2; stroke: #000000; stroke-width: 0.507273; stroke-linejoin: miter"/>
   </g>
   <g id="patch_44">
    <path d="M 28.477728 154.591221 
L 36.408925 154.591221 
L 36.408925 154.529387 
L 28.477728 154.529387 
z
" clip-path="url(#p498af9703e)" style="fill: #de8f05; fill-opacity: 0.2; stroke: #000000; stroke-width: 0.507273; stroke-linejoin: miter"/>
   </g>
   <g id="patch_45">
    <path d="M 36.408925 154.591221 
L 44.340122 154.591221 
L 44.340122 154.529387 
L 36.408925 154.529387 
z
" clip-path="url(#p498af9703e)" style="fill: #de8f05; fill-opacity: 0.2; stroke: #000000; stroke-width: 0.507273; stroke-linejoin: miter"/>
   </g>
   <g id="patch_46">
    <path d="M 44.340122 154.591221 
L 52.271319 154.591221 
L 52.271319 154.488165 
L 44.340122 154.488165 
z
" clip-path="url(#p498af9703e)" style="fill: #de8f05; fill-opacity: 0.2; stroke: #000000; stroke-width: 0.507273; stroke-linejoin: miter"/>
   </g>
   <g id="patch_47">
    <path d="M 52.271319 154.591221 
L 60.202517 154.591221 
L 60.202517 154.385109 
L 52.271319 154.385109 
z
" clip-path="url(#p498af9703e)" style="fill: #de8f05; fill-opacity: 0.2; stroke: #000000; stroke-width: 0.507273; stroke-linejoin: miter"/>
   </g>
   <g id="patch_48">
    <path d="M 60.202517 154.591221 
L 68.133714 154.591221 
L 68.133714 154.302665 
L 60.202517 154.302665 
z
" clip-path="url(#p498af9703e)" style="fill: #de8f05; fill-opacity: 0.2; stroke: #000000; stroke-width: 0.507273; stroke-linejoin: miter"/>
   </g>
   <g id="patch_49">
    <path d="M 68.133714 154.591221 
L 76.064911 154.591221 
L 76.064911 154.158387 
L 68.133714 154.158387 
z
" clip-path="url(#p498af9703e)" style="fill: #de8f05; fill-opacity: 0.2; stroke: #000000; stroke-width: 0.507273; stroke-linejoin: miter"/>
   </g>
   <g id="patch_50">
    <path d="M 76.064911 154.591221 
L 83.996108 154.591221 
L 83.996108 153.807998 
L 76.064911 153.807998 
z
" clip-path="url(#p498af9703e)" style="fill: #de8f05; fill-opacity: 0.2; stroke: #000000; stroke-width: 0.507273; stroke-linejoin: miter"/>
   </g>
   <g id="patch_51">
    <path d="M 83.996108 154.591221 
L 91.927305 154.591221 
L 91.927305 153.189664 
L 83.996108 153.189664 
z
" clip-path="url(#p498af9703e)" style="fill: #de8f05; fill-opacity: 0.2; stroke: #000000; stroke-width: 0.507273; stroke-linejoin: miter"/>
   </g>
   <g id="patch_52">
    <path d="M 91.927305 154.591221 
L 99.858502 154.591221 
L 99.858502 151.973607 
L 91.927305 151.973607 
z
" clip-path="url(#p498af9703e)" style="fill: #de8f05; fill-opacity: 0.2; stroke: #000000; stroke-width: 0.507273; stroke-linejoin: miter"/>
   </g>
   <g id="patch_53">
    <path d="M 99.858502 154.591221 
L 107.789699 154.591221 
L 107.789699 151.169773 
L 99.858502 151.169773 
z
" clip-path="url(#p498af9703e)" style="fill: #de8f05; fill-opacity: 0.2; stroke: #000000; stroke-width: 0.507273; stroke-linejoin: miter"/>
   </g>
   <g id="patch_54">
    <path d="M 107.789699 154.591221 
L 115.720896 154.591221 
L 115.720896 149.520882 
L 107.789699 149.520882 
z
" clip-path="url(#p498af9703e)" style="fill: #de8f05; fill-opacity: 0.2; stroke: #000000; stroke-width: 0.507273; stroke-linejoin: miter"/>
   </g>
   <g id="patch_55">
    <path d="M 115.720896 154.591221 
L 123.652093 154.591221 
L 123.652093 146.449823 
L 115.720896 146.449823 
z
" clip-path="url(#p498af9703e)" style="fill: #de8f05; fill-opacity: 0.2; stroke: #000000; stroke-width: 0.507273; stroke-linejoin: miter"/>
   </g>
   <g id="patch_56">
    <path d="M 123.652093 154.591221 
L 131.58329 154.591221 
L 131.58329 139.29776 
L 123.652093 139.29776 
z
" clip-path="url(#p498af9703e)" style="fill: #de8f05; fill-opacity: 0.2; stroke: #000000; stroke-width: 0.507273; stroke-linejoin: miter"/>
   </g>
   <g id="patch_57">
    <path d="M 131.58329 154.591221 
L 139.514488 154.591221 
L 139.514488 125.818079 
L 131.58329 125.818079 
z
" clip-path="url(#p498af9703e)" style="fill: #de8f05; fill-opacity: 0.2; stroke: #000000; stroke-width: 0.507273; stroke-linejoin: miter"/>
   </g>
   <g id="patch_58">
    <path d="M 139.514488 154.591221 
L 147.445685 154.591221 
L 147.445685 105.062667 
L 139.514488 105.062667 
z
" clip-path="url(#p498af9703e)" style="fill: #de8f05; fill-opacity: 0.2; stroke: #000000; stroke-width: 0.507273; stroke-linejoin: miter"/>
   </g>
   <g id="patch_59">
    <path d="M 147.445685 154.591221 
L 155.376882 154.591221 
L 155.376882 75.238357 
L 147.445685 75.238357 
z
" clip-path="url(#p498af9703e)" style="fill: #de8f05; fill-opacity: 0.2; stroke: #000000; stroke-width: 0.507273; stroke-linejoin: miter"/>
   </g>
   <g id="patch_60">
    <path d="M 155.376882 154.591221 
L 163.308079 154.591221 
L 163.308079 54.19439 
L 155.376882 54.19439 
z
" clip-path="url(#p498af9703e)" style="fill: #de8f05; fill-opacity: 0.2; stroke: #000000; stroke-width: 0.507273; stroke-linejoin: miter"/>
   </g>
   <g id="patch_61">
    <path d="M 163.308079 154.591221 
L 171.239276 154.591221 
L 171.239276 88.903539 
L 163.308079 88.903539 
z
" clip-path="url(#p498af9703e)" style="fill: #de8f05; fill-opacity: 0.2; stroke: #000000; stroke-width: 0.507273; stroke-linejoin: miter"/>
   </g>
   <g id="patch_62">
    <path d="M 171.239276 154.591221 
L 179.170473 154.591221 
L 179.170473 145.274989 
L 171.239276 145.274989 
z
" clip-path="url(#p498af9703e)" style="fill: #de8f05; fill-opacity: 0.2; stroke: #000000; stroke-width: 0.507273; stroke-linejoin: miter"/>
   </g>
   <g id="patch_63">
    <path d="M -58.76544 154.591221 
L -50.834243 154.591221 
L -50.834243 154.57061 
L -58.76544 154.57061 
z
" clip-path="url(#p498af9703e)" style="fill: #0173b2; fill-opacity: 0.2; stroke: #000000; stroke-width: 0.507273; stroke-linejoin: miter"/>
   </g>
   <g id="patch_64">
    <path d="M -50.834243 154.591221 
L -42.903046 154.591221 
L -42.903046 154.591221 
L -50.834243 154.591221 
z
" clip-path="url(#p498af9703e)" style="fill: #0173b2; fill-opacity: 0.2; stroke: #000000; stroke-width: 0.507273; stroke-linejoin: miter"/>
   </g>
   <g id="patch_65">
    <path d="M -42.903046 154.591221 
L -34.971849 154.591221 
L -34.971849 154.591221 
L -42.903046 154.591221 
z
" clip-path="url(#p498af9703e)" style="fill: #0173b2; fill-opacity: 0.2; stroke: #000000; stroke-width: 0.507273; stroke-linejoin: miter"/>
   </g>
   <g id="patch_66">
    <path d="M -34.971849 154.591221 
L -27.040652 154.591221 
L -27.040652 154.591221 
L -34.971849 154.591221 
z
" clip-path="url(#p498af9703e)" style="fill: #0173b2; fill-opacity: 0.2; stroke: #000000; stroke-width: 0.507273; stroke-linejoin: miter"/>
   </g>
   <g id="patch_67">
    <path d="M -27.040652 154.591221 
L -19.109454 154.591221 
L -19.109454 154.591221 
L -27.040652 154.591221 
z
" clip-path="url(#p498af9703e)" style="fill: #0173b2; fill-opacity: 0.2; stroke: #000000; stroke-width: 0.507273; stroke-linejoin: miter"/>
   </g>
   <g id="patch_68">
    <path d="M -19.109454 154.591221 
L -11.178257 154.591221 
L -11.178257 154.591221 
L -19.109454 154.591221 
z
" clip-path="url(#p498af9703e)" style="fill: #0173b2; fill-opacity: 0.2; stroke: #000000; stroke-width: 0.507273; stroke-linejoin: miter"/>
   </g>
   <g id="patch_69">
    <path d="M -11.178257 154.591221 
L -3.24706 154.591221 
L -3.24706 154.591221 
L -11.178257 154.591221 
z
" clip-path="url(#p498af9703e)" style="fill: #0173b2; fill-opacity: 0.2; stroke: #000000; stroke-width: 0.507273; stroke-linejoin: miter"/>
   </g>
   <g id="patch_70">
    <path d="M -3.24706 154.591221 
L 4.684137 154.591221 
L 4.684137 154.591221 
L -3.24706 154.591221 
z
" clip-path="url(#p498af9703e)" style="fill: #0173b2; fill-opacity: 0.2; stroke: #000000; stroke-width: 0.507273; stroke-linejoin: miter"/>
   </g>
   <g id="patch_71">
    <path d="M 4.684137 154.591221 
L 12.615334 154.591221 
L 12.615334 154.57061 
L 4.684137 154.57061 
z
" clip-path="url(#p498af9703e)" style="fill: #0173b2; fill-opacity: 0.2; stroke: #000000; stroke-width: 0.507273; stroke-linejoin: miter"/>
   </g>
   <g id="patch_72">
    <path d="M 12.615334 154.591221 
L 20.546531 154.591221 
L 20.546531 154.57061 
L 12.615334 154.57061 
z
" clip-path="url(#p498af9703e)" style="fill: #0173b2; fill-opacity: 0.2; stroke: #000000; stroke-width: 0.507273; stroke-linejoin: miter"/>
   </g>
   <g id="patch_73">
    <path d="M 20.546531 154.591221 
L 28.477728 154.591221 
L 28.477728 154.549999 
L 20.546531 154.549999 
z
" clip-path="url(#p498af9703e)" style="fill: #0173b2; fill-opacity: 0.2; stroke: #000000; stroke-width: 0.507273; stroke-linejoin: miter"/>
   </g>
   <g id="patch_74">
    <path d="M 28.477728 154.591221 
L 36.408925 154.591221 
L 36.408925 154.591221 
L 28.477728 154.591221 
z
" clip-path="url(#p498af9703e)" style="fill: #0173b2; fill-opacity: 0.2; stroke: #000000; stroke-width: 0.507273; stroke-linejoin: miter"/>
   </g>
   <g id="patch_75">
    <path d="M 36.408925 154.591221 
L 44.340122 154.591221 
L 44.340122 154.549999 
L 36.408925 154.549999 
z
" clip-path="url(#p498af9703e)" style="fill: #0173b2; fill-opacity: 0.2; stroke: #000000; stroke-width: 0.507273; stroke-linejoin: miter"/>
   </g>
   <g id="patch_76">
    <path d="M 44.340122 154.591221 
L 52.271319 154.591221 
L 52.271319 154.364498 
L 44.340122 154.364498 
z
" clip-path="url(#p498af9703e)" style="fill: #0173b2; fill-opacity: 0.2; stroke: #000000; stroke-width: 0.507273; stroke-linejoin: miter"/>
   </g>
   <g id="patch_77">
    <path d="M 52.271319 154.591221 
L 60.202517 154.591221 
L 60.202517 154.240832 
L 52.271319 154.240832 
z
" clip-path="url(#p498af9703e)" style="fill: #0173b2; fill-opacity: 0.2; stroke: #000000; stroke-width: 0.507273; stroke-linejoin: miter"/>
   </g>
   <g id="patch_78">
    <path d="M 60.202517 154.591221 
L 68.133714 154.591221 
L 68.133714 153.931665 
L 60.202517 153.931665 
z
" clip-path="url(#p498af9703e)" style="fill: #0173b2; fill-opacity: 0.2; stroke: #000000; stroke-width: 0.507273; stroke-linejoin: miter"/>
   </g>
   <g id="patch_79">
    <path d="M 68.133714 154.591221 
L 76.064911 154.591221 
L 76.064911 153.66372 
L 68.133714 153.66372 
z
" clip-path="url(#p498af9703e)" style="fill: #0173b2; fill-opacity: 0.2; stroke: #000000; stroke-width: 0.507273; stroke-linejoin: miter"/>
   </g>
   <g id="patch_80">
    <path d="M 76.064911 154.591221 
L 83.996108 154.591221 
L 83.996108 153.66372 
L 76.064911 153.66372 
z
" clip-path="url(#p498af9703e)" style="fill: #0173b2; fill-opacity: 0.2; stroke: #000000; stroke-width: 0.507273; stroke-linejoin: miter"/>
   </g>
   <g id="patch_81">
    <path d="M 83.996108 154.591221 
L 91.927305 154.591221 
L 91.927305 153.045386 
L 83.996108 153.045386 
z
" clip-path="url(#p498af9703e)" style="fill: #0173b2; fill-opacity: 0.2; stroke: #000000; stroke-width: 0.507273; stroke-linejoin: miter"/>
   </g>
   <g id="patch_82">
    <path d="M 91.927305 154.591221 
L 99.858502 154.591221 
L 99.858502 152.076663 
L 91.927305 152.076663 
z
" clip-path="url(#p498af9703e)" style="fill: #0173b2; fill-opacity: 0.2; stroke: #000000; stroke-width: 0.507273; stroke-linejoin: miter"/>
   </g>
   <g id="patch_83">
    <path d="M 99.858502 154.591221 
L 107.789699 154.591221 
L 107.789699 151.12855 
L 99.858502 151.12855 
z
" clip-path="url(#p498af9703e)" style="fill: #0173b2; fill-opacity: 0.2; stroke: #000000; stroke-width: 0.507273; stroke-linejoin: miter"/>
   </g>
   <g id="patch_84">
    <path d="M 107.789699 154.591221 
L 115.720896 154.591221 
L 115.720896 148.634603 
L 107.789699 148.634603 
z
" clip-path="url(#p498af9703e)" style="fill: #0173b2; fill-opacity: 0.2; stroke: #000000; stroke-width: 0.507273; stroke-linejoin: miter"/>
   </g>
   <g id="patch_85">
    <path d="M 115.720896 154.591221 
L 123.652093 154.591221 
L 123.652093 146.016989 
L 115.720896 146.016989 
z
" clip-path="url(#p498af9703e)" style="fill: #0173b2; fill-opacity: 0.2; stroke: #000000; stroke-width: 0.507273; stroke-linejoin: miter"/>
   </g>
   <g id="patch_86">
    <path d="M 123.652093 154.591221 
L 131.58329 154.591221 
L 131.58329 141.008484 
L 123.652093 141.008484 
z
" clip-path="url(#p498af9703e)" style="fill: #0173b2; fill-opacity: 0.2; stroke: #000000; stroke-width: 0.507273; stroke-linejoin: miter"/>
   </g>
   <g id="patch_87">
    <path d="M 131.58329 154.591221 
L 139.514488 154.591221 
L 139.514488 132.660975 
L 131.58329 132.660975 
z
" clip-path="url(#p498af9703e)" style="fill: #0173b2; fill-opacity: 0.2; stroke: #000000; stroke-width: 0.507273; stroke-linejoin: miter"/>
   </g>
   <g id="patch_88">
    <path d="M 139.514488 154.591221 
L 147.445685 154.591221 
L 147.445685 116.74918 
L 139.514488 116.74918 
z
" clip-path="url(#p498af9703e)" style="fill: #0173b2; fill-opacity: 0.2; stroke: #000000; stroke-width: 0.507273; stroke-linejoin: miter"/>
   </g>
   <g id="patch_89">
    <path d="M 147.445685 154.591221 
L 155.376882 154.591221 
L 155.376882 86.409592 
L 147.445685 86.409592 
z
" clip-path="url(#p498af9703e)" style="fill: #0173b2; fill-opacity: 0.2; stroke: #000000; stroke-width: 0.507273; stroke-linejoin: miter"/>
   </g>
   <g id="patch_90">
    <path d="M 155.376882 154.591221 
L 163.308079 154.591221 
L 163.308079 47.475161 
L 155.376882 47.475161 
z
" clip-path="url(#p498af9703e)" style="fill: #0173b2; fill-opacity: 0.2; stroke: #000000; stroke-width: 0.507273; stroke-linejoin: miter"/>
   </g>
   <g id="patch_91">
    <path d="M 163.308079 154.591221 
L 171.239276 154.591221 
L 171.239276 64.149568 
L 163.308079 64.149568 
z
" clip-path="url(#p498af9703e)" style="fill: #0173b2; fill-opacity: 0.2; stroke: #000000; stroke-width: 0.507273; stroke-linejoin: miter"/>
   </g>
   <g id="patch_92">
    <path d="M 171.239276 154.591221 
L 179.170473 154.591221 
L 179.170473 149.191104 
L 171.239276 149.191104 
z
" clip-path="url(#p498af9703e)" style="fill: #0173b2; fill-opacity: 0.2; stroke: #000000; stroke-width: 0.507273; stroke-linejoin: miter"/>
   </g>
   <g id="matplotlib.axis_1">
    <g id="xtick_1">
     <g id="line2d_1">
      <defs>
       <path id="m50f98369ea" d="M 0 0 
L 0 3.5 
" style="stroke: #000000; stroke-width: 0.8"/>
      </defs>
      <g>
       <use xlink:href="#m50f98369ea" x="57.17" y="154.591221" style="stroke: #000000; stroke-width: 0.8"/>
      </g>
     </g>
     <g id="text_1">
      <!-- 14000 -->
      <g transform="translate(47.873756 189.458962) rotate(-45) scale(0.1 -0.1)">
       <defs>
        <path id="DejaVuSerif-31" d="M 909 0 
L 909 331 
L 1722 331 
L 1722 4213 
L 781 3603 
L 781 4013 
L 1919 4750 
L 2350 4750 
L 2350 331 
L 3163 331 
L 3163 0 
L 909 0 
z
" transform="scale(0.015625)"/>
        <path id="DejaVuSerif-34" d="M 2234 1581 
L 2234 4063 
L 641 1581 
L 2234 1581 
z
M 3609 0 
L 1484 0 
L 1484 331 
L 2234 331 
L 2234 1247 
L 197 1247 
L 197 1588 
L 2241 4750 
L 2859 4750 
L 2859 1581 
L 3750 1581 
L 3750 1247 
L 2859 1247 
L 2859 331 
L 3609 331 
L 3609 0 
z
" transform="scale(0.015625)"/>
        <path id="DejaVuSerif-30" d="M 2034 219 
Q 2513 219 2750 744 
Q 2988 1269 2988 2328 
Q 2988 3391 2750 3916 
Q 2513 4441 2034 4441 
Q 1556 4441 1318 3916 
Q 1081 3391 1081 2328 
Q 1081 1269 1318 744 
Q 1556 219 2034 219 
z
M 2034 -91 
Q 1275 -91 848 546 
Q 422 1184 422 2328 
Q 422 3475 848 4112 
Q 1275 4750 2034 4750 
Q 2797 4750 3222 4112 
Q 3647 3475 3647 2328 
Q 3647 1184 3222 546 
Q 2797 -91 2034 -91 
z
" transform="scale(0.015625)"/>
       </defs>
       <use xlink:href="#DejaVuSerif-31"/>
       <use xlink:href="#DejaVuSerif-34" x="63.623047"/>
       <use xlink:href="#DejaVuSerif-30" x="127.246094"/>
       <use xlink:href="#DejaVuSerif-30" x="190.869141"/>
       <use xlink:href="#DejaVuSerif-30" x="254.492188"/>
      </g>
     </g>
    </g>
    <g id="xtick_2">
     <g id="line2d_2">
      <g>
       <use xlink:href="#m50f98369ea" x="90.494358" y="154.591221" style="stroke: #000000; stroke-width: 0.8"/>
      </g>
     </g>
     <g id="text_2">
      <!-- 15000 -->
      <g transform="translate(81.198113 189.458962) rotate(-45) scale(0.1 -0.1)">
       <defs>
        <path id="DejaVuSerif-35" d="M 3219 4666 
L 3219 4153 
L 1081 4153 
L 1081 2816 
Q 1244 2928 1461 2984 
Q 1678 3041 1947 3041 
Q 2703 3041 3140 2622 
Q 3578 2203 3578 1478 
Q 3578 738 3136 323 
Q 2694 -91 1894 -91 
Q 1572 -91 1234 -12 
Q 897 66 544 225 
L 544 1131 
L 897 1131 
Q 925 688 1179 453 
Q 1434 219 1894 219 
Q 2388 219 2653 544 
Q 2919 869 2919 1478 
Q 2919 2084 2655 2407 
Q 2391 2731 1894 2731 
Q 1613 2731 1398 2631 
Q 1184 2531 1019 2322 
L 750 2322 
L 750 4666 
L 3219 4666 
z
" transform="scale(0.015625)"/>
       </defs>
       <use xlink:href="#DejaVuSerif-31"/>
       <use xlink:href="#DejaVuSerif-35" x="63.623047"/>
       <use xlink:href="#DejaVuSerif-30" x="127.246094"/>
       <use xlink:href="#DejaVuSerif-30" x="190.869141"/>
       <use xlink:href="#DejaVuSerif-30" x="254.492188"/>
      </g>
     </g>
    </g>
    <g id="xtick_3">
     <g id="line2d_3">
      <g>
       <use xlink:href="#m50f98369ea" x="123.818715" y="154.591221" style="stroke: #000000; stroke-width: 0.8"/>
      </g>
     </g>
     <g id="text_3">
      <!-- 16000 -->
      <g transform="translate(114.522471 189.458962) rotate(-45) scale(0.1 -0.1)">
       <defs>
        <path id="DejaVuSerif-36" d="M 2094 219 
Q 2534 219 2771 542 
Q 3009 866 3009 1472 
Q 3009 2078 2771 2401 
Q 2534 2725 2094 2725 
Q 1647 2725 1412 2412 
Q 1178 2100 1178 1509 
Q 1178 888 1415 553 
Q 1653 219 2094 219 
z
M 1075 2569 
Q 1288 2803 1556 2918 
Q 1825 3034 2163 3034 
Q 2859 3034 3264 2615 
Q 3669 2197 3669 1472 
Q 3669 763 3233 336 
Q 2797 -91 2069 -91 
Q 1278 -91 853 498 
Q 428 1088 428 2181 
Q 428 3406 931 4078 
Q 1434 4750 2350 4750 
Q 2597 4750 2869 4703 
Q 3141 4656 3425 4563 
L 3425 3794 
L 3072 3794 
Q 3034 4109 2831 4275 
Q 2628 4441 2284 4441 
Q 1678 4441 1381 3981 
Q 1084 3522 1075 2569 
z
" transform="scale(0.015625)"/>
       </defs>
       <use xlink:href="#DejaVuSerif-31"/>
       <use xlink:href="#DejaVuSerif-36" x="63.623047"/>
       <use xlink:href="#DejaVuSerif-30" x="127.246094"/>
       <use xlink:href="#DejaVuSerif-30" x="190.869141"/>
       <use xlink:href="#DejaVuSerif-30" x="254.492188"/>
      </g>
     </g>
    </g>
    <g id="xtick_4">
     <g id="line2d_4">
      <g>
       <use xlink:href="#m50f98369ea" x="157.143073" y="154.591221" style="stroke: #000000; stroke-width: 0.8"/>
      </g>
     </g>
     <g id="text_4">
      <!-- 17000 -->
      <g transform="translate(147.846828 189.458962) rotate(-45) scale(0.1 -0.1)">
       <defs>
        <path id="DejaVuSerif-37" d="M 3609 4347 
L 1784 0 
L 1319 0 
L 3059 4153 
L 903 4153 
L 903 3578 
L 538 3578 
L 538 4666 
L 3609 4666 
L 3609 4347 
z
" transform="scale(0.015625)"/>
       </defs>
       <use xlink:href="#DejaVuSerif-31"/>
       <use xlink:href="#DejaVuSerif-37" x="63.623047"/>
       <use xlink:href="#DejaVuSerif-30" x="127.246094"/>
       <use xlink:href="#DejaVuSerif-30" x="190.869141"/>
       <use xlink:href="#DejaVuSerif-30" x="254.492188"/>
      </g>
     </g>
    </g>
    <g id="xtick_5">
     <g id="line2d_5">
      <g>
       <use xlink:href="#m50f98369ea" x="190.46743" y="154.591221" style="stroke: #000000; stroke-width: 0.8"/>
      </g>
     </g>
     <g id="text_5">
      <!-- 18000 -->
      <g transform="translate(181.171186 189.458962) rotate(-45) scale(0.1 -0.1)">
       <defs>
        <path id="DejaVuSerif-38" d="M 2981 1275 
Q 2981 1775 2732 2051 
Q 2484 2328 2034 2328 
Q 1584 2328 1336 2051 
Q 1088 1775 1088 1275 
Q 1088 772 1336 495 
Q 1584 219 2034 219 
Q 2484 219 2732 495 
Q 2981 772 2981 1275 
z
M 2853 3541 
Q 2853 3966 2637 4203 
Q 2422 4441 2034 4441 
Q 1650 4441 1433 4203 
Q 1216 3966 1216 3541 
Q 1216 3113 1433 2875 
Q 1650 2638 2034 2638 
Q 2422 2638 2637 2875 
Q 2853 3113 2853 3541 
z
M 2516 2484 
Q 3047 2413 3344 2092 
Q 3641 1772 3641 1275 
Q 3641 619 3225 264 
Q 2809 -91 2034 -91 
Q 1263 -91 845 264 
Q 428 619 428 1275 
Q 428 1772 725 2092 
Q 1022 2413 1556 2484 
Q 1084 2569 832 2842 
Q 581 3116 581 3541 
Q 581 4103 968 4426 
Q 1356 4750 2034 4750 
Q 2713 4750 3100 4426 
Q 3488 4103 3488 3541 
Q 3488 3116 3236 2842 
Q 2984 2569 2516 2484 
z
" transform="scale(0.015625)"/>
       </defs>
       <use xlink:href="#DejaVuSerif-31"/>
       <use xlink:href="#DejaVuSerif-38" x="63.623047"/>
       <use xlink:href="#DejaVuSerif-30" x="127.246094"/>
       <use xlink:href="#DejaVuSerif-30" x="190.869141"/>
       <use xlink:href="#DejaVuSerif-30" x="254.492188"/>
      </g>
     </g>
    </g>
    <g id="text_6">
     <!-- Number of zeroes per cell -->
     <g transform="translate(57.688246 202.527961) scale(0.1 -0.1)">
      <defs>
       <path id="DejaVuSerif-4e" d="M 313 0 
L 313 331 
L 941 331 
L 941 4331 
L 313 4331 
L 313 4666 
L 1509 4666 
L 4306 984 
L 4306 4331 
L 3681 4331 
L 3681 4666 
L 5319 4666 
L 5319 4331 
L 4691 4331 
L 4691 -91 
L 4313 -91 
L 1325 3841 
L 1325 331 
L 1953 331 
L 1953 0 
L 313 0 
z
" transform="scale(0.015625)"/>
       <path id="DejaVuSerif-75" d="M 2266 3322 
L 3341 3322 
L 3341 331 
L 3884 331 
L 3884 0 
L 2766 0 
L 2766 588 
Q 2606 256 2353 82 
Q 2100 -91 1766 -91 
Q 1213 -91 952 223 
Q 691 538 691 1209 
L 691 2988 
L 172 2988 
L 172 3322 
L 1269 3322 
L 1269 1388 
Q 1269 781 1417 556 
Q 1566 331 1947 331 
Q 2347 331 2556 625 
Q 2766 919 2766 1478 
L 2766 2988 
L 2266 2988 
L 2266 3322 
z
" transform="scale(0.015625)"/>
       <path id="DejaVuSerif-6d" d="M 3316 2675 
Q 3481 3041 3739 3227 
Q 3997 3413 4341 3413 
Q 4863 3413 5119 3089 
Q 5375 2766 5375 2113 
L 5375 331 
L 5894 331 
L 5894 0 
L 4300 0 
L 4300 331 
L 4800 331 
L 4800 2047 
Q 4800 2556 4650 2772 
Q 4500 2988 4153 2988 
Q 3769 2988 3567 2697 
Q 3366 2406 3366 1850 
L 3366 331 
L 3866 331 
L 3866 0 
L 2291 0 
L 2291 331 
L 2791 331 
L 2791 2069 
Q 2791 2566 2641 2777 
Q 2491 2988 2144 2988 
Q 1759 2988 1557 2697 
Q 1356 2406 1356 1850 
L 1356 331 
L 1856 331 
L 1856 0 
L 263 0 
L 263 331 
L 781 331 
L 781 2994 
L 231 2994 
L 231 3322 
L 1356 3322 
L 1356 2731 
Q 1516 3063 1762 3238 
Q 2009 3413 2322 3413 
Q 2709 3413 2968 3220 
Q 3228 3028 3316 2675 
z
" transform="scale(0.015625)"/>
       <path id="DejaVuSerif-62" d="M 738 331 
L 738 4531 
L 184 4531 
L 184 4863 
L 1313 4863 
L 1313 2803 
Q 1481 3116 1742 3264 
Q 2003 3413 2388 3413 
Q 3000 3413 3387 2928 
Q 3775 2444 3775 1663 
Q 3775 881 3387 395 
Q 3000 -91 2388 -91 
Q 2003 -91 1742 57 
Q 1481 206 1313 519 
L 1313 0 
L 184 0 
L 184 331 
L 738 331 
z
M 1313 1497 
Q 1313 897 1542 583 
Q 1772 269 2209 269 
Q 2650 269 2876 622 
Q 3103 975 3103 1663 
Q 3103 2353 2876 2703 
Q 2650 3053 2209 3053 
Q 1772 3053 1542 2737 
Q 1313 2422 1313 1825 
L 1313 1497 
z
" transform="scale(0.015625)"/>
       <path id="DejaVuSerif-65" d="M 3469 1600 
L 991 1600 
L 991 1575 
Q 991 903 1244 561 
Q 1497 219 1991 219 
Q 2369 219 2611 417 
Q 2853 616 2950 1006 
L 3413 1006 
Q 3275 459 2904 184 
Q 2534 -91 1931 -91 
Q 1203 -91 761 389 
Q 319 869 319 1663 
Q 319 2450 753 2931 
Q 1188 3413 1894 3413 
Q 2647 3413 3050 2948 
Q 3453 2484 3469 1600 
z
M 2791 1931 
Q 2772 2513 2545 2808 
Q 2319 3103 1894 3103 
Q 1497 3103 1269 2806 
Q 1041 2509 991 1931 
L 2791 1931 
z
" transform="scale(0.015625)"/>
       <path id="DejaVuSerif-72" d="M 3059 3328 
L 3059 2497 
L 2728 2497 
Q 2713 2744 2591 2866 
Q 2469 2988 2234 2988 
Q 1809 2988 1582 2694 
Q 1356 2400 1356 1850 
L 1356 331 
L 2022 331 
L 2022 0 
L 263 0 
L 263 331 
L 781 331 
L 781 2994 
L 231 2994 
L 231 3322 
L 1356 3322 
L 1356 2731 
Q 1525 3078 1790 3245 
Q 2056 3413 2438 3413 
Q 2578 3413 2733 3391 
Q 2888 3369 3059 3328 
z
" transform="scale(0.015625)"/>
       <path id="DejaVuSerif-20" transform="scale(0.015625)"/>
       <path id="DejaVuSerif-6f" d="M 1925 219 
Q 2388 219 2623 584 
Q 2859 950 2859 1663 
Q 2859 2375 2623 2739 
Q 2388 3103 1925 3103 
Q 1463 3103 1227 2739 
Q 991 2375 991 1663 
Q 991 950 1228 584 
Q 1466 219 1925 219 
z
M 1925 -91 
Q 1200 -91 759 389 
Q 319 869 319 1663 
Q 319 2456 758 2934 
Q 1197 3413 1925 3413 
Q 2653 3413 3092 2934 
Q 3531 2456 3531 1663 
Q 3531 869 3092 389 
Q 2653 -91 1925 -91 
z
" transform="scale(0.015625)"/>
       <path id="DejaVuSerif-66" d="M 2753 4078 
L 2450 4078 
Q 2447 4313 2317 4434 
Q 2188 4556 1941 4556 
Q 1619 4556 1487 4379 
Q 1356 4203 1356 3750 
L 1356 3322 
L 2284 3322 
L 2284 2988 
L 1356 2988 
L 1356 331 
L 2094 331 
L 2094 0 
L 231 0 
L 231 331 
L 781 331 
L 781 2988 
L 231 2988 
L 231 3322 
L 781 3322 
L 781 3738 
Q 781 4294 1070 4578 
Q 1359 4863 1919 4863 
Q 2128 4863 2337 4825 
Q 2547 4788 2753 4709 
L 2753 4078 
z
" transform="scale(0.015625)"/>
       <path id="DejaVuSerif-7a" d="M 256 0 
L 256 269 
L 2338 2988 
L 691 2988 
L 691 2413 
L 359 2413 
L 359 3322 
L 3078 3322 
L 3078 3053 
L 997 331 
L 2803 331 
L 2803 934 
L 3138 934 
L 3138 0 
L 256 0 
z
" transform="scale(0.015625)"/>
       <path id="DejaVuSerif-73" d="M 359 184 
L 359 959 
L 691 959 
Q 703 588 923 403 
Q 1144 219 1575 219 
Q 1963 219 2166 364 
Q 2369 509 2369 788 
Q 2369 1006 2220 1140 
Q 2072 1275 1594 1428 
L 1178 1569 
Q 750 1706 558 1912 
Q 366 2119 366 2438 
Q 366 2894 700 3153 
Q 1034 3413 1625 3413 
Q 1888 3413 2178 3344 
Q 2469 3275 2778 3144 
L 2778 2419 
L 2447 2419 
Q 2434 2741 2221 2922 
Q 2009 3103 1644 3103 
Q 1281 3103 1095 2975 
Q 909 2847 909 2591 
Q 909 2381 1050 2254 
Q 1191 2128 1613 1997 
L 2069 1856 
Q 2541 1709 2748 1489 
Q 2956 1269 2956 922 
Q 2956 450 2595 179 
Q 2234 -91 1600 -91 
Q 1278 -91 972 -22 
Q 666 47 359 184 
z
" transform="scale(0.015625)"/>
       <path id="DejaVuSerif-70" d="M 1313 1825 
L 1313 1497 
Q 1313 897 1542 583 
Q 1772 269 2209 269 
Q 2650 269 2876 622 
Q 3103 975 3103 1663 
Q 3103 2353 2876 2703 
Q 2650 3053 2209 3053 
Q 1772 3053 1542 2737 
Q 1313 2422 1313 1825 
z
M 738 2988 
L 184 2988 
L 184 3322 
L 1313 3322 
L 1313 2803 
Q 1481 3116 1742 3264 
Q 2003 3413 2388 3413 
Q 3000 3413 3387 2928 
Q 3775 2444 3775 1663 
Q 3775 881 3387 395 
Q 3000 -91 2388 -91 
Q 2003 -91 1742 57 
Q 1481 206 1313 519 
L 1313 -997 
L 1856 -997 
L 1856 -1331 
L 184 -1331 
L 184 -997 
L 738 -997 
L 738 2988 
z
" transform="scale(0.015625)"/>
       <path id="DejaVuSerif-63" d="M 3291 997 
Q 3169 466 2822 187 
Q 2475 -91 1925 -91 
Q 1200 -91 759 389 
Q 319 869 319 1663 
Q 319 2459 759 2936 
Q 1200 3413 1925 3413 
Q 2241 3413 2553 3339 
Q 2866 3266 3181 3116 
L 3181 2266 
L 2847 2266 
Q 2781 2703 2561 2903 
Q 2341 3103 1931 3103 
Q 1466 3103 1228 2742 
Q 991 2381 991 1663 
Q 991 944 1227 581 
Q 1463 219 1931 219 
Q 2303 219 2525 412 
Q 2747 606 2828 997 
L 3291 997 
z
" transform="scale(0.015625)"/>
       <path id="DejaVuSerif-6c" d="M 1313 331 
L 1856 331 
L 1856 0 
L 184 0 
L 184 331 
L 738 331 
L 738 4531 
L 184 4531 
L 184 4863 
L 1313 4863 
L 1313 331 
z
" transform="scale(0.015625)"/>
      </defs>
      <use xlink:href="#DejaVuSerif-4e"/>
      <use xlink:href="#DejaVuSerif-75" x="87.5"/>
      <use xlink:href="#DejaVuSerif-6d" x="151.904297"/>
      <use xlink:href="#DejaVuSerif-62" x="246.728516"/>
      <use xlink:href="#DejaVuSerif-65" x="310.742188"/>
      <use xlink:href="#DejaVuSerif-72" x="369.921875"/>
      <use xlink:href="#DejaVuSerif-20" x="417.724609"/>
      <use xlink:href="#DejaVuSerif-6f" x="449.511719"/>
      <use xlink:href="#DejaVuSerif-66" x="509.716797"/>
      <use xlink:href="#DejaVuSerif-20" x="546.728516"/>
      <use xlink:href="#DejaVuSerif-7a" x="578.515625"/>
      <use xlink:href="#DejaVuSerif-65" x="631.201172"/>
      <use xlink:href="#DejaVuSerif-72" x="690.380859"/>
      <use xlink:href="#DejaVuSerif-6f" x="738.183594"/>
      <use xlink:href="#DejaVuSerif-65" x="798.388672"/>
      <use xlink:href="#DejaVuSerif-73" x="857.568359"/>
      <use xlink:href="#DejaVuSerif-20" x="908.886719"/>
      <use xlink:href="#DejaVuSerif-70" x="940.673828"/>
      <use xlink:href="#DejaVuSerif-65" x="1004.6875"/>
      <use xlink:href="#DejaVuSerif-72" x="1063.867188"/>
      <use xlink:href="#DejaVuSerif-20" x="1111.669922"/>
      <use xlink:href="#DejaVuSerif-63" x="1143.457031"/>
      <use xlink:href="#DejaVuSerif-65" x="1199.462891"/>
      <use xlink:href="#DejaVuSerif-6c" x="1258.642578"/>
      <use xlink:href="#DejaVuSerif-6c" x="1290.625"/>
     </g>
    </g>
   </g>
   <g id="matplotlib.axis_2">
    <g id="ytick_1">
     <g id="line2d_6">
      <defs>
       <path id="m028a395000" d="M 0 0 
L -3.5 0 
" style="stroke: #000000; stroke-width: 0.8"/>
      </defs>
      <g>
       <use xlink:href="#m028a395000" x="57.17" y="154.591221" style="stroke: #000000; stroke-width: 0.8"/>
      </g>
     </g>
     <g id="text_7">
      <!-- 0 -->
      <g transform="translate(43.8075 158.39044) scale(0.1 -0.1)">
       <use xlink:href="#DejaVuSerif-30"/>
      </g>
     </g>
    </g>
    <g id="ytick_2">
     <g id="line2d_7">
      <g>
       <use xlink:href="#m028a395000" x="57.17" y="113.368954" style="stroke: #000000; stroke-width: 0.8"/>
      </g>
     </g>
     <g id="text_8">
      <!-- 2000 -->
      <g transform="translate(24.72 117.168173) scale(0.1 -0.1)">
       <defs>
        <path id="DejaVuSerif-32" d="M 819 3553 
L 469 3553 
L 469 4384 
Q 803 4563 1142 4656 
Q 1481 4750 1806 4750 
Q 2534 4750 2956 4397 
Q 3378 4044 3378 3438 
Q 3378 2753 2422 1800 
Q 2347 1728 2309 1691 
L 1131 513 
L 3078 513 
L 3078 1088 
L 3444 1088 
L 3444 0 
L 434 0 
L 434 341 
L 1850 1753 
Q 2319 2222 2519 2614 
Q 2719 3006 2719 3438 
Q 2719 3909 2473 4175 
Q 2228 4441 1797 4441 
Q 1350 4441 1106 4219 
Q 863 3997 819 3553 
z
" transform="scale(0.015625)"/>
       </defs>
       <use xlink:href="#DejaVuSerif-32"/>
       <use xlink:href="#DejaVuSerif-30" x="63.623047"/>
       <use xlink:href="#DejaVuSerif-30" x="127.246094"/>
       <use xlink:href="#DejaVuSerif-30" x="190.869141"/>
      </g>
     </g>
    </g>
    <g id="ytick_3">
     <g id="line2d_8">
      <g>
       <use xlink:href="#m028a395000" x="57.17" y="72.146687" style="stroke: #000000; stroke-width: 0.8"/>
      </g>
     </g>
     <g id="text_9">
      <!-- 4000 -->
      <g transform="translate(24.72 75.945906) scale(0.1 -0.1)">
       <use xlink:href="#DejaVuSerif-34"/>
       <use xlink:href="#DejaVuSerif-30" x="63.623047"/>
       <use xlink:href="#DejaVuSerif-30" x="127.246094"/>
       <use xlink:href="#DejaVuSerif-30" x="190.869141"/>
      </g>
     </g>
    </g>
    <g id="ytick_4">
     <g id="line2d_9">
      <g>
       <use xlink:href="#m028a395000" x="57.17" y="30.924421" style="stroke: #000000; stroke-width: 0.8"/>
      </g>
     </g>
     <g id="text_10">
      <!-- 6000 -->
      <g transform="translate(24.72 34.723639) scale(0.1 -0.1)">
       <use xlink:href="#DejaVuSerif-36"/>
       <use xlink:href="#DejaVuSerif-30" x="63.623047"/>
       <use xlink:href="#DejaVuSerif-30" x="127.246094"/>
       <use xlink:href="#DejaVuSerif-30" x="190.869141"/>
      </g>
     </g>
    </g>
    <g id="text_11">
     <!-- Frequency -->
     <g transform="translate(18.498125 117.420142) rotate(-90) scale(0.1 -0.1)">
      <defs>
       <path id="DejaVuSerif-46" d="M 353 0 
L 353 331 
L 947 331 
L 947 4331 
L 353 4331 
L 353 4666 
L 4172 4666 
L 4172 3628 
L 3788 3628 
L 3788 4281 
L 1581 4281 
L 1581 2719 
L 3175 2719 
L 3175 3303 
L 3559 3303 
L 3559 1753 
L 3175 1753 
L 3175 2338 
L 1581 2338 
L 1581 331 
L 2328 331 
L 2328 0 
L 353 0 
z
" transform="scale(0.015625)"/>
       <path id="DejaVuSerif-71" d="M 3359 2988 
L 3359 -997 
L 3909 -997 
L 3909 -1331 
L 2241 -1331 
L 2241 -997 
L 2784 -997 
L 2784 519 
Q 2616 206 2355 57 
Q 2094 -91 1709 -91 
Q 1097 -91 708 395 
Q 319 881 319 1663 
Q 319 2444 706 2928 
Q 1094 3413 1709 3413 
Q 2094 3413 2355 3264 
Q 2616 3116 2784 2803 
L 2784 3322 
L 3909 3322 
L 3909 2988 
L 3359 2988 
z
M 2784 1825 
Q 2784 2422 2554 2737 
Q 2325 3053 1888 3053 
Q 1444 3053 1217 2703 
Q 991 2353 991 1663 
Q 991 975 1217 622 
Q 1444 269 1888 269 
Q 2325 269 2554 583 
Q 2784 897 2784 1497 
L 2784 1825 
z
" transform="scale(0.015625)"/>
       <path id="DejaVuSerif-6e" d="M 263 0 
L 263 331 
L 781 331 
L 781 2988 
L 231 2988 
L 231 3322 
L 1356 3322 
L 1356 2731 
Q 1516 3069 1770 3241 
Q 2025 3413 2363 3413 
Q 2913 3413 3172 3097 
Q 3431 2781 3431 2113 
L 3431 331 
L 3944 331 
L 3944 0 
L 2356 0 
L 2356 331 
L 2853 331 
L 2853 1931 
Q 2853 2541 2703 2767 
Q 2553 2994 2175 2994 
Q 1775 2994 1565 2701 
Q 1356 2409 1356 1850 
L 1356 331 
L 1856 331 
L 1856 0 
L 263 0 
z
" transform="scale(0.015625)"/>
       <path id="DejaVuSerif-79" d="M 1381 -609 
L 1600 -56 
L 359 2988 
L -19 2988 
L -19 3322 
L 1509 3322 
L 1509 2988 
L 978 2988 
L 1913 703 
L 2847 2988 
L 2350 2988 
L 2350 3322 
L 3597 3322 
L 3597 2988 
L 3225 2988 
L 1703 -750 
Q 1547 -1138 1356 -1280 
Q 1166 -1422 819 -1422 
Q 672 -1422 517 -1397 
Q 363 -1372 206 -1325 
L 206 -691 
L 500 -691 
Q 519 -903 608 -995 
Q 697 -1088 884 -1088 
Q 1056 -1088 1161 -992 
Q 1266 -897 1381 -609 
z
" transform="scale(0.015625)"/>
      </defs>
      <use xlink:href="#DejaVuSerif-46"/>
      <use xlink:href="#DejaVuSerif-72" x="69.384766"/>
      <use xlink:href="#DejaVuSerif-65" x="117.1875"/>
      <use xlink:href="#DejaVuSerif-71" x="176.367188"/>
      <use xlink:href="#DejaVuSerif-75" x="240.380859"/>
      <use xlink:href="#DejaVuSerif-65" x="304.785156"/>
      <use xlink:href="#DejaVuSerif-6e" x="363.964844"/>
      <use xlink:href="#DejaVuSerif-63" x="428.369141"/>
      <use xlink:href="#DejaVuSerif-79" x="484.375"/>
     </g>
    </g>
   </g>
   <g id="line2d_10">
    <path d="M -1 154.591221 
L 32.104557 154.50364 
L 41.66982 154.374285 
L 46.452451 154.373201 
L 57.213372 153.77883 
L 60.800345 153.346591 
L 64.387319 153.141832 
L 69.16995 152.477933 
L 72.756924 152.331143 
L 75.14824 152.279308 
L 77.539555 151.876645 
L 81.126529 151.120115 
L 84.713503 150.699816 
L 90.691792 150.356726 
L 93.083108 149.802815 
L 95.474423 148.950006 
L 99.061397 147.392333 
L 101.452712 146.88437 
L 103.844028 146.503435 
L 105.039686 146.18832 
L 106.235344 145.638164 
L 107.431002 144.795837 
L 114.604949 138.602938 
L 116.996265 135.91309 
L 119.38758 132.655128 
L 121.778896 128.703269 
L 122.974554 126.244905 
L 124.170212 123.16685 
L 125.36587 119.380647 
L 127.757185 110.354301 
L 130.148501 100.190751 
L 132.539817 88.66752 
L 133.735475 82.137785 
L 136.12679 67.141528 
L 138.518106 51.803957 
L 139.713764 45.307933 
L 140.909422 39.909573 
L 142.10508 35.676112 
L 143.300737 32.908934 
L 144.496395 32.275772 
L 145.692053 34.545152 
L 146.887711 40.096632 
L 148.083369 48.67269 
L 149.279027 59.570884 
L 154.061658 109.124882 
L 155.257316 118.876902 
L 156.452974 126.506994 
L 157.648632 132.090469 
L 158.844289 136.067664 
L 160.039947 139.003481 
L 161.235605 141.352546 
L 163.626921 145.352134 
L 166.018237 149.136787 
L 167.213894 150.84563 
L 168.409552 152.267066 
L 169.60521 153.314517 
L 170.800868 153.982761 
L 171.996526 154.344231 
L 174.387842 154.56755 
L 179.170473 154.591203 
L 179.170473 154.591203 
" clip-path="url(#p498af9703e)" style="fill: none; stroke: #029e73; stroke-width: 2; stroke-linecap: square"/>
   </g>
   <g id="line2d_11">
    <path d="M -1 154.591202 
L 46.452451 154.500577 
L 61.996003 154.252596 
L 66.778635 154.34893 
L 72.756924 154.140753 
L 75.14824 154.156319 
L 77.539555 153.975358 
L 81.126529 153.63261 
L 84.713503 153.500719 
L 89.496134 153.004015 
L 94.278765 152.357193 
L 96.670081 152.078707 
L 101.452712 151.285568 
L 105.039686 150.946002 
L 111.017975 149.760766 
L 112.213633 149.309772 
L 115.800607 147.574991 
L 116.996265 147.232481 
L 119.38758 146.794557 
L 120.583238 146.389049 
L 121.778896 145.689987 
L 122.974554 144.66725 
L 124.170212 143.360936 
L 130.148501 135.791744 
L 131.344159 134.005129 
L 132.539817 131.846048 
L 136.12679 124.605681 
L 138.518106 119.223781 
L 140.909422 113.101609 
L 142.10508 109.664248 
L 143.300737 105.824172 
L 145.692053 97.14843 
L 152.866 69.506428 
L 155.257316 59.695623 
L 156.452974 55.869366 
L 157.648632 53.676935 
L 158.844289 53.379215 
L 160.039947 54.803263 
L 161.235605 57.533888 
L 162.431263 61.224409 
L 163.626921 65.860103 
L 164.822579 71.779556 
L 166.018237 79.355531 
L 167.213894 88.569305 
L 170.800868 119.666234 
L 171.996526 128.635143 
L 173.192184 136.070747 
L 174.387842 141.937228 
L 175.583499 146.411799 
L 176.779157 149.700773 
L 177.974815 151.959752 
L 179.170473 153.347133 
L 179.170473 153.347133 
" clip-path="url(#p498af9703e)" style="fill: none; stroke: #de8f05; stroke-width: 2; stroke-linecap: square"/>
   </g>
   <g id="line2d_12">
    <path d="M -1 154.591142 
L 42.865478 154.503902 
L 52.43074 154.28063 
L 60.800345 154.03772 
L 65.582977 153.883852 
L 72.756924 153.659348 
L 82.322187 153.54404 
L 88.300476 152.956572 
L 91.88745 152.67195 
L 99.061397 151.908498 
L 101.452712 151.649421 
L 103.844028 151.135967 
L 107.431002 150.037571 
L 112.213633 148.375679 
L 115.800607 147.229697 
L 120.583238 145.64711 
L 122.974554 144.777519 
L 124.170212 144.198704 
L 125.36587 143.425334 
L 126.561527 142.389651 
L 128.952843 139.727689 
L 131.344159 137.102588 
L 133.735475 134.569223 
L 136.12679 131.558361 
L 137.322448 129.781952 
L 139.713764 125.629366 
L 140.909422 123.246133 
L 142.10508 120.578278 
L 143.300737 117.519 
L 144.496395 114.024405 
L 146.887711 105.983019 
L 148.083369 101.468621 
L 149.279027 96.428853 
L 150.474685 90.72013 
L 152.866 77.708352 
L 155.257316 64.456187 
L 156.452974 58.576795 
L 157.648632 53.488873 
L 158.844289 49.216413 
L 160.039947 45.773681 
L 161.235605 43.267343 
L 162.431263 41.938527 
L 163.626921 42.324387 
L 164.822579 45.393968 
L 166.018237 52.250325 
L 167.213894 63.413346 
L 168.409552 78.258638 
L 170.800868 111.680697 
L 171.996526 126.133872 
L 173.192184 137.314147 
L 174.387842 145.037288 
L 175.583499 149.812229 
L 176.779157 152.448794 
L 177.974815 153.739971 
L 179.170473 154.295066 
L 179.170473 154.295066 
" clip-path="url(#p498af9703e)" style="fill: none; stroke: #0173b2; stroke-width: 2; stroke-linecap: square"/>
   </g>
   <g id="patch_93">
    <path d="M 57.17 154.591221 
L 57.17 26.16 
" style="fill: none; stroke: #000000; stroke-width: 0.8; stroke-linejoin: miter; stroke-linecap: square"/>
   </g>
   <g id="patch_94">
    <path d="M 190.46743 154.591221 
L 190.46743 26.16 
" style="fill: none; stroke: #000000; stroke-width: 0.8; stroke-linejoin: miter; stroke-linecap: square"/>
   </g>
   <g id="patch_95">
    <path d="M 57.17 154.591221 
L 190.46743 154.591221 
" style="fill: none; stroke: #000000; stroke-width: 0.8; stroke-linejoin: miter; stroke-linecap: square"/>
   </g>
   <g id="patch_96">
    <path d="M 57.17 26.16 
L 190.46743 26.16 
" style="fill: none; stroke: #000000; stroke-width: 0.8; stroke-linejoin: miter; stroke-linecap: square"/>
   </g>
   <g id="text_12">
    <!-- C. Elegans -->
    <g transform="translate(91.419653 20.16) scale(0.12 -0.12)">
     <defs>
      <path id="DejaVuSerif-43" d="M 4513 1234 
Q 4306 581 3820 245 
Q 3334 -91 2591 -91 
Q 2134 -91 1743 65 
Q 1353 222 1050 525 
Q 700 875 529 1320 
Q 359 1766 359 2328 
Q 359 3416 987 4083 
Q 1616 4750 2644 4750 
Q 3025 4750 3456 4650 
Q 3888 4550 4384 4347 
L 4384 3272 
L 4031 3272 
Q 3916 3859 3567 4137 
Q 3219 4416 2591 4416 
Q 1844 4416 1459 3886 
Q 1075 3356 1075 2328 
Q 1075 1303 1459 773 
Q 1844 244 2591 244 
Q 3113 244 3450 492 
Q 3788 741 3938 1234 
L 4513 1234 
z
" transform="scale(0.015625)"/>
      <path id="DejaVuSerif-2e" d="M 603 325 
Q 603 500 722 622 
Q 841 744 1019 744 
Q 1191 744 1312 622 
Q 1434 500 1434 325 
Q 1434 153 1312 31 
Q 1191 -91 1019 -91 
Q 841 -91 722 29 
Q 603 150 603 325 
z
" transform="scale(0.015625)"/>
      <path id="DejaVuSerif-45" d="M 353 0 
L 353 331 
L 947 331 
L 947 4331 
L 353 4331 
L 353 4666 
L 4109 4666 
L 4109 3628 
L 3725 3628 
L 3725 4281 
L 1581 4281 
L 1581 2719 
L 3109 2719 
L 3109 3303 
L 3494 3303 
L 3494 1753 
L 3109 1753 
L 3109 2338 
L 1581 2338 
L 1581 384 
L 3775 384 
L 3775 1038 
L 4159 1038 
L 4159 0 
L 353 0 
z
" transform="scale(0.015625)"/>
      <path id="DejaVuSerif-67" d="M 3359 2988 
L 3359 72 
Q 3359 -644 2965 -1033 
Q 2572 -1422 1844 -1422 
Q 1516 -1422 1216 -1362 
Q 916 -1303 641 -1184 
L 641 -488 
L 941 -488 
Q 997 -813 1206 -963 
Q 1416 -1113 1806 -1113 
Q 2313 -1113 2548 -827 
Q 2784 -541 2784 72 
L 2784 519 
Q 2616 206 2355 57 
Q 2094 -91 1709 -91 
Q 1097 -91 708 395 
Q 319 881 319 1663 
Q 319 2444 706 2928 
Q 1094 3413 1709 3413 
Q 2094 3413 2355 3264 
Q 2616 3116 2784 2803 
L 2784 3322 
L 3909 3322 
L 3909 2988 
L 3359 2988 
z
M 2784 1825 
Q 2784 2422 2554 2737 
Q 2325 3053 1888 3053 
Q 1444 3053 1217 2703 
Q 991 2353 991 1663 
Q 991 975 1217 622 
Q 1444 269 1888 269 
Q 2325 269 2554 583 
Q 2784 897 2784 1497 
L 2784 1825 
z
" transform="scale(0.015625)"/>
      <path id="DejaVuSerif-61" d="M 2547 1044 
L 2547 1747 
L 1806 1747 
Q 1378 1747 1168 1562 
Q 959 1378 959 997 
Q 959 650 1171 447 
Q 1384 244 1747 244 
Q 2106 244 2326 466 
Q 2547 688 2547 1044 
z
M 3122 2075 
L 3122 331 
L 3634 331 
L 3634 0 
L 2547 0 
L 2547 359 
Q 2356 128 2106 18 
Q 1856 -91 1522 -91 
Q 969 -91 644 203 
Q 319 497 319 997 
Q 319 1513 691 1797 
Q 1063 2081 1741 2081 
L 2547 2081 
L 2547 2309 
Q 2547 2688 2317 2895 
Q 2088 3103 1672 3103 
Q 1328 3103 1125 2947 
Q 922 2791 872 2484 
L 575 2484 
L 575 3156 
Q 875 3284 1158 3348 
Q 1441 3413 1709 3413 
Q 2400 3413 2761 3070 
Q 3122 2728 3122 2075 
z
" transform="scale(0.015625)"/>
     </defs>
     <use xlink:href="#DejaVuSerif-43"/>
     <use xlink:href="#DejaVuSerif-2e" x="72.888672"/>
     <use xlink:href="#DejaVuSerif-20" x="104.675781"/>
     <use xlink:href="#DejaVuSerif-45" x="136.462891"/>
     <use xlink:href="#DejaVuSerif-6c" x="209.460938"/>
     <use xlink:href="#DejaVuSerif-65" x="241.443359"/>
     <use xlink:href="#DejaVuSerif-67" x="300.623047"/>
     <use xlink:href="#DejaVuSerif-61" x="364.636719"/>
     <use xlink:href="#DejaVuSerif-6e" x="424.255859"/>
     <use xlink:href="#DejaVuSerif-73" x="488.660156"/>
    </g>
   </g>
  </g>
 </g>
 <defs>
  <clipPath id="p498af9703e">
   <rect x="57.17" y="26.16" width="133.29743" height="128.431221"/>
  </clipPath>
 </defs>
</svg>
