<?xml version="1.0" encoding="utf-8" standalone="no"?>
<!DOCTYPE svg PUBLIC "-//W3C//DTD SVG 1.1//EN"
  "http://www.w3.org/Graphics/SVG/1.1/DTD/svg11.dtd">
<svg xmlns:xlink="http://www.w3.org/1999/xlink" width="360pt" height="360pt" viewBox="0 0 360 360" xmlns="http://www.w3.org/2000/svg" version="1.1">
 <metadata>
  <rdf:RDF xmlns:dc="http://purl.org/dc/elements/1.1/" xmlns:cc="http://creativecommons.org/ns#" xmlns:rdf="http://www.w3.org/1999/02/22-rdf-syntax-ns#">
   <cc:Work>
    <dc:type rdf:resource="http://purl.org/dc/dcmitype/StillImage"/>
    <dc:date>2024-11-19T12:33:13.834402</dc:date>
    <dc:format>image/svg+xml</dc:format>
    <dc:creator>
     <cc:Agent>
      <dc:title>Matplotlib v3.8.1, https://matplotlib.org/</dc:title>
     </cc:Agent>
    </dc:creator>
   </cc:Work>
  </rdf:RDF>
 </metadata>
 <defs>
  <style type="text/css">*{stroke-linejoin: round; stroke-linecap: butt}</style>
 </defs>
 <g id="figure_1">
  <g id="patch_1">
   <path d="M 0 360 
L 360 360 
L 360 0 
L 0 0 
z
" style="fill: #ffffff"/>
  </g>
  <g id="axes_1">
   <g id="patch_2">
    <path d="M 72.83 298.591221 
L 349.2 298.591221 
L 349.2 26.16 
L 72.83 26.16 
z
" style="fill: #ffffff"/>
   </g>
   <g id="PolyCollection_1">
    <defs>
     <path id="m8461a0c754" d="M 85.392273 -61.411209 
L 85.392273 -61.408779 
L 86.654813 -61.408779 
L 87.917353 -61.408779 
L 89.179893 -61.408779 
L 90.442433 -61.408779 
L 91.704973 -61.408779 
L 92.967513 -61.408779 
L 94.230053 -61.408779 
L 95.492593 -61.408779 
L 96.755132 -61.408779 
L 98.017672 -61.408779 
L 99.280212 -61.408779 
L 100.542752 -61.408779 
L 101.805292 -61.408779 
L 103.067832 -61.408779 
L 104.330372 -61.408779 
L 105.592912 -61.408779 
L 106.855452 -61.408779 
L 108.117992 -61.408779 
L 109.380532 -61.408779 
L 110.643072 -61.408779 
L 111.905612 -61.408779 
L 113.168152 -61.408779 
L 114.430692 -61.408779 
L 115.693232 -61.408779 
L 116.955772 -61.408779 
L 118.218312 -61.408779 
L 119.480852 -61.408779 
L 120.743392 -61.408779 
L 122.005932 -61.408779 
L 123.268472 -61.408779 
L 124.531012 -61.408779 
L 125.793552 -61.408779 
L 127.056092 -61.408779 
L 128.318632 -61.408779 
L 129.581172 -61.408779 
L 130.843712 -61.408779 
L 132.106252 -61.408779 
L 133.368792 -61.408779 
L 134.631332 -61.408779 
L 135.893872 -61.408779 
L 137.156412 -61.408779 
L 138.418952 -61.408779 
L 139.681492 -61.408779 
L 140.944032 -61.408779 
L 142.206571 -61.408779 
L 143.469111 -61.408779 
L 144.731651 -61.408779 
L 145.994191 -61.408779 
L 147.256731 -61.408779 
L 148.519271 -61.408779 
L 149.781811 -61.408779 
L 151.044351 -61.408779 
L 152.306891 -61.408779 
L 153.569431 -61.408779 
L 154.831971 -61.408779 
L 156.094511 -61.408779 
L 157.357051 -61.408779 
L 158.619591 -61.408779 
L 159.882131 -61.408779 
L 161.144671 -61.408779 
L 162.407211 -61.408779 
L 163.669751 -61.408779 
L 164.932291 -61.408779 
L 166.194831 -61.408779 
L 167.457371 -61.408779 
L 168.719911 -61.408779 
L 169.982451 -61.408779 
L 171.244991 -61.408779 
L 172.507531 -61.408779 
L 173.770071 -61.408779 
L 175.032611 -61.408779 
L 176.295151 -61.408779 
L 177.557691 -61.408779 
L 178.820231 -61.408779 
L 180.082771 -61.408779 
L 181.345311 -61.408779 
L 182.607851 -61.408779 
L 183.870391 -61.408779 
L 185.132931 -61.408779 
L 186.395471 -61.408779 
L 187.658011 -61.408779 
L 188.92055 -61.408779 
L 190.18309 -61.408779 
L 191.44563 -61.408779 
L 192.70817 -61.408779 
L 193.97071 -61.408779 
L 195.23325 -61.408779 
L 196.49579 -61.408779 
L 197.75833 -61.408779 
L 199.02087 -61.408779 
L 200.28341 -61.408779 
L 201.54595 -61.408779 
L 202.80849 -61.408779 
L 204.07103 -61.408779 
L 205.33357 -61.408779 
L 206.59611 -61.408779 
L 207.85865 -61.408779 
L 209.12119 -61.408779 
L 210.38373 -61.408779 
L 211.64627 -61.408779 
L 212.90881 -61.408779 
L 214.17135 -61.408779 
L 215.43389 -61.408779 
L 216.69643 -61.408779 
L 217.95897 -61.408779 
L 219.22151 -61.408779 
L 220.48405 -61.408779 
L 221.74659 -61.408779 
L 223.00913 -61.408779 
L 224.27167 -61.408779 
L 225.53421 -61.408779 
L 226.79675 -61.408779 
L 228.05929 -61.408779 
L 229.32183 -61.408779 
L 230.58437 -61.408779 
L 231.84691 -61.408779 
L 233.10945 -61.408779 
L 234.371989 -61.408779 
L 235.634529 -61.408779 
L 236.897069 -61.408779 
L 238.159609 -61.408779 
L 239.422149 -61.408779 
L 240.684689 -61.408779 
L 241.947229 -61.408779 
L 243.209769 -61.408779 
L 244.472309 -61.408779 
L 245.734849 -61.408779 
L 246.997389 -61.408779 
L 248.259929 -61.408779 
L 249.522469 -61.408779 
L 250.785009 -61.408779 
L 252.047549 -61.408779 
L 253.310089 -61.408779 
L 254.572629 -61.408779 
L 255.835169 -61.408779 
L 257.097709 -61.408779 
L 258.360249 -61.408779 
L 259.622789 -61.408779 
L 260.885329 -61.408779 
L 262.147869 -61.408779 
L 263.410409 -61.408779 
L 264.672949 -61.408779 
L 265.935489 -61.408779 
L 267.198029 -61.408779 
L 268.460569 -61.408779 
L 269.723109 -61.408779 
L 270.985649 -61.408779 
L 272.248189 -61.408779 
L 273.510729 -61.408779 
L 274.773269 -61.408779 
L 276.035809 -61.408779 
L 277.298349 -61.408779 
L 278.560889 -61.408779 
L 279.823429 -61.408779 
L 281.085968 -61.408779 
L 282.348508 -61.408779 
L 283.611048 -61.408779 
L 284.873588 -61.408779 
L 286.136128 -61.408779 
L 287.398668 -61.408779 
L 288.661208 -61.408779 
L 289.923748 -61.408779 
L 291.186288 -61.408779 
L 292.448828 -61.408779 
L 293.711368 -61.408779 
L 294.973908 -61.408779 
L 296.236448 -61.408779 
L 297.498988 -61.408779 
L 298.761528 -61.408779 
L 300.024068 -61.408779 
L 301.286608 -61.408779 
L 302.549148 -61.408779 
L 303.811688 -61.408779 
L 305.074228 -61.408779 
L 306.336768 -61.408779 
L 307.599308 -61.408779 
L 308.861848 -61.408779 
L 310.124388 -61.408779 
L 311.386928 -61.408779 
L 312.649468 -61.408779 
L 313.912008 -61.408779 
L 315.174548 -61.408779 
L 316.437088 -61.408779 
L 317.699628 -61.408779 
L 318.962168 -61.408779 
L 320.224708 -61.408779 
L 321.487248 -61.408779 
L 322.749788 -61.408779 
L 324.012328 -61.408779 
L 325.274868 -61.408779 
L 326.537407 -61.408779 
L 327.799947 -61.408779 
L 329.062487 -61.408779 
L 330.325027 -61.408779 
L 331.587567 -61.408779 
L 332.850107 -61.408779 
L 334.112647 -61.408779 
L 335.375187 -61.408779 
L 336.637727 -61.408779 
L 336.637727 -61.412284 
L 336.637727 -61.412284 
L 335.375187 -61.416154 
L 334.112647 -61.423359 
L 332.850107 -61.43586 
L 331.587567 -61.45604 
L 330.325027 -61.486278 
L 329.062487 -61.528198 
L 327.799947 -61.581715 
L 326.537407 -61.644187 
L 325.274868 -61.710106 
L 324.012328 -61.771721 
L 322.749788 -61.820664 
L 321.487248 -61.85026 
L 320.224708 -61.857796 
L 318.962168 -61.845944 
L 317.699628 -61.822849 
L 316.437088 -61.800983 
L 315.174548 -61.795445 
L 313.912008 -61.822698 
L 312.649468 -61.900579 
L 311.386928 -62.04998 
L 310.124388 -62.298048 
L 308.861848 -62.682435 
L 307.599308 -63.256073 
L 306.336768 -64.092041 
L 305.074228 -65.288182 
L 303.811688 -66.970925 
L 302.549148 -69.297391 
L 301.286608 -72.454539 
L 300.024068 -76.653912 
L 298.761528 -82.120639 
L 297.498988 -89.075463 
L 296.236448 -97.708952 
L 294.973908 -108.148245 
L 293.711368 -120.419399 
L 292.448828 -134.412473 
L 291.186288 -149.860203 
L 289.923748 -166.341616 
L 288.661208 -183.317029 
L 287.398668 -200.191086 
L 286.136128 -216.389865 
L 284.873588 -231.431982 
L 283.611048 -244.975465 
L 282.348508 -256.831167 
L 281.085968 -266.944892 
L 279.823429 -275.358794 
L 278.560889 -282.165154 
L 277.298349 -287.463135 
L 276.035809 -291.324853 
L 274.773269 -293.773921 
L 273.510729 -294.778388 
L 272.248189 -294.259539 
L 270.985649 -292.116525 
L 269.723109 -288.263404 
L 268.460569 -282.670764 
L 267.198029 -275.400829 
L 265.935489 -266.625254 
L 264.672949 -256.619424 
L 263.410409 -245.734683 
L 262.147869 -234.357117 
L 260.885329 -222.864885 
L 259.622789 -211.594233 
L 258.360249 -200.818658 
L 257.097709 -190.739659 
L 255.835169 -181.484487 
L 254.572629 -173.107126 
L 253.310089 -165.59211 
L 252.047549 -158.863513 
L 250.785009 -152.801584 
L 249.522469 -147.266588 
L 248.259929 -142.125528 
L 246.997389 -137.274956 
L 245.734849 -132.653847 
L 244.472309 -128.244047 
L 243.209769 -124.060268 
L 241.947229 -120.134596 
L 240.684689 -116.500906 
L 239.422149 -113.182957 
L 238.159609 -110.18773 
L 236.897069 -107.503992 
L 235.634529 -105.105408 
L 234.371989 -102.957107 
L 233.10945 -101.024076 
L 231.84691 -99.278994 
L 230.58437 -97.706827 
L 229.32183 -96.304201 
L 228.05929 -95.073322 
L 226.79675 -94.012475 
L 225.53421 -93.106966 
L 224.27167 -92.324796 
L 223.00913 -91.61989 
L 221.74659 -90.942615 
L 220.48405 -90.253792 
L 219.22151 -89.536233 
L 217.95897 -88.798259 
L 216.69643 -88.066973 
L 215.43389 -87.373607 
L 214.17135 -86.736943 
L 212.90881 -86.151654 
L 211.64627 -85.58614 
L 210.38373 -84.990369 
L 209.12119 -84.310381 
L 207.85865 -83.504079 
L 206.59611 -82.553234 
L 205.33357 -81.46857 
L 204.07103 -80.287383 
L 202.80849 -79.065322 
L 201.54595 -77.865185 
L 200.28341 -76.745732 
L 199.02087 -75.752831 
L 197.75833 -74.914108 
L 196.49579 -74.237175 
L 195.23325 -73.710818 
L 193.97071 -73.308336 
L 192.70817 -72.992408 
L 191.44563 -72.721075 
L 190.18309 -72.454405 
L 188.92055 -72.161046 
L 187.658011 -71.82344 
L 186.395471 -71.440288 
L 185.132931 -71.025291 
L 183.870391 -70.602193 
L 182.607851 -70.197474 
L 181.345311 -69.832937 
L 180.082771 -69.520555 
L 178.820231 -69.260988 
L 177.557691 -69.045665 
L 176.295151 -68.860873 
L 175.032611 -68.691714 
L 173.770071 -68.524277 
L 172.507531 -68.345653 
L 171.244991 -68.142749 
L 169.982451 -67.901516 
L 168.719911 -67.607933 
L 167.457371 -67.251014 
L 166.194831 -66.826842 
L 164.932291 -66.34185 
L 163.669751 -65.81361 
L 162.407211 -65.268337 
L 161.144671 -64.735648 
L 159.882131 -64.242301 
L 158.619591 -63.807024 
L 157.357051 -63.438045 
L 156.094511 -63.133813 
L 154.831971 -62.886164 
L 153.569431 -62.68442 
L 152.306891 -62.518895 
L 151.044351 -62.382823 
L 149.781811 -62.272582 
L 148.519271 -62.186742 
L 147.256731 -62.124725 
L 145.994191 -62.08572 
L 144.731651 -62.068135 
L 143.469111 -62.069488 
L 142.206571 -62.086507 
L 140.944032 -62.115221 
L 139.681492 -62.151 
L 138.418952 -62.188651 
L 137.156412 -62.222725 
L 135.893872 -62.248101 
L 134.631332 -62.260733 
L 133.368792 -62.25832 
L 132.106252 -62.240621 
L 130.843712 -62.209287 
L 129.581172 -62.16723 
L 128.318632 -62.117755 
L 127.056092 -62.063736 
L 125.793552 -62.007082 
L 124.531012 -61.948645 
L 123.268472 -61.888546 
L 122.005932 -61.826781 
L 120.743392 -61.763846 
L 119.480852 -61.70112 
L 118.218312 -61.640856 
L 116.955772 -61.585786 
L 115.693232 -61.538555 
L 114.430692 -61.501214 
L 113.168152 -61.474989 
L 111.905612 -61.460335 
L 110.643072 -61.457141 
L 109.380532 -61.464874 
L 108.117992 -61.482511 
L 106.855452 -61.508254 
L 105.592912 -61.539213 
L 104.330372 -61.571329 
L 103.067832 -61.599747 
L 101.805292 -61.61968 
L 100.542752 -61.627511 
L 99.280212 -61.621747 
L 98.017672 -61.603421 
L 96.755132 -61.575756 
L 95.492593 -61.543233 
L 94.230053 -61.5104 
L 92.967513 -61.48087 
L 91.704973 -61.456783 
L 90.442433 -61.438782 
L 89.179893 -61.42638 
L 87.917353 -61.418471 
L 86.654813 -61.413788 
L 85.392273 -61.411209 
z
" style="stroke: #029e73; stroke-width: 2"/>
    </defs>
    <g clip-path="url(#p0e1c0fa268)">
     <use xlink:href="#m8461a0c754" x="0" y="360" style="fill: #029e73; fill-opacity: 0.2; stroke: #029e73; stroke-width: 2"/>
    </g>
   </g>
   <g id="PolyCollection_2">
    <defs>
     <path id="me276ffe619" d="M 125.771767 -61.413357 
L 125.771767 -61.408779 
L 126.690894 -61.408779 
L 127.61002 -61.408779 
L 128.529147 -61.408779 
L 129.448273 -61.408779 
L 130.367399 -61.408779 
L 131.286526 -61.408779 
L 132.205652 -61.408779 
L 133.124779 -61.408779 
L 134.043905 -61.408779 
L 134.963031 -61.408779 
L 135.882158 -61.408779 
L 136.801284 -61.408779 
L 137.720411 -61.408779 
L 138.639537 -61.408779 
L 139.558663 -61.408779 
L 140.47779 -61.408779 
L 141.396916 -61.408779 
L 142.316043 -61.408779 
L 143.235169 -61.408779 
L 144.154295 -61.408779 
L 145.073422 -61.408779 
L 145.992548 -61.408779 
L 146.911675 -61.408779 
L 147.830801 -61.408779 
L 148.749927 -61.408779 
L 149.669054 -61.408779 
L 150.58818 -61.408779 
L 151.507307 -61.408779 
L 152.426433 -61.408779 
L 153.345559 -61.408779 
L 154.264686 -61.408779 
L 155.183812 -61.408779 
L 156.102939 -61.408779 
L 157.022065 -61.408779 
L 157.941191 -61.408779 
L 158.860318 -61.408779 
L 159.779444 -61.408779 
L 160.698571 -61.408779 
L 161.617697 -61.408779 
L 162.536824 -61.408779 
L 163.45595 -61.408779 
L 164.375076 -61.408779 
L 165.294203 -61.408779 
L 166.213329 -61.408779 
L 167.132456 -61.408779 
L 168.051582 -61.408779 
L 168.970708 -61.408779 
L 169.889835 -61.408779 
L 170.808961 -61.408779 
L 171.728088 -61.408779 
L 172.647214 -61.408779 
L 173.56634 -61.408779 
L 174.485467 -61.408779 
L 175.404593 -61.408779 
L 176.32372 -61.408779 
L 177.242846 -61.408779 
L 178.161972 -61.408779 
L 179.081099 -61.408779 
L 180.000225 -61.408779 
L 180.919352 -61.408779 
L 181.838478 -61.408779 
L 182.757604 -61.408779 
L 183.676731 -61.408779 
L 184.595857 -61.408779 
L 185.514984 -61.408779 
L 186.43411 -61.408779 
L 187.353236 -61.408779 
L 188.272363 -61.408779 
L 189.191489 -61.408779 
L 190.110616 -61.408779 
L 191.029742 -61.408779 
L 191.948868 -61.408779 
L 192.867995 -61.408779 
L 193.787121 -61.408779 
L 194.706248 -61.408779 
L 195.625374 -61.408779 
L 196.5445 -61.408779 
L 197.463627 -61.408779 
L 198.382753 -61.408779 
L 199.30188 -61.408779 
L 200.221006 -61.408779 
L 201.140132 -61.408779 
L 202.059259 -61.408779 
L 202.978385 -61.408779 
L 203.897512 -61.408779 
L 204.816638 -61.408779 
L 205.735764 -61.408779 
L 206.654891 -61.408779 
L 207.574017 -61.408779 
L 208.493144 -61.408779 
L 209.41227 -61.408779 
L 210.331396 -61.408779 
L 211.250523 -61.408779 
L 212.169649 -61.408779 
L 213.088776 -61.408779 
L 214.007902 -61.408779 
L 214.927028 -61.408779 
L 215.846155 -61.408779 
L 216.765281 -61.408779 
L 217.684408 -61.408779 
L 218.603534 -61.408779 
L 219.52266 -61.408779 
L 220.441787 -61.408779 
L 221.360913 -61.408779 
L 222.28004 -61.408779 
L 223.199166 -61.408779 
L 224.118292 -61.408779 
L 225.037419 -61.408779 
L 225.956545 -61.408779 
L 226.875672 -61.408779 
L 227.794798 -61.408779 
L 228.713924 -61.408779 
L 229.633051 -61.408779 
L 230.552177 -61.408779 
L 231.471304 -61.408779 
L 232.39043 -61.408779 
L 233.309556 -61.408779 
L 234.228683 -61.408779 
L 235.147809 -61.408779 
L 236.066936 -61.408779 
L 236.986062 -61.408779 
L 237.905189 -61.408779 
L 238.824315 -61.408779 
L 239.743441 -61.408779 
L 240.662568 -61.408779 
L 241.581694 -61.408779 
L 242.500821 -61.408779 
L 243.419947 -61.408779 
L 244.339073 -61.408779 
L 245.2582 -61.408779 
L 246.177326 -61.408779 
L 247.096453 -61.408779 
L 248.015579 -61.408779 
L 248.934705 -61.408779 
L 249.853832 -61.408779 
L 250.772958 -61.408779 
L 251.692085 -61.408779 
L 252.611211 -61.408779 
L 253.530337 -61.408779 
L 254.449464 -61.408779 
L 255.36859 -61.408779 
L 256.287717 -61.408779 
L 257.206843 -61.408779 
L 258.125969 -61.408779 
L 259.045096 -61.408779 
L 259.964222 -61.408779 
L 260.883349 -61.408779 
L 261.802475 -61.408779 
L 262.721601 -61.408779 
L 263.640728 -61.408779 
L 264.559854 -61.408779 
L 265.478981 -61.408779 
L 266.398107 -61.408779 
L 267.317233 -61.408779 
L 268.23636 -61.408779 
L 269.155486 -61.408779 
L 270.074613 -61.408779 
L 270.993739 -61.408779 
L 271.912865 -61.408779 
L 272.831992 -61.408779 
L 273.751118 -61.408779 
L 274.670245 -61.408779 
L 275.589371 -61.408779 
L 276.508497 -61.408779 
L 277.427624 -61.408779 
L 278.34675 -61.408779 
L 279.265877 -61.408779 
L 280.185003 -61.408779 
L 281.104129 -61.408779 
L 282.023256 -61.408779 
L 282.942382 -61.408779 
L 283.861509 -61.408779 
L 284.780635 -61.408779 
L 285.699761 -61.408779 
L 286.618888 -61.408779 
L 287.538014 -61.408779 
L 288.457141 -61.408779 
L 289.376267 -61.408779 
L 290.295393 -61.408779 
L 291.21452 -61.408779 
L 292.133646 -61.408779 
L 293.052773 -61.408779 
L 293.971899 -61.408779 
L 294.891025 -61.408779 
L 295.810152 -61.408779 
L 296.729278 -61.408779 
L 297.648405 -61.408779 
L 298.567531 -61.408779 
L 299.486657 -61.408779 
L 300.405784 -61.408779 
L 301.32491 -61.408779 
L 302.244037 -61.408779 
L 303.163163 -61.408779 
L 304.082289 -61.408779 
L 305.001416 -61.408779 
L 305.920542 -61.408779 
L 306.839669 -61.408779 
L 307.758795 -61.408779 
L 308.677921 -61.408779 
L 308.677921 -61.426188 
L 308.677921 -61.426188 
L 307.758795 -61.440632 
L 306.839669 -61.465609 
L 305.920542 -61.507715 
L 305.001416 -61.576952 
L 304.082289 -61.688092 
L 303.163163 -61.862375 
L 302.244037 -62.12957 
L 301.32491 -62.53034 
L 300.405784 -63.118849 
L 299.486657 -63.965408 
L 298.567531 -65.158897 
L 297.648405 -66.808543 
L 296.729278 -69.044506 
L 295.810152 -72.016618 
L 294.891025 -75.89056 
L 293.971899 -80.84085 
L 293.052773 -87.040253 
L 292.133646 -94.645701 
L 291.21452 -103.781426 
L 290.295393 -114.520771 
L 289.376267 -126.868836 
L 288.457141 -140.748584 
L 287.538014 -155.993042 
L 286.618888 -172.345709 
L 285.699761 -189.470218 
L 284.780635 -206.968776 
L 283.861509 -224.407347 
L 282.942382 -241.344273 
L 282.023256 -257.358364 
L 281.104129 -272.072733 
L 280.185003 -285.171708 
L 279.265877 -296.409771 
L 278.34675 -305.613219 
L 277.427624 -312.676583 
L 276.508497 -317.556501 
L 275.589371 -320.265485 
L 274.670245 -320.867085 
L 273.751118 -319.47271 
L 272.831992 -316.239215 
L 271.912865 -311.365695 
L 270.993739 -305.08799 
L 270.074613 -297.669972 
L 269.155486 -289.391667 
L 268.23636 -280.535216 
L 267.317233 -271.370334 
L 266.398107 -262.141095 
L 265.478981 -253.055604 
L 264.559854 -244.279448 
L 263.640728 -235.933103 
L 262.721601 -228.092802 
L 261.802475 -220.793985 
L 260.883349 -214.036417 
L 259.964222 -207.790205 
L 259.045096 -202.002349 
L 258.125969 -196.603705 
L 257.206843 -191.516423 
L 256.287717 -186.661809 
L 255.36859 -181.968255 
L 254.449464 -177.378538 
L 253.530337 -172.855501 
L 252.611211 -168.3851 
L 251.692085 -163.97611 
L 250.772958 -159.656343 
L 249.853832 -155.465947 
L 248.934705 -151.449009 
L 248.015579 -147.645061 
L 247.096453 -144.082121 
L 246.177326 -140.772486 
L 245.2582 -137.711877 
L 244.339073 -134.881749 
L 243.419947 -132.253933 
L 242.500821 -129.796381 
L 241.581694 -127.478709 
L 240.662568 -125.276466 
L 239.743441 -123.173509 
L 238.824315 -121.162361 
L 237.905189 -119.242864 
L 236.986062 -117.419744 
L 236.066936 -115.699778 
L 235.147809 -114.089164 
L 234.228683 -112.591532 
L 233.309556 -111.20676 
L 232.39043 -109.930569 
L 231.471304 -108.754722 
L 230.552177 -107.667612 
L 229.633051 -106.655011 
L 228.713924 -105.700856 
L 227.794798 -104.788012 
L 226.875672 -103.899029 
L 225.956545 -103.016929 
L 225.037419 -102.126081 
L 224.118292 -101.21314 
L 223.199166 -100.268015 
L 222.28004 -99.284723 
L 221.360913 -98.262019 
L 220.441787 -97.20364 
L 219.52266 -96.118081 
L 218.603534 -95.017897 
L 217.684408 -93.918581 
L 216.765281 -92.837166 
L 215.846155 -91.79071 
L 214.927028 -90.794827 
L 214.007902 -89.862397 
L 213.088776 -89.002532 
L 212.169649 -88.219839 
L 211.250523 -87.514012 
L 210.331396 -86.879796 
L 209.41227 -86.307351 
L 208.493144 -85.783077 
L 207.574017 -85.290889 
L 206.654891 -84.813867 
L 205.735764 -84.336109 
L 204.816638 -83.844529 
L 203.897512 -83.330291 
L 202.978385 -82.789597 
L 202.059259 -82.223646 
L 201.140132 -81.63774 
L 200.221006 -81.03968 
L 199.30188 -80.437778 
L 198.382753 -79.838886 
L 197.463627 -79.246867 
L 196.5445 -78.661831 
L 195.625374 -78.080327 
L 194.706248 -77.49643 
L 193.787121 -76.903509 
L 192.867995 -76.2963 
L 191.948868 -75.672843 
L 191.029742 -75.035877 
L 190.110616 -74.393438 
L 189.191489 -73.758505 
L 188.272363 -73.147796 
L 187.353236 -72.579901 
L 186.43411 -72.073067 
L 185.514984 -71.642986 
L 184.595857 -71.300877 
L 183.676731 -71.05214 
L 182.757604 -70.895701 
L 181.838478 -70.824137 
L 180.919352 -70.824496 
L 180.000225 -70.879708 
L 179.081099 -70.97036 
L 178.161972 -71.076613 
L 177.242846 -71.180005 
L 176.32372 -71.264938 
L 175.404593 -71.319679 
L 174.485467 -71.336789 
L 173.56634 -71.312982 
L 172.647214 -71.248448 
L 171.728088 -71.145804 
L 170.808961 -71.008817 
L 169.889835 -70.841138 
L 168.970708 -70.645252 
L 168.051582 -70.42184 
L 167.132456 -70.169663 
L 166.213329 -69.886005 
L 165.294203 -69.567576 
L 164.375076 -69.211679 
L 163.45595 -68.817393 
L 162.536824 -68.386509 
L 161.617697 -67.924004 
L 160.698571 -67.437961 
L 159.779444 -66.938933 
L 158.860318 -66.438906 
L 157.941191 -65.950069 
L 157.022065 -65.483615 
L 156.102939 -65.048805 
L 155.183812 -64.652385 
L 154.264686 -64.298409 
L 153.345559 -63.988394 
L 152.426433 -63.72168 
L 151.507307 -63.495885 
L 150.58818 -63.307321 
L 149.669054 -63.151342 
L 148.749927 -63.022615 
L 147.830801 -62.915361 
L 146.911675 -62.823603 
L 145.992548 -62.741477 
L 145.073422 -62.663588 
L 144.154295 -62.585387 
L 143.235169 -62.503513 
L 142.316043 -62.416023 
L 141.396916 -62.322473 
L 140.47779 -62.22382 
L 139.558663 -62.122152 
L 138.639537 -62.020306 
L 137.720411 -61.921418 
L 136.801284 -61.828488 
L 135.882158 -61.744022 
L 134.963031 -61.669783 
L 134.043905 -61.60669 
L 133.124779 -61.55484 
L 132.205652 -61.513633 
L 131.286526 -61.481959 
L 130.367399 -61.458412 
L 129.448273 -61.441478 
L 128.529147 -61.429698 
L 127.61002 -61.42177 
L 126.690894 -61.416608 
L 125.771767 -61.413357 
z
" style="stroke: #de8f05; stroke-width: 2"/>
    </defs>
    <g clip-path="url(#p0e1c0fa268)">
     <use xlink:href="#me276ffe619" x="0" y="360" style="fill: #de8f05; fill-opacity: 0.2; stroke: #de8f05; stroke-width: 2"/>
    </g>
   </g>
   <g id="PolyCollection_3">
    <defs>
     <path id="m19e337b71b" d="M 97.21288 -61.411051 
L 97.21288 -61.408779 
L 98.281589 -61.408779 
L 99.350298 -61.408779 
L 100.419007 -61.408779 
L 101.487716 -61.408779 
L 102.556425 -61.408779 
L 103.625134 -61.408779 
L 104.693843 -61.408779 
L 105.762552 -61.408779 
L 106.831261 -61.408779 
L 107.89997 -61.408779 
L 108.968679 -61.408779 
L 110.037388 -61.408779 
L 111.106097 -61.408779 
L 112.174806 -61.408779 
L 113.243515 -61.408779 
L 114.312224 -61.408779 
L 115.380933 -61.408779 
L 116.449642 -61.408779 
L 117.518351 -61.408779 
L 118.58706 -61.408779 
L 119.655769 -61.408779 
L 120.724478 -61.408779 
L 121.793187 -61.408779 
L 122.861896 -61.408779 
L 123.930605 -61.408779 
L 124.999314 -61.408779 
L 126.068023 -61.408779 
L 127.136732 -61.408779 
L 128.205441 -61.408779 
L 129.27415 -61.408779 
L 130.342859 -61.408779 
L 131.411568 -61.408779 
L 132.480277 -61.408779 
L 133.548986 -61.408779 
L 134.617695 -61.408779 
L 135.686404 -61.408779 
L 136.755113 -61.408779 
L 137.823822 -61.408779 
L 138.892531 -61.408779 
L 139.96124 -61.408779 
L 141.029949 -61.408779 
L 142.098658 -61.408779 
L 143.167367 -61.408779 
L 144.236076 -61.408779 
L 145.304785 -61.408779 
L 146.373494 -61.408779 
L 147.442203 -61.408779 
L 148.510912 -61.408779 
L 149.579621 -61.408779 
L 150.64833 -61.408779 
L 151.717039 -61.408779 
L 152.785748 -61.408779 
L 153.854457 -61.408779 
L 154.923166 -61.408779 
L 155.991875 -61.408779 
L 157.060584 -61.408779 
L 158.129293 -61.408779 
L 159.198002 -61.408779 
L 160.266711 -61.408779 
L 161.33542 -61.408779 
L 162.404129 -61.408779 
L 163.472838 -61.408779 
L 164.541547 -61.408779 
L 165.610256 -61.408779 
L 166.678965 -61.408779 
L 167.747674 -61.408779 
L 168.816383 -61.408779 
L 169.885092 -61.408779 
L 170.953801 -61.408779 
L 172.02251 -61.408779 
L 173.091219 -61.408779 
L 174.159928 -61.408779 
L 175.228637 -61.408779 
L 176.297346 -61.408779 
L 177.366055 -61.408779 
L 178.434764 -61.408779 
L 179.503473 -61.408779 
L 180.572182 -61.408779 
L 181.640891 -61.408779 
L 182.7096 -61.408779 
L 183.778309 -61.408779 
L 184.847018 -61.408779 
L 185.915727 -61.408779 
L 186.984436 -61.408779 
L 188.053145 -61.408779 
L 189.121854 -61.408779 
L 190.190563 -61.408779 
L 191.259272 -61.408779 
L 192.327981 -61.408779 
L 193.39669 -61.408779 
L 194.465399 -61.408779 
L 195.534108 -61.408779 
L 196.602817 -61.408779 
L 197.671526 -61.408779 
L 198.740235 -61.408779 
L 199.808944 -61.408779 
L 200.877653 -61.408779 
L 201.946362 -61.408779 
L 203.015071 -61.408779 
L 204.08378 -61.408779 
L 205.152489 -61.408779 
L 206.221198 -61.408779 
L 207.289907 -61.408779 
L 208.358616 -61.408779 
L 209.427325 -61.408779 
L 210.496034 -61.408779 
L 211.564743 -61.408779 
L 212.633452 -61.408779 
L 213.702161 -61.408779 
L 214.77087 -61.408779 
L 215.839579 -61.408779 
L 216.908288 -61.408779 
L 217.976997 -61.408779 
L 219.045706 -61.408779 
L 220.114415 -61.408779 
L 221.183124 -61.408779 
L 222.251833 -61.408779 
L 223.320542 -61.408779 
L 224.389251 -61.408779 
L 225.45796 -61.408779 
L 226.526669 -61.408779 
L 227.595378 -61.408779 
L 228.664087 -61.408779 
L 229.732796 -61.408779 
L 230.801505 -61.408779 
L 231.870214 -61.408779 
L 232.938923 -61.408779 
L 234.007632 -61.408779 
L 235.076341 -61.408779 
L 236.14505 -61.408779 
L 237.213759 -61.408779 
L 238.282468 -61.408779 
L 239.351177 -61.408779 
L 240.419886 -61.408779 
L 241.488595 -61.408779 
L 242.557304 -61.408779 
L 243.626013 -61.408779 
L 244.694722 -61.408779 
L 245.763431 -61.408779 
L 246.83214 -61.408779 
L 247.900849 -61.408779 
L 248.969558 -61.408779 
L 250.038267 -61.408779 
L 251.106976 -61.408779 
L 252.175685 -61.408779 
L 253.244394 -61.408779 
L 254.313103 -61.408779 
L 255.381812 -61.408779 
L 256.450521 -61.408779 
L 257.51923 -61.408779 
L 258.587939 -61.408779 
L 259.656648 -61.408779 
L 260.725357 -61.408779 
L 261.794066 -61.408779 
L 262.862775 -61.408779 
L 263.931484 -61.408779 
L 265.000193 -61.408779 
L 266.068902 -61.408779 
L 267.137611 -61.408779 
L 268.20632 -61.408779 
L 269.275029 -61.408779 
L 270.343738 -61.408779 
L 271.412447 -61.408779 
L 272.481156 -61.408779 
L 273.549865 -61.408779 
L 274.618574 -61.408779 
L 275.687283 -61.408779 
L 276.755992 -61.408779 
L 277.824701 -61.408779 
L 278.89341 -61.408779 
L 279.962119 -61.408779 
L 281.030828 -61.408779 
L 282.099537 -61.408779 
L 283.168246 -61.408779 
L 284.236955 -61.408779 
L 285.305664 -61.408779 
L 286.374373 -61.408779 
L 287.443082 -61.408779 
L 288.511791 -61.408779 
L 289.5805 -61.408779 
L 290.649209 -61.408779 
L 291.717918 -61.408779 
L 292.786627 -61.408779 
L 293.855336 -61.408779 
L 294.924045 -61.408779 
L 295.992754 -61.408779 
L 297.061463 -61.408779 
L 298.130172 -61.408779 
L 299.198881 -61.408779 
L 300.26759 -61.408779 
L 301.336299 -61.408779 
L 302.405008 -61.408779 
L 303.473717 -61.408779 
L 304.542426 -61.408779 
L 305.611135 -61.408779 
L 306.679844 -61.408779 
L 307.748553 -61.408779 
L 308.817262 -61.408779 
L 309.885971 -61.408779 
L 309.885971 -61.431594 
L 309.885971 -61.431594 
L 308.817262 -61.45381 
L 307.748553 -61.49487 
L 306.679844 -61.568305 
L 305.611135 -61.695488 
L 304.542426 -61.908931 
L 303.473717 -62.256307 
L 302.405008 -62.804985 
L 301.336299 -63.646739 
L 300.26759 -64.902014 
L 299.198881 -66.722951 
L 298.130172 -69.294127 
L 297.061463 -72.829803 
L 295.992754 -77.566447 
L 294.924045 -83.74945 
L 293.855336 -91.61346 
L 292.786627 -101.356688 
L 291.717918 -113.110819 
L 290.649209 -126.909782 
L 289.5805 -142.662018 
L 288.511791 -160.13175 
L 287.443082 -178.934399 
L 286.374373 -198.549632 
L 285.305664 -218.352533 
L 284.236955 -237.659848 
L 283.168246 -255.785035 
L 282.099537 -272.093936 
L 281.030828 -286.052986 
L 279.962119 -297.263857 
L 278.89341 -305.481699 
L 277.824701 -310.617569 
L 276.755992 -312.728197 
L 275.687283 -311.99726 
L 274.618574 -308.711944 
L 273.549865 -303.237304 
L 272.481156 -295.989639 
L 271.412447 -287.409392 
L 270.343738 -277.934261 
L 269.275029 -267.973823 
L 268.20632 -257.887718 
L 267.137611 -247.969568 
L 266.068902 -238.4383 
L 265.000193 -229.437418 
L 263.931484 -221.041394 
L 262.862775 -213.267243 
L 261.794066 -206.088778 
L 260.725357 -199.451075 
L 259.656648 -193.283321 
L 258.587939 -187.509078 
L 257.51923 -182.053873 
L 256.450521 -176.850653 
L 255.381812 -171.843854 
L 254.313103 -166.992649 
L 253.244394 -162.27353 
L 252.175685 -157.681891 
L 251.106976 -153.23196 
L 250.038267 -148.95449 
L 248.969558 -144.891952 
L 247.900849 -141.091596 
L 246.83214 -137.59737 
L 245.763431 -134.442118 
L 244.694722 -131.641581 
L 243.626013 -129.191404 
L 242.557304 -127.067717 
L 241.488595 -125.231043 
L 240.419886 -123.632552 
L 239.351177 -122.221113 
L 238.282468 -120.94954 
L 237.213759 -119.778693 
L 236.14505 -118.678798 
L 235.076341 -117.628186 
L 234.007632 -116.610338 
L 232.938923 -115.610567 
L 231.870214 -114.613556 
L 230.801505 -113.60254 
L 229.732796 -112.560207 
L 228.664087 -111.470781 
L 227.595378 -110.322379 
L 226.526669 -109.108756 
L 225.45796 -107.829849 
L 224.389251 -106.491045 
L 223.320542 -105.101507 
L 222.251833 -103.672162 
L 221.183124 -102.213973 
L 220.114415 -100.736918 
L 219.045706 -99.249848 
L 217.976997 -97.761092 
L 216.908288 -96.279502 
L 215.839579 -94.815554 
L 214.77087 -93.382127 
L 213.702161 -91.994695 
L 212.633452 -90.670752 
L 211.564743 -89.428449 
L 210.496034 -88.284562 
L 209.427325 -87.252074 
L 208.358616 -86.337813 
L 207.289907 -85.540654 
L 206.221198 -84.850764 
L 205.152489 -84.250162 
L 204.08378 -83.714583 
L 203.015071 -83.216282 
L 201.946362 -82.727267 
L 200.877653 -82.222358 
L 199.808944 -81.681686 
L 198.740235 -81.092455 
L 197.671526 -80.450007 
L 196.602817 -79.758283 
L 195.534108 -79.029653 
L 194.465399 -78.283949 
L 193.39669 -77.546439 
L 192.327981 -76.844605 
L 191.259272 -76.203987 
L 190.190563 -75.64372 
L 189.121854 -75.172821 
L 188.053145 -74.78825 
L 186.984436 -74.47545 
L 185.915727 -74.211386 
L 184.847018 -73.969376 
L 183.778309 -73.724404 
L 182.7096 -73.457502 
L 181.640891 -73.158097 
L 180.572182 -72.823927 
L 179.503473 -72.458917 
L 178.434764 -72.070003 
L 177.366055 -71.664103 
L 176.297346 -71.246182 
L 175.228637 -70.818866 
L 174.159928 -70.383398 
L 173.091219 -69.941337 
L 172.02251 -69.496202 
L 170.953801 -69.054418 
L 169.885092 -68.625244 
L 168.816383 -68.219714 
L 167.747674 -67.848924 
L 166.678965 -67.522094 
L 165.610256 -67.244833 
L 164.541547 -67.01793 
L 163.472838 -66.836832 
L 162.404129 -66.691869 
L 161.33542 -66.569188 
L 160.266711 -66.452293 
L 159.198002 -66.324028 
L 158.129293 -66.16878 
L 157.060584 -65.974639 
L 155.991875 -65.735184 
L 154.923166 -65.450606 
L 153.854457 -65.127918 
L 152.785748 -64.78016 
L 151.717039 -64.424648 
L 150.64833 -64.080516 
L 149.579621 -63.765934 
L 148.510912 -63.495489 
L 147.442203 -63.278162 
L 146.373494 -63.116271 
L 145.304785 -63.005536 
L 144.236076 -62.936223 
L 143.167367 -62.895088 
L 142.098658 -62.867715 
L 141.029949 -62.840797 
L 139.96124 -62.803935 
L 138.892531 -62.750692 
L 137.823822 -62.678822 
L 136.755113 -62.589749 
L 135.686404 -62.48753 
L 134.617695 -62.377602 
L 133.548986 -62.265569 
L 132.480277 -62.15629 
L 131.411568 -62.053346 
L 130.342859 -61.958937 
L 129.27415 -61.874095 
L 128.205441 -61.799083 
L 127.136732 -61.733837 
L 126.068023 -61.678303 
L 124.999314 -61.632596 
L 123.930605 -61.596983 
L 122.861896 -61.57171 
L 121.793187 -61.556747 
L 120.724478 -61.551542 
L 119.655769 -61.554852 
L 118.58706 -61.564695 
L 117.518351 -61.578467 
L 116.449642 -61.593192 
L 115.380933 -61.605893 
L 114.312224 -61.613987 
L 113.243515 -61.615651 
L 112.174806 -61.610056 
L 111.106097 -61.597431 
L 110.037388 -61.578936 
L 108.968679 -61.556388 
L 107.89997 -61.531895 
L 106.831261 -61.507492 
L 105.762552 -61.484857 
L 104.693843 -61.465135 
L 103.625134 -61.448903 
L 102.556425 -61.436235 
L 101.487716 -61.426837 
L 100.419007 -61.420193 
L 99.350298 -61.415713 
L 98.281589 -61.412828 
L 97.21288 -61.411051 
z
" style="stroke: #0173b2; stroke-width: 2"/>
    </defs>
    <g clip-path="url(#p0e1c0fa268)">
     <use xlink:href="#m19e337b71b" x="0" y="360" style="fill: #0173b2; fill-opacity: 0.2; stroke: #0173b2; stroke-width: 2"/>
    </g>
   </g>
   <g id="matplotlib.axis_1">
    <g id="xtick_1">
     <g id="line2d_1">
      <defs>
       <path id="m1b730212be" d="M 0 0 
L 0 3.5 
" style="stroke: #000000; stroke-width: 0.8"/>
      </defs>
      <g>
       <use xlink:href="#m1b730212be" x="83.893807" y="298.591221" style="stroke: #000000; stroke-width: 0.8"/>
      </g>
     </g>
     <g id="text_1">
      <!-- 10000 -->
      <g transform="translate(74.597563 333.458962) rotate(-45) scale(0.1 -0.1)">
       <defs>
        <path id="DejaVuSerif-31" d="M 909 0 
L 909 331 
L 1722 331 
L 1722 4213 
L 781 3603 
L 781 4013 
L 1919 4750 
L 2350 4750 
L 2350 331 
L 3163 331 
L 3163 0 
L 909 0 
z
" transform="scale(0.015625)"/>
        <path id="DejaVuSerif-30" d="M 2034 219 
Q 2513 219 2750 744 
Q 2988 1269 2988 2328 
Q 2988 3391 2750 3916 
Q 2513 4441 2034 4441 
Q 1556 4441 1318 3916 
Q 1081 3391 1081 2328 
Q 1081 1269 1318 744 
Q 1556 219 2034 219 
z
M 2034 -91 
Q 1275 -91 848 546 
Q 422 1184 422 2328 
Q 422 3475 848 4112 
Q 1275 4750 2034 4750 
Q 2797 4750 3222 4112 
Q 3647 3475 3647 2328 
Q 3647 1184 3222 546 
Q 2797 -91 2034 -91 
z
" transform="scale(0.015625)"/>
       </defs>
       <use xlink:href="#DejaVuSerif-31"/>
       <use xlink:href="#DejaVuSerif-30" x="63.623047"/>
       <use xlink:href="#DejaVuSerif-30" x="127.246094"/>
       <use xlink:href="#DejaVuSerif-30" x="190.869141"/>
       <use xlink:href="#DejaVuSerif-30" x="254.492188"/>
      </g>
     </g>
    </g>
    <g id="xtick_2">
     <g id="line2d_2">
      <g>
       <use xlink:href="#m1b730212be" x="118.297378" y="298.591221" style="stroke: #000000; stroke-width: 0.8"/>
      </g>
     </g>
     <g id="text_2">
      <!-- 11000 -->
      <g transform="translate(109.001133 333.458962) rotate(-45) scale(0.1 -0.1)">
       <use xlink:href="#DejaVuSerif-31"/>
       <use xlink:href="#DejaVuSerif-31" x="63.623047"/>
       <use xlink:href="#DejaVuSerif-30" x="127.246094"/>
       <use xlink:href="#DejaVuSerif-30" x="190.869141"/>
       <use xlink:href="#DejaVuSerif-30" x="254.492188"/>
      </g>
     </g>
    </g>
    <g id="xtick_3">
     <g id="line2d_3">
      <g>
       <use xlink:href="#m1b730212be" x="152.700948" y="298.591221" style="stroke: #000000; stroke-width: 0.8"/>
      </g>
     </g>
     <g id="text_3">
      <!-- 12000 -->
      <g transform="translate(143.404704 333.458962) rotate(-45) scale(0.1 -0.1)">
       <defs>
        <path id="DejaVuSerif-32" d="M 819 3553 
L 469 3553 
L 469 4384 
Q 803 4563 1142 4656 
Q 1481 4750 1806 4750 
Q 2534 4750 2956 4397 
Q 3378 4044 3378 3438 
Q 3378 2753 2422 1800 
Q 2347 1728 2309 1691 
L 1131 513 
L 3078 513 
L 3078 1088 
L 3444 1088 
L 3444 0 
L 434 0 
L 434 341 
L 1850 1753 
Q 2319 2222 2519 2614 
Q 2719 3006 2719 3438 
Q 2719 3909 2473 4175 
Q 2228 4441 1797 4441 
Q 1350 4441 1106 4219 
Q 863 3997 819 3553 
z
" transform="scale(0.015625)"/>
       </defs>
       <use xlink:href="#DejaVuSerif-31"/>
       <use xlink:href="#DejaVuSerif-32" x="63.623047"/>
       <use xlink:href="#DejaVuSerif-30" x="127.246094"/>
       <use xlink:href="#DejaVuSerif-30" x="190.869141"/>
       <use xlink:href="#DejaVuSerif-30" x="254.492188"/>
      </g>
     </g>
    </g>
    <g id="xtick_4">
     <g id="line2d_4">
      <g>
       <use xlink:href="#m1b730212be" x="187.104519" y="298.591221" style="stroke: #000000; stroke-width: 0.8"/>
      </g>
     </g>
     <g id="text_4">
      <!-- 13000 -->
      <g transform="translate(177.808274 333.458962) rotate(-45) scale(0.1 -0.1)">
       <defs>
        <path id="DejaVuSerif-33" d="M 622 4469 
Q 988 4606 1323 4678 
Q 1659 4750 1953 4750 
Q 2638 4750 3022 4454 
Q 3406 4159 3406 3634 
Q 3406 3213 3140 2930 
Q 2875 2647 2388 2547 
Q 2963 2466 3280 2130 
Q 3597 1794 3597 1259 
Q 3597 606 3158 257 
Q 2719 -91 1894 -91 
Q 1528 -91 1179 -12 
Q 831 66 488 225 
L 488 1131 
L 838 1131 
Q 869 681 1141 450 
Q 1413 219 1906 219 
Q 2384 219 2661 495 
Q 2938 772 2938 1253 
Q 2938 1803 2653 2086 
Q 2369 2369 1819 2369 
L 1522 2369 
L 1522 2688 
L 1678 2688 
Q 2225 2688 2498 2914 
Q 2772 3141 2772 3597 
Q 2772 4006 2547 4223 
Q 2322 4441 1900 4441 
Q 1478 4441 1245 4241 
Q 1013 4041 972 3647 
L 622 3647 
L 622 4469 
z
" transform="scale(0.015625)"/>
       </defs>
       <use xlink:href="#DejaVuSerif-31"/>
       <use xlink:href="#DejaVuSerif-33" x="63.623047"/>
       <use xlink:href="#DejaVuSerif-30" x="127.246094"/>
       <use xlink:href="#DejaVuSerif-30" x="190.869141"/>
       <use xlink:href="#DejaVuSerif-30" x="254.492188"/>
      </g>
     </g>
    </g>
    <g id="xtick_5">
     <g id="line2d_5">
      <g>
       <use xlink:href="#m1b730212be" x="221.508089" y="298.591221" style="stroke: #000000; stroke-width: 0.8"/>
      </g>
     </g>
     <g id="text_5">
      <!-- 14000 -->
      <g transform="translate(212.211845 333.458962) rotate(-45) scale(0.1 -0.1)">
       <defs>
        <path id="DejaVuSerif-34" d="M 2234 1581 
L 2234 4063 
L 641 1581 
L 2234 1581 
z
M 3609 0 
L 1484 0 
L 1484 331 
L 2234 331 
L 2234 1247 
L 197 1247 
L 197 1588 
L 2241 4750 
L 2859 4750 
L 2859 1581 
L 3750 1581 
L 3750 1247 
L 2859 1247 
L 2859 331 
L 3609 331 
L 3609 0 
z
" transform="scale(0.015625)"/>
       </defs>
       <use xlink:href="#DejaVuSerif-31"/>
       <use xlink:href="#DejaVuSerif-34" x="63.623047"/>
       <use xlink:href="#DejaVuSerif-30" x="127.246094"/>
       <use xlink:href="#DejaVuSerif-30" x="190.869141"/>
       <use xlink:href="#DejaVuSerif-30" x="254.492188"/>
      </g>
     </g>
    </g>
    <g id="xtick_6">
     <g id="line2d_6">
      <g>
       <use xlink:href="#m1b730212be" x="255.911659" y="298.591221" style="stroke: #000000; stroke-width: 0.8"/>
      </g>
     </g>
     <g id="text_6">
      <!-- 15000 -->
      <g transform="translate(246.615415 333.458962) rotate(-45) scale(0.1 -0.1)">
       <defs>
        <path id="DejaVuSerif-35" d="M 3219 4666 
L 3219 4153 
L 1081 4153 
L 1081 2816 
Q 1244 2928 1461 2984 
Q 1678 3041 1947 3041 
Q 2703 3041 3140 2622 
Q 3578 2203 3578 1478 
Q 3578 738 3136 323 
Q 2694 -91 1894 -91 
Q 1572 -91 1234 -12 
Q 897 66 544 225 
L 544 1131 
L 897 1131 
Q 925 688 1179 453 
Q 1434 219 1894 219 
Q 2388 219 2653 544 
Q 2919 869 2919 1478 
Q 2919 2084 2655 2407 
Q 2391 2731 1894 2731 
Q 1613 2731 1398 2631 
Q 1184 2531 1019 2322 
L 750 2322 
L 750 4666 
L 3219 4666 
z
" transform="scale(0.015625)"/>
       </defs>
       <use xlink:href="#DejaVuSerif-31"/>
       <use xlink:href="#DejaVuSerif-35" x="63.623047"/>
       <use xlink:href="#DejaVuSerif-30" x="127.246094"/>
       <use xlink:href="#DejaVuSerif-30" x="190.869141"/>
       <use xlink:href="#DejaVuSerif-30" x="254.492188"/>
      </g>
     </g>
    </g>
    <g id="xtick_7">
     <g id="line2d_7">
      <g>
       <use xlink:href="#m1b730212be" x="290.31523" y="298.591221" style="stroke: #000000; stroke-width: 0.8"/>
      </g>
     </g>
     <g id="text_7">
      <!-- 16000 -->
      <g transform="translate(281.018985 333.458962) rotate(-45) scale(0.1 -0.1)">
       <defs>
        <path id="DejaVuSerif-36" d="M 2094 219 
Q 2534 219 2771 542 
Q 3009 866 3009 1472 
Q 3009 2078 2771 2401 
Q 2534 2725 2094 2725 
Q 1647 2725 1412 2412 
Q 1178 2100 1178 1509 
Q 1178 888 1415 553 
Q 1653 219 2094 219 
z
M 1075 2569 
Q 1288 2803 1556 2918 
Q 1825 3034 2163 3034 
Q 2859 3034 3264 2615 
Q 3669 2197 3669 1472 
Q 3669 763 3233 336 
Q 2797 -91 2069 -91 
Q 1278 -91 853 498 
Q 428 1088 428 2181 
Q 428 3406 931 4078 
Q 1434 4750 2350 4750 
Q 2597 4750 2869 4703 
Q 3141 4656 3425 4563 
L 3425 3794 
L 3072 3794 
Q 3034 4109 2831 4275 
Q 2628 4441 2284 4441 
Q 1678 4441 1381 3981 
Q 1084 3522 1075 2569 
z
" transform="scale(0.015625)"/>
       </defs>
       <use xlink:href="#DejaVuSerif-31"/>
       <use xlink:href="#DejaVuSerif-36" x="63.623047"/>
       <use xlink:href="#DejaVuSerif-30" x="127.246094"/>
       <use xlink:href="#DejaVuSerif-30" x="190.869141"/>
       <use xlink:href="#DejaVuSerif-30" x="254.492188"/>
      </g>
     </g>
    </g>
    <g id="xtick_8">
     <g id="line2d_8">
      <g>
       <use xlink:href="#m1b730212be" x="324.7188" y="298.591221" style="stroke: #000000; stroke-width: 0.8"/>
      </g>
     </g>
     <g id="text_8">
      <!-- 17000 -->
      <g transform="translate(315.422556 333.458962) rotate(-45) scale(0.1 -0.1)">
       <defs>
        <path id="DejaVuSerif-37" d="M 3609 4347 
L 1784 0 
L 1319 0 
L 3059 4153 
L 903 4153 
L 903 3578 
L 538 3578 
L 538 4666 
L 3609 4666 
L 3609 4347 
z
" transform="scale(0.015625)"/>
       </defs>
       <use xlink:href="#DejaVuSerif-31"/>
       <use xlink:href="#DejaVuSerif-37" x="63.623047"/>
       <use xlink:href="#DejaVuSerif-30" x="127.246094"/>
       <use xlink:href="#DejaVuSerif-30" x="190.869141"/>
       <use xlink:href="#DejaVuSerif-30" x="254.492188"/>
      </g>
     </g>
    </g>
    <g id="text_9">
     <!-- Number of zeroes per cell -->
     <g transform="translate(144.884531 346.527961) scale(0.1 -0.1)">
      <defs>
       <path id="DejaVuSerif-4e" d="M 313 0 
L 313 331 
L 941 331 
L 941 4331 
L 313 4331 
L 313 4666 
L 1509 4666 
L 4306 984 
L 4306 4331 
L 3681 4331 
L 3681 4666 
L 5319 4666 
L 5319 4331 
L 4691 4331 
L 4691 -91 
L 4313 -91 
L 1325 3841 
L 1325 331 
L 1953 331 
L 1953 0 
L 313 0 
z
" transform="scale(0.015625)"/>
       <path id="DejaVuSerif-75" d="M 2266 3322 
L 3341 3322 
L 3341 331 
L 3884 331 
L 3884 0 
L 2766 0 
L 2766 588 
Q 2606 256 2353 82 
Q 2100 -91 1766 -91 
Q 1213 -91 952 223 
Q 691 538 691 1209 
L 691 2988 
L 172 2988 
L 172 3322 
L 1269 3322 
L 1269 1388 
Q 1269 781 1417 556 
Q 1566 331 1947 331 
Q 2347 331 2556 625 
Q 2766 919 2766 1478 
L 2766 2988 
L 2266 2988 
L 2266 3322 
z
" transform="scale(0.015625)"/>
       <path id="DejaVuSerif-6d" d="M 3316 2675 
Q 3481 3041 3739 3227 
Q 3997 3413 4341 3413 
Q 4863 3413 5119 3089 
Q 5375 2766 5375 2113 
L 5375 331 
L 5894 331 
L 5894 0 
L 4300 0 
L 4300 331 
L 4800 331 
L 4800 2047 
Q 4800 2556 4650 2772 
Q 4500 2988 4153 2988 
Q 3769 2988 3567 2697 
Q 3366 2406 3366 1850 
L 3366 331 
L 3866 331 
L 3866 0 
L 2291 0 
L 2291 331 
L 2791 331 
L 2791 2069 
Q 2791 2566 2641 2777 
Q 2491 2988 2144 2988 
Q 1759 2988 1557 2697 
Q 1356 2406 1356 1850 
L 1356 331 
L 1856 331 
L 1856 0 
L 263 0 
L 263 331 
L 781 331 
L 781 2994 
L 231 2994 
L 231 3322 
L 1356 3322 
L 1356 2731 
Q 1516 3063 1762 3238 
Q 2009 3413 2322 3413 
Q 2709 3413 2968 3220 
Q 3228 3028 3316 2675 
z
" transform="scale(0.015625)"/>
       <path id="DejaVuSerif-62" d="M 738 331 
L 738 4531 
L 184 4531 
L 184 4863 
L 1313 4863 
L 1313 2803 
Q 1481 3116 1742 3264 
Q 2003 3413 2388 3413 
Q 3000 3413 3387 2928 
Q 3775 2444 3775 1663 
Q 3775 881 3387 395 
Q 3000 -91 2388 -91 
Q 2003 -91 1742 57 
Q 1481 206 1313 519 
L 1313 0 
L 184 0 
L 184 331 
L 738 331 
z
M 1313 1497 
Q 1313 897 1542 583 
Q 1772 269 2209 269 
Q 2650 269 2876 622 
Q 3103 975 3103 1663 
Q 3103 2353 2876 2703 
Q 2650 3053 2209 3053 
Q 1772 3053 1542 2737 
Q 1313 2422 1313 1825 
L 1313 1497 
z
" transform="scale(0.015625)"/>
       <path id="DejaVuSerif-65" d="M 3469 1600 
L 991 1600 
L 991 1575 
Q 991 903 1244 561 
Q 1497 219 1991 219 
Q 2369 219 2611 417 
Q 2853 616 2950 1006 
L 3413 1006 
Q 3275 459 2904 184 
Q 2534 -91 1931 -91 
Q 1203 -91 761 389 
Q 319 869 319 1663 
Q 319 2450 753 2931 
Q 1188 3413 1894 3413 
Q 2647 3413 3050 2948 
Q 3453 2484 3469 1600 
z
M 2791 1931 
Q 2772 2513 2545 2808 
Q 2319 3103 1894 3103 
Q 1497 3103 1269 2806 
Q 1041 2509 991 1931 
L 2791 1931 
z
" transform="scale(0.015625)"/>
       <path id="DejaVuSerif-72" d="M 3059 3328 
L 3059 2497 
L 2728 2497 
Q 2713 2744 2591 2866 
Q 2469 2988 2234 2988 
Q 1809 2988 1582 2694 
Q 1356 2400 1356 1850 
L 1356 331 
L 2022 331 
L 2022 0 
L 263 0 
L 263 331 
L 781 331 
L 781 2994 
L 231 2994 
L 231 3322 
L 1356 3322 
L 1356 2731 
Q 1525 3078 1790 3245 
Q 2056 3413 2438 3413 
Q 2578 3413 2733 3391 
Q 2888 3369 3059 3328 
z
" transform="scale(0.015625)"/>
       <path id="DejaVuSerif-20" transform="scale(0.015625)"/>
       <path id="DejaVuSerif-6f" d="M 1925 219 
Q 2388 219 2623 584 
Q 2859 950 2859 1663 
Q 2859 2375 2623 2739 
Q 2388 3103 1925 3103 
Q 1463 3103 1227 2739 
Q 991 2375 991 1663 
Q 991 950 1228 584 
Q 1466 219 1925 219 
z
M 1925 -91 
Q 1200 -91 759 389 
Q 319 869 319 1663 
Q 319 2456 758 2934 
Q 1197 3413 1925 3413 
Q 2653 3413 3092 2934 
Q 3531 2456 3531 1663 
Q 3531 869 3092 389 
Q 2653 -91 1925 -91 
z
" transform="scale(0.015625)"/>
       <path id="DejaVuSerif-66" d="M 2753 4078 
L 2450 4078 
Q 2447 4313 2317 4434 
Q 2188 4556 1941 4556 
Q 1619 4556 1487 4379 
Q 1356 4203 1356 3750 
L 1356 3322 
L 2284 3322 
L 2284 2988 
L 1356 2988 
L 1356 331 
L 2094 331 
L 2094 0 
L 231 0 
L 231 331 
L 781 331 
L 781 2988 
L 231 2988 
L 231 3322 
L 781 3322 
L 781 3738 
Q 781 4294 1070 4578 
Q 1359 4863 1919 4863 
Q 2128 4863 2337 4825 
Q 2547 4788 2753 4709 
L 2753 4078 
z
" transform="scale(0.015625)"/>
       <path id="DejaVuSerif-7a" d="M 256 0 
L 256 269 
L 2338 2988 
L 691 2988 
L 691 2413 
L 359 2413 
L 359 3322 
L 3078 3322 
L 3078 3053 
L 997 331 
L 2803 331 
L 2803 934 
L 3138 934 
L 3138 0 
L 256 0 
z
" transform="scale(0.015625)"/>
       <path id="DejaVuSerif-73" d="M 359 184 
L 359 959 
L 691 959 
Q 703 588 923 403 
Q 1144 219 1575 219 
Q 1963 219 2166 364 
Q 2369 509 2369 788 
Q 2369 1006 2220 1140 
Q 2072 1275 1594 1428 
L 1178 1569 
Q 750 1706 558 1912 
Q 366 2119 366 2438 
Q 366 2894 700 3153 
Q 1034 3413 1625 3413 
Q 1888 3413 2178 3344 
Q 2469 3275 2778 3144 
L 2778 2419 
L 2447 2419 
Q 2434 2741 2221 2922 
Q 2009 3103 1644 3103 
Q 1281 3103 1095 2975 
Q 909 2847 909 2591 
Q 909 2381 1050 2254 
Q 1191 2128 1613 1997 
L 2069 1856 
Q 2541 1709 2748 1489 
Q 2956 1269 2956 922 
Q 2956 450 2595 179 
Q 2234 -91 1600 -91 
Q 1278 -91 972 -22 
Q 666 47 359 184 
z
" transform="scale(0.015625)"/>
       <path id="DejaVuSerif-70" d="M 1313 1825 
L 1313 1497 
Q 1313 897 1542 583 
Q 1772 269 2209 269 
Q 2650 269 2876 622 
Q 3103 975 3103 1663 
Q 3103 2353 2876 2703 
Q 2650 3053 2209 3053 
Q 1772 3053 1542 2737 
Q 1313 2422 1313 1825 
z
M 738 2988 
L 184 2988 
L 184 3322 
L 1313 3322 
L 1313 2803 
Q 1481 3116 1742 3264 
Q 2003 3413 2388 3413 
Q 3000 3413 3387 2928 
Q 3775 2444 3775 1663 
Q 3775 881 3387 395 
Q 3000 -91 2388 -91 
Q 2003 -91 1742 57 
Q 1481 206 1313 519 
L 1313 -997 
L 1856 -997 
L 1856 -1331 
L 184 -1331 
L 184 -997 
L 738 -997 
L 738 2988 
z
" transform="scale(0.015625)"/>
       <path id="DejaVuSerif-63" d="M 3291 997 
Q 3169 466 2822 187 
Q 2475 -91 1925 -91 
Q 1200 -91 759 389 
Q 319 869 319 1663 
Q 319 2459 759 2936 
Q 1200 3413 1925 3413 
Q 2241 3413 2553 3339 
Q 2866 3266 3181 3116 
L 3181 2266 
L 2847 2266 
Q 2781 2703 2561 2903 
Q 2341 3103 1931 3103 
Q 1466 3103 1228 2742 
Q 991 2381 991 1663 
Q 991 944 1227 581 
Q 1463 219 1931 219 
Q 2303 219 2525 412 
Q 2747 606 2828 997 
L 3291 997 
z
" transform="scale(0.015625)"/>
       <path id="DejaVuSerif-6c" d="M 1313 331 
L 1856 331 
L 1856 0 
L 184 0 
L 184 331 
L 738 331 
L 738 4531 
L 184 4531 
L 184 4863 
L 1313 4863 
L 1313 331 
z
" transform="scale(0.015625)"/>
      </defs>
      <use xlink:href="#DejaVuSerif-4e"/>
      <use xlink:href="#DejaVuSerif-75" x="87.5"/>
      <use xlink:href="#DejaVuSerif-6d" x="151.904297"/>
      <use xlink:href="#DejaVuSerif-62" x="246.728516"/>
      <use xlink:href="#DejaVuSerif-65" x="310.742188"/>
      <use xlink:href="#DejaVuSerif-72" x="369.921875"/>
      <use xlink:href="#DejaVuSerif-20" x="417.724609"/>
      <use xlink:href="#DejaVuSerif-6f" x="449.511719"/>
      <use xlink:href="#DejaVuSerif-66" x="509.716797"/>
      <use xlink:href="#DejaVuSerif-20" x="546.728516"/>
      <use xlink:href="#DejaVuSerif-7a" x="578.515625"/>
      <use xlink:href="#DejaVuSerif-65" x="631.201172"/>
      <use xlink:href="#DejaVuSerif-72" x="690.380859"/>
      <use xlink:href="#DejaVuSerif-6f" x="738.183594"/>
      <use xlink:href="#DejaVuSerif-65" x="798.388672"/>
      <use xlink:href="#DejaVuSerif-73" x="857.568359"/>
      <use xlink:href="#DejaVuSerif-20" x="908.886719"/>
      <use xlink:href="#DejaVuSerif-70" x="940.673828"/>
      <use xlink:href="#DejaVuSerif-65" x="1004.6875"/>
      <use xlink:href="#DejaVuSerif-72" x="1063.867188"/>
      <use xlink:href="#DejaVuSerif-20" x="1111.669922"/>
      <use xlink:href="#DejaVuSerif-63" x="1143.457031"/>
      <use xlink:href="#DejaVuSerif-65" x="1199.462891"/>
      <use xlink:href="#DejaVuSerif-6c" x="1258.642578"/>
      <use xlink:href="#DejaVuSerif-6c" x="1290.625"/>
     </g>
    </g>
   </g>
   <g id="matplotlib.axis_2">
    <g id="ytick_1">
     <g id="line2d_9">
      <defs>
       <path id="m7c97b57b51" d="M 0 0 
L -3.5 0 
" style="stroke: #000000; stroke-width: 0.8"/>
      </defs>
      <g>
       <use xlink:href="#m7c97b57b51" x="72.83" y="298.591221" style="stroke: #000000; stroke-width: 0.8"/>
      </g>
     </g>
     <g id="text_10">
      <!-- 0.00000 -->
      <g transform="translate(24.476875 302.39044) scale(0.1 -0.1)">
       <defs>
        <path id="DejaVuSerif-2e" d="M 603 325 
Q 603 500 722 622 
Q 841 744 1019 744 
Q 1191 744 1312 622 
Q 1434 500 1434 325 
Q 1434 153 1312 31 
Q 1191 -91 1019 -91 
Q 841 -91 722 29 
Q 603 150 603 325 
z
" transform="scale(0.015625)"/>
       </defs>
       <use xlink:href="#DejaVuSerif-30"/>
       <use xlink:href="#DejaVuSerif-2e" x="63.623047"/>
       <use xlink:href="#DejaVuSerif-30" x="95.410156"/>
       <use xlink:href="#DejaVuSerif-30" x="159.033203"/>
       <use xlink:href="#DejaVuSerif-30" x="222.65625"/>
       <use xlink:href="#DejaVuSerif-30" x="286.279297"/>
       <use xlink:href="#DejaVuSerif-30" x="349.902344"/>
      </g>
     </g>
    </g>
    <g id="ytick_2">
     <g id="line2d_10">
      <g>
       <use xlink:href="#m7c97b57b51" x="72.83" y="255.417053" style="stroke: #000000; stroke-width: 0.8"/>
      </g>
     </g>
     <g id="text_11">
      <!-- 0.00005 -->
      <g transform="translate(24.476875 259.216271) scale(0.1 -0.1)">
       <use xlink:href="#DejaVuSerif-30"/>
       <use xlink:href="#DejaVuSerif-2e" x="63.623047"/>
       <use xlink:href="#DejaVuSerif-30" x="95.410156"/>
       <use xlink:href="#DejaVuSerif-30" x="159.033203"/>
       <use xlink:href="#DejaVuSerif-30" x="222.65625"/>
       <use xlink:href="#DejaVuSerif-30" x="286.279297"/>
       <use xlink:href="#DejaVuSerif-35" x="349.902344"/>
      </g>
     </g>
    </g>
    <g id="ytick_3">
     <g id="line2d_11">
      <g>
       <use xlink:href="#m7c97b57b51" x="72.83" y="212.242884" style="stroke: #000000; stroke-width: 0.8"/>
      </g>
     </g>
     <g id="text_12">
      <!-- 0.00010 -->
      <g transform="translate(24.476875 216.042103) scale(0.1 -0.1)">
       <use xlink:href="#DejaVuSerif-30"/>
       <use xlink:href="#DejaVuSerif-2e" x="63.623047"/>
       <use xlink:href="#DejaVuSerif-30" x="95.410156"/>
       <use xlink:href="#DejaVuSerif-30" x="159.033203"/>
       <use xlink:href="#DejaVuSerif-30" x="222.65625"/>
       <use xlink:href="#DejaVuSerif-31" x="286.279297"/>
       <use xlink:href="#DejaVuSerif-30" x="349.902344"/>
      </g>
     </g>
    </g>
    <g id="ytick_4">
     <g id="line2d_12">
      <g>
       <use xlink:href="#m7c97b57b51" x="72.83" y="169.068716" style="stroke: #000000; stroke-width: 0.8"/>
      </g>
     </g>
     <g id="text_13">
      <!-- 0.00015 -->
      <g transform="translate(24.476875 172.867935) scale(0.1 -0.1)">
       <use xlink:href="#DejaVuSerif-30"/>
       <use xlink:href="#DejaVuSerif-2e" x="63.623047"/>
       <use xlink:href="#DejaVuSerif-30" x="95.410156"/>
       <use xlink:href="#DejaVuSerif-30" x="159.033203"/>
       <use xlink:href="#DejaVuSerif-30" x="222.65625"/>
       <use xlink:href="#DejaVuSerif-31" x="286.279297"/>
       <use xlink:href="#DejaVuSerif-35" x="349.902344"/>
      </g>
     </g>
    </g>
    <g id="ytick_5">
     <g id="line2d_13">
      <g>
       <use xlink:href="#m7c97b57b51" x="72.83" y="125.894548" style="stroke: #000000; stroke-width: 0.8"/>
      </g>
     </g>
     <g id="text_14">
      <!-- 0.00020 -->
      <g transform="translate(24.476875 129.693767) scale(0.1 -0.1)">
       <use xlink:href="#DejaVuSerif-30"/>
       <use xlink:href="#DejaVuSerif-2e" x="63.623047"/>
       <use xlink:href="#DejaVuSerif-30" x="95.410156"/>
       <use xlink:href="#DejaVuSerif-30" x="159.033203"/>
       <use xlink:href="#DejaVuSerif-30" x="222.65625"/>
       <use xlink:href="#DejaVuSerif-32" x="286.279297"/>
       <use xlink:href="#DejaVuSerif-30" x="349.902344"/>
      </g>
     </g>
    </g>
    <g id="ytick_6">
     <g id="line2d_14">
      <g>
       <use xlink:href="#m7c97b57b51" x="72.83" y="82.72038" style="stroke: #000000; stroke-width: 0.8"/>
      </g>
     </g>
     <g id="text_15">
      <!-- 0.00025 -->
      <g transform="translate(24.476875 86.519598) scale(0.1 -0.1)">
       <use xlink:href="#DejaVuSerif-30"/>
       <use xlink:href="#DejaVuSerif-2e" x="63.623047"/>
       <use xlink:href="#DejaVuSerif-30" x="95.410156"/>
       <use xlink:href="#DejaVuSerif-30" x="159.033203"/>
       <use xlink:href="#DejaVuSerif-30" x="222.65625"/>
       <use xlink:href="#DejaVuSerif-32" x="286.279297"/>
       <use xlink:href="#DejaVuSerif-35" x="349.902344"/>
      </g>
     </g>
    </g>
    <g id="ytick_7">
     <g id="line2d_15">
      <g>
       <use xlink:href="#m7c97b57b51" x="72.83" y="39.546211" style="stroke: #000000; stroke-width: 0.8"/>
      </g>
     </g>
     <g id="text_16">
      <!-- 0.00030 -->
      <g transform="translate(24.476875 43.34543) scale(0.1 -0.1)">
       <use xlink:href="#DejaVuSerif-30"/>
       <use xlink:href="#DejaVuSerif-2e" x="63.623047"/>
       <use xlink:href="#DejaVuSerif-30" x="95.410156"/>
       <use xlink:href="#DejaVuSerif-30" x="159.033203"/>
       <use xlink:href="#DejaVuSerif-30" x="222.65625"/>
       <use xlink:href="#DejaVuSerif-33" x="286.279297"/>
       <use xlink:href="#DejaVuSerif-30" x="349.902344"/>
      </g>
     </g>
    </g>
    <g id="text_17">
     <!-- Frequency -->
     <g transform="translate(18.255 189.420142) rotate(-90) scale(0.1 -0.1)">
      <defs>
       <path id="DejaVuSerif-46" d="M 353 0 
L 353 331 
L 947 331 
L 947 4331 
L 353 4331 
L 353 4666 
L 4172 4666 
L 4172 3628 
L 3788 3628 
L 3788 4281 
L 1581 4281 
L 1581 2719 
L 3175 2719 
L 3175 3303 
L 3559 3303 
L 3559 1753 
L 3175 1753 
L 3175 2338 
L 1581 2338 
L 1581 331 
L 2328 331 
L 2328 0 
L 353 0 
z
" transform="scale(0.015625)"/>
       <path id="DejaVuSerif-71" d="M 3359 2988 
L 3359 -997 
L 3909 -997 
L 3909 -1331 
L 2241 -1331 
L 2241 -997 
L 2784 -997 
L 2784 519 
Q 2616 206 2355 57 
Q 2094 -91 1709 -91 
Q 1097 -91 708 395 
Q 319 881 319 1663 
Q 319 2444 706 2928 
Q 1094 3413 1709 3413 
Q 2094 3413 2355 3264 
Q 2616 3116 2784 2803 
L 2784 3322 
L 3909 3322 
L 3909 2988 
L 3359 2988 
z
M 2784 1825 
Q 2784 2422 2554 2737 
Q 2325 3053 1888 3053 
Q 1444 3053 1217 2703 
Q 991 2353 991 1663 
Q 991 975 1217 622 
Q 1444 269 1888 269 
Q 2325 269 2554 583 
Q 2784 897 2784 1497 
L 2784 1825 
z
" transform="scale(0.015625)"/>
       <path id="DejaVuSerif-6e" d="M 263 0 
L 263 331 
L 781 331 
L 781 2988 
L 231 2988 
L 231 3322 
L 1356 3322 
L 1356 2731 
Q 1516 3069 1770 3241 
Q 2025 3413 2363 3413 
Q 2913 3413 3172 3097 
Q 3431 2781 3431 2113 
L 3431 331 
L 3944 331 
L 3944 0 
L 2356 0 
L 2356 331 
L 2853 331 
L 2853 1931 
Q 2853 2541 2703 2767 
Q 2553 2994 2175 2994 
Q 1775 2994 1565 2701 
Q 1356 2409 1356 1850 
L 1356 331 
L 1856 331 
L 1856 0 
L 263 0 
z
" transform="scale(0.015625)"/>
       <path id="DejaVuSerif-79" d="M 1381 -609 
L 1600 -56 
L 359 2988 
L -19 2988 
L -19 3322 
L 1509 3322 
L 1509 2988 
L 978 2988 
L 1913 703 
L 2847 2988 
L 2350 2988 
L 2350 3322 
L 3597 3322 
L 3597 2988 
L 3225 2988 
L 1703 -750 
Q 1547 -1138 1356 -1280 
Q 1166 -1422 819 -1422 
Q 672 -1422 517 -1397 
Q 363 -1372 206 -1325 
L 206 -691 
L 500 -691 
Q 519 -903 608 -995 
Q 697 -1088 884 -1088 
Q 1056 -1088 1161 -992 
Q 1266 -897 1381 -609 
z
" transform="scale(0.015625)"/>
      </defs>
      <use xlink:href="#DejaVuSerif-46"/>
      <use xlink:href="#DejaVuSerif-72" x="69.384766"/>
      <use xlink:href="#DejaVuSerif-65" x="117.1875"/>
      <use xlink:href="#DejaVuSerif-71" x="176.367188"/>
      <use xlink:href="#DejaVuSerif-75" x="240.380859"/>
      <use xlink:href="#DejaVuSerif-65" x="304.785156"/>
      <use xlink:href="#DejaVuSerif-6e" x="363.964844"/>
      <use xlink:href="#DejaVuSerif-63" x="428.369141"/>
      <use xlink:href="#DejaVuSerif-79" x="484.375"/>
     </g>
    </g>
   </g>
   <g id="patch_3">
    <path d="M 72.83 298.591221 
L 72.83 26.16 
" style="fill: none; stroke: #000000; stroke-width: 0.8; stroke-linejoin: miter; stroke-linecap: square"/>
   </g>
   <g id="patch_4">
    <path d="M 349.2 298.591221 
L 349.2 26.16 
" style="fill: none; stroke: #000000; stroke-width: 0.8; stroke-linejoin: miter; stroke-linecap: square"/>
   </g>
   <g id="patch_5">
    <path d="M 72.83 298.591221 
L 349.2 298.591221 
" style="fill: none; stroke: #000000; stroke-width: 0.8; stroke-linejoin: miter; stroke-linecap: square"/>
   </g>
   <g id="patch_6">
    <path d="M 72.83 26.16 
L 349.2 26.16 
" style="fill: none; stroke: #000000; stroke-width: 0.8; stroke-linejoin: miter; stroke-linecap: square"/>
   </g>
   <g id="text_18">
    <!-- Dentate gyrus_scvi -->
    <g transform="translate(153.14125 20.16) scale(0.12 -0.12)">
     <defs>
      <path id="DejaVuSerif-44" d="M 1581 331 
L 2163 331 
Q 3072 331 3558 850 
Q 4044 1369 4044 2338 
Q 4044 3306 3559 3818 
Q 3075 4331 2163 4331 
L 1581 4331 
L 1581 331 
z
M 353 0 
L 353 331 
L 947 331 
L 947 4331 
L 353 4331 
L 353 4666 
L 2209 4666 
Q 3416 4666 4089 4050 
Q 4763 3434 4763 2338 
Q 4763 1238 4088 619 
Q 3413 0 2209 0 
L 353 0 
z
" transform="scale(0.015625)"/>
      <path id="DejaVuSerif-74" d="M 691 2988 
L 184 2988 
L 184 3322 
L 691 3322 
L 691 4353 
L 1269 4353 
L 1269 3322 
L 2350 3322 
L 2350 2988 
L 1269 2988 
L 1269 878 
Q 1269 456 1350 337 
Q 1431 219 1650 219 
Q 1875 219 1978 351 
Q 2081 484 2088 781 
L 2522 781 
Q 2497 328 2275 118 
Q 2053 -91 1600 -91 
Q 1103 -91 897 129 
Q 691 350 691 878 
L 691 2988 
z
" transform="scale(0.015625)"/>
      <path id="DejaVuSerif-61" d="M 2547 1044 
L 2547 1747 
L 1806 1747 
Q 1378 1747 1168 1562 
Q 959 1378 959 997 
Q 959 650 1171 447 
Q 1384 244 1747 244 
Q 2106 244 2326 466 
Q 2547 688 2547 1044 
z
M 3122 2075 
L 3122 331 
L 3634 331 
L 3634 0 
L 2547 0 
L 2547 359 
Q 2356 128 2106 18 
Q 1856 -91 1522 -91 
Q 969 -91 644 203 
Q 319 497 319 997 
Q 319 1513 691 1797 
Q 1063 2081 1741 2081 
L 2547 2081 
L 2547 2309 
Q 2547 2688 2317 2895 
Q 2088 3103 1672 3103 
Q 1328 3103 1125 2947 
Q 922 2791 872 2484 
L 575 2484 
L 575 3156 
Q 875 3284 1158 3348 
Q 1441 3413 1709 3413 
Q 2400 3413 2761 3070 
Q 3122 2728 3122 2075 
z
" transform="scale(0.015625)"/>
      <path id="DejaVuSerif-67" d="M 3359 2988 
L 3359 72 
Q 3359 -644 2965 -1033 
Q 2572 -1422 1844 -1422 
Q 1516 -1422 1216 -1362 
Q 916 -1303 641 -1184 
L 641 -488 
L 941 -488 
Q 997 -813 1206 -963 
Q 1416 -1113 1806 -1113 
Q 2313 -1113 2548 -827 
Q 2784 -541 2784 72 
L 2784 519 
Q 2616 206 2355 57 
Q 2094 -91 1709 -91 
Q 1097 -91 708 395 
Q 319 881 319 1663 
Q 319 2444 706 2928 
Q 1094 3413 1709 3413 
Q 2094 3413 2355 3264 
Q 2616 3116 2784 2803 
L 2784 3322 
L 3909 3322 
L 3909 2988 
L 3359 2988 
z
M 2784 1825 
Q 2784 2422 2554 2737 
Q 2325 3053 1888 3053 
Q 1444 3053 1217 2703 
Q 991 2353 991 1663 
Q 991 975 1217 622 
Q 1444 269 1888 269 
Q 2325 269 2554 583 
Q 2784 897 2784 1497 
L 2784 1825 
z
" transform="scale(0.015625)"/>
      <path id="DejaVuSerif-5f" d="M 3200 -1259 
L 3200 -1509 
L 0 -1509 
L 0 -1259 
L 3200 -1259 
z
" transform="scale(0.015625)"/>
      <path id="DejaVuSerif-76" d="M 1581 0 
L 359 2988 
L -19 2988 
L -19 3322 
L 1509 3322 
L 1509 2988 
L 978 2988 
L 1913 703 
L 2847 2988 
L 2350 2988 
L 2350 3322 
L 3597 3322 
L 3597 2988 
L 3225 2988 
L 2003 0 
L 1581 0 
z
" transform="scale(0.015625)"/>
      <path id="DejaVuSerif-69" d="M 622 4353 
Q 622 4497 726 4603 
Q 831 4709 978 4709 
Q 1122 4709 1226 4603 
Q 1331 4497 1331 4353 
Q 1331 4206 1228 4103 
Q 1125 4000 978 4000 
Q 831 4000 726 4103 
Q 622 4206 622 4353 
z
M 1356 331 
L 1900 331 
L 1900 0 
L 231 0 
L 231 331 
L 781 331 
L 781 2988 
L 231 2988 
L 231 3322 
L 1356 3322 
L 1356 331 
z
" transform="scale(0.015625)"/>
     </defs>
     <use xlink:href="#DejaVuSerif-44"/>
     <use xlink:href="#DejaVuSerif-65" x="80.175781"/>
     <use xlink:href="#DejaVuSerif-6e" x="139.355469"/>
     <use xlink:href="#DejaVuSerif-74" x="203.759766"/>
     <use xlink:href="#DejaVuSerif-61" x="243.945312"/>
     <use xlink:href="#DejaVuSerif-74" x="303.564453"/>
     <use xlink:href="#DejaVuSerif-65" x="343.75"/>
     <use xlink:href="#DejaVuSerif-20" x="402.929688"/>
     <use xlink:href="#DejaVuSerif-67" x="434.716797"/>
     <use xlink:href="#DejaVuSerif-79" x="498.730469"/>
     <use xlink:href="#DejaVuSerif-72" x="555.224609"/>
     <use xlink:href="#DejaVuSerif-75" x="603.027344"/>
     <use xlink:href="#DejaVuSerif-73" x="667.431641"/>
     <use xlink:href="#DejaVuSerif-5f" x="718.75"/>
     <use xlink:href="#DejaVuSerif-73" x="768.75"/>
     <use xlink:href="#DejaVuSerif-63" x="820.068359"/>
     <use xlink:href="#DejaVuSerif-76" x="876.074219"/>
     <use xlink:href="#DejaVuSerif-69" x="932.568359"/>
    </g>
   </g>
  </g>
 </g>
 <defs>
  <clipPath id="p0e1c0fa268">
   <rect x="72.83" y="26.16" width="276.37" height="272.431221"/>
  </clipPath>
 </defs>
</svg>
