<?xml version="1.0" encoding="utf-8" standalone="no"?>
<!DOCTYPE svg PUBLIC "-//W3C//DTD SVG 1.1//EN"
  "http://www.w3.org/Graphics/SVG/1.1/DTD/svg11.dtd">
<svg xmlns:xlink="http://www.w3.org/1999/xlink" width="360pt" height="360pt" viewBox="0 0 360 360" xmlns="http://www.w3.org/2000/svg" version="1.1">
 <metadata>
  <rdf:RDF xmlns:dc="http://purl.org/dc/elements/1.1/" xmlns:cc="http://creativecommons.org/ns#" xmlns:rdf="http://www.w3.org/1999/02/22-rdf-syntax-ns#">
   <cc:Work>
    <dc:type rdf:resource="http://purl.org/dc/dcmitype/StillImage"/>
    <dc:date>2024-11-13T13:20:06.175442</dc:date>
    <dc:format>image/svg+xml</dc:format>
    <dc:creator>
     <cc:Agent>
      <dc:title>Matplotlib v3.8.1, https://matplotlib.org/</dc:title>
     </cc:Agent>
    </dc:creator>
   </cc:Work>
  </rdf:RDF>
 </metadata>
 <defs>
  <style type="text/css">*{stroke-linejoin: round; stroke-linecap: butt}</style>
 </defs>
 <g id="figure_1">
  <g id="patch_1">
   <path d="M 0 360 
L 360 360 
L 360 0 
L 0 0 
z
" style="fill: #ffffff"/>
  </g>
  <g id="axes_1">
   <g id="patch_2">
    <path d="M 72.83 298.591221 
L 349.2 298.591221 
L 349.2 26.16 
L 72.83 26.16 
z
" style="fill: #ffffff"/>
   </g>
   <g id="PolyCollection_1">
    <defs>
     <path id="ma4b45da625" d="M 102.729952 -61.410627 
L 102.729952 -61.408779 
L 103.769844 -61.408779 
L 104.809737 -61.408779 
L 105.84963 -61.408779 
L 106.889522 -61.408779 
L 107.929415 -61.408779 
L 108.969308 -61.408779 
L 110.0092 -61.408779 
L 111.049093 -61.408779 
L 112.088985 -61.408779 
L 113.128878 -61.408779 
L 114.168771 -61.408779 
L 115.208663 -61.408779 
L 116.248556 -61.408779 
L 117.288449 -61.408779 
L 118.328341 -61.408779 
L 119.368234 -61.408779 
L 120.408127 -61.408779 
L 121.448019 -61.408779 
L 122.487912 -61.408779 
L 123.527804 -61.408779 
L 124.567697 -61.408779 
L 125.60759 -61.408779 
L 126.647482 -61.408779 
L 127.687375 -61.408779 
L 128.727268 -61.408779 
L 129.76716 -61.408779 
L 130.807053 -61.408779 
L 131.846946 -61.408779 
L 132.886838 -61.408779 
L 133.926731 -61.408779 
L 134.966624 -61.408779 
L 136.006516 -61.408779 
L 137.046409 -61.408779 
L 138.086301 -61.408779 
L 139.126194 -61.408779 
L 140.166087 -61.408779 
L 141.205979 -61.408779 
L 142.245872 -61.408779 
L 143.285765 -61.408779 
L 144.325657 -61.408779 
L 145.36555 -61.408779 
L 146.405443 -61.408779 
L 147.445335 -61.408779 
L 148.485228 -61.408779 
L 149.52512 -61.408779 
L 150.565013 -61.408779 
L 151.604906 -61.408779 
L 152.644798 -61.408779 
L 153.684691 -61.408779 
L 154.724584 -61.408779 
L 155.764476 -61.408779 
L 156.804369 -61.408779 
L 157.844262 -61.408779 
L 158.884154 -61.408779 
L 159.924047 -61.408779 
L 160.963939 -61.408779 
L 162.003832 -61.408779 
L 163.043725 -61.408779 
L 164.083617 -61.408779 
L 165.12351 -61.408779 
L 166.163403 -61.408779 
L 167.203295 -61.408779 
L 168.243188 -61.408779 
L 169.283081 -61.408779 
L 170.322973 -61.408779 
L 171.362866 -61.408779 
L 172.402759 -61.408779 
L 173.442651 -61.408779 
L 174.482544 -61.408779 
L 175.522436 -61.408779 
L 176.562329 -61.408779 
L 177.602222 -61.408779 
L 178.642114 -61.408779 
L 179.682007 -61.408779 
L 180.7219 -61.408779 
L 181.761792 -61.408779 
L 182.801685 -61.408779 
L 183.841578 -61.408779 
L 184.88147 -61.408779 
L 185.921363 -61.408779 
L 186.961255 -61.408779 
L 188.001148 -61.408779 
L 189.041041 -61.408779 
L 190.080933 -61.408779 
L 191.120826 -61.408779 
L 192.160719 -61.408779 
L 193.200611 -61.408779 
L 194.240504 -61.408779 
L 195.280397 -61.408779 
L 196.320289 -61.408779 
L 197.360182 -61.408779 
L 198.400074 -61.408779 
L 199.439967 -61.408779 
L 200.47986 -61.408779 
L 201.519752 -61.408779 
L 202.559645 -61.408779 
L 203.599538 -61.408779 
L 204.63943 -61.408779 
L 205.679323 -61.408779 
L 206.719216 -61.408779 
L 207.759108 -61.408779 
L 208.799001 -61.408779 
L 209.838893 -61.408779 
L 210.878786 -61.408779 
L 211.918679 -61.408779 
L 212.958571 -61.408779 
L 213.998464 -61.408779 
L 215.038357 -61.408779 
L 216.078249 -61.408779 
L 217.118142 -61.408779 
L 218.158035 -61.408779 
L 219.197927 -61.408779 
L 220.23782 -61.408779 
L 221.277713 -61.408779 
L 222.317605 -61.408779 
L 223.357498 -61.408779 
L 224.39739 -61.408779 
L 225.437283 -61.408779 
L 226.477176 -61.408779 
L 227.517068 -61.408779 
L 228.556961 -61.408779 
L 229.596854 -61.408779 
L 230.636746 -61.408779 
L 231.676639 -61.408779 
L 232.716532 -61.408779 
L 233.756424 -61.408779 
L 234.796317 -61.408779 
L 235.836209 -61.408779 
L 236.876102 -61.408779 
L 237.915995 -61.408779 
L 238.955887 -61.408779 
L 239.99578 -61.408779 
L 241.035673 -61.408779 
L 242.075565 -61.408779 
L 243.115458 -61.408779 
L 244.155351 -61.408779 
L 245.195243 -61.408779 
L 246.235136 -61.408779 
L 247.275028 -61.408779 
L 248.314921 -61.408779 
L 249.354814 -61.408779 
L 250.394706 -61.408779 
L 251.434599 -61.408779 
L 252.474492 -61.408779 
L 253.514384 -61.408779 
L 254.554277 -61.408779 
L 255.59417 -61.408779 
L 256.634062 -61.408779 
L 257.673955 -61.408779 
L 258.713848 -61.408779 
L 259.75374 -61.408779 
L 260.793633 -61.408779 
L 261.833525 -61.408779 
L 262.873418 -61.408779 
L 263.913311 -61.408779 
L 264.953203 -61.408779 
L 265.993096 -61.408779 
L 267.032989 -61.408779 
L 268.072881 -61.408779 
L 269.112774 -61.408779 
L 270.152667 -61.408779 
L 271.192559 -61.408779 
L 272.232452 -61.408779 
L 273.272344 -61.408779 
L 274.312237 -61.408779 
L 275.35213 -61.408779 
L 276.392022 -61.408779 
L 277.431915 -61.408779 
L 278.471808 -61.408779 
L 279.5117 -61.408779 
L 280.551593 -61.408779 
L 281.591486 -61.408779 
L 282.631378 -61.408779 
L 283.671271 -61.408779 
L 284.711163 -61.408779 
L 285.751056 -61.408779 
L 286.790949 -61.408779 
L 287.830841 -61.408779 
L 288.870734 -61.408779 
L 289.910627 -61.408779 
L 290.950519 -61.408779 
L 291.990412 -61.408779 
L 293.030305 -61.408779 
L 294.070197 -61.408779 
L 295.11009 -61.408779 
L 296.149982 -61.408779 
L 297.189875 -61.408779 
L 298.229768 -61.408779 
L 299.26966 -61.408779 
L 300.309553 -61.408779 
L 301.349446 -61.408779 
L 302.389338 -61.408779 
L 303.429231 -61.408779 
L 304.469124 -61.408779 
L 305.509016 -61.408779 
L 306.548909 -61.408779 
L 307.588802 -61.408779 
L 308.628694 -61.408779 
L 309.668587 -61.408779 
L 309.668587 -61.419661 
L 309.668587 -61.419661 
L 308.628694 -61.429792 
L 307.588802 -61.448206 
L 306.548909 -61.480705 
L 305.509016 -61.536435 
L 304.469124 -61.629342 
L 303.429231 -61.780024 
L 302.389338 -62.017946 
L 301.349446 -62.383946 
L 300.309553 -62.9329 
L 299.26966 -63.736284 
L 298.229768 -64.884335 
L 297.189875 -66.487363 
L 296.149982 -68.675714 
L 295.11009 -71.597774 
L 294.070197 -75.415388 
L 293.030305 -80.296119 
L 291.990412 -86.40197 
L 290.950519 -93.874574 
L 289.910627 -102.81745 
L 288.870734 -113.276681 
L 287.830841 -125.222097 
L 286.790949 -138.531676 
L 285.751056 -152.982126 
L 284.711163 -168.24827 
L 283.671271 -183.913081 
L 282.631378 -199.488787 
L 281.591486 -214.447898 
L 280.551593 -228.261373 
L 279.5117 -240.439859 
L 278.471808 -250.573196 
L 277.431915 -258.363331 
L 276.392022 -263.646485 
L 275.35213 -266.401735 
L 274.312237 -266.744965 
L 273.272344 -264.909208 
L 272.232452 -261.214316 
L 271.192559 -256.030481 
L 270.152667 -249.740919 
L 269.112774 -242.708914 
L 268.072881 -235.253298 
L 267.032989 -227.634574 
L 265.993096 -220.051631 
L 264.953203 -212.646979 
L 263.913311 -205.517088 
L 262.873418 -198.724065 
L 261.833525 -192.305606 
L 260.793633 -186.281509 
L 259.75374 -180.656639 
L 258.713848 -175.421524 
L 257.673955 -170.55238 
L 256.634062 -166.012279 
L 255.59417 -161.75441 
L 254.554277 -157.727423 
L 253.514384 -153.881926 
L 252.474492 -150.176686 
L 251.434599 -146.583085 
L 250.394706 -143.086873 
L 249.354814 -139.686971 
L 248.314921 -136.391927 
L 247.275028 -133.215144 
L 246.235136 -130.170223 
L 245.195243 -127.26754 
L 244.155351 -124.512635 
L 243.115458 -121.906379 
L 242.075565 -119.446339 
L 241.035673 -117.128539 
L 239.99578 -114.948866 
L 238.955887 -112.903707 
L 237.915995 -110.989794 
L 236.876102 -109.203571 
L 235.836209 -107.540519 
L 234.796317 -105.994847 
L 233.756424 -104.55975 
L 232.716532 -103.228177 
L 231.676639 -101.993857 
L 230.636746 -100.852171 
L 229.596854 -99.800477 
L 228.556961 -98.837554 
L 227.517068 -97.962109 
L 226.477176 -97.170577 
L 225.437283 -96.45481 
L 224.39739 -95.800401 
L 223.357498 -95.186441 
L 222.317605 -94.587144 
L 221.277713 -93.975276 
L 220.23782 -93.326747 
L 219.197927 -92.625262 
L 218.158035 -91.865828 
L 217.118142 -91.056151 
L 216.078249 -90.215513 
L 215.038357 -89.371365 
L 213.998464 -88.554393 
L 212.958571 -87.793118 
L 211.918679 -87.109074 
L 210.878786 -86.513353 
L 209.838893 -86.004967 
L 208.799001 -85.571096 
L 207.759108 -85.189015 
L 206.719216 -84.829289 
L 205.679323 -84.459729 
L 204.63943 -84.049566 
L 203.599538 -83.573312 
L 202.559645 -83.013861 
L 201.519752 -82.364491 
L 200.47986 -81.629571 
L 199.439967 -80.823923 
L 198.400074 -79.970967 
L 197.360182 -79.099849 
L 196.320289 -78.241919 
L 195.280397 -77.426968 
L 194.240504 -76.679712 
L 193.200611 -76.017004 
L 192.160719 -75.446221 
L 191.120826 -74.965092 
L 190.080933 -74.563029 
L 189.041041 -74.223735 
L 188.001148 -73.928567 
L 186.961255 -73.659982 
L 185.921363 -73.404325 
L 184.88147 -73.153393 
L 183.841578 -72.904492 
L 182.801685 -72.659093 
L 181.761792 -72.420536 
L 180.7219 -72.191454 
L 179.682007 -71.971588 
L 178.642114 -71.756553 
L 177.602222 -71.537789 
L 176.562329 -71.303661 
L 175.522436 -71.041421 
L 174.482544 -70.73958 
L 173.442651 -70.39023 
L 172.402759 -69.990877 
L 171.362866 -69.545468 
L 170.322973 -69.064396 
L 169.283081 -68.563438 
L 168.243188 -68.061722 
L 167.203295 -67.579034 
L 166.163403 -67.132886 
L 165.12351 -66.735894 
L 164.083617 -66.393978 
L 163.043725 -66.105773 
L 162.003832 -65.86338 
L 160.963939 -65.654329 
L 159.924047 -65.464318 
L 158.884154 -65.280159 
L 157.844262 -65.092287 
L 156.804369 -64.896322 
L 155.764476 -64.693401 
L 154.724584 -64.48927 
L 153.684691 -64.292429 
L 152.644798 -64.111815 
L 151.604906 -63.954564 
L 150.565013 -63.824351 
L 149.52512 -63.720624 
L 148.485228 -63.638801 
L 147.445335 -63.571286 
L 146.405443 -63.508986 
L 145.36555 -63.442961 
L 144.325657 -63.365829 
L 143.285765 -63.272721 
L 142.245872 -63.161652 
L 141.205979 -63.033376 
L 140.166087 -62.890851 
L 139.126194 -62.738501 
L 138.086301 -62.581455 
L 137.046409 -62.424895 
L 136.006516 -62.273579 
L 134.966624 -62.131556 
L 133.926731 -62.002033 
L 132.886838 -61.887357 
L 131.846946 -61.789045 
L 130.807053 -61.707844 
L 129.76716 -61.64379 
L 128.727268 -61.596264 
L 127.687375 -61.564042 
L 126.647482 -61.545354 
L 125.60759 -61.537951 
L 124.567697 -61.539206 
L 123.527804 -61.546245 
L 122.487912 -61.556129 
L 121.448019 -61.566069 
L 120.408127 -61.573658 
L 119.368234 -61.577086 
L 118.328341 -61.575295 
L 117.288449 -61.568035 
L 116.248556 -61.55581 
L 115.208663 -61.539717 
L 114.168771 -61.521211 
L 113.128878 -61.501844 
L 112.088985 -61.483031 
L 111.049093 -61.465877 
L 110.0092 -61.451095 
L 108.969308 -61.439004 
L 107.929415 -61.429585 
L 106.889522 -61.422582 
L 105.84963 -61.417605 
L 104.809737 -61.414217 
L 103.769844 -61.412009 
L 102.729952 -61.410627 
z
" style="stroke: #cc78bc; stroke-width: 2"/>
    </defs>
    <g clip-path="url(#p63caab7266)">
     <use xlink:href="#ma4b45da625" x="0" y="360" style="fill: #cc78bc; fill-opacity: 0.2; stroke: #cc78bc; stroke-width: 2"/>
    </g>
   </g>
   <g id="PolyCollection_2">
    <defs>
     <path id="m5a22f4d4b0" d="M 193.890629 -61.413105 
L 193.890629 -61.408779 
L 194.349221 -61.408779 
L 194.807812 -61.408779 
L 195.266404 -61.408779 
L 195.724995 -61.408779 
L 196.183587 -61.408779 
L 196.642178 -61.408779 
L 197.10077 -61.408779 
L 197.559361 -61.408779 
L 198.017953 -61.408779 
L 198.476544 -61.408779 
L 198.935136 -61.408779 
L 199.393727 -61.408779 
L 199.852319 -61.408779 
L 200.310911 -61.408779 
L 200.769502 -61.408779 
L 201.228094 -61.408779 
L 201.686685 -61.408779 
L 202.145277 -61.408779 
L 202.603868 -61.408779 
L 203.06246 -61.408779 
L 203.521051 -61.408779 
L 203.979643 -61.408779 
L 204.438234 -61.408779 
L 204.896826 -61.408779 
L 205.355417 -61.408779 
L 205.814009 -61.408779 
L 206.2726 -61.408779 
L 206.731192 -61.408779 
L 207.189784 -61.408779 
L 207.648375 -61.408779 
L 208.106967 -61.408779 
L 208.565558 -61.408779 
L 209.02415 -61.408779 
L 209.482741 -61.408779 
L 209.941333 -61.408779 
L 210.399924 -61.408779 
L 210.858516 -61.408779 
L 211.317107 -61.408779 
L 211.775699 -61.408779 
L 212.23429 -61.408779 
L 212.692882 -61.408779 
L 213.151473 -61.408779 
L 213.610065 -61.408779 
L 214.068657 -61.408779 
L 214.527248 -61.408779 
L 214.98584 -61.408779 
L 215.444431 -61.408779 
L 215.903023 -61.408779 
L 216.361614 -61.408779 
L 216.820206 -61.408779 
L 217.278797 -61.408779 
L 217.737389 -61.408779 
L 218.19598 -61.408779 
L 218.654572 -61.408779 
L 219.113163 -61.408779 
L 219.571755 -61.408779 
L 220.030346 -61.408779 
L 220.488938 -61.408779 
L 220.947529 -61.408779 
L 221.406121 -61.408779 
L 221.864713 -61.408779 
L 222.323304 -61.408779 
L 222.781896 -61.408779 
L 223.240487 -61.408779 
L 223.699079 -61.408779 
L 224.15767 -61.408779 
L 224.616262 -61.408779 
L 225.074853 -61.408779 
L 225.533445 -61.408779 
L 225.992036 -61.408779 
L 226.450628 -61.408779 
L 226.909219 -61.408779 
L 227.367811 -61.408779 
L 227.826402 -61.408779 
L 228.284994 -61.408779 
L 228.743586 -61.408779 
L 229.202177 -61.408779 
L 229.660769 -61.408779 
L 230.11936 -61.408779 
L 230.577952 -61.408779 
L 231.036543 -61.408779 
L 231.495135 -61.408779 
L 231.953726 -61.408779 
L 232.412318 -61.408779 
L 232.870909 -61.408779 
L 233.329501 -61.408779 
L 233.788092 -61.408779 
L 234.246684 -61.408779 
L 234.705275 -61.408779 
L 235.163867 -61.408779 
L 235.622459 -61.408779 
L 236.08105 -61.408779 
L 236.539642 -61.408779 
L 236.998233 -61.408779 
L 237.456825 -61.408779 
L 237.915416 -61.408779 
L 238.374008 -61.408779 
L 238.832599 -61.408779 
L 239.291191 -61.408779 
L 239.749782 -61.408779 
L 240.208374 -61.408779 
L 240.666965 -61.408779 
L 241.125557 -61.408779 
L 241.584148 -61.408779 
L 242.04274 -61.408779 
L 242.501332 -61.408779 
L 242.959923 -61.408779 
L 243.418515 -61.408779 
L 243.877106 -61.408779 
L 244.335698 -61.408779 
L 244.794289 -61.408779 
L 245.252881 -61.408779 
L 245.711472 -61.408779 
L 246.170064 -61.408779 
L 246.628655 -61.408779 
L 247.087247 -61.408779 
L 247.545838 -61.408779 
L 248.00443 -61.408779 
L 248.463021 -61.408779 
L 248.921613 -61.408779 
L 249.380205 -61.408779 
L 249.838796 -61.408779 
L 250.297388 -61.408779 
L 250.755979 -61.408779 
L 251.214571 -61.408779 
L 251.673162 -61.408779 
L 252.131754 -61.408779 
L 252.590345 -61.408779 
L 253.048937 -61.408779 
L 253.507528 -61.408779 
L 253.96612 -61.408779 
L 254.424711 -61.408779 
L 254.883303 -61.408779 
L 255.341894 -61.408779 
L 255.800486 -61.408779 
L 256.259078 -61.408779 
L 256.717669 -61.408779 
L 257.176261 -61.408779 
L 257.634852 -61.408779 
L 258.093444 -61.408779 
L 258.552035 -61.408779 
L 259.010627 -61.408779 
L 259.469218 -61.408779 
L 259.92781 -61.408779 
L 260.386401 -61.408779 
L 260.844993 -61.408779 
L 261.303584 -61.408779 
L 261.762176 -61.408779 
L 262.220767 -61.408779 
L 262.679359 -61.408779 
L 263.137951 -61.408779 
L 263.596542 -61.408779 
L 264.055134 -61.408779 
L 264.513725 -61.408779 
L 264.972317 -61.408779 
L 265.430908 -61.408779 
L 265.8895 -61.408779 
L 266.348091 -61.408779 
L 266.806683 -61.408779 
L 267.265274 -61.408779 
L 267.723866 -61.408779 
L 268.182457 -61.408779 
L 268.641049 -61.408779 
L 269.09964 -61.408779 
L 269.558232 -61.408779 
L 270.016824 -61.408779 
L 270.475415 -61.408779 
L 270.934007 -61.408779 
L 271.392598 -61.408779 
L 271.85119 -61.408779 
L 272.309781 -61.408779 
L 272.768373 -61.408779 
L 273.226964 -61.408779 
L 273.685556 -61.408779 
L 274.144147 -61.408779 
L 274.602739 -61.408779 
L 275.06133 -61.408779 
L 275.519922 -61.408779 
L 275.978513 -61.408779 
L 276.437105 -61.408779 
L 276.895697 -61.408779 
L 277.354288 -61.408779 
L 277.81288 -61.408779 
L 278.271471 -61.408779 
L 278.730063 -61.408779 
L 279.188654 -61.408779 
L 279.647246 -61.408779 
L 280.105837 -61.408779 
L 280.564429 -61.408779 
L 281.02302 -61.408779 
L 281.481612 -61.408779 
L 281.940203 -61.408779 
L 282.398795 -61.408779 
L 282.857386 -61.408779 
L 283.315978 -61.408779 
L 283.77457 -61.408779 
L 284.233161 -61.408779 
L 284.691753 -61.408779 
L 285.150344 -61.408779 
L 285.150344 -61.421252 
L 285.150344 -61.421252 
L 284.691753 -61.431487 
L 284.233161 -61.448563 
L 283.77457 -61.475863 
L 283.315978 -61.517662 
L 282.857386 -61.578921 
L 282.398795 -61.664802 
L 281.940203 -61.779883 
L 281.481612 -61.927166 
L 281.02302 -62.107046 
L 280.564429 -62.316558 
L 280.105837 -62.549241 
L 279.647246 -62.795908 
L 279.188654 -63.046451 
L 278.730063 -63.292526 
L 278.271471 -63.530647 
L 277.81288 -63.765015 
L 277.354288 -64.009302 
L 276.895697 -64.286773 
L 276.437105 -64.628474 
L 275.978513 -65.069699 
L 275.519922 -65.645362 
L 275.06133 -66.385288 
L 274.602739 -67.310441 
L 274.144147 -68.43096 
L 273.685556 -69.746432 
L 273.226964 -71.248351 
L 272.768373 -72.924158 
L 272.309781 -74.761972 
L 271.85119 -76.754963 
L 271.392598 -78.904462 
L 270.934007 -81.221235 
L 270.475415 -83.724805 
L 270.016824 -86.441116 
L 269.558232 -89.399132 
L 269.09964 -92.627065 
L 268.641049 -96.148781 
L 268.182457 -99.980658 
L 267.723866 -104.12891 
L 267.265274 -108.587258 
L 266.806683 -113.33493 
L 266.348091 -118.335308 
L 265.8895 -123.535902 
L 265.430908 -128.87057 
L 264.972317 -134.264689 
L 264.513725 -139.643391 
L 264.055134 -144.942027 
L 263.596542 -150.117062 
L 263.137951 -155.155042 
L 262.679359 -160.077291 
L 262.220767 -164.93878 
L 261.762176 -169.820844 
L 261.303584 -174.818896 
L 260.844993 -180.027422 
L 260.386401 -185.52518 
L 259.92781 -191.363378 
L 259.469218 -197.558806 
L 259.010627 -204.092684 
L 258.552035 -210.914659 
L 258.093444 -217.950397 
L 257.634852 -225.110709 
L 257.176261 -232.300325 
L 256.717669 -239.425071 
L 256.259078 -246.397039 
L 255.800486 -253.138024 
L 255.341894 -259.581767 
L 254.883303 -265.675399 
L 254.424711 -271.380066 
L 253.96612 -276.67041 
L 253.507528 -281.532651 
L 253.048937 -285.961428 
L 252.590345 -289.956248 
L 252.131754 -293.518815 
L 251.673162 -296.652463 
L 251.214571 -299.364236 
L 250.755979 -301.669101 
L 250.297388 -303.594781 
L 249.838796 -305.185257 
L 249.380205 -306.501272 
L 248.921613 -307.617085 
L 248.463021 -308.613851 
L 248.00443 -309.570916 
L 247.545838 -310.5567 
L 247.087247 -311.62071 
L 246.628655 -312.787776 
L 246.170064 -314.055074 
L 245.711472 -315.392141 
L 245.252881 -316.743743 
L 244.794289 -318.035305 
L 244.335698 -319.18027 
L 243.877106 -320.088557 
L 243.418515 -320.675056 
L 242.959923 -320.867085 
L 242.501332 -320.609875 
L 242.04274 -319.869404 
L 241.584148 -318.632231 
L 241.125557 -316.902323 
L 240.666965 -314.695373 
L 240.208374 -312.031617 
L 239.749782 -308.928773 
L 239.291191 -305.396992 
L 238.832599 -301.437511 
L 238.374008 -297.045783 
L 237.915416 -292.218439 
L 237.456825 -286.961963 
L 236.998233 -281.300042 
L 236.539642 -275.276647 
L 236.08105 -268.953142 
L 235.622459 -262.399721 
L 235.163867 -255.683497 
L 234.705275 -248.85694 
L 234.246684 -241.950473 
L 233.788092 -234.971857 
L 233.329501 -227.912931 
L 232.870909 -220.761955 
L 232.412318 -213.518039 
L 231.953726 -206.203434 
L 231.495135 -198.870002 
L 231.036543 -191.597883 
L 230.577952 -184.486554 
L 230.11936 -177.640639 
L 229.660769 -171.154246 
L 229.202177 -165.097829 
L 228.743586 -159.510623 
L 228.284994 -154.399857 
L 227.826402 -149.745886 
L 227.367811 -145.51078 
L 226.909219 -141.647309 
L 226.450628 -138.105762 
L 225.992036 -134.837335 
L 225.533445 -131.794346 
L 225.074853 -128.928661 
L 224.616262 -126.190176 
L 224.15767 -123.52685 
L 223.699079 -120.887036 
L 223.240487 -118.223885 
L 222.781896 -115.500955 
L 222.323304 -112.697688 
L 221.864713 -109.813423 
L 221.406121 -106.868836 
L 220.947529 -103.904153 
L 220.488938 -100.974114 
L 220.030346 -98.140346 
L 219.571755 -95.462441 
L 219.113163 -92.989405 
L 218.654572 -90.753138 
L 218.19598 -88.765182 
L 217.737389 -87.017162 
L 217.278797 -85.484471 
L 216.820206 -84.132039 
L 216.361614 -82.920664 
L 215.903023 -81.812514 
L 215.444431 -80.774912 
L 214.98584 -79.782136 
L 214.527248 -78.81556 
L 214.068657 -77.862818 
L 213.610065 -76.916677 
L 213.151473 -75.974108 
L 212.692882 -75.035727 
L 212.23429 -74.105474 
L 211.775699 -73.19023 
L 211.317107 -72.299067 
L 210.858516 -71.441994 
L 210.399924 -70.628248 
L 209.941333 -69.864442 
L 209.482741 -69.153002 
L 209.02415 -68.49137 
L 208.565558 -67.872296 
L 208.106967 -67.285312 
L 207.648375 -66.719123 
L 207.189784 -66.164381 
L 206.731192 -65.616129 
L 206.2726 -65.075261 
L 205.814009 -64.548602 
L 205.355417 -64.047555 
L 204.896826 -63.585682 
L 204.438234 -63.175839 
L 203.979643 -62.827545 
L 203.521051 -62.545184 
L 203.06246 -62.327338 
L 202.603868 -62.16729 
L 202.145277 -62.05443 
L 201.686685 -61.976188 
L 201.228094 -61.920024 
L 200.769502 -61.87511 
L 200.310911 -61.833429 
L 199.852319 -61.790198 
L 199.393727 -61.743661 
L 198.935136 -61.694422 
L 198.476544 -61.644535 
L 198.017953 -61.596591 
L 197.559361 -61.552969 
L 197.10077 -61.515363 
L 196.642178 -61.484593 
L 196.183587 -61.460653 
L 195.724995 -61.442915 
L 195.266404 -61.43038 
L 194.807812 -61.421923 
L 194.349221 -61.416469 
L 193.890629 -61.413105 
z
" style="stroke: #d55e00; stroke-width: 2"/>
    </defs>
    <g clip-path="url(#p63caab7266)">
     <use xlink:href="#m5a22f4d4b0" x="0" y="360" style="fill: #d55e00; fill-opacity: 0.2; stroke: #d55e00; stroke-width: 2"/>
    </g>
   </g>
   <g id="PolyCollection_3">
    <defs>
     <path id="m669426a923" d="M 99.534884 -61.411565 
L 99.534884 -61.408779 
L 100.290301 -61.408779 
L 101.045719 -61.408779 
L 101.801136 -61.408779 
L 102.556553 -61.408779 
L 103.31197 -61.408779 
L 104.067387 -61.408779 
L 104.822804 -61.408779 
L 105.578221 -61.408779 
L 106.333638 -61.408779 
L 107.089055 -61.408779 
L 107.844472 -61.408779 
L 108.599889 -61.408779 
L 109.355306 -61.408779 
L 110.110723 -61.408779 
L 110.866141 -61.408779 
L 111.621558 -61.408779 
L 112.376975 -61.408779 
L 113.132392 -61.408779 
L 113.887809 -61.408779 
L 114.643226 -61.408779 
L 115.398643 -61.408779 
L 116.15406 -61.408779 
L 116.909477 -61.408779 
L 117.664894 -61.408779 
L 118.420311 -61.408779 
L 119.175728 -61.408779 
L 119.931145 -61.408779 
L 120.686563 -61.408779 
L 121.44198 -61.408779 
L 122.197397 -61.408779 
L 122.952814 -61.408779 
L 123.708231 -61.408779 
L 124.463648 -61.408779 
L 125.219065 -61.408779 
L 125.974482 -61.408779 
L 126.729899 -61.408779 
L 127.485316 -61.408779 
L 128.240733 -61.408779 
L 128.99615 -61.408779 
L 129.751567 -61.408779 
L 130.506985 -61.408779 
L 131.262402 -61.408779 
L 132.017819 -61.408779 
L 132.773236 -61.408779 
L 133.528653 -61.408779 
L 134.28407 -61.408779 
L 135.039487 -61.408779 
L 135.794904 -61.408779 
L 136.550321 -61.408779 
L 137.305738 -61.408779 
L 138.061155 -61.408779 
L 138.816572 -61.408779 
L 139.571989 -61.408779 
L 140.327407 -61.408779 
L 141.082824 -61.408779 
L 141.838241 -61.408779 
L 142.593658 -61.408779 
L 143.349075 -61.408779 
L 144.104492 -61.408779 
L 144.859909 -61.408779 
L 145.615326 -61.408779 
L 146.370743 -61.408779 
L 147.12616 -61.408779 
L 147.881577 -61.408779 
L 148.636994 -61.408779 
L 149.392411 -61.408779 
L 150.147829 -61.408779 
L 150.903246 -61.408779 
L 151.658663 -61.408779 
L 152.41408 -61.408779 
L 153.169497 -61.408779 
L 153.924914 -61.408779 
L 154.680331 -61.408779 
L 155.435748 -61.408779 
L 156.191165 -61.408779 
L 156.946582 -61.408779 
L 157.701999 -61.408779 
L 158.457416 -61.408779 
L 159.212833 -61.408779 
L 159.96825 -61.408779 
L 160.723668 -61.408779 
L 161.479085 -61.408779 
L 162.234502 -61.408779 
L 162.989919 -61.408779 
L 163.745336 -61.408779 
L 164.500753 -61.408779 
L 165.25617 -61.408779 
L 166.011587 -61.408779 
L 166.767004 -61.408779 
L 167.522421 -61.408779 
L 168.277838 -61.408779 
L 169.033255 -61.408779 
L 169.788672 -61.408779 
L 170.54409 -61.408779 
L 171.299507 -61.408779 
L 172.054924 -61.408779 
L 172.810341 -61.408779 
L 173.565758 -61.408779 
L 174.321175 -61.408779 
L 175.076592 -61.408779 
L 175.832009 -61.408779 
L 176.587426 -61.408779 
L 177.342843 -61.408779 
L 178.09826 -61.408779 
L 178.853677 -61.408779 
L 179.609094 -61.408779 
L 180.364512 -61.408779 
L 181.119929 -61.408779 
L 181.875346 -61.408779 
L 182.630763 -61.408779 
L 183.38618 -61.408779 
L 184.141597 -61.408779 
L 184.897014 -61.408779 
L 185.652431 -61.408779 
L 186.407848 -61.408779 
L 187.163265 -61.408779 
L 187.918682 -61.408779 
L 188.674099 -61.408779 
L 189.429516 -61.408779 
L 190.184934 -61.408779 
L 190.940351 -61.408779 
L 191.695768 -61.408779 
L 192.451185 -61.408779 
L 193.206602 -61.408779 
L 193.962019 -61.408779 
L 194.717436 -61.408779 
L 195.472853 -61.408779 
L 196.22827 -61.408779 
L 196.983687 -61.408779 
L 197.739104 -61.408779 
L 198.494521 -61.408779 
L 199.249938 -61.408779 
L 200.005356 -61.408779 
L 200.760773 -61.408779 
L 201.51619 -61.408779 
L 202.271607 -61.408779 
L 203.027024 -61.408779 
L 203.782441 -61.408779 
L 204.537858 -61.408779 
L 205.293275 -61.408779 
L 206.048692 -61.408779 
L 206.804109 -61.408779 
L 207.559526 -61.408779 
L 208.314943 -61.408779 
L 209.07036 -61.408779 
L 209.825778 -61.408779 
L 210.581195 -61.408779 
L 211.336612 -61.408779 
L 212.092029 -61.408779 
L 212.847446 -61.408779 
L 213.602863 -61.408779 
L 214.35828 -61.408779 
L 215.113697 -61.408779 
L 215.869114 -61.408779 
L 216.624531 -61.408779 
L 217.379948 -61.408779 
L 218.135365 -61.408779 
L 218.890782 -61.408779 
L 219.6462 -61.408779 
L 220.401617 -61.408779 
L 221.157034 -61.408779 
L 221.912451 -61.408779 
L 222.667868 -61.408779 
L 223.423285 -61.408779 
L 224.178702 -61.408779 
L 224.934119 -61.408779 
L 225.689536 -61.408779 
L 226.444953 -61.408779 
L 227.20037 -61.408779 
L 227.955787 -61.408779 
L 228.711204 -61.408779 
L 229.466621 -61.408779 
L 230.222039 -61.408779 
L 230.977456 -61.408779 
L 231.732873 -61.408779 
L 232.48829 -61.408779 
L 233.243707 -61.408779 
L 233.999124 -61.408779 
L 234.754541 -61.408779 
L 235.509958 -61.408779 
L 236.265375 -61.408779 
L 237.020792 -61.408779 
L 237.776209 -61.408779 
L 238.531626 -61.408779 
L 239.287043 -61.408779 
L 240.042461 -61.408779 
L 240.797878 -61.408779 
L 241.553295 -61.408779 
L 242.308712 -61.408779 
L 243.064129 -61.408779 
L 243.819546 -61.408779 
L 244.574963 -61.408779 
L 245.33038 -61.408779 
L 246.085797 -61.408779 
L 246.841214 -61.408779 
L 247.596631 -61.408779 
L 248.352048 -61.408779 
L 249.107465 -61.408779 
L 249.862883 -61.408779 
L 249.862883 -61.413408 
L 249.862883 -61.413408 
L 249.107465 -61.416943 
L 248.352048 -61.42289 
L 247.596631 -61.432689 
L 246.841214 -61.448518 
L 246.085797 -61.473598 
L 245.33038 -61.512596 
L 244.574963 -61.572132 
L 243.819546 -61.661413 
L 243.064129 -61.79298 
L 242.308712 -61.983574 
L 241.553295 -62.255088 
L 240.797878 -62.635555 
L 240.042461 -63.1601 
L 239.287043 -63.871747 
L 238.531626 -64.821944 
L 237.776209 -66.07064 
L 237.020792 -67.685725 
L 236.265375 -69.741668 
L 235.509958 -72.317185 
L 234.754541 -75.49189 
L 233.999124 -79.341933 
L 233.243707 -83.934823 
L 232.48829 -89.323751 
L 231.732873 -95.541897 
L 230.977456 -102.597297 
L 230.222039 -110.468865 
L 229.466621 -119.104114 
L 228.711204 -128.418955 
L 227.955787 -138.299727 
L 227.20037 -148.60738 
L 226.444953 -159.183473 
L 225.689536 -169.857528 
L 224.934119 -180.455162 
L 224.178702 -190.806409 
L 223.423285 -200.753701 
L 222.667868 -210.158992 
L 221.912451 -218.90957 
L 221.157034 -226.922109 
L 220.401617 -234.144567 
L 219.6462 -240.555608 
L 218.890782 -246.161434 
L 218.135365 -250.990141 
L 217.379948 -255.084087 
L 216.624531 -258.491105 
L 215.869114 -261.255656 
L 215.113697 -263.411167 
L 214.35828 -264.974704 
L 213.602863 -265.944841 
L 212.847446 -266.3031 
L 212.092029 -266.018786 
L 211.336612 -265.05642 
L 210.581195 -263.384604 
L 209.825778 -260.984832 
L 209.07036 -257.858852 
L 208.314943 -254.033417 
L 207.559526 -249.561754 
L 206.804109 -244.521627 
L 206.048692 -239.010432 
L 205.293275 -233.138188 
L 204.537858 -227.019528 
L 203.782441 -220.76584 
L 203.027024 -214.478551 
L 202.271607 -208.24428 
L 201.51619 -202.132216 
L 200.760773 -196.193746 
L 200.005356 -190.464026 
L 199.249938 -184.964973 
L 198.494521 -179.708991 
L 197.739104 -174.702744 
L 196.983687 -169.95033 
L 196.22827 -165.455413 
L 195.472853 -161.222083 
L 194.717436 -157.254532 
L 193.962019 -153.555841 
L 193.206602 -150.1264 
L 192.451185 -146.962486 
L 191.695768 -144.055463 
L 190.940351 -141.391852 
L 190.184934 -138.954229 
L 189.429516 -136.722687 
L 188.674099 -134.676402 
L 187.918682 -132.794861 
L 187.163265 -131.058422 
L 186.407848 -129.448131 
L 185.652431 -127.944992 
L 184.897014 -126.529075 
L 184.141597 -125.178954 
L 183.38618 -123.871844 
L 182.630763 -122.584635 
L 181.875346 -121.295714 
L 181.119929 -119.987227 
L 180.364512 -118.647261 
L 179.609094 -117.27141 
L 178.853677 -115.863296 
L 178.09826 -114.433839 
L 177.342843 -112.999346 
L 176.587426 -111.578701 
L 175.832009 -110.190154 
L 175.076592 -108.848252 
L 174.321175 -107.561457 
L 173.565758 -106.330848 
L 172.810341 -105.150124 
L 172.054924 -104.006901 
L 171.299507 -102.885052 
L 170.54409 -101.767661 
L 169.788672 -100.640073 
L 169.033255 -99.492468 
L 168.277838 -98.321556 
L 167.522421 -97.131104 
L 166.767004 -95.931295 
L 166.011587 -94.737096 
L 165.25617 -93.566015 
L 164.500753 -92.435688 
L 163.745336 -91.36171 
L 162.989919 -90.356045 
L 162.234502 -89.426155 
L 161.479085 -88.574871 
L 160.723668 -87.800862 
L 159.96825 -87.099497 
L 159.212833 -86.463898 
L 158.457416 -85.88597 
L 157.701999 -85.357307 
L 156.946582 -84.869904 
L 156.191165 -84.416666 
L 155.435748 -83.991726 
L 154.680331 -83.59061 
L 153.924914 -83.21027 
L 153.169497 -82.848995 
L 152.41408 -82.506241 
L 151.658663 -82.182387 
L 150.903246 -81.878463 
L 150.147829 -81.595882 
L 149.392411 -81.336197 
L 148.636994 -81.100898 
L 147.881577 -80.891232 
L 147.12616 -80.708017 
L 146.370743 -80.551423 
L 145.615326 -80.420698 
L 144.859909 -80.313856 
L 144.104492 -80.227357 
L 143.349075 -80.15587 
L 142.593658 -80.092183 
L 141.838241 -80.027335 
L 141.082824 -79.951006 
L 140.327407 -79.852162 
L 139.571989 -79.719877 
L 138.816572 -79.544238 
L 138.061155 -79.317202 
L 137.305738 -79.033254 
L 136.550321 -78.689785 
L 135.794904 -78.287111 
L 135.039487 -77.828157 
L 134.28407 -77.317858 
L 133.528653 -76.762416 
L 132.773236 -76.168539 
L 132.017819 -75.542819 
L 131.262402 -74.891318 
L 130.506985 -74.219439 
L 129.751567 -73.532028 
L 128.99615 -72.833647 
L 128.240733 -72.128906 
L 127.485316 -71.422731 
L 126.729899 -70.720493 
L 125.974482 -70.027947 
L 125.219065 -69.350985 
L 124.463648 -68.695269 
L 123.708231 -68.065809 
L 122.952814 -67.466602 
L 122.197397 -66.900381 
L 121.44198 -66.368552 
L 120.686563 -65.871291 
L 119.931145 -65.407804 
L 119.175728 -64.976666 
L 118.420311 -64.576177 
L 117.664894 -64.204678 
L 116.909477 -63.860764 
L 116.15406 -63.543384 
L 115.398643 -63.251836 
L 114.643226 -62.985675 
L 113.887809 -62.744575 
L 113.132392 -62.528191 
L 112.376975 -62.336031 
L 111.621558 -62.167371 
L 110.866141 -62.021216 
L 110.110723 -61.896292 
L 109.355306 -61.791076 
L 108.599889 -61.70384 
L 107.844472 -61.632713 
L 107.089055 -61.575742 
L 106.333638 -61.530964 
L 105.578221 -61.496463 
L 104.822804 -61.470433 
L 104.067387 -61.45122 
L 103.31197 -61.43736 
L 102.556553 -61.427595 
L 101.801136 -61.420881 
L 101.045719 -61.41638 
L 100.290301 -61.413438 
L 99.534884 -61.411565 
z
" style="stroke: #029e73; stroke-width: 2"/>
    </defs>
    <g clip-path="url(#p63caab7266)">
     <use xlink:href="#m669426a923" x="0" y="360" style="fill: #029e73; fill-opacity: 0.2; stroke: #029e73; stroke-width: 2"/>
    </g>
   </g>
   <g id="PolyCollection_4">
    <defs>
     <path id="mbb5dda3ce7" d="M 90.400297 -61.411361 
L 90.400297 -61.408779 
L 91.637671 -61.408779 
L 92.875045 -61.408779 
L 94.112419 -61.408779 
L 95.349793 -61.408779 
L 96.587167 -61.408779 
L 97.824541 -61.408779 
L 99.061915 -61.408779 
L 100.299289 -61.408779 
L 101.536663 -61.408779 
L 102.774037 -61.408779 
L 104.011411 -61.408779 
L 105.248785 -61.408779 
L 106.486159 -61.408779 
L 107.723533 -61.408779 
L 108.960907 -61.408779 
L 110.198281 -61.408779 
L 111.435655 -61.408779 
L 112.673029 -61.408779 
L 113.910403 -61.408779 
L 115.147777 -61.408779 
L 116.385151 -61.408779 
L 117.622525 -61.408779 
L 118.859899 -61.408779 
L 120.097273 -61.408779 
L 121.334647 -61.408779 
L 122.572021 -61.408779 
L 123.809395 -61.408779 
L 125.046769 -61.408779 
L 126.284144 -61.408779 
L 127.521518 -61.408779 
L 128.758892 -61.408779 
L 129.996266 -61.408779 
L 131.23364 -61.408779 
L 132.471014 -61.408779 
L 133.708388 -61.408779 
L 134.945762 -61.408779 
L 136.183136 -61.408779 
L 137.42051 -61.408779 
L 138.657884 -61.408779 
L 139.895258 -61.408779 
L 141.132632 -61.408779 
L 142.370006 -61.408779 
L 143.60738 -61.408779 
L 144.844754 -61.408779 
L 146.082128 -61.408779 
L 147.319502 -61.408779 
L 148.556876 -61.408779 
L 149.79425 -61.408779 
L 151.031624 -61.408779 
L 152.268998 -61.408779 
L 153.506372 -61.408779 
L 154.743746 -61.408779 
L 155.98112 -61.408779 
L 157.218494 -61.408779 
L 158.455868 -61.408779 
L 159.693242 -61.408779 
L 160.930616 -61.408779 
L 162.16799 -61.408779 
L 163.405364 -61.408779 
L 164.642738 -61.408779 
L 165.880112 -61.408779 
L 167.117486 -61.408779 
L 168.35486 -61.408779 
L 169.592234 -61.408779 
L 170.829608 -61.408779 
L 172.066982 -61.408779 
L 173.304356 -61.408779 
L 174.54173 -61.408779 
L 175.779104 -61.408779 
L 177.016478 -61.408779 
L 178.253852 -61.408779 
L 179.491226 -61.408779 
L 180.7286 -61.408779 
L 181.965975 -61.408779 
L 183.203349 -61.408779 
L 184.440723 -61.408779 
L 185.678097 -61.408779 
L 186.915471 -61.408779 
L 188.152845 -61.408779 
L 189.390219 -61.408779 
L 190.627593 -61.408779 
L 191.864967 -61.408779 
L 193.102341 -61.408779 
L 194.339715 -61.408779 
L 195.577089 -61.408779 
L 196.814463 -61.408779 
L 198.051837 -61.408779 
L 199.289211 -61.408779 
L 200.526585 -61.408779 
L 201.763959 -61.408779 
L 203.001333 -61.408779 
L 204.238707 -61.408779 
L 205.476081 -61.408779 
L 206.713455 -61.408779 
L 207.950829 -61.408779 
L 209.188203 -61.408779 
L 210.425577 -61.408779 
L 211.662951 -61.408779 
L 212.900325 -61.408779 
L 214.137699 -61.408779 
L 215.375073 -61.408779 
L 216.612447 -61.408779 
L 217.849821 -61.408779 
L 219.087195 -61.408779 
L 220.324569 -61.408779 
L 221.561943 -61.408779 
L 222.799317 -61.408779 
L 224.036691 -61.408779 
L 225.274065 -61.408779 
L 226.511439 -61.408779 
L 227.748813 -61.408779 
L 228.986187 -61.408779 
L 230.223561 -61.408779 
L 231.460935 -61.408779 
L 232.698309 -61.408779 
L 233.935683 -61.408779 
L 235.173057 -61.408779 
L 236.410431 -61.408779 
L 237.647806 -61.408779 
L 238.88518 -61.408779 
L 240.122554 -61.408779 
L 241.359928 -61.408779 
L 242.597302 -61.408779 
L 243.834676 -61.408779 
L 245.07205 -61.408779 
L 246.309424 -61.408779 
L 247.546798 -61.408779 
L 248.784172 -61.408779 
L 250.021546 -61.408779 
L 251.25892 -61.408779 
L 252.496294 -61.408779 
L 253.733668 -61.408779 
L 254.971042 -61.408779 
L 256.208416 -61.408779 
L 257.44579 -61.408779 
L 258.683164 -61.408779 
L 259.920538 -61.408779 
L 261.157912 -61.408779 
L 262.395286 -61.408779 
L 263.63266 -61.408779 
L 264.870034 -61.408779 
L 266.107408 -61.408779 
L 267.344782 -61.408779 
L 268.582156 -61.408779 
L 269.81953 -61.408779 
L 271.056904 -61.408779 
L 272.294278 -61.408779 
L 273.531652 -61.408779 
L 274.769026 -61.408779 
L 276.0064 -61.408779 
L 277.243774 -61.408779 
L 278.481148 -61.408779 
L 279.718522 -61.408779 
L 280.955896 -61.408779 
L 282.19327 -61.408779 
L 283.430644 -61.408779 
L 284.668018 -61.408779 
L 285.905392 -61.408779 
L 287.142766 -61.408779 
L 288.38014 -61.408779 
L 289.617514 -61.408779 
L 290.854888 -61.408779 
L 292.092262 -61.408779 
L 293.329637 -61.408779 
L 294.567011 -61.408779 
L 295.804385 -61.408779 
L 297.041759 -61.408779 
L 298.279133 -61.408779 
L 299.516507 -61.408779 
L 300.753881 -61.408779 
L 301.991255 -61.408779 
L 303.228629 -61.408779 
L 304.466003 -61.408779 
L 305.703377 -61.408779 
L 306.940751 -61.408779 
L 308.178125 -61.408779 
L 309.415499 -61.408779 
L 310.652873 -61.408779 
L 311.890247 -61.408779 
L 313.127621 -61.408779 
L 314.364995 -61.408779 
L 315.602369 -61.408779 
L 316.839743 -61.408779 
L 318.077117 -61.408779 
L 319.314491 -61.408779 
L 320.551865 -61.408779 
L 321.789239 -61.408779 
L 323.026613 -61.408779 
L 324.263987 -61.408779 
L 325.501361 -61.408779 
L 326.738735 -61.408779 
L 327.976109 -61.408779 
L 329.213483 -61.408779 
L 330.450857 -61.408779 
L 331.688231 -61.408779 
L 332.925605 -61.408779 
L 334.162979 -61.408779 
L 335.400353 -61.408779 
L 336.637727 -61.408779 
L 336.637727 -61.410781 
L 336.637727 -61.410781 
L 335.400353 -61.412787 
L 334.162979 -61.41638 
L 332.925605 -61.42244 
L 331.688231 -61.432063 
L 330.450857 -61.446437 
L 329.213483 -61.466616 
L 327.976109 -61.493204 
L 326.738735 -61.526006 
L 325.501361 -61.563766 
L 324.263987 -61.604079 
L 323.026613 -61.643574 
L 321.789239 -61.678362 
L 320.551865 -61.704715 
L 319.314491 -61.719828 
L 318.077117 -61.722575 
L 316.839743 -61.714142 
L 315.602369 -61.698556 
L 314.364995 -61.68317 
L 313.127621 -61.679267 
L 311.890247 -61.702975 
L 310.652873 -61.776637 
L 309.415499 -61.9307 
L 308.178125 -62.206023 
L 306.940751 -62.656293 
L 305.703377 -63.350123 
L 304.466003 -64.372266 
L 303.228629 -65.823372 
L 301.991255 -67.817792 
L 300.753881 -70.479105 
L 299.516507 -73.933316 
L 298.279133 -78.299996 
L 297.041759 -83.681917 
L 295.804385 -90.153859 
L 294.567011 -97.751262 
L 293.329637 -106.459393 
L 292.092262 -116.203927 
L 290.854888 -126.844424 
L 289.617514 -138.173033 
L 288.38014 -149.921146 
L 287.142766 -161.776085 
L 285.905392 -173.407732 
L 284.668018 -184.501696 
L 283.430644 -194.792372 
L 282.19327 -204.087654 
L 280.955896 -212.278383 
L 279.718522 -219.329779 
L 278.481148 -225.257774 
L 277.243774 -230.098109 
L 276.0064 -233.878171 
L 274.769026 -236.600107 
L 273.531652 -238.239317 
L 272.294278 -238.756996 
L 271.056904 -238.120992 
L 269.81953 -236.327339 
L 268.582156 -233.415738 
L 267.344782 -229.475208 
L 266.107408 -224.639656 
L 264.870034 -219.075895 
L 263.63266 -212.967859 
L 262.395286 -206.500399 
L 261.157912 -199.844935 
L 259.920538 -193.148175 
L 258.683164 -186.524664 
L 257.44579 -180.053956 
L 256.208416 -173.783044 
L 254.971042 -167.733891 
L 253.733668 -161.914418 
L 252.496294 -156.329867 
L 251.25892 -150.990949 
L 250.021546 -145.916124 
L 248.784172 -141.127608 
L 247.546798 -136.643271 
L 246.309424 -132.468361 
L 245.07205 -128.591111 
L 243.834676 -124.984698 
L 242.597302 -121.615304 
L 241.359928 -118.453323 
L 240.122554 -115.483155 
L 238.88518 -112.70732 
L 237.647806 -110.142665 
L 236.410431 -107.809621 
L 235.173057 -105.718349 
L 233.935683 -103.857048 
L 232.698309 -102.187011 
L 231.460935 -100.646507 
L 230.223561 -99.162332 
L 228.986187 -97.665281 
L 227.748813 -96.104795 
L 226.511439 -94.458816 
L 225.274065 -92.736842 
L 224.036691 -90.976402 
L 222.799317 -89.234777 
L 221.561943 -87.578409 
L 220.324569 -86.072194 
L 219.087195 -84.770124 
L 217.849821 -83.70797 
L 216.612447 -82.898247 
L 215.375073 -82.327584 
L 214.137699 -81.956781 
L 212.900325 -81.724016 
L 211.662951 -81.551515 
L 210.425577 -81.355587 
L 209.188203 -81.058992 
L 207.950829 -80.603682 
L 206.713455 -79.961218 
L 205.476081 -79.138188 
L 204.238707 -78.174754 
L 203.001333 -77.136137 
L 201.763959 -76.098743 
L 200.526585 -75.134238 
L 199.289211 -74.295529 
L 198.051837 -73.608111 
L 196.814463 -73.068597 
L 195.577089 -72.65018 
L 194.339715 -72.312829 
L 193.102341 -72.014852 
L 191.864967 -71.722478 
L 190.627593 -71.415115 
L 189.390219 -71.085592 
L 188.152845 -70.736435 
L 186.915471 -70.374364 
L 185.678097 -70.005441 
L 184.440723 -69.632617 
L 183.203349 -69.256111 
L 181.965975 -68.875773 
L 180.7286 -68.493829 
L 179.491226 -68.1165 
L 178.253852 -67.753762 
L 177.016478 -67.417467 
L 175.779104 -67.118752 
L 174.54173 -66.865676 
L 173.304356 -66.661676 
L 172.066982 -66.504883 
L 170.829608 -66.388101 
L 169.592234 -66.299357 
L 168.35486 -66.223178 
L 167.117486 -66.1428 
L 165.880112 -66.043224 
L 164.642738 -65.914489 
L 163.405364 -65.754117 
L 162.16799 -65.567711 
L 160.930616 -65.36724 
L 159.693242 -65.167409 
L 158.455868 -64.98122 
L 157.218494 -64.816191 
L 155.98112 -64.672388 
L 154.743746 -64.542825 
L 153.506372 -64.415953 
L 152.268998 -64.279386 
L 151.031624 -64.123665 
L 149.79425 -63.945012 
L 148.556876 -63.746335 
L 147.319502 -63.536312 
L 146.082128 -63.326894 
L 144.844754 -63.129998 
L 143.60738 -62.954369 
L 142.370006 -62.80355 
L 141.132632 -62.675564 
L 139.895258 -62.564355 
L 138.657884 -62.462442 
L 137.42051 -62.363807 
L 136.183136 -62.265949 
L 134.945762 -62.170378 
L 133.708388 -62.08147 
L 132.471014 -62.004245 
L 131.23364 -61.942024 
L 129.996266 -61.894909 
L 128.758892 -61.859604 
L 127.521518 -61.830531 
L 126.284144 -61.801697 
L 125.046769 -61.768573 
L 123.809395 -61.729325 
L 122.572021 -61.685112 
L 121.334647 -61.639516 
L 120.097273 -61.597446 
L 118.859899 -61.56394 
L 117.622525 -61.543167 
L 116.385151 -61.53775 
L 115.147777 -61.54838 
L 113.910403 -61.573632 
L 112.673029 -61.60997 
L 111.435655 -61.65201 
L 110.198281 -61.693132 
L 108.960907 -61.726484 
L 107.723533 -61.746222 
L 106.486159 -61.748691 
L 105.248785 -61.733176 
L 104.011411 -61.701961 
L 102.774037 -61.659658 
L 101.536663 -61.61202 
L 100.299289 -61.564647 
L 99.061915 -61.521937 
L 97.824541 -61.486544 
L 96.587167 -61.459365 
L 95.349793 -61.439926 
L 94.112419 -61.426931 
L 92.875045 -61.418791 
L 91.637671 -61.414006 
L 90.400297 -61.411361 
z
" style="stroke: #de8f05; stroke-width: 2"/>
    </defs>
    <g clip-path="url(#p63caab7266)">
     <use xlink:href="#mbb5dda3ce7" x="0" y="360" style="fill: #de8f05; fill-opacity: 0.2; stroke: #de8f05; stroke-width: 2"/>
    </g>
   </g>
   <g id="PolyCollection_5">
    <defs>
     <path id="mf8d45910a4" d="M 85.392273 -61.41054 
L 85.392273 -61.408779 
L 86.523515 -61.408779 
L 87.654758 -61.408779 
L 88.786 -61.408779 
L 89.917243 -61.408779 
L 91.048485 -61.408779 
L 92.179728 -61.408779 
L 93.31097 -61.408779 
L 94.442213 -61.408779 
L 95.573455 -61.408779 
L 96.704698 -61.408779 
L 97.83594 -61.408779 
L 98.967183 -61.408779 
L 100.098425 -61.408779 
L 101.229668 -61.408779 
L 102.36091 -61.408779 
L 103.492153 -61.408779 
L 104.623395 -61.408779 
L 105.754638 -61.408779 
L 106.88588 -61.408779 
L 108.017123 -61.408779 
L 109.148365 -61.408779 
L 110.279608 -61.408779 
L 111.41085 -61.408779 
L 112.542093 -61.408779 
L 113.673335 -61.408779 
L 114.804578 -61.408779 
L 115.93582 -61.408779 
L 117.067063 -61.408779 
L 118.198305 -61.408779 
L 119.329548 -61.408779 
L 120.46079 -61.408779 
L 121.592033 -61.408779 
L 122.723276 -61.408779 
L 123.854518 -61.408779 
L 124.985761 -61.408779 
L 126.117003 -61.408779 
L 127.248246 -61.408779 
L 128.379488 -61.408779 
L 129.510731 -61.408779 
L 130.641973 -61.408779 
L 131.773216 -61.408779 
L 132.904458 -61.408779 
L 134.035701 -61.408779 
L 135.166943 -61.408779 
L 136.298186 -61.408779 
L 137.429428 -61.408779 
L 138.560671 -61.408779 
L 139.691913 -61.408779 
L 140.823156 -61.408779 
L 141.954398 -61.408779 
L 143.085641 -61.408779 
L 144.216883 -61.408779 
L 145.348126 -61.408779 
L 146.479368 -61.408779 
L 147.610611 -61.408779 
L 148.741853 -61.408779 
L 149.873096 -61.408779 
L 151.004338 -61.408779 
L 152.135581 -61.408779 
L 153.266823 -61.408779 
L 154.398066 -61.408779 
L 155.529308 -61.408779 
L 156.660551 -61.408779 
L 157.791793 -61.408779 
L 158.923036 -61.408779 
L 160.054278 -61.408779 
L 161.185521 -61.408779 
L 162.316763 -61.408779 
L 163.448006 -61.408779 
L 164.579248 -61.408779 
L 165.710491 -61.408779 
L 166.841733 -61.408779 
L 167.972976 -61.408779 
L 169.104218 -61.408779 
L 170.235461 -61.408779 
L 171.366703 -61.408779 
L 172.497946 -61.408779 
L 173.629188 -61.408779 
L 174.760431 -61.408779 
L 175.891673 -61.408779 
L 177.022916 -61.408779 
L 178.154158 -61.408779 
L 179.285401 -61.408779 
L 180.416643 -61.408779 
L 181.547886 -61.408779 
L 182.679128 -61.408779 
L 183.810371 -61.408779 
L 184.941613 -61.408779 
L 186.072856 -61.408779 
L 187.204099 -61.408779 
L 188.335341 -61.408779 
L 189.466584 -61.408779 
L 190.597826 -61.408779 
L 191.729069 -61.408779 
L 192.860311 -61.408779 
L 193.991554 -61.408779 
L 195.122796 -61.408779 
L 196.254039 -61.408779 
L 197.385281 -61.408779 
L 198.516524 -61.408779 
L 199.647766 -61.408779 
L 200.779009 -61.408779 
L 201.910251 -61.408779 
L 203.041494 -61.408779 
L 204.172736 -61.408779 
L 205.303979 -61.408779 
L 206.435221 -61.408779 
L 207.566464 -61.408779 
L 208.697706 -61.408779 
L 209.828949 -61.408779 
L 210.960191 -61.408779 
L 212.091434 -61.408779 
L 213.222676 -61.408779 
L 214.353919 -61.408779 
L 215.485161 -61.408779 
L 216.616404 -61.408779 
L 217.747646 -61.408779 
L 218.878889 -61.408779 
L 220.010131 -61.408779 
L 221.141374 -61.408779 
L 222.272616 -61.408779 
L 223.403859 -61.408779 
L 224.535101 -61.408779 
L 225.666344 -61.408779 
L 226.797586 -61.408779 
L 227.928829 -61.408779 
L 229.060071 -61.408779 
L 230.191314 -61.408779 
L 231.322556 -61.408779 
L 232.453799 -61.408779 
L 233.585041 -61.408779 
L 234.716284 -61.408779 
L 235.847526 -61.408779 
L 236.978769 -61.408779 
L 238.110011 -61.408779 
L 239.241254 -61.408779 
L 240.372496 -61.408779 
L 241.503739 -61.408779 
L 242.634981 -61.408779 
L 243.766224 -61.408779 
L 244.897466 -61.408779 
L 246.028709 -61.408779 
L 247.159951 -61.408779 
L 248.291194 -61.408779 
L 249.422436 -61.408779 
L 250.553679 -61.408779 
L 251.684922 -61.408779 
L 252.816164 -61.408779 
L 253.947407 -61.408779 
L 255.078649 -61.408779 
L 256.209892 -61.408779 
L 257.341134 -61.408779 
L 258.472377 -61.408779 
L 259.603619 -61.408779 
L 260.734862 -61.408779 
L 261.866104 -61.408779 
L 262.997347 -61.408779 
L 264.128589 -61.408779 
L 265.259832 -61.408779 
L 266.391074 -61.408779 
L 267.522317 -61.408779 
L 268.653559 -61.408779 
L 269.784802 -61.408779 
L 270.916044 -61.408779 
L 272.047287 -61.408779 
L 273.178529 -61.408779 
L 274.309772 -61.408779 
L 275.441014 -61.408779 
L 276.572257 -61.408779 
L 277.703499 -61.408779 
L 278.834742 -61.408779 
L 279.965984 -61.408779 
L 281.097227 -61.408779 
L 282.228469 -61.408779 
L 283.359712 -61.408779 
L 284.490954 -61.408779 
L 285.622197 -61.408779 
L 286.753439 -61.408779 
L 287.884682 -61.408779 
L 289.015924 -61.408779 
L 290.147167 -61.408779 
L 291.278409 -61.408779 
L 292.409652 -61.408779 
L 293.540894 -61.408779 
L 294.672137 -61.408779 
L 295.803379 -61.408779 
L 296.934622 -61.408779 
L 298.065864 -61.408779 
L 299.197107 -61.408779 
L 300.328349 -61.408779 
L 301.459592 -61.408779 
L 302.590834 -61.408779 
L 303.722077 -61.408779 
L 304.853319 -61.408779 
L 305.984562 -61.408779 
L 307.115804 -61.408779 
L 308.247047 -61.408779 
L 309.378289 -61.408779 
L 310.509532 -61.408779 
L 310.509532 -61.426462 
L 310.509532 -61.426462 
L 309.378289 -61.44368 
L 308.247047 -61.475502 
L 307.115804 -61.532418 
L 305.984562 -61.630989 
L 304.853319 -61.796415 
L 303.722077 -62.065643 
L 302.590834 -62.490888 
L 301.459592 -63.143276 
L 300.328349 -64.116158 
L 299.197107 -65.527448 
L 298.065864 -67.5202 
L 296.934622 -70.260473 
L 295.803379 -73.931538 
L 294.672137 -78.723581 
L 293.540894 -84.818465 
L 292.409652 -92.369807 
L 291.278409 -101.479671 
L 290.147167 -112.17435 
L 289.015924 -124.382885 
L 287.884682 -137.922539 
L 286.753439 -152.49525 
L 285.622197 -167.697743 
L 284.490954 -183.045685 
L 283.359712 -198.00953 
L 282.228469 -212.057185 
L 281.097227 -224.697155 
L 279.965984 -235.515907 
L 278.834742 -244.204725 
L 277.703499 -250.57384 
L 276.572257 -254.554319 
L 275.441014 -256.19013 
L 274.309772 -255.623628 
L 273.178529 -253.077393 
L 272.047287 -248.834355 
L 270.916044 -243.217161 
L 269.784802 -236.567169 
L 268.653559 -229.22361 
L 267.522317 -221.503922 
L 266.391074 -213.686838 
L 265.259832 -205.999924 
L 264.128589 -198.612857 
L 262.997347 -191.636859 
L 261.866104 -185.129646 
L 260.734862 -179.104407 
L 259.603619 -173.540845 
L 258.472377 -168.396393 
L 257.341134 -163.616168 
L 256.209892 -159.140927 
L 255.078649 -154.912952 
L 253.947407 -150.880274 
L 252.816164 -146.99983 
L 251.684922 -143.239976 
L 250.553679 -139.582494 
L 249.422436 -136.023813 
L 248.291194 -132.57496 
L 247.159951 -129.259771 
L 246.028709 -126.111162 
L 244.897466 -123.165753 
L 243.766224 -120.457605 
L 242.634981 -118.012174 
L 241.503739 -115.84166 
L 240.372496 -113.942688 
L 239.241254 -112.296755 
L 238.110011 -110.873269 
L 236.978769 -109.634382 
L 235.847526 -108.540468 
L 234.716284 -107.554954 
L 233.585041 -106.647506 
L 232.453799 -105.79505 
L 231.322556 -104.980789 
L 230.191314 -104.191921 
L 229.060071 -103.417063 
L 227.928829 -102.644344 
L 226.797586 -101.860772 
L 225.666344 -101.052927 
L 224.535101 -100.208584 
L 223.403859 -99.318532 
L 222.272616 -98.377932 
L 221.141374 -97.386734 
L 220.010131 -96.349114 
L 218.878889 -95.272173 
L 217.747646 -94.164381 
L 216.616404 -93.034234 
L 215.485161 -91.889464 
L 214.353919 -90.736933 
L 213.222676 -89.583095 
L 212.091434 -88.434811 
L 210.960191 -87.300199 
L 209.828949 -86.189243 
L 208.697706 -85.113935 
L 207.566464 -84.087833 
L 206.435221 -83.125005 
L 205.303979 -82.238452 
L 204.172736 -81.438238 
L 203.041494 -80.729653 
L 201.910251 -80.111827 
L 200.779009 -79.577138 
L 199.647766 -79.111651 
L 198.516524 -78.696558 
L 197.385281 -78.310358 
L 196.254039 -77.931354 
L 195.122796 -77.540032 
L 193.991554 -77.120992 
L 192.860311 -76.664317 
L 191.729069 -76.166398 
L 190.597826 -75.630287 
L 189.466584 -75.065573 
L 188.335341 -74.487627 
L 187.204099 -73.91603 
L 186.072856 -73.372085 
L 184.941613 -72.875583 
L 183.810371 -72.441357 
L 182.679128 -72.076394 
L 181.547886 -71.778338 
L 180.416643 -71.535906 
L 179.285401 -71.331248 
L 178.154158 -71.143681 
L 177.022916 -70.95382 
L 175.891673 -70.746961 
L 174.760431 -70.514912 
L 173.629188 -70.255918 
L 172.497946 -69.973023 
L 171.366703 -69.671601 
L 170.235461 -69.357014 
L 169.104218 -69.033111 
L 167.972976 -68.701926 
L 166.841733 -68.364423 
L 165.710491 -68.02181 
L 164.579248 -67.676815 
L 163.448006 -67.334417 
L 162.316763 -67.001792 
L 161.185521 -66.687492 
L 160.054278 -66.400117 
L 158.923036 -66.146812 
L 157.791793 -65.931925 
L 156.660551 -65.756068 
L 155.529308 -65.61571 
L 154.398066 -65.503359 
L 153.266823 -65.408277 
L 152.135581 -65.317679 
L 151.004338 -65.218269 
L 149.873096 -65.097946 
L 148.741853 -64.94748 
L 147.610611 -64.761895 
L 146.479368 -64.541336 
L 145.348126 -64.291242 
L 144.216883 -64.021717 
L 143.085641 -63.746183 
L 141.954398 -63.479469 
L 140.823156 -63.235657 
L 139.691913 -63.026053 
L 138.560671 -62.857617 
L 137.429428 -62.732145 
L 136.298186 -62.646322 
L 135.166943 -62.592602 
L 134.035701 -62.56072 
L 132.904458 -62.539505 
L 131.773216 -62.518643 
L 130.641973 -62.490074 
L 129.510731 -62.448809 
L 128.379488 -62.393107 
L 127.248246 -62.324072 
L 126.117003 -62.244849 
L 124.985761 -62.159651 
L 123.854518 -62.072822 
L 122.723276 -61.988126 
L 121.592033 -61.908341 
L 120.46079 -61.835171 
L 119.329548 -61.769415 
L 118.198305 -61.711278 
L 117.067063 -61.660711 
L 115.93582 -61.617669 
L 114.804578 -61.582245 
L 113.673335 -61.554644 
L 112.542093 -61.535056 
L 111.41085 -61.523459 
L 110.279608 -61.519425 
L 109.148365 -61.521991 
L 108.017123 -61.52962 
L 106.88588 -61.540293 
L 105.754638 -61.551706 
L 104.623395 -61.561549 
L 103.492153 -61.567823 
L 102.36091 -61.569112 
L 101.229668 -61.564776 
L 100.098425 -61.554991 
L 98.967183 -61.540657 
L 97.83594 -61.523181 
L 96.704698 -61.504198 
L 95.573455 -61.485285 
L 94.442213 -61.467742 
L 93.31097 -61.452457 
L 92.179728 -61.439876 
L 91.048485 -61.430059 
L 89.917243 -61.422774 
L 88.786 -61.417626 
L 87.654758 -61.414153 
L 86.523515 -61.411917 
L 85.392273 -61.41054 
z
" style="stroke: #0173b2; stroke-width: 2"/>
    </defs>
    <g clip-path="url(#p63caab7266)">
     <use xlink:href="#mf8d45910a4" x="0" y="360" style="fill: #0173b2; fill-opacity: 0.2; stroke: #0173b2; stroke-width: 2"/>
    </g>
   </g>
   <g id="matplotlib.axis_1">
    <g id="xtick_1">
     <g id="line2d_1">
      <defs>
       <path id="m36be24710d" d="M 0 0 
L 0 3.5 
" style="stroke: #000000; stroke-width: 0.8"/>
      </defs>
      <g>
       <use xlink:href="#m36be24710d" x="107.710491" y="298.591221" style="stroke: #000000; stroke-width: 0.8"/>
      </g>
     </g>
     <g id="text_1">
      <!-- 11000 -->
      <g transform="translate(98.414246 333.458962) rotate(-45) scale(0.1 -0.1)">
       <defs>
        <path id="DejaVuSerif-31" d="M 909 0 
L 909 331 
L 1722 331 
L 1722 4213 
L 781 3603 
L 781 4013 
L 1919 4750 
L 2350 4750 
L 2350 331 
L 3163 331 
L 3163 0 
L 909 0 
z
" transform="scale(0.015625)"/>
        <path id="DejaVuSerif-30" d="M 2034 219 
Q 2513 219 2750 744 
Q 2988 1269 2988 2328 
Q 2988 3391 2750 3916 
Q 2513 4441 2034 4441 
Q 1556 4441 1318 3916 
Q 1081 3391 1081 2328 
Q 1081 1269 1318 744 
Q 1556 219 2034 219 
z
M 2034 -91 
Q 1275 -91 848 546 
Q 422 1184 422 2328 
Q 422 3475 848 4112 
Q 1275 4750 2034 4750 
Q 2797 4750 3222 4112 
Q 3647 3475 3647 2328 
Q 3647 1184 3222 546 
Q 2797 -91 2034 -91 
z
" transform="scale(0.015625)"/>
       </defs>
       <use xlink:href="#DejaVuSerif-31"/>
       <use xlink:href="#DejaVuSerif-31" x="63.623047"/>
       <use xlink:href="#DejaVuSerif-30" x="127.246094"/>
       <use xlink:href="#DejaVuSerif-30" x="190.869141"/>
       <use xlink:href="#DejaVuSerif-30" x="254.492188"/>
      </g>
     </g>
    </g>
    <g id="xtick_2">
     <g id="line2d_2">
      <g>
       <use xlink:href="#m36be24710d" x="144.127122" y="298.591221" style="stroke: #000000; stroke-width: 0.8"/>
      </g>
     </g>
     <g id="text_2">
      <!-- 12000 -->
      <g transform="translate(134.830877 333.458962) rotate(-45) scale(0.1 -0.1)">
       <defs>
        <path id="DejaVuSerif-32" d="M 819 3553 
L 469 3553 
L 469 4384 
Q 803 4563 1142 4656 
Q 1481 4750 1806 4750 
Q 2534 4750 2956 4397 
Q 3378 4044 3378 3438 
Q 3378 2753 2422 1800 
Q 2347 1728 2309 1691 
L 1131 513 
L 3078 513 
L 3078 1088 
L 3444 1088 
L 3444 0 
L 434 0 
L 434 341 
L 1850 1753 
Q 2319 2222 2519 2614 
Q 2719 3006 2719 3438 
Q 2719 3909 2473 4175 
Q 2228 4441 1797 4441 
Q 1350 4441 1106 4219 
Q 863 3997 819 3553 
z
" transform="scale(0.015625)"/>
       </defs>
       <use xlink:href="#DejaVuSerif-31"/>
       <use xlink:href="#DejaVuSerif-32" x="63.623047"/>
       <use xlink:href="#DejaVuSerif-30" x="127.246094"/>
       <use xlink:href="#DejaVuSerif-30" x="190.869141"/>
       <use xlink:href="#DejaVuSerif-30" x="254.492188"/>
      </g>
     </g>
    </g>
    <g id="xtick_3">
     <g id="line2d_3">
      <g>
       <use xlink:href="#m36be24710d" x="180.543753" y="298.591221" style="stroke: #000000; stroke-width: 0.8"/>
      </g>
     </g>
     <g id="text_3">
      <!-- 13000 -->
      <g transform="translate(171.247508 333.458962) rotate(-45) scale(0.1 -0.1)">
       <defs>
        <path id="DejaVuSerif-33" d="M 622 4469 
Q 988 4606 1323 4678 
Q 1659 4750 1953 4750 
Q 2638 4750 3022 4454 
Q 3406 4159 3406 3634 
Q 3406 3213 3140 2930 
Q 2875 2647 2388 2547 
Q 2963 2466 3280 2130 
Q 3597 1794 3597 1259 
Q 3597 606 3158 257 
Q 2719 -91 1894 -91 
Q 1528 -91 1179 -12 
Q 831 66 488 225 
L 488 1131 
L 838 1131 
Q 869 681 1141 450 
Q 1413 219 1906 219 
Q 2384 219 2661 495 
Q 2938 772 2938 1253 
Q 2938 1803 2653 2086 
Q 2369 2369 1819 2369 
L 1522 2369 
L 1522 2688 
L 1678 2688 
Q 2225 2688 2498 2914 
Q 2772 3141 2772 3597 
Q 2772 4006 2547 4223 
Q 2322 4441 1900 4441 
Q 1478 4441 1245 4241 
Q 1013 4041 972 3647 
L 622 3647 
L 622 4469 
z
" transform="scale(0.015625)"/>
       </defs>
       <use xlink:href="#DejaVuSerif-31"/>
       <use xlink:href="#DejaVuSerif-33" x="63.623047"/>
       <use xlink:href="#DejaVuSerif-30" x="127.246094"/>
       <use xlink:href="#DejaVuSerif-30" x="190.869141"/>
       <use xlink:href="#DejaVuSerif-30" x="254.492188"/>
      </g>
     </g>
    </g>
    <g id="xtick_4">
     <g id="line2d_4">
      <g>
       <use xlink:href="#m36be24710d" x="216.960384" y="298.591221" style="stroke: #000000; stroke-width: 0.8"/>
      </g>
     </g>
     <g id="text_4">
      <!-- 14000 -->
      <g transform="translate(207.664139 333.458962) rotate(-45) scale(0.1 -0.1)">
       <defs>
        <path id="DejaVuSerif-34" d="M 2234 1581 
L 2234 4063 
L 641 1581 
L 2234 1581 
z
M 3609 0 
L 1484 0 
L 1484 331 
L 2234 331 
L 2234 1247 
L 197 1247 
L 197 1588 
L 2241 4750 
L 2859 4750 
L 2859 1581 
L 3750 1581 
L 3750 1247 
L 2859 1247 
L 2859 331 
L 3609 331 
L 3609 0 
z
" transform="scale(0.015625)"/>
       </defs>
       <use xlink:href="#DejaVuSerif-31"/>
       <use xlink:href="#DejaVuSerif-34" x="63.623047"/>
       <use xlink:href="#DejaVuSerif-30" x="127.246094"/>
       <use xlink:href="#DejaVuSerif-30" x="190.869141"/>
       <use xlink:href="#DejaVuSerif-30" x="254.492188"/>
      </g>
     </g>
    </g>
    <g id="xtick_5">
     <g id="line2d_5">
      <g>
       <use xlink:href="#m36be24710d" x="253.377015" y="298.591221" style="stroke: #000000; stroke-width: 0.8"/>
      </g>
     </g>
     <g id="text_5">
      <!-- 15000 -->
      <g transform="translate(244.08077 333.458962) rotate(-45) scale(0.1 -0.1)">
       <defs>
        <path id="DejaVuSerif-35" d="M 3219 4666 
L 3219 4153 
L 1081 4153 
L 1081 2816 
Q 1244 2928 1461 2984 
Q 1678 3041 1947 3041 
Q 2703 3041 3140 2622 
Q 3578 2203 3578 1478 
Q 3578 738 3136 323 
Q 2694 -91 1894 -91 
Q 1572 -91 1234 -12 
Q 897 66 544 225 
L 544 1131 
L 897 1131 
Q 925 688 1179 453 
Q 1434 219 1894 219 
Q 2388 219 2653 544 
Q 2919 869 2919 1478 
Q 2919 2084 2655 2407 
Q 2391 2731 1894 2731 
Q 1613 2731 1398 2631 
Q 1184 2531 1019 2322 
L 750 2322 
L 750 4666 
L 3219 4666 
z
" transform="scale(0.015625)"/>
       </defs>
       <use xlink:href="#DejaVuSerif-31"/>
       <use xlink:href="#DejaVuSerif-35" x="63.623047"/>
       <use xlink:href="#DejaVuSerif-30" x="127.246094"/>
       <use xlink:href="#DejaVuSerif-30" x="190.869141"/>
       <use xlink:href="#DejaVuSerif-30" x="254.492188"/>
      </g>
     </g>
    </g>
    <g id="xtick_6">
     <g id="line2d_6">
      <g>
       <use xlink:href="#m36be24710d" x="289.793646" y="298.591221" style="stroke: #000000; stroke-width: 0.8"/>
      </g>
     </g>
     <g id="text_6">
      <!-- 16000 -->
      <g transform="translate(280.497401 333.458962) rotate(-45) scale(0.1 -0.1)">
       <defs>
        <path id="DejaVuSerif-36" d="M 2094 219 
Q 2534 219 2771 542 
Q 3009 866 3009 1472 
Q 3009 2078 2771 2401 
Q 2534 2725 2094 2725 
Q 1647 2725 1412 2412 
Q 1178 2100 1178 1509 
Q 1178 888 1415 553 
Q 1653 219 2094 219 
z
M 1075 2569 
Q 1288 2803 1556 2918 
Q 1825 3034 2163 3034 
Q 2859 3034 3264 2615 
Q 3669 2197 3669 1472 
Q 3669 763 3233 336 
Q 2797 -91 2069 -91 
Q 1278 -91 853 498 
Q 428 1088 428 2181 
Q 428 3406 931 4078 
Q 1434 4750 2350 4750 
Q 2597 4750 2869 4703 
Q 3141 4656 3425 4563 
L 3425 3794 
L 3072 3794 
Q 3034 4109 2831 4275 
Q 2628 4441 2284 4441 
Q 1678 4441 1381 3981 
Q 1084 3522 1075 2569 
z
" transform="scale(0.015625)"/>
       </defs>
       <use xlink:href="#DejaVuSerif-31"/>
       <use xlink:href="#DejaVuSerif-36" x="63.623047"/>
       <use xlink:href="#DejaVuSerif-30" x="127.246094"/>
       <use xlink:href="#DejaVuSerif-30" x="190.869141"/>
       <use xlink:href="#DejaVuSerif-30" x="254.492188"/>
      </g>
     </g>
    </g>
    <g id="xtick_7">
     <g id="line2d_7">
      <g>
       <use xlink:href="#m36be24710d" x="326.210277" y="298.591221" style="stroke: #000000; stroke-width: 0.8"/>
      </g>
     </g>
     <g id="text_7">
      <!-- 17000 -->
      <g transform="translate(316.914032 333.458962) rotate(-45) scale(0.1 -0.1)">
       <defs>
        <path id="DejaVuSerif-37" d="M 3609 4347 
L 1784 0 
L 1319 0 
L 3059 4153 
L 903 4153 
L 903 3578 
L 538 3578 
L 538 4666 
L 3609 4666 
L 3609 4347 
z
" transform="scale(0.015625)"/>
       </defs>
       <use xlink:href="#DejaVuSerif-31"/>
       <use xlink:href="#DejaVuSerif-37" x="63.623047"/>
       <use xlink:href="#DejaVuSerif-30" x="127.246094"/>
       <use xlink:href="#DejaVuSerif-30" x="190.869141"/>
       <use xlink:href="#DejaVuSerif-30" x="254.492188"/>
      </g>
     </g>
    </g>
    <g id="text_8">
     <!-- Number of zeroes per cell -->
     <g transform="translate(144.884531 346.527961) scale(0.1 -0.1)">
      <defs>
       <path id="DejaVuSerif-4e" d="M 313 0 
L 313 331 
L 941 331 
L 941 4331 
L 313 4331 
L 313 4666 
L 1509 4666 
L 4306 984 
L 4306 4331 
L 3681 4331 
L 3681 4666 
L 5319 4666 
L 5319 4331 
L 4691 4331 
L 4691 -91 
L 4313 -91 
L 1325 3841 
L 1325 331 
L 1953 331 
L 1953 0 
L 313 0 
z
" transform="scale(0.015625)"/>
       <path id="DejaVuSerif-75" d="M 2266 3322 
L 3341 3322 
L 3341 331 
L 3884 331 
L 3884 0 
L 2766 0 
L 2766 588 
Q 2606 256 2353 82 
Q 2100 -91 1766 -91 
Q 1213 -91 952 223 
Q 691 538 691 1209 
L 691 2988 
L 172 2988 
L 172 3322 
L 1269 3322 
L 1269 1388 
Q 1269 781 1417 556 
Q 1566 331 1947 331 
Q 2347 331 2556 625 
Q 2766 919 2766 1478 
L 2766 2988 
L 2266 2988 
L 2266 3322 
z
" transform="scale(0.015625)"/>
       <path id="DejaVuSerif-6d" d="M 3316 2675 
Q 3481 3041 3739 3227 
Q 3997 3413 4341 3413 
Q 4863 3413 5119 3089 
Q 5375 2766 5375 2113 
L 5375 331 
L 5894 331 
L 5894 0 
L 4300 0 
L 4300 331 
L 4800 331 
L 4800 2047 
Q 4800 2556 4650 2772 
Q 4500 2988 4153 2988 
Q 3769 2988 3567 2697 
Q 3366 2406 3366 1850 
L 3366 331 
L 3866 331 
L 3866 0 
L 2291 0 
L 2291 331 
L 2791 331 
L 2791 2069 
Q 2791 2566 2641 2777 
Q 2491 2988 2144 2988 
Q 1759 2988 1557 2697 
Q 1356 2406 1356 1850 
L 1356 331 
L 1856 331 
L 1856 0 
L 263 0 
L 263 331 
L 781 331 
L 781 2994 
L 231 2994 
L 231 3322 
L 1356 3322 
L 1356 2731 
Q 1516 3063 1762 3238 
Q 2009 3413 2322 3413 
Q 2709 3413 2968 3220 
Q 3228 3028 3316 2675 
z
" transform="scale(0.015625)"/>
       <path id="DejaVuSerif-62" d="M 738 331 
L 738 4531 
L 184 4531 
L 184 4863 
L 1313 4863 
L 1313 2803 
Q 1481 3116 1742 3264 
Q 2003 3413 2388 3413 
Q 3000 3413 3387 2928 
Q 3775 2444 3775 1663 
Q 3775 881 3387 395 
Q 3000 -91 2388 -91 
Q 2003 -91 1742 57 
Q 1481 206 1313 519 
L 1313 0 
L 184 0 
L 184 331 
L 738 331 
z
M 1313 1497 
Q 1313 897 1542 583 
Q 1772 269 2209 269 
Q 2650 269 2876 622 
Q 3103 975 3103 1663 
Q 3103 2353 2876 2703 
Q 2650 3053 2209 3053 
Q 1772 3053 1542 2737 
Q 1313 2422 1313 1825 
L 1313 1497 
z
" transform="scale(0.015625)"/>
       <path id="DejaVuSerif-65" d="M 3469 1600 
L 991 1600 
L 991 1575 
Q 991 903 1244 561 
Q 1497 219 1991 219 
Q 2369 219 2611 417 
Q 2853 616 2950 1006 
L 3413 1006 
Q 3275 459 2904 184 
Q 2534 -91 1931 -91 
Q 1203 -91 761 389 
Q 319 869 319 1663 
Q 319 2450 753 2931 
Q 1188 3413 1894 3413 
Q 2647 3413 3050 2948 
Q 3453 2484 3469 1600 
z
M 2791 1931 
Q 2772 2513 2545 2808 
Q 2319 3103 1894 3103 
Q 1497 3103 1269 2806 
Q 1041 2509 991 1931 
L 2791 1931 
z
" transform="scale(0.015625)"/>
       <path id="DejaVuSerif-72" d="M 3059 3328 
L 3059 2497 
L 2728 2497 
Q 2713 2744 2591 2866 
Q 2469 2988 2234 2988 
Q 1809 2988 1582 2694 
Q 1356 2400 1356 1850 
L 1356 331 
L 2022 331 
L 2022 0 
L 263 0 
L 263 331 
L 781 331 
L 781 2994 
L 231 2994 
L 231 3322 
L 1356 3322 
L 1356 2731 
Q 1525 3078 1790 3245 
Q 2056 3413 2438 3413 
Q 2578 3413 2733 3391 
Q 2888 3369 3059 3328 
z
" transform="scale(0.015625)"/>
       <path id="DejaVuSerif-20" transform="scale(0.015625)"/>
       <path id="DejaVuSerif-6f" d="M 1925 219 
Q 2388 219 2623 584 
Q 2859 950 2859 1663 
Q 2859 2375 2623 2739 
Q 2388 3103 1925 3103 
Q 1463 3103 1227 2739 
Q 991 2375 991 1663 
Q 991 950 1228 584 
Q 1466 219 1925 219 
z
M 1925 -91 
Q 1200 -91 759 389 
Q 319 869 319 1663 
Q 319 2456 758 2934 
Q 1197 3413 1925 3413 
Q 2653 3413 3092 2934 
Q 3531 2456 3531 1663 
Q 3531 869 3092 389 
Q 2653 -91 1925 -91 
z
" transform="scale(0.015625)"/>
       <path id="DejaVuSerif-66" d="M 2753 4078 
L 2450 4078 
Q 2447 4313 2317 4434 
Q 2188 4556 1941 4556 
Q 1619 4556 1487 4379 
Q 1356 4203 1356 3750 
L 1356 3322 
L 2284 3322 
L 2284 2988 
L 1356 2988 
L 1356 331 
L 2094 331 
L 2094 0 
L 231 0 
L 231 331 
L 781 331 
L 781 2988 
L 231 2988 
L 231 3322 
L 781 3322 
L 781 3738 
Q 781 4294 1070 4578 
Q 1359 4863 1919 4863 
Q 2128 4863 2337 4825 
Q 2547 4788 2753 4709 
L 2753 4078 
z
" transform="scale(0.015625)"/>
       <path id="DejaVuSerif-7a" d="M 256 0 
L 256 269 
L 2338 2988 
L 691 2988 
L 691 2413 
L 359 2413 
L 359 3322 
L 3078 3322 
L 3078 3053 
L 997 331 
L 2803 331 
L 2803 934 
L 3138 934 
L 3138 0 
L 256 0 
z
" transform="scale(0.015625)"/>
       <path id="DejaVuSerif-73" d="M 359 184 
L 359 959 
L 691 959 
Q 703 588 923 403 
Q 1144 219 1575 219 
Q 1963 219 2166 364 
Q 2369 509 2369 788 
Q 2369 1006 2220 1140 
Q 2072 1275 1594 1428 
L 1178 1569 
Q 750 1706 558 1912 
Q 366 2119 366 2438 
Q 366 2894 700 3153 
Q 1034 3413 1625 3413 
Q 1888 3413 2178 3344 
Q 2469 3275 2778 3144 
L 2778 2419 
L 2447 2419 
Q 2434 2741 2221 2922 
Q 2009 3103 1644 3103 
Q 1281 3103 1095 2975 
Q 909 2847 909 2591 
Q 909 2381 1050 2254 
Q 1191 2128 1613 1997 
L 2069 1856 
Q 2541 1709 2748 1489 
Q 2956 1269 2956 922 
Q 2956 450 2595 179 
Q 2234 -91 1600 -91 
Q 1278 -91 972 -22 
Q 666 47 359 184 
z
" transform="scale(0.015625)"/>
       <path id="DejaVuSerif-70" d="M 1313 1825 
L 1313 1497 
Q 1313 897 1542 583 
Q 1772 269 2209 269 
Q 2650 269 2876 622 
Q 3103 975 3103 1663 
Q 3103 2353 2876 2703 
Q 2650 3053 2209 3053 
Q 1772 3053 1542 2737 
Q 1313 2422 1313 1825 
z
M 738 2988 
L 184 2988 
L 184 3322 
L 1313 3322 
L 1313 2803 
Q 1481 3116 1742 3264 
Q 2003 3413 2388 3413 
Q 3000 3413 3387 2928 
Q 3775 2444 3775 1663 
Q 3775 881 3387 395 
Q 3000 -91 2388 -91 
Q 2003 -91 1742 57 
Q 1481 206 1313 519 
L 1313 -997 
L 1856 -997 
L 1856 -1331 
L 184 -1331 
L 184 -997 
L 738 -997 
L 738 2988 
z
" transform="scale(0.015625)"/>
       <path id="DejaVuSerif-63" d="M 3291 997 
Q 3169 466 2822 187 
Q 2475 -91 1925 -91 
Q 1200 -91 759 389 
Q 319 869 319 1663 
Q 319 2459 759 2936 
Q 1200 3413 1925 3413 
Q 2241 3413 2553 3339 
Q 2866 3266 3181 3116 
L 3181 2266 
L 2847 2266 
Q 2781 2703 2561 2903 
Q 2341 3103 1931 3103 
Q 1466 3103 1228 2742 
Q 991 2381 991 1663 
Q 991 944 1227 581 
Q 1463 219 1931 219 
Q 2303 219 2525 412 
Q 2747 606 2828 997 
L 3291 997 
z
" transform="scale(0.015625)"/>
       <path id="DejaVuSerif-6c" d="M 1313 331 
L 1856 331 
L 1856 0 
L 184 0 
L 184 331 
L 738 331 
L 738 4531 
L 184 4531 
L 184 4863 
L 1313 4863 
L 1313 331 
z
" transform="scale(0.015625)"/>
      </defs>
      <use xlink:href="#DejaVuSerif-4e"/>
      <use xlink:href="#DejaVuSerif-75" x="87.5"/>
      <use xlink:href="#DejaVuSerif-6d" x="151.904297"/>
      <use xlink:href="#DejaVuSerif-62" x="246.728516"/>
      <use xlink:href="#DejaVuSerif-65" x="310.742188"/>
      <use xlink:href="#DejaVuSerif-72" x="369.921875"/>
      <use xlink:href="#DejaVuSerif-20" x="417.724609"/>
      <use xlink:href="#DejaVuSerif-6f" x="449.511719"/>
      <use xlink:href="#DejaVuSerif-66" x="509.716797"/>
      <use xlink:href="#DejaVuSerif-20" x="546.728516"/>
      <use xlink:href="#DejaVuSerif-7a" x="578.515625"/>
      <use xlink:href="#DejaVuSerif-65" x="631.201172"/>
      <use xlink:href="#DejaVuSerif-72" x="690.380859"/>
      <use xlink:href="#DejaVuSerif-6f" x="738.183594"/>
      <use xlink:href="#DejaVuSerif-65" x="798.388672"/>
      <use xlink:href="#DejaVuSerif-73" x="857.568359"/>
      <use xlink:href="#DejaVuSerif-20" x="908.886719"/>
      <use xlink:href="#DejaVuSerif-70" x="940.673828"/>
      <use xlink:href="#DejaVuSerif-65" x="1004.6875"/>
      <use xlink:href="#DejaVuSerif-72" x="1063.867188"/>
      <use xlink:href="#DejaVuSerif-20" x="1111.669922"/>
      <use xlink:href="#DejaVuSerif-63" x="1143.457031"/>
      <use xlink:href="#DejaVuSerif-65" x="1199.462891"/>
      <use xlink:href="#DejaVuSerif-6c" x="1258.642578"/>
      <use xlink:href="#DejaVuSerif-6c" x="1290.625"/>
     </g>
    </g>
   </g>
   <g id="matplotlib.axis_2">
    <g id="ytick_1">
     <g id="line2d_8">
      <defs>
       <path id="mc05092bec4" d="M 0 0 
L -3.5 0 
" style="stroke: #000000; stroke-width: 0.8"/>
      </defs>
      <g>
       <use xlink:href="#mc05092bec4" x="72.83" y="298.591221" style="stroke: #000000; stroke-width: 0.8"/>
      </g>
     </g>
     <g id="text_9">
      <!-- 0.00000 -->
      <g transform="translate(24.476875 302.39044) scale(0.1 -0.1)">
       <defs>
        <path id="DejaVuSerif-2e" d="M 603 325 
Q 603 500 722 622 
Q 841 744 1019 744 
Q 1191 744 1312 622 
Q 1434 500 1434 325 
Q 1434 153 1312 31 
Q 1191 -91 1019 -91 
Q 841 -91 722 29 
Q 603 150 603 325 
z
" transform="scale(0.015625)"/>
       </defs>
       <use xlink:href="#DejaVuSerif-30"/>
       <use xlink:href="#DejaVuSerif-2e" x="63.623047"/>
       <use xlink:href="#DejaVuSerif-30" x="95.410156"/>
       <use xlink:href="#DejaVuSerif-30" x="159.033203"/>
       <use xlink:href="#DejaVuSerif-30" x="222.65625"/>
       <use xlink:href="#DejaVuSerif-30" x="286.279297"/>
       <use xlink:href="#DejaVuSerif-30" x="349.902344"/>
      </g>
     </g>
    </g>
    <g id="ytick_2">
     <g id="line2d_9">
      <g>
       <use xlink:href="#mc05092bec4" x="72.83" y="242.822067" style="stroke: #000000; stroke-width: 0.8"/>
      </g>
     </g>
     <g id="text_10">
      <!-- 0.00005 -->
      <g transform="translate(24.476875 246.621286) scale(0.1 -0.1)">
       <use xlink:href="#DejaVuSerif-30"/>
       <use xlink:href="#DejaVuSerif-2e" x="63.623047"/>
       <use xlink:href="#DejaVuSerif-30" x="95.410156"/>
       <use xlink:href="#DejaVuSerif-30" x="159.033203"/>
       <use xlink:href="#DejaVuSerif-30" x="222.65625"/>
       <use xlink:href="#DejaVuSerif-30" x="286.279297"/>
       <use xlink:href="#DejaVuSerif-35" x="349.902344"/>
      </g>
     </g>
    </g>
    <g id="ytick_3">
     <g id="line2d_10">
      <g>
       <use xlink:href="#mc05092bec4" x="72.83" y="187.052913" style="stroke: #000000; stroke-width: 0.8"/>
      </g>
     </g>
     <g id="text_11">
      <!-- 0.00010 -->
      <g transform="translate(24.476875 190.852132) scale(0.1 -0.1)">
       <use xlink:href="#DejaVuSerif-30"/>
       <use xlink:href="#DejaVuSerif-2e" x="63.623047"/>
       <use xlink:href="#DejaVuSerif-30" x="95.410156"/>
       <use xlink:href="#DejaVuSerif-30" x="159.033203"/>
       <use xlink:href="#DejaVuSerif-30" x="222.65625"/>
       <use xlink:href="#DejaVuSerif-31" x="286.279297"/>
       <use xlink:href="#DejaVuSerif-30" x="349.902344"/>
      </g>
     </g>
    </g>
    <g id="ytick_4">
     <g id="line2d_11">
      <g>
       <use xlink:href="#mc05092bec4" x="72.83" y="131.283759" style="stroke: #000000; stroke-width: 0.8"/>
      </g>
     </g>
     <g id="text_12">
      <!-- 0.00015 -->
      <g transform="translate(24.476875 135.082978) scale(0.1 -0.1)">
       <use xlink:href="#DejaVuSerif-30"/>
       <use xlink:href="#DejaVuSerif-2e" x="63.623047"/>
       <use xlink:href="#DejaVuSerif-30" x="95.410156"/>
       <use xlink:href="#DejaVuSerif-30" x="159.033203"/>
       <use xlink:href="#DejaVuSerif-30" x="222.65625"/>
       <use xlink:href="#DejaVuSerif-31" x="286.279297"/>
       <use xlink:href="#DejaVuSerif-35" x="349.902344"/>
      </g>
     </g>
    </g>
    <g id="ytick_5">
     <g id="line2d_12">
      <g>
       <use xlink:href="#mc05092bec4" x="72.83" y="75.514605" style="stroke: #000000; stroke-width: 0.8"/>
      </g>
     </g>
     <g id="text_13">
      <!-- 0.00020 -->
      <g transform="translate(24.476875 79.313823) scale(0.1 -0.1)">
       <use xlink:href="#DejaVuSerif-30"/>
       <use xlink:href="#DejaVuSerif-2e" x="63.623047"/>
       <use xlink:href="#DejaVuSerif-30" x="95.410156"/>
       <use xlink:href="#DejaVuSerif-30" x="159.033203"/>
       <use xlink:href="#DejaVuSerif-30" x="222.65625"/>
       <use xlink:href="#DejaVuSerif-32" x="286.279297"/>
       <use xlink:href="#DejaVuSerif-30" x="349.902344"/>
      </g>
     </g>
    </g>
    <g id="text_14">
     <!-- Frequency -->
     <g transform="translate(18.255 189.420142) rotate(-90) scale(0.1 -0.1)">
      <defs>
       <path id="DejaVuSerif-46" d="M 353 0 
L 353 331 
L 947 331 
L 947 4331 
L 353 4331 
L 353 4666 
L 4172 4666 
L 4172 3628 
L 3788 3628 
L 3788 4281 
L 1581 4281 
L 1581 2719 
L 3175 2719 
L 3175 3303 
L 3559 3303 
L 3559 1753 
L 3175 1753 
L 3175 2338 
L 1581 2338 
L 1581 331 
L 2328 331 
L 2328 0 
L 353 0 
z
" transform="scale(0.015625)"/>
       <path id="DejaVuSerif-71" d="M 3359 2988 
L 3359 -997 
L 3909 -997 
L 3909 -1331 
L 2241 -1331 
L 2241 -997 
L 2784 -997 
L 2784 519 
Q 2616 206 2355 57 
Q 2094 -91 1709 -91 
Q 1097 -91 708 395 
Q 319 881 319 1663 
Q 319 2444 706 2928 
Q 1094 3413 1709 3413 
Q 2094 3413 2355 3264 
Q 2616 3116 2784 2803 
L 2784 3322 
L 3909 3322 
L 3909 2988 
L 3359 2988 
z
M 2784 1825 
Q 2784 2422 2554 2737 
Q 2325 3053 1888 3053 
Q 1444 3053 1217 2703 
Q 991 2353 991 1663 
Q 991 975 1217 622 
Q 1444 269 1888 269 
Q 2325 269 2554 583 
Q 2784 897 2784 1497 
L 2784 1825 
z
" transform="scale(0.015625)"/>
       <path id="DejaVuSerif-6e" d="M 263 0 
L 263 331 
L 781 331 
L 781 2988 
L 231 2988 
L 231 3322 
L 1356 3322 
L 1356 2731 
Q 1516 3069 1770 3241 
Q 2025 3413 2363 3413 
Q 2913 3413 3172 3097 
Q 3431 2781 3431 2113 
L 3431 331 
L 3944 331 
L 3944 0 
L 2356 0 
L 2356 331 
L 2853 331 
L 2853 1931 
Q 2853 2541 2703 2767 
Q 2553 2994 2175 2994 
Q 1775 2994 1565 2701 
Q 1356 2409 1356 1850 
L 1356 331 
L 1856 331 
L 1856 0 
L 263 0 
z
" transform="scale(0.015625)"/>
       <path id="DejaVuSerif-79" d="M 1381 -609 
L 1600 -56 
L 359 2988 
L -19 2988 
L -19 3322 
L 1509 3322 
L 1509 2988 
L 978 2988 
L 1913 703 
L 2847 2988 
L 2350 2988 
L 2350 3322 
L 3597 3322 
L 3597 2988 
L 3225 2988 
L 1703 -750 
Q 1547 -1138 1356 -1280 
Q 1166 -1422 819 -1422 
Q 672 -1422 517 -1397 
Q 363 -1372 206 -1325 
L 206 -691 
L 500 -691 
Q 519 -903 608 -995 
Q 697 -1088 884 -1088 
Q 1056 -1088 1161 -992 
Q 1266 -897 1381 -609 
z
" transform="scale(0.015625)"/>
      </defs>
      <use xlink:href="#DejaVuSerif-46"/>
      <use xlink:href="#DejaVuSerif-72" x="69.384766"/>
      <use xlink:href="#DejaVuSerif-65" x="117.1875"/>
      <use xlink:href="#DejaVuSerif-71" x="176.367188"/>
      <use xlink:href="#DejaVuSerif-75" x="240.380859"/>
      <use xlink:href="#DejaVuSerif-65" x="304.785156"/>
      <use xlink:href="#DejaVuSerif-6e" x="363.964844"/>
      <use xlink:href="#DejaVuSerif-63" x="428.369141"/>
      <use xlink:href="#DejaVuSerif-79" x="484.375"/>
     </g>
    </g>
   </g>
   <g id="patch_3">
    <path d="M 72.83 298.591221 
L 72.83 26.16 
" style="fill: none; stroke: #000000; stroke-width: 0.8; stroke-linejoin: miter; stroke-linecap: square"/>
   </g>
   <g id="patch_4">
    <path d="M 349.2 298.591221 
L 349.2 26.16 
" style="fill: none; stroke: #000000; stroke-width: 0.8; stroke-linejoin: miter; stroke-linecap: square"/>
   </g>
   <g id="patch_5">
    <path d="M 72.83 298.591221 
L 349.2 298.591221 
" style="fill: none; stroke: #000000; stroke-width: 0.8; stroke-linejoin: miter; stroke-linecap: square"/>
   </g>
   <g id="patch_6">
    <path d="M 72.83 26.16 
L 349.2 26.16 
" style="fill: none; stroke: #000000; stroke-width: 0.8; stroke-linejoin: miter; stroke-linecap: square"/>
   </g>
   <g id="text_15">
    <!-- Dentate gyrus -->
    <g transform="translate(167.889062 20.16) scale(0.12 -0.12)">
     <defs>
      <path id="DejaVuSerif-44" d="M 1581 331 
L 2163 331 
Q 3072 331 3558 850 
Q 4044 1369 4044 2338 
Q 4044 3306 3559 3818 
Q 3075 4331 2163 4331 
L 1581 4331 
L 1581 331 
z
M 353 0 
L 353 331 
L 947 331 
L 947 4331 
L 353 4331 
L 353 4666 
L 2209 4666 
Q 3416 4666 4089 4050 
Q 4763 3434 4763 2338 
Q 4763 1238 4088 619 
Q 3413 0 2209 0 
L 353 0 
z
" transform="scale(0.015625)"/>
      <path id="DejaVuSerif-74" d="M 691 2988 
L 184 2988 
L 184 3322 
L 691 3322 
L 691 4353 
L 1269 4353 
L 1269 3322 
L 2350 3322 
L 2350 2988 
L 1269 2988 
L 1269 878 
Q 1269 456 1350 337 
Q 1431 219 1650 219 
Q 1875 219 1978 351 
Q 2081 484 2088 781 
L 2522 781 
Q 2497 328 2275 118 
Q 2053 -91 1600 -91 
Q 1103 -91 897 129 
Q 691 350 691 878 
L 691 2988 
z
" transform="scale(0.015625)"/>
      <path id="DejaVuSerif-61" d="M 2547 1044 
L 2547 1747 
L 1806 1747 
Q 1378 1747 1168 1562 
Q 959 1378 959 997 
Q 959 650 1171 447 
Q 1384 244 1747 244 
Q 2106 244 2326 466 
Q 2547 688 2547 1044 
z
M 3122 2075 
L 3122 331 
L 3634 331 
L 3634 0 
L 2547 0 
L 2547 359 
Q 2356 128 2106 18 
Q 1856 -91 1522 -91 
Q 969 -91 644 203 
Q 319 497 319 997 
Q 319 1513 691 1797 
Q 1063 2081 1741 2081 
L 2547 2081 
L 2547 2309 
Q 2547 2688 2317 2895 
Q 2088 3103 1672 3103 
Q 1328 3103 1125 2947 
Q 922 2791 872 2484 
L 575 2484 
L 575 3156 
Q 875 3284 1158 3348 
Q 1441 3413 1709 3413 
Q 2400 3413 2761 3070 
Q 3122 2728 3122 2075 
z
" transform="scale(0.015625)"/>
      <path id="DejaVuSerif-67" d="M 3359 2988 
L 3359 72 
Q 3359 -644 2965 -1033 
Q 2572 -1422 1844 -1422 
Q 1516 -1422 1216 -1362 
Q 916 -1303 641 -1184 
L 641 -488 
L 941 -488 
Q 997 -813 1206 -963 
Q 1416 -1113 1806 -1113 
Q 2313 -1113 2548 -827 
Q 2784 -541 2784 72 
L 2784 519 
Q 2616 206 2355 57 
Q 2094 -91 1709 -91 
Q 1097 -91 708 395 
Q 319 881 319 1663 
Q 319 2444 706 2928 
Q 1094 3413 1709 3413 
Q 2094 3413 2355 3264 
Q 2616 3116 2784 2803 
L 2784 3322 
L 3909 3322 
L 3909 2988 
L 3359 2988 
z
M 2784 1825 
Q 2784 2422 2554 2737 
Q 2325 3053 1888 3053 
Q 1444 3053 1217 2703 
Q 991 2353 991 1663 
Q 991 975 1217 622 
Q 1444 269 1888 269 
Q 2325 269 2554 583 
Q 2784 897 2784 1497 
L 2784 1825 
z
" transform="scale(0.015625)"/>
     </defs>
     <use xlink:href="#DejaVuSerif-44"/>
     <use xlink:href="#DejaVuSerif-65" x="80.175781"/>
     <use xlink:href="#DejaVuSerif-6e" x="139.355469"/>
     <use xlink:href="#DejaVuSerif-74" x="203.759766"/>
     <use xlink:href="#DejaVuSerif-61" x="243.945312"/>
     <use xlink:href="#DejaVuSerif-74" x="303.564453"/>
     <use xlink:href="#DejaVuSerif-65" x="343.75"/>
     <use xlink:href="#DejaVuSerif-20" x="402.929688"/>
     <use xlink:href="#DejaVuSerif-67" x="434.716797"/>
     <use xlink:href="#DejaVuSerif-79" x="498.730469"/>
     <use xlink:href="#DejaVuSerif-72" x="555.224609"/>
     <use xlink:href="#DejaVuSerif-75" x="603.027344"/>
     <use xlink:href="#DejaVuSerif-73" x="667.431641"/>
    </g>
   </g>
  </g>
 </g>
 <defs>
  <clipPath id="p63caab7266">
   <rect x="72.83" y="26.16" width="276.37" height="272.431221"/>
  </clipPath>
 </defs>
</svg>
