<?xml version="1.0" encoding="utf-8" standalone="no"?>
<!DOCTYPE svg PUBLIC "-//W3C//DTD SVG 1.1//EN"
  "http://www.w3.org/Graphics/SVG/1.1/DTD/svg11.dtd">
<svg xmlns:xlink="http://www.w3.org/1999/xlink" width="216pt" height="216pt" viewBox="0 0 216 216" xmlns="http://www.w3.org/2000/svg" version="1.1">
 <metadata>
  <rdf:RDF xmlns:dc="http://purl.org/dc/elements/1.1/" xmlns:cc="http://creativecommons.org/ns#" xmlns:rdf="http://www.w3.org/1999/02/22-rdf-syntax-ns#">
   <cc:Work>
    <dc:type rdf:resource="http://purl.org/dc/dcmitype/StillImage"/>
    <dc:date>2024-08-06T11:08:18.366649</dc:date>
    <dc:format>image/svg+xml</dc:format>
    <dc:creator>
     <cc:Agent>
      <dc:title>Matplotlib v3.8.1, https://matplotlib.org/</dc:title>
     </cc:Agent>
    </dc:creator>
   </cc:Work>
  </rdf:RDF>
 </metadata>
 <defs>
  <style type="text/css">*{stroke-linejoin: round; stroke-linecap: butt}</style>
 </defs>
 <g id="figure_1">
  <g id="patch_1">
   <path d="M 0 216 
L 216 216 
L 216 0 
L 0 0 
z
" style="fill: #ffffff"/>
  </g>
  <g id="axes_1">
   <g id="patch_2">
    <path d="M 57.26 154.591221 
L 205.2 154.591221 
L 205.2 26.16 
L 57.26 26.16 
z
" style="fill: #ffffff"/>
   </g>
   <g id="patch_3">
    <path d="M 63.984545 154.591221 
L 70.709091 154.591221 
L 70.709091 154.591221 
L 63.984545 154.591221 
z
" clip-path="url(#p0b4b65bc0b)" style="fill: #d55e00; stroke: #000000; stroke-width: 0.760909; stroke-linejoin: miter"/>
   </g>
   <g id="patch_4">
    <path d="M 70.709091 154.591221 
L 77.433636 154.591221 
L 77.433636 154.591221 
L 70.709091 154.591221 
z
" clip-path="url(#p0b4b65bc0b)" style="fill: #d55e00; stroke: #000000; stroke-width: 0.760909; stroke-linejoin: miter"/>
   </g>
   <g id="patch_5">
    <path d="M 77.433636 154.591221 
L 84.158182 154.591221 
L 84.158182 154.591221 
L 77.433636 154.591221 
z
" clip-path="url(#p0b4b65bc0b)" style="fill: #d55e00; stroke: #000000; stroke-width: 0.760909; stroke-linejoin: miter"/>
   </g>
   <g id="patch_6">
    <path d="M 84.158182 154.591221 
L 90.882727 154.591221 
L 90.882727 154.591221 
L 84.158182 154.591221 
z
" clip-path="url(#p0b4b65bc0b)" style="fill: #d55e00; stroke: #000000; stroke-width: 0.760909; stroke-linejoin: miter"/>
   </g>
   <g id="patch_7">
    <path d="M 90.882727 154.591221 
L 97.607273 154.591221 
L 97.607273 154.591221 
L 90.882727 154.591221 
z
" clip-path="url(#p0b4b65bc0b)" style="fill: #d55e00; stroke: #000000; stroke-width: 0.760909; stroke-linejoin: miter"/>
   </g>
   <g id="patch_8">
    <path d="M 97.607273 154.591221 
L 104.331818 154.591221 
L 104.331818 154.591221 
L 97.607273 154.591221 
z
" clip-path="url(#p0b4b65bc0b)" style="fill: #d55e00; stroke: #000000; stroke-width: 0.760909; stroke-linejoin: miter"/>
   </g>
   <g id="patch_9">
    <path d="M 104.331818 154.591221 
L 111.056364 154.591221 
L 111.056364 154.591221 
L 104.331818 154.591221 
z
" clip-path="url(#p0b4b65bc0b)" style="fill: #d55e00; stroke: #000000; stroke-width: 0.760909; stroke-linejoin: miter"/>
   </g>
   <g id="patch_10">
    <path d="M 111.056364 154.591221 
L 117.780909 154.591221 
L 117.780909 154.591221 
L 111.056364 154.591221 
z
" clip-path="url(#p0b4b65bc0b)" style="fill: #d55e00; stroke: #000000; stroke-width: 0.760909; stroke-linejoin: miter"/>
   </g>
   <g id="patch_11">
    <path d="M 117.780909 154.591221 
L 124.505455 154.591221 
L 124.505455 154.591221 
L 117.780909 154.591221 
z
" clip-path="url(#p0b4b65bc0b)" style="fill: #d55e00; stroke: #000000; stroke-width: 0.760909; stroke-linejoin: miter"/>
   </g>
   <g id="patch_12">
    <path d="M 124.505455 154.591221 
L 131.23 154.591221 
L 131.23 154.500328 
L 124.505455 154.500328 
z
" clip-path="url(#p0b4b65bc0b)" style="fill: #d55e00; stroke: #000000; stroke-width: 0.760909; stroke-linejoin: miter"/>
   </g>
   <g id="patch_13">
    <path d="M 131.23 154.591221 
L 137.954545 154.591221 
L 137.954545 148.592299 
L 131.23 148.592299 
z
" clip-path="url(#p0b4b65bc0b)" style="fill: #d55e00; stroke: #000000; stroke-width: 0.760909; stroke-linejoin: miter"/>
   </g>
   <g id="patch_14">
    <path d="M 137.954545 154.591221 
L 144.679091 154.591221 
L 144.679091 127.959643 
L 137.954545 127.959643 
z
" clip-path="url(#p0b4b65bc0b)" style="fill: #d55e00; stroke: #000000; stroke-width: 0.760909; stroke-linejoin: miter"/>
   </g>
   <g id="patch_15">
    <path d="M 144.679091 154.591221 
L 151.403636 154.591221 
L 151.403636 64.334714 
L 144.679091 64.334714 
z
" clip-path="url(#p0b4b65bc0b)" style="fill: #d55e00; stroke: #000000; stroke-width: 0.760909; stroke-linejoin: miter"/>
   </g>
   <g id="patch_16">
    <path d="M 151.403636 154.591221 
L 158.128182 154.591221 
L 158.128182 35.976174 
L 151.403636 35.976174 
z
" clip-path="url(#p0b4b65bc0b)" style="fill: #d55e00; stroke: #000000; stroke-width: 0.760909; stroke-linejoin: miter"/>
   </g>
   <g id="patch_17">
    <path d="M 158.128182 154.591221 
L 164.852727 154.591221 
L 164.852727 82.058802 
L 158.128182 82.058802 
z
" clip-path="url(#p0b4b65bc0b)" style="fill: #d55e00; stroke: #000000; stroke-width: 0.760909; stroke-linejoin: miter"/>
   </g>
   <g id="patch_18">
    <path d="M 164.852727 154.591221 
L 171.577273 154.591221 
L 171.577273 141.957128 
L 164.852727 141.957128 
z
" clip-path="url(#p0b4b65bc0b)" style="fill: #d55e00; stroke: #000000; stroke-width: 0.760909; stroke-linejoin: miter"/>
   </g>
   <g id="patch_19">
    <path d="M 171.577273 154.591221 
L 178.301818 154.591221 
L 178.301818 154.136757 
L 171.577273 154.136757 
z
" clip-path="url(#p0b4b65bc0b)" style="fill: #d55e00; stroke: #000000; stroke-width: 0.760909; stroke-linejoin: miter"/>
   </g>
   <g id="patch_20">
    <path d="M 178.301818 154.591221 
L 185.026364 154.591221 
L 185.026364 154.591221 
L 178.301818 154.591221 
z
" clip-path="url(#p0b4b65bc0b)" style="fill: #d55e00; stroke: #000000; stroke-width: 0.760909; stroke-linejoin: miter"/>
   </g>
   <g id="patch_21">
    <path d="M 185.026364 154.591221 
L 191.750909 154.591221 
L 191.750909 154.591221 
L 185.026364 154.591221 
z
" clip-path="url(#p0b4b65bc0b)" style="fill: #d55e00; stroke: #000000; stroke-width: 0.760909; stroke-linejoin: miter"/>
   </g>
   <g id="patch_22">
    <path d="M 191.750909 154.591221 
L 198.475455 154.591221 
L 198.475455 154.591221 
L 191.750909 154.591221 
z
" clip-path="url(#p0b4b65bc0b)" style="fill: #d55e00; stroke: #000000; stroke-width: 0.760909; stroke-linejoin: miter"/>
   </g>
   <g id="patch_23">
    <path d="M 63.984545 154.591221 
L 70.709091 154.591221 
L 70.709091 154.591221 
L 63.984545 154.591221 
z
" clip-path="url(#p0b4b65bc0b)" style="fill: #029e73; stroke: #000000; stroke-width: 0.760909; stroke-linejoin: miter"/>
   </g>
   <g id="patch_24">
    <path d="M 70.709091 154.591221 
L 77.433636 154.591221 
L 77.433636 154.591221 
L 70.709091 154.591221 
z
" clip-path="url(#p0b4b65bc0b)" style="fill: #029e73; stroke: #000000; stroke-width: 0.760909; stroke-linejoin: miter"/>
   </g>
   <g id="patch_25">
    <path d="M 77.433636 154.591221 
L 84.158182 154.591221 
L 84.158182 153.318722 
L 77.433636 153.318722 
z
" clip-path="url(#p0b4b65bc0b)" style="fill: #029e73; stroke: #000000; stroke-width: 0.760909; stroke-linejoin: miter"/>
   </g>
   <g id="patch_26">
    <path d="M 84.158182 154.591221 
L 90.882727 154.591221 
L 90.882727 148.864977 
L 84.158182 148.864977 
z
" clip-path="url(#p0b4b65bc0b)" style="fill: #029e73; stroke: #000000; stroke-width: 0.760909; stroke-linejoin: miter"/>
   </g>
   <g id="patch_27">
    <path d="M 90.882727 154.591221 
L 97.607273 154.591221 
L 97.607273 145.592838 
L 90.882727 145.592838 
z
" clip-path="url(#p0b4b65bc0b)" style="fill: #029e73; stroke: #000000; stroke-width: 0.760909; stroke-linejoin: miter"/>
   </g>
   <g id="patch_28">
    <path d="M 97.607273 154.591221 
L 104.331818 154.591221 
L 104.331818 144.774803 
L 97.607273 144.774803 
z
" clip-path="url(#p0b4b65bc0b)" style="fill: #029e73; stroke: #000000; stroke-width: 0.760909; stroke-linejoin: miter"/>
   </g>
   <g id="patch_29">
    <path d="M 104.331818 154.591221 
L 111.056364 154.591221 
L 111.056364 139.04856 
L 104.331818 139.04856 
z
" clip-path="url(#p0b4b65bc0b)" style="fill: #029e73; stroke: #000000; stroke-width: 0.760909; stroke-linejoin: miter"/>
   </g>
   <g id="patch_30">
    <path d="M 111.056364 154.591221 
L 117.780909 154.591221 
L 117.780909 130.595533 
L 111.056364 130.595533 
z
" clip-path="url(#p0b4b65bc0b)" style="fill: #029e73; stroke: #000000; stroke-width: 0.760909; stroke-linejoin: miter"/>
   </g>
   <g id="patch_31">
    <path d="M 117.780909 154.591221 
L 124.505455 154.591221 
L 124.505455 122.687863 
L 117.780909 122.687863 
z
" clip-path="url(#p0b4b65bc0b)" style="fill: #029e73; stroke: #000000; stroke-width: 0.760909; stroke-linejoin: miter"/>
   </g>
   <g id="patch_32">
    <path d="M 124.505455 154.591221 
L 131.23 154.591221 
L 131.23 94.692895 
L 124.505455 94.692895 
z
" clip-path="url(#p0b4b65bc0b)" style="fill: #029e73; stroke: #000000; stroke-width: 0.760909; stroke-linejoin: miter"/>
   </g>
   <g id="patch_33">
    <path d="M 131.23 154.591221 
L 137.954545 154.591221 
L 137.954545 55.790795 
L 131.23 55.790795 
z
" clip-path="url(#p0b4b65bc0b)" style="fill: #029e73; stroke: #000000; stroke-width: 0.760909; stroke-linejoin: miter"/>
   </g>
   <g id="patch_34">
    <path d="M 137.954545 154.591221 
L 144.679091 154.591221 
L 144.679091 86.330761 
L 137.954545 86.330761 
z
" clip-path="url(#p0b4b65bc0b)" style="fill: #029e73; stroke: #000000; stroke-width: 0.760909; stroke-linejoin: miter"/>
   </g>
   <g id="patch_35">
    <path d="M 144.679091 154.591221 
L 151.403636 154.591221 
L 151.403636 151.59176 
L 144.679091 151.59176 
z
" clip-path="url(#p0b4b65bc0b)" style="fill: #029e73; stroke: #000000; stroke-width: 0.760909; stroke-linejoin: miter"/>
   </g>
   <g id="patch_36">
    <path d="M 151.403636 154.591221 
L 158.128182 154.591221 
L 158.128182 154.591221 
L 151.403636 154.591221 
z
" clip-path="url(#p0b4b65bc0b)" style="fill: #029e73; stroke: #000000; stroke-width: 0.760909; stroke-linejoin: miter"/>
   </g>
   <g id="patch_37">
    <path d="M 158.128182 154.591221 
L 164.852727 154.591221 
L 164.852727 154.591221 
L 158.128182 154.591221 
z
" clip-path="url(#p0b4b65bc0b)" style="fill: #029e73; stroke: #000000; stroke-width: 0.760909; stroke-linejoin: miter"/>
   </g>
   <g id="patch_38">
    <path d="M 164.852727 154.591221 
L 171.577273 154.591221 
L 171.577273 154.591221 
L 164.852727 154.591221 
z
" clip-path="url(#p0b4b65bc0b)" style="fill: #029e73; stroke: #000000; stroke-width: 0.760909; stroke-linejoin: miter"/>
   </g>
   <g id="patch_39">
    <path d="M 171.577273 154.591221 
L 178.301818 154.591221 
L 178.301818 154.591221 
L 171.577273 154.591221 
z
" clip-path="url(#p0b4b65bc0b)" style="fill: #029e73; stroke: #000000; stroke-width: 0.760909; stroke-linejoin: miter"/>
   </g>
   <g id="patch_40">
    <path d="M 178.301818 154.591221 
L 185.026364 154.591221 
L 185.026364 154.591221 
L 178.301818 154.591221 
z
" clip-path="url(#p0b4b65bc0b)" style="fill: #029e73; stroke: #000000; stroke-width: 0.760909; stroke-linejoin: miter"/>
   </g>
   <g id="patch_41">
    <path d="M 185.026364 154.591221 
L 191.750909 154.591221 
L 191.750909 154.591221 
L 185.026364 154.591221 
z
" clip-path="url(#p0b4b65bc0b)" style="fill: #029e73; stroke: #000000; stroke-width: 0.760909; stroke-linejoin: miter"/>
   </g>
   <g id="patch_42">
    <path d="M 191.750909 154.591221 
L 198.475455 154.591221 
L 198.475455 154.591221 
L 191.750909 154.591221 
z
" clip-path="url(#p0b4b65bc0b)" style="fill: #029e73; stroke: #000000; stroke-width: 0.760909; stroke-linejoin: miter"/>
   </g>
   <g id="patch_43">
    <path d="M 63.984545 154.591221 
L 70.709091 154.591221 
L 70.709091 154.500328 
L 63.984545 154.500328 
z
" clip-path="url(#p0b4b65bc0b)" style="fill: #de8f05; stroke: #000000; stroke-width: 0.760909; stroke-linejoin: miter"/>
   </g>
   <g id="patch_44">
    <path d="M 70.709091 154.591221 
L 77.433636 154.591221 
L 77.433636 154.500328 
L 70.709091 154.500328 
z
" clip-path="url(#p0b4b65bc0b)" style="fill: #de8f05; stroke: #000000; stroke-width: 0.760909; stroke-linejoin: miter"/>
   </g>
   <g id="patch_45">
    <path d="M 77.433636 154.591221 
L 84.158182 154.591221 
L 84.158182 154.409435 
L 77.433636 154.409435 
z
" clip-path="url(#p0b4b65bc0b)" style="fill: #de8f05; stroke: #000000; stroke-width: 0.760909; stroke-linejoin: miter"/>
   </g>
   <g id="patch_46">
    <path d="M 84.158182 154.591221 
L 90.882727 154.591221 
L 90.882727 154.22765 
L 84.158182 154.22765 
z
" clip-path="url(#p0b4b65bc0b)" style="fill: #de8f05; stroke: #000000; stroke-width: 0.760909; stroke-linejoin: miter"/>
   </g>
   <g id="patch_47">
    <path d="M 90.882727 154.591221 
L 97.607273 154.591221 
L 97.607273 154.318543 
L 90.882727 154.318543 
z
" clip-path="url(#p0b4b65bc0b)" style="fill: #de8f05; stroke: #000000; stroke-width: 0.760909; stroke-linejoin: miter"/>
   </g>
   <g id="patch_48">
    <path d="M 97.607273 154.591221 
L 104.331818 154.591221 
L 104.331818 153.318722 
L 97.607273 153.318722 
z
" clip-path="url(#p0b4b65bc0b)" style="fill: #de8f05; stroke: #000000; stroke-width: 0.760909; stroke-linejoin: miter"/>
   </g>
   <g id="patch_49">
    <path d="M 104.331818 154.591221 
L 111.056364 154.591221 
L 111.056364 152.046224 
L 104.331818 152.046224 
z
" clip-path="url(#p0b4b65bc0b)" style="fill: #de8f05; stroke: #000000; stroke-width: 0.760909; stroke-linejoin: miter"/>
   </g>
   <g id="patch_50">
    <path d="M 111.056364 154.591221 
L 117.780909 154.591221 
L 117.780909 151.319082 
L 111.056364 151.319082 
z
" clip-path="url(#p0b4b65bc0b)" style="fill: #de8f05; stroke: #000000; stroke-width: 0.760909; stroke-linejoin: miter"/>
   </g>
   <g id="patch_51">
    <path d="M 117.780909 154.591221 
L 124.505455 154.591221 
L 124.505455 150.501047 
L 117.780909 150.501047 
z
" clip-path="url(#p0b4b65bc0b)" style="fill: #de8f05; stroke: #000000; stroke-width: 0.760909; stroke-linejoin: miter"/>
   </g>
   <g id="patch_52">
    <path d="M 124.505455 154.591221 
L 131.23 154.591221 
L 131.23 146.865337 
L 124.505455 146.865337 
z
" clip-path="url(#p0b4b65bc0b)" style="fill: #de8f05; stroke: #000000; stroke-width: 0.760909; stroke-linejoin: miter"/>
   </g>
   <g id="patch_53">
    <path d="M 131.23 154.591221 
L 137.954545 154.591221 
L 137.954545 144.593018 
L 131.23 144.593018 
z
" clip-path="url(#p0b4b65bc0b)" style="fill: #de8f05; stroke: #000000; stroke-width: 0.760909; stroke-linejoin: miter"/>
   </g>
   <g id="patch_54">
    <path d="M 137.954545 154.591221 
L 144.679091 154.591221 
L 144.679091 143.047841 
L 137.954545 143.047841 
z
" clip-path="url(#p0b4b65bc0b)" style="fill: #de8f05; stroke: #000000; stroke-width: 0.760909; stroke-linejoin: miter"/>
   </g>
   <g id="patch_55">
    <path d="M 144.679091 154.591221 
L 151.403636 154.591221 
L 151.403636 136.867133 
L 144.679091 136.867133 
z
" clip-path="url(#p0b4b65bc0b)" style="fill: #de8f05; stroke: #000000; stroke-width: 0.760909; stroke-linejoin: miter"/>
   </g>
   <g id="patch_56">
    <path d="M 151.403636 154.591221 
L 158.128182 154.591221 
L 158.128182 123.687684 
L 151.403636 123.687684 
z
" clip-path="url(#p0b4b65bc0b)" style="fill: #de8f05; stroke: #000000; stroke-width: 0.760909; stroke-linejoin: miter"/>
   </g>
   <g id="patch_57">
    <path d="M 158.128182 154.591221 
L 164.852727 154.591221 
L 164.852727 96.419857 
L 158.128182 96.419857 
z
" clip-path="url(#p0b4b65bc0b)" style="fill: #de8f05; stroke: #000000; stroke-width: 0.760909; stroke-linejoin: miter"/>
   </g>
   <g id="patch_58">
    <path d="M 164.852727 154.591221 
L 171.577273 154.591221 
L 171.577273 67.515961 
L 164.852727 67.515961 
z
" clip-path="url(#p0b4b65bc0b)" style="fill: #de8f05; stroke: #000000; stroke-width: 0.760909; stroke-linejoin: miter"/>
   </g>
   <g id="patch_59">
    <path d="M 171.577273 154.591221 
L 178.301818 154.591221 
L 178.301818 79.877375 
L 171.577273 79.877375 
z
" clip-path="url(#p0b4b65bc0b)" style="fill: #de8f05; stroke: #000000; stroke-width: 0.760909; stroke-linejoin: miter"/>
   </g>
   <g id="patch_60">
    <path d="M 178.301818 154.591221 
L 185.026364 154.591221 
L 185.026364 138.41231 
L 178.301818 138.41231 
z
" clip-path="url(#p0b4b65bc0b)" style="fill: #de8f05; stroke: #000000; stroke-width: 0.760909; stroke-linejoin: miter"/>
   </g>
   <g id="patch_61">
    <path d="M 185.026364 154.591221 
L 191.750909 154.591221 
L 191.750909 153.773186 
L 185.026364 153.773186 
z
" clip-path="url(#p0b4b65bc0b)" style="fill: #de8f05; stroke: #000000; stroke-width: 0.760909; stroke-linejoin: miter"/>
   </g>
   <g id="patch_62">
    <path d="M 191.750909 154.591221 
L 198.475455 154.591221 
L 198.475455 154.409435 
L 191.750909 154.409435 
z
" clip-path="url(#p0b4b65bc0b)" style="fill: #de8f05; stroke: #000000; stroke-width: 0.760909; stroke-linejoin: miter"/>
   </g>
   <g id="patch_63">
    <path d="M 63.984545 154.591221 
L 70.709091 154.591221 
L 70.709091 154.591221 
L 63.984545 154.591221 
z
" clip-path="url(#p0b4b65bc0b)" style="fill: #0173b2; stroke: #000000; stroke-width: 0.760909; stroke-linejoin: miter"/>
   </g>
   <g id="patch_64">
    <path d="M 70.709091 154.591221 
L 77.433636 154.591221 
L 77.433636 154.500328 
L 70.709091 154.500328 
z
" clip-path="url(#p0b4b65bc0b)" style="fill: #0173b2; stroke: #000000; stroke-width: 0.760909; stroke-linejoin: miter"/>
   </g>
   <g id="patch_65">
    <path d="M 77.433636 154.591221 
L 84.158182 154.591221 
L 84.158182 154.500328 
L 77.433636 154.500328 
z
" clip-path="url(#p0b4b65bc0b)" style="fill: #0173b2; stroke: #000000; stroke-width: 0.760909; stroke-linejoin: miter"/>
   </g>
   <g id="patch_66">
    <path d="M 84.158182 154.591221 
L 90.882727 154.591221 
L 90.882727 153.954972 
L 84.158182 153.954972 
z
" clip-path="url(#p0b4b65bc0b)" style="fill: #0173b2; stroke: #000000; stroke-width: 0.760909; stroke-linejoin: miter"/>
   </g>
   <g id="patch_67">
    <path d="M 90.882727 154.591221 
L 97.607273 154.591221 
L 97.607273 154.045864 
L 90.882727 154.045864 
z
" clip-path="url(#p0b4b65bc0b)" style="fill: #0173b2; stroke: #000000; stroke-width: 0.760909; stroke-linejoin: miter"/>
   </g>
   <g id="patch_68">
    <path d="M 97.607273 154.591221 
L 104.331818 154.591221 
L 104.331818 152.500687 
L 97.607273 152.500687 
z
" clip-path="url(#p0b4b65bc0b)" style="fill: #0173b2; stroke: #000000; stroke-width: 0.760909; stroke-linejoin: miter"/>
   </g>
   <g id="patch_69">
    <path d="M 104.331818 154.591221 
L 111.056364 154.591221 
L 111.056364 151.409974 
L 104.331818 151.409974 
z
" clip-path="url(#p0b4b65bc0b)" style="fill: #0173b2; stroke: #000000; stroke-width: 0.760909; stroke-linejoin: miter"/>
   </g>
   <g id="patch_70">
    <path d="M 111.056364 154.591221 
L 117.780909 154.591221 
L 117.780909 150.319261 
L 111.056364 150.319261 
z
" clip-path="url(#p0b4b65bc0b)" style="fill: #0173b2; stroke: #000000; stroke-width: 0.760909; stroke-linejoin: miter"/>
   </g>
   <g id="patch_71">
    <path d="M 117.780909 154.591221 
L 124.505455 154.591221 
L 124.505455 148.592299 
L 117.780909 148.592299 
z
" clip-path="url(#p0b4b65bc0b)" style="fill: #0173b2; stroke: #000000; stroke-width: 0.760909; stroke-linejoin: miter"/>
   </g>
   <g id="patch_72">
    <path d="M 124.505455 154.591221 
L 131.23 154.591221 
L 131.23 146.410873 
L 124.505455 146.410873 
z
" clip-path="url(#p0b4b65bc0b)" style="fill: #0173b2; stroke: #000000; stroke-width: 0.760909; stroke-linejoin: miter"/>
   </g>
   <g id="patch_73">
    <path d="M 131.23 154.591221 
L 137.954545 154.591221 
L 137.954545 142.320699 
L 131.23 142.320699 
z
" clip-path="url(#p0b4b65bc0b)" style="fill: #0173b2; stroke: #000000; stroke-width: 0.760909; stroke-linejoin: miter"/>
   </g>
   <g id="patch_74">
    <path d="M 137.954545 154.591221 
L 144.679091 154.591221 
L 144.679091 136.685348 
L 137.954545 136.685348 
z
" clip-path="url(#p0b4b65bc0b)" style="fill: #0173b2; stroke: #000000; stroke-width: 0.760909; stroke-linejoin: miter"/>
   </g>
   <g id="patch_75">
    <path d="M 144.679091 154.591221 
L 151.403636 154.591221 
L 151.403636 132.867852 
L 144.679091 132.867852 
z
" clip-path="url(#p0b4b65bc0b)" style="fill: #0173b2; stroke: #000000; stroke-width: 0.760909; stroke-linejoin: miter"/>
   </g>
   <g id="patch_76">
    <path d="M 151.403636 154.591221 
L 158.128182 154.591221 
L 158.128182 123.687684 
L 151.403636 123.687684 
z
" clip-path="url(#p0b4b65bc0b)" style="fill: #0173b2; stroke: #000000; stroke-width: 0.760909; stroke-linejoin: miter"/>
   </g>
   <g id="patch_77">
    <path d="M 158.128182 154.591221 
L 164.852727 154.591221 
L 164.852727 105.236454 
L 158.128182 105.236454 
z
" clip-path="url(#p0b4b65bc0b)" style="fill: #0173b2; stroke: #000000; stroke-width: 0.760909; stroke-linejoin: miter"/>
   </g>
   <g id="patch_78">
    <path d="M 164.852727 154.591221 
L 171.577273 154.591221 
L 171.577273 67.697746 
L 164.852727 67.697746 
z
" clip-path="url(#p0b4b65bc0b)" style="fill: #0173b2; stroke: #000000; stroke-width: 0.760909; stroke-linejoin: miter"/>
   </g>
   <g id="patch_79">
    <path d="M 171.577273 154.591221 
L 178.301818 154.591221 
L 178.301818 76.423451 
L 171.577273 76.423451 
z
" clip-path="url(#p0b4b65bc0b)" style="fill: #0173b2; stroke: #000000; stroke-width: 0.760909; stroke-linejoin: miter"/>
   </g>
   <g id="patch_80">
    <path d="M 178.301818 154.591221 
L 185.026364 154.591221 
L 185.026364 149.683012 
L 178.301818 149.683012 
z
" clip-path="url(#p0b4b65bc0b)" style="fill: #0173b2; stroke: #000000; stroke-width: 0.760909; stroke-linejoin: miter"/>
   </g>
   <g id="patch_81">
    <path d="M 185.026364 154.591221 
L 191.750909 154.591221 
L 191.750909 154.591221 
L 185.026364 154.591221 
z
" clip-path="url(#p0b4b65bc0b)" style="fill: #0173b2; stroke: #000000; stroke-width: 0.760909; stroke-linejoin: miter"/>
   </g>
   <g id="patch_82">
    <path d="M 191.750909 154.591221 
L 198.475455 154.591221 
L 198.475455 154.591221 
L 191.750909 154.591221 
z
" clip-path="url(#p0b4b65bc0b)" style="fill: #0173b2; stroke: #000000; stroke-width: 0.760909; stroke-linejoin: miter"/>
   </g>
   <g id="matplotlib.axis_1">
    <g id="xtick_1">
     <g id="line2d_1">
      <defs>
       <path id="m14a9445dbc" d="M 0 0 
L 0 3.5 
" style="stroke: #000000; stroke-width: 0.8"/>
      </defs>
      <g>
       <use xlink:href="#m14a9445dbc" x="95.766078" y="154.591221" style="stroke: #000000; stroke-width: 0.8"/>
      </g>
     </g>
     <g id="text_1">
      <!-- 12000 -->
      <g transform="translate(86.469833 189.458962) rotate(-45) scale(0.1 -0.1)">
       <defs>
        <path id="DejaVuSerif-31" d="M 909 0 
L 909 331 
L 1722 331 
L 1722 4213 
L 781 3603 
L 781 4013 
L 1919 4750 
L 2350 4750 
L 2350 331 
L 3163 331 
L 3163 0 
L 909 0 
z
" transform="scale(0.015625)"/>
        <path id="DejaVuSerif-32" d="M 819 3553 
L 469 3553 
L 469 4384 
Q 803 4563 1142 4656 
Q 1481 4750 1806 4750 
Q 2534 4750 2956 4397 
Q 3378 4044 3378 3438 
Q 3378 2753 2422 1800 
Q 2347 1728 2309 1691 
L 1131 513 
L 3078 513 
L 3078 1088 
L 3444 1088 
L 3444 0 
L 434 0 
L 434 341 
L 1850 1753 
Q 2319 2222 2519 2614 
Q 2719 3006 2719 3438 
Q 2719 3909 2473 4175 
Q 2228 4441 1797 4441 
Q 1350 4441 1106 4219 
Q 863 3997 819 3553 
z
" transform="scale(0.015625)"/>
        <path id="DejaVuSerif-30" d="M 2034 219 
Q 2513 219 2750 744 
Q 2988 1269 2988 2328 
Q 2988 3391 2750 3916 
Q 2513 4441 2034 4441 
Q 1556 4441 1318 3916 
Q 1081 3391 1081 2328 
Q 1081 1269 1318 744 
Q 1556 219 2034 219 
z
M 2034 -91 
Q 1275 -91 848 546 
Q 422 1184 422 2328 
Q 422 3475 848 4112 
Q 1275 4750 2034 4750 
Q 2797 4750 3222 4112 
Q 3647 3475 3647 2328 
Q 3647 1184 3222 546 
Q 2797 -91 2034 -91 
z
" transform="scale(0.015625)"/>
       </defs>
       <use xlink:href="#DejaVuSerif-31"/>
       <use xlink:href="#DejaVuSerif-32" x="63.623047"/>
       <use xlink:href="#DejaVuSerif-30" x="127.246094"/>
       <use xlink:href="#DejaVuSerif-30" x="190.869141"/>
       <use xlink:href="#DejaVuSerif-30" x="254.492188"/>
      </g>
     </g>
    </g>
    <g id="xtick_2">
     <g id="line2d_2">
      <g>
       <use xlink:href="#m14a9445dbc" x="137.611414" y="154.591221" style="stroke: #000000; stroke-width: 0.8"/>
      </g>
     </g>
     <g id="text_2">
      <!-- 14000 -->
      <g transform="translate(128.315169 189.458962) rotate(-45) scale(0.1 -0.1)">
       <defs>
        <path id="DejaVuSerif-34" d="M 2234 1581 
L 2234 4063 
L 641 1581 
L 2234 1581 
z
M 3609 0 
L 1484 0 
L 1484 331 
L 2234 331 
L 2234 1247 
L 197 1247 
L 197 1588 
L 2241 4750 
L 2859 4750 
L 2859 1581 
L 3750 1581 
L 3750 1247 
L 2859 1247 
L 2859 331 
L 3609 331 
L 3609 0 
z
" transform="scale(0.015625)"/>
       </defs>
       <use xlink:href="#DejaVuSerif-31"/>
       <use xlink:href="#DejaVuSerif-34" x="63.623047"/>
       <use xlink:href="#DejaVuSerif-30" x="127.246094"/>
       <use xlink:href="#DejaVuSerif-30" x="190.869141"/>
       <use xlink:href="#DejaVuSerif-30" x="254.492188"/>
      </g>
     </g>
    </g>
    <g id="xtick_3">
     <g id="line2d_3">
      <g>
       <use xlink:href="#m14a9445dbc" x="179.456749" y="154.591221" style="stroke: #000000; stroke-width: 0.8"/>
      </g>
     </g>
     <g id="text_3">
      <!-- 16000 -->
      <g transform="translate(170.160505 189.458962) rotate(-45) scale(0.1 -0.1)">
       <defs>
        <path id="DejaVuSerif-36" d="M 2094 219 
Q 2534 219 2771 542 
Q 3009 866 3009 1472 
Q 3009 2078 2771 2401 
Q 2534 2725 2094 2725 
Q 1647 2725 1412 2412 
Q 1178 2100 1178 1509 
Q 1178 888 1415 553 
Q 1653 219 2094 219 
z
M 1075 2569 
Q 1288 2803 1556 2918 
Q 1825 3034 2163 3034 
Q 2859 3034 3264 2615 
Q 3669 2197 3669 1472 
Q 3669 763 3233 336 
Q 2797 -91 2069 -91 
Q 1278 -91 853 498 
Q 428 1088 428 2181 
Q 428 3406 931 4078 
Q 1434 4750 2350 4750 
Q 2597 4750 2869 4703 
Q 3141 4656 3425 4563 
L 3425 3794 
L 3072 3794 
Q 3034 4109 2831 4275 
Q 2628 4441 2284 4441 
Q 1678 4441 1381 3981 
Q 1084 3522 1075 2569 
z
" transform="scale(0.015625)"/>
       </defs>
       <use xlink:href="#DejaVuSerif-31"/>
       <use xlink:href="#DejaVuSerif-36" x="63.623047"/>
       <use xlink:href="#DejaVuSerif-30" x="127.246094"/>
       <use xlink:href="#DejaVuSerif-30" x="190.869141"/>
       <use xlink:href="#DejaVuSerif-30" x="254.492188"/>
      </g>
     </g>
    </g>
    <g id="text_4">
     <!-- Number of zeroes per cell -->
     <g transform="translate(65.099531 202.527961) scale(0.1 -0.1)">
      <defs>
       <path id="DejaVuSerif-4e" d="M 313 0 
L 313 331 
L 941 331 
L 941 4331 
L 313 4331 
L 313 4666 
L 1509 4666 
L 4306 984 
L 4306 4331 
L 3681 4331 
L 3681 4666 
L 5319 4666 
L 5319 4331 
L 4691 4331 
L 4691 -91 
L 4313 -91 
L 1325 3841 
L 1325 331 
L 1953 331 
L 1953 0 
L 313 0 
z
" transform="scale(0.015625)"/>
       <path id="DejaVuSerif-75" d="M 2266 3322 
L 3341 3322 
L 3341 331 
L 3884 331 
L 3884 0 
L 2766 0 
L 2766 588 
Q 2606 256 2353 82 
Q 2100 -91 1766 -91 
Q 1213 -91 952 223 
Q 691 538 691 1209 
L 691 2988 
L 172 2988 
L 172 3322 
L 1269 3322 
L 1269 1388 
Q 1269 781 1417 556 
Q 1566 331 1947 331 
Q 2347 331 2556 625 
Q 2766 919 2766 1478 
L 2766 2988 
L 2266 2988 
L 2266 3322 
z
" transform="scale(0.015625)"/>
       <path id="DejaVuSerif-6d" d="M 3316 2675 
Q 3481 3041 3739 3227 
Q 3997 3413 4341 3413 
Q 4863 3413 5119 3089 
Q 5375 2766 5375 2113 
L 5375 331 
L 5894 331 
L 5894 0 
L 4300 0 
L 4300 331 
L 4800 331 
L 4800 2047 
Q 4800 2556 4650 2772 
Q 4500 2988 4153 2988 
Q 3769 2988 3567 2697 
Q 3366 2406 3366 1850 
L 3366 331 
L 3866 331 
L 3866 0 
L 2291 0 
L 2291 331 
L 2791 331 
L 2791 2069 
Q 2791 2566 2641 2777 
Q 2491 2988 2144 2988 
Q 1759 2988 1557 2697 
Q 1356 2406 1356 1850 
L 1356 331 
L 1856 331 
L 1856 0 
L 263 0 
L 263 331 
L 781 331 
L 781 2994 
L 231 2994 
L 231 3322 
L 1356 3322 
L 1356 2731 
Q 1516 3063 1762 3238 
Q 2009 3413 2322 3413 
Q 2709 3413 2968 3220 
Q 3228 3028 3316 2675 
z
" transform="scale(0.015625)"/>
       <path id="DejaVuSerif-62" d="M 738 331 
L 738 4531 
L 184 4531 
L 184 4863 
L 1313 4863 
L 1313 2803 
Q 1481 3116 1742 3264 
Q 2003 3413 2388 3413 
Q 3000 3413 3387 2928 
Q 3775 2444 3775 1663 
Q 3775 881 3387 395 
Q 3000 -91 2388 -91 
Q 2003 -91 1742 57 
Q 1481 206 1313 519 
L 1313 0 
L 184 0 
L 184 331 
L 738 331 
z
M 1313 1497 
Q 1313 897 1542 583 
Q 1772 269 2209 269 
Q 2650 269 2876 622 
Q 3103 975 3103 1663 
Q 3103 2353 2876 2703 
Q 2650 3053 2209 3053 
Q 1772 3053 1542 2737 
Q 1313 2422 1313 1825 
L 1313 1497 
z
" transform="scale(0.015625)"/>
       <path id="DejaVuSerif-65" d="M 3469 1600 
L 991 1600 
L 991 1575 
Q 991 903 1244 561 
Q 1497 219 1991 219 
Q 2369 219 2611 417 
Q 2853 616 2950 1006 
L 3413 1006 
Q 3275 459 2904 184 
Q 2534 -91 1931 -91 
Q 1203 -91 761 389 
Q 319 869 319 1663 
Q 319 2450 753 2931 
Q 1188 3413 1894 3413 
Q 2647 3413 3050 2948 
Q 3453 2484 3469 1600 
z
M 2791 1931 
Q 2772 2513 2545 2808 
Q 2319 3103 1894 3103 
Q 1497 3103 1269 2806 
Q 1041 2509 991 1931 
L 2791 1931 
z
" transform="scale(0.015625)"/>
       <path id="DejaVuSerif-72" d="M 3059 3328 
L 3059 2497 
L 2728 2497 
Q 2713 2744 2591 2866 
Q 2469 2988 2234 2988 
Q 1809 2988 1582 2694 
Q 1356 2400 1356 1850 
L 1356 331 
L 2022 331 
L 2022 0 
L 263 0 
L 263 331 
L 781 331 
L 781 2994 
L 231 2994 
L 231 3322 
L 1356 3322 
L 1356 2731 
Q 1525 3078 1790 3245 
Q 2056 3413 2438 3413 
Q 2578 3413 2733 3391 
Q 2888 3369 3059 3328 
z
" transform="scale(0.015625)"/>
       <path id="DejaVuSerif-20" transform="scale(0.015625)"/>
       <path id="DejaVuSerif-6f" d="M 1925 219 
Q 2388 219 2623 584 
Q 2859 950 2859 1663 
Q 2859 2375 2623 2739 
Q 2388 3103 1925 3103 
Q 1463 3103 1227 2739 
Q 991 2375 991 1663 
Q 991 950 1228 584 
Q 1466 219 1925 219 
z
M 1925 -91 
Q 1200 -91 759 389 
Q 319 869 319 1663 
Q 319 2456 758 2934 
Q 1197 3413 1925 3413 
Q 2653 3413 3092 2934 
Q 3531 2456 3531 1663 
Q 3531 869 3092 389 
Q 2653 -91 1925 -91 
z
" transform="scale(0.015625)"/>
       <path id="DejaVuSerif-66" d="M 2753 4078 
L 2450 4078 
Q 2447 4313 2317 4434 
Q 2188 4556 1941 4556 
Q 1619 4556 1487 4379 
Q 1356 4203 1356 3750 
L 1356 3322 
L 2284 3322 
L 2284 2988 
L 1356 2988 
L 1356 331 
L 2094 331 
L 2094 0 
L 231 0 
L 231 331 
L 781 331 
L 781 2988 
L 231 2988 
L 231 3322 
L 781 3322 
L 781 3738 
Q 781 4294 1070 4578 
Q 1359 4863 1919 4863 
Q 2128 4863 2337 4825 
Q 2547 4788 2753 4709 
L 2753 4078 
z
" transform="scale(0.015625)"/>
       <path id="DejaVuSerif-7a" d="M 256 0 
L 256 269 
L 2338 2988 
L 691 2988 
L 691 2413 
L 359 2413 
L 359 3322 
L 3078 3322 
L 3078 3053 
L 997 331 
L 2803 331 
L 2803 934 
L 3138 934 
L 3138 0 
L 256 0 
z
" transform="scale(0.015625)"/>
       <path id="DejaVuSerif-73" d="M 359 184 
L 359 959 
L 691 959 
Q 703 588 923 403 
Q 1144 219 1575 219 
Q 1963 219 2166 364 
Q 2369 509 2369 788 
Q 2369 1006 2220 1140 
Q 2072 1275 1594 1428 
L 1178 1569 
Q 750 1706 558 1912 
Q 366 2119 366 2438 
Q 366 2894 700 3153 
Q 1034 3413 1625 3413 
Q 1888 3413 2178 3344 
Q 2469 3275 2778 3144 
L 2778 2419 
L 2447 2419 
Q 2434 2741 2221 2922 
Q 2009 3103 1644 3103 
Q 1281 3103 1095 2975 
Q 909 2847 909 2591 
Q 909 2381 1050 2254 
Q 1191 2128 1613 1997 
L 2069 1856 
Q 2541 1709 2748 1489 
Q 2956 1269 2956 922 
Q 2956 450 2595 179 
Q 2234 -91 1600 -91 
Q 1278 -91 972 -22 
Q 666 47 359 184 
z
" transform="scale(0.015625)"/>
       <path id="DejaVuSerif-70" d="M 1313 1825 
L 1313 1497 
Q 1313 897 1542 583 
Q 1772 269 2209 269 
Q 2650 269 2876 622 
Q 3103 975 3103 1663 
Q 3103 2353 2876 2703 
Q 2650 3053 2209 3053 
Q 1772 3053 1542 2737 
Q 1313 2422 1313 1825 
z
M 738 2988 
L 184 2988 
L 184 3322 
L 1313 3322 
L 1313 2803 
Q 1481 3116 1742 3264 
Q 2003 3413 2388 3413 
Q 3000 3413 3387 2928 
Q 3775 2444 3775 1663 
Q 3775 881 3387 395 
Q 3000 -91 2388 -91 
Q 2003 -91 1742 57 
Q 1481 206 1313 519 
L 1313 -997 
L 1856 -997 
L 1856 -1331 
L 184 -1331 
L 184 -997 
L 738 -997 
L 738 2988 
z
" transform="scale(0.015625)"/>
       <path id="DejaVuSerif-63" d="M 3291 997 
Q 3169 466 2822 187 
Q 2475 -91 1925 -91 
Q 1200 -91 759 389 
Q 319 869 319 1663 
Q 319 2459 759 2936 
Q 1200 3413 1925 3413 
Q 2241 3413 2553 3339 
Q 2866 3266 3181 3116 
L 3181 2266 
L 2847 2266 
Q 2781 2703 2561 2903 
Q 2341 3103 1931 3103 
Q 1466 3103 1228 2742 
Q 991 2381 991 1663 
Q 991 944 1227 581 
Q 1463 219 1931 219 
Q 2303 219 2525 412 
Q 2747 606 2828 997 
L 3291 997 
z
" transform="scale(0.015625)"/>
       <path id="DejaVuSerif-6c" d="M 1313 331 
L 1856 331 
L 1856 0 
L 184 0 
L 184 331 
L 738 331 
L 738 4531 
L 184 4531 
L 184 4863 
L 1313 4863 
L 1313 331 
z
" transform="scale(0.015625)"/>
      </defs>
      <use xlink:href="#DejaVuSerif-4e"/>
      <use xlink:href="#DejaVuSerif-75" x="87.5"/>
      <use xlink:href="#DejaVuSerif-6d" x="151.904297"/>
      <use xlink:href="#DejaVuSerif-62" x="246.728516"/>
      <use xlink:href="#DejaVuSerif-65" x="310.742188"/>
      <use xlink:href="#DejaVuSerif-72" x="369.921875"/>
      <use xlink:href="#DejaVuSerif-20" x="417.724609"/>
      <use xlink:href="#DejaVuSerif-6f" x="449.511719"/>
      <use xlink:href="#DejaVuSerif-66" x="509.716797"/>
      <use xlink:href="#DejaVuSerif-20" x="546.728516"/>
      <use xlink:href="#DejaVuSerif-7a" x="578.515625"/>
      <use xlink:href="#DejaVuSerif-65" x="631.201172"/>
      <use xlink:href="#DejaVuSerif-72" x="690.380859"/>
      <use xlink:href="#DejaVuSerif-6f" x="738.183594"/>
      <use xlink:href="#DejaVuSerif-65" x="798.388672"/>
      <use xlink:href="#DejaVuSerif-73" x="857.568359"/>
      <use xlink:href="#DejaVuSerif-20" x="908.886719"/>
      <use xlink:href="#DejaVuSerif-70" x="940.673828"/>
      <use xlink:href="#DejaVuSerif-65" x="1004.6875"/>
      <use xlink:href="#DejaVuSerif-72" x="1063.867188"/>
      <use xlink:href="#DejaVuSerif-20" x="1111.669922"/>
      <use xlink:href="#DejaVuSerif-63" x="1143.457031"/>
      <use xlink:href="#DejaVuSerif-65" x="1199.462891"/>
      <use xlink:href="#DejaVuSerif-6c" x="1258.642578"/>
      <use xlink:href="#DejaVuSerif-6c" x="1290.625"/>
     </g>
    </g>
   </g>
   <g id="matplotlib.axis_2">
    <g id="ytick_1">
     <g id="line2d_4">
      <defs>
       <path id="m56fe196310" d="M 0 0 
L -3.5 0 
" style="stroke: #000000; stroke-width: 0.8"/>
      </defs>
      <g>
       <use xlink:href="#m56fe196310" x="57.26" y="154.591221" style="stroke: #000000; stroke-width: 0.8"/>
      </g>
     </g>
     <g id="text_5">
      <!-- 0 -->
      <g transform="translate(43.8975 158.39044) scale(0.1 -0.1)">
       <use xlink:href="#DejaVuSerif-30"/>
      </g>
     </g>
    </g>
    <g id="ytick_2">
     <g id="line2d_5">
      <g>
       <use xlink:href="#m56fe196310" x="57.26" y="131.868032" style="stroke: #000000; stroke-width: 0.8"/>
      </g>
     </g>
     <g id="text_6">
      <!-- 250 -->
      <g transform="translate(31.1725 135.667251) scale(0.1 -0.1)">
       <defs>
        <path id="DejaVuSerif-35" d="M 3219 4666 
L 3219 4153 
L 1081 4153 
L 1081 2816 
Q 1244 2928 1461 2984 
Q 1678 3041 1947 3041 
Q 2703 3041 3140 2622 
Q 3578 2203 3578 1478 
Q 3578 738 3136 323 
Q 2694 -91 1894 -91 
Q 1572 -91 1234 -12 
Q 897 66 544 225 
L 544 1131 
L 897 1131 
Q 925 688 1179 453 
Q 1434 219 1894 219 
Q 2388 219 2653 544 
Q 2919 869 2919 1478 
Q 2919 2084 2655 2407 
Q 2391 2731 1894 2731 
Q 1613 2731 1398 2631 
Q 1184 2531 1019 2322 
L 750 2322 
L 750 4666 
L 3219 4666 
z
" transform="scale(0.015625)"/>
       </defs>
       <use xlink:href="#DejaVuSerif-32"/>
       <use xlink:href="#DejaVuSerif-35" x="63.623047"/>
       <use xlink:href="#DejaVuSerif-30" x="127.246094"/>
      </g>
     </g>
    </g>
    <g id="ytick_3">
     <g id="line2d_6">
      <g>
       <use xlink:href="#m56fe196310" x="57.26" y="109.144843" style="stroke: #000000; stroke-width: 0.8"/>
      </g>
     </g>
     <g id="text_7">
      <!-- 500 -->
      <g transform="translate(31.1725 112.944062) scale(0.1 -0.1)">
       <use xlink:href="#DejaVuSerif-35"/>
       <use xlink:href="#DejaVuSerif-30" x="63.623047"/>
       <use xlink:href="#DejaVuSerif-30" x="127.246094"/>
      </g>
     </g>
    </g>
    <g id="ytick_4">
     <g id="line2d_7">
      <g>
       <use xlink:href="#m56fe196310" x="57.26" y="86.421654" style="stroke: #000000; stroke-width: 0.8"/>
      </g>
     </g>
     <g id="text_8">
      <!-- 750 -->
      <g transform="translate(31.1725 90.220873) scale(0.1 -0.1)">
       <defs>
        <path id="DejaVuSerif-37" d="M 3609 4347 
L 1784 0 
L 1319 0 
L 3059 4153 
L 903 4153 
L 903 3578 
L 538 3578 
L 538 4666 
L 3609 4666 
L 3609 4347 
z
" transform="scale(0.015625)"/>
       </defs>
       <use xlink:href="#DejaVuSerif-37"/>
       <use xlink:href="#DejaVuSerif-35" x="63.623047"/>
       <use xlink:href="#DejaVuSerif-30" x="127.246094"/>
      </g>
     </g>
    </g>
    <g id="ytick_5">
     <g id="line2d_8">
      <g>
       <use xlink:href="#m56fe196310" x="57.26" y="63.698465" style="stroke: #000000; stroke-width: 0.8"/>
      </g>
     </g>
     <g id="text_9">
      <!-- 1000 -->
      <g transform="translate(24.81 67.497684) scale(0.1 -0.1)">
       <use xlink:href="#DejaVuSerif-31"/>
       <use xlink:href="#DejaVuSerif-30" x="63.623047"/>
       <use xlink:href="#DejaVuSerif-30" x="127.246094"/>
       <use xlink:href="#DejaVuSerif-30" x="190.869141"/>
      </g>
     </g>
    </g>
    <g id="ytick_6">
     <g id="line2d_9">
      <g>
       <use xlink:href="#m56fe196310" x="57.26" y="40.975276" style="stroke: #000000; stroke-width: 0.8"/>
      </g>
     </g>
     <g id="text_10">
      <!-- 1250 -->
      <g transform="translate(24.81 44.774495) scale(0.1 -0.1)">
       <use xlink:href="#DejaVuSerif-31"/>
       <use xlink:href="#DejaVuSerif-32" x="63.623047"/>
       <use xlink:href="#DejaVuSerif-35" x="127.246094"/>
       <use xlink:href="#DejaVuSerif-30" x="190.869141"/>
      </g>
     </g>
    </g>
    <g id="text_11">
     <!-- Frequency -->
     <g transform="translate(18.588125 117.420142) rotate(-90) scale(0.1 -0.1)">
      <defs>
       <path id="DejaVuSerif-46" d="M 353 0 
L 353 331 
L 947 331 
L 947 4331 
L 353 4331 
L 353 4666 
L 4172 4666 
L 4172 3628 
L 3788 3628 
L 3788 4281 
L 1581 4281 
L 1581 2719 
L 3175 2719 
L 3175 3303 
L 3559 3303 
L 3559 1753 
L 3175 1753 
L 3175 2338 
L 1581 2338 
L 1581 331 
L 2328 331 
L 2328 0 
L 353 0 
z
" transform="scale(0.015625)"/>
       <path id="DejaVuSerif-71" d="M 3359 2988 
L 3359 -997 
L 3909 -997 
L 3909 -1331 
L 2241 -1331 
L 2241 -997 
L 2784 -997 
L 2784 519 
Q 2616 206 2355 57 
Q 2094 -91 1709 -91 
Q 1097 -91 708 395 
Q 319 881 319 1663 
Q 319 2444 706 2928 
Q 1094 3413 1709 3413 
Q 2094 3413 2355 3264 
Q 2616 3116 2784 2803 
L 2784 3322 
L 3909 3322 
L 3909 2988 
L 3359 2988 
z
M 2784 1825 
Q 2784 2422 2554 2737 
Q 2325 3053 1888 3053 
Q 1444 3053 1217 2703 
Q 991 2353 991 1663 
Q 991 975 1217 622 
Q 1444 269 1888 269 
Q 2325 269 2554 583 
Q 2784 897 2784 1497 
L 2784 1825 
z
" transform="scale(0.015625)"/>
       <path id="DejaVuSerif-6e" d="M 263 0 
L 263 331 
L 781 331 
L 781 2988 
L 231 2988 
L 231 3322 
L 1356 3322 
L 1356 2731 
Q 1516 3069 1770 3241 
Q 2025 3413 2363 3413 
Q 2913 3413 3172 3097 
Q 3431 2781 3431 2113 
L 3431 331 
L 3944 331 
L 3944 0 
L 2356 0 
L 2356 331 
L 2853 331 
L 2853 1931 
Q 2853 2541 2703 2767 
Q 2553 2994 2175 2994 
Q 1775 2994 1565 2701 
Q 1356 2409 1356 1850 
L 1356 331 
L 1856 331 
L 1856 0 
L 263 0 
z
" transform="scale(0.015625)"/>
       <path id="DejaVuSerif-79" d="M 1381 -609 
L 1600 -56 
L 359 2988 
L -19 2988 
L -19 3322 
L 1509 3322 
L 1509 2988 
L 978 2988 
L 1913 703 
L 2847 2988 
L 2350 2988 
L 2350 3322 
L 3597 3322 
L 3597 2988 
L 3225 2988 
L 1703 -750 
Q 1547 -1138 1356 -1280 
Q 1166 -1422 819 -1422 
Q 672 -1422 517 -1397 
Q 363 -1372 206 -1325 
L 206 -691 
L 500 -691 
Q 519 -903 608 -995 
Q 697 -1088 884 -1088 
Q 1056 -1088 1161 -992 
Q 1266 -897 1381 -609 
z
" transform="scale(0.015625)"/>
      </defs>
      <use xlink:href="#DejaVuSerif-46"/>
      <use xlink:href="#DejaVuSerif-72" x="69.384766"/>
      <use xlink:href="#DejaVuSerif-65" x="117.1875"/>
      <use xlink:href="#DejaVuSerif-71" x="176.367188"/>
      <use xlink:href="#DejaVuSerif-75" x="240.380859"/>
      <use xlink:href="#DejaVuSerif-65" x="304.785156"/>
      <use xlink:href="#DejaVuSerif-6e" x="363.964844"/>
      <use xlink:href="#DejaVuSerif-63" x="428.369141"/>
      <use xlink:href="#DejaVuSerif-79" x="484.375"/>
     </g>
    </g>
   </g>
   <g id="line2d_10">
    <path d="M 63.984545 154.591221 
L 126.837081 154.493537 
L 129.540416 154.18563 
L 130.216249 153.88605 
L 131.567917 152.769365 
L 132.919584 151.400861 
L 134.271252 149.609391 
L 136.298753 146.238502 
L 137.65042 143.598716 
L 138.326254 141.677878 
L 139.002088 139.035082 
L 142.381256 122.215787 
L 143.05709 118.474788 
L 143.732924 113.889111 
L 144.408757 108.07832 
L 145.760425 92.416762 
L 148.46376 58.297189 
L 149.815427 44.33331 
L 150.491261 39.234777 
L 151.167095 35.470926 
L 151.842928 33.114537 
L 152.518762 32.275772 
L 153.194596 32.816222 
L 156.573764 39.858102 
L 157.249598 42.224068 
L 157.925432 45.822273 
L 158.601265 50.751941 
L 159.277099 57.019353 
L 160.628767 72.897742 
L 161.980434 89.788042 
L 163.332101 103.309314 
L 165.359603 121.824622 
L 166.71127 133.941514 
L 167.387104 138.753827 
L 168.062937 142.63055 
L 168.738771 145.748493 
L 169.414605 148.306196 
L 170.090439 150.370954 
L 170.766272 151.876152 
L 171.442106 152.792918 
L 172.11794 153.272268 
L 174.821275 154.385687 
L 176.172942 154.568744 
L 180.903778 154.591221 
L 198.475455 154.591221 
L 198.475455 154.591221 
" clip-path="url(#p0b4b65bc0b)" style="fill: none; stroke: #d55e00; stroke-width: 2; stroke-linecap: square"/>
   </g>
   <g id="line2d_11">
    <path d="M 63.984545 154.591221 
L 74.797885 154.493867 
L 76.825386 154.276901 
L 78.852887 153.840529 
L 80.880388 153.146192 
L 82.907889 152.153734 
L 84.935391 150.823263 
L 89.666227 147.359615 
L 91.017894 146.615992 
L 92.369561 146.124565 
L 93.721229 145.880017 
L 97.776231 145.437119 
L 99.803732 144.894426 
L 101.831233 144.133057 
L 103.858735 143.134871 
L 105.210402 142.22108 
L 106.562069 140.98777 
L 107.913737 139.420761 
L 113.99624 131.572242 
L 118.727076 124.568947 
L 120.078744 122.479693 
L 121.430411 119.899016 
L 122.782079 116.547768 
L 124.133746 112.149216 
L 125.485413 106.542386 
L 126.837081 99.731535 
L 128.188748 91.776989 
L 132.243751 65.716328 
L 132.919584 62.599768 
L 133.595418 60.260424 
L 134.271252 58.750381 
L 134.947085 58.056366 
L 135.622919 58.124888 
L 136.298753 58.898568 
L 136.974587 60.349814 
L 137.65042 62.498859 
L 138.326254 65.409417 
L 139.002088 69.163898 
L 139.677921 73.827362 
L 141.029589 85.85382 
L 143.05709 108.455524 
L 144.408757 123.480024 
L 145.760425 135.940476 
L 146.436259 140.813431 
L 147.112092 144.737329 
L 147.787926 147.771845 
L 148.46376 150.02669 
L 149.139593 151.63748 
L 149.815427 152.744285 
L 150.491261 153.476022 
L 151.167095 153.941522 
L 152.518762 154.394015 
L 154.546263 154.566809 
L 161.3046 154.59122 
L 198.475455 154.591221 
L 198.475455 154.591221 
" clip-path="url(#p0b4b65bc0b)" style="fill: none; stroke: #029e73; stroke-width: 2; stroke-linecap: square"/>
   </g>
   <g id="line2d_12">
    <path d="M 63.984545 154.511285 
L 76.825386 154.446649 
L 85.611224 154.285185 
L 93.721229 154.287619 
L 97.100397 154.047327 
L 99.803732 153.627047 
L 106.562069 152.18408 
L 114.672074 151.24203 
L 118.727076 150.533793 
L 121.430411 150.138843 
L 122.782079 149.788211 
L 124.133746 149.261738 
L 126.161247 148.185127 
L 128.864582 146.713363 
L 130.892083 145.961257 
L 135.622919 144.523775 
L 141.029589 142.582404 
L 142.381256 141.8299 
L 143.732924 140.883709 
L 145.084591 139.741354 
L 146.436259 138.368786 
L 147.787926 136.700876 
L 149.139593 134.681932 
L 150.491261 132.306076 
L 152.518762 128.184381 
L 154.546263 123.477871 
L 155.897931 119.834528 
L 157.249598 115.496243 
L 158.601265 110.237222 
L 159.952933 104.002126 
L 161.980434 93.295389 
L 164.007935 82.542804 
L 165.359603 76.550489 
L 166.035436 74.155343 
L 166.71127 72.229582 
L 167.387104 70.794686 
L 168.062937 69.85026 
L 168.738771 69.379949 
L 169.414605 69.35927 
L 170.090439 69.763614 
L 170.766272 70.574876 
L 171.442106 71.785736 
L 172.11794 73.401189 
L 172.793773 75.43737 
L 173.469607 77.917895 
L 174.821275 84.306727 
L 176.172942 92.642729 
L 177.524609 102.635096 
L 180.903778 128.957977 
L 182.255445 137.326359 
L 183.607113 143.649815 
L 184.282947 146.065822 
L 184.95878 148.037028 
L 185.634614 149.616072 
L 186.310448 150.859234 
L 186.986281 151.822098 
L 187.662115 152.556516 
L 189.013783 153.518315 
L 190.36545 154.034803 
L 191.717117 154.295807 
L 193.744619 154.438449 
L 198.475455 154.430482 
L 198.475455 154.430482 
" clip-path="url(#p0b4b65bc0b)" style="fill: none; stroke: #de8f05; stroke-width: 2; stroke-linecap: square"/>
   </g>
   <g id="line2d_13">
    <path d="M 63.984545 154.587007 
L 81.556222 154.419524 
L 93.721229 153.753814 
L 99.803732 152.788599 
L 103.858735 152.423328 
L 106.562069 151.871947 
L 113.320407 150.306415 
L 118.727076 149.34217 
L 120.754577 148.596639 
L 124.133746 147.274718 
L 129.540416 145.517974 
L 130.892083 144.784987 
L 132.919584 143.373353 
L 136.298753 140.61012 
L 139.677921 137.879943 
L 141.705423 136.46333 
L 144.408757 134.873355 
L 147.787926 132.853193 
L 149.139593 131.833204 
L 150.491261 130.512719 
L 151.842928 128.734566 
L 153.194596 126.407478 
L 154.546263 123.563726 
L 156.573764 118.616253 
L 158.601265 113.152009 
L 160.628767 107.01375 
L 161.980434 102.232195 
L 163.332101 96.623174 
L 164.683769 90.0514 
L 168.738771 68.31538 
L 169.414605 65.694211 
L 170.090439 63.813612 
L 170.766272 62.840149 
L 171.442106 62.915327 
L 172.11794 64.143871 
L 172.793773 66.582585 
L 173.469607 70.230595 
L 174.145441 75.022396 
L 175.497108 87.445825 
L 179.552111 129.751987 
L 180.903778 139.654622 
L 181.579612 143.405967 
L 182.255445 146.41198 
L 182.931279 148.753407 
L 183.607113 150.526662 
L 184.282947 151.832459 
L 184.95878 152.76723 
L 185.634614 153.417478 
L 186.310448 153.856751 
L 187.662115 154.327771 
L 189.013783 154.507671 
L 191.717117 154.58557 
L 198.475455 154.59122 
L 198.475455 154.59122 
" clip-path="url(#p0b4b65bc0b)" style="fill: none; stroke: #0173b2; stroke-width: 2; stroke-linecap: square"/>
   </g>
   <g id="patch_83">
    <path d="M 57.26 154.591221 
L 57.26 26.16 
" style="fill: none; stroke: #000000; stroke-width: 0.8; stroke-linejoin: miter; stroke-linecap: square"/>
   </g>
   <g id="patch_84">
    <path d="M 205.2 154.591221 
L 205.2 26.16 
" style="fill: none; stroke: #000000; stroke-width: 0.8; stroke-linejoin: miter; stroke-linecap: square"/>
   </g>
   <g id="patch_85">
    <path d="M 57.26 154.591221 
L 205.2 154.591221 
" style="fill: none; stroke: #000000; stroke-width: 0.8; stroke-linejoin: miter; stroke-linecap: square"/>
   </g>
   <g id="patch_86">
    <path d="M 57.26 26.16 
L 205.2 26.16 
" style="fill: none; stroke: #000000; stroke-width: 0.8; stroke-linejoin: miter; stroke-linecap: square"/>
   </g>
   <g id="text_12">
    <!-- Dentate gyrus -->
    <g transform="translate(88.104062 20.16) scale(0.12 -0.12)">
     <defs>
      <path id="DejaVuSerif-44" d="M 1581 331 
L 2163 331 
Q 3072 331 3558 850 
Q 4044 1369 4044 2338 
Q 4044 3306 3559 3818 
Q 3075 4331 2163 4331 
L 1581 4331 
L 1581 331 
z
M 353 0 
L 353 331 
L 947 331 
L 947 4331 
L 353 4331 
L 353 4666 
L 2209 4666 
Q 3416 4666 4089 4050 
Q 4763 3434 4763 2338 
Q 4763 1238 4088 619 
Q 3413 0 2209 0 
L 353 0 
z
" transform="scale(0.015625)"/>
      <path id="DejaVuSerif-74" d="M 691 2988 
L 184 2988 
L 184 3322 
L 691 3322 
L 691 4353 
L 1269 4353 
L 1269 3322 
L 2350 3322 
L 2350 2988 
L 1269 2988 
L 1269 878 
Q 1269 456 1350 337 
Q 1431 219 1650 219 
Q 1875 219 1978 351 
Q 2081 484 2088 781 
L 2522 781 
Q 2497 328 2275 118 
Q 2053 -91 1600 -91 
Q 1103 -91 897 129 
Q 691 350 691 878 
L 691 2988 
z
" transform="scale(0.015625)"/>
      <path id="DejaVuSerif-61" d="M 2547 1044 
L 2547 1747 
L 1806 1747 
Q 1378 1747 1168 1562 
Q 959 1378 959 997 
Q 959 650 1171 447 
Q 1384 244 1747 244 
Q 2106 244 2326 466 
Q 2547 688 2547 1044 
z
M 3122 2075 
L 3122 331 
L 3634 331 
L 3634 0 
L 2547 0 
L 2547 359 
Q 2356 128 2106 18 
Q 1856 -91 1522 -91 
Q 969 -91 644 203 
Q 319 497 319 997 
Q 319 1513 691 1797 
Q 1063 2081 1741 2081 
L 2547 2081 
L 2547 2309 
Q 2547 2688 2317 2895 
Q 2088 3103 1672 3103 
Q 1328 3103 1125 2947 
Q 922 2791 872 2484 
L 575 2484 
L 575 3156 
Q 875 3284 1158 3348 
Q 1441 3413 1709 3413 
Q 2400 3413 2761 3070 
Q 3122 2728 3122 2075 
z
" transform="scale(0.015625)"/>
      <path id="DejaVuSerif-67" d="M 3359 2988 
L 3359 72 
Q 3359 -644 2965 -1033 
Q 2572 -1422 1844 -1422 
Q 1516 -1422 1216 -1362 
Q 916 -1303 641 -1184 
L 641 -488 
L 941 -488 
Q 997 -813 1206 -963 
Q 1416 -1113 1806 -1113 
Q 2313 -1113 2548 -827 
Q 2784 -541 2784 72 
L 2784 519 
Q 2616 206 2355 57 
Q 2094 -91 1709 -91 
Q 1097 -91 708 395 
Q 319 881 319 1663 
Q 319 2444 706 2928 
Q 1094 3413 1709 3413 
Q 2094 3413 2355 3264 
Q 2616 3116 2784 2803 
L 2784 3322 
L 3909 3322 
L 3909 2988 
L 3359 2988 
z
M 2784 1825 
Q 2784 2422 2554 2737 
Q 2325 3053 1888 3053 
Q 1444 3053 1217 2703 
Q 991 2353 991 1663 
Q 991 975 1217 622 
Q 1444 269 1888 269 
Q 2325 269 2554 583 
Q 2784 897 2784 1497 
L 2784 1825 
z
" transform="scale(0.015625)"/>
     </defs>
     <use xlink:href="#DejaVuSerif-44"/>
     <use xlink:href="#DejaVuSerif-65" x="80.175781"/>
     <use xlink:href="#DejaVuSerif-6e" x="139.355469"/>
     <use xlink:href="#DejaVuSerif-74" x="203.759766"/>
     <use xlink:href="#DejaVuSerif-61" x="243.945312"/>
     <use xlink:href="#DejaVuSerif-74" x="303.564453"/>
     <use xlink:href="#DejaVuSerif-65" x="343.75"/>
     <use xlink:href="#DejaVuSerif-20" x="402.929688"/>
     <use xlink:href="#DejaVuSerif-67" x="434.716797"/>
     <use xlink:href="#DejaVuSerif-79" x="498.730469"/>
     <use xlink:href="#DejaVuSerif-72" x="555.224609"/>
     <use xlink:href="#DejaVuSerif-75" x="603.027344"/>
     <use xlink:href="#DejaVuSerif-73" x="667.431641"/>
    </g>
   </g>
  </g>
 </g>
 <defs>
  <clipPath id="p0b4b65bc0b">
   <rect x="57.26" y="26.16" width="147.94" height="128.431221"/>
  </clipPath>
 </defs>
</svg>
