<?xml version="1.0" encoding="utf-8" standalone="no"?>
<!DOCTYPE svg PUBLIC "-//W3C//DTD SVG 1.1//EN"
  "http://www.w3.org/Graphics/SVG/1.1/DTD/svg11.dtd">
<svg xmlns:xlink="http://www.w3.org/1999/xlink" width="360pt" height="360pt" viewBox="0 0 360 360" xmlns="http://www.w3.org/2000/svg" version="1.1">
 <metadata>
  <rdf:RDF xmlns:dc="http://purl.org/dc/elements/1.1/" xmlns:cc="http://creativecommons.org/ns#" xmlns:rdf="http://www.w3.org/1999/02/22-rdf-syntax-ns#">
   <cc:Work>
    <dc:type rdf:resource="http://purl.org/dc/dcmitype/StillImage"/>
    <dc:date>2024-09-26T15:45:01.352122</dc:date>
    <dc:format>image/svg+xml</dc:format>
    <dc:creator>
     <cc:Agent>
      <dc:title>Matplotlib v3.8.1, https://matplotlib.org/</dc:title>
     </cc:Agent>
    </dc:creator>
   </cc:Work>
  </rdf:RDF>
 </metadata>
 <defs>
  <style type="text/css">*{stroke-linejoin: round; stroke-linecap: butt}</style>
 </defs>
 <g id="figure_1">
  <g id="patch_1">
   <path d="M 0 360 
L 360 360 
L 360 0 
L 0 0 
z
" style="fill: #ffffff"/>
  </g>
  <g id="axes_1">
   <g id="patch_2">
    <path d="M 57.26 298.591221 
L 343.526746 298.591221 
L 343.526746 26.16 
L 57.26 26.16 
z
" style="fill: #ffffff"/>
   </g>
   <g id="patch_3">
    <path d="M 70.272125 298.591221 
L 83.28425 298.591221 
L 83.28425 298.591221 
L 70.272125 298.591221 
z
" clip-path="url(#p2061a6e4c7)" style="fill: #d55e00; stroke: #000000; stroke-linejoin: miter"/>
   </g>
   <g id="patch_4">
    <path d="M 83.28425 298.591221 
L 96.296374 298.591221 
L 96.296374 298.591221 
L 83.28425 298.591221 
z
" clip-path="url(#p2061a6e4c7)" style="fill: #d55e00; stroke: #000000; stroke-linejoin: miter"/>
   </g>
   <g id="patch_5">
    <path d="M 96.296374 298.591221 
L 109.308499 298.591221 
L 109.308499 298.591221 
L 96.296374 298.591221 
z
" clip-path="url(#p2061a6e4c7)" style="fill: #d55e00; stroke: #000000; stroke-linejoin: miter"/>
   </g>
   <g id="patch_6">
    <path d="M 109.308499 298.591221 
L 122.320624 298.591221 
L 122.320624 298.591221 
L 109.308499 298.591221 
z
" clip-path="url(#p2061a6e4c7)" style="fill: #d55e00; stroke: #000000; stroke-linejoin: miter"/>
   </g>
   <g id="patch_7">
    <path d="M 122.320624 298.591221 
L 135.332749 298.591221 
L 135.332749 298.591221 
L 122.320624 298.591221 
z
" clip-path="url(#p2061a6e4c7)" style="fill: #d55e00; stroke: #000000; stroke-linejoin: miter"/>
   </g>
   <g id="patch_8">
    <path d="M 135.332749 298.591221 
L 148.344874 298.591221 
L 148.344874 298.591221 
L 135.332749 298.591221 
z
" clip-path="url(#p2061a6e4c7)" style="fill: #d55e00; stroke: #000000; stroke-linejoin: miter"/>
   </g>
   <g id="patch_9">
    <path d="M 148.344874 298.591221 
L 161.356998 298.591221 
L 161.356998 298.591221 
L 148.344874 298.591221 
z
" clip-path="url(#p2061a6e4c7)" style="fill: #d55e00; stroke: #000000; stroke-linejoin: miter"/>
   </g>
   <g id="patch_10">
    <path d="M 161.356998 298.591221 
L 174.369123 298.591221 
L 174.369123 298.591221 
L 161.356998 298.591221 
z
" clip-path="url(#p2061a6e4c7)" style="fill: #d55e00; stroke: #000000; stroke-linejoin: miter"/>
   </g>
   <g id="patch_11">
    <path d="M 174.369123 298.591221 
L 187.381248 298.591221 
L 187.381248 298.591221 
L 174.369123 298.591221 
z
" clip-path="url(#p2061a6e4c7)" style="fill: #d55e00; stroke: #000000; stroke-linejoin: miter"/>
   </g>
   <g id="patch_12">
    <path d="M 187.381248 298.591221 
L 200.393373 298.591221 
L 200.393373 298.398417 
L 187.381248 298.398417 
z
" clip-path="url(#p2061a6e4c7)" style="fill: #d55e00; stroke: #000000; stroke-linejoin: miter"/>
   </g>
   <g id="patch_13">
    <path d="M 200.393373 298.591221 
L 213.405498 298.591221 
L 213.405498 285.866172 
L 200.393373 285.866172 
z
" clip-path="url(#p2061a6e4c7)" style="fill: #d55e00; stroke: #000000; stroke-linejoin: miter"/>
   </g>
   <g id="patch_14">
    <path d="M 213.405498 298.591221 
L 226.417623 298.591221 
L 226.417623 242.099714 
L 213.405498 242.099714 
z
" clip-path="url(#p2061a6e4c7)" style="fill: #d55e00; stroke: #000000; stroke-linejoin: miter"/>
   </g>
   <g id="patch_15">
    <path d="M 226.417623 298.591221 
L 239.429747 298.591221 
L 239.429747 107.13707 
L 226.417623 107.13707 
z
" clip-path="url(#p2061a6e4c7)" style="fill: #d55e00; stroke: #000000; stroke-linejoin: miter"/>
   </g>
   <g id="patch_16">
    <path d="M 239.429747 298.591221 
L 252.441872 298.591221 
L 252.441872 46.982292 
L 239.429747 46.982292 
z
" clip-path="url(#p2061a6e4c7)" style="fill: #d55e00; stroke: #000000; stroke-linejoin: miter"/>
   </g>
   <g id="patch_17">
    <path d="M 252.441872 298.591221 
L 265.453997 298.591221 
L 265.453997 144.733807 
L 252.441872 144.733807 
z
" clip-path="url(#p2061a6e4c7)" style="fill: #d55e00; stroke: #000000; stroke-linejoin: miter"/>
   </g>
   <g id="patch_18">
    <path d="M 265.453997 298.591221 
L 278.466122 298.591221 
L 278.466122 271.791496 
L 265.453997 271.791496 
z
" clip-path="url(#p2061a6e4c7)" style="fill: #d55e00; stroke: #000000; stroke-linejoin: miter"/>
   </g>
   <g id="patch_19">
    <path d="M 278.466122 298.591221 
L 291.478247 298.591221 
L 291.478247 297.627202 
L 278.466122 297.627202 
z
" clip-path="url(#p2061a6e4c7)" style="fill: #d55e00; stroke: #000000; stroke-linejoin: miter"/>
   </g>
   <g id="patch_20">
    <path d="M 291.478247 298.591221 
L 304.490371 298.591221 
L 304.490371 298.591221 
L 291.478247 298.591221 
z
" clip-path="url(#p2061a6e4c7)" style="fill: #d55e00; stroke: #000000; stroke-linejoin: miter"/>
   </g>
   <g id="patch_21">
    <path d="M 304.490371 298.591221 
L 317.502496 298.591221 
L 317.502496 298.591221 
L 304.490371 298.591221 
z
" clip-path="url(#p2061a6e4c7)" style="fill: #d55e00; stroke: #000000; stroke-linejoin: miter"/>
   </g>
   <g id="patch_22">
    <path d="M 317.502496 298.591221 
L 330.514621 298.591221 
L 330.514621 298.591221 
L 317.502496 298.591221 
z
" clip-path="url(#p2061a6e4c7)" style="fill: #d55e00; stroke: #000000; stroke-linejoin: miter"/>
   </g>
   <g id="patch_23">
    <path d="M 70.272125 298.591221 
L 83.28425 298.591221 
L 83.28425 298.591221 
L 70.272125 298.591221 
z
" clip-path="url(#p2061a6e4c7)" style="fill: #029e73; stroke: #000000; stroke-linejoin: miter"/>
   </g>
   <g id="patch_24">
    <path d="M 83.28425 298.591221 
L 96.296374 298.591221 
L 96.296374 298.591221 
L 83.28425 298.591221 
z
" clip-path="url(#p2061a6e4c7)" style="fill: #029e73; stroke: #000000; stroke-linejoin: miter"/>
   </g>
   <g id="patch_25">
    <path d="M 96.296374 298.591221 
L 109.308499 298.591221 
L 109.308499 295.891968 
L 96.296374 295.891968 
z
" clip-path="url(#p2061a6e4c7)" style="fill: #029e73; stroke: #000000; stroke-linejoin: miter"/>
   </g>
   <g id="patch_26">
    <path d="M 109.308499 298.591221 
L 122.320624 298.591221 
L 122.320624 286.444583 
L 109.308499 286.444583 
z
" clip-path="url(#p2061a6e4c7)" style="fill: #029e73; stroke: #000000; stroke-linejoin: miter"/>
   </g>
   <g id="patch_27">
    <path d="M 122.320624 298.591221 
L 135.332749 298.591221 
L 135.332749 279.503647 
L 122.320624 279.503647 
z
" clip-path="url(#p2061a6e4c7)" style="fill: #029e73; stroke: #000000; stroke-linejoin: miter"/>
   </g>
   <g id="patch_28">
    <path d="M 135.332749 298.591221 
L 148.344874 298.591221 
L 148.344874 277.768413 
L 135.332749 277.768413 
z
" clip-path="url(#p2061a6e4c7)" style="fill: #029e73; stroke: #000000; stroke-linejoin: miter"/>
   </g>
   <g id="patch_29">
    <path d="M 148.344874 298.591221 
L 161.356998 298.591221 
L 161.356998 265.621775 
L 148.344874 265.621775 
z
" clip-path="url(#p2061a6e4c7)" style="fill: #029e73; stroke: #000000; stroke-linejoin: miter"/>
   </g>
   <g id="patch_30">
    <path d="M 161.356998 298.591221 
L 174.369123 298.591221 
L 174.369123 247.691024 
L 161.356998 247.691024 
z
" clip-path="url(#p2061a6e4c7)" style="fill: #029e73; stroke: #000000; stroke-linejoin: miter"/>
   </g>
   <g id="patch_31">
    <path d="M 174.369123 298.591221 
L 187.381248 298.591221 
L 187.381248 230.917095 
L 174.369123 230.917095 
z
" clip-path="url(#p2061a6e4c7)" style="fill: #029e73; stroke: #000000; stroke-linejoin: miter"/>
   </g>
   <g id="patch_32">
    <path d="M 187.381248 298.591221 
L 200.393373 298.591221 
L 200.393373 171.533532 
L 187.381248 171.533532 
z
" clip-path="url(#p2061a6e4c7)" style="fill: #029e73; stroke: #000000; stroke-linejoin: miter"/>
   </g>
   <g id="patch_33">
    <path d="M 200.393373 298.591221 
L 213.405498 298.591221 
L 213.405498 89.013515 
L 200.393373 89.013515 
z
" clip-path="url(#p2061a6e4c7)" style="fill: #029e73; stroke: #000000; stroke-linejoin: miter"/>
   </g>
   <g id="patch_34">
    <path d="M 213.405498 298.591221 
L 226.417623 298.591221 
L 226.417623 153.795584 
L 213.405498 153.795584 
z
" clip-path="url(#p2061a6e4c7)" style="fill: #029e73; stroke: #000000; stroke-linejoin: miter"/>
   </g>
   <g id="patch_35">
    <path d="M 226.417623 298.591221 
L 239.429747 298.591221 
L 239.429747 292.228696 
L 226.417623 292.228696 
z
" clip-path="url(#p2061a6e4c7)" style="fill: #029e73; stroke: #000000; stroke-linejoin: miter"/>
   </g>
   <g id="patch_36">
    <path d="M 239.429747 298.591221 
L 252.441872 298.591221 
L 252.441872 298.591221 
L 239.429747 298.591221 
z
" clip-path="url(#p2061a6e4c7)" style="fill: #029e73; stroke: #000000; stroke-linejoin: miter"/>
   </g>
   <g id="patch_37">
    <path d="M 252.441872 298.591221 
L 265.453997 298.591221 
L 265.453997 298.591221 
L 252.441872 298.591221 
z
" clip-path="url(#p2061a6e4c7)" style="fill: #029e73; stroke: #000000; stroke-linejoin: miter"/>
   </g>
   <g id="patch_38">
    <path d="M 265.453997 298.591221 
L 278.466122 298.591221 
L 278.466122 298.591221 
L 265.453997 298.591221 
z
" clip-path="url(#p2061a6e4c7)" style="fill: #029e73; stroke: #000000; stroke-linejoin: miter"/>
   </g>
   <g id="patch_39">
    <path d="M 278.466122 298.591221 
L 291.478247 298.591221 
L 291.478247 298.591221 
L 278.466122 298.591221 
z
" clip-path="url(#p2061a6e4c7)" style="fill: #029e73; stroke: #000000; stroke-linejoin: miter"/>
   </g>
   <g id="patch_40">
    <path d="M 291.478247 298.591221 
L 304.490371 298.591221 
L 304.490371 298.591221 
L 291.478247 298.591221 
z
" clip-path="url(#p2061a6e4c7)" style="fill: #029e73; stroke: #000000; stroke-linejoin: miter"/>
   </g>
   <g id="patch_41">
    <path d="M 304.490371 298.591221 
L 317.502496 298.591221 
L 317.502496 298.591221 
L 304.490371 298.591221 
z
" clip-path="url(#p2061a6e4c7)" style="fill: #029e73; stroke: #000000; stroke-linejoin: miter"/>
   </g>
   <g id="patch_42">
    <path d="M 317.502496 298.591221 
L 330.514621 298.591221 
L 330.514621 298.591221 
L 317.502496 298.591221 
z
" clip-path="url(#p2061a6e4c7)" style="fill: #029e73; stroke: #000000; stroke-linejoin: miter"/>
   </g>
   <g id="patch_43">
    <path d="M 70.272125 298.591221 
L 83.28425 298.591221 
L 83.28425 298.398417 
L 70.272125 298.398417 
z
" clip-path="url(#p2061a6e4c7)" style="fill: #de8f05; stroke: #000000; stroke-linejoin: miter"/>
   </g>
   <g id="patch_44">
    <path d="M 83.28425 298.591221 
L 96.296374 298.591221 
L 96.296374 298.398417 
L 83.28425 298.398417 
z
" clip-path="url(#p2061a6e4c7)" style="fill: #de8f05; stroke: #000000; stroke-linejoin: miter"/>
   </g>
   <g id="patch_45">
    <path d="M 96.296374 298.591221 
L 109.308499 298.591221 
L 109.308499 298.205613 
L 96.296374 298.205613 
z
" clip-path="url(#p2061a6e4c7)" style="fill: #de8f05; stroke: #000000; stroke-linejoin: miter"/>
   </g>
   <g id="patch_46">
    <path d="M 109.308499 298.591221 
L 122.320624 298.591221 
L 122.320624 297.820006 
L 109.308499 297.820006 
z
" clip-path="url(#p2061a6e4c7)" style="fill: #de8f05; stroke: #000000; stroke-linejoin: miter"/>
   </g>
   <g id="patch_47">
    <path d="M 122.320624 298.591221 
L 135.332749 298.591221 
L 135.332749 298.012809 
L 122.320624 298.012809 
z
" clip-path="url(#p2061a6e4c7)" style="fill: #de8f05; stroke: #000000; stroke-linejoin: miter"/>
   </g>
   <g id="patch_48">
    <path d="M 135.332749 298.591221 
L 148.344874 298.591221 
L 148.344874 295.891968 
L 135.332749 295.891968 
z
" clip-path="url(#p2061a6e4c7)" style="fill: #de8f05; stroke: #000000; stroke-linejoin: miter"/>
   </g>
   <g id="patch_49">
    <path d="M 148.344874 298.591221 
L 161.356998 298.591221 
L 161.356998 293.192715 
L 148.344874 293.192715 
z
" clip-path="url(#p2061a6e4c7)" style="fill: #de8f05; stroke: #000000; stroke-linejoin: miter"/>
   </g>
   <g id="patch_50">
    <path d="M 161.356998 298.591221 
L 174.369123 298.591221 
L 174.369123 291.650285 
L 161.356998 291.650285 
z
" clip-path="url(#p2061a6e4c7)" style="fill: #de8f05; stroke: #000000; stroke-linejoin: miter"/>
   </g>
   <g id="patch_51">
    <path d="M 174.369123 298.591221 
L 187.381248 298.591221 
L 187.381248 289.915051 
L 174.369123 289.915051 
z
" clip-path="url(#p2061a6e4c7)" style="fill: #de8f05; stroke: #000000; stroke-linejoin: miter"/>
   </g>
   <g id="patch_52">
    <path d="M 187.381248 298.591221 
L 200.393373 298.591221 
L 200.393373 282.2029 
L 187.381248 282.2029 
z
" clip-path="url(#p2061a6e4c7)" style="fill: #de8f05; stroke: #000000; stroke-linejoin: miter"/>
   </g>
   <g id="patch_53">
    <path d="M 200.393373 298.591221 
L 213.405498 298.591221 
L 213.405498 277.382805 
L 200.393373 277.382805 
z
" clip-path="url(#p2061a6e4c7)" style="fill: #de8f05; stroke: #000000; stroke-linejoin: miter"/>
   </g>
   <g id="patch_54">
    <path d="M 213.405498 298.591221 
L 226.417623 298.591221 
L 226.417623 274.105141 
L 213.405498 274.105141 
z
" clip-path="url(#p2061a6e4c7)" style="fill: #de8f05; stroke: #000000; stroke-linejoin: miter"/>
   </g>
   <g id="patch_55">
    <path d="M 226.417623 298.591221 
L 239.429747 298.591221 
L 239.429747 260.994484 
L 226.417623 260.994484 
z
" clip-path="url(#p2061a6e4c7)" style="fill: #de8f05; stroke: #000000; stroke-linejoin: miter"/>
   </g>
   <g id="patch_56">
    <path d="M 239.429747 298.591221 
L 252.441872 298.591221 
L 252.441872 233.037937 
L 239.429747 233.037937 
z
" clip-path="url(#p2061a6e4c7)" style="fill: #de8f05; stroke: #000000; stroke-linejoin: miter"/>
   </g>
   <g id="patch_57">
    <path d="M 252.441872 298.591221 
L 265.453997 298.591221 
L 265.453997 175.196803 
L 252.441872 175.196803 
z
" clip-path="url(#p2061a6e4c7)" style="fill: #de8f05; stroke: #000000; stroke-linejoin: miter"/>
   </g>
   <g id="patch_58">
    <path d="M 265.453997 298.591221 
L 278.466122 298.591221 
L 278.466122 113.885202 
L 265.453997 113.885202 
z
" clip-path="url(#p2061a6e4c7)" style="fill: #de8f05; stroke: #000000; stroke-linejoin: miter"/>
   </g>
   <g id="patch_59">
    <path d="M 278.466122 298.591221 
L 291.478247 298.591221 
L 291.478247 140.106516 
L 278.466122 140.106516 
z
" clip-path="url(#p2061a6e4c7)" style="fill: #de8f05; stroke: #000000; stroke-linejoin: miter"/>
   </g>
   <g id="patch_60">
    <path d="M 291.478247 298.591221 
L 304.490371 298.591221 
L 304.490371 264.272148 
L 291.478247 264.272148 
z
" clip-path="url(#p2061a6e4c7)" style="fill: #de8f05; stroke: #000000; stroke-linejoin: miter"/>
   </g>
   <g id="patch_61">
    <path d="M 304.490371 298.591221 
L 317.502496 298.591221 
L 317.502496 296.855987 
L 304.490371 296.855987 
z
" clip-path="url(#p2061a6e4c7)" style="fill: #de8f05; stroke: #000000; stroke-linejoin: miter"/>
   </g>
   <g id="patch_62">
    <path d="M 317.502496 298.591221 
L 330.514621 298.591221 
L 330.514621 298.205613 
L 317.502496 298.205613 
z
" clip-path="url(#p2061a6e4c7)" style="fill: #de8f05; stroke: #000000; stroke-linejoin: miter"/>
   </g>
   <g id="patch_63">
    <path d="M 70.272125 298.591221 
L 83.28425 298.591221 
L 83.28425 298.591221 
L 70.272125 298.591221 
z
" clip-path="url(#p2061a6e4c7)" style="fill: #0173b2; stroke: #000000; stroke-linejoin: miter"/>
   </g>
   <g id="patch_64">
    <path d="M 83.28425 298.591221 
L 96.296374 298.591221 
L 96.296374 298.398417 
L 83.28425 298.398417 
z
" clip-path="url(#p2061a6e4c7)" style="fill: #0173b2; stroke: #000000; stroke-linejoin: miter"/>
   </g>
   <g id="patch_65">
    <path d="M 96.296374 298.591221 
L 109.308499 298.591221 
L 109.308499 298.398417 
L 96.296374 298.398417 
z
" clip-path="url(#p2061a6e4c7)" style="fill: #0173b2; stroke: #000000; stroke-linejoin: miter"/>
   </g>
   <g id="patch_66">
    <path d="M 109.308499 298.591221 
L 122.320624 298.591221 
L 122.320624 297.241594 
L 109.308499 297.241594 
z
" clip-path="url(#p2061a6e4c7)" style="fill: #0173b2; stroke: #000000; stroke-linejoin: miter"/>
   </g>
   <g id="patch_67">
    <path d="M 122.320624 298.591221 
L 135.332749 298.591221 
L 135.332749 297.434398 
L 122.320624 297.434398 
z
" clip-path="url(#p2061a6e4c7)" style="fill: #0173b2; stroke: #000000; stroke-linejoin: miter"/>
   </g>
   <g id="patch_68">
    <path d="M 135.332749 298.591221 
L 148.344874 298.591221 
L 148.344874 294.156734 
L 135.332749 294.156734 
z
" clip-path="url(#p2061a6e4c7)" style="fill: #0173b2; stroke: #000000; stroke-linejoin: miter"/>
   </g>
   <g id="patch_69">
    <path d="M 148.344874 298.591221 
L 161.356998 298.591221 
L 161.356998 291.843089 
L 148.344874 291.843089 
z
" clip-path="url(#p2061a6e4c7)" style="fill: #0173b2; stroke: #000000; stroke-linejoin: miter"/>
   </g>
   <g id="patch_70">
    <path d="M 161.356998 298.591221 
L 174.369123 298.591221 
L 174.369123 289.529443 
L 161.356998 289.529443 
z
" clip-path="url(#p2061a6e4c7)" style="fill: #0173b2; stroke: #000000; stroke-linejoin: miter"/>
   </g>
   <g id="patch_71">
    <path d="M 174.369123 298.591221 
L 187.381248 298.591221 
L 187.381248 285.866172 
L 174.369123 285.866172 
z
" clip-path="url(#p2061a6e4c7)" style="fill: #0173b2; stroke: #000000; stroke-linejoin: miter"/>
   </g>
   <g id="patch_72">
    <path d="M 187.381248 298.591221 
L 200.393373 298.591221 
L 200.393373 281.238881 
L 187.381248 281.238881 
z
" clip-path="url(#p2061a6e4c7)" style="fill: #0173b2; stroke: #000000; stroke-linejoin: miter"/>
   </g>
   <g id="patch_73">
    <path d="M 200.393373 298.591221 
L 213.405498 298.591221 
L 213.405498 272.562711 
L 200.393373 272.562711 
z
" clip-path="url(#p2061a6e4c7)" style="fill: #0173b2; stroke: #000000; stroke-linejoin: miter"/>
   </g>
   <g id="patch_74">
    <path d="M 213.405498 298.591221 
L 226.417623 298.591221 
L 226.417623 260.608877 
L 213.405498 260.608877 
z
" clip-path="url(#p2061a6e4c7)" style="fill: #0173b2; stroke: #000000; stroke-linejoin: miter"/>
   </g>
   <g id="patch_75">
    <path d="M 226.417623 298.591221 
L 239.429747 298.591221 
L 239.429747 252.511118 
L 226.417623 252.511118 
z
" clip-path="url(#p2061a6e4c7)" style="fill: #0173b2; stroke: #000000; stroke-linejoin: miter"/>
   </g>
   <g id="patch_76">
    <path d="M 239.429747 298.591221 
L 252.441872 298.591221 
L 252.441872 233.037937 
L 239.429747 233.037937 
z
" clip-path="url(#p2061a6e4c7)" style="fill: #0173b2; stroke: #000000; stroke-linejoin: miter"/>
   </g>
   <g id="patch_77">
    <path d="M 252.441872 298.591221 
L 265.453997 298.591221 
L 265.453997 193.89877 
L 252.441872 193.89877 
z
" clip-path="url(#p2061a6e4c7)" style="fill: #0173b2; stroke: #000000; stroke-linejoin: miter"/>
   </g>
   <g id="patch_78">
    <path d="M 265.453997 298.591221 
L 278.466122 298.591221 
L 278.466122 114.27081 
L 265.453997 114.27081 
z
" clip-path="url(#p2061a6e4c7)" style="fill: #0173b2; stroke: #000000; stroke-linejoin: miter"/>
   </g>
   <g id="patch_79">
    <path d="M 278.466122 298.591221 
L 291.478247 298.591221 
L 291.478247 132.779972 
L 278.466122 132.779972 
z
" clip-path="url(#p2061a6e4c7)" style="fill: #0173b2; stroke: #000000; stroke-linejoin: miter"/>
   </g>
   <g id="patch_80">
    <path d="M 291.478247 298.591221 
L 304.490371 298.591221 
L 304.490371 288.179817 
L 291.478247 288.179817 
z
" clip-path="url(#p2061a6e4c7)" style="fill: #0173b2; stroke: #000000; stroke-linejoin: miter"/>
   </g>
   <g id="patch_81">
    <path d="M 304.490371 298.591221 
L 317.502496 298.591221 
L 317.502496 298.591221 
L 304.490371 298.591221 
z
" clip-path="url(#p2061a6e4c7)" style="fill: #0173b2; stroke: #000000; stroke-linejoin: miter"/>
   </g>
   <g id="patch_82">
    <path d="M 317.502496 298.591221 
L 330.514621 298.591221 
L 330.514621 298.591221 
L 317.502496 298.591221 
z
" clip-path="url(#p2061a6e4c7)" style="fill: #0173b2; stroke: #000000; stroke-linejoin: miter"/>
   </g>
   <g id="matplotlib.axis_1">
    <g id="xtick_1">
     <g id="line2d_1">
      <defs>
       <path id="me30d7d72ab" d="M 0 0 
L 0 3.5 
" style="stroke: #000000; stroke-width: 0.8"/>
      </defs>
      <g>
       <use xlink:href="#me30d7d72ab" x="91.284237" y="298.591221" style="stroke: #000000; stroke-width: 0.8"/>
      </g>
     </g>
     <g id="text_1">
      <!-- 11000 -->
      <g transform="translate(81.987992 333.458962) rotate(-45) scale(0.1 -0.1)">
       <defs>
        <path id="DejaVuSerif-31" d="M 909 0 
L 909 331 
L 1722 331 
L 1722 4213 
L 781 3603 
L 781 4013 
L 1919 4750 
L 2350 4750 
L 2350 331 
L 3163 331 
L 3163 0 
L 909 0 
z
" transform="scale(0.015625)"/>
        <path id="DejaVuSerif-30" d="M 2034 219 
Q 2513 219 2750 744 
Q 2988 1269 2988 2328 
Q 2988 3391 2750 3916 
Q 2513 4441 2034 4441 
Q 1556 4441 1318 3916 
Q 1081 3391 1081 2328 
Q 1081 1269 1318 744 
Q 1556 219 2034 219 
z
M 2034 -91 
Q 1275 -91 848 546 
Q 422 1184 422 2328 
Q 422 3475 848 4112 
Q 1275 4750 2034 4750 
Q 2797 4750 3222 4112 
Q 3647 3475 3647 2328 
Q 3647 1184 3222 546 
Q 2797 -91 2034 -91 
z
" transform="scale(0.015625)"/>
       </defs>
       <use xlink:href="#DejaVuSerif-31"/>
       <use xlink:href="#DejaVuSerif-31" x="63.623047"/>
       <use xlink:href="#DejaVuSerif-30" x="127.246094"/>
       <use xlink:href="#DejaVuSerif-30" x="190.869141"/>
       <use xlink:href="#DejaVuSerif-30" x="254.492188"/>
      </g>
     </g>
    </g>
    <g id="xtick_2">
     <g id="line2d_2">
      <g>
       <use xlink:href="#me30d7d72ab" x="131.770002" y="298.591221" style="stroke: #000000; stroke-width: 0.8"/>
      </g>
     </g>
     <g id="text_2">
      <!-- 12000 -->
      <g transform="translate(122.473757 333.458962) rotate(-45) scale(0.1 -0.1)">
       <defs>
        <path id="DejaVuSerif-32" d="M 819 3553 
L 469 3553 
L 469 4384 
Q 803 4563 1142 4656 
Q 1481 4750 1806 4750 
Q 2534 4750 2956 4397 
Q 3378 4044 3378 3438 
Q 3378 2753 2422 1800 
Q 2347 1728 2309 1691 
L 1131 513 
L 3078 513 
L 3078 1088 
L 3444 1088 
L 3444 0 
L 434 0 
L 434 341 
L 1850 1753 
Q 2319 2222 2519 2614 
Q 2719 3006 2719 3438 
Q 2719 3909 2473 4175 
Q 2228 4441 1797 4441 
Q 1350 4441 1106 4219 
Q 863 3997 819 3553 
z
" transform="scale(0.015625)"/>
       </defs>
       <use xlink:href="#DejaVuSerif-31"/>
       <use xlink:href="#DejaVuSerif-32" x="63.623047"/>
       <use xlink:href="#DejaVuSerif-30" x="127.246094"/>
       <use xlink:href="#DejaVuSerif-30" x="190.869141"/>
       <use xlink:href="#DejaVuSerif-30" x="254.492188"/>
      </g>
     </g>
    </g>
    <g id="xtick_3">
     <g id="line2d_3">
      <g>
       <use xlink:href="#me30d7d72ab" x="172.255766" y="298.591221" style="stroke: #000000; stroke-width: 0.8"/>
      </g>
     </g>
     <g id="text_3">
      <!-- 13000 -->
      <g transform="translate(162.959522 333.458962) rotate(-45) scale(0.1 -0.1)">
       <defs>
        <path id="DejaVuSerif-33" d="M 622 4469 
Q 988 4606 1323 4678 
Q 1659 4750 1953 4750 
Q 2638 4750 3022 4454 
Q 3406 4159 3406 3634 
Q 3406 3213 3140 2930 
Q 2875 2647 2388 2547 
Q 2963 2466 3280 2130 
Q 3597 1794 3597 1259 
Q 3597 606 3158 257 
Q 2719 -91 1894 -91 
Q 1528 -91 1179 -12 
Q 831 66 488 225 
L 488 1131 
L 838 1131 
Q 869 681 1141 450 
Q 1413 219 1906 219 
Q 2384 219 2661 495 
Q 2938 772 2938 1253 
Q 2938 1803 2653 2086 
Q 2369 2369 1819 2369 
L 1522 2369 
L 1522 2688 
L 1678 2688 
Q 2225 2688 2498 2914 
Q 2772 3141 2772 3597 
Q 2772 4006 2547 4223 
Q 2322 4441 1900 4441 
Q 1478 4441 1245 4241 
Q 1013 4041 972 3647 
L 622 3647 
L 622 4469 
z
" transform="scale(0.015625)"/>
       </defs>
       <use xlink:href="#DejaVuSerif-31"/>
       <use xlink:href="#DejaVuSerif-33" x="63.623047"/>
       <use xlink:href="#DejaVuSerif-30" x="127.246094"/>
       <use xlink:href="#DejaVuSerif-30" x="190.869141"/>
       <use xlink:href="#DejaVuSerif-30" x="254.492188"/>
      </g>
     </g>
    </g>
    <g id="xtick_4">
     <g id="line2d_4">
      <g>
       <use xlink:href="#me30d7d72ab" x="212.741531" y="298.591221" style="stroke: #000000; stroke-width: 0.8"/>
      </g>
     </g>
     <g id="text_4">
      <!-- 14000 -->
      <g transform="translate(203.445287 333.458962) rotate(-45) scale(0.1 -0.1)">
       <defs>
        <path id="DejaVuSerif-34" d="M 2234 1581 
L 2234 4063 
L 641 1581 
L 2234 1581 
z
M 3609 0 
L 1484 0 
L 1484 331 
L 2234 331 
L 2234 1247 
L 197 1247 
L 197 1588 
L 2241 4750 
L 2859 4750 
L 2859 1581 
L 3750 1581 
L 3750 1247 
L 2859 1247 
L 2859 331 
L 3609 331 
L 3609 0 
z
" transform="scale(0.015625)"/>
       </defs>
       <use xlink:href="#DejaVuSerif-31"/>
       <use xlink:href="#DejaVuSerif-34" x="63.623047"/>
       <use xlink:href="#DejaVuSerif-30" x="127.246094"/>
       <use xlink:href="#DejaVuSerif-30" x="190.869141"/>
       <use xlink:href="#DejaVuSerif-30" x="254.492188"/>
      </g>
     </g>
    </g>
    <g id="xtick_5">
     <g id="line2d_5">
      <g>
       <use xlink:href="#me30d7d72ab" x="253.227296" y="298.591221" style="stroke: #000000; stroke-width: 0.8"/>
      </g>
     </g>
     <g id="text_5">
      <!-- 15000 -->
      <g transform="translate(243.931051 333.458962) rotate(-45) scale(0.1 -0.1)">
       <defs>
        <path id="DejaVuSerif-35" d="M 3219 4666 
L 3219 4153 
L 1081 4153 
L 1081 2816 
Q 1244 2928 1461 2984 
Q 1678 3041 1947 3041 
Q 2703 3041 3140 2622 
Q 3578 2203 3578 1478 
Q 3578 738 3136 323 
Q 2694 -91 1894 -91 
Q 1572 -91 1234 -12 
Q 897 66 544 225 
L 544 1131 
L 897 1131 
Q 925 688 1179 453 
Q 1434 219 1894 219 
Q 2388 219 2653 544 
Q 2919 869 2919 1478 
Q 2919 2084 2655 2407 
Q 2391 2731 1894 2731 
Q 1613 2731 1398 2631 
Q 1184 2531 1019 2322 
L 750 2322 
L 750 4666 
L 3219 4666 
z
" transform="scale(0.015625)"/>
       </defs>
       <use xlink:href="#DejaVuSerif-31"/>
       <use xlink:href="#DejaVuSerif-35" x="63.623047"/>
       <use xlink:href="#DejaVuSerif-30" x="127.246094"/>
       <use xlink:href="#DejaVuSerif-30" x="190.869141"/>
       <use xlink:href="#DejaVuSerif-30" x="254.492188"/>
      </g>
     </g>
    </g>
    <g id="xtick_6">
     <g id="line2d_6">
      <g>
       <use xlink:href="#me30d7d72ab" x="293.713061" y="298.591221" style="stroke: #000000; stroke-width: 0.8"/>
      </g>
     </g>
     <g id="text_6">
      <!-- 16000 -->
      <g transform="translate(284.416816 333.458962) rotate(-45) scale(0.1 -0.1)">
       <defs>
        <path id="DejaVuSerif-36" d="M 2094 219 
Q 2534 219 2771 542 
Q 3009 866 3009 1472 
Q 3009 2078 2771 2401 
Q 2534 2725 2094 2725 
Q 1647 2725 1412 2412 
Q 1178 2100 1178 1509 
Q 1178 888 1415 553 
Q 1653 219 2094 219 
z
M 1075 2569 
Q 1288 2803 1556 2918 
Q 1825 3034 2163 3034 
Q 2859 3034 3264 2615 
Q 3669 2197 3669 1472 
Q 3669 763 3233 336 
Q 2797 -91 2069 -91 
Q 1278 -91 853 498 
Q 428 1088 428 2181 
Q 428 3406 931 4078 
Q 1434 4750 2350 4750 
Q 2597 4750 2869 4703 
Q 3141 4656 3425 4563 
L 3425 3794 
L 3072 3794 
Q 3034 4109 2831 4275 
Q 2628 4441 2284 4441 
Q 1678 4441 1381 3981 
Q 1084 3522 1075 2569 
z
" transform="scale(0.015625)"/>
       </defs>
       <use xlink:href="#DejaVuSerif-31"/>
       <use xlink:href="#DejaVuSerif-36" x="63.623047"/>
       <use xlink:href="#DejaVuSerif-30" x="127.246094"/>
       <use xlink:href="#DejaVuSerif-30" x="190.869141"/>
       <use xlink:href="#DejaVuSerif-30" x="254.492188"/>
      </g>
     </g>
    </g>
    <g id="xtick_7">
     <g id="line2d_7">
      <g>
       <use xlink:href="#me30d7d72ab" x="334.198826" y="298.591221" style="stroke: #000000; stroke-width: 0.8"/>
      </g>
     </g>
     <g id="text_7">
      <!-- 17000 -->
      <g transform="translate(324.902581 333.458962) rotate(-45) scale(0.1 -0.1)">
       <defs>
        <path id="DejaVuSerif-37" d="M 3609 4347 
L 1784 0 
L 1319 0 
L 3059 4153 
L 903 4153 
L 903 3578 
L 538 3578 
L 538 4666 
L 3609 4666 
L 3609 4347 
z
" transform="scale(0.015625)"/>
       </defs>
       <use xlink:href="#DejaVuSerif-31"/>
       <use xlink:href="#DejaVuSerif-37" x="63.623047"/>
       <use xlink:href="#DejaVuSerif-30" x="127.246094"/>
       <use xlink:href="#DejaVuSerif-30" x="190.869141"/>
       <use xlink:href="#DejaVuSerif-30" x="254.492188"/>
      </g>
     </g>
    </g>
    <g id="text_8">
     <!-- Number of zeroes per cell -->
     <g transform="translate(134.262904 346.527961) scale(0.1 -0.1)">
      <defs>
       <path id="DejaVuSerif-4e" d="M 313 0 
L 313 331 
L 941 331 
L 941 4331 
L 313 4331 
L 313 4666 
L 1509 4666 
L 4306 984 
L 4306 4331 
L 3681 4331 
L 3681 4666 
L 5319 4666 
L 5319 4331 
L 4691 4331 
L 4691 -91 
L 4313 -91 
L 1325 3841 
L 1325 331 
L 1953 331 
L 1953 0 
L 313 0 
z
" transform="scale(0.015625)"/>
       <path id="DejaVuSerif-75" d="M 2266 3322 
L 3341 3322 
L 3341 331 
L 3884 331 
L 3884 0 
L 2766 0 
L 2766 588 
Q 2606 256 2353 82 
Q 2100 -91 1766 -91 
Q 1213 -91 952 223 
Q 691 538 691 1209 
L 691 2988 
L 172 2988 
L 172 3322 
L 1269 3322 
L 1269 1388 
Q 1269 781 1417 556 
Q 1566 331 1947 331 
Q 2347 331 2556 625 
Q 2766 919 2766 1478 
L 2766 2988 
L 2266 2988 
L 2266 3322 
z
" transform="scale(0.015625)"/>
       <path id="DejaVuSerif-6d" d="M 3316 2675 
Q 3481 3041 3739 3227 
Q 3997 3413 4341 3413 
Q 4863 3413 5119 3089 
Q 5375 2766 5375 2113 
L 5375 331 
L 5894 331 
L 5894 0 
L 4300 0 
L 4300 331 
L 4800 331 
L 4800 2047 
Q 4800 2556 4650 2772 
Q 4500 2988 4153 2988 
Q 3769 2988 3567 2697 
Q 3366 2406 3366 1850 
L 3366 331 
L 3866 331 
L 3866 0 
L 2291 0 
L 2291 331 
L 2791 331 
L 2791 2069 
Q 2791 2566 2641 2777 
Q 2491 2988 2144 2988 
Q 1759 2988 1557 2697 
Q 1356 2406 1356 1850 
L 1356 331 
L 1856 331 
L 1856 0 
L 263 0 
L 263 331 
L 781 331 
L 781 2994 
L 231 2994 
L 231 3322 
L 1356 3322 
L 1356 2731 
Q 1516 3063 1762 3238 
Q 2009 3413 2322 3413 
Q 2709 3413 2968 3220 
Q 3228 3028 3316 2675 
z
" transform="scale(0.015625)"/>
       <path id="DejaVuSerif-62" d="M 738 331 
L 738 4531 
L 184 4531 
L 184 4863 
L 1313 4863 
L 1313 2803 
Q 1481 3116 1742 3264 
Q 2003 3413 2388 3413 
Q 3000 3413 3387 2928 
Q 3775 2444 3775 1663 
Q 3775 881 3387 395 
Q 3000 -91 2388 -91 
Q 2003 -91 1742 57 
Q 1481 206 1313 519 
L 1313 0 
L 184 0 
L 184 331 
L 738 331 
z
M 1313 1497 
Q 1313 897 1542 583 
Q 1772 269 2209 269 
Q 2650 269 2876 622 
Q 3103 975 3103 1663 
Q 3103 2353 2876 2703 
Q 2650 3053 2209 3053 
Q 1772 3053 1542 2737 
Q 1313 2422 1313 1825 
L 1313 1497 
z
" transform="scale(0.015625)"/>
       <path id="DejaVuSerif-65" d="M 3469 1600 
L 991 1600 
L 991 1575 
Q 991 903 1244 561 
Q 1497 219 1991 219 
Q 2369 219 2611 417 
Q 2853 616 2950 1006 
L 3413 1006 
Q 3275 459 2904 184 
Q 2534 -91 1931 -91 
Q 1203 -91 761 389 
Q 319 869 319 1663 
Q 319 2450 753 2931 
Q 1188 3413 1894 3413 
Q 2647 3413 3050 2948 
Q 3453 2484 3469 1600 
z
M 2791 1931 
Q 2772 2513 2545 2808 
Q 2319 3103 1894 3103 
Q 1497 3103 1269 2806 
Q 1041 2509 991 1931 
L 2791 1931 
z
" transform="scale(0.015625)"/>
       <path id="DejaVuSerif-72" d="M 3059 3328 
L 3059 2497 
L 2728 2497 
Q 2713 2744 2591 2866 
Q 2469 2988 2234 2988 
Q 1809 2988 1582 2694 
Q 1356 2400 1356 1850 
L 1356 331 
L 2022 331 
L 2022 0 
L 263 0 
L 263 331 
L 781 331 
L 781 2994 
L 231 2994 
L 231 3322 
L 1356 3322 
L 1356 2731 
Q 1525 3078 1790 3245 
Q 2056 3413 2438 3413 
Q 2578 3413 2733 3391 
Q 2888 3369 3059 3328 
z
" transform="scale(0.015625)"/>
       <path id="DejaVuSerif-20" transform="scale(0.015625)"/>
       <path id="DejaVuSerif-6f" d="M 1925 219 
Q 2388 219 2623 584 
Q 2859 950 2859 1663 
Q 2859 2375 2623 2739 
Q 2388 3103 1925 3103 
Q 1463 3103 1227 2739 
Q 991 2375 991 1663 
Q 991 950 1228 584 
Q 1466 219 1925 219 
z
M 1925 -91 
Q 1200 -91 759 389 
Q 319 869 319 1663 
Q 319 2456 758 2934 
Q 1197 3413 1925 3413 
Q 2653 3413 3092 2934 
Q 3531 2456 3531 1663 
Q 3531 869 3092 389 
Q 2653 -91 1925 -91 
z
" transform="scale(0.015625)"/>
       <path id="DejaVuSerif-66" d="M 2753 4078 
L 2450 4078 
Q 2447 4313 2317 4434 
Q 2188 4556 1941 4556 
Q 1619 4556 1487 4379 
Q 1356 4203 1356 3750 
L 1356 3322 
L 2284 3322 
L 2284 2988 
L 1356 2988 
L 1356 331 
L 2094 331 
L 2094 0 
L 231 0 
L 231 331 
L 781 331 
L 781 2988 
L 231 2988 
L 231 3322 
L 781 3322 
L 781 3738 
Q 781 4294 1070 4578 
Q 1359 4863 1919 4863 
Q 2128 4863 2337 4825 
Q 2547 4788 2753 4709 
L 2753 4078 
z
" transform="scale(0.015625)"/>
       <path id="DejaVuSerif-7a" d="M 256 0 
L 256 269 
L 2338 2988 
L 691 2988 
L 691 2413 
L 359 2413 
L 359 3322 
L 3078 3322 
L 3078 3053 
L 997 331 
L 2803 331 
L 2803 934 
L 3138 934 
L 3138 0 
L 256 0 
z
" transform="scale(0.015625)"/>
       <path id="DejaVuSerif-73" d="M 359 184 
L 359 959 
L 691 959 
Q 703 588 923 403 
Q 1144 219 1575 219 
Q 1963 219 2166 364 
Q 2369 509 2369 788 
Q 2369 1006 2220 1140 
Q 2072 1275 1594 1428 
L 1178 1569 
Q 750 1706 558 1912 
Q 366 2119 366 2438 
Q 366 2894 700 3153 
Q 1034 3413 1625 3413 
Q 1888 3413 2178 3344 
Q 2469 3275 2778 3144 
L 2778 2419 
L 2447 2419 
Q 2434 2741 2221 2922 
Q 2009 3103 1644 3103 
Q 1281 3103 1095 2975 
Q 909 2847 909 2591 
Q 909 2381 1050 2254 
Q 1191 2128 1613 1997 
L 2069 1856 
Q 2541 1709 2748 1489 
Q 2956 1269 2956 922 
Q 2956 450 2595 179 
Q 2234 -91 1600 -91 
Q 1278 -91 972 -22 
Q 666 47 359 184 
z
" transform="scale(0.015625)"/>
       <path id="DejaVuSerif-70" d="M 1313 1825 
L 1313 1497 
Q 1313 897 1542 583 
Q 1772 269 2209 269 
Q 2650 269 2876 622 
Q 3103 975 3103 1663 
Q 3103 2353 2876 2703 
Q 2650 3053 2209 3053 
Q 1772 3053 1542 2737 
Q 1313 2422 1313 1825 
z
M 738 2988 
L 184 2988 
L 184 3322 
L 1313 3322 
L 1313 2803 
Q 1481 3116 1742 3264 
Q 2003 3413 2388 3413 
Q 3000 3413 3387 2928 
Q 3775 2444 3775 1663 
Q 3775 881 3387 395 
Q 3000 -91 2388 -91 
Q 2003 -91 1742 57 
Q 1481 206 1313 519 
L 1313 -997 
L 1856 -997 
L 1856 -1331 
L 184 -1331 
L 184 -997 
L 738 -997 
L 738 2988 
z
" transform="scale(0.015625)"/>
       <path id="DejaVuSerif-63" d="M 3291 997 
Q 3169 466 2822 187 
Q 2475 -91 1925 -91 
Q 1200 -91 759 389 
Q 319 869 319 1663 
Q 319 2459 759 2936 
Q 1200 3413 1925 3413 
Q 2241 3413 2553 3339 
Q 2866 3266 3181 3116 
L 3181 2266 
L 2847 2266 
Q 2781 2703 2561 2903 
Q 2341 3103 1931 3103 
Q 1466 3103 1228 2742 
Q 991 2381 991 1663 
Q 991 944 1227 581 
Q 1463 219 1931 219 
Q 2303 219 2525 412 
Q 2747 606 2828 997 
L 3291 997 
z
" transform="scale(0.015625)"/>
       <path id="DejaVuSerif-6c" d="M 1313 331 
L 1856 331 
L 1856 0 
L 184 0 
L 184 331 
L 738 331 
L 738 4531 
L 184 4531 
L 184 4863 
L 1313 4863 
L 1313 331 
z
" transform="scale(0.015625)"/>
      </defs>
      <use xlink:href="#DejaVuSerif-4e"/>
      <use xlink:href="#DejaVuSerif-75" x="87.5"/>
      <use xlink:href="#DejaVuSerif-6d" x="151.904297"/>
      <use xlink:href="#DejaVuSerif-62" x="246.728516"/>
      <use xlink:href="#DejaVuSerif-65" x="310.742188"/>
      <use xlink:href="#DejaVuSerif-72" x="369.921875"/>
      <use xlink:href="#DejaVuSerif-20" x="417.724609"/>
      <use xlink:href="#DejaVuSerif-6f" x="449.511719"/>
      <use xlink:href="#DejaVuSerif-66" x="509.716797"/>
      <use xlink:href="#DejaVuSerif-20" x="546.728516"/>
      <use xlink:href="#DejaVuSerif-7a" x="578.515625"/>
      <use xlink:href="#DejaVuSerif-65" x="631.201172"/>
      <use xlink:href="#DejaVuSerif-72" x="690.380859"/>
      <use xlink:href="#DejaVuSerif-6f" x="738.183594"/>
      <use xlink:href="#DejaVuSerif-65" x="798.388672"/>
      <use xlink:href="#DejaVuSerif-73" x="857.568359"/>
      <use xlink:href="#DejaVuSerif-20" x="908.886719"/>
      <use xlink:href="#DejaVuSerif-70" x="940.673828"/>
      <use xlink:href="#DejaVuSerif-65" x="1004.6875"/>
      <use xlink:href="#DejaVuSerif-72" x="1063.867188"/>
      <use xlink:href="#DejaVuSerif-20" x="1111.669922"/>
      <use xlink:href="#DejaVuSerif-63" x="1143.457031"/>
      <use xlink:href="#DejaVuSerif-65" x="1199.462891"/>
      <use xlink:href="#DejaVuSerif-6c" x="1258.642578"/>
      <use xlink:href="#DejaVuSerif-6c" x="1290.625"/>
     </g>
    </g>
   </g>
   <g id="matplotlib.axis_2">
    <g id="ytick_1">
     <g id="line2d_8">
      <defs>
       <path id="mf69a28038d" d="M 0 0 
L -3.5 0 
" style="stroke: #000000; stroke-width: 0.8"/>
      </defs>
      <g>
       <use xlink:href="#mf69a28038d" x="57.26" y="298.591221" style="stroke: #000000; stroke-width: 0.8"/>
      </g>
     </g>
     <g id="text_9">
      <!-- 0 -->
      <g transform="translate(43.8975 302.39044) scale(0.1 -0.1)">
       <use xlink:href="#DejaVuSerif-30"/>
      </g>
     </g>
    </g>
    <g id="ytick_2">
     <g id="line2d_9">
      <g>
       <use xlink:href="#mf69a28038d" x="57.26" y="260.030465" style="stroke: #000000; stroke-width: 0.8"/>
      </g>
     </g>
     <g id="text_10">
      <!-- 200 -->
      <g transform="translate(31.1725 263.829684) scale(0.1 -0.1)">
       <use xlink:href="#DejaVuSerif-32"/>
       <use xlink:href="#DejaVuSerif-30" x="63.623047"/>
       <use xlink:href="#DejaVuSerif-30" x="127.246094"/>
      </g>
     </g>
    </g>
    <g id="ytick_3">
     <g id="line2d_10">
      <g>
       <use xlink:href="#mf69a28038d" x="57.26" y="221.46971" style="stroke: #000000; stroke-width: 0.8"/>
      </g>
     </g>
     <g id="text_11">
      <!-- 400 -->
      <g transform="translate(31.1725 225.268929) scale(0.1 -0.1)">
       <use xlink:href="#DejaVuSerif-34"/>
       <use xlink:href="#DejaVuSerif-30" x="63.623047"/>
       <use xlink:href="#DejaVuSerif-30" x="127.246094"/>
      </g>
     </g>
    </g>
    <g id="ytick_4">
     <g id="line2d_11">
      <g>
       <use xlink:href="#mf69a28038d" x="57.26" y="182.908954" style="stroke: #000000; stroke-width: 0.8"/>
      </g>
     </g>
     <g id="text_12">
      <!-- 600 -->
      <g transform="translate(31.1725 186.708173) scale(0.1 -0.1)">
       <use xlink:href="#DejaVuSerif-36"/>
       <use xlink:href="#DejaVuSerif-30" x="63.623047"/>
       <use xlink:href="#DejaVuSerif-30" x="127.246094"/>
      </g>
     </g>
    </g>
    <g id="ytick_5">
     <g id="line2d_12">
      <g>
       <use xlink:href="#mf69a28038d" x="57.26" y="144.348199" style="stroke: #000000; stroke-width: 0.8"/>
      </g>
     </g>
     <g id="text_13">
      <!-- 800 -->
      <g transform="translate(31.1725 148.147418) scale(0.1 -0.1)">
       <defs>
        <path id="DejaVuSerif-38" d="M 2981 1275 
Q 2981 1775 2732 2051 
Q 2484 2328 2034 2328 
Q 1584 2328 1336 2051 
Q 1088 1775 1088 1275 
Q 1088 772 1336 495 
Q 1584 219 2034 219 
Q 2484 219 2732 495 
Q 2981 772 2981 1275 
z
M 2853 3541 
Q 2853 3966 2637 4203 
Q 2422 4441 2034 4441 
Q 1650 4441 1433 4203 
Q 1216 3966 1216 3541 
Q 1216 3113 1433 2875 
Q 1650 2638 2034 2638 
Q 2422 2638 2637 2875 
Q 2853 3113 2853 3541 
z
M 2516 2484 
Q 3047 2413 3344 2092 
Q 3641 1772 3641 1275 
Q 3641 619 3225 264 
Q 2809 -91 2034 -91 
Q 1263 -91 845 264 
Q 428 619 428 1275 
Q 428 1772 725 2092 
Q 1022 2413 1556 2484 
Q 1084 2569 832 2842 
Q 581 3116 581 3541 
Q 581 4103 968 4426 
Q 1356 4750 2034 4750 
Q 2713 4750 3100 4426 
Q 3488 4103 3488 3541 
Q 3488 3116 3236 2842 
Q 2984 2569 2516 2484 
z
" transform="scale(0.015625)"/>
       </defs>
       <use xlink:href="#DejaVuSerif-38"/>
       <use xlink:href="#DejaVuSerif-30" x="63.623047"/>
       <use xlink:href="#DejaVuSerif-30" x="127.246094"/>
      </g>
     </g>
    </g>
    <g id="ytick_6">
     <g id="line2d_13">
      <g>
       <use xlink:href="#mf69a28038d" x="57.26" y="105.787444" style="stroke: #000000; stroke-width: 0.8"/>
      </g>
     </g>
     <g id="text_14">
      <!-- 1000 -->
      <g transform="translate(24.81 109.586662) scale(0.1 -0.1)">
       <use xlink:href="#DejaVuSerif-31"/>
       <use xlink:href="#DejaVuSerif-30" x="63.623047"/>
       <use xlink:href="#DejaVuSerif-30" x="127.246094"/>
       <use xlink:href="#DejaVuSerif-30" x="190.869141"/>
      </g>
     </g>
    </g>
    <g id="ytick_7">
     <g id="line2d_14">
      <g>
       <use xlink:href="#mf69a28038d" x="57.26" y="67.226688" style="stroke: #000000; stroke-width: 0.8"/>
      </g>
     </g>
     <g id="text_15">
      <!-- 1200 -->
      <g transform="translate(24.81 71.025907) scale(0.1 -0.1)">
       <use xlink:href="#DejaVuSerif-31"/>
       <use xlink:href="#DejaVuSerif-32" x="63.623047"/>
       <use xlink:href="#DejaVuSerif-30" x="127.246094"/>
       <use xlink:href="#DejaVuSerif-30" x="190.869141"/>
      </g>
     </g>
    </g>
    <g id="ytick_8">
     <g id="line2d_15">
      <g>
       <use xlink:href="#mf69a28038d" x="57.26" y="28.665933" style="stroke: #000000; stroke-width: 0.8"/>
      </g>
     </g>
     <g id="text_16">
      <!-- 1400 -->
      <g transform="translate(24.81 32.465151) scale(0.1 -0.1)">
       <use xlink:href="#DejaVuSerif-31"/>
       <use xlink:href="#DejaVuSerif-34" x="63.623047"/>
       <use xlink:href="#DejaVuSerif-30" x="127.246094"/>
       <use xlink:href="#DejaVuSerif-30" x="190.869141"/>
      </g>
     </g>
    </g>
    <g id="text_17">
     <!-- Frequency -->
     <g transform="translate(18.588125 189.420142) rotate(-90) scale(0.1 -0.1)">
      <defs>
       <path id="DejaVuSerif-46" d="M 353 0 
L 353 331 
L 947 331 
L 947 4331 
L 353 4331 
L 353 4666 
L 4172 4666 
L 4172 3628 
L 3788 3628 
L 3788 4281 
L 1581 4281 
L 1581 2719 
L 3175 2719 
L 3175 3303 
L 3559 3303 
L 3559 1753 
L 3175 1753 
L 3175 2338 
L 1581 2338 
L 1581 331 
L 2328 331 
L 2328 0 
L 353 0 
z
" transform="scale(0.015625)"/>
       <path id="DejaVuSerif-71" d="M 3359 2988 
L 3359 -997 
L 3909 -997 
L 3909 -1331 
L 2241 -1331 
L 2241 -997 
L 2784 -997 
L 2784 519 
Q 2616 206 2355 57 
Q 2094 -91 1709 -91 
Q 1097 -91 708 395 
Q 319 881 319 1663 
Q 319 2444 706 2928 
Q 1094 3413 1709 3413 
Q 2094 3413 2355 3264 
Q 2616 3116 2784 2803 
L 2784 3322 
L 3909 3322 
L 3909 2988 
L 3359 2988 
z
M 2784 1825 
Q 2784 2422 2554 2737 
Q 2325 3053 1888 3053 
Q 1444 3053 1217 2703 
Q 991 2353 991 1663 
Q 991 975 1217 622 
Q 1444 269 1888 269 
Q 2325 269 2554 583 
Q 2784 897 2784 1497 
L 2784 1825 
z
" transform="scale(0.015625)"/>
       <path id="DejaVuSerif-6e" d="M 263 0 
L 263 331 
L 781 331 
L 781 2988 
L 231 2988 
L 231 3322 
L 1356 3322 
L 1356 2731 
Q 1516 3069 1770 3241 
Q 2025 3413 2363 3413 
Q 2913 3413 3172 3097 
Q 3431 2781 3431 2113 
L 3431 331 
L 3944 331 
L 3944 0 
L 2356 0 
L 2356 331 
L 2853 331 
L 2853 1931 
Q 2853 2541 2703 2767 
Q 2553 2994 2175 2994 
Q 1775 2994 1565 2701 
Q 1356 2409 1356 1850 
L 1356 331 
L 1856 331 
L 1856 0 
L 263 0 
z
" transform="scale(0.015625)"/>
       <path id="DejaVuSerif-79" d="M 1381 -609 
L 1600 -56 
L 359 2988 
L -19 2988 
L -19 3322 
L 1509 3322 
L 1509 2988 
L 978 2988 
L 1913 703 
L 2847 2988 
L 2350 2988 
L 2350 3322 
L 3597 3322 
L 3597 2988 
L 3225 2988 
L 1703 -750 
Q 1547 -1138 1356 -1280 
Q 1166 -1422 819 -1422 
Q 672 -1422 517 -1397 
Q 363 -1372 206 -1325 
L 206 -691 
L 500 -691 
Q 519 -903 608 -995 
Q 697 -1088 884 -1088 
Q 1056 -1088 1161 -992 
Q 1266 -897 1381 -609 
z
" transform="scale(0.015625)"/>
      </defs>
      <use xlink:href="#DejaVuSerif-46"/>
      <use xlink:href="#DejaVuSerif-72" x="69.384766"/>
      <use xlink:href="#DejaVuSerif-65" x="117.1875"/>
      <use xlink:href="#DejaVuSerif-71" x="176.367188"/>
      <use xlink:href="#DejaVuSerif-75" x="240.380859"/>
      <use xlink:href="#DejaVuSerif-65" x="304.785156"/>
      <use xlink:href="#DejaVuSerif-6e" x="363.964844"/>
      <use xlink:href="#DejaVuSerif-63" x="428.369141"/>
      <use xlink:href="#DejaVuSerif-79" x="484.375"/>
     </g>
    </g>
   </g>
   <g id="line2d_16">
    <path d="M 70.272125 298.591221 
L 190.585239 298.489768 
L 195.816244 298.016625 
L 197.123995 297.730872 
L 198.431746 297.095396 
L 199.739497 296.046825 
L 202.355 293.318041 
L 203.662751 291.823758 
L 204.970502 290.0885 
L 206.278253 288.023651 
L 210.201507 280.873243 
L 211.509258 278.305506 
L 212.81701 275.27367 
L 214.124761 271.199146 
L 215.432512 265.593187 
L 218.048015 251.023113 
L 220.663517 236.883729 
L 221.971268 229.915716 
L 223.27902 221.980224 
L 224.586771 212.252981 
L 225.894522 199.926999 
L 227.202273 184.545582 
L 229.817776 147.941264 
L 232.433278 111.623126 
L 235.048781 78.346639 
L 236.356532 64.709638 
L 237.664283 53.894515 
L 238.972034 45.910547 
L 240.279786 40.912122 
L 241.587537 39.132915 
L 242.895288 40.279328 
L 244.203039 43.270513 
L 245.510791 46.685386 
L 246.818542 49.584634 
L 248.126293 52.079804 
L 249.434044 55.216724 
L 250.741796 60.235466 
L 252.049547 67.868059 
L 253.357298 78.324983 
L 254.665049 91.619561 
L 255.9728 107.52267 
L 259.896054 161.129248 
L 261.203805 176.492449 
L 267.742562 242.610359 
L 269.050313 254.788593 
L 270.358064 264.996582 
L 271.665815 273.219974 
L 272.973567 279.833826 
L 274.281318 285.259284 
L 275.589069 289.639095 
L 276.89682 292.831955 
L 278.204571 294.776621 
L 279.512323 295.793429 
L 283.435576 297.675986 
L 284.743328 298.155238 
L 286.051079 298.427996 
L 288.666581 298.580391 
L 305.667347 298.591221 
L 330.514621 298.591221 
L 330.514621 298.591221 
" clip-path="url(#p2061a6e4c7)" style="fill: none; stroke: #d55e00; stroke-width: 2; stroke-linecap: square"/>
   </g>
   <g id="line2d_17">
    <path d="M 70.272125 298.591221 
L 88.580642 298.514776 
L 92.503896 298.273857 
L 95.119398 297.924478 
L 97.734901 297.365875 
L 100.350403 296.570983 
L 102.965906 295.525993 
L 105.581408 294.201868 
L 108.196911 292.556008 
L 110.812413 290.598542 
L 119.966672 283.251375 
L 122.582174 281.673983 
L 123.889926 281.080762 
L 125.197677 280.631558 
L 127.813179 280.112818 
L 134.351935 279.433036 
L 136.967438 278.849354 
L 139.58294 278.022159 
L 142.198443 276.9912 
L 144.813945 275.772264 
L 147.429448 274.289752 
L 148.737199 273.392783 
L 150.04495 272.351397 
L 151.352702 271.137574 
L 152.660453 269.735273 
L 155.275955 266.411297 
L 163.122463 255.581588 
L 165.737965 251.831597 
L 168.353468 247.583699 
L 172.276721 240.996623 
L 177.507726 232.783944 
L 178.815477 230.475519 
L 180.123229 227.905282 
L 181.43098 225.001328 
L 182.738731 221.689697 
L 184.046482 217.892586 
L 185.354234 213.535875 
L 186.661985 208.562277 
L 187.969736 202.941301 
L 189.277487 196.668942 
L 190.585239 189.757247 
L 193.200741 174.076688 
L 195.816244 156.100258 
L 201.047249 118.067731 
L 202.355 110.06778 
L 203.662751 103.456863 
L 204.970502 98.494593 
L 206.278253 95.291455 
L 207.586005 93.819296 
L 208.893756 93.964646 
L 210.201507 95.605793 
L 211.509258 98.684209 
L 212.81701 103.242813 
L 214.124761 109.416753 
L 215.432512 117.380844 
L 216.740263 127.273089 
L 218.048015 139.119816 
L 219.355766 152.783886 
L 221.971268 184.128008 
L 225.894522 232.597443 
L 227.202273 246.704423 
L 228.510024 259.028837 
L 229.817776 269.365461 
L 231.125527 277.688922 
L 232.433278 284.125806 
L 233.741029 288.908835 
L 235.048781 292.325678 
L 236.356532 294.673459 
L 237.664283 296.225637 
L 238.972034 297.213065 
L 240.279786 297.817352 
L 241.587537 298.172904 
L 244.203039 298.482828 
L 248.126293 298.580911 
L 274.281318 298.591221 
L 330.514621 298.591221 
L 330.514621 298.591221 
" clip-path="url(#p2061a6e4c7)" style="fill: none; stroke: #029e73; stroke-width: 2; stroke-linecap: square"/>
   </g>
   <g id="line2d_18">
    <path d="M 70.272125 298.42166 
L 91.196145 298.411199 
L 109.504662 297.930846 
L 117.351169 298.03324 
L 123.889926 298.066375 
L 129.12093 297.878917 
L 134.351935 297.437501 
L 138.275189 296.826527 
L 142.198443 295.878471 
L 148.737199 294.146187 
L 151.352702 293.668786 
L 155.275955 293.195492 
L 163.122463 292.426664 
L 167.045716 291.762979 
L 174.892224 290.177825 
L 181.43098 289.146735 
L 184.046482 288.402967 
L 186.661985 287.286201 
L 189.277487 285.82005 
L 194.508492 282.57906 
L 197.123995 281.267503 
L 199.739497 280.285145 
L 207.586005 277.738557 
L 219.355766 273.117845 
L 221.971268 271.521617 
L 224.586771 269.514536 
L 227.202273 267.091345 
L 229.817776 264.179824 
L 232.433278 260.641815 
L 235.048781 256.359185 
L 237.664283 251.319465 
L 240.279786 245.626336 
L 242.895288 239.399608 
L 245.510791 232.592877 
L 248.126293 224.864534 
L 249.434044 220.483134 
L 250.741796 215.662067 
L 252.049547 210.346733 
L 253.357298 204.506512 
L 255.9728 191.280485 
L 258.588303 176.3772 
L 263.819308 145.760484 
L 265.127059 139.028502 
L 266.43481 133.049449 
L 267.742562 127.968811 
L 269.050313 123.883843 
L 270.358064 120.840108 
L 271.665815 118.836772 
L 272.973567 117.839137 
L 274.281318 117.795272 
L 275.589069 118.652975 
L 276.89682 120.373843 
L 278.204571 122.942347 
L 279.512323 126.369081 
L 280.820074 130.688276 
L 282.127825 135.950023 
L 283.435576 142.207815 
L 284.743328 149.502157 
L 286.051079 157.841725 
L 287.35883 167.184674 
L 289.974333 188.380709 
L 295.205338 233.905768 
L 296.513089 244.217402 
L 297.82084 253.614949 
L 299.128591 261.968605 
L 300.436343 269.22179 
L 301.744094 275.382062 
L 303.051845 280.50695 
L 304.359596 284.688318 
L 305.667347 288.037823 
L 306.975099 290.674845 
L 308.28285 292.717294 
L 309.590601 294.275159 
L 310.898352 295.44648 
L 312.206104 296.31535 
L 313.513855 296.951483 
L 314.821606 297.410934 
L 317.437109 297.964582 
L 320.052611 298.213265 
L 323.975865 298.290597 
L 330.514621 298.250257 
L 330.514621 298.250257 
" clip-path="url(#p2061a6e4c7)" style="fill: none; stroke: #de8f05; stroke-width: 2; stroke-linecap: square"/>
   </g>
   <g id="line2d_19">
    <path d="M 70.272125 298.582283 
L 100.350403 298.384754 
L 106.889159 298.081081 
L 117.351169 297.495531 
L 123.889926 297.301616 
L 126.505428 297.022797 
L 130.428682 296.293576 
L 135.659687 295.235288 
L 139.58294 294.767458 
L 146.121697 294.189608 
L 148.737199 293.753226 
L 152.660453 292.823035 
L 163.122463 290.070916 
L 167.045716 289.259473 
L 173.584473 288.175406 
L 176.199975 287.456815 
L 178.815477 286.453434 
L 186.661985 283.071289 
L 190.585239 281.807759 
L 194.508492 280.517484 
L 197.123995 279.344843 
L 199.739497 277.790015 
L 202.355 275.86637 
L 206.278253 272.513465 
L 216.740263 263.142878 
L 219.355766 261.085055 
L 221.971268 259.242883 
L 227.202273 255.961022 
L 231.125527 253.419808 
L 233.741029 251.456868 
L 235.048781 250.316398 
L 236.356532 249.017409 
L 237.664283 247.515356 
L 238.972034 245.768293 
L 240.279786 243.743497 
L 241.587537 241.423097 
L 242.895288 238.807226 
L 245.510791 232.774994 
L 248.126293 225.921418 
L 250.741796 218.527941 
L 253.357298 210.689423 
L 255.9728 202.239078 
L 258.588303 192.78669 
L 261.203805 181.823545 
L 263.819308 168.912688 
L 266.43481 154.01524 
L 271.665815 122.33092 
L 272.973567 115.580948 
L 274.281318 110.020865 
L 275.589069 106.031697 
L 276.89682 103.966765 
L 278.204571 104.126235 
L 279.512323 106.732249 
L 280.820074 111.905306 
L 282.127825 119.643547 
L 283.435576 129.808024 
L 284.743328 142.118096 
L 286.051079 156.160883 
L 289.974333 203.209519 
L 292.589835 232.932144 
L 293.897586 245.901674 
L 295.205338 257.25925 
L 296.513089 266.907369 
L 297.82084 274.864806 
L 299.128591 281.24123 
L 300.436343 286.207918 
L 301.744094 289.969386 
L 303.051845 292.739272 
L 304.359596 294.72213 
L 305.667347 296.10145 
L 306.975099 297.033246 
L 308.28285 297.644099 
L 309.590601 298.032385 
L 312.206104 298.413994 
L 316.129357 298.566473 
L 329.20687 298.591217 
L 330.514621 298.59122 
L 330.514621 298.59122 
" clip-path="url(#p2061a6e4c7)" style="fill: none; stroke: #0173b2; stroke-width: 2; stroke-linecap: square"/>
   </g>
   <g id="patch_83">
    <path d="M 57.26 298.591221 
L 57.26 26.16 
" style="fill: none; stroke: #000000; stroke-width: 0.8; stroke-linejoin: miter; stroke-linecap: square"/>
   </g>
   <g id="patch_84">
    <path d="M 343.526746 298.591221 
L 343.526746 26.16 
" style="fill: none; stroke: #000000; stroke-width: 0.8; stroke-linejoin: miter; stroke-linecap: square"/>
   </g>
   <g id="patch_85">
    <path d="M 57.26 298.591221 
L 343.526746 298.591221 
" style="fill: none; stroke: #000000; stroke-width: 0.8; stroke-linejoin: miter; stroke-linecap: square"/>
   </g>
   <g id="patch_86">
    <path d="M 57.26 26.16 
L 343.526746 26.16 
" style="fill: none; stroke: #000000; stroke-width: 0.8; stroke-linejoin: miter; stroke-linecap: square"/>
   </g>
   <g id="text_18">
    <!-- Dentate gyrus -->
    <g transform="translate(157.267435 20.16) scale(0.12 -0.12)">
     <defs>
      <path id="DejaVuSerif-44" d="M 1581 331 
L 2163 331 
Q 3072 331 3558 850 
Q 4044 1369 4044 2338 
Q 4044 3306 3559 3818 
Q 3075 4331 2163 4331 
L 1581 4331 
L 1581 331 
z
M 353 0 
L 353 331 
L 947 331 
L 947 4331 
L 353 4331 
L 353 4666 
L 2209 4666 
Q 3416 4666 4089 4050 
Q 4763 3434 4763 2338 
Q 4763 1238 4088 619 
Q 3413 0 2209 0 
L 353 0 
z
" transform="scale(0.015625)"/>
      <path id="DejaVuSerif-74" d="M 691 2988 
L 184 2988 
L 184 3322 
L 691 3322 
L 691 4353 
L 1269 4353 
L 1269 3322 
L 2350 3322 
L 2350 2988 
L 1269 2988 
L 1269 878 
Q 1269 456 1350 337 
Q 1431 219 1650 219 
Q 1875 219 1978 351 
Q 2081 484 2088 781 
L 2522 781 
Q 2497 328 2275 118 
Q 2053 -91 1600 -91 
Q 1103 -91 897 129 
Q 691 350 691 878 
L 691 2988 
z
" transform="scale(0.015625)"/>
      <path id="DejaVuSerif-61" d="M 2547 1044 
L 2547 1747 
L 1806 1747 
Q 1378 1747 1168 1562 
Q 959 1378 959 997 
Q 959 650 1171 447 
Q 1384 244 1747 244 
Q 2106 244 2326 466 
Q 2547 688 2547 1044 
z
M 3122 2075 
L 3122 331 
L 3634 331 
L 3634 0 
L 2547 0 
L 2547 359 
Q 2356 128 2106 18 
Q 1856 -91 1522 -91 
Q 969 -91 644 203 
Q 319 497 319 997 
Q 319 1513 691 1797 
Q 1063 2081 1741 2081 
L 2547 2081 
L 2547 2309 
Q 2547 2688 2317 2895 
Q 2088 3103 1672 3103 
Q 1328 3103 1125 2947 
Q 922 2791 872 2484 
L 575 2484 
L 575 3156 
Q 875 3284 1158 3348 
Q 1441 3413 1709 3413 
Q 2400 3413 2761 3070 
Q 3122 2728 3122 2075 
z
" transform="scale(0.015625)"/>
      <path id="DejaVuSerif-67" d="M 3359 2988 
L 3359 72 
Q 3359 -644 2965 -1033 
Q 2572 -1422 1844 -1422 
Q 1516 -1422 1216 -1362 
Q 916 -1303 641 -1184 
L 641 -488 
L 941 -488 
Q 997 -813 1206 -963 
Q 1416 -1113 1806 -1113 
Q 2313 -1113 2548 -827 
Q 2784 -541 2784 72 
L 2784 519 
Q 2616 206 2355 57 
Q 2094 -91 1709 -91 
Q 1097 -91 708 395 
Q 319 881 319 1663 
Q 319 2444 706 2928 
Q 1094 3413 1709 3413 
Q 2094 3413 2355 3264 
Q 2616 3116 2784 2803 
L 2784 3322 
L 3909 3322 
L 3909 2988 
L 3359 2988 
z
M 2784 1825 
Q 2784 2422 2554 2737 
Q 2325 3053 1888 3053 
Q 1444 3053 1217 2703 
Q 991 2353 991 1663 
Q 991 975 1217 622 
Q 1444 269 1888 269 
Q 2325 269 2554 583 
Q 2784 897 2784 1497 
L 2784 1825 
z
" transform="scale(0.015625)"/>
     </defs>
     <use xlink:href="#DejaVuSerif-44"/>
     <use xlink:href="#DejaVuSerif-65" x="80.175781"/>
     <use xlink:href="#DejaVuSerif-6e" x="139.355469"/>
     <use xlink:href="#DejaVuSerif-74" x="203.759766"/>
     <use xlink:href="#DejaVuSerif-61" x="243.945312"/>
     <use xlink:href="#DejaVuSerif-74" x="303.564453"/>
     <use xlink:href="#DejaVuSerif-65" x="343.75"/>
     <use xlink:href="#DejaVuSerif-20" x="402.929688"/>
     <use xlink:href="#DejaVuSerif-67" x="434.716797"/>
     <use xlink:href="#DejaVuSerif-79" x="498.730469"/>
     <use xlink:href="#DejaVuSerif-72" x="555.224609"/>
     <use xlink:href="#DejaVuSerif-75" x="603.027344"/>
     <use xlink:href="#DejaVuSerif-73" x="667.431641"/>
    </g>
   </g>
   <g id="legend_1">
    <g id="patch_87">
     <path d="M 64.26 107.550625 
L 152.84125 107.550625 
Q 154.84125 107.550625 154.84125 105.550625 
L 154.84125 33.16 
Q 154.84125 31.16 152.84125 31.16 
L 64.26 31.16 
Q 62.26 31.16 62.26 33.16 
L 62.26 105.550625 
Q 62.26 107.550625 64.26 107.550625 
z
" style="fill: #ffffff; opacity: 0.8; stroke: #cccccc; stroke-linejoin: miter"/>
    </g>
    <g id="text_19">
     <!-- Model -->
     <g transform="translate(92.661563 42.758437) scale(0.1 -0.1)">
      <defs>
       <path id="DejaVuSerif-4d" d="M 353 0 
L 353 331 
L 947 331 
L 947 4331 
L 319 4331 
L 319 4666 
L 1678 4666 
L 3316 1344 
L 4953 4666 
L 6228 4666 
L 6228 4331 
L 5606 4331 
L 5606 331 
L 6203 331 
L 6203 0 
L 4378 0 
L 4378 331 
L 4972 331 
L 4972 3938 
L 3372 684 
L 2931 684 
L 1331 3938 
L 1331 331 
L 1925 331 
L 1925 0 
L 353 0 
z
" transform="scale(0.015625)"/>
       <path id="DejaVuSerif-64" d="M 3359 331 
L 3909 331 
L 3909 0 
L 2784 0 
L 2784 519 
Q 2616 206 2355 57 
Q 2094 -91 1709 -91 
Q 1097 -91 708 395 
Q 319 881 319 1663 
Q 319 2444 706 2928 
Q 1094 3413 1709 3413 
Q 2094 3413 2355 3264 
Q 2616 3116 2784 2803 
L 2784 4531 
L 2241 4531 
L 2241 4863 
L 3359 4863 
L 3359 331 
z
M 2784 1497 
L 2784 1825 
Q 2784 2422 2554 2737 
Q 2325 3053 1888 3053 
Q 1444 3053 1217 2703 
Q 991 2353 991 1663 
Q 991 975 1217 622 
Q 1444 269 1888 269 
Q 2325 269 2554 583 
Q 2784 897 2784 1497 
z
" transform="scale(0.015625)"/>
      </defs>
      <use xlink:href="#DejaVuSerif-4d"/>
      <use xlink:href="#DejaVuSerif-6f" x="102.392578"/>
      <use xlink:href="#DejaVuSerif-64" x="162.597656"/>
      <use xlink:href="#DejaVuSerif-65" x="226.611328"/>
      <use xlink:href="#DejaVuSerif-6c" x="285.791016"/>
     </g>
    </g>
    <g id="patch_88">
     <path d="M 66.26 57.436562 
L 86.26 57.436562 
L 86.26 50.436562 
L 66.26 50.436562 
z
" style="fill: #0173b2; stroke: #000000; stroke-linejoin: miter"/>
    </g>
    <g id="text_20">
     <!-- Real data -->
     <g transform="translate(94.26 57.436562) scale(0.1 -0.1)">
      <defs>
       <path id="DejaVuSerif-52" d="M 3066 2316 
Q 3284 2256 3442 2114 
Q 3600 1972 3725 1716 
L 4403 331 
L 4972 331 
L 4972 0 
L 3872 0 
L 3144 1484 
Q 2934 1916 2759 2042 
Q 2584 2169 2278 2169 
L 1581 2169 
L 1581 331 
L 2241 331 
L 2241 0 
L 353 0 
L 353 331 
L 947 331 
L 947 4331 
L 353 4331 
L 353 4666 
L 2719 4666 
Q 3400 4666 3770 4341 
Q 4141 4016 4141 3419 
Q 4141 2938 3870 2661 
Q 3600 2384 3066 2316 
z
M 1581 2503 
L 2503 2503 
Q 2975 2503 3200 2726 
Q 3425 2950 3425 3419 
Q 3425 3888 3200 4109 
Q 2975 4331 2503 4331 
L 1581 4331 
L 1581 2503 
z
" transform="scale(0.015625)"/>
      </defs>
      <use xlink:href="#DejaVuSerif-52"/>
      <use xlink:href="#DejaVuSerif-65" x="75.292969"/>
      <use xlink:href="#DejaVuSerif-61" x="134.472656"/>
      <use xlink:href="#DejaVuSerif-6c" x="194.091797"/>
      <use xlink:href="#DejaVuSerif-20" x="226.074219"/>
      <use xlink:href="#DejaVuSerif-64" x="257.861328"/>
      <use xlink:href="#DejaVuSerif-61" x="321.875"/>
      <use xlink:href="#DejaVuSerif-74" x="381.494141"/>
      <use xlink:href="#DejaVuSerif-61" x="421.679688"/>
     </g>
    </g>
    <g id="patch_89">
     <path d="M 66.26 72.114688 
L 86.26 72.114688 
L 86.26 65.114688 
L 66.26 65.114688 
z
" style="fill: #de8f05; stroke: #000000; stroke-linejoin: miter"/>
    </g>
    <g id="text_21">
     <!-- CFGen -->
     <g transform="translate(94.26 72.114688) scale(0.1 -0.1)">
      <defs>
       <path id="DejaVuSerif-43" d="M 4513 1234 
Q 4306 581 3820 245 
Q 3334 -91 2591 -91 
Q 2134 -91 1743 65 
Q 1353 222 1050 525 
Q 700 875 529 1320 
Q 359 1766 359 2328 
Q 359 3416 987 4083 
Q 1616 4750 2644 4750 
Q 3025 4750 3456 4650 
Q 3888 4550 4384 4347 
L 4384 3272 
L 4031 3272 
Q 3916 3859 3567 4137 
Q 3219 4416 2591 4416 
Q 1844 4416 1459 3886 
Q 1075 3356 1075 2328 
Q 1075 1303 1459 773 
Q 1844 244 2591 244 
Q 3113 244 3450 492 
Q 3788 741 3938 1234 
L 4513 1234 
z
" transform="scale(0.015625)"/>
       <path id="DejaVuSerif-47" d="M 4097 3272 
Q 3988 3856 3641 4136 
Q 3294 4416 2675 4416 
Q 1869 4416 1472 3897 
Q 1075 3378 1075 2328 
Q 1075 1300 1484 772 
Q 1894 244 2688 244 
Q 3041 244 3362 331 
Q 3684 419 3975 594 
L 3975 1797 
L 3097 1797 
L 3097 2131 
L 4609 2131 
L 4609 391 
Q 4194 150 3714 29 
Q 3234 -91 2688 -91 
Q 1631 -91 995 570 
Q 359 1231 359 2328 
Q 359 3434 996 4092 
Q 1634 4750 2713 4750 
Q 3113 4750 3539 4658 
Q 3966 4566 4447 4378 
L 4447 3272 
L 4097 3272 
z
" transform="scale(0.015625)"/>
      </defs>
      <use xlink:href="#DejaVuSerif-43"/>
      <use xlink:href="#DejaVuSerif-46" x="76.513672"/>
      <use xlink:href="#DejaVuSerif-47" x="145.898438"/>
      <use xlink:href="#DejaVuSerif-65" x="225.78125"/>
      <use xlink:href="#DejaVuSerif-6e" x="284.960938"/>
     </g>
    </g>
    <g id="patch_90">
     <path d="M 66.26 86.792812 
L 86.26 86.792812 
L 86.26 79.792812 
L 66.26 79.792812 
z
" style="fill: #029e73; stroke: #000000; stroke-linejoin: miter"/>
    </g>
    <g id="text_22">
     <!-- scDiffusion -->
     <g transform="translate(94.26 86.792812) scale(0.1 -0.1)">
      <defs>
       <path id="DejaVuSerif-69" d="M 622 4353 
Q 622 4497 726 4603 
Q 831 4709 978 4709 
Q 1122 4709 1226 4603 
Q 1331 4497 1331 4353 
Q 1331 4206 1228 4103 
Q 1125 4000 978 4000 
Q 831 4000 726 4103 
Q 622 4206 622 4353 
z
M 1356 331 
L 1900 331 
L 1900 0 
L 231 0 
L 231 331 
L 781 331 
L 781 2988 
L 231 2988 
L 231 3322 
L 1356 3322 
L 1356 331 
z
" transform="scale(0.015625)"/>
      </defs>
      <use xlink:href="#DejaVuSerif-73"/>
      <use xlink:href="#DejaVuSerif-63" x="51.318359"/>
      <use xlink:href="#DejaVuSerif-44" x="107.324219"/>
      <use xlink:href="#DejaVuSerif-69" x="187.5"/>
      <use xlink:href="#DejaVuSerif-66" x="219.482422"/>
      <use xlink:href="#DejaVuSerif-66" x="256.494141"/>
      <use xlink:href="#DejaVuSerif-75" x="293.505859"/>
      <use xlink:href="#DejaVuSerif-73" x="357.910156"/>
      <use xlink:href="#DejaVuSerif-69" x="409.228516"/>
      <use xlink:href="#DejaVuSerif-6f" x="441.210938"/>
      <use xlink:href="#DejaVuSerif-6e" x="501.416016"/>
     </g>
    </g>
    <g id="patch_91">
     <path d="M 66.26 101.470937 
L 86.26 101.470937 
L 86.26 94.470937 
L 66.26 94.470937 
z
" style="fill: #d55e00; stroke: #000000; stroke-linejoin: miter"/>
    </g>
    <g id="text_23">
     <!-- scGAN -->
     <g transform="translate(94.26 101.470937) scale(0.1 -0.1)">
      <defs>
       <path id="DejaVuSerif-41" d="M 1281 1691 
L 2994 1691 
L 2138 3909 
L 1281 1691 
z
M -38 0 
L -38 331 
L 372 331 
L 2034 4666 
L 2559 4666 
L 4225 331 
L 4684 331 
L 4684 0 
L 2988 0 
L 2988 331 
L 3506 331 
L 3116 1356 
L 1153 1356 
L 763 331 
L 1275 331 
L 1275 0 
L -38 0 
z
" transform="scale(0.015625)"/>
      </defs>
      <use xlink:href="#DejaVuSerif-73"/>
      <use xlink:href="#DejaVuSerif-63" x="51.318359"/>
      <use xlink:href="#DejaVuSerif-47" x="107.324219"/>
      <use xlink:href="#DejaVuSerif-41" x="187.207031"/>
      <use xlink:href="#DejaVuSerif-4e" x="259.423828"/>
     </g>
    </g>
   </g>
  </g>
 </g>
 <defs>
  <clipPath id="p2061a6e4c7">
   <rect x="57.26" y="26.16" width="286.266746" height="272.431221"/>
  </clipPath>
 </defs>
</svg>
