<?xml version="1.0" encoding="utf-8" standalone="no"?>
<!DOCTYPE svg PUBLIC "-//W3C//DTD SVG 1.1//EN"
  "http://www.w3.org/Graphics/SVG/1.1/DTD/svg11.dtd">
<svg xmlns:xlink="http://www.w3.org/1999/xlink" width="216pt" height="216pt" viewBox="0 0 216 216" xmlns="http://www.w3.org/2000/svg" version="1.1">
 <metadata>
  <rdf:RDF xmlns:dc="http://purl.org/dc/elements/1.1/" xmlns:cc="http://creativecommons.org/ns#" xmlns:rdf="http://www.w3.org/1999/02/22-rdf-syntax-ns#">
   <cc:Work>
    <dc:type rdf:resource="http://purl.org/dc/dcmitype/StillImage"/>
    <dc:date>2024-06-20T17:46:33.483667</dc:date>
    <dc:format>image/svg+xml</dc:format>
    <dc:creator>
     <cc:Agent>
      <dc:title>Matplotlib v3.8.1, https://matplotlib.org/</dc:title>
     </cc:Agent>
    </dc:creator>
   </cc:Work>
  </rdf:RDF>
 </metadata>
 <defs>
  <style type="text/css">*{stroke-linejoin: round; stroke-linecap: butt}</style>
 </defs>
 <g id="figure_1">
  <g id="patch_1">
   <path d="M 0 216 
L 216 216 
L 216 0 
L 0 0 
z
" style="fill: #ffffff"/>
  </g>
  <g id="axes_1">
   <g id="patch_2">
    <path d="M 63.47 154.65486 
L 190.49925 154.65486 
L 190.49925 26.16 
L 63.47 26.16 
z
" style="fill: #ffffff"/>
   </g>
   <g id="patch_3">
    <path d="M 3.102878 154.65486 
L 9.329663 154.65486 
L 9.329663 154.65486 
L 3.102878 154.65486 
z
" clip-path="url(#p3b2d34f8cf)" style="fill: #029e73; fill-opacity: 0.2; stroke: #000000; stroke-width: 0.507273; stroke-linejoin: miter"/>
   </g>
   <g id="patch_4">
    <path d="M 9.329663 154.65486 
L 15.556449 154.65486 
L 15.556449 154.65486 
L 9.329663 154.65486 
z
" clip-path="url(#p3b2d34f8cf)" style="fill: #029e73; fill-opacity: 0.2; stroke: #000000; stroke-width: 0.507273; stroke-linejoin: miter"/>
   </g>
   <g id="patch_5">
    <path d="M 15.556449 154.65486 
L 21.783234 154.65486 
L 21.783234 154.65486 
L 15.556449 154.65486 
z
" clip-path="url(#p3b2d34f8cf)" style="fill: #029e73; fill-opacity: 0.2; stroke: #000000; stroke-width: 0.507273; stroke-linejoin: miter"/>
   </g>
   <g id="patch_6">
    <path d="M 21.783234 154.65486 
L 28.01002 154.65486 
L 28.01002 154.65486 
L 21.783234 154.65486 
z
" clip-path="url(#p3b2d34f8cf)" style="fill: #029e73; fill-opacity: 0.2; stroke: #000000; stroke-width: 0.507273; stroke-linejoin: miter"/>
   </g>
   <g id="patch_7">
    <path d="M 28.01002 154.65486 
L 34.236806 154.65486 
L 34.236806 154.65486 
L 28.01002 154.65486 
z
" clip-path="url(#p3b2d34f8cf)" style="fill: #029e73; fill-opacity: 0.2; stroke: #000000; stroke-width: 0.507273; stroke-linejoin: miter"/>
   </g>
   <g id="patch_8">
    <path d="M 34.236806 154.65486 
L 40.463591 154.65486 
L 40.463591 154.65486 
L 34.236806 154.65486 
z
" clip-path="url(#p3b2d34f8cf)" style="fill: #029e73; fill-opacity: 0.2; stroke: #000000; stroke-width: 0.507273; stroke-linejoin: miter"/>
   </g>
   <g id="patch_9">
    <path d="M 40.463591 154.65486 
L 46.690377 154.65486 
L 46.690377 154.65486 
L 40.463591 154.65486 
z
" clip-path="url(#p3b2d34f8cf)" style="fill: #029e73; fill-opacity: 0.2; stroke: #000000; stroke-width: 0.507273; stroke-linejoin: miter"/>
   </g>
   <g id="patch_10">
    <path d="M 46.690377 154.65486 
L 52.917163 154.65486 
L 52.917163 154.65486 
L 46.690377 154.65486 
z
" clip-path="url(#p3b2d34f8cf)" style="fill: #029e73; fill-opacity: 0.2; stroke: #000000; stroke-width: 0.507273; stroke-linejoin: miter"/>
   </g>
   <g id="patch_11">
    <path d="M 52.917163 154.65486 
L 59.143948 154.65486 
L 59.143948 154.65486 
L 52.917163 154.65486 
z
" clip-path="url(#p3b2d34f8cf)" style="fill: #029e73; fill-opacity: 0.2; stroke: #000000; stroke-width: 0.507273; stroke-linejoin: miter"/>
   </g>
   <g id="patch_12">
    <path d="M 59.143948 154.65486 
L 65.370734 154.65486 
L 65.370734 154.65486 
L 59.143948 154.65486 
z
" clip-path="url(#p3b2d34f8cf)" style="fill: #029e73; fill-opacity: 0.2; stroke: #000000; stroke-width: 0.507273; stroke-linejoin: miter"/>
   </g>
   <g id="patch_13">
    <path d="M 65.370734 154.65486 
L 71.59752 154.65486 
L 71.59752 154.34649 
L 65.370734 154.34649 
z
" clip-path="url(#p3b2d34f8cf)" style="fill: #029e73; fill-opacity: 0.2; stroke: #000000; stroke-width: 0.507273; stroke-linejoin: miter"/>
   </g>
   <g id="patch_14">
    <path d="M 71.59752 154.65486 
L 77.824305 154.65486 
L 77.824305 127.379522 
L 71.59752 127.379522 
z
" clip-path="url(#p3b2d34f8cf)" style="fill: #029e73; fill-opacity: 0.2; stroke: #000000; stroke-width: 0.507273; stroke-linejoin: miter"/>
   </g>
   <g id="patch_15">
    <path d="M 77.824305 154.65486 
L 84.051091 154.65486 
L 84.051091 118.447067 
L 77.824305 118.447067 
z
" clip-path="url(#p3b2d34f8cf)" style="fill: #029e73; fill-opacity: 0.2; stroke: #000000; stroke-width: 0.507273; stroke-linejoin: miter"/>
   </g>
   <g id="patch_16">
    <path d="M 84.051091 154.65486 
L 90.277877 154.65486 
L 90.277877 85.523416 
L 84.051091 85.523416 
z
" clip-path="url(#p3b2d34f8cf)" style="fill: #029e73; fill-opacity: 0.2; stroke: #000000; stroke-width: 0.507273; stroke-linejoin: miter"/>
   </g>
   <g id="patch_17">
    <path d="M 90.277877 154.65486 
L 96.504662 154.65486 
L 96.504662 87.044709 
L 90.277877 87.044709 
z
" clip-path="url(#p3b2d34f8cf)" style="fill: #029e73; fill-opacity: 0.2; stroke: #000000; stroke-width: 0.507273; stroke-linejoin: miter"/>
   </g>
   <g id="patch_18">
    <path d="M 96.504662 154.65486 
L 102.731448 154.65486 
L 102.731448 102.386123 
L 96.504662 102.386123 
z
" clip-path="url(#p3b2d34f8cf)" style="fill: #029e73; fill-opacity: 0.2; stroke: #000000; stroke-width: 0.507273; stroke-linejoin: miter"/>
   </g>
   <g id="patch_19">
    <path d="M 102.731448 154.65486 
L 108.958233 154.65486 
L 108.958233 111.60125 
L 102.731448 111.60125 
z
" clip-path="url(#p3b2d34f8cf)" style="fill: #029e73; fill-opacity: 0.2; stroke: #000000; stroke-width: 0.507273; stroke-linejoin: miter"/>
   </g>
   <g id="patch_20">
    <path d="M 108.958233 154.65486 
L 115.185019 154.65486 
L 115.185019 115.974967 
L 108.958233 115.974967 
z
" clip-path="url(#p3b2d34f8cf)" style="fill: #029e73; fill-opacity: 0.2; stroke: #000000; stroke-width: 0.507273; stroke-linejoin: miter"/>
   </g>
   <g id="patch_21">
    <path d="M 115.185019 154.65486 
L 121.411805 154.65486 
L 121.411805 117.871443 
L 115.185019 117.871443 
z
" clip-path="url(#p3b2d34f8cf)" style="fill: #029e73; fill-opacity: 0.2; stroke: #000000; stroke-width: 0.507273; stroke-linejoin: miter"/>
   </g>
   <g id="patch_22">
    <path d="M 121.411805 154.65486 
L 127.63859 154.65486 
L 127.63859 119.392736 
L 121.411805 119.392736 
z
" clip-path="url(#p3b2d34f8cf)" style="fill: #029e73; fill-opacity: 0.2; stroke: #000000; stroke-width: 0.507273; stroke-linejoin: miter"/>
   </g>
   <g id="patch_23">
    <path d="M 127.63859 154.65486 
L 133.865376 154.65486 
L 133.865376 117.270121 
L 127.63859 117.270121 
z
" clip-path="url(#p3b2d34f8cf)" style="fill: #029e73; fill-opacity: 0.2; stroke: #000000; stroke-width: 0.507273; stroke-linejoin: miter"/>
   </g>
   <g id="patch_24">
    <path d="M 133.865376 154.65486 
L 140.092162 154.65486 
L 140.092162 115.11153 
L 133.865376 115.11153 
z
" clip-path="url(#p3b2d34f8cf)" style="fill: #029e73; fill-opacity: 0.2; stroke: #000000; stroke-width: 0.507273; stroke-linejoin: miter"/>
   </g>
   <g id="patch_25">
    <path d="M 140.092162 154.65486 
L 146.318947 154.65486 
L 146.318947 109.920633 
L 140.092162 109.920633 
z
" clip-path="url(#p3b2d34f8cf)" style="fill: #029e73; fill-opacity: 0.2; stroke: #000000; stroke-width: 0.507273; stroke-linejoin: miter"/>
   </g>
   <g id="patch_26">
    <path d="M 146.318947 154.65486 
L 152.545733 154.65486 
L 152.545733 107.505067 
L 146.318947 107.505067 
z
" clip-path="url(#p3b2d34f8cf)" style="fill: #029e73; fill-opacity: 0.2; stroke: #000000; stroke-width: 0.507273; stroke-linejoin: miter"/>
   </g>
   <g id="patch_27">
    <path d="M 152.545733 154.65486 
L 158.772519 154.65486 
L 158.772519 109.170266 
L 152.545733 109.170266 
z
" clip-path="url(#p3b2d34f8cf)" style="fill: #029e73; fill-opacity: 0.2; stroke: #000000; stroke-width: 0.507273; stroke-linejoin: miter"/>
   </g>
   <g id="patch_28">
    <path d="M 158.772519 154.65486 
L 164.999304 154.65486 
L 164.999304 122.779668 
L 158.772519 122.779668 
z
" clip-path="url(#p3b2d34f8cf)" style="fill: #029e73; fill-opacity: 0.2; stroke: #000000; stroke-width: 0.507273; stroke-linejoin: miter"/>
   </g>
   <g id="patch_29">
    <path d="M 164.999304 154.65486 
L 171.22609 154.65486 
L 171.22609 144.082904 
L 164.999304 144.082904 
z
" clip-path="url(#p3b2d34f8cf)" style="fill: #029e73; fill-opacity: 0.2; stroke: #000000; stroke-width: 0.507273; stroke-linejoin: miter"/>
   </g>
   <g id="patch_30">
    <path d="M 171.22609 154.65486 
L 177.452876 154.65486 
L 177.452876 153.909633 
L 171.22609 153.909633 
z
" clip-path="url(#p3b2d34f8cf)" style="fill: #029e73; fill-opacity: 0.2; stroke: #000000; stroke-width: 0.507273; stroke-linejoin: miter"/>
   </g>
   <g id="patch_31">
    <path d="M 177.452876 154.65486 
L 183.679661 154.65486 
L 183.679661 154.644581 
L 177.452876 154.644581 
z
" clip-path="url(#p3b2d34f8cf)" style="fill: #029e73; fill-opacity: 0.2; stroke: #000000; stroke-width: 0.507273; stroke-linejoin: miter"/>
   </g>
   <g id="patch_32">
    <path d="M 183.679661 154.65486 
L 189.906447 154.65486 
L 189.906447 154.65486 
L 183.679661 154.65486 
z
" clip-path="url(#p3b2d34f8cf)" style="fill: #029e73; fill-opacity: 0.2; stroke: #000000; stroke-width: 0.507273; stroke-linejoin: miter"/>
   </g>
   <g id="patch_33">
    <path d="M 3.102878 154.65486 
L 9.329663 154.65486 
L 9.329663 154.649721 
L 3.102878 154.649721 
z
" clip-path="url(#p3b2d34f8cf)" style="fill: #de8f05; fill-opacity: 0.2; stroke: #000000; stroke-width: 0.507273; stroke-linejoin: miter"/>
   </g>
   <g id="patch_34">
    <path d="M 9.329663 154.65486 
L 15.556449 154.65486 
L 15.556449 154.644581 
L 9.329663 154.644581 
z
" clip-path="url(#p3b2d34f8cf)" style="fill: #de8f05; fill-opacity: 0.2; stroke: #000000; stroke-width: 0.507273; stroke-linejoin: miter"/>
   </g>
   <g id="patch_35">
    <path d="M 15.556449 154.65486 
L 21.783234 154.65486 
L 21.783234 154.634302 
L 15.556449 154.634302 
z
" clip-path="url(#p3b2d34f8cf)" style="fill: #de8f05; fill-opacity: 0.2; stroke: #000000; stroke-width: 0.507273; stroke-linejoin: miter"/>
   </g>
   <g id="patch_36">
    <path d="M 21.783234 154.65486 
L 28.01002 154.65486 
L 28.01002 154.618884 
L 21.783234 154.618884 
z
" clip-path="url(#p3b2d34f8cf)" style="fill: #de8f05; fill-opacity: 0.2; stroke: #000000; stroke-width: 0.507273; stroke-linejoin: miter"/>
   </g>
   <g id="patch_37">
    <path d="M 28.01002 154.65486 
L 34.236806 154.65486 
L 34.236806 154.582907 
L 28.01002 154.582907 
z
" clip-path="url(#p3b2d34f8cf)" style="fill: #de8f05; fill-opacity: 0.2; stroke: #000000; stroke-width: 0.507273; stroke-linejoin: miter"/>
   </g>
   <g id="patch_38">
    <path d="M 34.236806 154.65486 
L 40.463591 154.65486 
L 40.463591 154.546931 
L 34.236806 154.546931 
z
" clip-path="url(#p3b2d34f8cf)" style="fill: #de8f05; fill-opacity: 0.2; stroke: #000000; stroke-width: 0.507273; stroke-linejoin: miter"/>
   </g>
   <g id="patch_39">
    <path d="M 40.463591 154.65486 
L 46.690377 154.65486 
L 46.690377 154.500675 
L 40.463591 154.500675 
z
" clip-path="url(#p3b2d34f8cf)" style="fill: #de8f05; fill-opacity: 0.2; stroke: #000000; stroke-width: 0.507273; stroke-linejoin: miter"/>
   </g>
   <g id="patch_40">
    <path d="M 46.690377 154.65486 
L 52.917163 154.65486 
L 52.917163 154.469838 
L 46.690377 154.469838 
z
" clip-path="url(#p3b2d34f8cf)" style="fill: #de8f05; fill-opacity: 0.2; stroke: #000000; stroke-width: 0.507273; stroke-linejoin: miter"/>
   </g>
   <g id="patch_41">
    <path d="M 52.917163 154.65486 
L 59.143948 154.65486 
L 59.143948 154.397885 
L 52.917163 154.397885 
z
" clip-path="url(#p3b2d34f8cf)" style="fill: #de8f05; fill-opacity: 0.2; stroke: #000000; stroke-width: 0.507273; stroke-linejoin: miter"/>
   </g>
   <g id="patch_42">
    <path d="M 59.143948 154.65486 
L 65.370734 154.65486 
L 65.370734 154.197445 
L 59.143948 154.197445 
z
" clip-path="url(#p3b2d34f8cf)" style="fill: #de8f05; fill-opacity: 0.2; stroke: #000000; stroke-width: 0.507273; stroke-linejoin: miter"/>
   </g>
   <g id="patch_43">
    <path d="M 65.370734 154.65486 
L 71.59752 154.65486 
L 71.59752 154.156329 
L 65.370734 154.156329 
z
" clip-path="url(#p3b2d34f8cf)" style="fill: #de8f05; fill-opacity: 0.2; stroke: #000000; stroke-width: 0.507273; stroke-linejoin: miter"/>
   </g>
   <g id="patch_44">
    <path d="M 71.59752 154.65486 
L 77.824305 154.65486 
L 77.824305 153.868517 
L 71.59752 153.868517 
z
" clip-path="url(#p3b2d34f8cf)" style="fill: #de8f05; fill-opacity: 0.2; stroke: #000000; stroke-width: 0.507273; stroke-linejoin: miter"/>
   </g>
   <g id="patch_45">
    <path d="M 77.824305 154.65486 
L 84.051091 154.65486 
L 84.051091 153.601262 
L 77.824305 153.601262 
z
" clip-path="url(#p3b2d34f8cf)" style="fill: #de8f05; fill-opacity: 0.2; stroke: #000000; stroke-width: 0.507273; stroke-linejoin: miter"/>
   </g>
   <g id="patch_46">
    <path d="M 84.051091 154.65486 
L 90.277877 154.65486 
L 90.277877 153.220939 
L 84.051091 153.220939 
z
" clip-path="url(#p3b2d34f8cf)" style="fill: #de8f05; fill-opacity: 0.2; stroke: #000000; stroke-width: 0.507273; stroke-linejoin: miter"/>
   </g>
   <g id="patch_47">
    <path d="M 90.277877 154.65486 
L 96.504662 154.65486 
L 96.504662 152.712129 
L 90.277877 152.712129 
z
" clip-path="url(#p3b2d34f8cf)" style="fill: #de8f05; fill-opacity: 0.2; stroke: #000000; stroke-width: 0.507273; stroke-linejoin: miter"/>
   </g>
   <g id="patch_48">
    <path d="M 96.504662 154.65486 
L 102.731448 154.65486 
L 102.731448 151.982319 
L 96.504662 151.982319 
z
" clip-path="url(#p3b2d34f8cf)" style="fill: #de8f05; fill-opacity: 0.2; stroke: #000000; stroke-width: 0.507273; stroke-linejoin: miter"/>
   </g>
   <g id="patch_49">
    <path d="M 102.731448 154.65486 
L 108.958233 154.65486 
L 108.958233 150.718002 
L 102.731448 150.718002 
z
" clip-path="url(#p3b2d34f8cf)" style="fill: #de8f05; fill-opacity: 0.2; stroke: #000000; stroke-width: 0.507273; stroke-linejoin: miter"/>
   </g>
   <g id="patch_50">
    <path d="M 108.958233 154.65486 
L 115.185019 154.65486 
L 115.185019 149.433126 
L 108.958233 149.433126 
z
" clip-path="url(#p3b2d34f8cf)" style="fill: #de8f05; fill-opacity: 0.2; stroke: #000000; stroke-width: 0.507273; stroke-linejoin: miter"/>
   </g>
   <g id="patch_51">
    <path d="M 115.185019 154.65486 
L 121.411805 154.65486 
L 121.411805 147.32593 
L 115.185019 147.32593 
z
" clip-path="url(#p3b2d34f8cf)" style="fill: #de8f05; fill-opacity: 0.2; stroke: #000000; stroke-width: 0.507273; stroke-linejoin: miter"/>
   </g>
   <g id="patch_52">
    <path d="M 121.411805 154.65486 
L 127.63859 154.65486 
L 127.63859 144.966899 
L 121.411805 144.966899 
z
" clip-path="url(#p3b2d34f8cf)" style="fill: #de8f05; fill-opacity: 0.2; stroke: #000000; stroke-width: 0.507273; stroke-linejoin: miter"/>
   </g>
   <g id="patch_53">
    <path d="M 127.63859 154.65486 
L 133.865376 154.65486 
L 133.865376 140.51095 
L 127.63859 140.51095 
z
" clip-path="url(#p3b2d34f8cf)" style="fill: #de8f05; fill-opacity: 0.2; stroke: #000000; stroke-width: 0.507273; stroke-linejoin: miter"/>
   </g>
   <g id="patch_54">
    <path d="M 133.865376 154.65486 
L 140.092162 154.65486 
L 140.092162 134.8318 
L 133.865376 134.8318 
z
" clip-path="url(#p3b2d34f8cf)" style="fill: #de8f05; fill-opacity: 0.2; stroke: #000000; stroke-width: 0.507273; stroke-linejoin: miter"/>
   </g>
   <g id="patch_55">
    <path d="M 140.092162 154.65486 
L 146.318947 154.65486 
L 146.318947 127.759845 
L 140.092162 127.759845 
z
" clip-path="url(#p3b2d34f8cf)" style="fill: #de8f05; fill-opacity: 0.2; stroke: #000000; stroke-width: 0.507273; stroke-linejoin: miter"/>
   </g>
   <g id="patch_56">
    <path d="M 146.318947 154.65486 
L 152.545733 154.65486 
L 152.545733 117.100518 
L 146.318947 117.100518 
z
" clip-path="url(#p3b2d34f8cf)" style="fill: #de8f05; fill-opacity: 0.2; stroke: #000000; stroke-width: 0.507273; stroke-linejoin: miter"/>
   </g>
   <g id="patch_57">
    <path d="M 152.545733 154.65486 
L 158.772519 154.65486 
L 158.772519 103.588766 
L 152.545733 103.588766 
z
" clip-path="url(#p3b2d34f8cf)" style="fill: #de8f05; fill-opacity: 0.2; stroke: #000000; stroke-width: 0.507273; stroke-linejoin: miter"/>
   </g>
   <g id="patch_58">
    <path d="M 158.772519 154.65486 
L 164.999304 154.65486 
L 164.999304 84.886118 
L 158.772519 84.886118 
z
" clip-path="url(#p3b2d34f8cf)" style="fill: #de8f05; fill-opacity: 0.2; stroke: #000000; stroke-width: 0.507273; stroke-linejoin: miter"/>
   </g>
   <g id="patch_59">
    <path d="M 164.999304 154.65486 
L 171.22609 154.65486 
L 171.22609 61.63501 
L 164.999304 61.63501 
z
" clip-path="url(#p3b2d34f8cf)" style="fill: #de8f05; fill-opacity: 0.2; stroke: #000000; stroke-width: 0.507273; stroke-linejoin: miter"/>
   </g>
   <g id="patch_60">
    <path d="M 171.22609 154.65486 
L 177.452876 154.65486 
L 177.452876 38.795062 
L 171.22609 38.795062 
z
" clip-path="url(#p3b2d34f8cf)" style="fill: #de8f05; fill-opacity: 0.2; stroke: #000000; stroke-width: 0.507273; stroke-linejoin: miter"/>
   </g>
   <g id="patch_61">
    <path d="M 177.452876 154.65486 
L 183.679661 154.65486 
L 183.679661 48.318559 
L 177.452876 48.318559 
z
" clip-path="url(#p3b2d34f8cf)" style="fill: #de8f05; fill-opacity: 0.2; stroke: #000000; stroke-width: 0.507273; stroke-linejoin: miter"/>
   </g>
   <g id="patch_62">
    <path d="M 183.679661 154.65486 
L 189.906447 154.65486 
L 189.906447 128.808304 
L 183.679661 128.808304 
z
" clip-path="url(#p3b2d34f8cf)" style="fill: #de8f05; fill-opacity: 0.2; stroke: #000000; stroke-width: 0.507273; stroke-linejoin: miter"/>
   </g>
   <g id="patch_63">
    <path d="M 3.102878 154.65486 
L 9.329663 154.65486 
L 9.329663 154.65486 
L 3.102878 154.65486 
z
" clip-path="url(#p3b2d34f8cf)" style="fill: #0173b2; fill-opacity: 0.2; stroke: #000000; stroke-width: 0.507273; stroke-linejoin: miter"/>
   </g>
   <g id="patch_64">
    <path d="M 9.329663 154.65486 
L 15.556449 154.65486 
L 15.556449 154.65486 
L 9.329663 154.65486 
z
" clip-path="url(#p3b2d34f8cf)" style="fill: #0173b2; fill-opacity: 0.2; stroke: #000000; stroke-width: 0.507273; stroke-linejoin: miter"/>
   </g>
   <g id="patch_65">
    <path d="M 15.556449 154.65486 
L 21.783234 154.65486 
L 21.783234 154.65486 
L 15.556449 154.65486 
z
" clip-path="url(#p3b2d34f8cf)" style="fill: #0173b2; fill-opacity: 0.2; stroke: #000000; stroke-width: 0.507273; stroke-linejoin: miter"/>
   </g>
   <g id="patch_66">
    <path d="M 21.783234 154.65486 
L 28.01002 154.65486 
L 28.01002 154.65486 
L 21.783234 154.65486 
z
" clip-path="url(#p3b2d34f8cf)" style="fill: #0173b2; fill-opacity: 0.2; stroke: #000000; stroke-width: 0.507273; stroke-linejoin: miter"/>
   </g>
   <g id="patch_67">
    <path d="M 28.01002 154.65486 
L 34.236806 154.65486 
L 34.236806 154.65486 
L 28.01002 154.65486 
z
" clip-path="url(#p3b2d34f8cf)" style="fill: #0173b2; fill-opacity: 0.2; stroke: #000000; stroke-width: 0.507273; stroke-linejoin: miter"/>
   </g>
   <g id="patch_68">
    <path d="M 34.236806 154.65486 
L 40.463591 154.65486 
L 40.463591 154.65486 
L 34.236806 154.65486 
z
" clip-path="url(#p3b2d34f8cf)" style="fill: #0173b2; fill-opacity: 0.2; stroke: #000000; stroke-width: 0.507273; stroke-linejoin: miter"/>
   </g>
   <g id="patch_69">
    <path d="M 40.463591 154.65486 
L 46.690377 154.65486 
L 46.690377 154.65486 
L 40.463591 154.65486 
z
" clip-path="url(#p3b2d34f8cf)" style="fill: #0173b2; fill-opacity: 0.2; stroke: #000000; stroke-width: 0.507273; stroke-linejoin: miter"/>
   </g>
   <g id="patch_70">
    <path d="M 46.690377 154.65486 
L 52.917163 154.65486 
L 52.917163 154.644581 
L 46.690377 154.644581 
z
" clip-path="url(#p3b2d34f8cf)" style="fill: #0173b2; fill-opacity: 0.2; stroke: #000000; stroke-width: 0.507273; stroke-linejoin: miter"/>
   </g>
   <g id="patch_71">
    <path d="M 52.917163 154.65486 
L 59.143948 154.65486 
L 59.143948 154.588047 
L 52.917163 154.588047 
z
" clip-path="url(#p3b2d34f8cf)" style="fill: #0173b2; fill-opacity: 0.2; stroke: #000000; stroke-width: 0.507273; stroke-linejoin: miter"/>
   </g>
   <g id="patch_72">
    <path d="M 59.143948 154.65486 
L 65.370734 154.65486 
L 65.370734 154.372188 
L 59.143948 154.372188 
z
" clip-path="url(#p3b2d34f8cf)" style="fill: #0173b2; fill-opacity: 0.2; stroke: #000000; stroke-width: 0.507273; stroke-linejoin: miter"/>
   </g>
   <g id="patch_73">
    <path d="M 65.370734 154.65486 
L 71.59752 154.65486 
L 71.59752 154.176887 
L 65.370734 154.176887 
z
" clip-path="url(#p3b2d34f8cf)" style="fill: #0173b2; fill-opacity: 0.2; stroke: #000000; stroke-width: 0.507273; stroke-linejoin: miter"/>
   </g>
   <g id="patch_74">
    <path d="M 71.59752 154.65486 
L 77.824305 154.65486 
L 77.824305 153.765727 
L 71.59752 153.765727 
z
" clip-path="url(#p3b2d34f8cf)" style="fill: #0173b2; fill-opacity: 0.2; stroke: #000000; stroke-width: 0.507273; stroke-linejoin: miter"/>
   </g>
   <g id="patch_75">
    <path d="M 77.824305 154.65486 
L 84.051091 154.65486 
L 84.051091 153.42138 
L 77.824305 153.42138 
z
" clip-path="url(#p3b2d34f8cf)" style="fill: #0173b2; fill-opacity: 0.2; stroke: #000000; stroke-width: 0.507273; stroke-linejoin: miter"/>
   </g>
   <g id="patch_76">
    <path d="M 84.051091 154.65486 
L 90.277877 154.65486 
L 90.277877 152.963964 
L 84.051091 152.963964 
z
" clip-path="url(#p3b2d34f8cf)" style="fill: #0173b2; fill-opacity: 0.2; stroke: #000000; stroke-width: 0.507273; stroke-linejoin: miter"/>
   </g>
   <g id="patch_77">
    <path d="M 90.277877 154.65486 
L 96.504662 154.65486 
L 96.504662 152.100528 
L 90.277877 152.100528 
z
" clip-path="url(#p3b2d34f8cf)" style="fill: #0173b2; fill-opacity: 0.2; stroke: #000000; stroke-width: 0.507273; stroke-linejoin: miter"/>
   </g>
   <g id="patch_78">
    <path d="M 96.504662 154.65486 
L 102.731448 154.65486 
L 102.731448 151.596857 
L 96.504662 151.596857 
z
" clip-path="url(#p3b2d34f8cf)" style="fill: #0173b2; fill-opacity: 0.2; stroke: #000000; stroke-width: 0.507273; stroke-linejoin: miter"/>
   </g>
   <g id="patch_79">
    <path d="M 102.731448 154.65486 
L 108.958233 154.65486 
L 108.958233 150.810513 
L 102.731448 150.810513 
z
" clip-path="url(#p3b2d34f8cf)" style="fill: #0173b2; fill-opacity: 0.2; stroke: #000000; stroke-width: 0.507273; stroke-linejoin: miter"/>
   </g>
   <g id="patch_80">
    <path d="M 108.958233 154.65486 
L 115.185019 154.65486 
L 115.185019 150.075564 
L 108.958233 150.075564 
z
" clip-path="url(#p3b2d34f8cf)" style="fill: #0173b2; fill-opacity: 0.2; stroke: #000000; stroke-width: 0.507273; stroke-linejoin: miter"/>
   </g>
   <g id="patch_81">
    <path d="M 115.185019 154.65486 
L 121.411805 154.65486 
L 121.411805 148.101995 
L 115.185019 148.101995 
z
" clip-path="url(#p3b2d34f8cf)" style="fill: #0173b2; fill-opacity: 0.2; stroke: #000000; stroke-width: 0.507273; stroke-linejoin: miter"/>
   </g>
   <g id="patch_82">
    <path d="M 121.411805 154.65486 
L 127.63859 154.65486 
L 127.63859 145.146781 
L 121.411805 145.146781 
z
" clip-path="url(#p3b2d34f8cf)" style="fill: #0173b2; fill-opacity: 0.2; stroke: #000000; stroke-width: 0.507273; stroke-linejoin: miter"/>
   </g>
   <g id="patch_83">
    <path d="M 127.63859 154.65486 
L 133.865376 154.65486 
L 133.865376 140.875855 
L 127.63859 140.875855 
z
" clip-path="url(#p3b2d34f8cf)" style="fill: #0173b2; fill-opacity: 0.2; stroke: #000000; stroke-width: 0.507273; stroke-linejoin: miter"/>
   </g>
   <g id="patch_84">
    <path d="M 133.865376 154.65486 
L 140.092162 154.65486 
L 140.092162 133.526367 
L 133.865376 133.526367 
z
" clip-path="url(#p3b2d34f8cf)" style="fill: #0173b2; fill-opacity: 0.2; stroke: #000000; stroke-width: 0.507273; stroke-linejoin: miter"/>
   </g>
   <g id="patch_85">
    <path d="M 140.092162 154.65486 
L 146.318947 154.65486 
L 146.318947 124.398611 
L 140.092162 124.398611 
z
" clip-path="url(#p3b2d34f8cf)" style="fill: #0173b2; fill-opacity: 0.2; stroke: #000000; stroke-width: 0.507273; stroke-linejoin: miter"/>
   </g>
   <g id="patch_86">
    <path d="M 146.318947 154.65486 
L 152.545733 154.65486 
L 152.545733 113.66733 
L 146.318947 113.66733 
z
" clip-path="url(#p3b2d34f8cf)" style="fill: #0173b2; fill-opacity: 0.2; stroke: #000000; stroke-width: 0.507273; stroke-linejoin: miter"/>
   </g>
   <g id="patch_87">
    <path d="M 152.545733 154.65486 
L 158.772519 154.65486 
L 158.772519 103.198164 
L 152.545733 103.198164 
z
" clip-path="url(#p3b2d34f8cf)" style="fill: #0173b2; fill-opacity: 0.2; stroke: #000000; stroke-width: 0.507273; stroke-linejoin: miter"/>
   </g>
   <g id="patch_88">
    <path d="M 158.772519 154.65486 
L 164.999304 154.65486 
L 164.999304 89.753226 
L 158.772519 89.753226 
z
" clip-path="url(#p3b2d34f8cf)" style="fill: #0173b2; fill-opacity: 0.2; stroke: #000000; stroke-width: 0.507273; stroke-linejoin: miter"/>
   </g>
   <g id="patch_89">
    <path d="M 164.999304 154.65486 
L 171.22609 154.65486 
L 171.22609 70.058654 
L 164.999304 70.058654 
z
" clip-path="url(#p3b2d34f8cf)" style="fill: #0173b2; fill-opacity: 0.2; stroke: #000000; stroke-width: 0.507273; stroke-linejoin: miter"/>
   </g>
   <g id="patch_90">
    <path d="M 171.22609 154.65486 
L 177.452876 154.65486 
L 177.452876 40.691538 
L 171.22609 40.691538 
z
" clip-path="url(#p3b2d34f8cf)" style="fill: #0173b2; fill-opacity: 0.2; stroke: #000000; stroke-width: 0.507273; stroke-linejoin: miter"/>
   </g>
   <g id="patch_91">
    <path d="M 177.452876 154.65486 
L 183.679661 154.65486 
L 183.679661 33.86114 
L 177.452876 33.86114 
z
" clip-path="url(#p3b2d34f8cf)" style="fill: #0173b2; fill-opacity: 0.2; stroke: #000000; stroke-width: 0.507273; stroke-linejoin: miter"/>
   </g>
   <g id="patch_92">
    <path d="M 183.679661 154.65486 
L 189.906447 154.65486 
L 189.906447 130.000668 
L 183.679661 130.000668 
z
" clip-path="url(#p3b2d34f8cf)" style="fill: #0173b2; fill-opacity: 0.2; stroke: #000000; stroke-width: 0.507273; stroke-linejoin: miter"/>
   </g>
   <g id="matplotlib.axis_1">
    <g id="xtick_1">
     <g id="line2d_1">
      <defs>
       <path id="mef44c3f5b6" d="M 0 0 
L 0 3.5 
" style="stroke: #000000; stroke-width: 0.8"/>
      </defs>
      <g>
       <use xlink:href="#mef44c3f5b6" x="77.584361" y="154.65486" style="stroke: #000000; stroke-width: 0.8"/>
      </g>
     </g>
     <g id="text_1">
      <!-- 20000 -->
      <g transform="translate(68.288117 189.522602) rotate(-45) scale(0.1 -0.1)">
       <defs>
        <path id="DejaVuSerif-32" d="M 819 3553 
L 469 3553 
L 469 4384 
Q 803 4563 1142 4656 
Q 1481 4750 1806 4750 
Q 2534 4750 2956 4397 
Q 3378 4044 3378 3438 
Q 3378 2753 2422 1800 
Q 2347 1728 2309 1691 
L 1131 513 
L 3078 513 
L 3078 1088 
L 3444 1088 
L 3444 0 
L 434 0 
L 434 341 
L 1850 1753 
Q 2319 2222 2519 2614 
Q 2719 3006 2719 3438 
Q 2719 3909 2473 4175 
Q 2228 4441 1797 4441 
Q 1350 4441 1106 4219 
Q 863 3997 819 3553 
z
" transform="scale(0.015625)"/>
        <path id="DejaVuSerif-30" d="M 2034 219 
Q 2513 219 2750 744 
Q 2988 1269 2988 2328 
Q 2988 3391 2750 3916 
Q 2513 4441 2034 4441 
Q 1556 4441 1318 3916 
Q 1081 3391 1081 2328 
Q 1081 1269 1318 744 
Q 1556 219 2034 219 
z
M 2034 -91 
Q 1275 -91 848 546 
Q 422 1184 422 2328 
Q 422 3475 848 4112 
Q 1275 4750 2034 4750 
Q 2797 4750 3222 4112 
Q 3647 3475 3647 2328 
Q 3647 1184 3222 546 
Q 2797 -91 2034 -91 
z
" transform="scale(0.015625)"/>
       </defs>
       <use xlink:href="#DejaVuSerif-32"/>
       <use xlink:href="#DejaVuSerif-30" x="63.623047"/>
       <use xlink:href="#DejaVuSerif-30" x="127.246094"/>
       <use xlink:href="#DejaVuSerif-30" x="190.869141"/>
       <use xlink:href="#DejaVuSerif-30" x="254.492188"/>
      </g>
     </g>
    </g>
    <g id="xtick_2">
     <g id="line2d_2">
      <g>
       <use xlink:href="#mef44c3f5b6" x="112.870264" y="154.65486" style="stroke: #000000; stroke-width: 0.8"/>
      </g>
     </g>
     <g id="text_2">
      <!-- 22500 -->
      <g transform="translate(103.574019 189.522602) rotate(-45) scale(0.1 -0.1)">
       <defs>
        <path id="DejaVuSerif-35" d="M 3219 4666 
L 3219 4153 
L 1081 4153 
L 1081 2816 
Q 1244 2928 1461 2984 
Q 1678 3041 1947 3041 
Q 2703 3041 3140 2622 
Q 3578 2203 3578 1478 
Q 3578 738 3136 323 
Q 2694 -91 1894 -91 
Q 1572 -91 1234 -12 
Q 897 66 544 225 
L 544 1131 
L 897 1131 
Q 925 688 1179 453 
Q 1434 219 1894 219 
Q 2388 219 2653 544 
Q 2919 869 2919 1478 
Q 2919 2084 2655 2407 
Q 2391 2731 1894 2731 
Q 1613 2731 1398 2631 
Q 1184 2531 1019 2322 
L 750 2322 
L 750 4666 
L 3219 4666 
z
" transform="scale(0.015625)"/>
       </defs>
       <use xlink:href="#DejaVuSerif-32"/>
       <use xlink:href="#DejaVuSerif-32" x="63.623047"/>
       <use xlink:href="#DejaVuSerif-35" x="127.246094"/>
       <use xlink:href="#DejaVuSerif-30" x="190.869141"/>
       <use xlink:href="#DejaVuSerif-30" x="254.492188"/>
      </g>
     </g>
    </g>
    <g id="xtick_3">
     <g id="line2d_3">
      <g>
       <use xlink:href="#mef44c3f5b6" x="148.156167" y="154.65486" style="stroke: #000000; stroke-width: 0.8"/>
      </g>
     </g>
     <g id="text_3">
      <!-- 25000 -->
      <g transform="translate(138.859922 189.522602) rotate(-45) scale(0.1 -0.1)">
       <use xlink:href="#DejaVuSerif-32"/>
       <use xlink:href="#DejaVuSerif-35" x="63.623047"/>
       <use xlink:href="#DejaVuSerif-30" x="127.246094"/>
       <use xlink:href="#DejaVuSerif-30" x="190.869141"/>
       <use xlink:href="#DejaVuSerif-30" x="254.492188"/>
      </g>
     </g>
    </g>
    <g id="xtick_4">
     <g id="line2d_4">
      <g>
       <use xlink:href="#mef44c3f5b6" x="183.442069" y="154.65486" style="stroke: #000000; stroke-width: 0.8"/>
      </g>
     </g>
     <g id="text_4">
      <!-- 27500 -->
      <g transform="translate(174.145825 189.522602) rotate(-45) scale(0.1 -0.1)">
       <defs>
        <path id="DejaVuSerif-37" d="M 3609 4347 
L 1784 0 
L 1319 0 
L 3059 4153 
L 903 4153 
L 903 3578 
L 538 3578 
L 538 4666 
L 3609 4666 
L 3609 4347 
z
" transform="scale(0.015625)"/>
       </defs>
       <use xlink:href="#DejaVuSerif-32"/>
       <use xlink:href="#DejaVuSerif-37" x="63.623047"/>
       <use xlink:href="#DejaVuSerif-35" x="127.246094"/>
       <use xlink:href="#DejaVuSerif-30" x="190.869141"/>
       <use xlink:href="#DejaVuSerif-30" x="254.492188"/>
      </g>
     </g>
    </g>
    <g id="text_5">
     <!-- Number of zeroes per cell -->
     <g transform="translate(60.854156 202.5916) scale(0.1 -0.1)">
      <defs>
       <path id="DejaVuSerif-4e" d="M 313 0 
L 313 331 
L 941 331 
L 941 4331 
L 313 4331 
L 313 4666 
L 1509 4666 
L 4306 984 
L 4306 4331 
L 3681 4331 
L 3681 4666 
L 5319 4666 
L 5319 4331 
L 4691 4331 
L 4691 -91 
L 4313 -91 
L 1325 3841 
L 1325 331 
L 1953 331 
L 1953 0 
L 313 0 
z
" transform="scale(0.015625)"/>
       <path id="DejaVuSerif-75" d="M 2266 3322 
L 3341 3322 
L 3341 331 
L 3884 331 
L 3884 0 
L 2766 0 
L 2766 588 
Q 2606 256 2353 82 
Q 2100 -91 1766 -91 
Q 1213 -91 952 223 
Q 691 538 691 1209 
L 691 2988 
L 172 2988 
L 172 3322 
L 1269 3322 
L 1269 1388 
Q 1269 781 1417 556 
Q 1566 331 1947 331 
Q 2347 331 2556 625 
Q 2766 919 2766 1478 
L 2766 2988 
L 2266 2988 
L 2266 3322 
z
" transform="scale(0.015625)"/>
       <path id="DejaVuSerif-6d" d="M 3316 2675 
Q 3481 3041 3739 3227 
Q 3997 3413 4341 3413 
Q 4863 3413 5119 3089 
Q 5375 2766 5375 2113 
L 5375 331 
L 5894 331 
L 5894 0 
L 4300 0 
L 4300 331 
L 4800 331 
L 4800 2047 
Q 4800 2556 4650 2772 
Q 4500 2988 4153 2988 
Q 3769 2988 3567 2697 
Q 3366 2406 3366 1850 
L 3366 331 
L 3866 331 
L 3866 0 
L 2291 0 
L 2291 331 
L 2791 331 
L 2791 2069 
Q 2791 2566 2641 2777 
Q 2491 2988 2144 2988 
Q 1759 2988 1557 2697 
Q 1356 2406 1356 1850 
L 1356 331 
L 1856 331 
L 1856 0 
L 263 0 
L 263 331 
L 781 331 
L 781 2994 
L 231 2994 
L 231 3322 
L 1356 3322 
L 1356 2731 
Q 1516 3063 1762 3238 
Q 2009 3413 2322 3413 
Q 2709 3413 2968 3220 
Q 3228 3028 3316 2675 
z
" transform="scale(0.015625)"/>
       <path id="DejaVuSerif-62" d="M 738 331 
L 738 4531 
L 184 4531 
L 184 4863 
L 1313 4863 
L 1313 2803 
Q 1481 3116 1742 3264 
Q 2003 3413 2388 3413 
Q 3000 3413 3387 2928 
Q 3775 2444 3775 1663 
Q 3775 881 3387 395 
Q 3000 -91 2388 -91 
Q 2003 -91 1742 57 
Q 1481 206 1313 519 
L 1313 0 
L 184 0 
L 184 331 
L 738 331 
z
M 1313 1497 
Q 1313 897 1542 583 
Q 1772 269 2209 269 
Q 2650 269 2876 622 
Q 3103 975 3103 1663 
Q 3103 2353 2876 2703 
Q 2650 3053 2209 3053 
Q 1772 3053 1542 2737 
Q 1313 2422 1313 1825 
L 1313 1497 
z
" transform="scale(0.015625)"/>
       <path id="DejaVuSerif-65" d="M 3469 1600 
L 991 1600 
L 991 1575 
Q 991 903 1244 561 
Q 1497 219 1991 219 
Q 2369 219 2611 417 
Q 2853 616 2950 1006 
L 3413 1006 
Q 3275 459 2904 184 
Q 2534 -91 1931 -91 
Q 1203 -91 761 389 
Q 319 869 319 1663 
Q 319 2450 753 2931 
Q 1188 3413 1894 3413 
Q 2647 3413 3050 2948 
Q 3453 2484 3469 1600 
z
M 2791 1931 
Q 2772 2513 2545 2808 
Q 2319 3103 1894 3103 
Q 1497 3103 1269 2806 
Q 1041 2509 991 1931 
L 2791 1931 
z
" transform="scale(0.015625)"/>
       <path id="DejaVuSerif-72" d="M 3059 3328 
L 3059 2497 
L 2728 2497 
Q 2713 2744 2591 2866 
Q 2469 2988 2234 2988 
Q 1809 2988 1582 2694 
Q 1356 2400 1356 1850 
L 1356 331 
L 2022 331 
L 2022 0 
L 263 0 
L 263 331 
L 781 331 
L 781 2994 
L 231 2994 
L 231 3322 
L 1356 3322 
L 1356 2731 
Q 1525 3078 1790 3245 
Q 2056 3413 2438 3413 
Q 2578 3413 2733 3391 
Q 2888 3369 3059 3328 
z
" transform="scale(0.015625)"/>
       <path id="DejaVuSerif-20" transform="scale(0.015625)"/>
       <path id="DejaVuSerif-6f" d="M 1925 219 
Q 2388 219 2623 584 
Q 2859 950 2859 1663 
Q 2859 2375 2623 2739 
Q 2388 3103 1925 3103 
Q 1463 3103 1227 2739 
Q 991 2375 991 1663 
Q 991 950 1228 584 
Q 1466 219 1925 219 
z
M 1925 -91 
Q 1200 -91 759 389 
Q 319 869 319 1663 
Q 319 2456 758 2934 
Q 1197 3413 1925 3413 
Q 2653 3413 3092 2934 
Q 3531 2456 3531 1663 
Q 3531 869 3092 389 
Q 2653 -91 1925 -91 
z
" transform="scale(0.015625)"/>
       <path id="DejaVuSerif-66" d="M 2753 4078 
L 2450 4078 
Q 2447 4313 2317 4434 
Q 2188 4556 1941 4556 
Q 1619 4556 1487 4379 
Q 1356 4203 1356 3750 
L 1356 3322 
L 2284 3322 
L 2284 2988 
L 1356 2988 
L 1356 331 
L 2094 331 
L 2094 0 
L 231 0 
L 231 331 
L 781 331 
L 781 2988 
L 231 2988 
L 231 3322 
L 781 3322 
L 781 3738 
Q 781 4294 1070 4578 
Q 1359 4863 1919 4863 
Q 2128 4863 2337 4825 
Q 2547 4788 2753 4709 
L 2753 4078 
z
" transform="scale(0.015625)"/>
       <path id="DejaVuSerif-7a" d="M 256 0 
L 256 269 
L 2338 2988 
L 691 2988 
L 691 2413 
L 359 2413 
L 359 3322 
L 3078 3322 
L 3078 3053 
L 997 331 
L 2803 331 
L 2803 934 
L 3138 934 
L 3138 0 
L 256 0 
z
" transform="scale(0.015625)"/>
       <path id="DejaVuSerif-73" d="M 359 184 
L 359 959 
L 691 959 
Q 703 588 923 403 
Q 1144 219 1575 219 
Q 1963 219 2166 364 
Q 2369 509 2369 788 
Q 2369 1006 2220 1140 
Q 2072 1275 1594 1428 
L 1178 1569 
Q 750 1706 558 1912 
Q 366 2119 366 2438 
Q 366 2894 700 3153 
Q 1034 3413 1625 3413 
Q 1888 3413 2178 3344 
Q 2469 3275 2778 3144 
L 2778 2419 
L 2447 2419 
Q 2434 2741 2221 2922 
Q 2009 3103 1644 3103 
Q 1281 3103 1095 2975 
Q 909 2847 909 2591 
Q 909 2381 1050 2254 
Q 1191 2128 1613 1997 
L 2069 1856 
Q 2541 1709 2748 1489 
Q 2956 1269 2956 922 
Q 2956 450 2595 179 
Q 2234 -91 1600 -91 
Q 1278 -91 972 -22 
Q 666 47 359 184 
z
" transform="scale(0.015625)"/>
       <path id="DejaVuSerif-70" d="M 1313 1825 
L 1313 1497 
Q 1313 897 1542 583 
Q 1772 269 2209 269 
Q 2650 269 2876 622 
Q 3103 975 3103 1663 
Q 3103 2353 2876 2703 
Q 2650 3053 2209 3053 
Q 1772 3053 1542 2737 
Q 1313 2422 1313 1825 
z
M 738 2988 
L 184 2988 
L 184 3322 
L 1313 3322 
L 1313 2803 
Q 1481 3116 1742 3264 
Q 2003 3413 2388 3413 
Q 3000 3413 3387 2928 
Q 3775 2444 3775 1663 
Q 3775 881 3387 395 
Q 3000 -91 2388 -91 
Q 2003 -91 1742 57 
Q 1481 206 1313 519 
L 1313 -997 
L 1856 -997 
L 1856 -1331 
L 184 -1331 
L 184 -997 
L 738 -997 
L 738 2988 
z
" transform="scale(0.015625)"/>
       <path id="DejaVuSerif-63" d="M 3291 997 
Q 3169 466 2822 187 
Q 2475 -91 1925 -91 
Q 1200 -91 759 389 
Q 319 869 319 1663 
Q 319 2459 759 2936 
Q 1200 3413 1925 3413 
Q 2241 3413 2553 3339 
Q 2866 3266 3181 3116 
L 3181 2266 
L 2847 2266 
Q 2781 2703 2561 2903 
Q 2341 3103 1931 3103 
Q 1466 3103 1228 2742 
Q 991 2381 991 1663 
Q 991 944 1227 581 
Q 1463 219 1931 219 
Q 2303 219 2525 412 
Q 2747 606 2828 997 
L 3291 997 
z
" transform="scale(0.015625)"/>
       <path id="DejaVuSerif-6c" d="M 1313 331 
L 1856 331 
L 1856 0 
L 184 0 
L 184 331 
L 738 331 
L 738 4531 
L 184 4531 
L 184 4863 
L 1313 4863 
L 1313 331 
z
" transform="scale(0.015625)"/>
      </defs>
      <use xlink:href="#DejaVuSerif-4e"/>
      <use xlink:href="#DejaVuSerif-75" x="87.5"/>
      <use xlink:href="#DejaVuSerif-6d" x="151.904297"/>
      <use xlink:href="#DejaVuSerif-62" x="246.728516"/>
      <use xlink:href="#DejaVuSerif-65" x="310.742188"/>
      <use xlink:href="#DejaVuSerif-72" x="369.921875"/>
      <use xlink:href="#DejaVuSerif-20" x="417.724609"/>
      <use xlink:href="#DejaVuSerif-6f" x="449.511719"/>
      <use xlink:href="#DejaVuSerif-66" x="509.716797"/>
      <use xlink:href="#DejaVuSerif-20" x="546.728516"/>
      <use xlink:href="#DejaVuSerif-7a" x="578.515625"/>
      <use xlink:href="#DejaVuSerif-65" x="631.201172"/>
      <use xlink:href="#DejaVuSerif-72" x="690.380859"/>
      <use xlink:href="#DejaVuSerif-6f" x="738.183594"/>
      <use xlink:href="#DejaVuSerif-65" x="798.388672"/>
      <use xlink:href="#DejaVuSerif-73" x="857.568359"/>
      <use xlink:href="#DejaVuSerif-20" x="908.886719"/>
      <use xlink:href="#DejaVuSerif-70" x="940.673828"/>
      <use xlink:href="#DejaVuSerif-65" x="1004.6875"/>
      <use xlink:href="#DejaVuSerif-72" x="1063.867188"/>
      <use xlink:href="#DejaVuSerif-20" x="1111.669922"/>
      <use xlink:href="#DejaVuSerif-63" x="1143.457031"/>
      <use xlink:href="#DejaVuSerif-65" x="1199.462891"/>
      <use xlink:href="#DejaVuSerif-6c" x="1258.642578"/>
      <use xlink:href="#DejaVuSerif-6c" x="1290.625"/>
     </g>
    </g>
   </g>
   <g id="matplotlib.axis_2">
    <g id="ytick_1">
     <g id="line2d_5">
      <defs>
       <path id="m5b5c8dae99" d="M 0 0 
L -3.5 0 
" style="stroke: #000000; stroke-width: 0.8"/>
      </defs>
      <g>
       <use xlink:href="#m5b5c8dae99" x="63.47" y="154.65486" style="stroke: #000000; stroke-width: 0.8"/>
      </g>
     </g>
     <g id="text_6">
      <!-- 0 -->
      <g transform="translate(50.1075 158.454079) scale(0.1 -0.1)">
       <use xlink:href="#DejaVuSerif-30"/>
      </g>
     </g>
    </g>
    <g id="ytick_2">
     <g id="line2d_6">
      <g>
       <use xlink:href="#m5b5c8dae99" x="63.47" y="128.957349" style="stroke: #000000; stroke-width: 0.8"/>
      </g>
     </g>
     <g id="text_7">
      <!-- 5000 -->
      <g transform="translate(31.02 132.756568) scale(0.1 -0.1)">
       <use xlink:href="#DejaVuSerif-35"/>
       <use xlink:href="#DejaVuSerif-30" x="63.623047"/>
       <use xlink:href="#DejaVuSerif-30" x="127.246094"/>
       <use xlink:href="#DejaVuSerif-30" x="190.869141"/>
      </g>
     </g>
    </g>
    <g id="ytick_3">
     <g id="line2d_7">
      <g>
       <use xlink:href="#m5b5c8dae99" x="63.47" y="103.259838" style="stroke: #000000; stroke-width: 0.8"/>
      </g>
     </g>
     <g id="text_8">
      <!-- 10000 -->
      <g transform="translate(24.6575 107.059057) scale(0.1 -0.1)">
       <defs>
        <path id="DejaVuSerif-31" d="M 909 0 
L 909 331 
L 1722 331 
L 1722 4213 
L 781 3603 
L 781 4013 
L 1919 4750 
L 2350 4750 
L 2350 331 
L 3163 331 
L 3163 0 
L 909 0 
z
" transform="scale(0.015625)"/>
       </defs>
       <use xlink:href="#DejaVuSerif-31"/>
       <use xlink:href="#DejaVuSerif-30" x="63.623047"/>
       <use xlink:href="#DejaVuSerif-30" x="127.246094"/>
       <use xlink:href="#DejaVuSerif-30" x="190.869141"/>
       <use xlink:href="#DejaVuSerif-30" x="254.492188"/>
      </g>
     </g>
    </g>
    <g id="ytick_4">
     <g id="line2d_8">
      <g>
       <use xlink:href="#m5b5c8dae99" x="63.47" y="77.562327" style="stroke: #000000; stroke-width: 0.8"/>
      </g>
     </g>
     <g id="text_9">
      <!-- 15000 -->
      <g transform="translate(24.6575 81.361546) scale(0.1 -0.1)">
       <use xlink:href="#DejaVuSerif-31"/>
       <use xlink:href="#DejaVuSerif-35" x="63.623047"/>
       <use xlink:href="#DejaVuSerif-30" x="127.246094"/>
       <use xlink:href="#DejaVuSerif-30" x="190.869141"/>
       <use xlink:href="#DejaVuSerif-30" x="254.492188"/>
      </g>
     </g>
    </g>
    <g id="ytick_5">
     <g id="line2d_9">
      <g>
       <use xlink:href="#m5b5c8dae99" x="63.47" y="51.864816" style="stroke: #000000; stroke-width: 0.8"/>
      </g>
     </g>
     <g id="text_10">
      <!-- 20000 -->
      <g transform="translate(24.6575 55.664035) scale(0.1 -0.1)">
       <use xlink:href="#DejaVuSerif-32"/>
       <use xlink:href="#DejaVuSerif-30" x="63.623047"/>
       <use xlink:href="#DejaVuSerif-30" x="127.246094"/>
       <use xlink:href="#DejaVuSerif-30" x="190.869141"/>
       <use xlink:href="#DejaVuSerif-30" x="254.492188"/>
      </g>
     </g>
    </g>
    <g id="ytick_6">
     <g id="line2d_10">
      <g>
       <use xlink:href="#m5b5c8dae99" x="63.47" y="26.167305" style="stroke: #000000; stroke-width: 0.8"/>
      </g>
     </g>
     <g id="text_11">
      <!-- 25000 -->
      <g transform="translate(24.6575 29.966524) scale(0.1 -0.1)">
       <use xlink:href="#DejaVuSerif-32"/>
       <use xlink:href="#DejaVuSerif-35" x="63.623047"/>
       <use xlink:href="#DejaVuSerif-30" x="127.246094"/>
       <use xlink:href="#DejaVuSerif-30" x="190.869141"/>
       <use xlink:href="#DejaVuSerif-30" x="254.492188"/>
      </g>
     </g>
    </g>
    <g id="text_12">
     <!-- Frequency -->
     <g transform="translate(18.435625 117.451961) rotate(-90) scale(0.1 -0.1)">
      <defs>
       <path id="DejaVuSerif-46" d="M 353 0 
L 353 331 
L 947 331 
L 947 4331 
L 353 4331 
L 353 4666 
L 4172 4666 
L 4172 3628 
L 3788 3628 
L 3788 4281 
L 1581 4281 
L 1581 2719 
L 3175 2719 
L 3175 3303 
L 3559 3303 
L 3559 1753 
L 3175 1753 
L 3175 2338 
L 1581 2338 
L 1581 331 
L 2328 331 
L 2328 0 
L 353 0 
z
" transform="scale(0.015625)"/>
       <path id="DejaVuSerif-71" d="M 3359 2988 
L 3359 -997 
L 3909 -997 
L 3909 -1331 
L 2241 -1331 
L 2241 -997 
L 2784 -997 
L 2784 519 
Q 2616 206 2355 57 
Q 2094 -91 1709 -91 
Q 1097 -91 708 395 
Q 319 881 319 1663 
Q 319 2444 706 2928 
Q 1094 3413 1709 3413 
Q 2094 3413 2355 3264 
Q 2616 3116 2784 2803 
L 2784 3322 
L 3909 3322 
L 3909 2988 
L 3359 2988 
z
M 2784 1825 
Q 2784 2422 2554 2737 
Q 2325 3053 1888 3053 
Q 1444 3053 1217 2703 
Q 991 2353 991 1663 
Q 991 975 1217 622 
Q 1444 269 1888 269 
Q 2325 269 2554 583 
Q 2784 897 2784 1497 
L 2784 1825 
z
" transform="scale(0.015625)"/>
       <path id="DejaVuSerif-6e" d="M 263 0 
L 263 331 
L 781 331 
L 781 2988 
L 231 2988 
L 231 3322 
L 1356 3322 
L 1356 2731 
Q 1516 3069 1770 3241 
Q 2025 3413 2363 3413 
Q 2913 3413 3172 3097 
Q 3431 2781 3431 2113 
L 3431 331 
L 3944 331 
L 3944 0 
L 2356 0 
L 2356 331 
L 2853 331 
L 2853 1931 
Q 2853 2541 2703 2767 
Q 2553 2994 2175 2994 
Q 1775 2994 1565 2701 
Q 1356 2409 1356 1850 
L 1356 331 
L 1856 331 
L 1856 0 
L 263 0 
z
" transform="scale(0.015625)"/>
       <path id="DejaVuSerif-79" d="M 1381 -609 
L 1600 -56 
L 359 2988 
L -19 2988 
L -19 3322 
L 1509 3322 
L 1509 2988 
L 978 2988 
L 1913 703 
L 2847 2988 
L 2350 2988 
L 2350 3322 
L 3597 3322 
L 3597 2988 
L 3225 2988 
L 1703 -750 
Q 1547 -1138 1356 -1280 
Q 1166 -1422 819 -1422 
Q 672 -1422 517 -1397 
Q 363 -1372 206 -1325 
L 206 -691 
L 500 -691 
Q 519 -903 608 -995 
Q 697 -1088 884 -1088 
Q 1056 -1088 1161 -992 
Q 1266 -897 1381 -609 
z
" transform="scale(0.015625)"/>
      </defs>
      <use xlink:href="#DejaVuSerif-46"/>
      <use xlink:href="#DejaVuSerif-72" x="69.384766"/>
      <use xlink:href="#DejaVuSerif-65" x="117.1875"/>
      <use xlink:href="#DejaVuSerif-71" x="176.367188"/>
      <use xlink:href="#DejaVuSerif-75" x="240.380859"/>
      <use xlink:href="#DejaVuSerif-65" x="304.785156"/>
      <use xlink:href="#DejaVuSerif-6e" x="363.964844"/>
      <use xlink:href="#DejaVuSerif-63" x="428.369141"/>
      <use xlink:href="#DejaVuSerif-79" x="484.375"/>
     </g>
    </g>
   </g>
   <g id="line2d_11">
    <path d="M 3.102878 154.65486 
L 65.05783 154.591388 
L 65.996542 154.492822 
L 66.935253 154.26818 
L 67.873964 153.794906 
L 68.812676 152.879871 
L 69.751387 151.268976 
L 70.690099 148.706803 
L 71.62881 145.053184 
L 73.506233 135.235932 
L 74.444944 130.181848 
L 75.383656 125.948897 
L 76.322367 122.96278 
L 77.261078 121.203339 
L 79.138501 119.359513 
L 80.077213 117.963219 
L 81.015924 115.621071 
L 81.954635 112.217343 
L 82.893347 107.909564 
L 85.709481 93.446911 
L 86.648192 89.531799 
L 87.586904 86.571574 
L 88.525615 84.653006 
L 89.464327 83.727837 
L 90.403038 83.660363 
L 91.341749 84.284735 
L 92.280461 85.451168 
L 93.219172 87.046292 
L 94.157884 88.985333 
L 96.035306 93.556504 
L 98.851441 100.506622 
L 100.728864 104.242228 
L 102.606286 107.244614 
L 104.483709 109.769655 
L 106.361132 111.938923 
L 108.238555 113.674109 
L 109.177266 114.33196 
L 111.054689 115.259825 
L 119.503092 118.388392 
L 122.319226 119.003959 
L 124.196649 119.123036 
L 126.074071 118.842635 
L 128.890206 117.914828 
L 131.70634 117.074731 
L 133.583763 116.494499 
L 135.461185 115.686243 
L 137.338608 114.634349 
L 139.216031 113.318682 
L 144.848299 108.899697 
L 146.725722 108.041795 
L 148.603145 107.645576 
L 150.480568 107.556607 
L 152.357991 107.709859 
L 153.296702 107.99948 
L 154.235414 108.537487 
L 155.174125 109.376344 
L 156.112836 110.52493 
L 157.051548 111.959539 
L 157.990259 113.649523 
L 159.867682 117.74876 
L 161.745105 122.838192 
L 163.622528 128.808037 
L 167.377373 141.352239 
L 169.254796 146.441093 
L 170.193507 148.460712 
L 171.132219 150.125205 
L 172.07093 151.455376 
L 173.009642 152.480759 
L 173.948353 153.237706 
L 174.887064 153.76955 
L 175.825776 154.124212 
L 177.703199 154.484684 
L 180.519333 154.631215 
L 189.906447 154.65486 
L 189.906447 154.65486 
" clip-path="url(#p3b2d34f8cf)" style="fill: none; stroke: #029e73; stroke-width: 2; stroke-linecap: square"/>
   </g>
   <g id="line2d_12">
    <path d="M 3.102878 154.648146 
L 35.019065 154.56987 
L 62.241696 154.205317 
L 69.751387 154.094962 
L 74.444944 153.890206 
L 85.709481 153.2914 
L 90.403038 152.941351 
L 96.974018 152.303399 
L 99.790152 151.955265 
L 102.606286 151.620168 
L 112.932112 149.103357 
L 117.625669 147.661495 
L 121.380514 146.096316 
L 125.13536 144.525476 
L 127.012783 143.574871 
L 128.890206 142.128747 
L 131.70634 139.710606 
L 134.522474 137.489052 
L 136.399897 135.529191 
L 139.216031 132.233454 
L 142.032165 129.180776 
L 143.909588 126.704774 
L 145.787011 123.615173 
L 152.357991 111.523779 
L 154.235414 107.45369 
L 156.112836 102.527646 
L 160.806393 88.412668 
L 162.683816 82.141084 
L 166.438662 68.208431 
L 172.07093 47.043812 
L 173.948353 39.760044 
L 174.887064 36.918645 
L 175.825776 35.082113 
L 176.764487 34.456145 
L 177.703199 35.227754 
L 178.64191 37.610266 
L 179.580621 41.839415 
L 180.519333 48.156413 
L 181.458044 56.721008 
L 182.396756 67.473269 
L 184.274178 93.764048 
L 186.151601 120.793331 
L 187.090313 132.097435 
L 188.029024 140.960897 
L 188.967735 147.191636 
L 189.906447 151.058382 
L 189.906447 151.058382 
" clip-path="url(#p3b2d34f8cf)" style="fill: none; stroke: #de8f05; stroke-width: 2; stroke-linecap: square"/>
   </g>
   <g id="line2d_13">
    <path d="M 3.102878 154.65486 
L 57.548139 154.562254 
L 63.180407 154.328897 
L 71.62881 154.000733 
L 90.403038 152.577652 
L 95.096595 151.938413 
L 103.544998 151.057206 
L 105.422421 150.830461 
L 109.177266 150.677892 
L 111.054689 150.284169 
L 114.809535 149.149692 
L 121.380514 146.860569 
L 127.012783 143.71191 
L 130.767628 140.890251 
L 131.70634 140.080548 
L 132.645051 139.112223 
L 134.522474 136.766286 
L 141.093454 128.009431 
L 142.970877 124.883046 
L 147.664434 116.418008 
L 151.419279 110.118462 
L 157.990259 99.295038 
L 159.867682 95.226517 
L 161.745105 90.261117 
L 164.561239 81.646884 
L 167.377373 72.460319 
L 169.254796 65.127931 
L 171.132219 55.917098 
L 173.009642 46.093749 
L 173.948353 42.024487 
L 174.887064 38.867044 
L 175.825776 36.489575 
L 176.764487 34.625837 
L 177.703199 33.158561 
L 178.64191 32.278803 
L 179.580621 32.531048 
L 180.519333 34.878325 
L 181.458044 40.646422 
L 182.396756 50.980664 
L 183.335467 65.942496 
L 186.151601 120.035889 
L 187.090313 133.764843 
L 188.029024 143.44965 
L 188.967735 149.397784 
L 189.906447 152.533502 
L 189.906447 152.533502 
" clip-path="url(#p3b2d34f8cf)" style="fill: none; stroke: #0173b2; stroke-width: 2; stroke-linecap: square"/>
   </g>
   <g id="patch_93">
    <path d="M 63.47 154.65486 
L 63.47 26.16 
" style="fill: none; stroke: #000000; stroke-width: 0.8; stroke-linejoin: miter; stroke-linecap: square"/>
   </g>
   <g id="patch_94">
    <path d="M 190.49925 154.65486 
L 190.49925 26.16 
" style="fill: none; stroke: #000000; stroke-width: 0.8; stroke-linejoin: miter; stroke-linecap: square"/>
   </g>
   <g id="patch_95">
    <path d="M 63.47 154.65486 
L 190.49925 154.65486 
" style="fill: none; stroke: #000000; stroke-width: 0.8; stroke-linejoin: miter; stroke-linecap: square"/>
   </g>
   <g id="patch_96">
    <path d="M 63.47 26.16 
L 190.49925 26.16 
" style="fill: none; stroke: #000000; stroke-width: 0.8; stroke-linejoin: miter; stroke-linecap: square"/>
   </g>
   <g id="text_13">
    <!-- HLCA -->
    <g transform="translate(108.844 20.16) scale(0.12 -0.12)">
     <defs>
      <path id="DejaVuSerif-48" d="M 353 0 
L 353 331 
L 947 331 
L 947 4331 
L 353 4331 
L 353 4666 
L 2175 4666 
L 2175 4331 
L 1581 4331 
L 1581 2719 
L 4000 2719 
L 4000 4331 
L 3406 4331 
L 3406 4666 
L 5228 4666 
L 5228 4331 
L 4634 4331 
L 4634 331 
L 5228 331 
L 5228 0 
L 3406 0 
L 3406 331 
L 4000 331 
L 4000 2338 
L 1581 2338 
L 1581 331 
L 2175 331 
L 2175 0 
L 353 0 
z
" transform="scale(0.015625)"/>
      <path id="DejaVuSerif-4c" d="M 353 0 
L 353 331 
L 947 331 
L 947 4331 
L 353 4331 
L 353 4666 
L 2175 4666 
L 2175 4331 
L 1581 4331 
L 1581 384 
L 3713 384 
L 3713 1166 
L 4097 1166 
L 4097 0 
L 353 0 
z
" transform="scale(0.015625)"/>
      <path id="DejaVuSerif-43" d="M 4513 1234 
Q 4306 581 3820 245 
Q 3334 -91 2591 -91 
Q 2134 -91 1743 65 
Q 1353 222 1050 525 
Q 700 875 529 1320 
Q 359 1766 359 2328 
Q 359 3416 987 4083 
Q 1616 4750 2644 4750 
Q 3025 4750 3456 4650 
Q 3888 4550 4384 4347 
L 4384 3272 
L 4031 3272 
Q 3916 3859 3567 4137 
Q 3219 4416 2591 4416 
Q 1844 4416 1459 3886 
Q 1075 3356 1075 2328 
Q 1075 1303 1459 773 
Q 1844 244 2591 244 
Q 3113 244 3450 492 
Q 3788 741 3938 1234 
L 4513 1234 
z
" transform="scale(0.015625)"/>
      <path id="DejaVuSerif-41" d="M 1281 1691 
L 2994 1691 
L 2138 3909 
L 1281 1691 
z
M -38 0 
L -38 331 
L 372 331 
L 2034 4666 
L 2559 4666 
L 4225 331 
L 4684 331 
L 4684 0 
L 2988 0 
L 2988 331 
L 3506 331 
L 3116 1356 
L 1153 1356 
L 763 331 
L 1275 331 
L 1275 0 
L -38 0 
z
" transform="scale(0.015625)"/>
     </defs>
     <use xlink:href="#DejaVuSerif-48"/>
     <use xlink:href="#DejaVuSerif-4c" x="87.207031"/>
     <use xlink:href="#DejaVuSerif-43" x="153.613281"/>
     <use xlink:href="#DejaVuSerif-41" x="230.126953"/>
    </g>
   </g>
  </g>
 </g>
 <defs>
  <clipPath id="p3b2d34f8cf">
   <rect x="63.47" y="26.16" width="127.02925" height="128.49486"/>
  </clipPath>
 </defs>
</svg>
