<?xml version="1.0" encoding="utf-8" standalone="no"?>
<!DOCTYPE svg PUBLIC "-//W3C//DTD SVG 1.1//EN"
  "http://www.w3.org/Graphics/SVG/1.1/DTD/svg11.dtd">
<svg xmlns:xlink="http://www.w3.org/1999/xlink" width="216pt" height="216pt" viewBox="0 0 216 216" xmlns="http://www.w3.org/2000/svg" version="1.1">
 <metadata>
  <rdf:RDF xmlns:dc="http://purl.org/dc/elements/1.1/" xmlns:cc="http://creativecommons.org/ns#" xmlns:rdf="http://www.w3.org/1999/02/22-rdf-syntax-ns#">
   <cc:Work>
    <dc:type rdf:resource="http://purl.org/dc/dcmitype/StillImage"/>
    <dc:date>2024-08-06T10:43:14.370131</dc:date>
    <dc:format>image/svg+xml</dc:format>
    <dc:creator>
     <cc:Agent>
      <dc:title>Matplotlib v3.8.1, https://matplotlib.org/</dc:title>
     </cc:Agent>
    </dc:creator>
   </cc:Work>
  </rdf:RDF>
 </metadata>
 <defs>
  <style type="text/css">*{stroke-linejoin: round; stroke-linecap: butt}</style>
 </defs>
 <g id="figure_1">
  <g id="patch_1">
   <path d="M 0 216 
L 216 216 
L 216 0 
L 0 0 
z
" style="fill: #ffffff"/>
  </g>
  <g id="axes_1">
   <g id="patch_2">
    <path d="M 63.47 154.65486 
L 190.49925 154.65486 
L 190.49925 26.16 
L 63.47 26.16 
z
" style="fill: #ffffff"/>
   </g>
   <g id="patch_3">
    <path d="M 3.102878 154.65486 
L 9.329663 154.65486 
L 9.329663 154.65486 
L 3.102878 154.65486 
z
" clip-path="url(#p0a18f590c6)" style="fill: #d55e00; fill-opacity: 0.4; stroke: #000000; stroke-width: 0.507273; stroke-linejoin: miter"/>
   </g>
   <g id="patch_4">
    <path d="M 9.329663 154.65486 
L 15.556449 154.65486 
L 15.556449 154.65486 
L 9.329663 154.65486 
z
" clip-path="url(#p0a18f590c6)" style="fill: #d55e00; fill-opacity: 0.4; stroke: #000000; stroke-width: 0.507273; stroke-linejoin: miter"/>
   </g>
   <g id="patch_5">
    <path d="M 15.556449 154.65486 
L 21.783234 154.65486 
L 21.783234 154.65486 
L 15.556449 154.65486 
z
" clip-path="url(#p0a18f590c6)" style="fill: #d55e00; fill-opacity: 0.4; stroke: #000000; stroke-width: 0.507273; stroke-linejoin: miter"/>
   </g>
   <g id="patch_6">
    <path d="M 21.783234 154.65486 
L 28.01002 154.65486 
L 28.01002 154.65486 
L 21.783234 154.65486 
z
" clip-path="url(#p0a18f590c6)" style="fill: #d55e00; fill-opacity: 0.4; stroke: #000000; stroke-width: 0.507273; stroke-linejoin: miter"/>
   </g>
   <g id="patch_7">
    <path d="M 28.01002 154.65486 
L 34.236806 154.65486 
L 34.236806 154.65486 
L 28.01002 154.65486 
z
" clip-path="url(#p0a18f590c6)" style="fill: #d55e00; fill-opacity: 0.4; stroke: #000000; stroke-width: 0.507273; stroke-linejoin: miter"/>
   </g>
   <g id="patch_8">
    <path d="M 34.236806 154.65486 
L 40.463591 154.65486 
L 40.463591 154.65486 
L 34.236806 154.65486 
z
" clip-path="url(#p0a18f590c6)" style="fill: #d55e00; fill-opacity: 0.4; stroke: #000000; stroke-width: 0.507273; stroke-linejoin: miter"/>
   </g>
   <g id="patch_9">
    <path d="M 40.463591 154.65486 
L 46.690377 154.65486 
L 46.690377 154.65486 
L 40.463591 154.65486 
z
" clip-path="url(#p0a18f590c6)" style="fill: #d55e00; fill-opacity: 0.4; stroke: #000000; stroke-width: 0.507273; stroke-linejoin: miter"/>
   </g>
   <g id="patch_10">
    <path d="M 46.690377 154.65486 
L 52.917163 154.65486 
L 52.917163 154.65486 
L 46.690377 154.65486 
z
" clip-path="url(#p0a18f590c6)" style="fill: #d55e00; fill-opacity: 0.4; stroke: #000000; stroke-width: 0.507273; stroke-linejoin: miter"/>
   </g>
   <g id="patch_11">
    <path d="M 52.917163 154.65486 
L 59.143948 154.65486 
L 59.143948 154.65486 
L 52.917163 154.65486 
z
" clip-path="url(#p0a18f590c6)" style="fill: #d55e00; fill-opacity: 0.4; stroke: #000000; stroke-width: 0.507273; stroke-linejoin: miter"/>
   </g>
   <g id="patch_12">
    <path d="M 59.143948 154.65486 
L 65.370734 154.65486 
L 65.370734 154.65486 
L 59.143948 154.65486 
z
" clip-path="url(#p0a18f590c6)" style="fill: #d55e00; fill-opacity: 0.4; stroke: #000000; stroke-width: 0.507273; stroke-linejoin: miter"/>
   </g>
   <g id="patch_13">
    <path d="M 65.370734 154.65486 
L 71.59752 154.65486 
L 71.59752 154.65486 
L 65.370734 154.65486 
z
" clip-path="url(#p0a18f590c6)" style="fill: #d55e00; fill-opacity: 0.4; stroke: #000000; stroke-width: 0.507273; stroke-linejoin: miter"/>
   </g>
   <g id="patch_14">
    <path d="M 71.59752 154.65486 
L 77.824305 154.65486 
L 77.824305 154.65486 
L 71.59752 154.65486 
z
" clip-path="url(#p0a18f590c6)" style="fill: #d55e00; fill-opacity: 0.4; stroke: #000000; stroke-width: 0.507273; stroke-linejoin: miter"/>
   </g>
   <g id="patch_15">
    <path d="M 77.824305 154.65486 
L 84.051091 154.65486 
L 84.051091 154.65486 
L 77.824305 154.65486 
z
" clip-path="url(#p0a18f590c6)" style="fill: #d55e00; fill-opacity: 0.4; stroke: #000000; stroke-width: 0.507273; stroke-linejoin: miter"/>
   </g>
   <g id="patch_16">
    <path d="M 84.051091 154.65486 
L 90.277877 154.65486 
L 90.277877 154.65486 
L 84.051091 154.65486 
z
" clip-path="url(#p0a18f590c6)" style="fill: #d55e00; fill-opacity: 0.4; stroke: #000000; stroke-width: 0.507273; stroke-linejoin: miter"/>
   </g>
   <g id="patch_17">
    <path d="M 90.277877 154.65486 
L 96.504662 154.65486 
L 96.504662 154.65486 
L 90.277877 154.65486 
z
" clip-path="url(#p0a18f590c6)" style="fill: #d55e00; fill-opacity: 0.4; stroke: #000000; stroke-width: 0.507273; stroke-linejoin: miter"/>
   </g>
   <g id="patch_18">
    <path d="M 96.504662 154.65486 
L 102.731448 154.65486 
L 102.731448 154.65486 
L 96.504662 154.65486 
z
" clip-path="url(#p0a18f590c6)" style="fill: #d55e00; fill-opacity: 0.4; stroke: #000000; stroke-width: 0.507273; stroke-linejoin: miter"/>
   </g>
   <g id="patch_19">
    <path d="M 102.731448 154.65486 
L 108.958233 154.65486 
L 108.958233 154.65486 
L 102.731448 154.65486 
z
" clip-path="url(#p0a18f590c6)" style="fill: #d55e00; fill-opacity: 0.4; stroke: #000000; stroke-width: 0.507273; stroke-linejoin: miter"/>
   </g>
   <g id="patch_20">
    <path d="M 108.958233 154.65486 
L 115.185019 154.65486 
L 115.185019 154.65486 
L 108.958233 154.65486 
z
" clip-path="url(#p0a18f590c6)" style="fill: #d55e00; fill-opacity: 0.4; stroke: #000000; stroke-width: 0.507273; stroke-linejoin: miter"/>
   </g>
   <g id="patch_21">
    <path d="M 115.185019 154.65486 
L 121.411805 154.65486 
L 121.411805 154.65486 
L 115.185019 154.65486 
z
" clip-path="url(#p0a18f590c6)" style="fill: #d55e00; fill-opacity: 0.4; stroke: #000000; stroke-width: 0.507273; stroke-linejoin: miter"/>
   </g>
   <g id="patch_22">
    <path d="M 121.411805 154.65486 
L 127.63859 154.65486 
L 127.63859 154.65486 
L 121.411805 154.65486 
z
" clip-path="url(#p0a18f590c6)" style="fill: #d55e00; fill-opacity: 0.4; stroke: #000000; stroke-width: 0.507273; stroke-linejoin: miter"/>
   </g>
   <g id="patch_23">
    <path d="M 127.63859 154.65486 
L 133.865376 154.65486 
L 133.865376 154.65486 
L 127.63859 154.65486 
z
" clip-path="url(#p0a18f590c6)" style="fill: #d55e00; fill-opacity: 0.4; stroke: #000000; stroke-width: 0.507273; stroke-linejoin: miter"/>
   </g>
   <g id="patch_24">
    <path d="M 133.865376 154.65486 
L 140.092162 154.65486 
L 140.092162 154.65486 
L 133.865376 154.65486 
z
" clip-path="url(#p0a18f590c6)" style="fill: #d55e00; fill-opacity: 0.4; stroke: #000000; stroke-width: 0.507273; stroke-linejoin: miter"/>
   </g>
   <g id="patch_25">
    <path d="M 140.092162 154.65486 
L 146.318947 154.65486 
L 146.318947 154.65486 
L 140.092162 154.65486 
z
" clip-path="url(#p0a18f590c6)" style="fill: #d55e00; fill-opacity: 0.4; stroke: #000000; stroke-width: 0.507273; stroke-linejoin: miter"/>
   </g>
   <g id="patch_26">
    <path d="M 146.318947 154.65486 
L 152.545733 154.65486 
L 152.545733 154.65486 
L 146.318947 154.65486 
z
" clip-path="url(#p0a18f590c6)" style="fill: #d55e00; fill-opacity: 0.4; stroke: #000000; stroke-width: 0.507273; stroke-linejoin: miter"/>
   </g>
   <g id="patch_27">
    <path d="M 152.545733 154.65486 
L 158.772519 154.65486 
L 158.772519 154.650489 
L 152.545733 154.650489 
z
" clip-path="url(#p0a18f590c6)" style="fill: #d55e00; fill-opacity: 0.4; stroke: #000000; stroke-width: 0.507273; stroke-linejoin: miter"/>
   </g>
   <g id="patch_28">
    <path d="M 158.772519 154.65486 
L 164.999304 154.65486 
L 164.999304 154.353235 
L 158.772519 154.353235 
z
" clip-path="url(#p0a18f590c6)" style="fill: #d55e00; fill-opacity: 0.4; stroke: #000000; stroke-width: 0.507273; stroke-linejoin: miter"/>
   </g>
   <g id="patch_29">
    <path d="M 164.999304 154.65486 
L 171.22609 154.65486 
L 171.22609 149.817917 
L 164.999304 149.817917 
z
" clip-path="url(#p0a18f590c6)" style="fill: #d55e00; fill-opacity: 0.4; stroke: #000000; stroke-width: 0.507273; stroke-linejoin: miter"/>
   </g>
   <g id="patch_30">
    <path d="M 171.22609 154.65486 
L 177.452876 154.65486 
L 177.452876 120.512118 
L 171.22609 120.512118 
z
" clip-path="url(#p0a18f590c6)" style="fill: #d55e00; fill-opacity: 0.4; stroke: #000000; stroke-width: 0.507273; stroke-linejoin: miter"/>
   </g>
   <g id="patch_31">
    <path d="M 177.452876 154.65486 
L 183.679661 154.65486 
L 183.679661 58.169538 
L 177.452876 58.169538 
z
" clip-path="url(#p0a18f590c6)" style="fill: #d55e00; fill-opacity: 0.4; stroke: #000000; stroke-width: 0.507273; stroke-linejoin: miter"/>
   </g>
   <g id="patch_32">
    <path d="M 183.679661 154.65486 
L 189.906447 154.65486 
L 189.906447 34.723587 
L 183.679661 34.723587 
z
" clip-path="url(#p0a18f590c6)" style="fill: #d55e00; fill-opacity: 0.4; stroke: #000000; stroke-width: 0.507273; stroke-linejoin: miter"/>
   </g>
   <g id="patch_33">
    <path d="M 3.102878 154.65486 
L 9.329663 154.65486 
L 9.329663 154.65486 
L 3.102878 154.65486 
z
" clip-path="url(#p0a18f590c6)" style="fill: #029e73; fill-opacity: 0.4; stroke: #000000; stroke-width: 0.507273; stroke-linejoin: miter"/>
   </g>
   <g id="patch_34">
    <path d="M 9.329663 154.65486 
L 15.556449 154.65486 
L 15.556449 154.65486 
L 9.329663 154.65486 
z
" clip-path="url(#p0a18f590c6)" style="fill: #029e73; fill-opacity: 0.4; stroke: #000000; stroke-width: 0.507273; stroke-linejoin: miter"/>
   </g>
   <g id="patch_35">
    <path d="M 15.556449 154.65486 
L 21.783234 154.65486 
L 21.783234 154.65486 
L 15.556449 154.65486 
z
" clip-path="url(#p0a18f590c6)" style="fill: #029e73; fill-opacity: 0.4; stroke: #000000; stroke-width: 0.507273; stroke-linejoin: miter"/>
   </g>
   <g id="patch_36">
    <path d="M 21.783234 154.65486 
L 28.01002 154.65486 
L 28.01002 154.65486 
L 21.783234 154.65486 
z
" clip-path="url(#p0a18f590c6)" style="fill: #029e73; fill-opacity: 0.4; stroke: #000000; stroke-width: 0.507273; stroke-linejoin: miter"/>
   </g>
   <g id="patch_37">
    <path d="M 28.01002 154.65486 
L 34.236806 154.65486 
L 34.236806 154.65486 
L 28.01002 154.65486 
z
" clip-path="url(#p0a18f590c6)" style="fill: #029e73; fill-opacity: 0.4; stroke: #000000; stroke-width: 0.507273; stroke-linejoin: miter"/>
   </g>
   <g id="patch_38">
    <path d="M 34.236806 154.65486 
L 40.463591 154.65486 
L 40.463591 154.65486 
L 34.236806 154.65486 
z
" clip-path="url(#p0a18f590c6)" style="fill: #029e73; fill-opacity: 0.4; stroke: #000000; stroke-width: 0.507273; stroke-linejoin: miter"/>
   </g>
   <g id="patch_39">
    <path d="M 40.463591 154.65486 
L 46.690377 154.65486 
L 46.690377 154.65486 
L 40.463591 154.65486 
z
" clip-path="url(#p0a18f590c6)" style="fill: #029e73; fill-opacity: 0.4; stroke: #000000; stroke-width: 0.507273; stroke-linejoin: miter"/>
   </g>
   <g id="patch_40">
    <path d="M 46.690377 154.65486 
L 52.917163 154.65486 
L 52.917163 154.65486 
L 46.690377 154.65486 
z
" clip-path="url(#p0a18f590c6)" style="fill: #029e73; fill-opacity: 0.4; stroke: #000000; stroke-width: 0.507273; stroke-linejoin: miter"/>
   </g>
   <g id="patch_41">
    <path d="M 52.917163 154.65486 
L 59.143948 154.65486 
L 59.143948 154.65486 
L 52.917163 154.65486 
z
" clip-path="url(#p0a18f590c6)" style="fill: #029e73; fill-opacity: 0.4; stroke: #000000; stroke-width: 0.507273; stroke-linejoin: miter"/>
   </g>
   <g id="patch_42">
    <path d="M 59.143948 154.65486 
L 65.370734 154.65486 
L 65.370734 154.65486 
L 59.143948 154.65486 
z
" clip-path="url(#p0a18f590c6)" style="fill: #029e73; fill-opacity: 0.4; stroke: #000000; stroke-width: 0.507273; stroke-linejoin: miter"/>
   </g>
   <g id="patch_43">
    <path d="M 65.370734 154.65486 
L 71.59752 154.65486 
L 71.59752 154.523719 
L 65.370734 154.523719 
z
" clip-path="url(#p0a18f590c6)" style="fill: #029e73; fill-opacity: 0.4; stroke: #000000; stroke-width: 0.507273; stroke-linejoin: miter"/>
   </g>
   <g id="patch_44">
    <path d="M 71.59752 154.65486 
L 77.824305 154.65486 
L 77.824305 143.055377 
L 71.59752 143.055377 
z
" clip-path="url(#p0a18f590c6)" style="fill: #029e73; fill-opacity: 0.4; stroke: #000000; stroke-width: 0.507273; stroke-linejoin: miter"/>
   </g>
   <g id="patch_45">
    <path d="M 77.824305 154.65486 
L 84.051091 154.65486 
L 84.051091 139.256639 
L 77.824305 139.256639 
z
" clip-path="url(#p0a18f590c6)" style="fill: #029e73; fill-opacity: 0.4; stroke: #000000; stroke-width: 0.507273; stroke-linejoin: miter"/>
   </g>
   <g id="patch_46">
    <path d="M 84.051091 154.65486 
L 90.277877 154.65486 
L 90.277877 125.255076 
L 84.051091 125.255076 
z
" clip-path="url(#p0a18f590c6)" style="fill: #029e73; fill-opacity: 0.4; stroke: #000000; stroke-width: 0.507273; stroke-linejoin: miter"/>
   </g>
   <g id="patch_47">
    <path d="M 90.277877 154.65486 
L 96.504662 154.65486 
L 96.504662 125.902042 
L 90.277877 125.902042 
z
" clip-path="url(#p0a18f590c6)" style="fill: #029e73; fill-opacity: 0.4; stroke: #000000; stroke-width: 0.507273; stroke-linejoin: miter"/>
   </g>
   <g id="patch_48">
    <path d="M 96.504662 154.65486 
L 102.731448 154.65486 
L 102.731448 132.426342 
L 96.504662 132.426342 
z
" clip-path="url(#p0a18f590c6)" style="fill: #029e73; fill-opacity: 0.4; stroke: #000000; stroke-width: 0.507273; stroke-linejoin: miter"/>
   </g>
   <g id="patch_49">
    <path d="M 102.731448 154.65486 
L 108.958233 154.65486 
L 108.958233 136.345293 
L 102.731448 136.345293 
z
" clip-path="url(#p0a18f590c6)" style="fill: #029e73; fill-opacity: 0.4; stroke: #000000; stroke-width: 0.507273; stroke-linejoin: miter"/>
   </g>
   <g id="patch_50">
    <path d="M 108.958233 154.65486 
L 115.185019 154.65486 
L 115.185019 138.205319 
L 108.958233 138.205319 
z
" clip-path="url(#p0a18f590c6)" style="fill: #029e73; fill-opacity: 0.4; stroke: #000000; stroke-width: 0.507273; stroke-linejoin: miter"/>
   </g>
   <g id="patch_51">
    <path d="M 115.185019 154.65486 
L 121.411805 154.65486 
L 121.411805 139.011841 
L 115.185019 139.011841 
z
" clip-path="url(#p0a18f590c6)" style="fill: #029e73; fill-opacity: 0.4; stroke: #000000; stroke-width: 0.507273; stroke-linejoin: miter"/>
   </g>
   <g id="patch_52">
    <path d="M 121.411805 154.65486 
L 127.63859 154.65486 
L 127.63859 139.658807 
L 121.411805 139.658807 
z
" clip-path="url(#p0a18f590c6)" style="fill: #029e73; fill-opacity: 0.4; stroke: #000000; stroke-width: 0.507273; stroke-linejoin: miter"/>
   </g>
   <g id="patch_53">
    <path d="M 127.63859 154.65486 
L 133.865376 154.65486 
L 133.865376 138.756115 
L 127.63859 138.756115 
z
" clip-path="url(#p0a18f590c6)" style="fill: #029e73; fill-opacity: 0.4; stroke: #000000; stroke-width: 0.507273; stroke-linejoin: miter"/>
   </g>
   <g id="patch_54">
    <path d="M 133.865376 154.65486 
L 140.092162 154.65486 
L 140.092162 137.838123 
L 133.865376 137.838123 
z
" clip-path="url(#p0a18f590c6)" style="fill: #029e73; fill-opacity: 0.4; stroke: #000000; stroke-width: 0.507273; stroke-linejoin: miter"/>
   </g>
   <g id="patch_55">
    <path d="M 140.092162 154.65486 
L 146.318947 154.65486 
L 146.318947 135.630571 
L 140.092162 135.630571 
z
" clip-path="url(#p0a18f590c6)" style="fill: #029e73; fill-opacity: 0.4; stroke: #000000; stroke-width: 0.507273; stroke-linejoin: miter"/>
   </g>
   <g id="patch_56">
    <path d="M 146.318947 154.65486 
L 152.545733 154.65486 
L 152.545733 134.603294 
L 146.318947 134.603294 
z
" clip-path="url(#p0a18f590c6)" style="fill: #029e73; fill-opacity: 0.4; stroke: #000000; stroke-width: 0.507273; stroke-linejoin: miter"/>
   </g>
   <g id="patch_57">
    <path d="M 152.545733 154.65486 
L 158.772519 154.65486 
L 158.772519 135.311459 
L 152.545733 135.311459 
z
" clip-path="url(#p0a18f590c6)" style="fill: #029e73; fill-opacity: 0.4; stroke: #000000; stroke-width: 0.507273; stroke-linejoin: miter"/>
   </g>
   <g id="patch_58">
    <path d="M 158.772519 154.65486 
L 164.999304 154.65486 
L 164.999304 141.09918 
L 158.772519 141.09918 
z
" clip-path="url(#p0a18f590c6)" style="fill: #029e73; fill-opacity: 0.4; stroke: #000000; stroke-width: 0.507273; stroke-linejoin: miter"/>
   </g>
   <g id="patch_59">
    <path d="M 164.999304 154.65486 
L 171.22609 154.65486 
L 171.22609 150.158886 
L 164.999304 150.158886 
z
" clip-path="url(#p0a18f590c6)" style="fill: #029e73; fill-opacity: 0.4; stroke: #000000; stroke-width: 0.507273; stroke-linejoin: miter"/>
   </g>
   <g id="patch_60">
    <path d="M 171.22609 154.65486 
L 177.452876 154.65486 
L 177.452876 154.337935 
L 171.22609 154.337935 
z
" clip-path="url(#p0a18f590c6)" style="fill: #029e73; fill-opacity: 0.4; stroke: #000000; stroke-width: 0.507273; stroke-linejoin: miter"/>
   </g>
   <g id="patch_61">
    <path d="M 177.452876 154.65486 
L 183.679661 154.65486 
L 183.679661 154.650489 
L 177.452876 154.650489 
z
" clip-path="url(#p0a18f590c6)" style="fill: #029e73; fill-opacity: 0.4; stroke: #000000; stroke-width: 0.507273; stroke-linejoin: miter"/>
   </g>
   <g id="patch_62">
    <path d="M 183.679661 154.65486 
L 189.906447 154.65486 
L 189.906447 154.65486 
L 183.679661 154.65486 
z
" clip-path="url(#p0a18f590c6)" style="fill: #029e73; fill-opacity: 0.4; stroke: #000000; stroke-width: 0.507273; stroke-linejoin: miter"/>
   </g>
   <g id="patch_63">
    <path d="M 3.102878 154.65486 
L 9.329663 154.65486 
L 9.329663 154.652675 
L 3.102878 154.652675 
z
" clip-path="url(#p0a18f590c6)" style="fill: #de8f05; fill-opacity: 0.4; stroke: #000000; stroke-width: 0.507273; stroke-linejoin: miter"/>
   </g>
   <g id="patch_64">
    <path d="M 9.329663 154.65486 
L 15.556449 154.65486 
L 15.556449 154.650489 
L 9.329663 154.650489 
z
" clip-path="url(#p0a18f590c6)" style="fill: #de8f05; fill-opacity: 0.4; stroke: #000000; stroke-width: 0.507273; stroke-linejoin: miter"/>
   </g>
   <g id="patch_65">
    <path d="M 15.556449 154.65486 
L 21.783234 154.65486 
L 21.783234 154.646118 
L 15.556449 154.646118 
z
" clip-path="url(#p0a18f590c6)" style="fill: #de8f05; fill-opacity: 0.4; stroke: #000000; stroke-width: 0.507273; stroke-linejoin: miter"/>
   </g>
   <g id="patch_66">
    <path d="M 21.783234 154.65486 
L 28.01002 154.65486 
L 28.01002 154.639561 
L 21.783234 154.639561 
z
" clip-path="url(#p0a18f590c6)" style="fill: #de8f05; fill-opacity: 0.4; stroke: #000000; stroke-width: 0.507273; stroke-linejoin: miter"/>
   </g>
   <g id="patch_67">
    <path d="M 28.01002 154.65486 
L 34.236806 154.65486 
L 34.236806 154.624261 
L 28.01002 154.624261 
z
" clip-path="url(#p0a18f590c6)" style="fill: #de8f05; fill-opacity: 0.4; stroke: #000000; stroke-width: 0.507273; stroke-linejoin: miter"/>
   </g>
   <g id="patch_68">
    <path d="M 34.236806 154.65486 
L 40.463591 154.65486 
L 40.463591 154.608961 
L 34.236806 154.608961 
z
" clip-path="url(#p0a18f590c6)" style="fill: #de8f05; fill-opacity: 0.4; stroke: #000000; stroke-width: 0.507273; stroke-linejoin: miter"/>
   </g>
   <g id="patch_69">
    <path d="M 40.463591 154.65486 
L 46.690377 154.65486 
L 46.690377 154.58929 
L 40.463591 154.58929 
z
" clip-path="url(#p0a18f590c6)" style="fill: #de8f05; fill-opacity: 0.4; stroke: #000000; stroke-width: 0.507273; stroke-linejoin: miter"/>
   </g>
   <g id="patch_70">
    <path d="M 46.690377 154.65486 
L 52.917163 154.65486 
L 52.917163 154.576175 
L 46.690377 154.576175 
z
" clip-path="url(#p0a18f590c6)" style="fill: #de8f05; fill-opacity: 0.4; stroke: #000000; stroke-width: 0.507273; stroke-linejoin: miter"/>
   </g>
   <g id="patch_71">
    <path d="M 52.917163 154.65486 
L 59.143948 154.65486 
L 59.143948 154.545576 
L 52.917163 154.545576 
z
" clip-path="url(#p0a18f590c6)" style="fill: #de8f05; fill-opacity: 0.4; stroke: #000000; stroke-width: 0.507273; stroke-linejoin: miter"/>
   </g>
   <g id="patch_72">
    <path d="M 59.143948 154.65486 
L 65.370734 154.65486 
L 65.370734 154.460334 
L 59.143948 154.460334 
z
" clip-path="url(#p0a18f590c6)" style="fill: #de8f05; fill-opacity: 0.4; stroke: #000000; stroke-width: 0.507273; stroke-linejoin: miter"/>
   </g>
   <g id="patch_73">
    <path d="M 65.370734 154.65486 
L 71.59752 154.65486 
L 71.59752 154.442848 
L 65.370734 154.442848 
z
" clip-path="url(#p0a18f590c6)" style="fill: #de8f05; fill-opacity: 0.4; stroke: #000000; stroke-width: 0.507273; stroke-linejoin: miter"/>
   </g>
   <g id="patch_74">
    <path d="M 71.59752 154.65486 
L 77.824305 154.65486 
L 77.824305 154.320449 
L 71.59752 154.320449 
z
" clip-path="url(#p0a18f590c6)" style="fill: #de8f05; fill-opacity: 0.4; stroke: #000000; stroke-width: 0.507273; stroke-linejoin: miter"/>
   </g>
   <g id="patch_75">
    <path d="M 77.824305 154.65486 
L 84.051091 154.65486 
L 84.051091 154.206793 
L 77.824305 154.206793 
z
" clip-path="url(#p0a18f590c6)" style="fill: #de8f05; fill-opacity: 0.4; stroke: #000000; stroke-width: 0.507273; stroke-linejoin: miter"/>
   </g>
   <g id="patch_76">
    <path d="M 84.051091 154.65486 
L 90.277877 154.65486 
L 90.277877 154.045052 
L 84.051091 154.045052 
z
" clip-path="url(#p0a18f590c6)" style="fill: #de8f05; fill-opacity: 0.4; stroke: #000000; stroke-width: 0.507273; stroke-linejoin: miter"/>
   </g>
   <g id="patch_77">
    <path d="M 90.277877 154.65486 
L 96.504662 154.65486 
L 96.504662 153.828668 
L 90.277877 153.828668 
z
" clip-path="url(#p0a18f590c6)" style="fill: #de8f05; fill-opacity: 0.4; stroke: #000000; stroke-width: 0.507273; stroke-linejoin: miter"/>
   </g>
   <g id="patch_78">
    <path d="M 96.504662 154.65486 
L 102.731448 154.65486 
L 102.731448 153.518299 
L 96.504662 153.518299 
z
" clip-path="url(#p0a18f590c6)" style="fill: #de8f05; fill-opacity: 0.4; stroke: #000000; stroke-width: 0.507273; stroke-linejoin: miter"/>
   </g>
   <g id="patch_79">
    <path d="M 102.731448 154.65486 
L 108.958233 154.65486 
L 108.958233 152.980618 
L 102.731448 152.980618 
z
" clip-path="url(#p0a18f590c6)" style="fill: #de8f05; fill-opacity: 0.4; stroke: #000000; stroke-width: 0.507273; stroke-linejoin: miter"/>
   </g>
   <g id="patch_80">
    <path d="M 108.958233 154.65486 
L 115.185019 154.65486 
L 115.185019 152.434194 
L 108.958233 152.434194 
z
" clip-path="url(#p0a18f590c6)" style="fill: #de8f05; fill-opacity: 0.4; stroke: #000000; stroke-width: 0.507273; stroke-linejoin: miter"/>
   </g>
   <g id="patch_81">
    <path d="M 115.185019 154.65486 
L 121.411805 154.65486 
L 121.411805 151.538059 
L 115.185019 151.538059 
z
" clip-path="url(#p0a18f590c6)" style="fill: #de8f05; fill-opacity: 0.4; stroke: #000000; stroke-width: 0.507273; stroke-linejoin: miter"/>
   </g>
   <g id="patch_82">
    <path d="M 121.411805 154.65486 
L 127.63859 154.65486 
L 127.63859 150.534825 
L 121.411805 150.534825 
z
" clip-path="url(#p0a18f590c6)" style="fill: #de8f05; fill-opacity: 0.4; stroke: #000000; stroke-width: 0.507273; stroke-linejoin: miter"/>
   </g>
   <g id="patch_83">
    <path d="M 127.63859 154.65486 
L 133.865376 154.65486 
L 133.865376 148.639828 
L 127.63859 148.639828 
z
" clip-path="url(#p0a18f590c6)" style="fill: #de8f05; fill-opacity: 0.4; stroke: #000000; stroke-width: 0.507273; stroke-linejoin: miter"/>
   </g>
   <g id="patch_84">
    <path d="M 133.865376 154.65486 
L 140.092162 154.65486 
L 140.092162 146.224635 
L 133.865376 146.224635 
z
" clip-path="url(#p0a18f590c6)" style="fill: #de8f05; fill-opacity: 0.4; stroke: #000000; stroke-width: 0.507273; stroke-linejoin: miter"/>
   </g>
   <g id="patch_85">
    <path d="M 140.092162 154.65486 
L 146.318947 154.65486 
L 146.318947 143.217118 
L 140.092162 143.217118 
z
" clip-path="url(#p0a18f590c6)" style="fill: #de8f05; fill-opacity: 0.4; stroke: #000000; stroke-width: 0.507273; stroke-linejoin: miter"/>
   </g>
   <g id="patch_86">
    <path d="M 146.318947 154.65486 
L 152.545733 154.65486 
L 152.545733 138.683987 
L 146.318947 138.683987 
z
" clip-path="url(#p0a18f590c6)" style="fill: #de8f05; fill-opacity: 0.4; stroke: #000000; stroke-width: 0.507273; stroke-linejoin: miter"/>
   </g>
   <g id="patch_87">
    <path d="M 152.545733 154.65486 
L 158.772519 154.65486 
L 158.772519 132.937794 
L 152.545733 132.937794 
z
" clip-path="url(#p0a18f590c6)" style="fill: #de8f05; fill-opacity: 0.4; stroke: #000000; stroke-width: 0.507273; stroke-linejoin: miter"/>
   </g>
   <g id="patch_88">
    <path d="M 158.772519 154.65486 
L 164.999304 154.65486 
L 164.999304 124.98405 
L 158.772519 124.98405 
z
" clip-path="url(#p0a18f590c6)" style="fill: #de8f05; fill-opacity: 0.4; stroke: #000000; stroke-width: 0.507273; stroke-linejoin: miter"/>
   </g>
   <g id="patch_89">
    <path d="M 164.999304 154.65486 
L 171.22609 154.65486 
L 171.22609 115.095966 
L 164.999304 115.095966 
z
" clip-path="url(#p0a18f590c6)" style="fill: #de8f05; fill-opacity: 0.4; stroke: #000000; stroke-width: 0.507273; stroke-linejoin: miter"/>
   </g>
   <g id="patch_90">
    <path d="M 171.22609 154.65486 
L 177.452876 154.65486 
L 177.452876 105.382737 
L 171.22609 105.382737 
z
" clip-path="url(#p0a18f590c6)" style="fill: #de8f05; fill-opacity: 0.4; stroke: #000000; stroke-width: 0.507273; stroke-linejoin: miter"/>
   </g>
   <g id="patch_91">
    <path d="M 177.452876 154.65486 
L 183.679661 154.65486 
L 183.679661 109.43283 
L 177.452876 109.43283 
z
" clip-path="url(#p0a18f590c6)" style="fill: #de8f05; fill-opacity: 0.4; stroke: #000000; stroke-width: 0.507273; stroke-linejoin: miter"/>
   </g>
   <g id="patch_92">
    <path d="M 183.679661 154.65486 
L 189.906447 154.65486 
L 189.906447 143.663 
L 183.679661 143.663 
z
" clip-path="url(#p0a18f590c6)" style="fill: #de8f05; fill-opacity: 0.4; stroke: #000000; stroke-width: 0.507273; stroke-linejoin: miter"/>
   </g>
   <g id="patch_93">
    <path d="M 3.102878 154.65486 
L 9.329663 154.65486 
L 9.329663 154.65486 
L 3.102878 154.65486 
z
" clip-path="url(#p0a18f590c6)" style="fill: #0173b2; fill-opacity: 0.4; stroke: #000000; stroke-width: 0.507273; stroke-linejoin: miter"/>
   </g>
   <g id="patch_94">
    <path d="M 9.329663 154.65486 
L 15.556449 154.65486 
L 15.556449 154.65486 
L 9.329663 154.65486 
z
" clip-path="url(#p0a18f590c6)" style="fill: #0173b2; fill-opacity: 0.4; stroke: #000000; stroke-width: 0.507273; stroke-linejoin: miter"/>
   </g>
   <g id="patch_95">
    <path d="M 15.556449 154.65486 
L 21.783234 154.65486 
L 21.783234 154.65486 
L 15.556449 154.65486 
z
" clip-path="url(#p0a18f590c6)" style="fill: #0173b2; fill-opacity: 0.4; stroke: #000000; stroke-width: 0.507273; stroke-linejoin: miter"/>
   </g>
   <g id="patch_96">
    <path d="M 21.783234 154.65486 
L 28.01002 154.65486 
L 28.01002 154.65486 
L 21.783234 154.65486 
z
" clip-path="url(#p0a18f590c6)" style="fill: #0173b2; fill-opacity: 0.4; stroke: #000000; stroke-width: 0.507273; stroke-linejoin: miter"/>
   </g>
   <g id="patch_97">
    <path d="M 28.01002 154.65486 
L 34.236806 154.65486 
L 34.236806 154.65486 
L 28.01002 154.65486 
z
" clip-path="url(#p0a18f590c6)" style="fill: #0173b2; fill-opacity: 0.4; stroke: #000000; stroke-width: 0.507273; stroke-linejoin: miter"/>
   </g>
   <g id="patch_98">
    <path d="M 34.236806 154.65486 
L 40.463591 154.65486 
L 40.463591 154.65486 
L 34.236806 154.65486 
z
" clip-path="url(#p0a18f590c6)" style="fill: #0173b2; fill-opacity: 0.4; stroke: #000000; stroke-width: 0.507273; stroke-linejoin: miter"/>
   </g>
   <g id="patch_99">
    <path d="M 40.463591 154.65486 
L 46.690377 154.65486 
L 46.690377 154.65486 
L 40.463591 154.65486 
z
" clip-path="url(#p0a18f590c6)" style="fill: #0173b2; fill-opacity: 0.4; stroke: #000000; stroke-width: 0.507273; stroke-linejoin: miter"/>
   </g>
   <g id="patch_100">
    <path d="M 46.690377 154.65486 
L 52.917163 154.65486 
L 52.917163 154.650489 
L 46.690377 154.650489 
z
" clip-path="url(#p0a18f590c6)" style="fill: #0173b2; fill-opacity: 0.4; stroke: #000000; stroke-width: 0.507273; stroke-linejoin: miter"/>
   </g>
   <g id="patch_101">
    <path d="M 52.917163 154.65486 
L 59.143948 154.65486 
L 59.143948 154.626446 
L 52.917163 154.626446 
z
" clip-path="url(#p0a18f590c6)" style="fill: #0173b2; fill-opacity: 0.4; stroke: #000000; stroke-width: 0.507273; stroke-linejoin: miter"/>
   </g>
   <g id="patch_102">
    <path d="M 59.143948 154.65486 
L 65.370734 154.65486 
L 65.370734 154.534647 
L 59.143948 154.534647 
z
" clip-path="url(#p0a18f590c6)" style="fill: #0173b2; fill-opacity: 0.4; stroke: #000000; stroke-width: 0.507273; stroke-linejoin: miter"/>
   </g>
   <g id="patch_103">
    <path d="M 65.370734 154.65486 
L 71.59752 154.65486 
L 71.59752 154.451591 
L 65.370734 154.451591 
z
" clip-path="url(#p0a18f590c6)" style="fill: #0173b2; fill-opacity: 0.4; stroke: #000000; stroke-width: 0.507273; stroke-linejoin: miter"/>
   </g>
   <g id="patch_104">
    <path d="M 71.59752 154.65486 
L 77.824305 154.65486 
L 77.824305 154.276735 
L 71.59752 154.276735 
z
" clip-path="url(#p0a18f590c6)" style="fill: #0173b2; fill-opacity: 0.4; stroke: #000000; stroke-width: 0.507273; stroke-linejoin: miter"/>
   </g>
   <g id="patch_105">
    <path d="M 77.824305 154.65486 
L 84.051091 154.65486 
L 84.051091 154.130294 
L 77.824305 154.130294 
z
" clip-path="url(#p0a18f590c6)" style="fill: #0173b2; fill-opacity: 0.4; stroke: #000000; stroke-width: 0.507273; stroke-linejoin: miter"/>
   </g>
   <g id="patch_106">
    <path d="M 84.051091 154.65486 
L 90.277877 154.65486 
L 90.277877 153.935767 
L 84.051091 153.935767 
z
" clip-path="url(#p0a18f590c6)" style="fill: #0173b2; fill-opacity: 0.4; stroke: #000000; stroke-width: 0.507273; stroke-linejoin: miter"/>
   </g>
   <g id="patch_107">
    <path d="M 90.277877 154.65486 
L 96.504662 154.65486 
L 96.504662 153.56857 
L 90.277877 153.56857 
z
" clip-path="url(#p0a18f590c6)" style="fill: #0173b2; fill-opacity: 0.4; stroke: #000000; stroke-width: 0.507273; stroke-linejoin: miter"/>
   </g>
   <g id="patch_108">
    <path d="M 96.504662 154.65486 
L 102.731448 154.65486 
L 102.731448 153.354372 
L 96.504662 153.354372 
z
" clip-path="url(#p0a18f590c6)" style="fill: #0173b2; fill-opacity: 0.4; stroke: #000000; stroke-width: 0.507273; stroke-linejoin: miter"/>
   </g>
   <g id="patch_109">
    <path d="M 102.731448 154.65486 
L 108.958233 154.65486 
L 108.958233 153.019961 
L 102.731448 153.019961 
z
" clip-path="url(#p0a18f590c6)" style="fill: #0173b2; fill-opacity: 0.4; stroke: #000000; stroke-width: 0.507273; stroke-linejoin: miter"/>
   </g>
   <g id="patch_110">
    <path d="M 108.958233 154.65486 
L 115.185019 154.65486 
L 115.185019 152.707406 
L 108.958233 152.707406 
z
" clip-path="url(#p0a18f590c6)" style="fill: #0173b2; fill-opacity: 0.4; stroke: #000000; stroke-width: 0.507273; stroke-linejoin: miter"/>
   </g>
   <g id="patch_111">
    <path d="M 115.185019 154.65486 
L 121.411805 154.65486 
L 121.411805 151.868099 
L 115.185019 151.868099 
z
" clip-path="url(#p0a18f590c6)" style="fill: #0173b2; fill-opacity: 0.4; stroke: #000000; stroke-width: 0.507273; stroke-linejoin: miter"/>
   </g>
   <g id="patch_112">
    <path d="M 121.411805 154.65486 
L 127.63859 154.65486 
L 127.63859 150.611325 
L 121.411805 150.611325 
z
" clip-path="url(#p0a18f590c6)" style="fill: #0173b2; fill-opacity: 0.4; stroke: #000000; stroke-width: 0.507273; stroke-linejoin: miter"/>
   </g>
   <g id="patch_113">
    <path d="M 127.63859 154.65486 
L 133.865376 154.65486 
L 133.865376 148.795012 
L 127.63859 148.795012 
z
" clip-path="url(#p0a18f590c6)" style="fill: #0173b2; fill-opacity: 0.4; stroke: #000000; stroke-width: 0.507273; stroke-linejoin: miter"/>
   </g>
   <g id="patch_114">
    <path d="M 133.865376 154.65486 
L 140.092162 154.65486 
L 140.092162 145.669468 
L 133.865376 145.669468 
z
" clip-path="url(#p0a18f590c6)" style="fill: #0173b2; fill-opacity: 0.4; stroke: #000000; stroke-width: 0.507273; stroke-linejoin: miter"/>
   </g>
   <g id="patch_115">
    <path d="M 140.092162 154.65486 
L 146.318947 154.65486 
L 146.318947 141.787674 
L 140.092162 141.787674 
z
" clip-path="url(#p0a18f590c6)" style="fill: #0173b2; fill-opacity: 0.4; stroke: #000000; stroke-width: 0.507273; stroke-linejoin: miter"/>
   </g>
   <g id="patch_116">
    <path d="M 146.318947 154.65486 
L 152.545733 154.65486 
L 152.545733 137.223942 
L 146.318947 137.223942 
z
" clip-path="url(#p0a18f590c6)" style="fill: #0173b2; fill-opacity: 0.4; stroke: #000000; stroke-width: 0.507273; stroke-linejoin: miter"/>
   </g>
   <g id="patch_117">
    <path d="M 152.545733 154.65486 
L 158.772519 154.65486 
L 158.772519 132.771682 
L 152.545733 132.771682 
z
" clip-path="url(#p0a18f590c6)" style="fill: #0173b2; fill-opacity: 0.4; stroke: #000000; stroke-width: 0.507273; stroke-linejoin: miter"/>
   </g>
   <g id="patch_118">
    <path d="M 158.772519 154.65486 
L 164.999304 154.65486 
L 164.999304 127.053903 
L 158.772519 127.053903 
z
" clip-path="url(#p0a18f590c6)" style="fill: #0173b2; fill-opacity: 0.4; stroke: #000000; stroke-width: 0.507273; stroke-linejoin: miter"/>
   </g>
   <g id="patch_119">
    <path d="M 164.999304 154.65486 
L 171.22609 154.65486 
L 171.22609 118.67832 
L 164.999304 118.67832 
z
" clip-path="url(#p0a18f590c6)" style="fill: #0173b2; fill-opacity: 0.4; stroke: #000000; stroke-width: 0.507273; stroke-linejoin: miter"/>
   </g>
   <g id="patch_120">
    <path d="M 171.22609 154.65486 
L 177.452876 154.65486 
L 177.452876 106.189258 
L 171.22609 106.189258 
z
" clip-path="url(#p0a18f590c6)" style="fill: #0173b2; fill-opacity: 0.4; stroke: #000000; stroke-width: 0.507273; stroke-linejoin: miter"/>
   </g>
   <g id="patch_121">
    <path d="M 177.452876 154.65486 
L 183.679661 154.65486 
L 183.679661 103.28447 
L 177.452876 103.28447 
z
" clip-path="url(#p0a18f590c6)" style="fill: #0173b2; fill-opacity: 0.4; stroke: #000000; stroke-width: 0.507273; stroke-linejoin: miter"/>
   </g>
   <g id="patch_122">
    <path d="M 183.679661 154.65486 
L 189.906447 154.65486 
L 189.906447 144.170081 
L 183.679661 144.170081 
z
" clip-path="url(#p0a18f590c6)" style="fill: #0173b2; fill-opacity: 0.4; stroke: #000000; stroke-width: 0.507273; stroke-linejoin: miter"/>
   </g>
   <g id="matplotlib.axis_1">
    <g id="xtick_1">
     <g id="line2d_1">
      <defs>
       <path id="ma7b5fdc250" d="M 0 0 
L 0 3.5 
" style="stroke: #000000; stroke-width: 0.8"/>
      </defs>
      <g>
       <use xlink:href="#ma7b5fdc250" x="77.584361" y="154.65486" style="stroke: #000000; stroke-width: 0.8"/>
      </g>
     </g>
     <g id="text_1">
      <!-- 20000 -->
      <g transform="translate(68.288117 189.522602) rotate(-45) scale(0.1 -0.1)">
       <defs>
        <path id="DejaVuSerif-32" d="M 819 3553 
L 469 3553 
L 469 4384 
Q 803 4563 1142 4656 
Q 1481 4750 1806 4750 
Q 2534 4750 2956 4397 
Q 3378 4044 3378 3438 
Q 3378 2753 2422 1800 
Q 2347 1728 2309 1691 
L 1131 513 
L 3078 513 
L 3078 1088 
L 3444 1088 
L 3444 0 
L 434 0 
L 434 341 
L 1850 1753 
Q 2319 2222 2519 2614 
Q 2719 3006 2719 3438 
Q 2719 3909 2473 4175 
Q 2228 4441 1797 4441 
Q 1350 4441 1106 4219 
Q 863 3997 819 3553 
z
" transform="scale(0.015625)"/>
        <path id="DejaVuSerif-30" d="M 2034 219 
Q 2513 219 2750 744 
Q 2988 1269 2988 2328 
Q 2988 3391 2750 3916 
Q 2513 4441 2034 4441 
Q 1556 4441 1318 3916 
Q 1081 3391 1081 2328 
Q 1081 1269 1318 744 
Q 1556 219 2034 219 
z
M 2034 -91 
Q 1275 -91 848 546 
Q 422 1184 422 2328 
Q 422 3475 848 4112 
Q 1275 4750 2034 4750 
Q 2797 4750 3222 4112 
Q 3647 3475 3647 2328 
Q 3647 1184 3222 546 
Q 2797 -91 2034 -91 
z
" transform="scale(0.015625)"/>
       </defs>
       <use xlink:href="#DejaVuSerif-32"/>
       <use xlink:href="#DejaVuSerif-30" x="63.623047"/>
       <use xlink:href="#DejaVuSerif-30" x="127.246094"/>
       <use xlink:href="#DejaVuSerif-30" x="190.869141"/>
       <use xlink:href="#DejaVuSerif-30" x="254.492188"/>
      </g>
     </g>
    </g>
    <g id="xtick_2">
     <g id="line2d_2">
      <g>
       <use xlink:href="#ma7b5fdc250" x="112.870264" y="154.65486" style="stroke: #000000; stroke-width: 0.8"/>
      </g>
     </g>
     <g id="text_2">
      <!-- 22500 -->
      <g transform="translate(103.574019 189.522602) rotate(-45) scale(0.1 -0.1)">
       <defs>
        <path id="DejaVuSerif-35" d="M 3219 4666 
L 3219 4153 
L 1081 4153 
L 1081 2816 
Q 1244 2928 1461 2984 
Q 1678 3041 1947 3041 
Q 2703 3041 3140 2622 
Q 3578 2203 3578 1478 
Q 3578 738 3136 323 
Q 2694 -91 1894 -91 
Q 1572 -91 1234 -12 
Q 897 66 544 225 
L 544 1131 
L 897 1131 
Q 925 688 1179 453 
Q 1434 219 1894 219 
Q 2388 219 2653 544 
Q 2919 869 2919 1478 
Q 2919 2084 2655 2407 
Q 2391 2731 1894 2731 
Q 1613 2731 1398 2631 
Q 1184 2531 1019 2322 
L 750 2322 
L 750 4666 
L 3219 4666 
z
" transform="scale(0.015625)"/>
       </defs>
       <use xlink:href="#DejaVuSerif-32"/>
       <use xlink:href="#DejaVuSerif-32" x="63.623047"/>
       <use xlink:href="#DejaVuSerif-35" x="127.246094"/>
       <use xlink:href="#DejaVuSerif-30" x="190.869141"/>
       <use xlink:href="#DejaVuSerif-30" x="254.492188"/>
      </g>
     </g>
    </g>
    <g id="xtick_3">
     <g id="line2d_3">
      <g>
       <use xlink:href="#ma7b5fdc250" x="148.156167" y="154.65486" style="stroke: #000000; stroke-width: 0.8"/>
      </g>
     </g>
     <g id="text_3">
      <!-- 25000 -->
      <g transform="translate(138.859922 189.522602) rotate(-45) scale(0.1 -0.1)">
       <use xlink:href="#DejaVuSerif-32"/>
       <use xlink:href="#DejaVuSerif-35" x="63.623047"/>
       <use xlink:href="#DejaVuSerif-30" x="127.246094"/>
       <use xlink:href="#DejaVuSerif-30" x="190.869141"/>
       <use xlink:href="#DejaVuSerif-30" x="254.492188"/>
      </g>
     </g>
    </g>
    <g id="xtick_4">
     <g id="line2d_4">
      <g>
       <use xlink:href="#ma7b5fdc250" x="183.442069" y="154.65486" style="stroke: #000000; stroke-width: 0.8"/>
      </g>
     </g>
     <g id="text_4">
      <!-- 27500 -->
      <g transform="translate(174.145825 189.522602) rotate(-45) scale(0.1 -0.1)">
       <defs>
        <path id="DejaVuSerif-37" d="M 3609 4347 
L 1784 0 
L 1319 0 
L 3059 4153 
L 903 4153 
L 903 3578 
L 538 3578 
L 538 4666 
L 3609 4666 
L 3609 4347 
z
" transform="scale(0.015625)"/>
       </defs>
       <use xlink:href="#DejaVuSerif-32"/>
       <use xlink:href="#DejaVuSerif-37" x="63.623047"/>
       <use xlink:href="#DejaVuSerif-35" x="127.246094"/>
       <use xlink:href="#DejaVuSerif-30" x="190.869141"/>
       <use xlink:href="#DejaVuSerif-30" x="254.492188"/>
      </g>
     </g>
    </g>
    <g id="text_5">
     <!-- Number of zeroes per cell -->
     <g transform="translate(60.854156 202.5916) scale(0.1 -0.1)">
      <defs>
       <path id="DejaVuSerif-4e" d="M 313 0 
L 313 331 
L 941 331 
L 941 4331 
L 313 4331 
L 313 4666 
L 1509 4666 
L 4306 984 
L 4306 4331 
L 3681 4331 
L 3681 4666 
L 5319 4666 
L 5319 4331 
L 4691 4331 
L 4691 -91 
L 4313 -91 
L 1325 3841 
L 1325 331 
L 1953 331 
L 1953 0 
L 313 0 
z
" transform="scale(0.015625)"/>
       <path id="DejaVuSerif-75" d="M 2266 3322 
L 3341 3322 
L 3341 331 
L 3884 331 
L 3884 0 
L 2766 0 
L 2766 588 
Q 2606 256 2353 82 
Q 2100 -91 1766 -91 
Q 1213 -91 952 223 
Q 691 538 691 1209 
L 691 2988 
L 172 2988 
L 172 3322 
L 1269 3322 
L 1269 1388 
Q 1269 781 1417 556 
Q 1566 331 1947 331 
Q 2347 331 2556 625 
Q 2766 919 2766 1478 
L 2766 2988 
L 2266 2988 
L 2266 3322 
z
" transform="scale(0.015625)"/>
       <path id="DejaVuSerif-6d" d="M 3316 2675 
Q 3481 3041 3739 3227 
Q 3997 3413 4341 3413 
Q 4863 3413 5119 3089 
Q 5375 2766 5375 2113 
L 5375 331 
L 5894 331 
L 5894 0 
L 4300 0 
L 4300 331 
L 4800 331 
L 4800 2047 
Q 4800 2556 4650 2772 
Q 4500 2988 4153 2988 
Q 3769 2988 3567 2697 
Q 3366 2406 3366 1850 
L 3366 331 
L 3866 331 
L 3866 0 
L 2291 0 
L 2291 331 
L 2791 331 
L 2791 2069 
Q 2791 2566 2641 2777 
Q 2491 2988 2144 2988 
Q 1759 2988 1557 2697 
Q 1356 2406 1356 1850 
L 1356 331 
L 1856 331 
L 1856 0 
L 263 0 
L 263 331 
L 781 331 
L 781 2994 
L 231 2994 
L 231 3322 
L 1356 3322 
L 1356 2731 
Q 1516 3063 1762 3238 
Q 2009 3413 2322 3413 
Q 2709 3413 2968 3220 
Q 3228 3028 3316 2675 
z
" transform="scale(0.015625)"/>
       <path id="DejaVuSerif-62" d="M 738 331 
L 738 4531 
L 184 4531 
L 184 4863 
L 1313 4863 
L 1313 2803 
Q 1481 3116 1742 3264 
Q 2003 3413 2388 3413 
Q 3000 3413 3387 2928 
Q 3775 2444 3775 1663 
Q 3775 881 3387 395 
Q 3000 -91 2388 -91 
Q 2003 -91 1742 57 
Q 1481 206 1313 519 
L 1313 0 
L 184 0 
L 184 331 
L 738 331 
z
M 1313 1497 
Q 1313 897 1542 583 
Q 1772 269 2209 269 
Q 2650 269 2876 622 
Q 3103 975 3103 1663 
Q 3103 2353 2876 2703 
Q 2650 3053 2209 3053 
Q 1772 3053 1542 2737 
Q 1313 2422 1313 1825 
L 1313 1497 
z
" transform="scale(0.015625)"/>
       <path id="DejaVuSerif-65" d="M 3469 1600 
L 991 1600 
L 991 1575 
Q 991 903 1244 561 
Q 1497 219 1991 219 
Q 2369 219 2611 417 
Q 2853 616 2950 1006 
L 3413 1006 
Q 3275 459 2904 184 
Q 2534 -91 1931 -91 
Q 1203 -91 761 389 
Q 319 869 319 1663 
Q 319 2450 753 2931 
Q 1188 3413 1894 3413 
Q 2647 3413 3050 2948 
Q 3453 2484 3469 1600 
z
M 2791 1931 
Q 2772 2513 2545 2808 
Q 2319 3103 1894 3103 
Q 1497 3103 1269 2806 
Q 1041 2509 991 1931 
L 2791 1931 
z
" transform="scale(0.015625)"/>
       <path id="DejaVuSerif-72" d="M 3059 3328 
L 3059 2497 
L 2728 2497 
Q 2713 2744 2591 2866 
Q 2469 2988 2234 2988 
Q 1809 2988 1582 2694 
Q 1356 2400 1356 1850 
L 1356 331 
L 2022 331 
L 2022 0 
L 263 0 
L 263 331 
L 781 331 
L 781 2994 
L 231 2994 
L 231 3322 
L 1356 3322 
L 1356 2731 
Q 1525 3078 1790 3245 
Q 2056 3413 2438 3413 
Q 2578 3413 2733 3391 
Q 2888 3369 3059 3328 
z
" transform="scale(0.015625)"/>
       <path id="DejaVuSerif-20" transform="scale(0.015625)"/>
       <path id="DejaVuSerif-6f" d="M 1925 219 
Q 2388 219 2623 584 
Q 2859 950 2859 1663 
Q 2859 2375 2623 2739 
Q 2388 3103 1925 3103 
Q 1463 3103 1227 2739 
Q 991 2375 991 1663 
Q 991 950 1228 584 
Q 1466 219 1925 219 
z
M 1925 -91 
Q 1200 -91 759 389 
Q 319 869 319 1663 
Q 319 2456 758 2934 
Q 1197 3413 1925 3413 
Q 2653 3413 3092 2934 
Q 3531 2456 3531 1663 
Q 3531 869 3092 389 
Q 2653 -91 1925 -91 
z
" transform="scale(0.015625)"/>
       <path id="DejaVuSerif-66" d="M 2753 4078 
L 2450 4078 
Q 2447 4313 2317 4434 
Q 2188 4556 1941 4556 
Q 1619 4556 1487 4379 
Q 1356 4203 1356 3750 
L 1356 3322 
L 2284 3322 
L 2284 2988 
L 1356 2988 
L 1356 331 
L 2094 331 
L 2094 0 
L 231 0 
L 231 331 
L 781 331 
L 781 2988 
L 231 2988 
L 231 3322 
L 781 3322 
L 781 3738 
Q 781 4294 1070 4578 
Q 1359 4863 1919 4863 
Q 2128 4863 2337 4825 
Q 2547 4788 2753 4709 
L 2753 4078 
z
" transform="scale(0.015625)"/>
       <path id="DejaVuSerif-7a" d="M 256 0 
L 256 269 
L 2338 2988 
L 691 2988 
L 691 2413 
L 359 2413 
L 359 3322 
L 3078 3322 
L 3078 3053 
L 997 331 
L 2803 331 
L 2803 934 
L 3138 934 
L 3138 0 
L 256 0 
z
" transform="scale(0.015625)"/>
       <path id="DejaVuSerif-73" d="M 359 184 
L 359 959 
L 691 959 
Q 703 588 923 403 
Q 1144 219 1575 219 
Q 1963 219 2166 364 
Q 2369 509 2369 788 
Q 2369 1006 2220 1140 
Q 2072 1275 1594 1428 
L 1178 1569 
Q 750 1706 558 1912 
Q 366 2119 366 2438 
Q 366 2894 700 3153 
Q 1034 3413 1625 3413 
Q 1888 3413 2178 3344 
Q 2469 3275 2778 3144 
L 2778 2419 
L 2447 2419 
Q 2434 2741 2221 2922 
Q 2009 3103 1644 3103 
Q 1281 3103 1095 2975 
Q 909 2847 909 2591 
Q 909 2381 1050 2254 
Q 1191 2128 1613 1997 
L 2069 1856 
Q 2541 1709 2748 1489 
Q 2956 1269 2956 922 
Q 2956 450 2595 179 
Q 2234 -91 1600 -91 
Q 1278 -91 972 -22 
Q 666 47 359 184 
z
" transform="scale(0.015625)"/>
       <path id="DejaVuSerif-70" d="M 1313 1825 
L 1313 1497 
Q 1313 897 1542 583 
Q 1772 269 2209 269 
Q 2650 269 2876 622 
Q 3103 975 3103 1663 
Q 3103 2353 2876 2703 
Q 2650 3053 2209 3053 
Q 1772 3053 1542 2737 
Q 1313 2422 1313 1825 
z
M 738 2988 
L 184 2988 
L 184 3322 
L 1313 3322 
L 1313 2803 
Q 1481 3116 1742 3264 
Q 2003 3413 2388 3413 
Q 3000 3413 3387 2928 
Q 3775 2444 3775 1663 
Q 3775 881 3387 395 
Q 3000 -91 2388 -91 
Q 2003 -91 1742 57 
Q 1481 206 1313 519 
L 1313 -997 
L 1856 -997 
L 1856 -1331 
L 184 -1331 
L 184 -997 
L 738 -997 
L 738 2988 
z
" transform="scale(0.015625)"/>
       <path id="DejaVuSerif-63" d="M 3291 997 
Q 3169 466 2822 187 
Q 2475 -91 1925 -91 
Q 1200 -91 759 389 
Q 319 869 319 1663 
Q 319 2459 759 2936 
Q 1200 3413 1925 3413 
Q 2241 3413 2553 3339 
Q 2866 3266 3181 3116 
L 3181 2266 
L 2847 2266 
Q 2781 2703 2561 2903 
Q 2341 3103 1931 3103 
Q 1466 3103 1228 2742 
Q 991 2381 991 1663 
Q 991 944 1227 581 
Q 1463 219 1931 219 
Q 2303 219 2525 412 
Q 2747 606 2828 997 
L 3291 997 
z
" transform="scale(0.015625)"/>
       <path id="DejaVuSerif-6c" d="M 1313 331 
L 1856 331 
L 1856 0 
L 184 0 
L 184 331 
L 738 331 
L 738 4531 
L 184 4531 
L 184 4863 
L 1313 4863 
L 1313 331 
z
" transform="scale(0.015625)"/>
      </defs>
      <use xlink:href="#DejaVuSerif-4e"/>
      <use xlink:href="#DejaVuSerif-75" x="87.5"/>
      <use xlink:href="#DejaVuSerif-6d" x="151.904297"/>
      <use xlink:href="#DejaVuSerif-62" x="246.728516"/>
      <use xlink:href="#DejaVuSerif-65" x="310.742188"/>
      <use xlink:href="#DejaVuSerif-72" x="369.921875"/>
      <use xlink:href="#DejaVuSerif-20" x="417.724609"/>
      <use xlink:href="#DejaVuSerif-6f" x="449.511719"/>
      <use xlink:href="#DejaVuSerif-66" x="509.716797"/>
      <use xlink:href="#DejaVuSerif-20" x="546.728516"/>
      <use xlink:href="#DejaVuSerif-7a" x="578.515625"/>
      <use xlink:href="#DejaVuSerif-65" x="631.201172"/>
      <use xlink:href="#DejaVuSerif-72" x="690.380859"/>
      <use xlink:href="#DejaVuSerif-6f" x="738.183594"/>
      <use xlink:href="#DejaVuSerif-65" x="798.388672"/>
      <use xlink:href="#DejaVuSerif-73" x="857.568359"/>
      <use xlink:href="#DejaVuSerif-20" x="908.886719"/>
      <use xlink:href="#DejaVuSerif-70" x="940.673828"/>
      <use xlink:href="#DejaVuSerif-65" x="1004.6875"/>
      <use xlink:href="#DejaVuSerif-72" x="1063.867188"/>
      <use xlink:href="#DejaVuSerif-20" x="1111.669922"/>
      <use xlink:href="#DejaVuSerif-63" x="1143.457031"/>
      <use xlink:href="#DejaVuSerif-65" x="1199.462891"/>
      <use xlink:href="#DejaVuSerif-6c" x="1258.642578"/>
      <use xlink:href="#DejaVuSerif-6c" x="1290.625"/>
     </g>
    </g>
   </g>
   <g id="matplotlib.axis_2">
    <g id="ytick_1">
     <g id="line2d_5">
      <defs>
       <path id="mcc212a4b43" d="M 0 0 
L -3.5 0 
" style="stroke: #000000; stroke-width: 0.8"/>
      </defs>
      <g>
       <use xlink:href="#mcc212a4b43" x="63.47" y="154.65486" style="stroke: #000000; stroke-width: 0.8"/>
      </g>
     </g>
     <g id="text_6">
      <!-- 0 -->
      <g transform="translate(50.1075 158.454079) scale(0.1 -0.1)">
       <use xlink:href="#DejaVuSerif-30"/>
      </g>
     </g>
    </g>
    <g id="ytick_2">
     <g id="line2d_6">
      <g>
       <use xlink:href="#mcc212a4b43" x="63.47" y="132.79791" style="stroke: #000000; stroke-width: 0.8"/>
      </g>
     </g>
     <g id="text_7">
      <!-- 10000 -->
      <g transform="translate(24.6575 136.597129) scale(0.1 -0.1)">
       <defs>
        <path id="DejaVuSerif-31" d="M 909 0 
L 909 331 
L 1722 331 
L 1722 4213 
L 781 3603 
L 781 4013 
L 1919 4750 
L 2350 4750 
L 2350 331 
L 3163 331 
L 3163 0 
L 909 0 
z
" transform="scale(0.015625)"/>
       </defs>
       <use xlink:href="#DejaVuSerif-31"/>
       <use xlink:href="#DejaVuSerif-30" x="63.623047"/>
       <use xlink:href="#DejaVuSerif-30" x="127.246094"/>
       <use xlink:href="#DejaVuSerif-30" x="190.869141"/>
       <use xlink:href="#DejaVuSerif-30" x="254.492188"/>
      </g>
     </g>
    </g>
    <g id="ytick_3">
     <g id="line2d_7">
      <g>
       <use xlink:href="#mcc212a4b43" x="63.47" y="110.940959" style="stroke: #000000; stroke-width: 0.8"/>
      </g>
     </g>
     <g id="text_8">
      <!-- 20000 -->
      <g transform="translate(24.6575 114.740178) scale(0.1 -0.1)">
       <use xlink:href="#DejaVuSerif-32"/>
       <use xlink:href="#DejaVuSerif-30" x="63.623047"/>
       <use xlink:href="#DejaVuSerif-30" x="127.246094"/>
       <use xlink:href="#DejaVuSerif-30" x="190.869141"/>
       <use xlink:href="#DejaVuSerif-30" x="254.492188"/>
      </g>
     </g>
    </g>
    <g id="ytick_4">
     <g id="line2d_8">
      <g>
       <use xlink:href="#mcc212a4b43" x="63.47" y="89.084009" style="stroke: #000000; stroke-width: 0.8"/>
      </g>
     </g>
     <g id="text_9">
      <!-- 30000 -->
      <g transform="translate(24.6575 92.883228) scale(0.1 -0.1)">
       <defs>
        <path id="DejaVuSerif-33" d="M 622 4469 
Q 988 4606 1323 4678 
Q 1659 4750 1953 4750 
Q 2638 4750 3022 4454 
Q 3406 4159 3406 3634 
Q 3406 3213 3140 2930 
Q 2875 2647 2388 2547 
Q 2963 2466 3280 2130 
Q 3597 1794 3597 1259 
Q 3597 606 3158 257 
Q 2719 -91 1894 -91 
Q 1528 -91 1179 -12 
Q 831 66 488 225 
L 488 1131 
L 838 1131 
Q 869 681 1141 450 
Q 1413 219 1906 219 
Q 2384 219 2661 495 
Q 2938 772 2938 1253 
Q 2938 1803 2653 2086 
Q 2369 2369 1819 2369 
L 1522 2369 
L 1522 2688 
L 1678 2688 
Q 2225 2688 2498 2914 
Q 2772 3141 2772 3597 
Q 2772 4006 2547 4223 
Q 2322 4441 1900 4441 
Q 1478 4441 1245 4241 
Q 1013 4041 972 3647 
L 622 3647 
L 622 4469 
z
" transform="scale(0.015625)"/>
       </defs>
       <use xlink:href="#DejaVuSerif-33"/>
       <use xlink:href="#DejaVuSerif-30" x="63.623047"/>
       <use xlink:href="#DejaVuSerif-30" x="127.246094"/>
       <use xlink:href="#DejaVuSerif-30" x="190.869141"/>
       <use xlink:href="#DejaVuSerif-30" x="254.492188"/>
      </g>
     </g>
    </g>
    <g id="ytick_5">
     <g id="line2d_9">
      <g>
       <use xlink:href="#mcc212a4b43" x="63.47" y="67.227058" style="stroke: #000000; stroke-width: 0.8"/>
      </g>
     </g>
     <g id="text_10">
      <!-- 40000 -->
      <g transform="translate(24.6575 71.026277) scale(0.1 -0.1)">
       <defs>
        <path id="DejaVuSerif-34" d="M 2234 1581 
L 2234 4063 
L 641 1581 
L 2234 1581 
z
M 3609 0 
L 1484 0 
L 1484 331 
L 2234 331 
L 2234 1247 
L 197 1247 
L 197 1588 
L 2241 4750 
L 2859 4750 
L 2859 1581 
L 3750 1581 
L 3750 1247 
L 2859 1247 
L 2859 331 
L 3609 331 
L 3609 0 
z
" transform="scale(0.015625)"/>
       </defs>
       <use xlink:href="#DejaVuSerif-34"/>
       <use xlink:href="#DejaVuSerif-30" x="63.623047"/>
       <use xlink:href="#DejaVuSerif-30" x="127.246094"/>
       <use xlink:href="#DejaVuSerif-30" x="190.869141"/>
       <use xlink:href="#DejaVuSerif-30" x="254.492188"/>
      </g>
     </g>
    </g>
    <g id="ytick_6">
     <g id="line2d_10">
      <g>
       <use xlink:href="#mcc212a4b43" x="63.47" y="45.370108" style="stroke: #000000; stroke-width: 0.8"/>
      </g>
     </g>
     <g id="text_11">
      <!-- 50000 -->
      <g transform="translate(24.6575 49.169327) scale(0.1 -0.1)">
       <use xlink:href="#DejaVuSerif-35"/>
       <use xlink:href="#DejaVuSerif-30" x="63.623047"/>
       <use xlink:href="#DejaVuSerif-30" x="127.246094"/>
       <use xlink:href="#DejaVuSerif-30" x="190.869141"/>
       <use xlink:href="#DejaVuSerif-30" x="254.492188"/>
      </g>
     </g>
    </g>
    <g id="text_12">
     <!-- Frequency -->
     <g transform="translate(18.435625 117.451961) rotate(-90) scale(0.1 -0.1)">
      <defs>
       <path id="DejaVuSerif-46" d="M 353 0 
L 353 331 
L 947 331 
L 947 4331 
L 353 4331 
L 353 4666 
L 4172 4666 
L 4172 3628 
L 3788 3628 
L 3788 4281 
L 1581 4281 
L 1581 2719 
L 3175 2719 
L 3175 3303 
L 3559 3303 
L 3559 1753 
L 3175 1753 
L 3175 2338 
L 1581 2338 
L 1581 331 
L 2328 331 
L 2328 0 
L 353 0 
z
" transform="scale(0.015625)"/>
       <path id="DejaVuSerif-71" d="M 3359 2988 
L 3359 -997 
L 3909 -997 
L 3909 -1331 
L 2241 -1331 
L 2241 -997 
L 2784 -997 
L 2784 519 
Q 2616 206 2355 57 
Q 2094 -91 1709 -91 
Q 1097 -91 708 395 
Q 319 881 319 1663 
Q 319 2444 706 2928 
Q 1094 3413 1709 3413 
Q 2094 3413 2355 3264 
Q 2616 3116 2784 2803 
L 2784 3322 
L 3909 3322 
L 3909 2988 
L 3359 2988 
z
M 2784 1825 
Q 2784 2422 2554 2737 
Q 2325 3053 1888 3053 
Q 1444 3053 1217 2703 
Q 991 2353 991 1663 
Q 991 975 1217 622 
Q 1444 269 1888 269 
Q 2325 269 2554 583 
Q 2784 897 2784 1497 
L 2784 1825 
z
" transform="scale(0.015625)"/>
       <path id="DejaVuSerif-6e" d="M 263 0 
L 263 331 
L 781 331 
L 781 2988 
L 231 2988 
L 231 3322 
L 1356 3322 
L 1356 2731 
Q 1516 3069 1770 3241 
Q 2025 3413 2363 3413 
Q 2913 3413 3172 3097 
Q 3431 2781 3431 2113 
L 3431 331 
L 3944 331 
L 3944 0 
L 2356 0 
L 2356 331 
L 2853 331 
L 2853 1931 
Q 2853 2541 2703 2767 
Q 2553 2994 2175 2994 
Q 1775 2994 1565 2701 
Q 1356 2409 1356 1850 
L 1356 331 
L 1856 331 
L 1856 0 
L 263 0 
z
" transform="scale(0.015625)"/>
       <path id="DejaVuSerif-79" d="M 1381 -609 
L 1600 -56 
L 359 2988 
L -19 2988 
L -19 3322 
L 1509 3322 
L 1509 2988 
L 978 2988 
L 1913 703 
L 2847 2988 
L 2350 2988 
L 2350 3322 
L 3597 3322 
L 3597 2988 
L 3225 2988 
L 1703 -750 
Q 1547 -1138 1356 -1280 
Q 1166 -1422 819 -1422 
Q 672 -1422 517 -1397 
Q 363 -1372 206 -1325 
L 206 -691 
L 500 -691 
Q 519 -903 608 -995 
Q 697 -1088 884 -1088 
Q 1056 -1088 1161 -992 
Q 1266 -897 1381 -609 
z
" transform="scale(0.015625)"/>
      </defs>
      <use xlink:href="#DejaVuSerif-46"/>
      <use xlink:href="#DejaVuSerif-72" x="69.384766"/>
      <use xlink:href="#DejaVuSerif-65" x="117.1875"/>
      <use xlink:href="#DejaVuSerif-71" x="176.367188"/>
      <use xlink:href="#DejaVuSerif-75" x="240.380859"/>
      <use xlink:href="#DejaVuSerif-65" x="304.785156"/>
      <use xlink:href="#DejaVuSerif-6e" x="363.964844"/>
      <use xlink:href="#DejaVuSerif-63" x="428.369141"/>
      <use xlink:href="#DejaVuSerif-79" x="484.375"/>
     </g>
    </g>
   </g>
   <g id="line2d_11">
    <path d="M 3.102878 154.65486 
L 160.806393 154.562936 
L 162.683816 154.338652 
L 164.561239 153.820984 
L 165.49995 153.457171 
L 166.438662 152.712187 
L 167.377373 151.652713 
L 168.316085 150.311265 
L 170.193507 145.765341 
L 171.132219 142.954437 
L 172.07093 138.080027 
L 173.948353 126.057011 
L 174.887064 118.752207 
L 175.825776 108.944117 
L 176.764487 97.309103 
L 177.703199 88.260129 
L 178.64191 77.864111 
L 179.580621 65.972825 
L 181.458044 47.090873 
L 182.396756 40.238927 
L 183.335467 37.246397 
L 184.274178 35.054153 
L 185.21289 32.278803 
L 187.090313 33.833126 
L 188.029024 38.549023 
L 188.967735 36.02847 
L 189.906447 95.833686 
L 189.906447 95.833686 
" clip-path="url(#p0a18f590c6)" style="fill: none; stroke: #d55e00; stroke-width: 2; stroke-linecap: square"/>
   </g>
   <g id="line2d_12">
    <path d="M 3.102878 154.65486 
L 65.996542 154.58595 
L 67.873964 154.289144 
L 68.812676 153.900004 
L 69.751387 153.214933 
L 70.690099 152.125308 
L 71.62881 150.57152 
L 73.506233 146.396501 
L 74.444944 144.247132 
L 75.383656 142.44697 
L 76.322367 141.177053 
L 77.261078 140.428809 
L 79.138501 139.644678 
L 80.077213 139.050871 
L 81.015924 138.054817 
L 81.954635 136.607301 
L 83.832058 132.707541 
L 85.709481 128.62473 
L 86.648192 126.959736 
L 87.586904 125.70083 
L 88.525615 124.884914 
L 89.464327 124.491464 
L 90.403038 124.462769 
L 91.341749 124.728298 
L 92.280461 125.224351 
L 93.219172 125.902715 
L 95.096595 127.664017 
L 98.851441 131.62704 
L 100.728864 133.215694 
L 102.606286 134.49253 
L 105.422421 136.046808 
L 107.299843 136.885398 
L 109.177266 137.506592 
L 111.054689 137.901189 
L 120.441803 139.334574 
L 123.257937 139.537336 
L 125.13536 139.506515 
L 127.951494 139.170887 
L 136.399897 137.871737 
L 139.216031 137.075672 
L 144.848299 135.196393 
L 146.725722 134.831551 
L 148.603145 134.663049 
L 151.419279 134.638385 
L 153.296702 134.813555 
L 154.235414 135.042355 
L 155.174125 135.399099 
L 157.051548 136.497664 
L 158.928971 138.036723 
L 160.806393 139.988997 
L 162.683816 142.355152 
L 168.316085 150.15033 
L 170.193507 152.020652 
L 171.132219 152.728517 
L 173.009642 153.730272 
L 174.887064 154.278361 
L 176.764487 154.524744 
L 180.519333 154.644805 
L 189.906447 154.65486 
L 189.906447 154.65486 
" clip-path="url(#p0a18f590c6)" style="fill: none; stroke: #029e73; stroke-width: 2; stroke-linecap: square"/>
   </g>
   <g id="line2d_13">
    <path d="M 3.102878 154.652005 
L 52.854582 154.561454 
L 73.506233 154.350503 
L 94.157884 153.798993 
L 102.606286 153.364286 
L 115.748246 151.970672 
L 118.56438 151.504311 
L 127.951494 149.661618 
L 135.461185 146.96614 
L 142.970877 143.326158 
L 144.848299 142.141359 
L 147.664434 139.991983 
L 153.296702 135.488543 
L 155.174125 133.581195 
L 157.051548 131.315091 
L 161.745105 125.189036 
L 164.561239 120.889694 
L 173.948353 105.793119 
L 174.887064 104.584746 
L 175.825776 103.803718 
L 176.764487 103.53751 
L 177.703199 103.865655 
L 178.64191 104.878874 
L 179.580621 106.67742 
L 180.519333 109.363873 
L 181.458044 113.00617 
L 182.396756 117.578824 
L 184.274178 128.7596 
L 186.151601 140.254443 
L 187.090313 145.061781 
L 188.029024 148.831178 
L 188.967735 151.480948 
L 189.906447 153.125373 
L 189.906447 153.125373 
" clip-path="url(#p0a18f590c6)" style="fill: none; stroke: #de8f05; stroke-width: 2; stroke-linecap: square"/>
   </g>
   <g id="line2d_14">
    <path d="M 3.102878 154.65486 
L 61.302985 154.55436 
L 89.464327 153.826655 
L 99.790152 153.325453 
L 111.9934 152.684526 
L 120.441803 151.535235 
L 126.074071 150.263529 
L 129.828917 149.108286 
L 131.70634 148.456789 
L 133.583763 147.565144 
L 141.093454 143.32326 
L 142.970877 141.993691 
L 148.603145 137.707722 
L 155.174125 133.043237 
L 157.990259 131.111785 
L 159.867682 129.38155 
L 161.745105 127.269896 
L 164.561239 123.606489 
L 167.377373 119.699685 
L 169.254796 116.581413 
L 171.132219 112.664288 
L 173.009642 108.486676 
L 173.948353 106.756127 
L 174.887064 105.413349 
L 175.825776 104.402274 
L 176.764487 103.609675 
L 177.703199 102.985681 
L 178.64191 102.611543 
L 179.580621 102.718817 
L 180.519333 103.717052 
L 181.458044 106.170072 
L 182.396756 110.564953 
L 183.335467 116.927826 
L 186.151601 139.932323 
L 187.090313 145.770886 
L 188.029024 149.889579 
L 188.967735 152.419164 
L 189.906447 153.752702 
L 189.906447 153.752702 
" clip-path="url(#p0a18f590c6)" style="fill: none; stroke: #0173b2; stroke-width: 2; stroke-linecap: square"/>
   </g>
   <g id="patch_123">
    <path d="M 63.47 154.65486 
L 63.47 26.16 
" style="fill: none; stroke: #000000; stroke-width: 0.8; stroke-linejoin: miter; stroke-linecap: square"/>
   </g>
   <g id="patch_124">
    <path d="M 190.49925 154.65486 
L 190.49925 26.16 
" style="fill: none; stroke: #000000; stroke-width: 0.8; stroke-linejoin: miter; stroke-linecap: square"/>
   </g>
   <g id="patch_125">
    <path d="M 63.47 154.65486 
L 190.49925 154.65486 
" style="fill: none; stroke: #000000; stroke-width: 0.8; stroke-linejoin: miter; stroke-linecap: square"/>
   </g>
   <g id="patch_126">
    <path d="M 63.47 26.16 
L 190.49925 26.16 
" style="fill: none; stroke: #000000; stroke-width: 0.8; stroke-linejoin: miter; stroke-linecap: square"/>
   </g>
   <g id="text_13">
    <!-- HLCA -->
    <g transform="translate(108.844 20.16) scale(0.12 -0.12)">
     <defs>
      <path id="DejaVuSerif-48" d="M 353 0 
L 353 331 
L 947 331 
L 947 4331 
L 353 4331 
L 353 4666 
L 2175 4666 
L 2175 4331 
L 1581 4331 
L 1581 2719 
L 4000 2719 
L 4000 4331 
L 3406 4331 
L 3406 4666 
L 5228 4666 
L 5228 4331 
L 4634 4331 
L 4634 331 
L 5228 331 
L 5228 0 
L 3406 0 
L 3406 331 
L 4000 331 
L 4000 2338 
L 1581 2338 
L 1581 331 
L 2175 331 
L 2175 0 
L 353 0 
z
" transform="scale(0.015625)"/>
      <path id="DejaVuSerif-4c" d="M 353 0 
L 353 331 
L 947 331 
L 947 4331 
L 353 4331 
L 353 4666 
L 2175 4666 
L 2175 4331 
L 1581 4331 
L 1581 384 
L 3713 384 
L 3713 1166 
L 4097 1166 
L 4097 0 
L 353 0 
z
" transform="scale(0.015625)"/>
      <path id="DejaVuSerif-43" d="M 4513 1234 
Q 4306 581 3820 245 
Q 3334 -91 2591 -91 
Q 2134 -91 1743 65 
Q 1353 222 1050 525 
Q 700 875 529 1320 
Q 359 1766 359 2328 
Q 359 3416 987 4083 
Q 1616 4750 2644 4750 
Q 3025 4750 3456 4650 
Q 3888 4550 4384 4347 
L 4384 3272 
L 4031 3272 
Q 3916 3859 3567 4137 
Q 3219 4416 2591 4416 
Q 1844 4416 1459 3886 
Q 1075 3356 1075 2328 
Q 1075 1303 1459 773 
Q 1844 244 2591 244 
Q 3113 244 3450 492 
Q 3788 741 3938 1234 
L 4513 1234 
z
" transform="scale(0.015625)"/>
      <path id="DejaVuSerif-41" d="M 1281 1691 
L 2994 1691 
L 2138 3909 
L 1281 1691 
z
M -38 0 
L -38 331 
L 372 331 
L 2034 4666 
L 2559 4666 
L 4225 331 
L 4684 331 
L 4684 0 
L 2988 0 
L 2988 331 
L 3506 331 
L 3116 1356 
L 1153 1356 
L 763 331 
L 1275 331 
L 1275 0 
L -38 0 
z
" transform="scale(0.015625)"/>
     </defs>
     <use xlink:href="#DejaVuSerif-48"/>
     <use xlink:href="#DejaVuSerif-4c" x="87.207031"/>
     <use xlink:href="#DejaVuSerif-43" x="153.613281"/>
     <use xlink:href="#DejaVuSerif-41" x="230.126953"/>
    </g>
   </g>
  </g>
 </g>
 <defs>
  <clipPath id="p0a18f590c6">
   <rect x="63.47" y="26.16" width="127.02925" height="128.49486"/>
  </clipPath>
 </defs>
</svg>
