<?xml version="1.0" encoding="utf-8" standalone="no"?>
<!DOCTYPE svg PUBLIC "-//W3C//DTD SVG 1.1//EN"
  "http://www.w3.org/Graphics/SVG/1.1/DTD/svg11.dtd">
<svg xmlns:xlink="http://www.w3.org/1999/xlink" width="360pt" height="360pt" viewBox="0 0 360 360" xmlns="http://www.w3.org/2000/svg" version="1.1">
 <metadata>
  <rdf:RDF xmlns:dc="http://purl.org/dc/elements/1.1/" xmlns:cc="http://creativecommons.org/ns#" xmlns:rdf="http://www.w3.org/1999/02/22-rdf-syntax-ns#">
   <cc:Work>
    <dc:type rdf:resource="http://purl.org/dc/dcmitype/StillImage"/>
    <dc:date>2024-11-19T11:56:40.276331</dc:date>
    <dc:format>image/svg+xml</dc:format>
    <dc:creator>
     <cc:Agent>
      <dc:title>Matplotlib v3.8.1, https://matplotlib.org/</dc:title>
     </cc:Agent>
    </dc:creator>
   </cc:Work>
  </rdf:RDF>
 </metadata>
 <defs>
  <style type="text/css">*{stroke-linejoin: round; stroke-linecap: butt}</style>
 </defs>
 <g id="figure_1">
  <g id="patch_1">
   <path d="M 0 360 
L 360 360 
L 360 0 
L 0 0 
z
" style="fill: #ffffff"/>
  </g>
  <g id="axes_1">
   <g id="patch_2">
    <path d="M 72.83 298.65486 
L 334.49925 298.65486 
L 334.49925 26.16 
L 72.83 26.16 
z
" style="fill: #ffffff"/>
   </g>
   <g id="PolyCollection_1">
    <defs>
     <path id="m26b4d1fea0" d="M 262.596732 -61.345413 
L 262.596732 -61.34514 
L 262.965511 -61.34514 
L 263.33429 -61.34514 
L 263.703068 -61.34514 
L 264.071847 -61.34514 
L 264.440625 -61.34514 
L 264.809404 -61.34514 
L 265.178182 -61.34514 
L 265.546961 -61.34514 
L 265.915739 -61.34514 
L 266.284518 -61.34514 
L 266.653297 -61.34514 
L 267.022075 -61.34514 
L 267.390854 -61.34514 
L 267.759632 -61.34514 
L 268.128411 -61.34514 
L 268.497189 -61.34514 
L 268.865968 -61.34514 
L 269.234746 -61.34514 
L 269.603525 -61.34514 
L 269.972304 -61.34514 
L 270.341082 -61.34514 
L 270.709861 -61.34514 
L 271.078639 -61.34514 
L 271.447418 -61.34514 
L 271.816196 -61.34514 
L 272.184975 -61.34514 
L 272.553753 -61.34514 
L 272.922532 -61.34514 
L 273.291311 -61.34514 
L 273.660089 -61.34514 
L 274.028868 -61.34514 
L 274.397646 -61.34514 
L 274.766425 -61.34514 
L 275.135203 -61.34514 
L 275.503982 -61.34514 
L 275.87276 -61.34514 
L 276.241539 -61.34514 
L 276.610318 -61.34514 
L 276.979096 -61.34514 
L 277.347875 -61.34514 
L 277.716653 -61.34514 
L 278.085432 -61.34514 
L 278.45421 -61.34514 
L 278.822989 -61.34514 
L 279.191767 -61.34514 
L 279.560546 -61.34514 
L 279.929325 -61.34514 
L 280.298103 -61.34514 
L 280.666882 -61.34514 
L 281.03566 -61.34514 
L 281.404439 -61.34514 
L 281.773217 -61.34514 
L 282.141996 -61.34514 
L 282.510774 -61.34514 
L 282.879553 -61.34514 
L 283.248332 -61.34514 
L 283.61711 -61.34514 
L 283.985889 -61.34514 
L 284.354667 -61.34514 
L 284.723446 -61.34514 
L 285.092224 -61.34514 
L 285.461003 -61.34514 
L 285.829781 -61.34514 
L 286.19856 -61.34514 
L 286.567339 -61.34514 
L 286.936117 -61.34514 
L 287.304896 -61.34514 
L 287.673674 -61.34514 
L 288.042453 -61.34514 
L 288.411231 -61.34514 
L 288.78001 -61.34514 
L 289.148788 -61.34514 
L 289.517567 -61.34514 
L 289.886346 -61.34514 
L 290.255124 -61.34514 
L 290.623903 -61.34514 
L 290.992681 -61.34514 
L 291.36146 -61.34514 
L 291.730238 -61.34514 
L 292.099017 -61.34514 
L 292.467795 -61.34514 
L 292.836574 -61.34514 
L 293.205353 -61.34514 
L 293.574131 -61.34514 
L 293.94291 -61.34514 
L 294.311688 -61.34514 
L 294.680467 -61.34514 
L 295.049245 -61.34514 
L 295.418024 -61.34514 
L 295.786802 -61.34514 
L 296.155581 -61.34514 
L 296.52436 -61.34514 
L 296.893138 -61.34514 
L 297.261917 -61.34514 
L 297.630695 -61.34514 
L 297.999474 -61.34514 
L 298.368252 -61.34514 
L 298.737031 -61.34514 
L 299.105809 -61.34514 
L 299.474588 -61.34514 
L 299.843367 -61.34514 
L 300.212145 -61.34514 
L 300.580924 -61.34514 
L 300.949702 -61.34514 
L 301.318481 -61.34514 
L 301.687259 -61.34514 
L 302.056038 -61.34514 
L 302.424816 -61.34514 
L 302.793595 -61.34514 
L 303.162374 -61.34514 
L 303.531152 -61.34514 
L 303.899931 -61.34514 
L 304.268709 -61.34514 
L 304.637488 -61.34514 
L 305.006266 -61.34514 
L 305.375045 -61.34514 
L 305.743823 -61.34514 
L 306.112602 -61.34514 
L 306.481381 -61.34514 
L 306.850159 -61.34514 
L 307.218938 -61.34514 
L 307.587716 -61.34514 
L 307.956495 -61.34514 
L 308.325273 -61.34514 
L 308.694052 -61.34514 
L 309.06283 -61.34514 
L 309.431609 -61.34514 
L 309.800388 -61.34514 
L 310.169166 -61.34514 
L 310.537945 -61.34514 
L 310.906723 -61.34514 
L 311.275502 -61.34514 
L 311.64428 -61.34514 
L 312.013059 -61.34514 
L 312.381837 -61.34514 
L 312.750616 -61.34514 
L 313.119395 -61.34514 
L 313.488173 -61.34514 
L 313.856952 -61.34514 
L 314.22573 -61.34514 
L 314.594509 -61.34514 
L 314.963287 -61.34514 
L 315.332066 -61.34514 
L 315.700844 -61.34514 
L 316.069623 -61.34514 
L 316.438402 -61.34514 
L 316.80718 -61.34514 
L 317.175959 -61.34514 
L 317.544737 -61.34514 
L 317.913516 -61.34514 
L 318.282294 -61.34514 
L 318.651073 -61.34514 
L 319.019851 -61.34514 
L 319.38863 -61.34514 
L 319.757409 -61.34514 
L 320.126187 -61.34514 
L 320.494966 -61.34514 
L 320.863744 -61.34514 
L 321.232523 -61.34514 
L 321.601301 -61.34514 
L 321.97008 -61.34514 
L 322.338858 -61.34514 
L 322.707637 -61.34514 
L 323.076416 -61.34514 
L 323.445194 -61.34514 
L 323.813973 -61.34514 
L 324.182751 -61.34514 
L 324.55153 -61.34514 
L 324.920308 -61.34514 
L 325.289087 -61.34514 
L 325.657865 -61.34514 
L 326.026644 -61.34514 
L 326.395423 -61.34514 
L 326.764201 -61.34514 
L 327.13298 -61.34514 
L 327.501758 -61.34514 
L 327.870537 -61.34514 
L 328.239315 -61.34514 
L 328.608094 -61.34514 
L 328.976872 -61.34514 
L 329.345651 -61.34514 
L 329.714429 -61.34514 
L 330.083208 -61.34514 
L 330.451987 -61.34514 
L 330.820765 -61.34514 
L 331.189544 -61.34514 
L 331.558322 -61.34514 
L 331.927101 -61.34514 
L 332.295879 -61.34514 
L 332.664658 -61.34514 
L 333.033436 -61.34514 
L 333.402215 -61.34514 
L 333.770994 -61.34514 
L 334.139772 -61.34514 
L 334.508551 -61.34514 
L 334.877329 -61.34514 
L 335.246108 -61.34514 
L 335.614886 -61.34514 
L 335.983665 -61.34514 
L 335.983665 -61.758923 
L 335.983665 -61.758923 
L 335.614886 -62.699522 
L 335.246108 -65.222354 
L 334.877329 -71.073271 
L 334.508551 -82.796873 
L 334.139772 -103.068519 
L 333.770994 -133.26377 
L 333.402215 -171.900562 
L 333.033436 -214.174229 
L 332.664658 -253.400358 
L 332.295879 -283.777477 
L 331.927101 -302.716985 
L 331.558322 -311.294968 
L 331.189544 -312.876007 
L 330.820765 -311.158278 
L 330.451987 -308.848388 
L 330.083208 -307.327721 
L 329.714429 -306.973928 
L 329.345651 -307.654282 
L 328.976872 -309.094485 
L 328.608094 -311.039355 
L 328.239315 -313.252489 
L 327.870537 -315.462356 
L 327.501758 -317.359441 
L 327.13298 -318.681943 
L 326.764201 -319.333751 
L 326.395423 -319.434049 
L 326.026644 -319.248738 
L 325.657865 -319.053301 
L 325.289087 -319.024605 
L 324.920308 -319.215748 
L 324.55153 -319.592874 
L 324.182751 -320.078019 
L 323.813973 -320.558202 
L 323.445194 -320.864054 
L 323.076416 -320.765985 
L 322.707637 -320.04138 
L 322.338858 -318.604631 
L 321.97008 -316.612488 
L 321.601301 -314.449719 
L 321.232523 -312.578204 
L 320.863744 -311.323733 
L 320.494966 -310.717924 
L 320.126187 -310.493454 
L 319.757409 -310.247773 
L 319.38863 -309.673371 
L 319.019851 -308.693335 
L 318.651073 -307.414881 
L 318.282294 -305.967412 
L 317.913516 -304.376332 
L 317.544737 -302.559864 
L 317.175959 -300.406038 
L 316.80718 -297.834719 
L 316.438402 -294.810152 
L 316.069623 -291.343913 
L 315.700844 -287.522703 
L 315.332066 -283.533369 
L 314.963287 -279.628317 
L 314.594509 -276.017436 
L 314.22573 -272.744949 
L 313.856952 -269.642783 
L 313.488173 -266.411097 
L 313.119395 -262.783887 
L 312.750616 -258.665846 
L 312.381837 -254.147047 
L 312.013059 -249.404972 
L 311.64428 -244.589559 
L 311.275502 -239.773578 
L 310.906723 -234.969941 
L 310.537945 -230.168569 
L 310.169166 -225.364972 
L 309.800388 -220.585914 
L 309.431609 -215.912486 
L 309.06283 -211.47676 
L 308.694052 -207.411994 
L 308.325273 -203.773657 
L 307.956495 -200.480775 
L 307.587716 -197.32132 
L 307.218938 -194.025675 
L 306.850159 -190.36962 
L 306.481381 -186.25263 
L 306.112602 -181.717341 
L 305.743823 -176.913493 
L 305.375045 -172.033249 
L 305.006266 -167.243166 
L 304.637488 -162.631264 
L 304.268709 -158.191752 
L 303.899931 -153.866171 
L 303.531152 -149.624126 
L 303.162374 -145.522299 
L 302.793595 -141.683593 
L 302.424816 -138.205157 
L 302.056038 -135.073571 
L 301.687259 -132.161516 
L 301.318481 -129.304604 
L 300.949702 -126.390547 
L 300.580924 -123.399685 
L 300.212145 -120.391862 
L 299.843367 -117.470438 
L 299.474588 -114.743743 
L 299.105809 -112.283467 
L 298.737031 -110.08416 
L 298.368252 -108.047292 
L 297.999474 -106.012925 
L 297.630695 -103.833136 
L 297.261917 -101.448262 
L 296.893138 -98.918177 
L 296.52436 -96.385828 
L 296.155581 -93.995725 
L 295.786802 -91.824138 
L 295.418024 -89.868042 
L 295.049245 -88.088939 
L 294.680467 -86.462738 
L 294.311688 -84.992771 
L 293.94291 -83.687895 
L 293.574131 -82.53904 
L 293.205353 -81.51717 
L 292.836574 -80.586365 
L 292.467795 -79.713006 
L 292.099017 -78.863541 
L 291.730238 -78.000078 
L 291.36146 -77.086499 
L 290.992681 -76.105786 
L 290.623903 -75.074411 
L 290.255124 -74.037741 
L 289.886346 -73.045714 
L 289.517567 -72.127038 
L 289.148788 -71.283078 
L 288.78001 -70.504424 
L 288.411231 -69.79172 
L 288.042453 -69.159718 
L 287.673674 -68.621824 
L 287.304896 -68.171405 
L 286.936117 -67.777133 
L 286.567339 -67.395229 
L 286.19856 -66.9892 
L 285.829781 -66.546324 
L 285.461003 -66.083453 
L 285.092224 -65.637487 
L 284.723446 -65.242781 
L 284.354667 -64.909287 
L 283.985889 -64.618713 
L 283.61711 -64.342354 
L 283.248332 -64.065215 
L 282.879553 -63.796563 
L 282.510774 -63.56084 
L 282.141996 -63.379073 
L 281.773217 -63.255018 
L 281.404439 -63.173118 
L 281.03566 -63.106696 
L 280.666882 -63.03042 
L 280.298103 -62.930348 
L 279.929325 -62.806803 
L 279.560546 -62.669857 
L 279.191767 -62.531943 
L 278.822989 -62.402776 
L 278.45421 -62.288083 
L 278.085432 -62.190176 
L 277.716653 -62.108467 
L 277.347875 -62.03993 
L 276.979096 -61.979993 
L 276.610318 -61.923664 
L 276.241539 -61.866647 
L 275.87276 -61.806701 
L 275.503982 -61.745012 
L 275.135203 -61.686274 
L 274.766425 -61.636439 
L 274.397646 -61.599194 
L 274.028868 -61.573711 
L 273.660089 -61.555239 
L 273.291311 -61.537865 
L 272.922532 -61.517588 
L 272.553753 -61.494165 
L 272.184975 -61.470892 
L 271.816196 -61.452231 
L 271.447418 -61.440504 
L 271.078639 -61.433998 
L 270.709861 -61.428087 
L 270.341082 -61.418545 
L 269.972304 -61.404341 
L 269.603525 -61.387855 
L 269.234746 -61.372884 
L 268.865968 -61.362413 
L 268.497189 -61.357624 
L 268.128411 -61.358141 
L 267.759632 -61.36264 
L 267.390854 -61.369304 
L 267.022075 -61.376169 
L 266.653297 -61.381528 
L 266.284518 -61.384256 
L 265.915739 -61.38386 
L 265.546961 -61.380389 
L 265.178182 -61.374428 
L 264.809404 -61.3671 
L 264.440625 -61.359829 
L 264.071847 -61.35382 
L 263.703068 -61.349639 
L 263.33429 -61.347175 
L 262.965511 -61.345941 
L 262.596732 -61.345413 
z
" style="stroke: #d55e00; stroke-width: 2"/>
    </defs>
    <g clip-path="url(#pd4e9de7eff)">
     <use xlink:href="#m26b4d1fea0" x="0" y="360" style="fill: #d55e00; fill-opacity: 0.2; stroke: #d55e00; stroke-width: 2"/>
    </g>
   </g>
   <g id="PolyCollection_2">
    <defs>
     <path id="m17aa61d4b7" d="M 67.331781 -61.345478 
L 67.331781 -61.34514 
L 68.625841 -61.34514 
L 69.919901 -61.34514 
L 71.213961 -61.34514 
L 72.508021 -61.34514 
L 73.802081 -61.34514 
L 75.096141 -61.34514 
L 76.390201 -61.34514 
L 77.684261 -61.34514 
L 78.978321 -61.34514 
L 80.272381 -61.34514 
L 81.566441 -61.34514 
L 82.860501 -61.34514 
L 84.154561 -61.34514 
L 85.448621 -61.34514 
L 86.742681 -61.34514 
L 88.036741 -61.34514 
L 89.330801 -61.34514 
L 90.624861 -61.34514 
L 91.918921 -61.34514 
L 93.212981 -61.34514 
L 94.507041 -61.34514 
L 95.801101 -61.34514 
L 97.095162 -61.34514 
L 98.389222 -61.34514 
L 99.683282 -61.34514 
L 100.977342 -61.34514 
L 102.271402 -61.34514 
L 103.565462 -61.34514 
L 104.859522 -61.34514 
L 106.153582 -61.34514 
L 107.447642 -61.34514 
L 108.741702 -61.34514 
L 110.035762 -61.34514 
L 111.329822 -61.34514 
L 112.623882 -61.34514 
L 113.917942 -61.34514 
L 115.212002 -61.34514 
L 116.506062 -61.34514 
L 117.800122 -61.34514 
L 119.094182 -61.34514 
L 120.388242 -61.34514 
L 121.682302 -61.34514 
L 122.976362 -61.34514 
L 124.270422 -61.34514 
L 125.564482 -61.34514 
L 126.858542 -61.34514 
L 128.152602 -61.34514 
L 129.446662 -61.34514 
L 130.740722 -61.34514 
L 132.034782 -61.34514 
L 133.328842 -61.34514 
L 134.622902 -61.34514 
L 135.916962 -61.34514 
L 137.211022 -61.34514 
L 138.505083 -61.34514 
L 139.799143 -61.34514 
L 141.093203 -61.34514 
L 142.387263 -61.34514 
L 143.681323 -61.34514 
L 144.975383 -61.34514 
L 146.269443 -61.34514 
L 147.563503 -61.34514 
L 148.857563 -61.34514 
L 150.151623 -61.34514 
L 151.445683 -61.34514 
L 152.739743 -61.34514 
L 154.033803 -61.34514 
L 155.327863 -61.34514 
L 156.621923 -61.34514 
L 157.915983 -61.34514 
L 159.210043 -61.34514 
L 160.504103 -61.34514 
L 161.798163 -61.34514 
L 163.092223 -61.34514 
L 164.386283 -61.34514 
L 165.680343 -61.34514 
L 166.974403 -61.34514 
L 168.268463 -61.34514 
L 169.562523 -61.34514 
L 170.856583 -61.34514 
L 172.150643 -61.34514 
L 173.444703 -61.34514 
L 174.738763 -61.34514 
L 176.032823 -61.34514 
L 177.326883 -61.34514 
L 178.620944 -61.34514 
L 179.915004 -61.34514 
L 181.209064 -61.34514 
L 182.503124 -61.34514 
L 183.797184 -61.34514 
L 185.091244 -61.34514 
L 186.385304 -61.34514 
L 187.679364 -61.34514 
L 188.973424 -61.34514 
L 190.267484 -61.34514 
L 191.561544 -61.34514 
L 192.855604 -61.34514 
L 194.149664 -61.34514 
L 195.443724 -61.34514 
L 196.737784 -61.34514 
L 198.031844 -61.34514 
L 199.325904 -61.34514 
L 200.619964 -61.34514 
L 201.914024 -61.34514 
L 203.208084 -61.34514 
L 204.502144 -61.34514 
L 205.796204 -61.34514 
L 207.090264 -61.34514 
L 208.384324 -61.34514 
L 209.678384 -61.34514 
L 210.972444 -61.34514 
L 212.266504 -61.34514 
L 213.560564 -61.34514 
L 214.854624 -61.34514 
L 216.148684 -61.34514 
L 217.442744 -61.34514 
L 218.736804 -61.34514 
L 220.030865 -61.34514 
L 221.324925 -61.34514 
L 222.618985 -61.34514 
L 223.913045 -61.34514 
L 225.207105 -61.34514 
L 226.501165 -61.34514 
L 227.795225 -61.34514 
L 229.089285 -61.34514 
L 230.383345 -61.34514 
L 231.677405 -61.34514 
L 232.971465 -61.34514 
L 234.265525 -61.34514 
L 235.559585 -61.34514 
L 236.853645 -61.34514 
L 238.147705 -61.34514 
L 239.441765 -61.34514 
L 240.735825 -61.34514 
L 242.029885 -61.34514 
L 243.323945 -61.34514 
L 244.618005 -61.34514 
L 245.912065 -61.34514 
L 247.206125 -61.34514 
L 248.500185 -61.34514 
L 249.794245 -61.34514 
L 251.088305 -61.34514 
L 252.382365 -61.34514 
L 253.676425 -61.34514 
L 254.970485 -61.34514 
L 256.264545 -61.34514 
L 257.558605 -61.34514 
L 258.852665 -61.34514 
L 260.146726 -61.34514 
L 261.440786 -61.34514 
L 262.734846 -61.34514 
L 264.028906 -61.34514 
L 265.322966 -61.34514 
L 266.617026 -61.34514 
L 267.911086 -61.34514 
L 269.205146 -61.34514 
L 270.499206 -61.34514 
L 271.793266 -61.34514 
L 273.087326 -61.34514 
L 274.381386 -61.34514 
L 275.675446 -61.34514 
L 276.969506 -61.34514 
L 278.263566 -61.34514 
L 279.557626 -61.34514 
L 280.851686 -61.34514 
L 282.145746 -61.34514 
L 283.439806 -61.34514 
L 284.733866 -61.34514 
L 286.027926 -61.34514 
L 287.321986 -61.34514 
L 288.616046 -61.34514 
L 289.910106 -61.34514 
L 291.204166 -61.34514 
L 292.498226 -61.34514 
L 293.792286 -61.34514 
L 295.086346 -61.34514 
L 296.380406 -61.34514 
L 297.674466 -61.34514 
L 298.968526 -61.34514 
L 300.262587 -61.34514 
L 301.556647 -61.34514 
L 302.850707 -61.34514 
L 304.144767 -61.34514 
L 305.438827 -61.34514 
L 306.732887 -61.34514 
L 308.026947 -61.34514 
L 309.321007 -61.34514 
L 310.615067 -61.34514 
L 311.909127 -61.34514 
L 313.203187 -61.34514 
L 314.497247 -61.34514 
L 315.791307 -61.34514 
L 317.085367 -61.34514 
L 318.379427 -61.34514 
L 319.673487 -61.34514 
L 320.967547 -61.34514 
L 322.261607 -61.34514 
L 323.555667 -61.34514 
L 324.849727 -61.34514 
L 324.849727 -61.345257 
L 324.849727 -61.345257 
L 323.555667 -61.345392 
L 322.261607 -61.34566 
L 320.967547 -61.346165 
L 319.673487 -61.347074 
L 318.379427 -61.348651 
L 317.085367 -61.351294 
L 315.791307 -61.355599 
L 314.497247 -61.36244 
L 313.203187 -61.373096 
L 311.909127 -61.389412 
L 310.615067 -61.414017 
L 309.321007 -61.450579 
L 308.026947 -61.504084 
L 306.732887 -61.581094 
L 305.438827 -61.689927 
L 304.144767 -61.840676 
L 302.850707 -62.044997 
L 301.556647 -62.315645 
L 300.262587 -62.665801 
L 298.968526 -63.108322 
L 297.674466 -63.655125 
L 296.380406 -64.316846 
L 295.086346 -65.102825 
L 293.792286 -66.02121 
L 292.498226 -67.078862 
L 291.204166 -68.280712 
L 289.910106 -69.628459 
L 288.616046 -71.11888 
L 287.321986 -72.742341 
L 286.027926 -74.482197 
L 284.733866 -76.31551 
L 283.439806 -78.214987 
L 282.145746 -80.151582 
L 280.851686 -82.096938 
L 279.557626 -84.025083 
L 278.263566 -85.913189 
L 276.969506 -87.741718 
L 275.675446 -89.494457 
L 274.381386 -91.158772 
L 273.087326 -92.726071 
L 271.793266 -94.192064 
L 270.499206 -95.556365 
L 269.205146 -96.821171 
L 267.911086 -97.989193 
L 266.617026 -99.061403 
L 265.322966 -100.035387 
L 264.028906 -100.90497 
L 262.734846 -101.661486 
L 261.440786 -102.296493 
L 260.146726 -102.805227 
L 258.852665 -103.189679 
L 257.558605 -103.460155 
L 256.264545 -103.634575 
L 254.970485 -103.735498 
L 253.676425 -103.785716 
L 252.382365 -103.803789 
L 251.088305 -103.800964 
L 249.794245 -103.78034 
L 248.500185 -103.738294 
L 247.206125 -103.667354 
L 245.912065 -103.559324 
L 244.618005 -103.407602 
L 243.323945 -103.208212 
L 242.029885 -102.959739 
L 240.735825 -102.66278 
L 239.441765 -102.319494 
L 238.147705 -101.93356 
L 236.853645 -101.510409 
L 235.559585 -101.057409 
L 234.265525 -100.583709 
L 232.971465 -100.099672 
L 231.677405 -99.615998 
L 230.383345 -99.142709 
L 229.089285 -98.68819 
L 227.795225 -98.25842 
L 226.501165 -97.85658 
L 225.207105 -97.483226 
L 223.913045 -97.13708 
L 222.618985 -96.816244 
L 221.324925 -96.519419 
L 220.030865 -96.246572 
L 218.736804 -95.998698 
L 217.442744 -95.776708 
L 216.148684 -95.579893 
L 214.854624 -95.404695 
L 213.560564 -95.244429 
L 212.266504 -95.090231 
L 210.972444 -94.932966 
L 209.678384 -94.765465 
L 208.384324 -94.584331 
L 207.090264 -94.390778 
L 205.796204 -94.1904 
L 204.502144 -93.992082 
L 203.208084 -93.806468 
L 201.914024 -93.644344 
L 200.619964 -93.515149 
L 199.325904 -93.425726 
L 198.031844 -93.37944 
L 196.737784 -93.37584 
L 195.443724 -93.411026 
L 194.149664 -93.478767 
L 192.855604 -93.572102 
L 191.561544 -93.68496 
L 190.267484 -93.813251 
L 188.973424 -93.955105 
L 187.679364 -94.110301 
L 186.385304 -94.279299 
L 185.091244 -94.462361 
L 183.797184 -94.659103 
L 182.503124 -94.86842 
L 181.209064 -95.0885 
L 179.915004 -95.316669 
L 178.620944 -95.549151 
L 177.326883 -95.781163 
L 176.032823 -96.007808 
L 174.738763 -96.225839 
L 173.444703 -96.435754 
L 172.150643 -96.643242 
L 170.856583 -96.85915 
L 169.562523 -97.097709 
L 168.268463 -97.373622 
L 166.974403 -97.699064 
L 165.680343 -98.08162 
L 164.386283 -98.523667 
L 163.092223 -99.023084 
L 161.798163 -99.574804 
L 160.504103 -100.172592 
L 159.210043 -100.810647 
L 157.915983 -101.484784 
L 156.621923 -102.193141 
L 155.327863 -102.936435 
L 154.033803 -103.717907 
L 152.739743 -104.543116 
L 151.445683 -105.419675 
L 150.151623 -106.356852 
L 148.857563 -107.364763 
L 147.563503 -108.452873 
L 146.269443 -109.627751 
L 144.975383 -110.890421 
L 143.681323 -112.234059 
L 142.387263 -113.642839 
L 141.093203 -115.092503 
L 139.799143 -116.552632 
L 138.505083 -117.990041 
L 137.211022 -119.372302 
L 135.916962 -120.67035 
L 134.622902 -121.859384 
L 133.328842 -122.917829 
L 132.034782 -123.824689 
L 130.740722 -124.556182 
L 129.446662 -125.082793 
L 128.152602 -125.367872 
L 126.858542 -125.368524 
L 125.564482 -125.039033 
L 124.270422 -124.33645 
L 122.976362 -123.227534 
L 121.682302 -121.695952 
L 120.388242 -119.748505 
L 119.094182 -117.419253 
L 117.800122 -114.770687 
L 116.506062 -111.891518 
L 115.212002 -108.891271 
L 113.917942 -105.892289 
L 112.623882 -103.019978 
L 111.329822 -100.391959 
L 110.035762 -98.10657 
L 108.741702 -96.231051 
L 107.447642 -94.790204 
L 106.153582 -93.757163 
L 104.859522 -93.048918 
L 103.565462 -92.529614 
L 102.271402 -92.023974 
L 100.977342 -91.341069 
L 99.683282 -90.305558 
L 98.389222 -88.790397 
L 97.095162 -86.743126 
L 95.801101 -84.19836 
L 94.507041 -81.272283 
L 93.212981 -78.139934 
L 91.918921 -75.001132 
L 90.624861 -72.04409 
L 89.330801 -69.415783 
L 88.036741 -67.20525 
L 86.742681 -65.441469 
L 85.448621 -64.103141 
L 84.154561 -63.135168 
L 82.860501 -62.466266 
L 81.566441 -62.023588 
L 80.272381 -61.742345 
L 78.978321 -61.570405 
L 77.684261 -61.469025 
L 76.390201 -61.411257 
L 75.096141 -61.379393 
L 73.802081 -61.362363 
L 72.508021 -61.353538 
L 71.213961 -61.349106 
L 69.919901 -61.34695 
L 68.625841 -61.345937 
L 67.331781 -61.345478 
z
" style="stroke: #029e73; stroke-width: 2"/>
    </defs>
    <g clip-path="url(#pd4e9de7eff)">
     <use xlink:href="#m17aa61d4b7" x="0" y="360" style="fill: #029e73; fill-opacity: 0.2; stroke: #029e73; stroke-width: 2"/>
    </g>
   </g>
   <g id="PolyCollection_3">
    <path d="M -63.282589 298.654793 
L -63.282589 298.65486 
L -61.230719 298.65486 
L -59.178848 298.65486 
L -57.126977 298.65486 
L -55.075107 298.65486 
L -53.023236 298.65486 
L -50.971365 298.65486 
L -48.919495 298.65486 
L -46.867624 298.65486 
L -44.815753 298.65486 
L -42.763883 298.65486 
L -40.712012 298.65486 
L -38.660141 298.65486 
L -36.608271 298.65486 
L -34.5564 298.65486 
L -32.504529 298.65486 
L -30.452659 298.65486 
L -28.400788 298.65486 
L -26.348917 298.65486 
L -24.297047 298.65486 
L -22.245176 298.65486 
L -20.193305 298.65486 
L -18.141435 298.65486 
L -16.089564 298.65486 
L -14.037693 298.65486 
L -11.985823 298.65486 
L -9.933952 298.65486 
L -7.882081 298.65486 
L -5.830211 298.65486 
L -3.77834 298.65486 
L -1.726469 298.65486 
L 0.325401 298.65486 
L 2.377272 298.65486 
L 4.429143 298.65486 
L 6.481013 298.65486 
L 8.532884 298.65486 
L 10.584755 298.65486 
L 12.636625 298.65486 
L 14.688496 298.65486 
L 16.740367 298.65486 
L 18.792237 298.65486 
L 20.844108 298.65486 
L 22.895979 298.65486 
L 24.947849 298.65486 
L 26.99972 298.65486 
L 29.051591 298.65486 
L 31.103461 298.65486 
L 33.155332 298.65486 
L 35.207203 298.65486 
L 37.259073 298.65486 
L 39.310944 298.65486 
L 41.362815 298.65486 
L 43.414685 298.65486 
L 45.466556 298.65486 
L 47.518427 298.65486 
L 49.570297 298.65486 
L 51.622168 298.65486 
L 53.674039 298.65486 
L 55.725909 298.65486 
L 57.77778 298.65486 
L 59.829651 298.65486 
L 61.881521 298.65486 
L 63.933392 298.65486 
L 65.985263 298.65486 
L 68.037133 298.65486 
L 70.089004 298.65486 
L 72.140875 298.65486 
L 74.192746 298.65486 
L 76.244616 298.65486 
L 78.296487 298.65486 
L 80.348358 298.65486 
L 82.400228 298.65486 
L 84.452099 298.65486 
L 86.50397 298.65486 
L 88.55584 298.65486 
L 90.607711 298.65486 
L 92.659582 298.65486 
L 94.711452 298.65486 
L 96.763323 298.65486 
L 98.815194 298.65486 
L 100.867064 298.65486 
L 102.918935 298.65486 
L 104.970806 298.65486 
L 107.022676 298.65486 
L 109.074547 298.65486 
L 111.126418 298.65486 
L 113.178288 298.65486 
L 115.230159 298.65486 
L 117.28203 298.65486 
L 119.3339 298.65486 
L 121.385771 298.65486 
L 123.437642 298.65486 
L 125.489512 298.65486 
L 127.541383 298.65486 
L 129.593254 298.65486 
L 131.645124 298.65486 
L 133.696995 298.65486 
L 135.748866 298.65486 
L 137.800736 298.65486 
L 139.852607 298.65486 
L 141.904478 298.65486 
L 143.956348 298.65486 
L 146.008219 298.65486 
L 148.06009 298.65486 
L 150.11196 298.65486 
L 152.163831 298.65486 
L 154.215702 298.65486 
L 156.267572 298.65486 
L 158.319443 298.65486 
L 160.371314 298.65486 
L 162.423184 298.65486 
L 164.475055 298.65486 
L 166.526926 298.65486 
L 168.578796 298.65486 
L 170.630667 298.65486 
L 172.682538 298.65486 
L 174.734408 298.65486 
L 176.786279 298.65486 
L 178.83815 298.65486 
L 180.89002 298.65486 
L 182.941891 298.65486 
L 184.993762 298.65486 
L 187.045632 298.65486 
L 189.097503 298.65486 
L 191.149374 298.65486 
L 193.201244 298.65486 
L 195.253115 298.65486 
L 197.304986 298.65486 
L 199.356856 298.65486 
L 201.408727 298.65486 
L 203.460598 298.65486 
L 205.512468 298.65486 
L 207.564339 298.65486 
L 209.61621 298.65486 
L 211.66808 298.65486 
L 213.719951 298.65486 
L 215.771822 298.65486 
L 217.823692 298.65486 
L 219.875563 298.65486 
L 221.927434 298.65486 
L 223.979304 298.65486 
L 226.031175 298.65486 
L 228.083046 298.65486 
L 230.134916 298.65486 
L 232.186787 298.65486 
L 234.238658 298.65486 
L 236.290528 298.65486 
L 238.342399 298.65486 
L 240.39427 298.65486 
L 242.44614 298.65486 
L 244.498011 298.65486 
L 246.549882 298.65486 
L 248.601752 298.65486 
L 250.653623 298.65486 
L 252.705494 298.65486 
L 254.757364 298.65486 
L 256.809235 298.65486 
L 258.861106 298.65486 
L 260.912976 298.65486 
L 262.964847 298.65486 
L 265.016718 298.65486 
L 267.068588 298.65486 
L 269.120459 298.65486 
L 271.17233 298.65486 
L 273.2242 298.65486 
L 275.276071 298.65486 
L 277.327942 298.65486 
L 279.379812 298.65486 
L 281.431683 298.65486 
L 283.483554 298.65486 
L 285.535424 298.65486 
L 287.587295 298.65486 
L 289.639166 298.65486 
L 291.691036 298.65486 
L 293.742907 298.65486 
L 295.794778 298.65486 
L 297.846648 298.65486 
L 299.898519 298.65486 
L 301.95039 298.65486 
L 304.00226 298.65486 
L 306.054131 298.65486 
L 308.106002 298.65486 
L 310.157872 298.65486 
L 312.209743 298.65486 
L 314.261614 298.65486 
L 316.313484 298.65486 
L 318.365355 298.65486 
L 320.417226 298.65486 
L 322.469096 298.65486 
L 324.520967 298.65486 
L 326.572838 298.65486 
L 328.624708 298.65486 
L 330.676579 298.65486 
L 332.72845 298.65486 
L 334.78032 298.65486 
L 336.832191 298.65486 
L 338.884062 298.65486 
L 340.935932 298.65486 
L 342.987803 298.65486 
L 345.039674 298.65486 
L 345.039674 298.653517 
L 345.039674 298.653517 
L 342.987803 298.646535 
L 340.935932 298.613008 
L 338.884062 298.482527 
L 336.832191 298.067696 
L 334.78032 296.981074 
L 332.72845 294.611115 
L 330.676579 290.247543 
L 328.624708 283.347702 
L 326.572838 273.80019 
L 324.520967 262.035502 
L 322.469096 248.941298 
L 320.417226 235.63159 
L 318.365355 223.175602 
L 316.313484 212.398007 
L 314.261614 203.781931 
L 312.209743 197.453559 
L 310.157872 193.266744 
L 308.106002 190.965369 
L 306.054131 190.295376 
L 304.00226 191.028484 
L 301.95039 192.964307 
L 299.898519 195.86429 
L 297.846648 199.340345 
L 295.794778 202.936348 
L 293.742907 206.393185 
L 291.691036 209.732958 
L 289.639166 213.061554 
L 287.587295 216.404195 
L 285.535424 219.745598 
L 283.483554 223.101518 
L 281.431683 226.481436 
L 279.379812 229.835986 
L 277.327942 233.087788 
L 275.276071 236.180532 
L 273.2242 239.088522 
L 271.17233 241.839087 
L 269.120459 244.527427 
L 267.068588 247.236865 
L 265.016718 249.939799 
L 262.964847 252.525217 
L 260.912976 254.905632 
L 258.861106 257.05873 
L 256.809235 258.998849 
L 254.757364 260.762686 
L 252.705494 262.417542 
L 250.653623 264.04132 
L 248.601752 265.680335 
L 246.549882 267.339347 
L 244.498011 269.001615 
L 242.44614 270.633104 
L 240.39427 272.177349 
L 238.342399 273.577762 
L 236.290528 274.813129 
L 234.238658 275.904726 
L 232.186787 276.896942 
L 230.134916 277.845597 
L 228.083046 278.81547 
L 226.031175 279.85198 
L 223.979304 280.934311 
L 221.927434 281.977878 
L 219.875563 282.90279 
L 217.823692 283.692537 
L 215.771822 284.391795 
L 213.719951 285.07094 
L 211.66808 285.790285 
L 209.61621 286.569709 
L 207.564339 287.372277 
L 205.512468 288.118716 
L 203.460598 288.736744 
L 201.408727 289.216569 
L 199.356856 289.617468 
L 197.304986 290.006113 
L 195.253115 290.394831 
L 193.201244 290.758988 
L 191.149374 291.099091 
L 189.097503 291.45 
L 187.045632 291.834387 
L 184.993762 292.234792 
L 182.941891 292.607923 
L 180.89002 292.916596 
L 178.83815 293.161491 
L 176.786279 293.38822 
L 174.734408 293.647809 
L 172.682538 293.94201 
L 170.630667 294.21838 
L 168.578796 294.4277 
L 166.526926 294.578408 
L 164.475055 294.724416 
L 162.423184 294.907247 
L 160.371314 295.128122 
L 158.319443 295.370378 
L 156.267572 295.618239 
L 154.215702 295.84614 
L 152.163831 296.020156 
L 150.11196 296.130156 
L 148.06009 296.20598 
L 146.008219 296.28988 
L 143.956348 296.401459 
L 141.904478 296.531203 
L 139.852607 296.657409 
L 137.800736 296.765011 
L 135.748866 296.851992 
L 133.696995 296.923934 
L 131.645124 296.989302 
L 129.593254 297.059564 
L 127.541383 297.142658 
L 125.489512 297.230979 
L 123.437642 297.305795 
L 121.385771 297.359893 
L 119.3339 297.407596 
L 117.28203 297.465657 
L 115.230159 297.530924 
L 113.178288 297.586557 
L 111.126418 297.627378 
L 109.074547 297.667501 
L 107.022676 297.721142 
L 104.970806 297.784441 
L 102.918935 297.840415 
L 100.867064 297.878944 
L 98.815194 297.907189 
L 96.763323 297.939322 
L 94.711452 297.981479 
L 92.659582 298.029923 
L 90.607711 298.077572 
L 88.55584 298.117215 
L 86.50397 298.143722 
L 84.452099 298.158938 
L 82.400228 298.171117 
L 80.348358 298.185415 
L 78.296487 298.19839 
L 76.244616 298.205764 
L 74.192746 298.211819 
L 72.140875 298.22605 
L 70.089004 298.25286 
L 68.037133 298.28816 
L 65.985263 298.324097 
L 63.933392 298.355099 
L 61.881521 298.380226 
L 59.829651 298.400873 
L 57.77778 298.417887 
L 55.725909 298.431624 
L 53.674039 298.442972 
L 51.622168 298.453406 
L 49.570297 298.464629 
L 47.518427 298.477342 
L 45.466556 298.48994 
L 43.414685 298.499557 
L 41.362815 298.504535 
L 39.310944 298.50536 
L 37.259073 298.50407 
L 35.207203 298.503954 
L 33.155332 298.508698 
L 31.103461 298.519185 
L 29.051591 298.531243 
L 26.99972 298.538915 
L 24.947849 298.540324 
L 22.895979 298.53938 
L 20.844108 298.542281 
L 18.792237 298.5523 
L 16.740367 298.566369 
L 14.688496 298.576969 
L 12.636625 298.579257 
L 10.584755 298.576191 
L 8.532884 298.575564 
L 6.481013 298.582741 
L 4.429143 298.596878 
L 2.377272 298.61243 
L 0.325401 298.623037 
L -1.726469 298.625549 
L -3.77834 298.622123 
L -5.830211 298.618287 
L -7.882081 298.618392 
L -9.933952 298.622679 
L -11.985823 298.628071 
L -14.037693 298.63137 
L -16.089564 298.632001 
L -18.141435 298.632111 
L -20.193305 298.634252 
L -22.245176 298.638986 
L -24.297047 298.644509 
L -26.348917 298.648327 
L -28.400788 298.649181 
L -30.452659 298.647646 
L -32.504529 298.645445 
L -34.5564 298.644305 
L -36.608271 298.645076 
L -38.660141 298.64743 
L -40.712012 298.65021 
L -42.763883 298.652175 
L -44.815753 298.652631 
L -46.867624 298.651627 
L -48.919495 298.649953 
L -50.971365 298.648863 
L -53.023236 298.64924 
L -55.075107 298.650851 
L -57.126977 298.652685 
L -59.178848 298.653963 
L -61.230719 298.654579 
L -63.282589 298.654793 
z
" clip-path="url(#pd4e9de7eff)" style="fill: #de8f05; fill-opacity: 0.2; stroke: #de8f05; stroke-width: 2"/>
   </g>
   <g id="PolyCollection_4">
    <defs>
     <path id="m74f4269aa7" d="M 30.645078 -61.345208 
L 30.645078 -61.34514 
L 32.20061 -61.34514 
L 33.756141 -61.34514 
L 35.311673 -61.34514 
L 36.867205 -61.34514 
L 38.422736 -61.34514 
L 39.978268 -61.34514 
L 41.533799 -61.34514 
L 43.089331 -61.34514 
L 44.644862 -61.34514 
L 46.200394 -61.34514 
L 47.755925 -61.34514 
L 49.311457 -61.34514 
L 50.866988 -61.34514 
L 52.42252 -61.34514 
L 53.978051 -61.34514 
L 55.533583 -61.34514 
L 57.089114 -61.34514 
L 58.644646 -61.34514 
L 60.200177 -61.34514 
L 61.755709 -61.34514 
L 63.31124 -61.34514 
L 64.866772 -61.34514 
L 66.422303 -61.34514 
L 67.977835 -61.34514 
L 69.533366 -61.34514 
L 71.088898 -61.34514 
L 72.644429 -61.34514 
L 74.199961 -61.34514 
L 75.755492 -61.34514 
L 77.311024 -61.34514 
L 78.866555 -61.34514 
L 80.422087 -61.34514 
L 81.977618 -61.34514 
L 83.53315 -61.34514 
L 85.088681 -61.34514 
L 86.644213 -61.34514 
L 88.199744 -61.34514 
L 89.755276 -61.34514 
L 91.310807 -61.34514 
L 92.866339 -61.34514 
L 94.42187 -61.34514 
L 95.977402 -61.34514 
L 97.532933 -61.34514 
L 99.088465 -61.34514 
L 100.643996 -61.34514 
L 102.199528 -61.34514 
L 103.755059 -61.34514 
L 105.310591 -61.34514 
L 106.866122 -61.34514 
L 108.421654 -61.34514 
L 109.977185 -61.34514 
L 111.532717 -61.34514 
L 113.088248 -61.34514 
L 114.64378 -61.34514 
L 116.199311 -61.34514 
L 117.754843 -61.34514 
L 119.310374 -61.34514 
L 120.865906 -61.34514 
L 122.421437 -61.34514 
L 123.976969 -61.34514 
L 125.5325 -61.34514 
L 127.088032 -61.34514 
L 128.643563 -61.34514 
L 130.199095 -61.34514 
L 131.754626 -61.34514 
L 133.310158 -61.34514 
L 134.865689 -61.34514 
L 136.421221 -61.34514 
L 137.976752 -61.34514 
L 139.532284 -61.34514 
L 141.087815 -61.34514 
L 142.643347 -61.34514 
L 144.198878 -61.34514 
L 145.75441 -61.34514 
L 147.309941 -61.34514 
L 148.865473 -61.34514 
L 150.421005 -61.34514 
L 151.976536 -61.34514 
L 153.532068 -61.34514 
L 155.087599 -61.34514 
L 156.643131 -61.34514 
L 158.198662 -61.34514 
L 159.754194 -61.34514 
L 161.309725 -61.34514 
L 162.865257 -61.34514 
L 164.420788 -61.34514 
L 165.97632 -61.34514 
L 167.531851 -61.34514 
L 169.087383 -61.34514 
L 170.642914 -61.34514 
L 172.198446 -61.34514 
L 173.753977 -61.34514 
L 175.309509 -61.34514 
L 176.86504 -61.34514 
L 178.420572 -61.34514 
L 179.976103 -61.34514 
L 181.531635 -61.34514 
L 183.087166 -61.34514 
L 184.642698 -61.34514 
L 186.198229 -61.34514 
L 187.753761 -61.34514 
L 189.309292 -61.34514 
L 190.864824 -61.34514 
L 192.420355 -61.34514 
L 193.975887 -61.34514 
L 195.531418 -61.34514 
L 197.08695 -61.34514 
L 198.642481 -61.34514 
L 200.198013 -61.34514 
L 201.753544 -61.34514 
L 203.309076 -61.34514 
L 204.864607 -61.34514 
L 206.420139 -61.34514 
L 207.97567 -61.34514 
L 209.531202 -61.34514 
L 211.086733 -61.34514 
L 212.642265 -61.34514 
L 214.197796 -61.34514 
L 215.753328 -61.34514 
L 217.308859 -61.34514 
L 218.864391 -61.34514 
L 220.419922 -61.34514 
L 221.975454 -61.34514 
L 223.530985 -61.34514 
L 225.086517 -61.34514 
L 226.642048 -61.34514 
L 228.19758 -61.34514 
L 229.753111 -61.34514 
L 231.308643 -61.34514 
L 232.864174 -61.34514 
L 234.419706 -61.34514 
L 235.975237 -61.34514 
L 237.530769 -61.34514 
L 239.0863 -61.34514 
L 240.641832 -61.34514 
L 242.197363 -61.34514 
L 243.752895 -61.34514 
L 245.308426 -61.34514 
L 246.863958 -61.34514 
L 248.419489 -61.34514 
L 249.975021 -61.34514 
L 251.530552 -61.34514 
L 253.086084 -61.34514 
L 254.641615 -61.34514 
L 256.197147 -61.34514 
L 257.752678 -61.34514 
L 259.30821 -61.34514 
L 260.863741 -61.34514 
L 262.419273 -61.34514 
L 263.974805 -61.34514 
L 265.530336 -61.34514 
L 267.085868 -61.34514 
L 268.641399 -61.34514 
L 270.196931 -61.34514 
L 271.752462 -61.34514 
L 273.307994 -61.34514 
L 274.863525 -61.34514 
L 276.419057 -61.34514 
L 277.974588 -61.34514 
L 279.53012 -61.34514 
L 281.085651 -61.34514 
L 282.641183 -61.34514 
L 284.196714 -61.34514 
L 285.752246 -61.34514 
L 287.307777 -61.34514 
L 288.863309 -61.34514 
L 290.41884 -61.34514 
L 291.974372 -61.34514 
L 293.529903 -61.34514 
L 295.085435 -61.34514 
L 296.640966 -61.34514 
L 298.196498 -61.34514 
L 299.752029 -61.34514 
L 301.307561 -61.34514 
L 302.863092 -61.34514 
L 304.418624 -61.34514 
L 305.974155 -61.34514 
L 307.529687 -61.34514 
L 309.085218 -61.34514 
L 310.64075 -61.34514 
L 312.196281 -61.34514 
L 313.751813 -61.34514 
L 315.307344 -61.34514 
L 316.862876 -61.34514 
L 318.418407 -61.34514 
L 319.973939 -61.34514 
L 321.52947 -61.34514 
L 323.085002 -61.34514 
L 324.640533 -61.34514 
L 326.196065 -61.34514 
L 327.751596 -61.34514 
L 329.307128 -61.34514 
L 330.862659 -61.34514 
L 332.418191 -61.34514 
L 333.973722 -61.34514 
L 335.529254 -61.34514 
L 337.084785 -61.34514 
L 338.640317 -61.34514 
L 340.195848 -61.34514 
L 340.195848 -61.362128 
L 340.195848 -61.362128 
L 338.640317 -61.406445 
L 337.084785 -61.538675 
L 335.529254 -61.883004 
L 333.973722 -62.670682 
L 332.418191 -64.265346 
L 330.862659 -67.145398 
L 329.307128 -71.823808 
L 327.751596 -78.714542 
L 326.196065 -87.986416 
L 324.640533 -99.453786 
L 323.085002 -112.532464 
L 321.52947 -126.270379 
L 319.973939 -139.475934 
L 318.418407 -150.970786 
L 316.862876 -159.915704 
L 315.307344 -166.04429 
L 313.751813 -169.648554 
L 312.196281 -171.335477 
L 310.64075 -171.738633 
L 309.085218 -171.351665 
L 307.529687 -170.500661 
L 305.974155 -169.36925 
L 304.418624 -168.012377 
L 302.863092 -166.368956 
L 301.307561 -164.311086 
L 299.752029 -161.732168 
L 298.196498 -158.630857 
L 296.640966 -155.140146 
L 295.085435 -151.484246 
L 293.529903 -147.892396 
L 291.974372 -144.524715 
L 290.41884 -141.449035 
L 288.863309 -138.662499 
L 287.307777 -136.122759 
L 285.752246 -133.767335 
L 284.196714 -131.527374 
L 282.641183 -129.344671 
L 281.085651 -127.185469 
L 279.53012 -125.042306 
L 277.974588 -122.927659 
L 276.419057 -120.867365 
L 274.863525 -118.893306 
L 273.307994 -117.031972 
L 271.752462 -115.295455 
L 270.196931 -113.686224 
L 268.641399 -112.211844 
L 267.085868 -110.887614 
L 265.530336 -109.714287 
L 263.974805 -108.651525 
L 262.419273 -107.622286 
L 260.863741 -106.553661 
L 259.30821 -105.419178 
L 257.752678 -104.245324 
L 256.197147 -103.080057 
L 254.641615 -101.952135 
L 253.086084 -100.852052 
L 251.530552 -99.745654 
L 249.975021 -98.606585 
L 248.419489 -97.438467 
L 246.863958 -96.265983 
L 245.308426 -95.103883 
L 243.752895 -93.937035 
L 242.197363 -92.734236 
L 240.641832 -91.481594 
L 239.0863 -90.19965 
L 237.530769 -88.928813 
L 235.975237 -87.703808 
L 234.419706 -86.543784 
L 232.864174 -85.457961 
L 231.308643 -84.44864 
L 229.753111 -83.505882 
L 228.19758 -82.606152 
L 226.642048 -81.72305 
L 225.086517 -80.840797 
L 223.530985 -79.956358 
L 221.975454 -79.070043 
L 220.419922 -78.178873 
L 218.864391 -77.283599 
L 217.308859 -76.402239 
L 215.753328 -75.57163 
L 214.197796 -74.828982 
L 212.642265 -74.187123 
L 211.086733 -73.625634 
L 209.531202 -73.105484 
L 207.97567 -72.593641 
L 206.420139 -72.078499 
L 204.864607 -71.569212 
L 203.309076 -71.085316 
L 201.753544 -70.644574 
L 200.198013 -70.252353 
L 198.642481 -69.895911 
L 197.08695 -69.549473 
L 195.531418 -69.190402 
L 193.975887 -68.815144 
L 192.420355 -68.441386 
L 190.864824 -68.095234 
L 189.309292 -67.795064 
L 187.753761 -67.543492 
L 186.198229 -67.329233 
L 184.642698 -67.133761 
L 183.087166 -66.93852 
L 181.531635 -66.731386 
L 179.976103 -66.510744 
L 178.420572 -66.284214 
L 176.86504 -66.061927 
L 175.309509 -65.849362 
L 173.753977 -65.645649 
L 172.198446 -65.448533 
L 170.642914 -65.261317 
L 169.087383 -65.095362 
L 167.531851 -64.965487 
L 165.97632 -64.881506 
L 164.420788 -64.841624 
L 162.865257 -64.831219 
L 161.309725 -64.827179 
L 159.754194 -64.806164 
L 158.198662 -64.753815 
L 156.643131 -64.670361 
L 155.087599 -64.56871 
L 153.532068 -64.465755 
L 151.976536 -64.372828 
L 150.421005 -64.291805 
L 148.865473 -64.218374 
L 147.309941 -64.148329 
L 145.75441 -64.081445 
L 144.198878 -64.020366 
L 142.643347 -63.966169 
L 141.087815 -63.915049 
L 139.532284 -63.859648 
L 137.976752 -63.79399 
L 136.421221 -63.717119 
L 134.865689 -63.631981 
L 133.310158 -63.5413 
L 131.754626 -63.445296 
L 130.199095 -63.343694 
L 128.643563 -63.239693 
L 127.088032 -63.141308 
L 125.5325 -63.057815 
L 123.976969 -62.993474 
L 122.421437 -62.943578 
L 120.865906 -62.896741 
L 119.310374 -62.84253 
L 117.754843 -62.778632 
L 116.199311 -62.711448 
L 114.64378 -62.649596 
L 113.088248 -62.596406 
L 111.532717 -62.548345 
L 109.977185 -62.500185 
L 108.421654 -62.450963 
L 106.866122 -62.404506 
L 105.310591 -62.364545 
L 103.755059 -62.330197 
L 102.199528 -62.296652 
L 100.643996 -62.259745 
L 99.088465 -62.219054 
L 97.532933 -62.176508 
L 95.977402 -62.132942 
L 94.42187 -62.087057 
L 92.866339 -62.037773 
L 91.310807 -61.986807 
L 89.755276 -61.938323 
L 88.199744 -61.896026 
L 86.644213 -61.860578 
L 85.088681 -61.829477 
L 83.53315 -61.799263 
L 81.977618 -61.768329 
L 80.422087 -61.738262 
L 78.866555 -61.712516 
L 77.311024 -61.693253 
L 75.755492 -61.678916 
L 74.199961 -61.66467 
L 72.644429 -61.645351 
L 71.088898 -61.618484 
L 69.533366 -61.585234 
L 67.977835 -61.549126 
L 66.422303 -61.51405 
L 64.866772 -61.482996 
L 63.31124 -61.457736 
L 61.755709 -61.438796 
L 60.200177 -61.425348 
L 58.644646 -61.4154 
L 57.089114 -61.406658 
L 55.533583 -61.397661 
L 53.978051 -61.388288 
L 52.42252 -61.379313 
L 50.866988 -61.371558 
L 49.311457 -61.365409 
L 47.755925 -61.360855 
L 46.200394 -61.357691 
L 44.644862 -61.355575 
L 43.089331 -61.354017 
L 41.533799 -61.352523 
L 39.978268 -61.350844 
L 38.422736 -61.349079 
L 36.867205 -61.347516 
L 35.311673 -61.346376 
L 33.756141 -61.345691 
L 32.20061 -61.345349 
L 30.645078 -61.345208 
z
" style="stroke: #0173b2; stroke-width: 2"/>
    </defs>
    <g clip-path="url(#pd4e9de7eff)">
     <use xlink:href="#m74f4269aa7" x="0" y="360" style="fill: #0173b2; fill-opacity: 0.2; stroke: #0173b2; stroke-width: 2"/>
    </g>
   </g>
   <g id="matplotlib.axis_1">
    <g id="xtick_1">
     <g id="line2d_1">
      <defs>
       <path id="mc122b9e153" d="M 0 0 
L 0 3.5 
" style="stroke: #000000; stroke-width: 0.8"/>
      </defs>
      <g>
       <use xlink:href="#mc122b9e153" x="101.904361" y="298.65486" style="stroke: #000000; stroke-width: 0.8"/>
      </g>
     </g>
     <g id="text_1">
      <!-- 20000 -->
      <g transform="translate(92.608117 333.522602) rotate(-45) scale(0.1 -0.1)">
       <defs>
        <path id="DejaVuSerif-32" d="M 819 3553 
L 469 3553 
L 469 4384 
Q 803 4563 1142 4656 
Q 1481 4750 1806 4750 
Q 2534 4750 2956 4397 
Q 3378 4044 3378 3438 
Q 3378 2753 2422 1800 
Q 2347 1728 2309 1691 
L 1131 513 
L 3078 513 
L 3078 1088 
L 3444 1088 
L 3444 0 
L 434 0 
L 434 341 
L 1850 1753 
Q 2319 2222 2519 2614 
Q 2719 3006 2719 3438 
Q 2719 3909 2473 4175 
Q 2228 4441 1797 4441 
Q 1350 4441 1106 4219 
Q 863 3997 819 3553 
z
" transform="scale(0.015625)"/>
        <path id="DejaVuSerif-30" d="M 2034 219 
Q 2513 219 2750 744 
Q 2988 1269 2988 2328 
Q 2988 3391 2750 3916 
Q 2513 4441 2034 4441 
Q 1556 4441 1318 3916 
Q 1081 3391 1081 2328 
Q 1081 1269 1318 744 
Q 1556 219 2034 219 
z
M 2034 -91 
Q 1275 -91 848 546 
Q 422 1184 422 2328 
Q 422 3475 848 4112 
Q 1275 4750 2034 4750 
Q 2797 4750 3222 4112 
Q 3647 3475 3647 2328 
Q 3647 1184 3222 546 
Q 2797 -91 2034 -91 
z
" transform="scale(0.015625)"/>
       </defs>
       <use xlink:href="#DejaVuSerif-32"/>
       <use xlink:href="#DejaVuSerif-30" x="63.623047"/>
       <use xlink:href="#DejaVuSerif-30" x="127.246094"/>
       <use xlink:href="#DejaVuSerif-30" x="190.869141"/>
       <use xlink:href="#DejaVuSerif-30" x="254.492188"/>
      </g>
     </g>
    </g>
    <g id="xtick_2">
     <g id="line2d_2">
      <g>
       <use xlink:href="#mc122b9e153" x="160.053083" y="298.65486" style="stroke: #000000; stroke-width: 0.8"/>
      </g>
     </g>
     <g id="text_2">
      <!-- 22000 -->
      <g transform="translate(150.756839 333.522602) rotate(-45) scale(0.1 -0.1)">
       <use xlink:href="#DejaVuSerif-32"/>
       <use xlink:href="#DejaVuSerif-32" x="63.623047"/>
       <use xlink:href="#DejaVuSerif-30" x="127.246094"/>
       <use xlink:href="#DejaVuSerif-30" x="190.869141"/>
       <use xlink:href="#DejaVuSerif-30" x="254.492188"/>
      </g>
     </g>
    </g>
    <g id="xtick_3">
     <g id="line2d_3">
      <g>
       <use xlink:href="#mc122b9e153" x="218.201806" y="298.65486" style="stroke: #000000; stroke-width: 0.8"/>
      </g>
     </g>
     <g id="text_3">
      <!-- 24000 -->
      <g transform="translate(208.905561 333.522602) rotate(-45) scale(0.1 -0.1)">
       <defs>
        <path id="DejaVuSerif-34" d="M 2234 1581 
L 2234 4063 
L 641 1581 
L 2234 1581 
z
M 3609 0 
L 1484 0 
L 1484 331 
L 2234 331 
L 2234 1247 
L 197 1247 
L 197 1588 
L 2241 4750 
L 2859 4750 
L 2859 1581 
L 3750 1581 
L 3750 1247 
L 2859 1247 
L 2859 331 
L 3609 331 
L 3609 0 
z
" transform="scale(0.015625)"/>
       </defs>
       <use xlink:href="#DejaVuSerif-32"/>
       <use xlink:href="#DejaVuSerif-34" x="63.623047"/>
       <use xlink:href="#DejaVuSerif-30" x="127.246094"/>
       <use xlink:href="#DejaVuSerif-30" x="190.869141"/>
       <use xlink:href="#DejaVuSerif-30" x="254.492188"/>
      </g>
     </g>
    </g>
    <g id="xtick_4">
     <g id="line2d_4">
      <g>
       <use xlink:href="#mc122b9e153" x="276.350528" y="298.65486" style="stroke: #000000; stroke-width: 0.8"/>
      </g>
     </g>
     <g id="text_4">
      <!-- 26000 -->
      <g transform="translate(267.054283 333.522602) rotate(-45) scale(0.1 -0.1)">
       <defs>
        <path id="DejaVuSerif-36" d="M 2094 219 
Q 2534 219 2771 542 
Q 3009 866 3009 1472 
Q 3009 2078 2771 2401 
Q 2534 2725 2094 2725 
Q 1647 2725 1412 2412 
Q 1178 2100 1178 1509 
Q 1178 888 1415 553 
Q 1653 219 2094 219 
z
M 1075 2569 
Q 1288 2803 1556 2918 
Q 1825 3034 2163 3034 
Q 2859 3034 3264 2615 
Q 3669 2197 3669 1472 
Q 3669 763 3233 336 
Q 2797 -91 2069 -91 
Q 1278 -91 853 498 
Q 428 1088 428 2181 
Q 428 3406 931 4078 
Q 1434 4750 2350 4750 
Q 2597 4750 2869 4703 
Q 3141 4656 3425 4563 
L 3425 3794 
L 3072 3794 
Q 3034 4109 2831 4275 
Q 2628 4441 2284 4441 
Q 1678 4441 1381 3981 
Q 1084 3522 1075 2569 
z
" transform="scale(0.015625)"/>
       </defs>
       <use xlink:href="#DejaVuSerif-32"/>
       <use xlink:href="#DejaVuSerif-36" x="63.623047"/>
       <use xlink:href="#DejaVuSerif-30" x="127.246094"/>
       <use xlink:href="#DejaVuSerif-30" x="190.869141"/>
       <use xlink:href="#DejaVuSerif-30" x="254.492188"/>
      </g>
     </g>
    </g>
    <g id="xtick_5">
     <g id="line2d_5">
      <g>
       <use xlink:href="#mc122b9e153" x="334.49925" y="298.65486" style="stroke: #000000; stroke-width: 0.8"/>
      </g>
     </g>
     <g id="text_5">
      <!-- 28000 -->
      <g transform="translate(325.203006 333.522602) rotate(-45) scale(0.1 -0.1)">
       <defs>
        <path id="DejaVuSerif-38" d="M 2981 1275 
Q 2981 1775 2732 2051 
Q 2484 2328 2034 2328 
Q 1584 2328 1336 2051 
Q 1088 1775 1088 1275 
Q 1088 772 1336 495 
Q 1584 219 2034 219 
Q 2484 219 2732 495 
Q 2981 772 2981 1275 
z
M 2853 3541 
Q 2853 3966 2637 4203 
Q 2422 4441 2034 4441 
Q 1650 4441 1433 4203 
Q 1216 3966 1216 3541 
Q 1216 3113 1433 2875 
Q 1650 2638 2034 2638 
Q 2422 2638 2637 2875 
Q 2853 3113 2853 3541 
z
M 2516 2484 
Q 3047 2413 3344 2092 
Q 3641 1772 3641 1275 
Q 3641 619 3225 264 
Q 2809 -91 2034 -91 
Q 1263 -91 845 264 
Q 428 619 428 1275 
Q 428 1772 725 2092 
Q 1022 2413 1556 2484 
Q 1084 2569 832 2842 
Q 581 3116 581 3541 
Q 581 4103 968 4426 
Q 1356 4750 2034 4750 
Q 2713 4750 3100 4426 
Q 3488 4103 3488 3541 
Q 3488 3116 3236 2842 
Q 2984 2569 2516 2484 
z
" transform="scale(0.015625)"/>
       </defs>
       <use xlink:href="#DejaVuSerif-32"/>
       <use xlink:href="#DejaVuSerif-38" x="63.623047"/>
       <use xlink:href="#DejaVuSerif-30" x="127.246094"/>
       <use xlink:href="#DejaVuSerif-30" x="190.869141"/>
       <use xlink:href="#DejaVuSerif-30" x="254.492188"/>
      </g>
     </g>
    </g>
    <g id="text_6">
     <!-- Number of zeroes per cell -->
     <g transform="translate(137.534156 346.5916) scale(0.1 -0.1)">
      <defs>
       <path id="DejaVuSerif-4e" d="M 313 0 
L 313 331 
L 941 331 
L 941 4331 
L 313 4331 
L 313 4666 
L 1509 4666 
L 4306 984 
L 4306 4331 
L 3681 4331 
L 3681 4666 
L 5319 4666 
L 5319 4331 
L 4691 4331 
L 4691 -91 
L 4313 -91 
L 1325 3841 
L 1325 331 
L 1953 331 
L 1953 0 
L 313 0 
z
" transform="scale(0.015625)"/>
       <path id="DejaVuSerif-75" d="M 2266 3322 
L 3341 3322 
L 3341 331 
L 3884 331 
L 3884 0 
L 2766 0 
L 2766 588 
Q 2606 256 2353 82 
Q 2100 -91 1766 -91 
Q 1213 -91 952 223 
Q 691 538 691 1209 
L 691 2988 
L 172 2988 
L 172 3322 
L 1269 3322 
L 1269 1388 
Q 1269 781 1417 556 
Q 1566 331 1947 331 
Q 2347 331 2556 625 
Q 2766 919 2766 1478 
L 2766 2988 
L 2266 2988 
L 2266 3322 
z
" transform="scale(0.015625)"/>
       <path id="DejaVuSerif-6d" d="M 3316 2675 
Q 3481 3041 3739 3227 
Q 3997 3413 4341 3413 
Q 4863 3413 5119 3089 
Q 5375 2766 5375 2113 
L 5375 331 
L 5894 331 
L 5894 0 
L 4300 0 
L 4300 331 
L 4800 331 
L 4800 2047 
Q 4800 2556 4650 2772 
Q 4500 2988 4153 2988 
Q 3769 2988 3567 2697 
Q 3366 2406 3366 1850 
L 3366 331 
L 3866 331 
L 3866 0 
L 2291 0 
L 2291 331 
L 2791 331 
L 2791 2069 
Q 2791 2566 2641 2777 
Q 2491 2988 2144 2988 
Q 1759 2988 1557 2697 
Q 1356 2406 1356 1850 
L 1356 331 
L 1856 331 
L 1856 0 
L 263 0 
L 263 331 
L 781 331 
L 781 2994 
L 231 2994 
L 231 3322 
L 1356 3322 
L 1356 2731 
Q 1516 3063 1762 3238 
Q 2009 3413 2322 3413 
Q 2709 3413 2968 3220 
Q 3228 3028 3316 2675 
z
" transform="scale(0.015625)"/>
       <path id="DejaVuSerif-62" d="M 738 331 
L 738 4531 
L 184 4531 
L 184 4863 
L 1313 4863 
L 1313 2803 
Q 1481 3116 1742 3264 
Q 2003 3413 2388 3413 
Q 3000 3413 3387 2928 
Q 3775 2444 3775 1663 
Q 3775 881 3387 395 
Q 3000 -91 2388 -91 
Q 2003 -91 1742 57 
Q 1481 206 1313 519 
L 1313 0 
L 184 0 
L 184 331 
L 738 331 
z
M 1313 1497 
Q 1313 897 1542 583 
Q 1772 269 2209 269 
Q 2650 269 2876 622 
Q 3103 975 3103 1663 
Q 3103 2353 2876 2703 
Q 2650 3053 2209 3053 
Q 1772 3053 1542 2737 
Q 1313 2422 1313 1825 
L 1313 1497 
z
" transform="scale(0.015625)"/>
       <path id="DejaVuSerif-65" d="M 3469 1600 
L 991 1600 
L 991 1575 
Q 991 903 1244 561 
Q 1497 219 1991 219 
Q 2369 219 2611 417 
Q 2853 616 2950 1006 
L 3413 1006 
Q 3275 459 2904 184 
Q 2534 -91 1931 -91 
Q 1203 -91 761 389 
Q 319 869 319 1663 
Q 319 2450 753 2931 
Q 1188 3413 1894 3413 
Q 2647 3413 3050 2948 
Q 3453 2484 3469 1600 
z
M 2791 1931 
Q 2772 2513 2545 2808 
Q 2319 3103 1894 3103 
Q 1497 3103 1269 2806 
Q 1041 2509 991 1931 
L 2791 1931 
z
" transform="scale(0.015625)"/>
       <path id="DejaVuSerif-72" d="M 3059 3328 
L 3059 2497 
L 2728 2497 
Q 2713 2744 2591 2866 
Q 2469 2988 2234 2988 
Q 1809 2988 1582 2694 
Q 1356 2400 1356 1850 
L 1356 331 
L 2022 331 
L 2022 0 
L 263 0 
L 263 331 
L 781 331 
L 781 2994 
L 231 2994 
L 231 3322 
L 1356 3322 
L 1356 2731 
Q 1525 3078 1790 3245 
Q 2056 3413 2438 3413 
Q 2578 3413 2733 3391 
Q 2888 3369 3059 3328 
z
" transform="scale(0.015625)"/>
       <path id="DejaVuSerif-20" transform="scale(0.015625)"/>
       <path id="DejaVuSerif-6f" d="M 1925 219 
Q 2388 219 2623 584 
Q 2859 950 2859 1663 
Q 2859 2375 2623 2739 
Q 2388 3103 1925 3103 
Q 1463 3103 1227 2739 
Q 991 2375 991 1663 
Q 991 950 1228 584 
Q 1466 219 1925 219 
z
M 1925 -91 
Q 1200 -91 759 389 
Q 319 869 319 1663 
Q 319 2456 758 2934 
Q 1197 3413 1925 3413 
Q 2653 3413 3092 2934 
Q 3531 2456 3531 1663 
Q 3531 869 3092 389 
Q 2653 -91 1925 -91 
z
" transform="scale(0.015625)"/>
       <path id="DejaVuSerif-66" d="M 2753 4078 
L 2450 4078 
Q 2447 4313 2317 4434 
Q 2188 4556 1941 4556 
Q 1619 4556 1487 4379 
Q 1356 4203 1356 3750 
L 1356 3322 
L 2284 3322 
L 2284 2988 
L 1356 2988 
L 1356 331 
L 2094 331 
L 2094 0 
L 231 0 
L 231 331 
L 781 331 
L 781 2988 
L 231 2988 
L 231 3322 
L 781 3322 
L 781 3738 
Q 781 4294 1070 4578 
Q 1359 4863 1919 4863 
Q 2128 4863 2337 4825 
Q 2547 4788 2753 4709 
L 2753 4078 
z
" transform="scale(0.015625)"/>
       <path id="DejaVuSerif-7a" d="M 256 0 
L 256 269 
L 2338 2988 
L 691 2988 
L 691 2413 
L 359 2413 
L 359 3322 
L 3078 3322 
L 3078 3053 
L 997 331 
L 2803 331 
L 2803 934 
L 3138 934 
L 3138 0 
L 256 0 
z
" transform="scale(0.015625)"/>
       <path id="DejaVuSerif-73" d="M 359 184 
L 359 959 
L 691 959 
Q 703 588 923 403 
Q 1144 219 1575 219 
Q 1963 219 2166 364 
Q 2369 509 2369 788 
Q 2369 1006 2220 1140 
Q 2072 1275 1594 1428 
L 1178 1569 
Q 750 1706 558 1912 
Q 366 2119 366 2438 
Q 366 2894 700 3153 
Q 1034 3413 1625 3413 
Q 1888 3413 2178 3344 
Q 2469 3275 2778 3144 
L 2778 2419 
L 2447 2419 
Q 2434 2741 2221 2922 
Q 2009 3103 1644 3103 
Q 1281 3103 1095 2975 
Q 909 2847 909 2591 
Q 909 2381 1050 2254 
Q 1191 2128 1613 1997 
L 2069 1856 
Q 2541 1709 2748 1489 
Q 2956 1269 2956 922 
Q 2956 450 2595 179 
Q 2234 -91 1600 -91 
Q 1278 -91 972 -22 
Q 666 47 359 184 
z
" transform="scale(0.015625)"/>
       <path id="DejaVuSerif-70" d="M 1313 1825 
L 1313 1497 
Q 1313 897 1542 583 
Q 1772 269 2209 269 
Q 2650 269 2876 622 
Q 3103 975 3103 1663 
Q 3103 2353 2876 2703 
Q 2650 3053 2209 3053 
Q 1772 3053 1542 2737 
Q 1313 2422 1313 1825 
z
M 738 2988 
L 184 2988 
L 184 3322 
L 1313 3322 
L 1313 2803 
Q 1481 3116 1742 3264 
Q 2003 3413 2388 3413 
Q 3000 3413 3387 2928 
Q 3775 2444 3775 1663 
Q 3775 881 3387 395 
Q 3000 -91 2388 -91 
Q 2003 -91 1742 57 
Q 1481 206 1313 519 
L 1313 -997 
L 1856 -997 
L 1856 -1331 
L 184 -1331 
L 184 -997 
L 738 -997 
L 738 2988 
z
" transform="scale(0.015625)"/>
       <path id="DejaVuSerif-63" d="M 3291 997 
Q 3169 466 2822 187 
Q 2475 -91 1925 -91 
Q 1200 -91 759 389 
Q 319 869 319 1663 
Q 319 2459 759 2936 
Q 1200 3413 1925 3413 
Q 2241 3413 2553 3339 
Q 2866 3266 3181 3116 
L 3181 2266 
L 2847 2266 
Q 2781 2703 2561 2903 
Q 2341 3103 1931 3103 
Q 1466 3103 1228 2742 
Q 991 2381 991 1663 
Q 991 944 1227 581 
Q 1463 219 1931 219 
Q 2303 219 2525 412 
Q 2747 606 2828 997 
L 3291 997 
z
" transform="scale(0.015625)"/>
       <path id="DejaVuSerif-6c" d="M 1313 331 
L 1856 331 
L 1856 0 
L 184 0 
L 184 331 
L 738 331 
L 738 4531 
L 184 4531 
L 184 4863 
L 1313 4863 
L 1313 331 
z
" transform="scale(0.015625)"/>
      </defs>
      <use xlink:href="#DejaVuSerif-4e"/>
      <use xlink:href="#DejaVuSerif-75" x="87.5"/>
      <use xlink:href="#DejaVuSerif-6d" x="151.904297"/>
      <use xlink:href="#DejaVuSerif-62" x="246.728516"/>
      <use xlink:href="#DejaVuSerif-65" x="310.742188"/>
      <use xlink:href="#DejaVuSerif-72" x="369.921875"/>
      <use xlink:href="#DejaVuSerif-20" x="417.724609"/>
      <use xlink:href="#DejaVuSerif-6f" x="449.511719"/>
      <use xlink:href="#DejaVuSerif-66" x="509.716797"/>
      <use xlink:href="#DejaVuSerif-20" x="546.728516"/>
      <use xlink:href="#DejaVuSerif-7a" x="578.515625"/>
      <use xlink:href="#DejaVuSerif-65" x="631.201172"/>
      <use xlink:href="#DejaVuSerif-72" x="690.380859"/>
      <use xlink:href="#DejaVuSerif-6f" x="738.183594"/>
      <use xlink:href="#DejaVuSerif-65" x="798.388672"/>
      <use xlink:href="#DejaVuSerif-73" x="857.568359"/>
      <use xlink:href="#DejaVuSerif-20" x="908.886719"/>
      <use xlink:href="#DejaVuSerif-70" x="940.673828"/>
      <use xlink:href="#DejaVuSerif-65" x="1004.6875"/>
      <use xlink:href="#DejaVuSerif-72" x="1063.867188"/>
      <use xlink:href="#DejaVuSerif-20" x="1111.669922"/>
      <use xlink:href="#DejaVuSerif-63" x="1143.457031"/>
      <use xlink:href="#DejaVuSerif-65" x="1199.462891"/>
      <use xlink:href="#DejaVuSerif-6c" x="1258.642578"/>
      <use xlink:href="#DejaVuSerif-6c" x="1290.625"/>
     </g>
    </g>
   </g>
   <g id="matplotlib.axis_2">
    <g id="ytick_1">
     <g id="line2d_6">
      <defs>
       <path id="m45c59aeae1" d="M 0 0 
L -3.5 0 
" style="stroke: #000000; stroke-width: 0.8"/>
      </defs>
      <g>
       <use xlink:href="#m45c59aeae1" x="72.83" y="298.65486" style="stroke: #000000; stroke-width: 0.8"/>
      </g>
     </g>
     <g id="text_7">
      <!-- 0.00000 -->
      <g transform="translate(24.476875 302.454079) scale(0.1 -0.1)">
       <defs>
        <path id="DejaVuSerif-2e" d="M 603 325 
Q 603 500 722 622 
Q 841 744 1019 744 
Q 1191 744 1312 622 
Q 1434 500 1434 325 
Q 1434 153 1312 31 
Q 1191 -91 1019 -91 
Q 841 -91 722 29 
Q 603 150 603 325 
z
" transform="scale(0.015625)"/>
       </defs>
       <use xlink:href="#DejaVuSerif-30"/>
       <use xlink:href="#DejaVuSerif-2e" x="63.623047"/>
       <use xlink:href="#DejaVuSerif-30" x="95.410156"/>
       <use xlink:href="#DejaVuSerif-30" x="159.033203"/>
       <use xlink:href="#DejaVuSerif-30" x="222.65625"/>
       <use xlink:href="#DejaVuSerif-30" x="286.279297"/>
       <use xlink:href="#DejaVuSerif-30" x="349.902344"/>
      </g>
     </g>
    </g>
    <g id="ytick_2">
     <g id="line2d_7">
      <g>
       <use xlink:href="#m45c59aeae1" x="72.83" y="249.680126" style="stroke: #000000; stroke-width: 0.8"/>
      </g>
     </g>
     <g id="text_8">
      <!-- 0.00005 -->
      <g transform="translate(24.476875 253.479345) scale(0.1 -0.1)">
       <defs>
        <path id="DejaVuSerif-35" d="M 3219 4666 
L 3219 4153 
L 1081 4153 
L 1081 2816 
Q 1244 2928 1461 2984 
Q 1678 3041 1947 3041 
Q 2703 3041 3140 2622 
Q 3578 2203 3578 1478 
Q 3578 738 3136 323 
Q 2694 -91 1894 -91 
Q 1572 -91 1234 -12 
Q 897 66 544 225 
L 544 1131 
L 897 1131 
Q 925 688 1179 453 
Q 1434 219 1894 219 
Q 2388 219 2653 544 
Q 2919 869 2919 1478 
Q 2919 2084 2655 2407 
Q 2391 2731 1894 2731 
Q 1613 2731 1398 2631 
Q 1184 2531 1019 2322 
L 750 2322 
L 750 4666 
L 3219 4666 
z
" transform="scale(0.015625)"/>
       </defs>
       <use xlink:href="#DejaVuSerif-30"/>
       <use xlink:href="#DejaVuSerif-2e" x="63.623047"/>
       <use xlink:href="#DejaVuSerif-30" x="95.410156"/>
       <use xlink:href="#DejaVuSerif-30" x="159.033203"/>
       <use xlink:href="#DejaVuSerif-30" x="222.65625"/>
       <use xlink:href="#DejaVuSerif-30" x="286.279297"/>
       <use xlink:href="#DejaVuSerif-35" x="349.902344"/>
      </g>
     </g>
    </g>
    <g id="ytick_3">
     <g id="line2d_8">
      <g>
       <use xlink:href="#m45c59aeae1" x="72.83" y="200.705391" style="stroke: #000000; stroke-width: 0.8"/>
      </g>
     </g>
     <g id="text_9">
      <!-- 0.00010 -->
      <g transform="translate(24.476875 204.50461) scale(0.1 -0.1)">
       <defs>
        <path id="DejaVuSerif-31" d="M 909 0 
L 909 331 
L 1722 331 
L 1722 4213 
L 781 3603 
L 781 4013 
L 1919 4750 
L 2350 4750 
L 2350 331 
L 3163 331 
L 3163 0 
L 909 0 
z
" transform="scale(0.015625)"/>
       </defs>
       <use xlink:href="#DejaVuSerif-30"/>
       <use xlink:href="#DejaVuSerif-2e" x="63.623047"/>
       <use xlink:href="#DejaVuSerif-30" x="95.410156"/>
       <use xlink:href="#DejaVuSerif-30" x="159.033203"/>
       <use xlink:href="#DejaVuSerif-30" x="222.65625"/>
       <use xlink:href="#DejaVuSerif-31" x="286.279297"/>
       <use xlink:href="#DejaVuSerif-30" x="349.902344"/>
      </g>
     </g>
    </g>
    <g id="ytick_4">
     <g id="line2d_9">
      <g>
       <use xlink:href="#m45c59aeae1" x="72.83" y="151.730657" style="stroke: #000000; stroke-width: 0.8"/>
      </g>
     </g>
     <g id="text_10">
      <!-- 0.00015 -->
      <g transform="translate(24.476875 155.529876) scale(0.1 -0.1)">
       <use xlink:href="#DejaVuSerif-30"/>
       <use xlink:href="#DejaVuSerif-2e" x="63.623047"/>
       <use xlink:href="#DejaVuSerif-30" x="95.410156"/>
       <use xlink:href="#DejaVuSerif-30" x="159.033203"/>
       <use xlink:href="#DejaVuSerif-30" x="222.65625"/>
       <use xlink:href="#DejaVuSerif-31" x="286.279297"/>
       <use xlink:href="#DejaVuSerif-35" x="349.902344"/>
      </g>
     </g>
    </g>
    <g id="ytick_5">
     <g id="line2d_10">
      <g>
       <use xlink:href="#m45c59aeae1" x="72.83" y="102.755922" style="stroke: #000000; stroke-width: 0.8"/>
      </g>
     </g>
     <g id="text_11">
      <!-- 0.00020 -->
      <g transform="translate(24.476875 106.555141) scale(0.1 -0.1)">
       <use xlink:href="#DejaVuSerif-30"/>
       <use xlink:href="#DejaVuSerif-2e" x="63.623047"/>
       <use xlink:href="#DejaVuSerif-30" x="95.410156"/>
       <use xlink:href="#DejaVuSerif-30" x="159.033203"/>
       <use xlink:href="#DejaVuSerif-30" x="222.65625"/>
       <use xlink:href="#DejaVuSerif-32" x="286.279297"/>
       <use xlink:href="#DejaVuSerif-30" x="349.902344"/>
      </g>
     </g>
    </g>
    <g id="ytick_6">
     <g id="line2d_11">
      <g>
       <use xlink:href="#m45c59aeae1" x="72.83" y="53.781188" style="stroke: #000000; stroke-width: 0.8"/>
      </g>
     </g>
     <g id="text_12">
      <!-- 0.00025 -->
      <g transform="translate(24.476875 57.580406) scale(0.1 -0.1)">
       <use xlink:href="#DejaVuSerif-30"/>
       <use xlink:href="#DejaVuSerif-2e" x="63.623047"/>
       <use xlink:href="#DejaVuSerif-30" x="95.410156"/>
       <use xlink:href="#DejaVuSerif-30" x="159.033203"/>
       <use xlink:href="#DejaVuSerif-30" x="222.65625"/>
       <use xlink:href="#DejaVuSerif-32" x="286.279297"/>
       <use xlink:href="#DejaVuSerif-35" x="349.902344"/>
      </g>
     </g>
    </g>
    <g id="text_13">
     <!-- Frequency -->
     <g transform="translate(18.255 189.451961) rotate(-90) scale(0.1 -0.1)">
      <defs>
       <path id="DejaVuSerif-46" d="M 353 0 
L 353 331 
L 947 331 
L 947 4331 
L 353 4331 
L 353 4666 
L 4172 4666 
L 4172 3628 
L 3788 3628 
L 3788 4281 
L 1581 4281 
L 1581 2719 
L 3175 2719 
L 3175 3303 
L 3559 3303 
L 3559 1753 
L 3175 1753 
L 3175 2338 
L 1581 2338 
L 1581 331 
L 2328 331 
L 2328 0 
L 353 0 
z
" transform="scale(0.015625)"/>
       <path id="DejaVuSerif-71" d="M 3359 2988 
L 3359 -997 
L 3909 -997 
L 3909 -1331 
L 2241 -1331 
L 2241 -997 
L 2784 -997 
L 2784 519 
Q 2616 206 2355 57 
Q 2094 -91 1709 -91 
Q 1097 -91 708 395 
Q 319 881 319 1663 
Q 319 2444 706 2928 
Q 1094 3413 1709 3413 
Q 2094 3413 2355 3264 
Q 2616 3116 2784 2803 
L 2784 3322 
L 3909 3322 
L 3909 2988 
L 3359 2988 
z
M 2784 1825 
Q 2784 2422 2554 2737 
Q 2325 3053 1888 3053 
Q 1444 3053 1217 2703 
Q 991 2353 991 1663 
Q 991 975 1217 622 
Q 1444 269 1888 269 
Q 2325 269 2554 583 
Q 2784 897 2784 1497 
L 2784 1825 
z
" transform="scale(0.015625)"/>
       <path id="DejaVuSerif-6e" d="M 263 0 
L 263 331 
L 781 331 
L 781 2988 
L 231 2988 
L 231 3322 
L 1356 3322 
L 1356 2731 
Q 1516 3069 1770 3241 
Q 2025 3413 2363 3413 
Q 2913 3413 3172 3097 
Q 3431 2781 3431 2113 
L 3431 331 
L 3944 331 
L 3944 0 
L 2356 0 
L 2356 331 
L 2853 331 
L 2853 1931 
Q 2853 2541 2703 2767 
Q 2553 2994 2175 2994 
Q 1775 2994 1565 2701 
Q 1356 2409 1356 1850 
L 1356 331 
L 1856 331 
L 1856 0 
L 263 0 
z
" transform="scale(0.015625)"/>
       <path id="DejaVuSerif-79" d="M 1381 -609 
L 1600 -56 
L 359 2988 
L -19 2988 
L -19 3322 
L 1509 3322 
L 1509 2988 
L 978 2988 
L 1913 703 
L 2847 2988 
L 2350 2988 
L 2350 3322 
L 3597 3322 
L 3597 2988 
L 3225 2988 
L 1703 -750 
Q 1547 -1138 1356 -1280 
Q 1166 -1422 819 -1422 
Q 672 -1422 517 -1397 
Q 363 -1372 206 -1325 
L 206 -691 
L 500 -691 
Q 519 -903 608 -995 
Q 697 -1088 884 -1088 
Q 1056 -1088 1161 -992 
Q 1266 -897 1381 -609 
z
" transform="scale(0.015625)"/>
      </defs>
      <use xlink:href="#DejaVuSerif-46"/>
      <use xlink:href="#DejaVuSerif-72" x="69.384766"/>
      <use xlink:href="#DejaVuSerif-65" x="117.1875"/>
      <use xlink:href="#DejaVuSerif-71" x="176.367188"/>
      <use xlink:href="#DejaVuSerif-75" x="240.380859"/>
      <use xlink:href="#DejaVuSerif-65" x="304.785156"/>
      <use xlink:href="#DejaVuSerif-6e" x="363.964844"/>
      <use xlink:href="#DejaVuSerif-63" x="428.369141"/>
      <use xlink:href="#DejaVuSerif-79" x="484.375"/>
     </g>
    </g>
   </g>
   <g id="patch_3">
    <path d="M 72.83 298.65486 
L 72.83 26.16 
" style="fill: none; stroke: #000000; stroke-width: 0.8; stroke-linejoin: miter; stroke-linecap: square"/>
   </g>
   <g id="patch_4">
    <path d="M 334.49925 298.65486 
L 334.49925 26.16 
" style="fill: none; stroke: #000000; stroke-width: 0.8; stroke-linejoin: miter; stroke-linecap: square"/>
   </g>
   <g id="patch_5">
    <path d="M 72.83 298.65486 
L 334.49925 298.65486 
" style="fill: none; stroke: #000000; stroke-width: 0.8; stroke-linejoin: miter; stroke-linecap: square"/>
   </g>
   <g id="patch_6">
    <path d="M 72.83 26.16 
L 334.49925 26.16 
" style="fill: none; stroke: #000000; stroke-width: 0.8; stroke-linejoin: miter; stroke-linecap: square"/>
   </g>
   <g id="text_14">
    <!-- HLCA -->
    <g transform="translate(185.524 20.16) scale(0.12 -0.12)">
     <defs>
      <path id="DejaVuSerif-48" d="M 353 0 
L 353 331 
L 947 331 
L 947 4331 
L 353 4331 
L 353 4666 
L 2175 4666 
L 2175 4331 
L 1581 4331 
L 1581 2719 
L 4000 2719 
L 4000 4331 
L 3406 4331 
L 3406 4666 
L 5228 4666 
L 5228 4331 
L 4634 4331 
L 4634 331 
L 5228 331 
L 5228 0 
L 3406 0 
L 3406 331 
L 4000 331 
L 4000 2338 
L 1581 2338 
L 1581 331 
L 2175 331 
L 2175 0 
L 353 0 
z
" transform="scale(0.015625)"/>
      <path id="DejaVuSerif-4c" d="M 353 0 
L 353 331 
L 947 331 
L 947 4331 
L 353 4331 
L 353 4666 
L 2175 4666 
L 2175 4331 
L 1581 4331 
L 1581 384 
L 3713 384 
L 3713 1166 
L 4097 1166 
L 4097 0 
L 353 0 
z
" transform="scale(0.015625)"/>
      <path id="DejaVuSerif-43" d="M 4513 1234 
Q 4306 581 3820 245 
Q 3334 -91 2591 -91 
Q 2134 -91 1743 65 
Q 1353 222 1050 525 
Q 700 875 529 1320 
Q 359 1766 359 2328 
Q 359 3416 987 4083 
Q 1616 4750 2644 4750 
Q 3025 4750 3456 4650 
Q 3888 4550 4384 4347 
L 4384 3272 
L 4031 3272 
Q 3916 3859 3567 4137 
Q 3219 4416 2591 4416 
Q 1844 4416 1459 3886 
Q 1075 3356 1075 2328 
Q 1075 1303 1459 773 
Q 1844 244 2591 244 
Q 3113 244 3450 492 
Q 3788 741 3938 1234 
L 4513 1234 
z
" transform="scale(0.015625)"/>
      <path id="DejaVuSerif-41" d="M 1281 1691 
L 2994 1691 
L 2138 3909 
L 1281 1691 
z
M -38 0 
L -38 331 
L 372 331 
L 2034 4666 
L 2559 4666 
L 4225 331 
L 4684 331 
L 4684 0 
L 2988 0 
L 2988 331 
L 3506 331 
L 3116 1356 
L 1153 1356 
L 763 331 
L 1275 331 
L 1275 0 
L -38 0 
z
" transform="scale(0.015625)"/>
     </defs>
     <use xlink:href="#DejaVuSerif-48"/>
     <use xlink:href="#DejaVuSerif-4c" x="87.207031"/>
     <use xlink:href="#DejaVuSerif-43" x="153.613281"/>
     <use xlink:href="#DejaVuSerif-41" x="230.126953"/>
    </g>
   </g>
  </g>
 </g>
 <defs>
  <clipPath id="pd4e9de7eff">
   <rect x="72.83" y="26.16" width="261.66925" height="272.49486"/>
  </clipPath>
 </defs>
</svg>
