<?xml version="1.0" encoding="utf-8" standalone="no"?>
<!DOCTYPE svg PUBLIC "-//W3C//DTD SVG 1.1//EN"
  "http://www.w3.org/Graphics/SVG/1.1/DTD/svg11.dtd">
<svg xmlns:xlink="http://www.w3.org/1999/xlink" width="360pt" height="360pt" viewBox="0 0 360 360" xmlns="http://www.w3.org/2000/svg" version="1.1">
 <metadata>
  <rdf:RDF xmlns:dc="http://purl.org/dc/elements/1.1/" xmlns:cc="http://creativecommons.org/ns#" xmlns:rdf="http://www.w3.org/1999/02/22-rdf-syntax-ns#">
   <cc:Work>
    <dc:type rdf:resource="http://purl.org/dc/dcmitype/StillImage"/>
    <dc:date>2024-11-19T12:38:42.140909</dc:date>
    <dc:format>image/svg+xml</dc:format>
    <dc:creator>
     <cc:Agent>
      <dc:title>Matplotlib v3.8.1, https://matplotlib.org/</dc:title>
     </cc:Agent>
    </dc:creator>
   </cc:Work>
  </rdf:RDF>
 </metadata>
 <defs>
  <style type="text/css">*{stroke-linejoin: round; stroke-linecap: butt}</style>
 </defs>
 <g id="figure_1">
  <g id="patch_1">
   <path d="M 0 360 
L 360 360 
L 360 0 
L 0 0 
z
" style="fill: #ffffff"/>
  </g>
  <g id="axes_1">
   <g id="patch_2">
    <path d="M 72.92 298.65486 
L 334.49925 298.65486 
L 334.49925 26.16 
L 72.92 26.16 
z
" style="fill: #ffffff"/>
   </g>
   <g id="PolyCollection_1">
    <defs>
     <path id="m484c53503d" d="M -16.585837 -61.345293 
L -16.585837 -61.34514 
L -14.777253 -61.34514 
L -12.968668 -61.34514 
L -11.160084 -61.34514 
L -9.3515 -61.34514 
L -7.542916 -61.34514 
L -5.734332 -61.34514 
L -3.925747 -61.34514 
L -2.117163 -61.34514 
L -0.308579 -61.34514 
L 1.500005 -61.34514 
L 3.308589 -61.34514 
L 5.117174 -61.34514 
L 6.925758 -61.34514 
L 8.734342 -61.34514 
L 10.542926 -61.34514 
L 12.35151 -61.34514 
L 14.160095 -61.34514 
L 15.968679 -61.34514 
L 17.777263 -61.34514 
L 19.585847 -61.34514 
L 21.394432 -61.34514 
L 23.203016 -61.34514 
L 25.0116 -61.34514 
L 26.820184 -61.34514 
L 28.628768 -61.34514 
L 30.437353 -61.34514 
L 32.245937 -61.34514 
L 34.054521 -61.34514 
L 35.863105 -61.34514 
L 37.671689 -61.34514 
L 39.480274 -61.34514 
L 41.288858 -61.34514 
L 43.097442 -61.34514 
L 44.906026 -61.34514 
L 46.71461 -61.34514 
L 48.523195 -61.34514 
L 50.331779 -61.34514 
L 52.140363 -61.34514 
L 53.948947 -61.34514 
L 55.757531 -61.34514 
L 57.566116 -61.34514 
L 59.3747 -61.34514 
L 61.183284 -61.34514 
L 62.991868 -61.34514 
L 64.800452 -61.34514 
L 66.609037 -61.34514 
L 68.417621 -61.34514 
L 70.226205 -61.34514 
L 72.034789 -61.34514 
L 73.843374 -61.34514 
L 75.651958 -61.34514 
L 77.460542 -61.34514 
L 79.269126 -61.34514 
L 81.07771 -61.34514 
L 82.886295 -61.34514 
L 84.694879 -61.34514 
L 86.503463 -61.34514 
L 88.312047 -61.34514 
L 90.120631 -61.34514 
L 91.929216 -61.34514 
L 93.7378 -61.34514 
L 95.546384 -61.34514 
L 97.354968 -61.34514 
L 99.163552 -61.34514 
L 100.972137 -61.34514 
L 102.780721 -61.34514 
L 104.589305 -61.34514 
L 106.397889 -61.34514 
L 108.206473 -61.34514 
L 110.015058 -61.34514 
L 111.823642 -61.34514 
L 113.632226 -61.34514 
L 115.44081 -61.34514 
L 117.249394 -61.34514 
L 119.057979 -61.34514 
L 120.866563 -61.34514 
L 122.675147 -61.34514 
L 124.483731 -61.34514 
L 126.292316 -61.34514 
L 128.1009 -61.34514 
L 129.909484 -61.34514 
L 131.718068 -61.34514 
L 133.526652 -61.34514 
L 135.335237 -61.34514 
L 137.143821 -61.34514 
L 138.952405 -61.34514 
L 140.760989 -61.34514 
L 142.569573 -61.34514 
L 144.378158 -61.34514 
L 146.186742 -61.34514 
L 147.995326 -61.34514 
L 149.80391 -61.34514 
L 151.612494 -61.34514 
L 153.421079 -61.34514 
L 155.229663 -61.34514 
L 157.038247 -61.34514 
L 158.846831 -61.34514 
L 160.655415 -61.34514 
L 162.464 -61.34514 
L 164.272584 -61.34514 
L 166.081168 -61.34514 
L 167.889752 -61.34514 
L 169.698337 -61.34514 
L 171.506921 -61.34514 
L 173.315505 -61.34514 
L 175.124089 -61.34514 
L 176.932673 -61.34514 
L 178.741258 -61.34514 
L 180.549842 -61.34514 
L 182.358426 -61.34514 
L 184.16701 -61.34514 
L 185.975594 -61.34514 
L 187.784179 -61.34514 
L 189.592763 -61.34514 
L 191.401347 -61.34514 
L 193.209931 -61.34514 
L 195.018515 -61.34514 
L 196.8271 -61.34514 
L 198.635684 -61.34514 
L 200.444268 -61.34514 
L 202.252852 -61.34514 
L 204.061436 -61.34514 
L 205.870021 -61.34514 
L 207.678605 -61.34514 
L 209.487189 -61.34514 
L 211.295773 -61.34514 
L 213.104357 -61.34514 
L 214.912942 -61.34514 
L 216.721526 -61.34514 
L 218.53011 -61.34514 
L 220.338694 -61.34514 
L 222.147279 -61.34514 
L 223.955863 -61.34514 
L 225.764447 -61.34514 
L 227.573031 -61.34514 
L 229.381615 -61.34514 
L 231.1902 -61.34514 
L 232.998784 -61.34514 
L 234.807368 -61.34514 
L 236.615952 -61.34514 
L 238.424536 -61.34514 
L 240.233121 -61.34514 
L 242.041705 -61.34514 
L 243.850289 -61.34514 
L 245.658873 -61.34514 
L 247.467457 -61.34514 
L 249.276042 -61.34514 
L 251.084626 -61.34514 
L 252.89321 -61.34514 
L 254.701794 -61.34514 
L 256.510378 -61.34514 
L 258.318963 -61.34514 
L 260.127547 -61.34514 
L 261.936131 -61.34514 
L 263.744715 -61.34514 
L 265.553299 -61.34514 
L 267.361884 -61.34514 
L 269.170468 -61.34514 
L 270.979052 -61.34514 
L 272.787636 -61.34514 
L 274.596221 -61.34514 
L 276.404805 -61.34514 
L 278.213389 -61.34514 
L 280.021973 -61.34514 
L 281.830557 -61.34514 
L 283.639142 -61.34514 
L 285.447726 -61.34514 
L 287.25631 -61.34514 
L 289.064894 -61.34514 
L 290.873478 -61.34514 
L 292.682063 -61.34514 
L 294.490647 -61.34514 
L 296.299231 -61.34514 
L 298.107815 -61.34514 
L 299.916399 -61.34514 
L 301.724984 -61.34514 
L 303.533568 -61.34514 
L 305.342152 -61.34514 
L 307.150736 -61.34514 
L 308.95932 -61.34514 
L 310.767905 -61.34514 
L 312.576489 -61.34514 
L 314.385073 -61.34514 
L 316.193657 -61.34514 
L 318.002242 -61.34514 
L 319.810826 -61.34514 
L 321.61941 -61.34514 
L 323.427994 -61.34514 
L 325.236578 -61.34514 
L 327.045163 -61.34514 
L 328.853747 -61.34514 
L 330.662331 -61.34514 
L 332.470915 -61.34514 
L 334.279499 -61.34514 
L 336.088084 -61.34514 
L 337.896668 -61.34514 
L 339.705252 -61.34514 
L 341.513836 -61.34514 
L 343.32242 -61.34514 
L 343.32242 -61.349988 
L 343.32242 -61.349988 
L 341.513836 -61.369143 
L 339.705252 -61.446747 
L 337.896668 -61.715418 
L 336.088084 -62.515082 
L 334.279499 -64.572554 
L 332.470915 -69.168082 
L 330.662331 -78.102223 
L 328.853747 -93.240388 
L 327.045163 -115.618142 
L 325.236578 -144.52673 
L 323.427994 -177.276071 
L 321.61941 -210.000671 
L 319.810826 -239.090768 
L 318.002242 -262.358014 
L 316.193657 -279.33724 
L 314.385073 -290.801637 
L 312.576489 -297.976491 
L 310.767905 -301.893298 
L 308.95932 -303.107336 
L 307.150736 -301.820041 
L 305.342152 -298.242509 
L 303.533568 -292.850738 
L 301.724984 -286.296378 
L 299.916399 -279.123155 
L 298.107815 -271.62177 
L 296.299231 -263.92804 
L 294.490647 -256.196387 
L 292.682063 -248.678566 
L 290.873478 -241.68062 
L 289.064894 -235.444768 
L 287.25631 -230.0155 
L 285.447726 -225.176833 
L 283.639142 -220.539317 
L 281.830557 -215.74722 
L 280.021973 -210.660458 
L 278.213389 -205.382933 
L 276.404805 -200.146557 
L 274.596221 -195.169772 
L 272.787636 -190.587831 
L 270.979052 -186.454564 
L 269.170468 -182.766478 
L 267.361884 -179.480933 
L 265.553299 -176.520263 
L 263.744715 -173.764203 
L 261.936131 -171.061046 
L 260.127547 -168.281838 
L 258.318963 -165.374975 
L 256.510378 -162.357231 
L 254.701794 -159.256565 
L 252.89321 -156.082919 
L 251.084626 -152.852695 
L 249.276042 -149.614288 
L 247.467457 -146.432766 
L 245.658873 -143.361917 
L 243.850289 -140.441927 
L 242.041705 -137.703738 
L 240.233121 -135.148335 
L 238.424536 -132.723476 
L 236.615952 -130.340474 
L 234.807368 -127.923171 
L 232.998784 -125.440371 
L 231.1902 -122.896047 
L 229.381615 -120.30148 
L 227.573031 -117.669206 
L 225.764447 -115.033756 
L 223.955863 -112.464845 
L 222.147279 -110.046969 
L 220.338694 -107.839008 
L 218.53011 -105.846696 
L 216.721526 -104.027636 
L 214.912942 -102.321758 
L 213.104357 -100.680634 
L 211.295773 -99.076024 
L 209.487189 -97.492789 
L 207.678605 -95.921753 
L 205.870021 -94.358245 
L 204.061436 -92.802803 
L 202.252852 -91.261317 
L 200.444268 -89.745696 
L 198.635684 -88.274313 
L 196.8271 -86.866415 
L 195.018515 -85.531126 
L 193.209931 -84.266766 
L 191.401347 -83.079741 
L 189.592763 -82.0003 
L 187.784179 -81.063713 
L 185.975594 -80.267144 
L 184.16701 -79.5516 
L 182.358426 -78.835295 
L 180.549842 -78.06874 
L 178.741258 -77.263142 
L 176.932673 -76.472689 
L 175.124089 -75.750513 
L 173.315505 -75.115665 
L 171.506921 -74.550991 
L 169.698337 -74.020338 
L 167.889752 -73.487521 
L 166.081168 -72.932385 
L 164.272584 -72.358845 
L 162.464 -71.78638 
L 160.655415 -71.231719 
L 158.846831 -70.701192 
L 157.038247 -70.201426 
L 155.229663 -69.750255 
L 153.421079 -69.365881 
L 151.612494 -69.042893 
L 149.80391 -68.749872 
L 147.995326 -68.458979 
L 146.186742 -68.170674 
L 144.378158 -67.900526 
L 142.569573 -67.648685 
L 140.760989 -67.394152 
L 138.952405 -67.116608 
L 137.143821 -66.814175 
L 135.335237 -66.50126 
L 133.526652 -66.198305 
L 131.718068 -65.924407 
L 129.909484 -65.691877 
L 128.1009 -65.503096 
L 126.292316 -65.352601 
L 124.483731 -65.229955 
L 122.675147 -65.117033 
L 120.866563 -64.985754 
L 119.057979 -64.808737 
L 117.249394 -64.579835 
L 115.44081 -64.323821 
L 113.632226 -64.081968 
L 111.823642 -63.885048 
L 110.015058 -63.736947 
L 108.206473 -63.619497 
L 106.397889 -63.508861 
L 104.589305 -63.387503 
L 102.780721 -63.247891 
L 100.972137 -63.094257 
L 99.163552 -62.941801 
L 97.354968 -62.806695 
L 95.546384 -62.692877 
L 93.7378 -62.59164 
L 91.929216 -62.495688 
L 90.120631 -62.410232 
L 88.312047 -62.347669 
L 86.503463 -62.31282 
L 84.694879 -62.296061 
L 82.886295 -62.280773 
L 81.07771 -62.254675 
L 79.269126 -62.213265 
L 77.460542 -62.156521 
L 75.651958 -62.08666 
L 73.843374 -62.008913 
L 72.034789 -61.931681 
L 70.226205 -61.864003 
L 68.417621 -61.811488 
L 66.609037 -61.773144 
L 64.800452 -61.741557 
L 62.991868 -61.707283 
L 61.183284 -61.664945 
L 59.3747 -61.616421 
L 57.566116 -61.568617 
L 55.757531 -61.528078 
L 53.948947 -61.497151 
L 52.140363 -61.474184 
L 50.331779 -61.456554 
L 48.523195 -61.443436 
L 46.71461 -61.435667 
L 44.906026 -61.433038 
L 43.097442 -61.43248 
L 41.288858 -61.429746 
L 39.480274 -61.422713 
L 37.671689 -61.412623 
L 35.863105 -61.402329 
L 34.054521 -61.393746 
L 32.245937 -61.386698 
L 30.437353 -61.379725 
L 28.628768 -61.371813 
L 26.820184 -61.363459 
L 25.0116 -61.356241 
L 23.203016 -61.351625 
L 21.394432 -61.350234 
L 19.585847 -61.35186 
L 17.777263 -61.355661 
L 15.968679 -61.360291 
L 14.160095 -61.36427 
L 12.35151 -61.366531 
L 10.542926 -61.366628 
L 8.734342 -61.364572 
L 6.925758 -61.360844 
L 5.117174 -61.35661 
L 3.308589 -61.353492 
L 1.500005 -61.352742 
L -0.308579 -61.35441 
L -2.117163 -61.357154 
L -3.925747 -61.358947 
L -5.734332 -61.358376 
L -7.542916 -61.355559 
L -9.3515 -61.351851 
L -11.160084 -61.348673 
L -12.968668 -61.34666 
L -14.777253 -61.345674 
L -16.585837 -61.345293 
z
" style="stroke: #029e73; stroke-width: 2"/>
    </defs>
    <g clip-path="url(#pc9e54d9338)">
     <use xlink:href="#m484c53503d" x="0" y="360" style="fill: #029e73; fill-opacity: 0.2; stroke: #029e73; stroke-width: 2"/>
    </g>
   </g>
   <g id="PolyCollection_2">
    <path d="M -63.145774 298.654702 
L -63.145774 298.65486 
L -61.094609 298.65486 
L -59.043444 298.65486 
L -56.992279 298.65486 
L -54.941114 298.65486 
L -52.889949 298.65486 
L -50.838784 298.65486 
L -48.787619 298.65486 
L -46.736454 298.65486 
L -44.685289 298.65486 
L -42.634125 298.65486 
L -40.58296 298.65486 
L -38.531795 298.65486 
L -36.48063 298.65486 
L -34.429465 298.65486 
L -32.3783 298.65486 
L -30.327135 298.65486 
L -28.27597 298.65486 
L -26.224805 298.65486 
L -24.17364 298.65486 
L -22.122475 298.65486 
L -20.07131 298.65486 
L -18.020145 298.65486 
L -15.96898 298.65486 
L -13.917815 298.65486 
L -11.86665 298.65486 
L -9.815486 298.65486 
L -7.764321 298.65486 
L -5.713156 298.65486 
L -3.661991 298.65486 
L -1.610826 298.65486 
L 0.440339 298.65486 
L 2.491504 298.65486 
L 4.542669 298.65486 
L 6.593834 298.65486 
L 8.644999 298.65486 
L 10.696164 298.65486 
L 12.747329 298.65486 
L 14.798494 298.65486 
L 16.849659 298.65486 
L 18.900824 298.65486 
L 20.951988 298.65486 
L 23.003153 298.65486 
L 25.054318 298.65486 
L 27.105483 298.65486 
L 29.156648 298.65486 
L 31.207813 298.65486 
L 33.258978 298.65486 
L 35.310143 298.65486 
L 37.361308 298.65486 
L 39.412473 298.65486 
L 41.463638 298.65486 
L 43.514803 298.65486 
L 45.565968 298.65486 
L 47.617133 298.65486 
L 49.668298 298.65486 
L 51.719463 298.65486 
L 53.770627 298.65486 
L 55.821792 298.65486 
L 57.872957 298.65486 
L 59.924122 298.65486 
L 61.975287 298.65486 
L 64.026452 298.65486 
L 66.077617 298.65486 
L 68.128782 298.65486 
L 70.179947 298.65486 
L 72.231112 298.65486 
L 74.282277 298.65486 
L 76.333442 298.65486 
L 78.384607 298.65486 
L 80.435772 298.65486 
L 82.486937 298.65486 
L 84.538101 298.65486 
L 86.589266 298.65486 
L 88.640431 298.65486 
L 90.691596 298.65486 
L 92.742761 298.65486 
L 94.793926 298.65486 
L 96.845091 298.65486 
L 98.896256 298.65486 
L 100.947421 298.65486 
L 102.998586 298.65486 
L 105.049751 298.65486 
L 107.100916 298.65486 
L 109.152081 298.65486 
L 111.203246 298.65486 
L 113.254411 298.65486 
L 115.305575 298.65486 
L 117.35674 298.65486 
L 119.407905 298.65486 
L 121.45907 298.65486 
L 123.510235 298.65486 
L 125.5614 298.65486 
L 127.612565 298.65486 
L 129.66373 298.65486 
L 131.714895 298.65486 
L 133.76606 298.65486 
L 135.817225 298.65486 
L 137.86839 298.65486 
L 139.919555 298.65486 
L 141.97072 298.65486 
L 144.021885 298.65486 
L 146.07305 298.65486 
L 148.124214 298.65486 
L 150.175379 298.65486 
L 152.226544 298.65486 
L 154.277709 298.65486 
L 156.328874 298.65486 
L 158.380039 298.65486 
L 160.431204 298.65486 
L 162.482369 298.65486 
L 164.533534 298.65486 
L 166.584699 298.65486 
L 168.635864 298.65486 
L 170.687029 298.65486 
L 172.738194 298.65486 
L 174.789359 298.65486 
L 176.840524 298.65486 
L 178.891688 298.65486 
L 180.942853 298.65486 
L 182.994018 298.65486 
L 185.045183 298.65486 
L 187.096348 298.65486 
L 189.147513 298.65486 
L 191.198678 298.65486 
L 193.249843 298.65486 
L 195.301008 298.65486 
L 197.352173 298.65486 
L 199.403338 298.65486 
L 201.454503 298.65486 
L 203.505668 298.65486 
L 205.556833 298.65486 
L 207.607998 298.65486 
L 209.659163 298.65486 
L 211.710327 298.65486 
L 213.761492 298.65486 
L 215.812657 298.65486 
L 217.863822 298.65486 
L 219.914987 298.65486 
L 221.966152 298.65486 
L 224.017317 298.65486 
L 226.068482 298.65486 
L 228.119647 298.65486 
L 230.170812 298.65486 
L 232.221977 298.65486 
L 234.273142 298.65486 
L 236.324307 298.65486 
L 238.375472 298.65486 
L 240.426637 298.65486 
L 242.477801 298.65486 
L 244.528966 298.65486 
L 246.580131 298.65486 
L 248.631296 298.65486 
L 250.682461 298.65486 
L 252.733626 298.65486 
L 254.784791 298.65486 
L 256.835956 298.65486 
L 258.887121 298.65486 
L 260.938286 298.65486 
L 262.989451 298.65486 
L 265.040616 298.65486 
L 267.091781 298.65486 
L 269.142946 298.65486 
L 271.194111 298.65486 
L 273.245276 298.65486 
L 275.29644 298.65486 
L 277.347605 298.65486 
L 279.39877 298.65486 
L 281.449935 298.65486 
L 283.5011 298.65486 
L 285.552265 298.65486 
L 287.60343 298.65486 
L 289.654595 298.65486 
L 291.70576 298.65486 
L 293.756925 298.65486 
L 295.80809 298.65486 
L 297.859255 298.65486 
L 299.91042 298.65486 
L 301.961585 298.65486 
L 304.01275 298.65486 
L 306.063914 298.65486 
L 308.115079 298.65486 
L 310.166244 298.65486 
L 312.217409 298.65486 
L 314.268574 298.65486 
L 316.319739 298.65486 
L 318.370904 298.65486 
L 320.422069 298.65486 
L 322.473234 298.65486 
L 324.524399 298.65486 
L 326.575564 298.65486 
L 328.626729 298.65486 
L 330.677894 298.65486 
L 332.729059 298.65486 
L 334.780224 298.65486 
L 336.831389 298.65486 
L 338.882553 298.65486 
L 340.933718 298.65486 
L 342.984883 298.65486 
L 345.036048 298.65486 
L 345.036048 298.651702 
L 345.036048 298.651702 
L 342.984883 298.635287 
L 340.933718 298.556471 
L 338.882553 298.249731 
L 336.831389 297.274524 
L 334.780224 294.720033 
L 332.729059 289.148608 
L 330.677894 278.890491 
L 328.626729 262.669977 
L 326.575564 240.225176 
L 324.524399 212.568118 
L 322.473234 181.785566 
L 320.422069 150.496394 
L 318.370904 121.214192 
L 316.319739 95.877648 
L 314.268574 75.622516 
L 312.217409 60.745441 
L 310.166244 50.902852 
L 308.115079 45.492658 
L 306.063914 43.917601 
L 304.01275 45.641032 
L 301.961585 50.191867 
L 299.91042 57.009302 
L 297.859255 65.180998 
L 295.80809 73.634675 
L 293.756925 81.761192 
L 291.70576 89.612507 
L 289.654595 97.437549 
L 287.60343 105.295607 
L 285.552265 113.150755 
L 283.5011 121.040031 
L 281.449935 128.985723 
L 279.39877 136.871778 
L 277.347605 144.516287 
L 275.29644 151.786875 
L 273.245276 158.623133 
L 271.194111 165.089309 
L 269.142946 171.409202 
L 267.091781 177.778693 
L 265.040616 184.132894 
L 262.989451 190.210832 
L 260.938286 195.806841 
L 258.887121 200.868457 
L 256.835956 205.429392 
L 254.784791 209.575915 
L 252.733626 213.466239 
L 250.682461 217.283502 
L 248.631296 221.136587 
L 246.580131 225.036681 
L 244.528966 228.944429 
L 242.477801 232.779821 
L 240.426637 236.410113 
L 238.375472 239.702279 
L 236.324307 242.606445 
L 234.273142 245.17263 
L 232.221977 247.505186 
L 230.170812 249.735334 
L 228.119647 252.015362 
L 226.068482 254.452045 
L 224.017317 256.996447 
L 221.966152 259.449719 
L 219.914987 261.624052 
L 217.863822 263.480633 
L 215.812657 265.124486 
L 213.761492 266.721056 
L 211.710327 268.41213 
L 209.659163 270.244441 
L 207.607998 272.131161 
L 205.556833 273.885931 
L 203.505668 275.338823 
L 201.454503 276.46682 
L 199.403338 277.409275 
L 197.352173 278.322922 
L 195.301008 279.236741 
L 193.249843 280.092823 
L 191.198678 280.892356 
L 189.147513 281.71729 
L 187.096348 282.620929 
L 185.045183 283.562221 
L 182.994018 284.439398 
L 180.942853 285.165043 
L 178.891688 285.740755 
L 176.840524 286.27376 
L 174.789359 286.884017 
L 172.738194 287.575639 
L 170.687029 288.225346 
L 168.635864 288.717426 
L 166.584699 289.071719 
L 164.533534 289.414961 
L 162.482369 289.84477 
L 160.431204 290.364016 
L 158.380039 290.933524 
L 156.328874 291.516209 
L 154.277709 292.051971 
L 152.226544 292.461057 
L 150.175379 292.71965 
L 148.124214 292.897901 
L 146.07305 293.095139 
L 144.021885 293.357443 
L 141.97072 293.662453 
L 139.919555 293.959145 
L 137.86839 294.212101 
L 135.817225 294.416582 
L 133.76606 294.585707 
L 131.714895 294.739377 
L 129.66373 294.904554 
L 127.612565 295.099893 
L 125.5614 295.307524 
L 123.510235 295.483406 
L 121.45907 295.610582 
L 119.407905 295.722724 
L 117.35674 295.859217 
L 115.305575 296.012651 
L 113.254411 296.143436 
L 111.203246 296.239401 
L 109.152081 296.333722 
L 107.100916 296.459826 
L 105.049751 296.608633 
L 102.998586 296.740219 
L 100.947421 296.830794 
L 98.896256 296.897194 
L 96.845091 296.972735 
L 94.793926 297.071839 
L 92.742761 297.185723 
L 90.691596 297.297739 
L 88.640431 297.390935 
L 86.589266 297.453249 
L 84.538101 297.48902 
L 82.486937 297.51765 
L 80.435772 297.551264 
L 78.384607 297.581765 
L 76.333442 297.5991 
L 74.282277 297.613336 
L 72.231112 297.64679 
L 70.179947 297.709817 
L 68.128782 297.792801 
L 66.077617 297.877283 
L 64.026452 297.950165 
L 61.975287 298.009235 
L 59.924122 298.057773 
L 57.872957 298.097771 
L 55.821792 298.130065 
L 53.770627 298.156742 
L 51.719463 298.181272 
L 49.668298 298.207655 
L 47.617133 298.237541 
L 45.565968 298.267158 
L 43.514803 298.289764 
L 41.463638 298.301467 
L 39.412473 298.303408 
L 37.361308 298.300373 
L 35.310143 298.300102 
L 33.258978 298.311253 
L 31.207813 298.335908 
L 29.156648 298.364255 
L 27.105483 298.382289 
L 25.054318 298.385602 
L 23.003153 298.383383 
L 20.951988 298.390202 
L 18.900824 298.413756 
L 16.849659 298.44683 
L 14.798494 298.471749 
L 12.747329 298.477127 
L 10.696164 298.469919 
L 8.644999 298.468445 
L 6.593834 298.485318 
L 4.542669 298.518552 
L 2.491504 298.555113 
L 0.440339 298.580049 
L -1.610826 298.585954 
L -3.661991 298.577901 
L -5.713156 298.568882 
L -7.764321 298.56913 
L -9.815486 298.579206 
L -11.86665 298.591882 
L -13.917815 298.599639 
L -15.96898 298.601122 
L -18.020145 298.60138 
L -20.07131 298.606413 
L -22.122475 298.617541 
L -24.17364 298.630526 
L -26.224805 298.639502 
L -28.27597 298.641508 
L -30.327135 298.637902 
L -32.3783 298.632726 
L -34.429465 298.630046 
L -36.48063 298.631858 
L -38.531795 298.637393 
L -40.58296 298.643927 
L -42.634125 298.648548 
L -44.685289 298.64962 
L -46.736454 298.64726 
L -48.787619 298.643324 
L -50.838784 298.640761 
L -52.889949 298.641647 
L -54.941114 298.645434 
L -56.992279 298.649746 
L -59.043444 298.65275 
L -61.094609 298.654198 
L -63.145774 298.654702 
z
" clip-path="url(#pc9e54d9338)" style="fill: #de8f05; fill-opacity: 0.2; stroke: #de8f05; stroke-width: 2"/>
   </g>
   <g id="PolyCollection_3">
    <defs>
     <path id="mdb11f4c4d8" d="M 30.749588 -61.3453 
L 30.749588 -61.34514 
L 32.304584 -61.34514 
L 33.859581 -61.34514 
L 35.414577 -61.34514 
L 36.969574 -61.34514 
L 38.52457 -61.34514 
L 40.079567 -61.34514 
L 41.634563 -61.34514 
L 43.18956 -61.34514 
L 44.744556 -61.34514 
L 46.299553 -61.34514 
L 47.854549 -61.34514 
L 49.409546 -61.34514 
L 50.964542 -61.34514 
L 52.519539 -61.34514 
L 54.074535 -61.34514 
L 55.629532 -61.34514 
L 57.184528 -61.34514 
L 58.739525 -61.34514 
L 60.294521 -61.34514 
L 61.849518 -61.34514 
L 63.404514 -61.34514 
L 64.959511 -61.34514 
L 66.514507 -61.34514 
L 68.069504 -61.34514 
L 69.6245 -61.34514 
L 71.179496 -61.34514 
L 72.734493 -61.34514 
L 74.289489 -61.34514 
L 75.844486 -61.34514 
L 77.399482 -61.34514 
L 78.954479 -61.34514 
L 80.509475 -61.34514 
L 82.064472 -61.34514 
L 83.619468 -61.34514 
L 85.174465 -61.34514 
L 86.729461 -61.34514 
L 88.284458 -61.34514 
L 89.839454 -61.34514 
L 91.394451 -61.34514 
L 92.949447 -61.34514 
L 94.504444 -61.34514 
L 96.05944 -61.34514 
L 97.614437 -61.34514 
L 99.169433 -61.34514 
L 100.72443 -61.34514 
L 102.279426 -61.34514 
L 103.834423 -61.34514 
L 105.389419 -61.34514 
L 106.944416 -61.34514 
L 108.499412 -61.34514 
L 110.054409 -61.34514 
L 111.609405 -61.34514 
L 113.164402 -61.34514 
L 114.719398 -61.34514 
L 116.274395 -61.34514 
L 117.829391 -61.34514 
L 119.384388 -61.34514 
L 120.939384 -61.34514 
L 122.494381 -61.34514 
L 124.049377 -61.34514 
L 125.604374 -61.34514 
L 127.15937 -61.34514 
L 128.714367 -61.34514 
L 130.269363 -61.34514 
L 131.82436 -61.34514 
L 133.379356 -61.34514 
L 134.934353 -61.34514 
L 136.489349 -61.34514 
L 138.044346 -61.34514 
L 139.599342 -61.34514 
L 141.154338 -61.34514 
L 142.709335 -61.34514 
L 144.264331 -61.34514 
L 145.819328 -61.34514 
L 147.374324 -61.34514 
L 148.929321 -61.34514 
L 150.484317 -61.34514 
L 152.039314 -61.34514 
L 153.59431 -61.34514 
L 155.149307 -61.34514 
L 156.704303 -61.34514 
L 158.2593 -61.34514 
L 159.814296 -61.34514 
L 161.369293 -61.34514 
L 162.924289 -61.34514 
L 164.479286 -61.34514 
L 166.034282 -61.34514 
L 167.589279 -61.34514 
L 169.144275 -61.34514 
L 170.699272 -61.34514 
L 172.254268 -61.34514 
L 173.809265 -61.34514 
L 175.364261 -61.34514 
L 176.919258 -61.34514 
L 178.474254 -61.34514 
L 180.029251 -61.34514 
L 181.584247 -61.34514 
L 183.139244 -61.34514 
L 184.69424 -61.34514 
L 186.249237 -61.34514 
L 187.804233 -61.34514 
L 189.35923 -61.34514 
L 190.914226 -61.34514 
L 192.469223 -61.34514 
L 194.024219 -61.34514 
L 195.579216 -61.34514 
L 197.134212 -61.34514 
L 198.689209 -61.34514 
L 200.244205 -61.34514 
L 201.799202 -61.34514 
L 203.354198 -61.34514 
L 204.909195 -61.34514 
L 206.464191 -61.34514 
L 208.019187 -61.34514 
L 209.574184 -61.34514 
L 211.12918 -61.34514 
L 212.684177 -61.34514 
L 214.239173 -61.34514 
L 215.79417 -61.34514 
L 217.349166 -61.34514 
L 218.904163 -61.34514 
L 220.459159 -61.34514 
L 222.014156 -61.34514 
L 223.569152 -61.34514 
L 225.124149 -61.34514 
L 226.679145 -61.34514 
L 228.234142 -61.34514 
L 229.789138 -61.34514 
L 231.344135 -61.34514 
L 232.899131 -61.34514 
L 234.454128 -61.34514 
L 236.009124 -61.34514 
L 237.564121 -61.34514 
L 239.119117 -61.34514 
L 240.674114 -61.34514 
L 242.22911 -61.34514 
L 243.784107 -61.34514 
L 245.339103 -61.34514 
L 246.8941 -61.34514 
L 248.449096 -61.34514 
L 250.004093 -61.34514 
L 251.559089 -61.34514 
L 253.114086 -61.34514 
L 254.669082 -61.34514 
L 256.224079 -61.34514 
L 257.779075 -61.34514 
L 259.334072 -61.34514 
L 260.889068 -61.34514 
L 262.444065 -61.34514 
L 263.999061 -61.34514 
L 265.554058 -61.34514 
L 267.109054 -61.34514 
L 268.664051 -61.34514 
L 270.219047 -61.34514 
L 271.774044 -61.34514 
L 273.32904 -61.34514 
L 274.884037 -61.34514 
L 276.439033 -61.34514 
L 277.994029 -61.34514 
L 279.549026 -61.34514 
L 281.104022 -61.34514 
L 282.659019 -61.34514 
L 284.214015 -61.34514 
L 285.769012 -61.34514 
L 287.324008 -61.34514 
L 288.879005 -61.34514 
L 290.434001 -61.34514 
L 291.988998 -61.34514 
L 293.543994 -61.34514 
L 295.098991 -61.34514 
L 296.653987 -61.34514 
L 298.208984 -61.34514 
L 299.76398 -61.34514 
L 301.318977 -61.34514 
L 302.873973 -61.34514 
L 304.42897 -61.34514 
L 305.983966 -61.34514 
L 307.538963 -61.34514 
L 309.093959 -61.34514 
L 310.648956 -61.34514 
L 312.203952 -61.34514 
L 313.758949 -61.34514 
L 315.313945 -61.34514 
L 316.868942 -61.34514 
L 318.423938 -61.34514 
L 319.978935 -61.34514 
L 321.533931 -61.34514 
L 323.088928 -61.34514 
L 324.643924 -61.34514 
L 326.198921 -61.34514 
L 327.753917 -61.34514 
L 329.308914 -61.34514 
L 330.86391 -61.34514 
L 332.418907 -61.34514 
L 333.973903 -61.34514 
L 335.5289 -61.34514 
L 337.083896 -61.34514 
L 338.638893 -61.34514 
L 340.193889 -61.34514 
L 340.193889 -61.385077 
L 340.193889 -61.385077 
L 338.638893 -61.48926 
L 337.083896 -61.800112 
L 335.5289 -62.609581 
L 333.973903 -64.461296 
L 332.418907 -68.210116 
L 330.86391 -74.980696 
L 329.308914 -85.978952 
L 327.753917 -102.178059 
L 326.198921 -123.974875 
L 324.643924 -150.93298 
L 323.088928 -181.679033 
L 321.533931 -213.974856 
L 319.978935 -245.01918 
L 318.423938 -272.041891 
L 316.868942 -293.070083 
L 315.313945 -307.477488 
L 313.758949 -315.950585 
L 312.203952 -319.916293 
L 310.648956 -320.864054 
L 309.093959 -319.954349 
L 307.538963 -317.953764 
L 305.983966 -315.293982 
L 304.42897 -312.104172 
L 302.873973 -308.240732 
L 301.318977 -303.40298 
L 299.76398 -297.340323 
L 298.208984 -290.049595 
L 296.653987 -281.843446 
L 295.098991 -273.248959 
L 293.543994 -264.805048 
L 291.988998 -256.888123 
L 290.434001 -249.657651 
L 288.879005 -243.106915 
L 287.324008 -237.136358 
L 285.769012 -231.599102 
L 284.214015 -226.333282 
L 282.659019 -221.202067 
L 281.104022 -216.126099 
L 279.549026 -211.087838 
L 277.994029 -206.116612 
L 276.439033 -201.273162 
L 274.884037 -196.632441 
L 273.32904 -192.256716 
L 271.774044 -188.174419 
L 270.219047 -184.391353 
L 268.664051 -180.925302 
L 267.109054 -177.812231 
L 265.554058 -175.053913 
L 263.999061 -172.555514 
L 262.444065 -170.135924 
L 260.889068 -167.623745 
L 259.334072 -164.956741 
L 257.779075 -162.197181 
L 256.224079 -159.457811 
L 254.669082 -156.806231 
L 253.114086 -154.220096 
L 251.559089 -151.619118 
L 250.004093 -148.941334 
L 248.449096 -146.19526 
L 246.8941 -143.438921 
L 245.339103 -140.706996 
L 243.784107 -137.963905 
L 242.22911 -135.136302 
L 240.674114 -132.191524 
L 239.119117 -129.177862 
L 237.564121 -126.19031 
L 236.009124 -123.310504 
L 234.454128 -120.583458 
L 232.899131 -118.030847 
L 231.344135 -115.65808 
L 229.789138 -113.441796 
L 228.234142 -111.326663 
L 226.679145 -109.250619 
L 225.124149 -107.176572 
L 223.569152 -105.097384 
L 222.014156 -103.013788 
L 220.459159 -100.918778 
L 218.904163 -98.814122 
L 217.349166 -96.742172 
L 215.79417 -94.789533 
L 214.239173 -93.043676 
L 212.684177 -91.53476 
L 211.12918 -90.21478 
L 209.574184 -88.991984 
L 208.019187 -87.788717 
L 206.464191 -86.577694 
L 204.909195 -85.380435 
L 203.354198 -84.242867 
L 201.799202 -83.206746 
L 200.244205 -82.284692 
L 198.689209 -81.44675 
L 197.134212 -80.632325 
L 195.579216 -79.788201 
L 194.024219 -78.906025 
L 192.469223 -78.027375 
L 190.914226 -77.213623 
L 189.35923 -76.507967 
L 187.804233 -75.916558 
L 186.249237 -75.412865 
L 184.69424 -74.953341 
L 183.139244 -74.494356 
L 181.584247 -74.007414 
L 180.029251 -73.488719 
L 178.474254 -72.956178 
L 176.919258 -72.433615 
L 175.364261 -71.933907 
L 173.809265 -71.455008 
L 172.254268 -70.991616 
L 170.699272 -70.5515 
L 169.144275 -70.161363 
L 167.589279 -69.856046 
L 166.034282 -69.658619 
L 164.479286 -69.564861 
L 162.924289 -69.540401 
L 161.369293 -69.530904 
L 159.814296 -69.481499 
L 158.2593 -69.358436 
L 156.704303 -69.162247 
L 155.149307 -68.92328 
L 153.59431 -68.681249 
L 152.039314 -68.46279 
L 150.484317 -68.272317 
L 148.929321 -68.099693 
L 147.374324 -67.935028 
L 145.819328 -67.777792 
L 144.264331 -67.634204 
L 142.709335 -67.506796 
L 141.154338 -67.38662 
L 139.599342 -67.256381 
L 138.044346 -67.102027 
L 136.489349 -66.921316 
L 134.934353 -66.721168 
L 133.379356 -66.50799 
L 131.82436 -66.282298 
L 130.269363 -66.043449 
L 128.714367 -65.798957 
L 127.15937 -65.567669 
L 125.604374 -65.371389 
L 124.049377 -65.220132 
L 122.494381 -65.102833 
L 120.939384 -64.992727 
L 119.384388 -64.865286 
L 117.829391 -64.71507 
L 116.274395 -64.557131 
L 114.719398 -64.411726 
L 113.164402 -64.286683 
L 111.609405 -64.1737 
L 110.054409 -64.060482 
L 108.499412 -63.944767 
L 106.944416 -63.835556 
L 105.389419 -63.741613 
L 103.834423 -63.660865 
L 102.279426 -63.582006 
L 100.72443 -63.495243 
L 99.169433 -63.399585 
L 97.614437 -63.299564 
L 96.05944 -63.197148 
L 94.504444 -63.089279 
L 92.949447 -62.973419 
L 91.394451 -62.853606 
L 89.839454 -62.739628 
L 88.284458 -62.640193 
L 86.729461 -62.55686 
L 85.174465 -62.483747 
L 83.619468 -62.412717 
L 82.064472 -62.339996 
L 80.509475 -62.269312 
L 78.954479 -62.208787 
L 77.399482 -62.163504 
L 75.844486 -62.1298 
L 74.289489 -62.096309 
L 72.734493 -62.050892 
L 71.179496 -61.987733 
L 69.6245 -61.909567 
L 68.069504 -61.824681 
L 66.514507 -61.742223 
L 64.959511 -61.66922 
L 63.404514 -61.609837 
L 61.849518 -61.565311 
L 60.294521 -61.533698 
L 58.739525 -61.510312 
L 57.184528 -61.489761 
L 55.629532 -61.468609 
L 54.074535 -61.446574 
L 52.519539 -61.425475 
L 50.964542 -61.407246 
L 49.409546 -61.39279 
L 47.854549 -61.382084 
L 46.299553 -61.374646 
L 44.744556 -61.369672 
L 43.18956 -61.36601 
L 41.634563 -61.362497 
L 40.079567 -61.35855 
L 38.52457 -61.354401 
L 36.969574 -61.350726 
L 35.414577 -61.348045 
L 33.859581 -61.346435 
L 32.304584 -61.345633 
L 30.749588 -61.3453 
z
" style="stroke: #0173b2; stroke-width: 2"/>
    </defs>
    <g clip-path="url(#pc9e54d9338)">
     <use xlink:href="#mdb11f4c4d8" x="0" y="360" style="fill: #0173b2; fill-opacity: 0.2; stroke: #0173b2; stroke-width: 2"/>
    </g>
   </g>
   <g id="matplotlib.axis_1">
    <g id="xtick_1">
     <g id="line2d_1">
      <defs>
       <path id="m283132fa25" d="M 0 0 
L 0 3.5 
" style="stroke: #000000; stroke-width: 0.8"/>
      </defs>
      <g>
       <use xlink:href="#m283132fa25" x="101.984361" y="298.65486" style="stroke: #000000; stroke-width: 0.8"/>
      </g>
     </g>
     <g id="text_1">
      <!-- 20000 -->
      <g transform="translate(92.688117 333.522602) rotate(-45) scale(0.1 -0.1)">
       <defs>
        <path id="DejaVuSerif-32" d="M 819 3553 
L 469 3553 
L 469 4384 
Q 803 4563 1142 4656 
Q 1481 4750 1806 4750 
Q 2534 4750 2956 4397 
Q 3378 4044 3378 3438 
Q 3378 2753 2422 1800 
Q 2347 1728 2309 1691 
L 1131 513 
L 3078 513 
L 3078 1088 
L 3444 1088 
L 3444 0 
L 434 0 
L 434 341 
L 1850 1753 
Q 2319 2222 2519 2614 
Q 2719 3006 2719 3438 
Q 2719 3909 2473 4175 
Q 2228 4441 1797 4441 
Q 1350 4441 1106 4219 
Q 863 3997 819 3553 
z
" transform="scale(0.015625)"/>
        <path id="DejaVuSerif-30" d="M 2034 219 
Q 2513 219 2750 744 
Q 2988 1269 2988 2328 
Q 2988 3391 2750 3916 
Q 2513 4441 2034 4441 
Q 1556 4441 1318 3916 
Q 1081 3391 1081 2328 
Q 1081 1269 1318 744 
Q 1556 219 2034 219 
z
M 2034 -91 
Q 1275 -91 848 546 
Q 422 1184 422 2328 
Q 422 3475 848 4112 
Q 1275 4750 2034 4750 
Q 2797 4750 3222 4112 
Q 3647 3475 3647 2328 
Q 3647 1184 3222 546 
Q 2797 -91 2034 -91 
z
" transform="scale(0.015625)"/>
       </defs>
       <use xlink:href="#DejaVuSerif-32"/>
       <use xlink:href="#DejaVuSerif-30" x="63.623047"/>
       <use xlink:href="#DejaVuSerif-30" x="127.246094"/>
       <use xlink:href="#DejaVuSerif-30" x="190.869141"/>
       <use xlink:href="#DejaVuSerif-30" x="254.492188"/>
      </g>
     </g>
    </g>
    <g id="xtick_2">
     <g id="line2d_2">
      <g>
       <use xlink:href="#m283132fa25" x="160.113083" y="298.65486" style="stroke: #000000; stroke-width: 0.8"/>
      </g>
     </g>
     <g id="text_2">
      <!-- 22000 -->
      <g transform="translate(150.816839 333.522602) rotate(-45) scale(0.1 -0.1)">
       <use xlink:href="#DejaVuSerif-32"/>
       <use xlink:href="#DejaVuSerif-32" x="63.623047"/>
       <use xlink:href="#DejaVuSerif-30" x="127.246094"/>
       <use xlink:href="#DejaVuSerif-30" x="190.869141"/>
       <use xlink:href="#DejaVuSerif-30" x="254.492188"/>
      </g>
     </g>
    </g>
    <g id="xtick_3">
     <g id="line2d_3">
      <g>
       <use xlink:href="#m283132fa25" x="218.241806" y="298.65486" style="stroke: #000000; stroke-width: 0.8"/>
      </g>
     </g>
     <g id="text_3">
      <!-- 24000 -->
      <g transform="translate(208.945561 333.522602) rotate(-45) scale(0.1 -0.1)">
       <defs>
        <path id="DejaVuSerif-34" d="M 2234 1581 
L 2234 4063 
L 641 1581 
L 2234 1581 
z
M 3609 0 
L 1484 0 
L 1484 331 
L 2234 331 
L 2234 1247 
L 197 1247 
L 197 1588 
L 2241 4750 
L 2859 4750 
L 2859 1581 
L 3750 1581 
L 3750 1247 
L 2859 1247 
L 2859 331 
L 3609 331 
L 3609 0 
z
" transform="scale(0.015625)"/>
       </defs>
       <use xlink:href="#DejaVuSerif-32"/>
       <use xlink:href="#DejaVuSerif-34" x="63.623047"/>
       <use xlink:href="#DejaVuSerif-30" x="127.246094"/>
       <use xlink:href="#DejaVuSerif-30" x="190.869141"/>
       <use xlink:href="#DejaVuSerif-30" x="254.492188"/>
      </g>
     </g>
    </g>
    <g id="xtick_4">
     <g id="line2d_4">
      <g>
       <use xlink:href="#m283132fa25" x="276.370528" y="298.65486" style="stroke: #000000; stroke-width: 0.8"/>
      </g>
     </g>
     <g id="text_4">
      <!-- 26000 -->
      <g transform="translate(267.074283 333.522602) rotate(-45) scale(0.1 -0.1)">
       <defs>
        <path id="DejaVuSerif-36" d="M 2094 219 
Q 2534 219 2771 542 
Q 3009 866 3009 1472 
Q 3009 2078 2771 2401 
Q 2534 2725 2094 2725 
Q 1647 2725 1412 2412 
Q 1178 2100 1178 1509 
Q 1178 888 1415 553 
Q 1653 219 2094 219 
z
M 1075 2569 
Q 1288 2803 1556 2918 
Q 1825 3034 2163 3034 
Q 2859 3034 3264 2615 
Q 3669 2197 3669 1472 
Q 3669 763 3233 336 
Q 2797 -91 2069 -91 
Q 1278 -91 853 498 
Q 428 1088 428 2181 
Q 428 3406 931 4078 
Q 1434 4750 2350 4750 
Q 2597 4750 2869 4703 
Q 3141 4656 3425 4563 
L 3425 3794 
L 3072 3794 
Q 3034 4109 2831 4275 
Q 2628 4441 2284 4441 
Q 1678 4441 1381 3981 
Q 1084 3522 1075 2569 
z
" transform="scale(0.015625)"/>
       </defs>
       <use xlink:href="#DejaVuSerif-32"/>
       <use xlink:href="#DejaVuSerif-36" x="63.623047"/>
       <use xlink:href="#DejaVuSerif-30" x="127.246094"/>
       <use xlink:href="#DejaVuSerif-30" x="190.869141"/>
       <use xlink:href="#DejaVuSerif-30" x="254.492188"/>
      </g>
     </g>
    </g>
    <g id="xtick_5">
     <g id="line2d_5">
      <g>
       <use xlink:href="#m283132fa25" x="334.49925" y="298.65486" style="stroke: #000000; stroke-width: 0.8"/>
      </g>
     </g>
     <g id="text_5">
      <!-- 28000 -->
      <g transform="translate(325.203006 333.522602) rotate(-45) scale(0.1 -0.1)">
       <defs>
        <path id="DejaVuSerif-38" d="M 2981 1275 
Q 2981 1775 2732 2051 
Q 2484 2328 2034 2328 
Q 1584 2328 1336 2051 
Q 1088 1775 1088 1275 
Q 1088 772 1336 495 
Q 1584 219 2034 219 
Q 2484 219 2732 495 
Q 2981 772 2981 1275 
z
M 2853 3541 
Q 2853 3966 2637 4203 
Q 2422 4441 2034 4441 
Q 1650 4441 1433 4203 
Q 1216 3966 1216 3541 
Q 1216 3113 1433 2875 
Q 1650 2638 2034 2638 
Q 2422 2638 2637 2875 
Q 2853 3113 2853 3541 
z
M 2516 2484 
Q 3047 2413 3344 2092 
Q 3641 1772 3641 1275 
Q 3641 619 3225 264 
Q 2809 -91 2034 -91 
Q 1263 -91 845 264 
Q 428 619 428 1275 
Q 428 1772 725 2092 
Q 1022 2413 1556 2484 
Q 1084 2569 832 2842 
Q 581 3116 581 3541 
Q 581 4103 968 4426 
Q 1356 4750 2034 4750 
Q 2713 4750 3100 4426 
Q 3488 4103 3488 3541 
Q 3488 3116 3236 2842 
Q 2984 2569 2516 2484 
z
" transform="scale(0.015625)"/>
       </defs>
       <use xlink:href="#DejaVuSerif-32"/>
       <use xlink:href="#DejaVuSerif-38" x="63.623047"/>
       <use xlink:href="#DejaVuSerif-30" x="127.246094"/>
       <use xlink:href="#DejaVuSerif-30" x="190.869141"/>
       <use xlink:href="#DejaVuSerif-30" x="254.492188"/>
      </g>
     </g>
    </g>
    <g id="text_6">
     <!-- Number of zeroes per cell -->
     <g transform="translate(137.579156 346.5916) scale(0.1 -0.1)">
      <defs>
       <path id="DejaVuSerif-4e" d="M 313 0 
L 313 331 
L 941 331 
L 941 4331 
L 313 4331 
L 313 4666 
L 1509 4666 
L 4306 984 
L 4306 4331 
L 3681 4331 
L 3681 4666 
L 5319 4666 
L 5319 4331 
L 4691 4331 
L 4691 -91 
L 4313 -91 
L 1325 3841 
L 1325 331 
L 1953 331 
L 1953 0 
L 313 0 
z
" transform="scale(0.015625)"/>
       <path id="DejaVuSerif-75" d="M 2266 3322 
L 3341 3322 
L 3341 331 
L 3884 331 
L 3884 0 
L 2766 0 
L 2766 588 
Q 2606 256 2353 82 
Q 2100 -91 1766 -91 
Q 1213 -91 952 223 
Q 691 538 691 1209 
L 691 2988 
L 172 2988 
L 172 3322 
L 1269 3322 
L 1269 1388 
Q 1269 781 1417 556 
Q 1566 331 1947 331 
Q 2347 331 2556 625 
Q 2766 919 2766 1478 
L 2766 2988 
L 2266 2988 
L 2266 3322 
z
" transform="scale(0.015625)"/>
       <path id="DejaVuSerif-6d" d="M 3316 2675 
Q 3481 3041 3739 3227 
Q 3997 3413 4341 3413 
Q 4863 3413 5119 3089 
Q 5375 2766 5375 2113 
L 5375 331 
L 5894 331 
L 5894 0 
L 4300 0 
L 4300 331 
L 4800 331 
L 4800 2047 
Q 4800 2556 4650 2772 
Q 4500 2988 4153 2988 
Q 3769 2988 3567 2697 
Q 3366 2406 3366 1850 
L 3366 331 
L 3866 331 
L 3866 0 
L 2291 0 
L 2291 331 
L 2791 331 
L 2791 2069 
Q 2791 2566 2641 2777 
Q 2491 2988 2144 2988 
Q 1759 2988 1557 2697 
Q 1356 2406 1356 1850 
L 1356 331 
L 1856 331 
L 1856 0 
L 263 0 
L 263 331 
L 781 331 
L 781 2994 
L 231 2994 
L 231 3322 
L 1356 3322 
L 1356 2731 
Q 1516 3063 1762 3238 
Q 2009 3413 2322 3413 
Q 2709 3413 2968 3220 
Q 3228 3028 3316 2675 
z
" transform="scale(0.015625)"/>
       <path id="DejaVuSerif-62" d="M 738 331 
L 738 4531 
L 184 4531 
L 184 4863 
L 1313 4863 
L 1313 2803 
Q 1481 3116 1742 3264 
Q 2003 3413 2388 3413 
Q 3000 3413 3387 2928 
Q 3775 2444 3775 1663 
Q 3775 881 3387 395 
Q 3000 -91 2388 -91 
Q 2003 -91 1742 57 
Q 1481 206 1313 519 
L 1313 0 
L 184 0 
L 184 331 
L 738 331 
z
M 1313 1497 
Q 1313 897 1542 583 
Q 1772 269 2209 269 
Q 2650 269 2876 622 
Q 3103 975 3103 1663 
Q 3103 2353 2876 2703 
Q 2650 3053 2209 3053 
Q 1772 3053 1542 2737 
Q 1313 2422 1313 1825 
L 1313 1497 
z
" transform="scale(0.015625)"/>
       <path id="DejaVuSerif-65" d="M 3469 1600 
L 991 1600 
L 991 1575 
Q 991 903 1244 561 
Q 1497 219 1991 219 
Q 2369 219 2611 417 
Q 2853 616 2950 1006 
L 3413 1006 
Q 3275 459 2904 184 
Q 2534 -91 1931 -91 
Q 1203 -91 761 389 
Q 319 869 319 1663 
Q 319 2450 753 2931 
Q 1188 3413 1894 3413 
Q 2647 3413 3050 2948 
Q 3453 2484 3469 1600 
z
M 2791 1931 
Q 2772 2513 2545 2808 
Q 2319 3103 1894 3103 
Q 1497 3103 1269 2806 
Q 1041 2509 991 1931 
L 2791 1931 
z
" transform="scale(0.015625)"/>
       <path id="DejaVuSerif-72" d="M 3059 3328 
L 3059 2497 
L 2728 2497 
Q 2713 2744 2591 2866 
Q 2469 2988 2234 2988 
Q 1809 2988 1582 2694 
Q 1356 2400 1356 1850 
L 1356 331 
L 2022 331 
L 2022 0 
L 263 0 
L 263 331 
L 781 331 
L 781 2994 
L 231 2994 
L 231 3322 
L 1356 3322 
L 1356 2731 
Q 1525 3078 1790 3245 
Q 2056 3413 2438 3413 
Q 2578 3413 2733 3391 
Q 2888 3369 3059 3328 
z
" transform="scale(0.015625)"/>
       <path id="DejaVuSerif-20" transform="scale(0.015625)"/>
       <path id="DejaVuSerif-6f" d="M 1925 219 
Q 2388 219 2623 584 
Q 2859 950 2859 1663 
Q 2859 2375 2623 2739 
Q 2388 3103 1925 3103 
Q 1463 3103 1227 2739 
Q 991 2375 991 1663 
Q 991 950 1228 584 
Q 1466 219 1925 219 
z
M 1925 -91 
Q 1200 -91 759 389 
Q 319 869 319 1663 
Q 319 2456 758 2934 
Q 1197 3413 1925 3413 
Q 2653 3413 3092 2934 
Q 3531 2456 3531 1663 
Q 3531 869 3092 389 
Q 2653 -91 1925 -91 
z
" transform="scale(0.015625)"/>
       <path id="DejaVuSerif-66" d="M 2753 4078 
L 2450 4078 
Q 2447 4313 2317 4434 
Q 2188 4556 1941 4556 
Q 1619 4556 1487 4379 
Q 1356 4203 1356 3750 
L 1356 3322 
L 2284 3322 
L 2284 2988 
L 1356 2988 
L 1356 331 
L 2094 331 
L 2094 0 
L 231 0 
L 231 331 
L 781 331 
L 781 2988 
L 231 2988 
L 231 3322 
L 781 3322 
L 781 3738 
Q 781 4294 1070 4578 
Q 1359 4863 1919 4863 
Q 2128 4863 2337 4825 
Q 2547 4788 2753 4709 
L 2753 4078 
z
" transform="scale(0.015625)"/>
       <path id="DejaVuSerif-7a" d="M 256 0 
L 256 269 
L 2338 2988 
L 691 2988 
L 691 2413 
L 359 2413 
L 359 3322 
L 3078 3322 
L 3078 3053 
L 997 331 
L 2803 331 
L 2803 934 
L 3138 934 
L 3138 0 
L 256 0 
z
" transform="scale(0.015625)"/>
       <path id="DejaVuSerif-73" d="M 359 184 
L 359 959 
L 691 959 
Q 703 588 923 403 
Q 1144 219 1575 219 
Q 1963 219 2166 364 
Q 2369 509 2369 788 
Q 2369 1006 2220 1140 
Q 2072 1275 1594 1428 
L 1178 1569 
Q 750 1706 558 1912 
Q 366 2119 366 2438 
Q 366 2894 700 3153 
Q 1034 3413 1625 3413 
Q 1888 3413 2178 3344 
Q 2469 3275 2778 3144 
L 2778 2419 
L 2447 2419 
Q 2434 2741 2221 2922 
Q 2009 3103 1644 3103 
Q 1281 3103 1095 2975 
Q 909 2847 909 2591 
Q 909 2381 1050 2254 
Q 1191 2128 1613 1997 
L 2069 1856 
Q 2541 1709 2748 1489 
Q 2956 1269 2956 922 
Q 2956 450 2595 179 
Q 2234 -91 1600 -91 
Q 1278 -91 972 -22 
Q 666 47 359 184 
z
" transform="scale(0.015625)"/>
       <path id="DejaVuSerif-70" d="M 1313 1825 
L 1313 1497 
Q 1313 897 1542 583 
Q 1772 269 2209 269 
Q 2650 269 2876 622 
Q 3103 975 3103 1663 
Q 3103 2353 2876 2703 
Q 2650 3053 2209 3053 
Q 1772 3053 1542 2737 
Q 1313 2422 1313 1825 
z
M 738 2988 
L 184 2988 
L 184 3322 
L 1313 3322 
L 1313 2803 
Q 1481 3116 1742 3264 
Q 2003 3413 2388 3413 
Q 3000 3413 3387 2928 
Q 3775 2444 3775 1663 
Q 3775 881 3387 395 
Q 3000 -91 2388 -91 
Q 2003 -91 1742 57 
Q 1481 206 1313 519 
L 1313 -997 
L 1856 -997 
L 1856 -1331 
L 184 -1331 
L 184 -997 
L 738 -997 
L 738 2988 
z
" transform="scale(0.015625)"/>
       <path id="DejaVuSerif-63" d="M 3291 997 
Q 3169 466 2822 187 
Q 2475 -91 1925 -91 
Q 1200 -91 759 389 
Q 319 869 319 1663 
Q 319 2459 759 2936 
Q 1200 3413 1925 3413 
Q 2241 3413 2553 3339 
Q 2866 3266 3181 3116 
L 3181 2266 
L 2847 2266 
Q 2781 2703 2561 2903 
Q 2341 3103 1931 3103 
Q 1466 3103 1228 2742 
Q 991 2381 991 1663 
Q 991 944 1227 581 
Q 1463 219 1931 219 
Q 2303 219 2525 412 
Q 2747 606 2828 997 
L 3291 997 
z
" transform="scale(0.015625)"/>
       <path id="DejaVuSerif-6c" d="M 1313 331 
L 1856 331 
L 1856 0 
L 184 0 
L 184 331 
L 738 331 
L 738 4531 
L 184 4531 
L 184 4863 
L 1313 4863 
L 1313 331 
z
" transform="scale(0.015625)"/>
      </defs>
      <use xlink:href="#DejaVuSerif-4e"/>
      <use xlink:href="#DejaVuSerif-75" x="87.5"/>
      <use xlink:href="#DejaVuSerif-6d" x="151.904297"/>
      <use xlink:href="#DejaVuSerif-62" x="246.728516"/>
      <use xlink:href="#DejaVuSerif-65" x="310.742188"/>
      <use xlink:href="#DejaVuSerif-72" x="369.921875"/>
      <use xlink:href="#DejaVuSerif-20" x="417.724609"/>
      <use xlink:href="#DejaVuSerif-6f" x="449.511719"/>
      <use xlink:href="#DejaVuSerif-66" x="509.716797"/>
      <use xlink:href="#DejaVuSerif-20" x="546.728516"/>
      <use xlink:href="#DejaVuSerif-7a" x="578.515625"/>
      <use xlink:href="#DejaVuSerif-65" x="631.201172"/>
      <use xlink:href="#DejaVuSerif-72" x="690.380859"/>
      <use xlink:href="#DejaVuSerif-6f" x="738.183594"/>
      <use xlink:href="#DejaVuSerif-65" x="798.388672"/>
      <use xlink:href="#DejaVuSerif-73" x="857.568359"/>
      <use xlink:href="#DejaVuSerif-20" x="908.886719"/>
      <use xlink:href="#DejaVuSerif-70" x="940.673828"/>
      <use xlink:href="#DejaVuSerif-65" x="1004.6875"/>
      <use xlink:href="#DejaVuSerif-72" x="1063.867188"/>
      <use xlink:href="#DejaVuSerif-20" x="1111.669922"/>
      <use xlink:href="#DejaVuSerif-63" x="1143.457031"/>
      <use xlink:href="#DejaVuSerif-65" x="1199.462891"/>
      <use xlink:href="#DejaVuSerif-6c" x="1258.642578"/>
      <use xlink:href="#DejaVuSerif-6c" x="1290.625"/>
     </g>
    </g>
   </g>
   <g id="matplotlib.axis_2">
    <g id="ytick_1">
     <g id="line2d_6">
      <defs>
       <path id="m3cdc08e9f3" d="M 0 0 
L -3.5 0 
" style="stroke: #000000; stroke-width: 0.8"/>
      </defs>
      <g>
       <use xlink:href="#m3cdc08e9f3" x="72.92" y="298.65486" style="stroke: #000000; stroke-width: 0.8"/>
      </g>
     </g>
     <g id="text_7">
      <!-- 0.00000 -->
      <g transform="translate(24.566875 302.454079) scale(0.1 -0.1)">
       <defs>
        <path id="DejaVuSerif-2e" d="M 603 325 
Q 603 500 722 622 
Q 841 744 1019 744 
Q 1191 744 1312 622 
Q 1434 500 1434 325 
Q 1434 153 1312 31 
Q 1191 -91 1019 -91 
Q 841 -91 722 29 
Q 603 150 603 325 
z
" transform="scale(0.015625)"/>
       </defs>
       <use xlink:href="#DejaVuSerif-30"/>
       <use xlink:href="#DejaVuSerif-2e" x="63.623047"/>
       <use xlink:href="#DejaVuSerif-30" x="95.410156"/>
       <use xlink:href="#DejaVuSerif-30" x="159.033203"/>
       <use xlink:href="#DejaVuSerif-30" x="222.65625"/>
       <use xlink:href="#DejaVuSerif-30" x="286.279297"/>
       <use xlink:href="#DejaVuSerif-30" x="349.902344"/>
      </g>
     </g>
    </g>
    <g id="ytick_2">
     <g id="line2d_7">
      <g>
       <use xlink:href="#m3cdc08e9f3" x="72.92" y="265.019853" style="stroke: #000000; stroke-width: 0.8"/>
      </g>
     </g>
     <g id="text_8">
      <!-- 0.00002 -->
      <g transform="translate(24.566875 268.819072) scale(0.1 -0.1)">
       <use xlink:href="#DejaVuSerif-30"/>
       <use xlink:href="#DejaVuSerif-2e" x="63.623047"/>
       <use xlink:href="#DejaVuSerif-30" x="95.410156"/>
       <use xlink:href="#DejaVuSerif-30" x="159.033203"/>
       <use xlink:href="#DejaVuSerif-30" x="222.65625"/>
       <use xlink:href="#DejaVuSerif-30" x="286.279297"/>
       <use xlink:href="#DejaVuSerif-32" x="349.902344"/>
      </g>
     </g>
    </g>
    <g id="ytick_3">
     <g id="line2d_8">
      <g>
       <use xlink:href="#m3cdc08e9f3" x="72.92" y="231.384846" style="stroke: #000000; stroke-width: 0.8"/>
      </g>
     </g>
     <g id="text_9">
      <!-- 0.00004 -->
      <g transform="translate(24.566875 235.184065) scale(0.1 -0.1)">
       <use xlink:href="#DejaVuSerif-30"/>
       <use xlink:href="#DejaVuSerif-2e" x="63.623047"/>
       <use xlink:href="#DejaVuSerif-30" x="95.410156"/>
       <use xlink:href="#DejaVuSerif-30" x="159.033203"/>
       <use xlink:href="#DejaVuSerif-30" x="222.65625"/>
       <use xlink:href="#DejaVuSerif-30" x="286.279297"/>
       <use xlink:href="#DejaVuSerif-34" x="349.902344"/>
      </g>
     </g>
    </g>
    <g id="ytick_4">
     <g id="line2d_9">
      <g>
       <use xlink:href="#m3cdc08e9f3" x="72.92" y="197.749838" style="stroke: #000000; stroke-width: 0.8"/>
      </g>
     </g>
     <g id="text_10">
      <!-- 0.00006 -->
      <g transform="translate(24.566875 201.549057) scale(0.1 -0.1)">
       <use xlink:href="#DejaVuSerif-30"/>
       <use xlink:href="#DejaVuSerif-2e" x="63.623047"/>
       <use xlink:href="#DejaVuSerif-30" x="95.410156"/>
       <use xlink:href="#DejaVuSerif-30" x="159.033203"/>
       <use xlink:href="#DejaVuSerif-30" x="222.65625"/>
       <use xlink:href="#DejaVuSerif-30" x="286.279297"/>
       <use xlink:href="#DejaVuSerif-36" x="349.902344"/>
      </g>
     </g>
    </g>
    <g id="ytick_5">
     <g id="line2d_10">
      <g>
       <use xlink:href="#m3cdc08e9f3" x="72.92" y="164.114831" style="stroke: #000000; stroke-width: 0.8"/>
      </g>
     </g>
     <g id="text_11">
      <!-- 0.00008 -->
      <g transform="translate(24.566875 167.91405) scale(0.1 -0.1)">
       <use xlink:href="#DejaVuSerif-30"/>
       <use xlink:href="#DejaVuSerif-2e" x="63.623047"/>
       <use xlink:href="#DejaVuSerif-30" x="95.410156"/>
       <use xlink:href="#DejaVuSerif-30" x="159.033203"/>
       <use xlink:href="#DejaVuSerif-30" x="222.65625"/>
       <use xlink:href="#DejaVuSerif-30" x="286.279297"/>
       <use xlink:href="#DejaVuSerif-38" x="349.902344"/>
      </g>
     </g>
    </g>
    <g id="ytick_6">
     <g id="line2d_11">
      <g>
       <use xlink:href="#m3cdc08e9f3" x="72.92" y="130.479824" style="stroke: #000000; stroke-width: 0.8"/>
      </g>
     </g>
     <g id="text_12">
      <!-- 0.00010 -->
      <g transform="translate(24.566875 134.279043) scale(0.1 -0.1)">
       <defs>
        <path id="DejaVuSerif-31" d="M 909 0 
L 909 331 
L 1722 331 
L 1722 4213 
L 781 3603 
L 781 4013 
L 1919 4750 
L 2350 4750 
L 2350 331 
L 3163 331 
L 3163 0 
L 909 0 
z
" transform="scale(0.015625)"/>
       </defs>
       <use xlink:href="#DejaVuSerif-30"/>
       <use xlink:href="#DejaVuSerif-2e" x="63.623047"/>
       <use xlink:href="#DejaVuSerif-30" x="95.410156"/>
       <use xlink:href="#DejaVuSerif-30" x="159.033203"/>
       <use xlink:href="#DejaVuSerif-30" x="222.65625"/>
       <use xlink:href="#DejaVuSerif-31" x="286.279297"/>
       <use xlink:href="#DejaVuSerif-30" x="349.902344"/>
      </g>
     </g>
    </g>
    <g id="ytick_7">
     <g id="line2d_12">
      <g>
       <use xlink:href="#m3cdc08e9f3" x="72.92" y="96.844817" style="stroke: #000000; stroke-width: 0.8"/>
      </g>
     </g>
     <g id="text_13">
      <!-- 0.00012 -->
      <g transform="translate(24.566875 100.644035) scale(0.1 -0.1)">
       <use xlink:href="#DejaVuSerif-30"/>
       <use xlink:href="#DejaVuSerif-2e" x="63.623047"/>
       <use xlink:href="#DejaVuSerif-30" x="95.410156"/>
       <use xlink:href="#DejaVuSerif-30" x="159.033203"/>
       <use xlink:href="#DejaVuSerif-30" x="222.65625"/>
       <use xlink:href="#DejaVuSerif-31" x="286.279297"/>
       <use xlink:href="#DejaVuSerif-32" x="349.902344"/>
      </g>
     </g>
    </g>
    <g id="ytick_8">
     <g id="line2d_13">
      <g>
       <use xlink:href="#m3cdc08e9f3" x="72.92" y="63.209809" style="stroke: #000000; stroke-width: 0.8"/>
      </g>
     </g>
     <g id="text_14">
      <!-- 0.00014 -->
      <g transform="translate(24.566875 67.009028) scale(0.1 -0.1)">
       <use xlink:href="#DejaVuSerif-30"/>
       <use xlink:href="#DejaVuSerif-2e" x="63.623047"/>
       <use xlink:href="#DejaVuSerif-30" x="95.410156"/>
       <use xlink:href="#DejaVuSerif-30" x="159.033203"/>
       <use xlink:href="#DejaVuSerif-30" x="222.65625"/>
       <use xlink:href="#DejaVuSerif-31" x="286.279297"/>
       <use xlink:href="#DejaVuSerif-34" x="349.902344"/>
      </g>
     </g>
    </g>
    <g id="ytick_9">
     <g id="line2d_14">
      <g>
       <use xlink:href="#m3cdc08e9f3" x="72.92" y="29.574802" style="stroke: #000000; stroke-width: 0.8"/>
      </g>
     </g>
     <g id="text_15">
      <!-- 0.00016 -->
      <g transform="translate(24.566875 33.374021) scale(0.1 -0.1)">
       <use xlink:href="#DejaVuSerif-30"/>
       <use xlink:href="#DejaVuSerif-2e" x="63.623047"/>
       <use xlink:href="#DejaVuSerif-30" x="95.410156"/>
       <use xlink:href="#DejaVuSerif-30" x="159.033203"/>
       <use xlink:href="#DejaVuSerif-30" x="222.65625"/>
       <use xlink:href="#DejaVuSerif-31" x="286.279297"/>
       <use xlink:href="#DejaVuSerif-36" x="349.902344"/>
      </g>
     </g>
    </g>
    <g id="text_16">
     <!-- Frequency -->
     <g transform="translate(18.345 189.451961) rotate(-90) scale(0.1 -0.1)">
      <defs>
       <path id="DejaVuSerif-46" d="M 353 0 
L 353 331 
L 947 331 
L 947 4331 
L 353 4331 
L 353 4666 
L 4172 4666 
L 4172 3628 
L 3788 3628 
L 3788 4281 
L 1581 4281 
L 1581 2719 
L 3175 2719 
L 3175 3303 
L 3559 3303 
L 3559 1753 
L 3175 1753 
L 3175 2338 
L 1581 2338 
L 1581 331 
L 2328 331 
L 2328 0 
L 353 0 
z
" transform="scale(0.015625)"/>
       <path id="DejaVuSerif-71" d="M 3359 2988 
L 3359 -997 
L 3909 -997 
L 3909 -1331 
L 2241 -1331 
L 2241 -997 
L 2784 -997 
L 2784 519 
Q 2616 206 2355 57 
Q 2094 -91 1709 -91 
Q 1097 -91 708 395 
Q 319 881 319 1663 
Q 319 2444 706 2928 
Q 1094 3413 1709 3413 
Q 2094 3413 2355 3264 
Q 2616 3116 2784 2803 
L 2784 3322 
L 3909 3322 
L 3909 2988 
L 3359 2988 
z
M 2784 1825 
Q 2784 2422 2554 2737 
Q 2325 3053 1888 3053 
Q 1444 3053 1217 2703 
Q 991 2353 991 1663 
Q 991 975 1217 622 
Q 1444 269 1888 269 
Q 2325 269 2554 583 
Q 2784 897 2784 1497 
L 2784 1825 
z
" transform="scale(0.015625)"/>
       <path id="DejaVuSerif-6e" d="M 263 0 
L 263 331 
L 781 331 
L 781 2988 
L 231 2988 
L 231 3322 
L 1356 3322 
L 1356 2731 
Q 1516 3069 1770 3241 
Q 2025 3413 2363 3413 
Q 2913 3413 3172 3097 
Q 3431 2781 3431 2113 
L 3431 331 
L 3944 331 
L 3944 0 
L 2356 0 
L 2356 331 
L 2853 331 
L 2853 1931 
Q 2853 2541 2703 2767 
Q 2553 2994 2175 2994 
Q 1775 2994 1565 2701 
Q 1356 2409 1356 1850 
L 1356 331 
L 1856 331 
L 1856 0 
L 263 0 
z
" transform="scale(0.015625)"/>
       <path id="DejaVuSerif-79" d="M 1381 -609 
L 1600 -56 
L 359 2988 
L -19 2988 
L -19 3322 
L 1509 3322 
L 1509 2988 
L 978 2988 
L 1913 703 
L 2847 2988 
L 2350 2988 
L 2350 3322 
L 3597 3322 
L 3597 2988 
L 3225 2988 
L 1703 -750 
Q 1547 -1138 1356 -1280 
Q 1166 -1422 819 -1422 
Q 672 -1422 517 -1397 
Q 363 -1372 206 -1325 
L 206 -691 
L 500 -691 
Q 519 -903 608 -995 
Q 697 -1088 884 -1088 
Q 1056 -1088 1161 -992 
Q 1266 -897 1381 -609 
z
" transform="scale(0.015625)"/>
      </defs>
      <use xlink:href="#DejaVuSerif-46"/>
      <use xlink:href="#DejaVuSerif-72" x="69.384766"/>
      <use xlink:href="#DejaVuSerif-65" x="117.1875"/>
      <use xlink:href="#DejaVuSerif-71" x="176.367188"/>
      <use xlink:href="#DejaVuSerif-75" x="240.380859"/>
      <use xlink:href="#DejaVuSerif-65" x="304.785156"/>
      <use xlink:href="#DejaVuSerif-6e" x="363.964844"/>
      <use xlink:href="#DejaVuSerif-63" x="428.369141"/>
      <use xlink:href="#DejaVuSerif-79" x="484.375"/>
     </g>
    </g>
   </g>
   <g id="patch_3">
    <path d="M 72.92 298.65486 
L 72.92 26.16 
" style="fill: none; stroke: #000000; stroke-width: 0.8; stroke-linejoin: miter; stroke-linecap: square"/>
   </g>
   <g id="patch_4">
    <path d="M 334.49925 298.65486 
L 334.49925 26.16 
" style="fill: none; stroke: #000000; stroke-width: 0.8; stroke-linejoin: miter; stroke-linecap: square"/>
   </g>
   <g id="patch_5">
    <path d="M 72.92 298.65486 
L 334.49925 298.65486 
" style="fill: none; stroke: #000000; stroke-width: 0.8; stroke-linejoin: miter; stroke-linecap: square"/>
   </g>
   <g id="patch_6">
    <path d="M 72.92 26.16 
L 334.49925 26.16 
" style="fill: none; stroke: #000000; stroke-width: 0.8; stroke-linejoin: miter; stroke-linecap: square"/>
   </g>
   <g id="text_17">
    <!-- HLCA_scvi -->
    <g transform="translate(170.821188 20.16) scale(0.12 -0.12)">
     <defs>
      <path id="DejaVuSerif-48" d="M 353 0 
L 353 331 
L 947 331 
L 947 4331 
L 353 4331 
L 353 4666 
L 2175 4666 
L 2175 4331 
L 1581 4331 
L 1581 2719 
L 4000 2719 
L 4000 4331 
L 3406 4331 
L 3406 4666 
L 5228 4666 
L 5228 4331 
L 4634 4331 
L 4634 331 
L 5228 331 
L 5228 0 
L 3406 0 
L 3406 331 
L 4000 331 
L 4000 2338 
L 1581 2338 
L 1581 331 
L 2175 331 
L 2175 0 
L 353 0 
z
" transform="scale(0.015625)"/>
      <path id="DejaVuSerif-4c" d="M 353 0 
L 353 331 
L 947 331 
L 947 4331 
L 353 4331 
L 353 4666 
L 2175 4666 
L 2175 4331 
L 1581 4331 
L 1581 384 
L 3713 384 
L 3713 1166 
L 4097 1166 
L 4097 0 
L 353 0 
z
" transform="scale(0.015625)"/>
      <path id="DejaVuSerif-43" d="M 4513 1234 
Q 4306 581 3820 245 
Q 3334 -91 2591 -91 
Q 2134 -91 1743 65 
Q 1353 222 1050 525 
Q 700 875 529 1320 
Q 359 1766 359 2328 
Q 359 3416 987 4083 
Q 1616 4750 2644 4750 
Q 3025 4750 3456 4650 
Q 3888 4550 4384 4347 
L 4384 3272 
L 4031 3272 
Q 3916 3859 3567 4137 
Q 3219 4416 2591 4416 
Q 1844 4416 1459 3886 
Q 1075 3356 1075 2328 
Q 1075 1303 1459 773 
Q 1844 244 2591 244 
Q 3113 244 3450 492 
Q 3788 741 3938 1234 
L 4513 1234 
z
" transform="scale(0.015625)"/>
      <path id="DejaVuSerif-41" d="M 1281 1691 
L 2994 1691 
L 2138 3909 
L 1281 1691 
z
M -38 0 
L -38 331 
L 372 331 
L 2034 4666 
L 2559 4666 
L 4225 331 
L 4684 331 
L 4684 0 
L 2988 0 
L 2988 331 
L 3506 331 
L 3116 1356 
L 1153 1356 
L 763 331 
L 1275 331 
L 1275 0 
L -38 0 
z
" transform="scale(0.015625)"/>
      <path id="DejaVuSerif-5f" d="M 3200 -1259 
L 3200 -1509 
L 0 -1509 
L 0 -1259 
L 3200 -1259 
z
" transform="scale(0.015625)"/>
      <path id="DejaVuSerif-76" d="M 1581 0 
L 359 2988 
L -19 2988 
L -19 3322 
L 1509 3322 
L 1509 2988 
L 978 2988 
L 1913 703 
L 2847 2988 
L 2350 2988 
L 2350 3322 
L 3597 3322 
L 3597 2988 
L 3225 2988 
L 2003 0 
L 1581 0 
z
" transform="scale(0.015625)"/>
      <path id="DejaVuSerif-69" d="M 622 4353 
Q 622 4497 726 4603 
Q 831 4709 978 4709 
Q 1122 4709 1226 4603 
Q 1331 4497 1331 4353 
Q 1331 4206 1228 4103 
Q 1125 4000 978 4000 
Q 831 4000 726 4103 
Q 622 4206 622 4353 
z
M 1356 331 
L 1900 331 
L 1900 0 
L 231 0 
L 231 331 
L 781 331 
L 781 2988 
L 231 2988 
L 231 3322 
L 1356 3322 
L 1356 331 
z
" transform="scale(0.015625)"/>
     </defs>
     <use xlink:href="#DejaVuSerif-48"/>
     <use xlink:href="#DejaVuSerif-4c" x="87.207031"/>
     <use xlink:href="#DejaVuSerif-43" x="153.613281"/>
     <use xlink:href="#DejaVuSerif-41" x="230.126953"/>
     <use xlink:href="#DejaVuSerif-5f" x="302.34375"/>
     <use xlink:href="#DejaVuSerif-73" x="352.34375"/>
     <use xlink:href="#DejaVuSerif-63" x="403.662109"/>
     <use xlink:href="#DejaVuSerif-76" x="459.667969"/>
     <use xlink:href="#DejaVuSerif-69" x="516.162109"/>
    </g>
   </g>
  </g>
 </g>
 <defs>
  <clipPath id="pc9e54d9338">
   <rect x="72.92" y="26.16" width="261.57925" height="272.49486"/>
  </clipPath>
 </defs>
</svg>
