<?xml version="1.0" encoding="utf-8" standalone="no"?>
<!DOCTYPE svg PUBLIC "-//W3C//DTD SVG 1.1//EN"
  "http://www.w3.org/Graphics/SVG/1.1/DTD/svg11.dtd">
<svg xmlns:xlink="http://www.w3.org/1999/xlink" width="360pt" height="360pt" viewBox="0 0 360 360" xmlns="http://www.w3.org/2000/svg" version="1.1">
 <metadata>
  <rdf:RDF xmlns:dc="http://purl.org/dc/elements/1.1/" xmlns:cc="http://creativecommons.org/ns#" xmlns:rdf="http://www.w3.org/1999/02/22-rdf-syntax-ns#">
   <cc:Work>
    <dc:type rdf:resource="http://purl.org/dc/dcmitype/StillImage"/>
    <dc:date>2024-11-13T13:27:34.185104</dc:date>
    <dc:format>image/svg+xml</dc:format>
    <dc:creator>
     <cc:Agent>
      <dc:title>Matplotlib v3.8.1, https://matplotlib.org/</dc:title>
     </cc:Agent>
    </dc:creator>
   </cc:Work>
  </rdf:RDF>
 </metadata>
 <defs>
  <style type="text/css">*{stroke-linejoin: round; stroke-linecap: butt}</style>
 </defs>
 <g id="figure_1">
  <g id="patch_1">
   <path d="M 0 360 
L 360 360 
L 360 0 
L 0 0 
z
" style="fill: #ffffff"/>
  </g>
  <g id="axes_1">
   <g id="patch_2">
    <path d="M 79.22 298.65486 
L 334.49925 298.65486 
L 334.49925 26.16 
L 79.22 26.16 
z
" style="fill: #ffffff"/>
   </g>
   <g id="PolyCollection_1">
    <defs>
     <path id="mf1671c8574" d="M 9.569915 -61.345204 
L 9.569915 -61.34514 
L 11.247417 -61.34514 
L 12.92492 -61.34514 
L 14.602422 -61.34514 
L 16.279924 -61.34514 
L 17.957427 -61.34514 
L 19.634929 -61.34514 
L 21.312431 -61.34514 
L 22.989934 -61.34514 
L 24.667436 -61.34514 
L 26.344938 -61.34514 
L 28.02244 -61.34514 
L 29.699943 -61.34514 
L 31.377445 -61.34514 
L 33.054947 -61.34514 
L 34.73245 -61.34514 
L 36.409952 -61.34514 
L 38.087454 -61.34514 
L 39.764957 -61.34514 
L 41.442459 -61.34514 
L 43.119961 -61.34514 
L 44.797464 -61.34514 
L 46.474966 -61.34514 
L 48.152468 -61.34514 
L 49.82997 -61.34514 
L 51.507473 -61.34514 
L 53.184975 -61.34514 
L 54.862477 -61.34514 
L 56.53998 -61.34514 
L 58.217482 -61.34514 
L 59.894984 -61.34514 
L 61.572487 -61.34514 
L 63.249989 -61.34514 
L 64.927491 -61.34514 
L 66.604993 -61.34514 
L 68.282496 -61.34514 
L 69.959998 -61.34514 
L 71.6375 -61.34514 
L 73.315003 -61.34514 
L 74.992505 -61.34514 
L 76.670007 -61.34514 
L 78.34751 -61.34514 
L 80.025012 -61.34514 
L 81.702514 -61.34514 
L 83.380016 -61.34514 
L 85.057519 -61.34514 
L 86.735021 -61.34514 
L 88.412523 -61.34514 
L 90.090026 -61.34514 
L 91.767528 -61.34514 
L 93.44503 -61.34514 
L 95.122533 -61.34514 
L 96.800035 -61.34514 
L 98.477537 -61.34514 
L 100.155039 -61.34514 
L 101.832542 -61.34514 
L 103.510044 -61.34514 
L 105.187546 -61.34514 
L 106.865049 -61.34514 
L 108.542551 -61.34514 
L 110.220053 -61.34514 
L 111.897556 -61.34514 
L 113.575058 -61.34514 
L 115.25256 -61.34514 
L 116.930063 -61.34514 
L 118.607565 -61.34514 
L 120.285067 -61.34514 
L 121.962569 -61.34514 
L 123.640072 -61.34514 
L 125.317574 -61.34514 
L 126.995076 -61.34514 
L 128.672579 -61.34514 
L 130.350081 -61.34514 
L 132.027583 -61.34514 
L 133.705086 -61.34514 
L 135.382588 -61.34514 
L 137.06009 -61.34514 
L 138.737592 -61.34514 
L 140.415095 -61.34514 
L 142.092597 -61.34514 
L 143.770099 -61.34514 
L 145.447602 -61.34514 
L 147.125104 -61.34514 
L 148.802606 -61.34514 
L 150.480109 -61.34514 
L 152.157611 -61.34514 
L 153.835113 -61.34514 
L 155.512615 -61.34514 
L 157.190118 -61.34514 
L 158.86762 -61.34514 
L 160.545122 -61.34514 
L 162.222625 -61.34514 
L 163.900127 -61.34514 
L 165.577629 -61.34514 
L 167.255132 -61.34514 
L 168.932634 -61.34514 
L 170.610136 -61.34514 
L 172.287639 -61.34514 
L 173.965141 -61.34514 
L 175.642643 -61.34514 
L 177.320145 -61.34514 
L 178.997648 -61.34514 
L 180.67515 -61.34514 
L 182.352652 -61.34514 
L 184.030155 -61.34514 
L 185.707657 -61.34514 
L 187.385159 -61.34514 
L 189.062662 -61.34514 
L 190.740164 -61.34514 
L 192.417666 -61.34514 
L 194.095168 -61.34514 
L 195.772671 -61.34514 
L 197.450173 -61.34514 
L 199.127675 -61.34514 
L 200.805178 -61.34514 
L 202.48268 -61.34514 
L 204.160182 -61.34514 
L 205.837685 -61.34514 
L 207.515187 -61.34514 
L 209.192689 -61.34514 
L 210.870191 -61.34514 
L 212.547694 -61.34514 
L 214.225196 -61.34514 
L 215.902698 -61.34514 
L 217.580201 -61.34514 
L 219.257703 -61.34514 
L 220.935205 -61.34514 
L 222.612708 -61.34514 
L 224.29021 -61.34514 
L 225.967712 -61.34514 
L 227.645214 -61.34514 
L 229.322717 -61.34514 
L 231.000219 -61.34514 
L 232.677721 -61.34514 
L 234.355224 -61.34514 
L 236.032726 -61.34514 
L 237.710228 -61.34514 
L 239.387731 -61.34514 
L 241.065233 -61.34514 
L 242.742735 -61.34514 
L 244.420238 -61.34514 
L 246.09774 -61.34514 
L 247.775242 -61.34514 
L 249.452744 -61.34514 
L 251.130247 -61.34514 
L 252.807749 -61.34514 
L 254.485251 -61.34514 
L 256.162754 -61.34514 
L 257.840256 -61.34514 
L 259.517758 -61.34514 
L 261.195261 -61.34514 
L 262.872763 -61.34514 
L 264.550265 -61.34514 
L 266.227767 -61.34514 
L 267.90527 -61.34514 
L 269.582772 -61.34514 
L 271.260274 -61.34514 
L 272.937777 -61.34514 
L 274.615279 -61.34514 
L 276.292781 -61.34514 
L 277.970284 -61.34514 
L 279.647786 -61.34514 
L 281.325288 -61.34514 
L 283.00279 -61.34514 
L 284.680293 -61.34514 
L 286.357795 -61.34514 
L 288.035297 -61.34514 
L 289.7128 -61.34514 
L 291.390302 -61.34514 
L 293.067804 -61.34514 
L 294.745307 -61.34514 
L 296.422809 -61.34514 
L 298.100311 -61.34514 
L 299.777813 -61.34514 
L 301.455316 -61.34514 
L 303.132818 -61.34514 
L 304.81032 -61.34514 
L 306.487823 -61.34514 
L 308.165325 -61.34514 
L 309.842827 -61.34514 
L 311.52033 -61.34514 
L 313.197832 -61.34514 
L 314.875334 -61.34514 
L 316.552837 -61.34514 
L 318.230339 -61.34514 
L 319.907841 -61.34514 
L 321.585343 -61.34514 
L 323.262846 -61.34514 
L 324.940348 -61.34514 
L 326.61785 -61.34514 
L 328.295353 -61.34514 
L 329.972855 -61.34514 
L 331.650357 -61.34514 
L 333.32786 -61.34514 
L 335.005362 -61.34514 
L 336.682864 -61.34514 
L 338.360366 -61.34514 
L 340.037869 -61.34514 
L 341.715371 -61.34514 
L 343.392873 -61.34514 
L 343.392873 -61.346843 
L 343.392873 -61.346843 
L 341.715371 -61.352973 
L 340.037869 -61.376456 
L 338.360366 -61.45468 
L 336.682864 -61.682534 
L 335.005362 -62.265761 
L 333.32786 -63.582201 
L 331.650357 -66.207106 
L 329.972855 -70.832392 
L 328.295353 -78.034151 
L 326.61785 -87.949267 
L 324.940348 -100.04918 
L 323.262846 -113.20097 
L 321.585343 -126.023002 
L 319.907841 -137.328631 
L 318.230339 -146.415302 
L 316.552837 -153.10447 
L 314.875334 -157.599787 
L 313.197832 -160.287609 
L 311.52033 -161.571353 
L 309.842827 -161.776483 
L 308.165325 -161.127293 
L 306.487823 -159.778123 
L 304.81032 -157.863459 
L 303.132818 -155.526493 
L 301.455316 -152.912979 
L 299.777813 -150.147818 
L 298.100311 -147.313276 
L 296.422809 -144.441304 
L 294.745307 -141.533677 
L 293.067804 -138.603984 
L 291.390302 -135.702754 
L 289.7128 -132.898539 
L 288.035297 -130.240897 
L 286.357795 -127.751016 
L 284.680293 -125.444821 
L 283.00279 -123.352322 
L 281.325288 -121.506454 
L 279.647786 -119.911902 
L 277.970284 -118.523251 
L 276.292781 -117.251727 
L 274.615279 -115.996579 
L 272.937777 -114.680271 
L 271.260274 -113.271051 
L 269.582772 -111.79148 
L 267.90527 -110.310862 
L 266.227767 -108.912992 
L 264.550265 -107.648861 
L 262.872763 -106.507994 
L 261.195261 -105.429475 
L 259.517758 -104.339482 
L 257.840256 -103.189863 
L 256.162754 -101.978978 
L 254.485251 -100.742199 
L 252.807749 -99.51737 
L 251.130247 -98.317561 
L 249.452744 -97.137496 
L 247.775242 -95.976695 
L 246.09774 -94.844146 
L 244.420238 -93.743951 
L 242.742735 -92.67023 
L 241.065233 -91.617325 
L 239.387731 -90.583241 
L 237.710228 -89.560595 
L 236.032726 -88.535299 
L 234.355224 -87.499049 
L 232.677721 -86.455786 
L 231.000219 -85.41326 
L 229.322717 -84.375925 
L 227.645214 -83.349683 
L 225.967712 -82.348191 
L 224.29021 -81.391625 
L 222.612708 -80.501499 
L 220.935205 -79.693921 
L 219.257703 -78.969202 
L 217.580201 -78.304061 
L 215.902698 -77.658738 
L 214.225196 -76.998709 
L 212.547694 -76.313753 
L 210.870191 -75.618192 
L 209.192689 -74.933978 
L 207.515187 -74.273205 
L 205.837685 -73.634336 
L 204.160182 -73.012153 
L 202.48268 -72.410529 
L 200.805178 -71.846571 
L 199.127675 -71.341546 
L 197.450173 -70.904751 
L 195.772671 -70.524597 
L 194.095168 -70.175976 
L 192.417666 -69.836105 
L 190.740164 -69.493441 
L 189.062662 -69.146306 
L 187.385159 -68.800141 
L 185.707657 -68.467015 
L 184.030155 -68.161416 
L 182.352652 -67.891221 
L 180.67515 -67.653099 
L 178.997648 -67.437463 
L 177.320145 -67.234466 
L 175.642643 -67.032217 
L 173.965141 -66.813737 
L 172.287639 -66.565222 
L 170.610136 -66.291732 
L 168.932634 -66.020791 
L 167.255132 -65.785008 
L 165.577629 -65.598929 
L 163.900127 -65.451038 
L 162.222625 -65.314403 
L 160.545122 -65.163288 
L 158.86762 -64.983992 
L 157.190118 -64.778269 
L 155.512615 -64.562128 
L 153.835113 -64.359925 
L 152.157611 -64.192927 
L 150.480109 -64.067734 
L 148.802606 -63.973758 
L 147.125104 -63.891544 
L 145.447602 -63.803643 
L 143.770099 -63.700873 
L 142.092597 -63.584928 
L 140.415095 -63.469012 
L 138.737592 -63.372986 
L 137.06009 -63.311405 
L 135.382588 -63.282078 
L 133.705086 -63.265577 
L 132.027583 -63.236922 
L 130.350081 -63.179642 
L 128.672579 -63.091724 
L 126.995076 -62.981812 
L 125.317574 -62.861692 
L 123.640072 -62.741025 
L 121.962569 -62.625889 
L 120.285067 -62.519626 
L 118.607565 -62.423939 
L 116.930063 -62.339268 
L 115.25256 -62.264907 
L 113.575058 -62.1993 
L 111.897556 -62.14022 
L 110.220053 -62.085145 
L 108.542551 -62.033004 
L 106.865049 -61.986328 
L 105.187546 -61.950384 
L 103.510044 -61.928416 
L 101.832542 -61.917338 
L 100.155039 -61.908422 
L 98.477537 -61.892339 
L 96.800035 -61.864333 
L 95.122533 -61.826262 
L 93.44503 -61.784579 
L 91.767528 -61.745502 
L 90.090026 -61.710907 
L 88.412523 -61.678637 
L 86.735021 -61.646808 
L 85.057519 -61.61718 
L 83.380016 -61.593804 
L 81.702514 -61.578833 
L 80.025012 -61.570436 
L 78.34751 -61.564717 
L 76.670007 -61.55873 
L 74.992505 -61.551231 
L 73.315003 -61.541438 
L 71.6375 -61.528606 
L 69.959998 -61.51321 
L 68.282496 -61.49751 
L 66.604993 -61.483871 
L 64.927491 -61.472612 
L 63.249989 -61.461997 
L 61.572487 -61.450166 
L 59.894984 -61.436596 
L 58.217482 -61.421951 
L 56.53998 -61.407288 
L 54.862477 -61.393667 
L 53.184975 -61.382094 
L 51.507473 -61.373402 
L 49.82997 -61.36804 
L 48.152468 -61.365901 
L 46.474966 -61.366224 
L 44.797464 -61.367707 
L 43.119961 -61.368904 
L 41.442459 -61.368725 
L 39.764957 -61.366722 
L 38.087454 -61.363116 
L 36.409952 -61.358706 
L 34.73245 -61.354631 
L 33.054947 -61.351904 
L 31.377445 -61.350935 
L 29.699943 -61.351382 
L 28.02244 -61.35246 
L 26.344938 -61.353429 
L 24.667436 -61.35388 
L 22.989934 -61.353672 
L 21.312431 -61.352774 
L 19.634929 -61.351275 
L 17.957427 -61.349463 
L 16.279924 -61.34776 
L 14.602422 -61.346488 
L 12.92492 -61.345723 
L 11.247417 -61.345351 
L 9.569915 -61.345204 
z
" style="stroke: #cc78bc; stroke-width: 2"/>
    </defs>
    <g clip-path="url(#pb81efd64d5)">
     <use xlink:href="#mf1671c8574" x="0" y="360" style="fill: #cc78bc; fill-opacity: 0.2; stroke: #cc78bc; stroke-width: 2"/>
    </g>
   </g>
   <g id="PolyCollection_2">
    <defs>
     <path id="mcc6fc37905" d="M 266.035796 -61.345406 
L 266.035796 -61.34514 
L 266.387062 -61.34514 
L 266.738328 -61.34514 
L 267.089594 -61.34514 
L 267.44086 -61.34514 
L 267.792126 -61.34514 
L 268.143392 -61.34514 
L 268.494658 -61.34514 
L 268.845923 -61.34514 
L 269.197189 -61.34514 
L 269.548455 -61.34514 
L 269.899721 -61.34514 
L 270.250987 -61.34514 
L 270.602253 -61.34514 
L 270.953519 -61.34514 
L 271.304785 -61.34514 
L 271.656051 -61.34514 
L 272.007317 -61.34514 
L 272.358583 -61.34514 
L 272.709849 -61.34514 
L 273.061115 -61.34514 
L 273.412381 -61.34514 
L 273.763647 -61.34514 
L 274.114913 -61.34514 
L 274.466179 -61.34514 
L 274.817445 -61.34514 
L 275.16871 -61.34514 
L 275.519976 -61.34514 
L 275.871242 -61.34514 
L 276.222508 -61.34514 
L 276.573774 -61.34514 
L 276.92504 -61.34514 
L 277.276306 -61.34514 
L 277.627572 -61.34514 
L 277.978838 -61.34514 
L 278.330104 -61.34514 
L 278.68137 -61.34514 
L 279.032636 -61.34514 
L 279.383902 -61.34514 
L 279.735168 -61.34514 
L 280.086434 -61.34514 
L 280.4377 -61.34514 
L 280.788966 -61.34514 
L 281.140232 -61.34514 
L 281.491497 -61.34514 
L 281.842763 -61.34514 
L 282.194029 -61.34514 
L 282.545295 -61.34514 
L 282.896561 -61.34514 
L 283.247827 -61.34514 
L 283.599093 -61.34514 
L 283.950359 -61.34514 
L 284.301625 -61.34514 
L 284.652891 -61.34514 
L 285.004157 -61.34514 
L 285.355423 -61.34514 
L 285.706689 -61.34514 
L 286.057955 -61.34514 
L 286.409221 -61.34514 
L 286.760487 -61.34514 
L 287.111753 -61.34514 
L 287.463019 -61.34514 
L 287.814284 -61.34514 
L 288.16555 -61.34514 
L 288.516816 -61.34514 
L 288.868082 -61.34514 
L 289.219348 -61.34514 
L 289.570614 -61.34514 
L 289.92188 -61.34514 
L 290.273146 -61.34514 
L 290.624412 -61.34514 
L 290.975678 -61.34514 
L 291.326944 -61.34514 
L 291.67821 -61.34514 
L 292.029476 -61.34514 
L 292.380742 -61.34514 
L 292.732008 -61.34514 
L 293.083274 -61.34514 
L 293.43454 -61.34514 
L 293.785806 -61.34514 
L 294.137071 -61.34514 
L 294.488337 -61.34514 
L 294.839603 -61.34514 
L 295.190869 -61.34514 
L 295.542135 -61.34514 
L 295.893401 -61.34514 
L 296.244667 -61.34514 
L 296.595933 -61.34514 
L 296.947199 -61.34514 
L 297.298465 -61.34514 
L 297.649731 -61.34514 
L 298.000997 -61.34514 
L 298.352263 -61.34514 
L 298.703529 -61.34514 
L 299.054795 -61.34514 
L 299.406061 -61.34514 
L 299.757327 -61.34514 
L 300.108593 -61.34514 
L 300.459858 -61.34514 
L 300.811124 -61.34514 
L 301.16239 -61.34514 
L 301.513656 -61.34514 
L 301.864922 -61.34514 
L 302.216188 -61.34514 
L 302.567454 -61.34514 
L 302.91872 -61.34514 
L 303.269986 -61.34514 
L 303.621252 -61.34514 
L 303.972518 -61.34514 
L 304.323784 -61.34514 
L 304.67505 -61.34514 
L 305.026316 -61.34514 
L 305.377582 -61.34514 
L 305.728848 -61.34514 
L 306.080114 -61.34514 
L 306.431379 -61.34514 
L 306.782645 -61.34514 
L 307.133911 -61.34514 
L 307.485177 -61.34514 
L 307.836443 -61.34514 
L 308.187709 -61.34514 
L 308.538975 -61.34514 
L 308.890241 -61.34514 
L 309.241507 -61.34514 
L 309.592773 -61.34514 
L 309.944039 -61.34514 
L 310.295305 -61.34514 
L 310.646571 -61.34514 
L 310.997837 -61.34514 
L 311.349103 -61.34514 
L 311.700369 -61.34514 
L 312.051635 -61.34514 
L 312.402901 -61.34514 
L 312.754166 -61.34514 
L 313.105432 -61.34514 
L 313.456698 -61.34514 
L 313.807964 -61.34514 
L 314.15923 -61.34514 
L 314.510496 -61.34514 
L 314.861762 -61.34514 
L 315.213028 -61.34514 
L 315.564294 -61.34514 
L 315.91556 -61.34514 
L 316.266826 -61.34514 
L 316.618092 -61.34514 
L 316.969358 -61.34514 
L 317.320624 -61.34514 
L 317.67189 -61.34514 
L 318.023156 -61.34514 
L 318.374422 -61.34514 
L 318.725688 -61.34514 
L 319.076953 -61.34514 
L 319.428219 -61.34514 
L 319.779485 -61.34514 
L 320.130751 -61.34514 
L 320.482017 -61.34514 
L 320.833283 -61.34514 
L 321.184549 -61.34514 
L 321.535815 -61.34514 
L 321.887081 -61.34514 
L 322.238347 -61.34514 
L 322.589613 -61.34514 
L 322.940879 -61.34514 
L 323.292145 -61.34514 
L 323.643411 -61.34514 
L 323.994677 -61.34514 
L 324.345943 -61.34514 
L 324.697209 -61.34514 
L 325.048475 -61.34514 
L 325.39974 -61.34514 
L 325.751006 -61.34514 
L 326.102272 -61.34514 
L 326.453538 -61.34514 
L 326.804804 -61.34514 
L 327.15607 -61.34514 
L 327.507336 -61.34514 
L 327.858602 -61.34514 
L 328.209868 -61.34514 
L 328.561134 -61.34514 
L 328.9124 -61.34514 
L 329.263666 -61.34514 
L 329.614932 -61.34514 
L 329.966198 -61.34514 
L 330.317464 -61.34514 
L 330.66873 -61.34514 
L 331.019996 -61.34514 
L 331.371262 -61.34514 
L 331.722527 -61.34514 
L 332.073793 -61.34514 
L 332.425059 -61.34514 
L 332.776325 -61.34514 
L 333.127591 -61.34514 
L 333.478857 -61.34514 
L 333.830123 -61.34514 
L 334.181389 -61.34514 
L 334.532655 -61.34514 
L 334.883921 -61.34514 
L 335.235187 -61.34514 
L 335.586453 -61.34514 
L 335.937719 -61.34514 
L 335.937719 -61.761096 
L 335.937719 -61.761096 
L 335.586453 -62.670864 
L 335.235187 -65.059563 
L 334.883921 -70.512312 
L 334.532655 -81.325976 
L 334.181389 -99.937468 
L 333.830123 -127.69507 
L 333.478857 -163.486772 
L 333.127591 -203.244099 
L 332.776325 -241.059868 
L 332.425059 -271.527021 
L 332.073793 -291.867309 
L 331.722527 -302.535673 
L 331.371262 -306.182826 
L 331.019996 -305.972542 
L 330.66873 -304.36111 
L 330.317464 -302.748989 
L 329.966198 -301.724899 
L 329.614932 -301.435496 
L 329.263666 -301.82385 
L 328.9124 -302.736853 
L 328.561134 -303.990956 
L 328.209868 -305.42976 
L 327.858602 -306.947279 
L 327.507336 -308.470641 
L 327.15607 -309.945891 
L 326.804804 -311.360554 
L 326.453538 -312.770951 
L 326.102272 -314.27311 
L 325.751006 -315.91191 
L 325.39974 -317.600693 
L 325.048475 -319.129285 
L 324.697209 -320.261697 
L 324.345943 -320.846609 
L 323.994677 -320.864054 
L 323.643411 -320.401688 
L 323.292145 -319.609301 
L 322.940879 -318.66379 
L 322.589613 -317.728832 
L 322.238347 -316.893283 
L 321.887081 -316.124523 
L 321.535815 -315.296501 
L 321.184549 -314.291492 
L 320.833283 -313.087789 
L 320.482017 -311.743767 
L 320.130751 -310.291488 
L 319.779485 -308.64961 
L 319.428219 -306.646426 
L 319.076953 -304.135587 
L 318.725688 -301.109419 
L 318.374422 -297.731853 
L 318.023156 -294.28093 
L 317.67189 -291.041393 
L 317.320624 -288.200628 
L 316.969358 -285.78892 
L 316.618092 -283.680687 
L 316.266826 -281.648929 
L 315.91556 -279.450708 
L 315.564294 -276.912472 
L 315.213028 -273.977176 
L 314.861762 -270.688838 
L 314.510496 -267.133374 
L 314.15923 -263.388981 
L 313.807964 -259.520535 
L 313.456698 -255.599584 
L 313.105432 -251.706435 
L 312.754166 -247.896613 
L 312.402901 -244.155416 
L 312.051635 -240.38109 
L 311.700369 -236.420201 
L 311.349103 -232.143274 
L 310.997837 -227.519058 
L 310.646571 -222.641989 
L 310.295305 -217.692517 
L 309.944039 -212.850119 
L 309.592773 -208.21157 
L 309.241507 -203.766352 
L 308.890241 -199.438182 
L 308.538975 -195.150151 
L 308.187709 -190.862538 
L 307.836443 -186.571843 
L 307.485177 -182.295834 
L 307.133911 -178.064308 
L 306.782645 -173.910154 
L 306.431379 -169.850656 
L 306.080114 -165.867096 
L 305.728848 -161.903069 
L 305.377582 -157.891729 
L 305.026316 -153.800361 
L 304.67505 -149.665893 
L 304.323784 -145.59733 
L 303.972518 -141.739496 
L 303.621252 -138.215216 
L 303.269986 -135.074436 
L 302.91872 -132.272913 
L 302.567454 -129.689193 
L 302.216188 -127.174805 
L 301.864922 -124.617357 
L 301.513656 -121.983818 
L 301.16239 -119.318503 
L 300.811124 -116.700032 
L 300.459858 -114.188676 
L 300.108593 -111.796652 
L 299.757327 -109.493539 
L 299.406061 -107.236233 
L 299.054795 -104.999834 
L 298.703529 -102.788179 
L 298.352263 -100.620433 
L 298.000997 -98.510083 
L 297.649731 -96.456281 
L 297.298465 -94.452896 
L 296.947199 -92.503971 
L 296.595933 -90.630575 
L 296.244667 -88.863478 
L 295.893401 -87.228308 
L 295.542135 -85.734724 
L 295.190869 -84.376076 
L 294.839603 -83.137075 
L 294.488337 -82.001805 
L 294.137071 -80.955129 
L 293.785806 -79.975928 
L 293.43454 -79.028677 
L 293.083274 -78.065151 
L 292.732008 -77.042565 
L 292.380742 -75.949352 
L 292.029476 -74.818906 
L 291.67821 -73.717667 
L 291.326944 -72.713089 
L 290.975678 -71.842576 
L 290.624412 -71.103456 
L 290.273146 -70.467665 
L 289.92188 -69.906603 
L 289.570614 -69.40637 
L 289.219348 -68.964951 
L 288.868082 -68.579303 
L 288.516816 -68.236453 
L 288.16555 -67.915201 
L 287.814284 -67.594175 
L 287.463019 -67.258468 
L 287.111753 -66.901164 
L 286.760487 -66.521589 
L 286.409221 -66.123987 
L 286.057955 -65.71811 
L 285.706689 -65.319716 
L 285.355423 -64.948245 
L 285.004157 -64.621719 
L 284.652891 -64.351631 
L 284.301625 -64.140072 
L 283.950359 -63.979007 
L 283.599093 -63.85113 
L 283.247827 -63.733175 
L 282.896561 -63.602667 
L 282.545295 -63.446111 
L 282.194029 -63.263711 
L 281.842763 -63.067112 
L 281.491497 -62.87214 
L 281.140232 -62.692398 
L 280.788966 -62.53743 
L 280.4377 -62.413487 
L 280.086434 -62.322647 
L 279.735168 -62.259794 
L 279.383902 -62.211675 
L 279.032636 -62.161512 
L 278.68137 -62.097154 
L 278.330104 -62.016972 
L 277.978838 -61.929594 
L 277.627572 -61.848335 
L 277.276306 -61.784182 
L 276.92504 -61.740889 
L 276.573774 -61.714047 
L 276.222508 -61.694073 
L 275.871242 -61.671375 
L 275.519976 -61.640781 
L 275.16871 -61.602948 
L 274.817445 -61.562468 
L 274.466179 -61.524428 
L 274.114913 -61.491707 
L 273.763647 -61.464313 
L 273.412381 -61.440548 
L 273.061115 -61.418804 
L 272.709849 -61.39871 
L 272.358583 -61.38109 
L 272.007317 -61.367106 
L 271.656051 -61.357392 
L 271.304785 -61.351797 
L 270.953519 -61.349704 
L 270.602253 -61.350479 
L 270.250987 -61.353593 
L 269.899721 -61.358363 
L 269.548455 -61.363608 
L 269.197189 -61.367697 
L 268.845923 -61.369141 
L 268.494658 -61.36737 
L 268.143392 -61.363062 
L 267.792126 -61.357715 
L 267.44086 -61.35282 
L 267.089594 -61.349223 
L 266.738328 -61.347029 
L 266.387062 -61.3459 
L 266.035796 -61.345406 
z
" style="stroke: #d55e00; stroke-width: 2"/>
    </defs>
    <g clip-path="url(#pb81efd64d5)">
     <use xlink:href="#mcc6fc37905" x="0" y="360" style="fill: #d55e00; fill-opacity: 0.2; stroke: #d55e00; stroke-width: 2"/>
    </g>
   </g>
   <g id="PolyCollection_3">
    <defs>
     <path id="m12417be43c" d="M 75.144139 -61.345462 
L 75.144139 -61.34514 
L 76.390089 -61.34514 
L 77.636039 -61.34514 
L 78.881989 -61.34514 
L 80.127939 -61.34514 
L 81.373889 -61.34514 
L 82.619839 -61.34514 
L 83.865789 -61.34514 
L 85.111738 -61.34514 
L 86.357688 -61.34514 
L 87.603638 -61.34514 
L 88.849588 -61.34514 
L 90.095538 -61.34514 
L 91.341488 -61.34514 
L 92.587438 -61.34514 
L 93.833388 -61.34514 
L 95.079338 -61.34514 
L 96.325288 -61.34514 
L 97.571237 -61.34514 
L 98.817187 -61.34514 
L 100.063137 -61.34514 
L 101.309087 -61.34514 
L 102.555037 -61.34514 
L 103.800987 -61.34514 
L 105.046937 -61.34514 
L 106.292887 -61.34514 
L 107.538837 -61.34514 
L 108.784787 -61.34514 
L 110.030736 -61.34514 
L 111.276686 -61.34514 
L 112.522636 -61.34514 
L 113.768586 -61.34514 
L 115.014536 -61.34514 
L 116.260486 -61.34514 
L 117.506436 -61.34514 
L 118.752386 -61.34514 
L 119.998336 -61.34514 
L 121.244286 -61.34514 
L 122.490235 -61.34514 
L 123.736185 -61.34514 
L 124.982135 -61.34514 
L 126.228085 -61.34514 
L 127.474035 -61.34514 
L 128.719985 -61.34514 
L 129.965935 -61.34514 
L 131.211885 -61.34514 
L 132.457835 -61.34514 
L 133.703785 -61.34514 
L 134.949734 -61.34514 
L 136.195684 -61.34514 
L 137.441634 -61.34514 
L 138.687584 -61.34514 
L 139.933534 -61.34514 
L 141.179484 -61.34514 
L 142.425434 -61.34514 
L 143.671384 -61.34514 
L 144.917334 -61.34514 
L 146.163284 -61.34514 
L 147.409234 -61.34514 
L 148.655183 -61.34514 
L 149.901133 -61.34514 
L 151.147083 -61.34514 
L 152.393033 -61.34514 
L 153.638983 -61.34514 
L 154.884933 -61.34514 
L 156.130883 -61.34514 
L 157.376833 -61.34514 
L 158.622783 -61.34514 
L 159.868733 -61.34514 
L 161.114682 -61.34514 
L 162.360632 -61.34514 
L 163.606582 -61.34514 
L 164.852532 -61.34514 
L 166.098482 -61.34514 
L 167.344432 -61.34514 
L 168.590382 -61.34514 
L 169.836332 -61.34514 
L 171.082282 -61.34514 
L 172.328232 -61.34514 
L 173.574181 -61.34514 
L 174.820131 -61.34514 
L 176.066081 -61.34514 
L 177.312031 -61.34514 
L 178.557981 -61.34514 
L 179.803931 -61.34514 
L 181.049881 -61.34514 
L 182.295831 -61.34514 
L 183.541781 -61.34514 
L 184.787731 -61.34514 
L 186.03368 -61.34514 
L 187.27963 -61.34514 
L 188.52558 -61.34514 
L 189.77153 -61.34514 
L 191.01748 -61.34514 
L 192.26343 -61.34514 
L 193.50938 -61.34514 
L 194.75533 -61.34514 
L 196.00128 -61.34514 
L 197.24723 -61.34514 
L 198.493179 -61.34514 
L 199.739129 -61.34514 
L 200.985079 -61.34514 
L 202.231029 -61.34514 
L 203.476979 -61.34514 
L 204.722929 -61.34514 
L 205.968879 -61.34514 
L 207.214829 -61.34514 
L 208.460779 -61.34514 
L 209.706729 -61.34514 
L 210.952678 -61.34514 
L 212.198628 -61.34514 
L 213.444578 -61.34514 
L 214.690528 -61.34514 
L 215.936478 -61.34514 
L 217.182428 -61.34514 
L 218.428378 -61.34514 
L 219.674328 -61.34514 
L 220.920278 -61.34514 
L 222.166228 -61.34514 
L 223.412178 -61.34514 
L 224.658127 -61.34514 
L 225.904077 -61.34514 
L 227.150027 -61.34514 
L 228.395977 -61.34514 
L 229.641927 -61.34514 
L 230.887877 -61.34514 
L 232.133827 -61.34514 
L 233.379777 -61.34514 
L 234.625727 -61.34514 
L 235.871677 -61.34514 
L 237.117626 -61.34514 
L 238.363576 -61.34514 
L 239.609526 -61.34514 
L 240.855476 -61.34514 
L 242.101426 -61.34514 
L 243.347376 -61.34514 
L 244.593326 -61.34514 
L 245.839276 -61.34514 
L 247.085226 -61.34514 
L 248.331176 -61.34514 
L 249.577125 -61.34514 
L 250.823075 -61.34514 
L 252.069025 -61.34514 
L 253.314975 -61.34514 
L 254.560925 -61.34514 
L 255.806875 -61.34514 
L 257.052825 -61.34514 
L 258.298775 -61.34514 
L 259.544725 -61.34514 
L 260.790675 -61.34514 
L 262.036624 -61.34514 
L 263.282574 -61.34514 
L 264.528524 -61.34514 
L 265.774474 -61.34514 
L 267.020424 -61.34514 
L 268.266374 -61.34514 
L 269.512324 -61.34514 
L 270.758274 -61.34514 
L 272.004224 -61.34514 
L 273.250174 -61.34514 
L 274.496123 -61.34514 
L 275.742073 -61.34514 
L 276.988023 -61.34514 
L 278.233973 -61.34514 
L 279.479923 -61.34514 
L 280.725873 -61.34514 
L 281.971823 -61.34514 
L 283.217773 -61.34514 
L 284.463723 -61.34514 
L 285.709673 -61.34514 
L 286.955622 -61.34514 
L 288.201572 -61.34514 
L 289.447522 -61.34514 
L 290.693472 -61.34514 
L 291.939422 -61.34514 
L 293.185372 -61.34514 
L 294.431322 -61.34514 
L 295.677272 -61.34514 
L 296.923222 -61.34514 
L 298.169172 -61.34514 
L 299.415122 -61.34514 
L 300.661071 -61.34514 
L 301.907021 -61.34514 
L 303.152971 -61.34514 
L 304.398921 -61.34514 
L 305.644871 -61.34514 
L 306.890821 -61.34514 
L 308.136771 -61.34514 
L 309.382721 -61.34514 
L 310.628671 -61.34514 
L 311.874621 -61.34514 
L 313.12057 -61.34514 
L 314.36652 -61.34514 
L 315.61247 -61.34514 
L 316.85842 -61.34514 
L 318.10437 -61.34514 
L 319.35032 -61.34514 
L 320.59627 -61.34514 
L 321.84222 -61.34514 
L 323.08817 -61.34514 
L 323.08817 -61.345295 
L 323.08817 -61.345295 
L 321.84222 -61.345521 
L 320.59627 -61.346018 
L 319.35032 -61.347053 
L 318.10437 -61.349096 
L 316.85842 -61.352934 
L 315.61247 -61.359821 
L 314.36652 -61.371671 
L 313.12057 -61.391274 
L 311.874621 -61.42254 
L 310.628671 -61.470745 
L 309.382721 -61.542827 
L 308.136771 -61.647767 
L 306.890821 -61.797157 
L 305.644871 -62.00595 
L 304.398921 -62.29323 
L 303.152971 -62.6826 
L 301.907021 -63.20169 
L 300.661071 -63.88044 
L 299.415122 -64.748361 
L 298.169172 -65.831584 
L 296.923222 -67.150847 
L 295.677272 -68.721268 
L 294.431322 -70.553732 
L 293.185372 -72.656655 
L 291.939422 -75.036341 
L 290.693472 -77.694832 
L 289.447522 -80.625706 
L 288.201572 -83.809911 
L 286.955622 -87.214262 
L 285.709673 -90.794073 
L 284.463723 -94.499195 
L 283.217773 -98.280719 
L 281.971823 -102.09519 
L 280.725873 -105.904672 
L 279.479923 -109.67354 
L 278.233973 -113.364796 
L 276.988023 -116.938825 
L 275.742073 -120.35575 
L 274.496123 -123.580236 
L 273.250174 -126.586104 
L 272.004224 -129.358454 
L 270.758274 -131.892568 
L 269.512324 -134.190548 
L 268.266374 -136.25735 
L 267.020424 -138.097533 
L 265.774474 -139.713372 
L 264.528524 -141.104603 
L 263.282574 -142.270083 
L 262.036624 -143.211336 
L 260.790675 -143.937127 
L 259.544725 -144.467008 
L 258.298775 -144.831414 
L 257.052825 -145.067016 
L 255.806875 -145.208361 
L 254.560925 -145.279004 
L 253.314975 -145.285976 
L 252.069025 -145.220072 
L 250.823075 -145.061812 
L 249.577125 -144.790563 
L 248.331176 -144.39326 
L 247.085226 -143.869706 
L 245.839276 -143.233163 
L 244.593326 -142.506857 
L 243.347376 -141.718339 
L 242.101426 -140.893928 
L 240.855476 -140.054858 
L 239.609526 -139.215722 
L 238.363576 -138.385005 
L 237.117626 -137.567028 
L 235.871677 -136.764436 
L 234.625727 -135.980191 
L 233.379777 -135.21812 
L 232.133827 -134.481718 
L 230.887877 -133.771994 
L 229.641927 -133.086047 
L 228.395977 -132.417985 
L 227.150027 -131.762375 
L 225.904077 -131.118667 
L 224.658127 -130.494034 
L 223.412178 -129.902635 
L 222.166228 -129.361195 
L 220.920278 -128.882731 
L 219.674328 -128.47121 
L 218.428378 -128.119387 
L 217.182428 -127.810524 
L 215.936478 -127.522962 
L 214.690528 -127.23555 
L 213.444578 -126.93194 
L 212.198628 -126.602755 
L 210.952678 -126.245895 
L 209.706729 -125.866051 
L 208.460779 -125.474446 
L 207.214829 -125.088846 
L 205.968879 -124.732901 
L 204.722929 -124.433549 
L 203.476979 -124.216062 
L 202.231029 -124.097846 
L 200.985079 -124.08332 
L 199.739129 -124.162276 
L 198.493179 -124.312774 
L 197.24723 -124.507665 
L 196.00128 -124.722263 
L 194.75533 -124.940346 
L 193.50938 -125.156513 
L 192.26343 -125.374575 
L 191.01748 -125.603165 
L 189.77153 -125.85071 
L 188.52558 -126.121897 
L 187.27963 -126.416797 
L 186.03368 -126.732322 
L 184.787731 -127.064413 
L 183.541781 -127.409266 
L 182.295831 -127.763016 
L 181.049881 -128.120986 
L 179.803931 -128.478393 
L 178.557981 -128.833567 
L 177.312031 -129.192589 
L 176.066081 -129.572507 
L 174.820131 -130.000377 
L 173.574181 -130.507444 
L 172.328232 -131.12067 
L 171.082282 -131.85549 
L 169.836332 -132.713152 
L 168.590382 -133.683535 
L 167.344432 -134.75154 
L 166.098482 -135.90366 
L 164.852532 -137.131798 
L 163.606582 -138.433377 
L 162.360632 -139.808805 
L 161.114682 -141.258434 
L 159.868733 -142.780904 
L 158.622783 -144.373737 
L 157.376833 -146.035832 
L 156.130883 -147.770662 
L 154.884933 -149.588484 
L 153.638983 -151.506132 
L 152.393033 -153.543781 
L 151.147083 -155.719348 
L 149.901133 -158.042313 
L 148.655183 -160.508982 
L 147.409234 -163.100638 
L 146.163284 -165.784839 
L 144.917334 -168.519077 
L 143.671384 -171.25545 
L 142.425434 -173.945019 
L 141.179484 -176.540859 
L 139.933534 -178.999111 
L 138.687584 -181.27769 
L 137.441634 -183.332701 
L 136.195684 -185.113297 
L 134.949734 -186.556471 
L 133.703785 -187.583716 
L 132.457835 -188.101207 
L 131.211885 -188.004297 
L 129.965935 -187.186143 
L 128.719985 -185.549784 
L 127.474035 -183.022772 
L 126.228085 -179.573077 
L 124.982135 -175.224078 
L 123.736185 -170.065288 
L 122.490235 -164.255257 
L 121.244286 -158.014465 
L 119.998336 -151.608683 
L 118.752386 -145.325826 
L 117.506436 -139.450367 
L 116.260486 -134.238423 
L 115.014536 -129.89461 
L 113.768586 -126.550012 
L 112.522636 -124.240453 
L 111.276686 -122.886178 
L 110.030736 -122.277537 
L 108.784787 -122.075126 
L 107.538837 -121.834408 
L 106.292887 -121.061695 
L 105.046937 -119.299011 
L 103.800987 -116.221957 
L 102.555037 -111.723087 
L 101.309087 -105.950942 
L 100.063137 -99.286049 
L 98.817187 -92.256923 
L 97.571237 -85.421702 
L 96.325288 -79.253288 
L 95.079338 -74.061711 
L 93.833388 -69.970021 
L 92.587438 -66.938946 
L 91.341488 -64.820744 
L 90.095538 -63.419008 
L 88.849588 -62.537006 
L 87.603638 -62.006974 
L 86.357688 -61.701334 
L 85.111738 -61.531407 
L 83.865789 -61.439922 
L 82.619839 -61.392066 
L 81.373889 -61.367703 
L 80.127939 -61.355641 
L 78.881989 -61.349848 
L 77.636039 -61.347163 
L 76.390089 -61.345969 
L 75.144139 -61.345462 
z
" style="stroke: #029e73; stroke-width: 2"/>
    </defs>
    <g clip-path="url(#pb81efd64d5)">
     <use xlink:href="#m12417be43c" x="0" y="360" style="fill: #029e73; fill-opacity: 0.2; stroke: #029e73; stroke-width: 2"/>
    </g>
   </g>
   <g id="PolyCollection_4">
    <path d="M -63.575235 298.654789 
L -63.575235 298.65486 
L -61.525498 298.65486 
L -59.475762 298.65486 
L -57.426025 298.65486 
L -55.376288 298.65486 
L -53.326552 298.65486 
L -51.276815 298.65486 
L -49.227078 298.65486 
L -47.177342 298.65486 
L -45.127605 298.65486 
L -43.077868 298.65486 
L -41.028132 298.65486 
L -38.978395 298.65486 
L -36.928658 298.65486 
L -34.878922 298.65486 
L -32.829185 298.65486 
L -30.779448 298.65486 
L -28.729712 298.65486 
L -26.679975 298.65486 
L -24.630238 298.65486 
L -22.580502 298.65486 
L -20.530765 298.65486 
L -18.481028 298.65486 
L -16.431292 298.65486 
L -14.381555 298.65486 
L -12.331818 298.65486 
L -10.282082 298.65486 
L -8.232345 298.65486 
L -6.182609 298.65486 
L -4.132872 298.65486 
L -2.083135 298.65486 
L -0.033399 298.65486 
L 2.016338 298.65486 
L 4.066075 298.65486 
L 6.115811 298.65486 
L 8.165548 298.65486 
L 10.215285 298.65486 
L 12.265021 298.65486 
L 14.314758 298.65486 
L 16.364495 298.65486 
L 18.414231 298.65486 
L 20.463968 298.65486 
L 22.513705 298.65486 
L 24.563441 298.65486 
L 26.613178 298.65486 
L 28.662915 298.65486 
L 30.712651 298.65486 
L 32.762388 298.65486 
L 34.812125 298.65486 
L 36.861861 298.65486 
L 38.911598 298.65486 
L 40.961335 298.65486 
L 43.011071 298.65486 
L 45.060808 298.65486 
L 47.110545 298.65486 
L 49.160281 298.65486 
L 51.210018 298.65486 
L 53.259755 298.65486 
L 55.309491 298.65486 
L 57.359228 298.65486 
L 59.408965 298.65486 
L 61.458701 298.65486 
L 63.508438 298.65486 
L 65.558175 298.65486 
L 67.607911 298.65486 
L 69.657648 298.65486 
L 71.707384 298.65486 
L 73.757121 298.65486 
L 75.806858 298.65486 
L 77.856594 298.65486 
L 79.906331 298.65486 
L 81.956068 298.65486 
L 84.005804 298.65486 
L 86.055541 298.65486 
L 88.105278 298.65486 
L 90.155014 298.65486 
L 92.204751 298.65486 
L 94.254488 298.65486 
L 96.304224 298.65486 
L 98.353961 298.65486 
L 100.403698 298.65486 
L 102.453434 298.65486 
L 104.503171 298.65486 
L 106.552908 298.65486 
L 108.602644 298.65486 
L 110.652381 298.65486 
L 112.702118 298.65486 
L 114.751854 298.65486 
L 116.801591 298.65486 
L 118.851328 298.65486 
L 120.901064 298.65486 
L 122.950801 298.65486 
L 125.000538 298.65486 
L 127.050274 298.65486 
L 129.100011 298.65486 
L 131.149748 298.65486 
L 133.199484 298.65486 
L 135.249221 298.65486 
L 137.298958 298.65486 
L 139.348694 298.65486 
L 141.398431 298.65486 
L 143.448168 298.65486 
L 145.497904 298.65486 
L 147.547641 298.65486 
L 149.597378 298.65486 
L 151.647114 298.65486 
L 153.696851 298.65486 
L 155.746587 298.65486 
L 157.796324 298.65486 
L 159.846061 298.65486 
L 161.895797 298.65486 
L 163.945534 298.65486 
L 165.995271 298.65486 
L 168.045007 298.65486 
L 170.094744 298.65486 
L 172.144481 298.65486 
L 174.194217 298.65486 
L 176.243954 298.65486 
L 178.293691 298.65486 
L 180.343427 298.65486 
L 182.393164 298.65486 
L 184.442901 298.65486 
L 186.492637 298.65486 
L 188.542374 298.65486 
L 190.592111 298.65486 
L 192.641847 298.65486 
L 194.691584 298.65486 
L 196.741321 298.65486 
L 198.791057 298.65486 
L 200.840794 298.65486 
L 202.890531 298.65486 
L 204.940267 298.65486 
L 206.990004 298.65486 
L 209.039741 298.65486 
L 211.089477 298.65486 
L 213.139214 298.65486 
L 215.188951 298.65486 
L 217.238687 298.65486 
L 219.288424 298.65486 
L 221.338161 298.65486 
L 223.387897 298.65486 
L 225.437634 298.65486 
L 227.487371 298.65486 
L 229.537107 298.65486 
L 231.586844 298.65486 
L 233.636581 298.65486 
L 235.686317 298.65486 
L 237.736054 298.65486 
L 239.78579 298.65486 
L 241.835527 298.65486 
L 243.885264 298.65486 
L 245.935 298.65486 
L 247.984737 298.65486 
L 250.034474 298.65486 
L 252.08421 298.65486 
L 254.133947 298.65486 
L 256.183684 298.65486 
L 258.23342 298.65486 
L 260.283157 298.65486 
L 262.332894 298.65486 
L 264.38263 298.65486 
L 266.432367 298.65486 
L 268.482104 298.65486 
L 270.53184 298.65486 
L 272.581577 298.65486 
L 274.631314 298.65486 
L 276.68105 298.65486 
L 278.730787 298.65486 
L 280.780524 298.65486 
L 282.83026 298.65486 
L 284.879997 298.65486 
L 286.929734 298.65486 
L 288.97947 298.65486 
L 291.029207 298.65486 
L 293.078944 298.65486 
L 295.12868 298.65486 
L 297.178417 298.65486 
L 299.228154 298.65486 
L 301.27789 298.65486 
L 303.327627 298.65486 
L 305.377364 298.65486 
L 307.4271 298.65486 
L 309.476837 298.65486 
L 311.526574 298.65486 
L 313.57631 298.65486 
L 315.626047 298.65486 
L 317.675784 298.65486 
L 319.72552 298.65486 
L 321.775257 298.65486 
L 323.824993 298.65486 
L 325.87473 298.65486 
L 327.924467 298.65486 
L 329.974203 298.65486 
L 332.02394 298.65486 
L 334.073677 298.65486 
L 336.123413 298.65486 
L 338.17315 298.65486 
L 340.222887 298.65486 
L 342.272623 298.65486 
L 344.32236 298.65486 
L 344.32236 298.652952 
L 344.32236 298.652952 
L 342.272623 298.642912 
L 340.222887 298.59532 
L 338.17315 298.415399 
L 336.123413 297.864959 
L 334.073677 296.480333 
L 332.02394 293.569859 
L 329.974203 288.377252 
L 327.924467 280.393816 
L 325.87473 269.657296 
L 323.824993 256.849856 
L 321.775257 243.13742 
L 319.72552 229.830128 
L 317.675784 218.021597 
L 315.626047 208.388342 
L 313.57631 201.213627 
L 311.526574 196.499796 
L 309.476837 194.014313 
L 307.4271 193.318165 
L 305.377364 193.919698 
L 303.327627 195.490898 
L 301.27789 197.897578 
L 299.228154 200.986135 
L 297.178417 204.420422 
L 295.12868 207.829202 
L 293.078944 211.083682 
L 291.029207 214.322419 
L 288.97947 217.696619 
L 286.929734 221.173461 
L 284.879997 224.601335 
L 282.83026 227.883779 
L 280.780524 231.029373 
L 278.730787 234.072376 
L 276.68105 237.024068 
L 274.631314 239.903038 
L 272.581577 242.746024 
L 270.53184 245.560297 
L 268.482104 248.292683 
L 266.432367 250.871773 
L 264.38263 253.282434 
L 262.332894 255.581092 
L 260.283157 257.818261 
L 258.23342 259.958409 
L 256.183684 261.91763 
L 254.133947 263.684817 
L 252.08421 265.355759 
L 250.034474 267.030435 
L 247.984737 268.720861 
L 245.935 270.375821 
L 243.885264 271.955419 
L 241.835527 273.461007 
L 239.78579 274.916648 
L 237.736054 276.336335 
L 235.686317 277.693944 
L 233.636581 278.913887 
L 231.586844 279.912357 
L 229.537107 280.683576 
L 227.487371 281.343813 
L 225.437634 282.048535 
L 223.387897 282.855502 
L 221.338161 283.701301 
L 219.288424 284.504597 
L 217.238687 285.24427 
L 215.188951 285.938802 
L 213.139214 286.597298 
L 211.089477 287.207892 
L 209.039741 287.759423 
L 206.990004 288.266744 
L 204.940267 288.768436 
L 202.890531 289.29025 
L 200.840794 289.82006 
L 198.791057 290.331482 
L 196.741321 290.81615 
L 194.691584 291.275098 
L 192.641847 291.69564 
L 190.592111 292.060913 
L 188.542374 292.380055 
L 186.492637 292.69079 
L 184.442901 293.018219 
L 182.393164 293.33787 
L 180.343427 293.599613 
L 178.293691 293.788362 
L 176.243954 293.945854 
L 174.194217 294.133311 
L 172.144481 294.382909 
L 170.094744 294.682575 
L 168.045007 294.994027 
L 165.995271 295.278627 
L 163.945534 295.514553 
L 161.895797 295.702687 
L 159.846061 295.86061 
L 157.796324 296.006705 
L 155.746587 296.145771 
L 153.696851 296.269412 
L 151.647114 296.370788 
L 149.597378 296.458221 
L 147.547641 296.549818 
L 145.497904 296.652638 
L 143.448168 296.756703 
L 141.398431 296.853613 
L 139.348694 296.94798 
L 137.298958 297.046268 
L 135.249221 297.146445 
L 133.199484 297.240904 
L 131.149748 297.321962 
L 129.100011 297.385789 
L 127.050274 297.436651 
L 125.000538 297.486496 
L 122.950801 297.546241 
L 120.901064 297.615294 
L 118.851328 297.681528 
L 116.801591 297.734725 
L 114.751854 297.777476 
L 112.702118 297.819342 
L 110.652381 297.865257 
L 108.602644 297.914023 
L 106.552908 297.961402 
L 104.503171 298.00127 
L 102.453434 298.031605 
L 100.403698 298.05938 
L 98.353961 298.090731 
L 96.304224 298.119771 
L 94.254488 298.136629 
L 92.204751 298.142604 
L 90.155014 298.148778 
L 88.105278 298.162131 
L 86.055541 298.179905 
L 84.005804 298.19757 
L 81.956068 298.217048 
L 79.906331 298.243406 
L 77.856594 298.27484 
L 75.806858 298.301391 
L 73.757121 298.316786 
L 71.707384 298.32763 
L 69.657648 298.346144 
L 67.607911 298.376246 
L 65.558175 298.410267 
L 63.508438 298.437276 
L 61.458701 298.45244 
L 59.408965 298.458618 
L 57.359228 298.460723 
L 55.309491 298.461886 
L 53.259755 298.465007 
L 51.210018 298.473514 
L 49.160281 298.488193 
L 47.110545 298.504834 
L 45.060808 298.517239 
L 43.011071 298.523284 
L 40.961335 298.526774 
L 38.911598 298.532773 
L 36.861861 298.54234 
L 34.812125 298.552047 
L 32.762388 298.557928 
L 30.712651 298.560224 
L 28.662915 298.563827 
L 26.613178 298.572724 
L 24.563441 298.585261 
L 22.513705 298.596758 
L 20.463968 298.605159 
L 18.414231 298.611864 
L 16.364495 298.618355 
L 14.314758 298.624226 
L 12.265021 298.62763 
L 10.215285 298.626431 
L 8.165548 298.620551 
L 6.115811 298.613828 
L 4.066075 298.611282 
L 2.016338 298.613945 
L -0.033399 298.618374 
L -2.083135 298.621459 
L -4.132872 298.623672 
L -6.182609 298.626899 
L -8.232345 298.630853 
L -10.282082 298.633283 
L -12.331818 298.632898 
L -14.381555 298.630742 
L -16.431292 298.629175 
L -18.481028 298.630209 
L -20.530765 298.634209 
L -22.580502 298.639637 
L -24.630238 298.643968 
L -26.679975 298.645019 
L -28.729712 298.642352 
L -30.779448 298.638129 
L -32.829185 298.635716 
L -34.878922 298.636489 
L -36.928658 298.638751 
L -38.978395 298.640292 
L -41.028132 298.640617 
L -43.077868 298.640151 
L -45.127605 298.638981 
L -47.177342 298.637495 
L -49.227078 298.637142 
L -51.276815 298.639258 
L -53.326552 298.643517 
L -55.376288 298.648198 
L -57.426025 298.651744 
L -59.475762 298.653714 
L -61.525498 298.654533 
L -63.575235 298.654789 
z
" clip-path="url(#pb81efd64d5)" style="fill: #de8f05; fill-opacity: 0.2; stroke: #de8f05; stroke-width: 2"/>
   </g>
   <g id="PolyCollection_5">
    <defs>
     <path id="m86e37f2b6c" d="M 38.06524 -61.345206 
L 38.06524 -61.34514 
L 39.582785 -61.34514 
L 41.100331 -61.34514 
L 42.617876 -61.34514 
L 44.135421 -61.34514 
L 45.652966 -61.34514 
L 47.170511 -61.34514 
L 48.688057 -61.34514 
L 50.205602 -61.34514 
L 51.723147 -61.34514 
L 53.240692 -61.34514 
L 54.758237 -61.34514 
L 56.275783 -61.34514 
L 57.793328 -61.34514 
L 59.310873 -61.34514 
L 60.828418 -61.34514 
L 62.345964 -61.34514 
L 63.863509 -61.34514 
L 65.381054 -61.34514 
L 66.898599 -61.34514 
L 68.416144 -61.34514 
L 69.93369 -61.34514 
L 71.451235 -61.34514 
L 72.96878 -61.34514 
L 74.486325 -61.34514 
L 76.00387 -61.34514 
L 77.521416 -61.34514 
L 79.038961 -61.34514 
L 80.556506 -61.34514 
L 82.074051 -61.34514 
L 83.591596 -61.34514 
L 85.109142 -61.34514 
L 86.626687 -61.34514 
L 88.144232 -61.34514 
L 89.661777 -61.34514 
L 91.179322 -61.34514 
L 92.696868 -61.34514 
L 94.214413 -61.34514 
L 95.731958 -61.34514 
L 97.249503 -61.34514 
L 98.767049 -61.34514 
L 100.284594 -61.34514 
L 101.802139 -61.34514 
L 103.319684 -61.34514 
L 104.837229 -61.34514 
L 106.354775 -61.34514 
L 107.87232 -61.34514 
L 109.389865 -61.34514 
L 110.90741 -61.34514 
L 112.424955 -61.34514 
L 113.942501 -61.34514 
L 115.460046 -61.34514 
L 116.977591 -61.34514 
L 118.495136 -61.34514 
L 120.012681 -61.34514 
L 121.530227 -61.34514 
L 123.047772 -61.34514 
L 124.565317 -61.34514 
L 126.082862 -61.34514 
L 127.600407 -61.34514 
L 129.117953 -61.34514 
L 130.635498 -61.34514 
L 132.153043 -61.34514 
L 133.670588 -61.34514 
L 135.188134 -61.34514 
L 136.705679 -61.34514 
L 138.223224 -61.34514 
L 139.740769 -61.34514 
L 141.258314 -61.34514 
L 142.77586 -61.34514 
L 144.293405 -61.34514 
L 145.81095 -61.34514 
L 147.328495 -61.34514 
L 148.84604 -61.34514 
L 150.363586 -61.34514 
L 151.881131 -61.34514 
L 153.398676 -61.34514 
L 154.916221 -61.34514 
L 156.433766 -61.34514 
L 157.951312 -61.34514 
L 159.468857 -61.34514 
L 160.986402 -61.34514 
L 162.503947 -61.34514 
L 164.021492 -61.34514 
L 165.539038 -61.34514 
L 167.056583 -61.34514 
L 168.574128 -61.34514 
L 170.091673 -61.34514 
L 171.609219 -61.34514 
L 173.126764 -61.34514 
L 174.644309 -61.34514 
L 176.161854 -61.34514 
L 177.679399 -61.34514 
L 179.196945 -61.34514 
L 180.71449 -61.34514 
L 182.232035 -61.34514 
L 183.74958 -61.34514 
L 185.267125 -61.34514 
L 186.784671 -61.34514 
L 188.302216 -61.34514 
L 189.819761 -61.34514 
L 191.337306 -61.34514 
L 192.854851 -61.34514 
L 194.372397 -61.34514 
L 195.889942 -61.34514 
L 197.407487 -61.34514 
L 198.925032 -61.34514 
L 200.442577 -61.34514 
L 201.960123 -61.34514 
L 203.477668 -61.34514 
L 204.995213 -61.34514 
L 206.512758 -61.34514 
L 208.030304 -61.34514 
L 209.547849 -61.34514 
L 211.065394 -61.34514 
L 212.582939 -61.34514 
L 214.100484 -61.34514 
L 215.61803 -61.34514 
L 217.135575 -61.34514 
L 218.65312 -61.34514 
L 220.170665 -61.34514 
L 221.68821 -61.34514 
L 223.205756 -61.34514 
L 224.723301 -61.34514 
L 226.240846 -61.34514 
L 227.758391 -61.34514 
L 229.275936 -61.34514 
L 230.793482 -61.34514 
L 232.311027 -61.34514 
L 233.828572 -61.34514 
L 235.346117 -61.34514 
L 236.863662 -61.34514 
L 238.381208 -61.34514 
L 239.898753 -61.34514 
L 241.416298 -61.34514 
L 242.933843 -61.34514 
L 244.451389 -61.34514 
L 245.968934 -61.34514 
L 247.486479 -61.34514 
L 249.004024 -61.34514 
L 250.521569 -61.34514 
L 252.039115 -61.34514 
L 253.55666 -61.34514 
L 255.074205 -61.34514 
L 256.59175 -61.34514 
L 258.109295 -61.34514 
L 259.626841 -61.34514 
L 261.144386 -61.34514 
L 262.661931 -61.34514 
L 264.179476 -61.34514 
L 265.697021 -61.34514 
L 267.214567 -61.34514 
L 268.732112 -61.34514 
L 270.249657 -61.34514 
L 271.767202 -61.34514 
L 273.284747 -61.34514 
L 274.802293 -61.34514 
L 276.319838 -61.34514 
L 277.837383 -61.34514 
L 279.354928 -61.34514 
L 280.872473 -61.34514 
L 282.390019 -61.34514 
L 283.907564 -61.34514 
L 285.425109 -61.34514 
L 286.942654 -61.34514 
L 288.4602 -61.34514 
L 289.977745 -61.34514 
L 291.49529 -61.34514 
L 293.012835 -61.34514 
L 294.53038 -61.34514 
L 296.047926 -61.34514 
L 297.565471 -61.34514 
L 299.083016 -61.34514 
L 300.600561 -61.34514 
L 302.118106 -61.34514 
L 303.635652 -61.34514 
L 305.153197 -61.34514 
L 306.670742 -61.34514 
L 308.188287 -61.34514 
L 309.705832 -61.34514 
L 311.223378 -61.34514 
L 312.740923 -61.34514 
L 314.258468 -61.34514 
L 315.776013 -61.34514 
L 317.293558 -61.34514 
L 318.811104 -61.34514 
L 320.328649 -61.34514 
L 321.846194 -61.34514 
L 323.363739 -61.34514 
L 324.881285 -61.34514 
L 326.39883 -61.34514 
L 327.916375 -61.34514 
L 329.43392 -61.34514 
L 330.951465 -61.34514 
L 332.469011 -61.34514 
L 333.986556 -61.34514 
L 335.504101 -61.34514 
L 337.021646 -61.34514 
L 338.539191 -61.34514 
L 340.056737 -61.34514 
L 340.056737 -61.361761 
L 340.056737 -61.361761 
L 338.539191 -61.405121 
L 337.021646 -61.534496 
L 335.504101 -61.87139 
L 333.986556 -62.642059 
L 332.469011 -64.202289 
L 330.951465 -67.020151 
L 329.43392 -71.597538 
L 327.916375 -78.339479 
L 326.39883 -87.411142 
L 324.881285 -98.630893 
L 323.363739 -111.427158 
L 321.846194 -124.868425 
L 320.328649 -137.788828 
L 318.811104 -149.035468 
L 317.293558 -157.787236 
L 315.776013 -163.783484 
L 314.258468 -167.30992 
L 312.740923 -168.960417 
L 311.223378 -169.354868 
L 309.705832 -168.976255 
L 308.188287 -168.143628 
L 306.670742 -167.036647 
L 305.153197 -165.709074 
L 303.635652 -164.10114 
L 302.118106 -162.087706 
L 300.600561 -159.564476 
L 299.083016 -156.530132 
L 297.565471 -153.114798 
L 296.047926 -149.53784 
L 294.53038 -146.023551 
L 293.012835 -142.728589 
L 291.49529 -139.719323 
L 289.977745 -136.992959 
L 288.4602 -134.50806 
L 286.942654 -132.203498 
L 285.425109 -130.011905 
L 283.907564 -127.876333 
L 282.390019 -125.763756 
L 280.872473 -123.666871 
L 279.354928 -121.597886 
L 277.837383 -119.58208 
L 276.319838 -117.650649 
L 274.802293 -115.829506 
L 273.284747 -114.130487 
L 271.767202 -112.556004 
L 270.249657 -111.113461 
L 268.732112 -109.817826 
L 267.214567 -108.669835 
L 265.697021 -107.630021 
L 264.179476 -106.623007 
L 262.661931 -105.577458 
L 261.144386 -104.467472 
L 259.626841 -103.318965 
L 258.109295 -102.17886 
L 256.59175 -101.075294 
L 255.074205 -99.998965 
L 253.55666 -98.916458 
L 252.039115 -97.801986 
L 250.521569 -96.659091 
L 249.004024 -95.511925 
L 247.486479 -94.374919 
L 245.968934 -93.233266 
L 244.451389 -92.05644 
L 242.933843 -90.830847 
L 241.416298 -89.576584 
L 239.898753 -88.333189 
L 238.381208 -87.134636 
L 236.863662 -85.999661 
L 235.346117 -84.937284 
L 233.828572 -83.949758 
L 232.311027 -83.027357 
L 230.793482 -82.147056 
L 229.275936 -81.283023 
L 227.758391 -80.419821 
L 226.240846 -79.554479 
L 224.723301 -78.687303 
L 223.205756 -77.815376 
L 221.68821 -76.939435 
L 220.170665 -76.077105 
L 218.65312 -75.264433 
L 217.135575 -74.537821 
L 215.61803 -73.909822 
L 214.100484 -73.360457 
L 212.582939 -72.851538 
L 211.065394 -72.350748 
L 209.547849 -71.84673 
L 208.030304 -71.34844 
L 206.512758 -70.874993 
L 204.995213 -70.443768 
L 203.477668 -70.060016 
L 201.960123 -69.711271 
L 200.442577 -69.372314 
L 198.925032 -69.020997 
L 197.407487 -68.653842 
L 195.889942 -68.288154 
L 194.372397 -67.949477 
L 192.854851 -67.655789 
L 191.337306 -67.409649 
L 189.819761 -67.200016 
L 188.302216 -67.008766 
L 186.784671 -66.81774 
L 185.267125 -66.615079 
L 183.74958 -66.399202 
L 182.232035 -66.177562 
L 180.71449 -65.960076 
L 179.196945 -65.752101 
L 177.679399 -65.552787 
L 176.161854 -65.359927 
L 174.644309 -65.176754 
L 173.126764 -65.014382 
L 171.609219 -64.887312 
L 170.091673 -64.805144 
L 168.574128 -64.766123 
L 167.056583 -64.755943 
L 165.539038 -64.75199 
L 164.021492 -64.731428 
L 162.503947 -64.68021 
L 160.986402 -64.598558 
L 159.468857 -64.499102 
L 157.951312 -64.398371 
L 156.433766 -64.30745 
L 154.916221 -64.228176 
L 153.398676 -64.156332 
L 151.881131 -64.087799 
L 150.363586 -64.022359 
L 148.84604 -63.962598 
L 147.328495 -63.909572 
L 145.81095 -63.859556 
L 144.293405 -63.805352 
L 142.77586 -63.741111 
L 141.258314 -63.6659 
L 139.740769 -63.5826 
L 138.223224 -63.493877 
L 136.705679 -63.399946 
L 135.188134 -63.300539 
L 133.670588 -63.198783 
L 132.153043 -63.102523 
L 130.635498 -63.020833 
L 129.117953 -62.957881 
L 127.600407 -62.909062 
L 126.082862 -62.863237 
L 124.565317 -62.810197 
L 123.047772 -62.747678 
L 121.530227 -62.681945 
L 120.012681 -62.621429 
L 118.495136 -62.569387 
L 116.977591 -62.522364 
L 115.460046 -62.475244 
L 113.942501 -62.427084 
L 112.424955 -62.381631 
L 110.90741 -62.342533 
L 109.389865 -62.308926 
L 107.87232 -62.276106 
L 106.354775 -62.239996 
L 104.837229 -62.200183 
L 103.319684 -62.158555 
L 101.802139 -62.115931 
L 100.284594 -62.071037 
L 98.767049 -62.022817 
L 97.249503 -61.972951 
L 95.731958 -61.925515 
L 94.214413 -61.884131 
L 92.696868 -61.849448 
L 91.179322 -61.819019 
L 89.661777 -61.789457 
L 88.144232 -61.759191 
L 86.626687 -61.729773 
L 85.109142 -61.704583 
L 83.591596 -61.685736 
L 82.074051 -61.671709 
L 80.556506 -61.65777 
L 79.038961 -61.638868 
L 77.521416 -61.612582 
L 76.00387 -61.58005 
L 74.486325 -61.544721 
L 72.96878 -61.510402 
L 71.451235 -61.480019 
L 69.93369 -61.455305 
L 68.416144 -61.436773 
L 66.898599 -61.423616 
L 65.381054 -61.413883 
L 63.863509 -61.40533 
L 62.345964 -61.396527 
L 60.828418 -61.387356 
L 59.310873 -61.378575 
L 57.793328 -61.370988 
L 56.275783 -61.364971 
L 54.758237 -61.360515 
L 53.240692 -61.35742 
L 51.723147 -61.35535 
L 50.205602 -61.353826 
L 48.688057 -61.352364 
L 47.170511 -61.350721 
L 45.652966 -61.348994 
L 44.135421 -61.347464 
L 42.617876 -61.346349 
L 41.100331 -61.345679 
L 39.582785 -61.345345 
L 38.06524 -61.345206 
z
" style="stroke: #0173b2; stroke-width: 2"/>
    </defs>
    <g clip-path="url(#pb81efd64d5)">
     <use xlink:href="#m86e37f2b6c" x="0" y="360" style="fill: #0173b2; fill-opacity: 0.2; stroke: #0173b2; stroke-width: 2"/>
    </g>
   </g>
   <g id="matplotlib.axis_1">
    <g id="xtick_1">
     <g id="line2d_1">
      <defs>
       <path id="m4e5e5ca9f7" d="M 0 0 
L 0 3.5 
" style="stroke: #000000; stroke-width: 0.8"/>
      </defs>
      <g>
       <use xlink:href="#m4e5e5ca9f7" x="107.584361" y="298.65486" style="stroke: #000000; stroke-width: 0.8"/>
      </g>
     </g>
     <g id="text_1">
      <!-- 20000 -->
      <g transform="translate(98.288117 333.522602) rotate(-45) scale(0.1 -0.1)">
       <defs>
        <path id="DejaVuSerif-32" d="M 819 3553 
L 469 3553 
L 469 4384 
Q 803 4563 1142 4656 
Q 1481 4750 1806 4750 
Q 2534 4750 2956 4397 
Q 3378 4044 3378 3438 
Q 3378 2753 2422 1800 
Q 2347 1728 2309 1691 
L 1131 513 
L 3078 513 
L 3078 1088 
L 3444 1088 
L 3444 0 
L 434 0 
L 434 341 
L 1850 1753 
Q 2319 2222 2519 2614 
Q 2719 3006 2719 3438 
Q 2719 3909 2473 4175 
Q 2228 4441 1797 4441 
Q 1350 4441 1106 4219 
Q 863 3997 819 3553 
z
" transform="scale(0.015625)"/>
        <path id="DejaVuSerif-30" d="M 2034 219 
Q 2513 219 2750 744 
Q 2988 1269 2988 2328 
Q 2988 3391 2750 3916 
Q 2513 4441 2034 4441 
Q 1556 4441 1318 3916 
Q 1081 3391 1081 2328 
Q 1081 1269 1318 744 
Q 1556 219 2034 219 
z
M 2034 -91 
Q 1275 -91 848 546 
Q 422 1184 422 2328 
Q 422 3475 848 4112 
Q 1275 4750 2034 4750 
Q 2797 4750 3222 4112 
Q 3647 3475 3647 2328 
Q 3647 1184 3222 546 
Q 2797 -91 2034 -91 
z
" transform="scale(0.015625)"/>
       </defs>
       <use xlink:href="#DejaVuSerif-32"/>
       <use xlink:href="#DejaVuSerif-30" x="63.623047"/>
       <use xlink:href="#DejaVuSerif-30" x="127.246094"/>
       <use xlink:href="#DejaVuSerif-30" x="190.869141"/>
       <use xlink:href="#DejaVuSerif-30" x="254.492188"/>
      </g>
     </g>
    </g>
    <g id="xtick_2">
     <g id="line2d_2">
      <g>
       <use xlink:href="#m4e5e5ca9f7" x="164.313083" y="298.65486" style="stroke: #000000; stroke-width: 0.8"/>
      </g>
     </g>
     <g id="text_2">
      <!-- 22000 -->
      <g transform="translate(155.016839 333.522602) rotate(-45) scale(0.1 -0.1)">
       <use xlink:href="#DejaVuSerif-32"/>
       <use xlink:href="#DejaVuSerif-32" x="63.623047"/>
       <use xlink:href="#DejaVuSerif-30" x="127.246094"/>
       <use xlink:href="#DejaVuSerif-30" x="190.869141"/>
       <use xlink:href="#DejaVuSerif-30" x="254.492188"/>
      </g>
     </g>
    </g>
    <g id="xtick_3">
     <g id="line2d_3">
      <g>
       <use xlink:href="#m4e5e5ca9f7" x="221.041806" y="298.65486" style="stroke: #000000; stroke-width: 0.8"/>
      </g>
     </g>
     <g id="text_3">
      <!-- 24000 -->
      <g transform="translate(211.745561 333.522602) rotate(-45) scale(0.1 -0.1)">
       <defs>
        <path id="DejaVuSerif-34" d="M 2234 1581 
L 2234 4063 
L 641 1581 
L 2234 1581 
z
M 3609 0 
L 1484 0 
L 1484 331 
L 2234 331 
L 2234 1247 
L 197 1247 
L 197 1588 
L 2241 4750 
L 2859 4750 
L 2859 1581 
L 3750 1581 
L 3750 1247 
L 2859 1247 
L 2859 331 
L 3609 331 
L 3609 0 
z
" transform="scale(0.015625)"/>
       </defs>
       <use xlink:href="#DejaVuSerif-32"/>
       <use xlink:href="#DejaVuSerif-34" x="63.623047"/>
       <use xlink:href="#DejaVuSerif-30" x="127.246094"/>
       <use xlink:href="#DejaVuSerif-30" x="190.869141"/>
       <use xlink:href="#DejaVuSerif-30" x="254.492188"/>
      </g>
     </g>
    </g>
    <g id="xtick_4">
     <g id="line2d_4">
      <g>
       <use xlink:href="#m4e5e5ca9f7" x="277.770528" y="298.65486" style="stroke: #000000; stroke-width: 0.8"/>
      </g>
     </g>
     <g id="text_4">
      <!-- 26000 -->
      <g transform="translate(268.474283 333.522602) rotate(-45) scale(0.1 -0.1)">
       <defs>
        <path id="DejaVuSerif-36" d="M 2094 219 
Q 2534 219 2771 542 
Q 3009 866 3009 1472 
Q 3009 2078 2771 2401 
Q 2534 2725 2094 2725 
Q 1647 2725 1412 2412 
Q 1178 2100 1178 1509 
Q 1178 888 1415 553 
Q 1653 219 2094 219 
z
M 1075 2569 
Q 1288 2803 1556 2918 
Q 1825 3034 2163 3034 
Q 2859 3034 3264 2615 
Q 3669 2197 3669 1472 
Q 3669 763 3233 336 
Q 2797 -91 2069 -91 
Q 1278 -91 853 498 
Q 428 1088 428 2181 
Q 428 3406 931 4078 
Q 1434 4750 2350 4750 
Q 2597 4750 2869 4703 
Q 3141 4656 3425 4563 
L 3425 3794 
L 3072 3794 
Q 3034 4109 2831 4275 
Q 2628 4441 2284 4441 
Q 1678 4441 1381 3981 
Q 1084 3522 1075 2569 
z
" transform="scale(0.015625)"/>
       </defs>
       <use xlink:href="#DejaVuSerif-32"/>
       <use xlink:href="#DejaVuSerif-36" x="63.623047"/>
       <use xlink:href="#DejaVuSerif-30" x="127.246094"/>
       <use xlink:href="#DejaVuSerif-30" x="190.869141"/>
       <use xlink:href="#DejaVuSerif-30" x="254.492188"/>
      </g>
     </g>
    </g>
    <g id="xtick_5">
     <g id="line2d_5">
      <g>
       <use xlink:href="#m4e5e5ca9f7" x="334.49925" y="298.65486" style="stroke: #000000; stroke-width: 0.8"/>
      </g>
     </g>
     <g id="text_5">
      <!-- 28000 -->
      <g transform="translate(325.203006 333.522602) rotate(-45) scale(0.1 -0.1)">
       <defs>
        <path id="DejaVuSerif-38" d="M 2981 1275 
Q 2981 1775 2732 2051 
Q 2484 2328 2034 2328 
Q 1584 2328 1336 2051 
Q 1088 1775 1088 1275 
Q 1088 772 1336 495 
Q 1584 219 2034 219 
Q 2484 219 2732 495 
Q 2981 772 2981 1275 
z
M 2853 3541 
Q 2853 3966 2637 4203 
Q 2422 4441 2034 4441 
Q 1650 4441 1433 4203 
Q 1216 3966 1216 3541 
Q 1216 3113 1433 2875 
Q 1650 2638 2034 2638 
Q 2422 2638 2637 2875 
Q 2853 3113 2853 3541 
z
M 2516 2484 
Q 3047 2413 3344 2092 
Q 3641 1772 3641 1275 
Q 3641 619 3225 264 
Q 2809 -91 2034 -91 
Q 1263 -91 845 264 
Q 428 619 428 1275 
Q 428 1772 725 2092 
Q 1022 2413 1556 2484 
Q 1084 2569 832 2842 
Q 581 3116 581 3541 
Q 581 4103 968 4426 
Q 1356 4750 2034 4750 
Q 2713 4750 3100 4426 
Q 3488 4103 3488 3541 
Q 3488 3116 3236 2842 
Q 2984 2569 2516 2484 
z
" transform="scale(0.015625)"/>
       </defs>
       <use xlink:href="#DejaVuSerif-32"/>
       <use xlink:href="#DejaVuSerif-38" x="63.623047"/>
       <use xlink:href="#DejaVuSerif-30" x="127.246094"/>
       <use xlink:href="#DejaVuSerif-30" x="190.869141"/>
       <use xlink:href="#DejaVuSerif-30" x="254.492188"/>
      </g>
     </g>
    </g>
    <g id="text_6">
     <!-- Number of zeroes per cell -->
     <g transform="translate(140.729156 346.5916) scale(0.1 -0.1)">
      <defs>
       <path id="DejaVuSerif-4e" d="M 313 0 
L 313 331 
L 941 331 
L 941 4331 
L 313 4331 
L 313 4666 
L 1509 4666 
L 4306 984 
L 4306 4331 
L 3681 4331 
L 3681 4666 
L 5319 4666 
L 5319 4331 
L 4691 4331 
L 4691 -91 
L 4313 -91 
L 1325 3841 
L 1325 331 
L 1953 331 
L 1953 0 
L 313 0 
z
" transform="scale(0.015625)"/>
       <path id="DejaVuSerif-75" d="M 2266 3322 
L 3341 3322 
L 3341 331 
L 3884 331 
L 3884 0 
L 2766 0 
L 2766 588 
Q 2606 256 2353 82 
Q 2100 -91 1766 -91 
Q 1213 -91 952 223 
Q 691 538 691 1209 
L 691 2988 
L 172 2988 
L 172 3322 
L 1269 3322 
L 1269 1388 
Q 1269 781 1417 556 
Q 1566 331 1947 331 
Q 2347 331 2556 625 
Q 2766 919 2766 1478 
L 2766 2988 
L 2266 2988 
L 2266 3322 
z
" transform="scale(0.015625)"/>
       <path id="DejaVuSerif-6d" d="M 3316 2675 
Q 3481 3041 3739 3227 
Q 3997 3413 4341 3413 
Q 4863 3413 5119 3089 
Q 5375 2766 5375 2113 
L 5375 331 
L 5894 331 
L 5894 0 
L 4300 0 
L 4300 331 
L 4800 331 
L 4800 2047 
Q 4800 2556 4650 2772 
Q 4500 2988 4153 2988 
Q 3769 2988 3567 2697 
Q 3366 2406 3366 1850 
L 3366 331 
L 3866 331 
L 3866 0 
L 2291 0 
L 2291 331 
L 2791 331 
L 2791 2069 
Q 2791 2566 2641 2777 
Q 2491 2988 2144 2988 
Q 1759 2988 1557 2697 
Q 1356 2406 1356 1850 
L 1356 331 
L 1856 331 
L 1856 0 
L 263 0 
L 263 331 
L 781 331 
L 781 2994 
L 231 2994 
L 231 3322 
L 1356 3322 
L 1356 2731 
Q 1516 3063 1762 3238 
Q 2009 3413 2322 3413 
Q 2709 3413 2968 3220 
Q 3228 3028 3316 2675 
z
" transform="scale(0.015625)"/>
       <path id="DejaVuSerif-62" d="M 738 331 
L 738 4531 
L 184 4531 
L 184 4863 
L 1313 4863 
L 1313 2803 
Q 1481 3116 1742 3264 
Q 2003 3413 2388 3413 
Q 3000 3413 3387 2928 
Q 3775 2444 3775 1663 
Q 3775 881 3387 395 
Q 3000 -91 2388 -91 
Q 2003 -91 1742 57 
Q 1481 206 1313 519 
L 1313 0 
L 184 0 
L 184 331 
L 738 331 
z
M 1313 1497 
Q 1313 897 1542 583 
Q 1772 269 2209 269 
Q 2650 269 2876 622 
Q 3103 975 3103 1663 
Q 3103 2353 2876 2703 
Q 2650 3053 2209 3053 
Q 1772 3053 1542 2737 
Q 1313 2422 1313 1825 
L 1313 1497 
z
" transform="scale(0.015625)"/>
       <path id="DejaVuSerif-65" d="M 3469 1600 
L 991 1600 
L 991 1575 
Q 991 903 1244 561 
Q 1497 219 1991 219 
Q 2369 219 2611 417 
Q 2853 616 2950 1006 
L 3413 1006 
Q 3275 459 2904 184 
Q 2534 -91 1931 -91 
Q 1203 -91 761 389 
Q 319 869 319 1663 
Q 319 2450 753 2931 
Q 1188 3413 1894 3413 
Q 2647 3413 3050 2948 
Q 3453 2484 3469 1600 
z
M 2791 1931 
Q 2772 2513 2545 2808 
Q 2319 3103 1894 3103 
Q 1497 3103 1269 2806 
Q 1041 2509 991 1931 
L 2791 1931 
z
" transform="scale(0.015625)"/>
       <path id="DejaVuSerif-72" d="M 3059 3328 
L 3059 2497 
L 2728 2497 
Q 2713 2744 2591 2866 
Q 2469 2988 2234 2988 
Q 1809 2988 1582 2694 
Q 1356 2400 1356 1850 
L 1356 331 
L 2022 331 
L 2022 0 
L 263 0 
L 263 331 
L 781 331 
L 781 2994 
L 231 2994 
L 231 3322 
L 1356 3322 
L 1356 2731 
Q 1525 3078 1790 3245 
Q 2056 3413 2438 3413 
Q 2578 3413 2733 3391 
Q 2888 3369 3059 3328 
z
" transform="scale(0.015625)"/>
       <path id="DejaVuSerif-20" transform="scale(0.015625)"/>
       <path id="DejaVuSerif-6f" d="M 1925 219 
Q 2388 219 2623 584 
Q 2859 950 2859 1663 
Q 2859 2375 2623 2739 
Q 2388 3103 1925 3103 
Q 1463 3103 1227 2739 
Q 991 2375 991 1663 
Q 991 950 1228 584 
Q 1466 219 1925 219 
z
M 1925 -91 
Q 1200 -91 759 389 
Q 319 869 319 1663 
Q 319 2456 758 2934 
Q 1197 3413 1925 3413 
Q 2653 3413 3092 2934 
Q 3531 2456 3531 1663 
Q 3531 869 3092 389 
Q 2653 -91 1925 -91 
z
" transform="scale(0.015625)"/>
       <path id="DejaVuSerif-66" d="M 2753 4078 
L 2450 4078 
Q 2447 4313 2317 4434 
Q 2188 4556 1941 4556 
Q 1619 4556 1487 4379 
Q 1356 4203 1356 3750 
L 1356 3322 
L 2284 3322 
L 2284 2988 
L 1356 2988 
L 1356 331 
L 2094 331 
L 2094 0 
L 231 0 
L 231 331 
L 781 331 
L 781 2988 
L 231 2988 
L 231 3322 
L 781 3322 
L 781 3738 
Q 781 4294 1070 4578 
Q 1359 4863 1919 4863 
Q 2128 4863 2337 4825 
Q 2547 4788 2753 4709 
L 2753 4078 
z
" transform="scale(0.015625)"/>
       <path id="DejaVuSerif-7a" d="M 256 0 
L 256 269 
L 2338 2988 
L 691 2988 
L 691 2413 
L 359 2413 
L 359 3322 
L 3078 3322 
L 3078 3053 
L 997 331 
L 2803 331 
L 2803 934 
L 3138 934 
L 3138 0 
L 256 0 
z
" transform="scale(0.015625)"/>
       <path id="DejaVuSerif-73" d="M 359 184 
L 359 959 
L 691 959 
Q 703 588 923 403 
Q 1144 219 1575 219 
Q 1963 219 2166 364 
Q 2369 509 2369 788 
Q 2369 1006 2220 1140 
Q 2072 1275 1594 1428 
L 1178 1569 
Q 750 1706 558 1912 
Q 366 2119 366 2438 
Q 366 2894 700 3153 
Q 1034 3413 1625 3413 
Q 1888 3413 2178 3344 
Q 2469 3275 2778 3144 
L 2778 2419 
L 2447 2419 
Q 2434 2741 2221 2922 
Q 2009 3103 1644 3103 
Q 1281 3103 1095 2975 
Q 909 2847 909 2591 
Q 909 2381 1050 2254 
Q 1191 2128 1613 1997 
L 2069 1856 
Q 2541 1709 2748 1489 
Q 2956 1269 2956 922 
Q 2956 450 2595 179 
Q 2234 -91 1600 -91 
Q 1278 -91 972 -22 
Q 666 47 359 184 
z
" transform="scale(0.015625)"/>
       <path id="DejaVuSerif-70" d="M 1313 1825 
L 1313 1497 
Q 1313 897 1542 583 
Q 1772 269 2209 269 
Q 2650 269 2876 622 
Q 3103 975 3103 1663 
Q 3103 2353 2876 2703 
Q 2650 3053 2209 3053 
Q 1772 3053 1542 2737 
Q 1313 2422 1313 1825 
z
M 738 2988 
L 184 2988 
L 184 3322 
L 1313 3322 
L 1313 2803 
Q 1481 3116 1742 3264 
Q 2003 3413 2388 3413 
Q 3000 3413 3387 2928 
Q 3775 2444 3775 1663 
Q 3775 881 3387 395 
Q 3000 -91 2388 -91 
Q 2003 -91 1742 57 
Q 1481 206 1313 519 
L 1313 -997 
L 1856 -997 
L 1856 -1331 
L 184 -1331 
L 184 -997 
L 738 -997 
L 738 2988 
z
" transform="scale(0.015625)"/>
       <path id="DejaVuSerif-63" d="M 3291 997 
Q 3169 466 2822 187 
Q 2475 -91 1925 -91 
Q 1200 -91 759 389 
Q 319 869 319 1663 
Q 319 2459 759 2936 
Q 1200 3413 1925 3413 
Q 2241 3413 2553 3339 
Q 2866 3266 3181 3116 
L 3181 2266 
L 2847 2266 
Q 2781 2703 2561 2903 
Q 2341 3103 1931 3103 
Q 1466 3103 1228 2742 
Q 991 2381 991 1663 
Q 991 944 1227 581 
Q 1463 219 1931 219 
Q 2303 219 2525 412 
Q 2747 606 2828 997 
L 3291 997 
z
" transform="scale(0.015625)"/>
       <path id="DejaVuSerif-6c" d="M 1313 331 
L 1856 331 
L 1856 0 
L 184 0 
L 184 331 
L 738 331 
L 738 4531 
L 184 4531 
L 184 4863 
L 1313 4863 
L 1313 331 
z
" transform="scale(0.015625)"/>
      </defs>
      <use xlink:href="#DejaVuSerif-4e"/>
      <use xlink:href="#DejaVuSerif-75" x="87.5"/>
      <use xlink:href="#DejaVuSerif-6d" x="151.904297"/>
      <use xlink:href="#DejaVuSerif-62" x="246.728516"/>
      <use xlink:href="#DejaVuSerif-65" x="310.742188"/>
      <use xlink:href="#DejaVuSerif-72" x="369.921875"/>
      <use xlink:href="#DejaVuSerif-20" x="417.724609"/>
      <use xlink:href="#DejaVuSerif-6f" x="449.511719"/>
      <use xlink:href="#DejaVuSerif-66" x="509.716797"/>
      <use xlink:href="#DejaVuSerif-20" x="546.728516"/>
      <use xlink:href="#DejaVuSerif-7a" x="578.515625"/>
      <use xlink:href="#DejaVuSerif-65" x="631.201172"/>
      <use xlink:href="#DejaVuSerif-72" x="690.380859"/>
      <use xlink:href="#DejaVuSerif-6f" x="738.183594"/>
      <use xlink:href="#DejaVuSerif-65" x="798.388672"/>
      <use xlink:href="#DejaVuSerif-73" x="857.568359"/>
      <use xlink:href="#DejaVuSerif-20" x="908.886719"/>
      <use xlink:href="#DejaVuSerif-70" x="940.673828"/>
      <use xlink:href="#DejaVuSerif-65" x="1004.6875"/>
      <use xlink:href="#DejaVuSerif-72" x="1063.867188"/>
      <use xlink:href="#DejaVuSerif-20" x="1111.669922"/>
      <use xlink:href="#DejaVuSerif-63" x="1143.457031"/>
      <use xlink:href="#DejaVuSerif-65" x="1199.462891"/>
      <use xlink:href="#DejaVuSerif-6c" x="1258.642578"/>
      <use xlink:href="#DejaVuSerif-6c" x="1290.625"/>
     </g>
    </g>
   </g>
   <g id="matplotlib.axis_2">
    <g id="ytick_1">
     <g id="line2d_6">
      <defs>
       <path id="mf15b80dad9" d="M 0 0 
L -3.5 0 
" style="stroke: #000000; stroke-width: 0.8"/>
      </defs>
      <g>
       <use xlink:href="#mf15b80dad9" x="79.22" y="298.65486" style="stroke: #000000; stroke-width: 0.8"/>
      </g>
     </g>
     <g id="text_7">
      <!-- 0.000000 -->
      <g transform="translate(24.504375 302.454079) scale(0.1 -0.1)">
       <defs>
        <path id="DejaVuSerif-2e" d="M 603 325 
Q 603 500 722 622 
Q 841 744 1019 744 
Q 1191 744 1312 622 
Q 1434 500 1434 325 
Q 1434 153 1312 31 
Q 1191 -91 1019 -91 
Q 841 -91 722 29 
Q 603 150 603 325 
z
" transform="scale(0.015625)"/>
       </defs>
       <use xlink:href="#DejaVuSerif-30"/>
       <use xlink:href="#DejaVuSerif-2e" x="63.623047"/>
       <use xlink:href="#DejaVuSerif-30" x="95.410156"/>
       <use xlink:href="#DejaVuSerif-30" x="159.033203"/>
       <use xlink:href="#DejaVuSerif-30" x="222.65625"/>
       <use xlink:href="#DejaVuSerif-30" x="286.279297"/>
       <use xlink:href="#DejaVuSerif-30" x="349.902344"/>
       <use xlink:href="#DejaVuSerif-30" x="413.525391"/>
      </g>
     </g>
    </g>
    <g id="ytick_2">
     <g id="line2d_7">
      <g>
       <use xlink:href="#mf15b80dad9" x="79.22" y="262.386693" style="stroke: #000000; stroke-width: 0.8"/>
      </g>
     </g>
     <g id="text_8">
      <!-- 0.000025 -->
      <g transform="translate(24.504375 266.185911) scale(0.1 -0.1)">
       <defs>
        <path id="DejaVuSerif-35" d="M 3219 4666 
L 3219 4153 
L 1081 4153 
L 1081 2816 
Q 1244 2928 1461 2984 
Q 1678 3041 1947 3041 
Q 2703 3041 3140 2622 
Q 3578 2203 3578 1478 
Q 3578 738 3136 323 
Q 2694 -91 1894 -91 
Q 1572 -91 1234 -12 
Q 897 66 544 225 
L 544 1131 
L 897 1131 
Q 925 688 1179 453 
Q 1434 219 1894 219 
Q 2388 219 2653 544 
Q 2919 869 2919 1478 
Q 2919 2084 2655 2407 
Q 2391 2731 1894 2731 
Q 1613 2731 1398 2631 
Q 1184 2531 1019 2322 
L 750 2322 
L 750 4666 
L 3219 4666 
z
" transform="scale(0.015625)"/>
       </defs>
       <use xlink:href="#DejaVuSerif-30"/>
       <use xlink:href="#DejaVuSerif-2e" x="63.623047"/>
       <use xlink:href="#DejaVuSerif-30" x="95.410156"/>
       <use xlink:href="#DejaVuSerif-30" x="159.033203"/>
       <use xlink:href="#DejaVuSerif-30" x="222.65625"/>
       <use xlink:href="#DejaVuSerif-30" x="286.279297"/>
       <use xlink:href="#DejaVuSerif-32" x="349.902344"/>
       <use xlink:href="#DejaVuSerif-35" x="413.525391"/>
      </g>
     </g>
    </g>
    <g id="ytick_3">
     <g id="line2d_8">
      <g>
       <use xlink:href="#mf15b80dad9" x="79.22" y="226.118525" style="stroke: #000000; stroke-width: 0.8"/>
      </g>
     </g>
     <g id="text_9">
      <!-- 0.000050 -->
      <g transform="translate(24.504375 229.917744) scale(0.1 -0.1)">
       <use xlink:href="#DejaVuSerif-30"/>
       <use xlink:href="#DejaVuSerif-2e" x="63.623047"/>
       <use xlink:href="#DejaVuSerif-30" x="95.410156"/>
       <use xlink:href="#DejaVuSerif-30" x="159.033203"/>
       <use xlink:href="#DejaVuSerif-30" x="222.65625"/>
       <use xlink:href="#DejaVuSerif-30" x="286.279297"/>
       <use xlink:href="#DejaVuSerif-35" x="349.902344"/>
       <use xlink:href="#DejaVuSerif-30" x="413.525391"/>
      </g>
     </g>
    </g>
    <g id="ytick_4">
     <g id="line2d_9">
      <g>
       <use xlink:href="#mf15b80dad9" x="79.22" y="189.850357" style="stroke: #000000; stroke-width: 0.8"/>
      </g>
     </g>
     <g id="text_10">
      <!-- 0.000075 -->
      <g transform="translate(24.504375 193.649576) scale(0.1 -0.1)">
       <defs>
        <path id="DejaVuSerif-37" d="M 3609 4347 
L 1784 0 
L 1319 0 
L 3059 4153 
L 903 4153 
L 903 3578 
L 538 3578 
L 538 4666 
L 3609 4666 
L 3609 4347 
z
" transform="scale(0.015625)"/>
       </defs>
       <use xlink:href="#DejaVuSerif-30"/>
       <use xlink:href="#DejaVuSerif-2e" x="63.623047"/>
       <use xlink:href="#DejaVuSerif-30" x="95.410156"/>
       <use xlink:href="#DejaVuSerif-30" x="159.033203"/>
       <use xlink:href="#DejaVuSerif-30" x="222.65625"/>
       <use xlink:href="#DejaVuSerif-30" x="286.279297"/>
       <use xlink:href="#DejaVuSerif-37" x="349.902344"/>
       <use xlink:href="#DejaVuSerif-35" x="413.525391"/>
      </g>
     </g>
    </g>
    <g id="ytick_5">
     <g id="line2d_10">
      <g>
       <use xlink:href="#mf15b80dad9" x="79.22" y="153.582189" style="stroke: #000000; stroke-width: 0.8"/>
      </g>
     </g>
     <g id="text_11">
      <!-- 0.000100 -->
      <g transform="translate(24.504375 157.381408) scale(0.1 -0.1)">
       <defs>
        <path id="DejaVuSerif-31" d="M 909 0 
L 909 331 
L 1722 331 
L 1722 4213 
L 781 3603 
L 781 4013 
L 1919 4750 
L 2350 4750 
L 2350 331 
L 3163 331 
L 3163 0 
L 909 0 
z
" transform="scale(0.015625)"/>
       </defs>
       <use xlink:href="#DejaVuSerif-30"/>
       <use xlink:href="#DejaVuSerif-2e" x="63.623047"/>
       <use xlink:href="#DejaVuSerif-30" x="95.410156"/>
       <use xlink:href="#DejaVuSerif-30" x="159.033203"/>
       <use xlink:href="#DejaVuSerif-30" x="222.65625"/>
       <use xlink:href="#DejaVuSerif-31" x="286.279297"/>
       <use xlink:href="#DejaVuSerif-30" x="349.902344"/>
       <use xlink:href="#DejaVuSerif-30" x="413.525391"/>
      </g>
     </g>
    </g>
    <g id="ytick_6">
     <g id="line2d_11">
      <g>
       <use xlink:href="#mf15b80dad9" x="79.22" y="117.314022" style="stroke: #000000; stroke-width: 0.8"/>
      </g>
     </g>
     <g id="text_12">
      <!-- 0.000125 -->
      <g transform="translate(24.504375 121.11324) scale(0.1 -0.1)">
       <use xlink:href="#DejaVuSerif-30"/>
       <use xlink:href="#DejaVuSerif-2e" x="63.623047"/>
       <use xlink:href="#DejaVuSerif-30" x="95.410156"/>
       <use xlink:href="#DejaVuSerif-30" x="159.033203"/>
       <use xlink:href="#DejaVuSerif-30" x="222.65625"/>
       <use xlink:href="#DejaVuSerif-31" x="286.279297"/>
       <use xlink:href="#DejaVuSerif-32" x="349.902344"/>
       <use xlink:href="#DejaVuSerif-35" x="413.525391"/>
      </g>
     </g>
    </g>
    <g id="ytick_7">
     <g id="line2d_12">
      <g>
       <use xlink:href="#mf15b80dad9" x="79.22" y="81.045854" style="stroke: #000000; stroke-width: 0.8"/>
      </g>
     </g>
     <g id="text_13">
      <!-- 0.000150 -->
      <g transform="translate(24.504375 84.845073) scale(0.1 -0.1)">
       <use xlink:href="#DejaVuSerif-30"/>
       <use xlink:href="#DejaVuSerif-2e" x="63.623047"/>
       <use xlink:href="#DejaVuSerif-30" x="95.410156"/>
       <use xlink:href="#DejaVuSerif-30" x="159.033203"/>
       <use xlink:href="#DejaVuSerif-30" x="222.65625"/>
       <use xlink:href="#DejaVuSerif-31" x="286.279297"/>
       <use xlink:href="#DejaVuSerif-35" x="349.902344"/>
       <use xlink:href="#DejaVuSerif-30" x="413.525391"/>
      </g>
     </g>
    </g>
    <g id="ytick_8">
     <g id="line2d_13">
      <g>
       <use xlink:href="#mf15b80dad9" x="79.22" y="44.777686" style="stroke: #000000; stroke-width: 0.8"/>
      </g>
     </g>
     <g id="text_14">
      <!-- 0.000175 -->
      <g transform="translate(24.504375 48.576905) scale(0.1 -0.1)">
       <use xlink:href="#DejaVuSerif-30"/>
       <use xlink:href="#DejaVuSerif-2e" x="63.623047"/>
       <use xlink:href="#DejaVuSerif-30" x="95.410156"/>
       <use xlink:href="#DejaVuSerif-30" x="159.033203"/>
       <use xlink:href="#DejaVuSerif-30" x="222.65625"/>
       <use xlink:href="#DejaVuSerif-31" x="286.279297"/>
       <use xlink:href="#DejaVuSerif-37" x="349.902344"/>
       <use xlink:href="#DejaVuSerif-35" x="413.525391"/>
      </g>
     </g>
    </g>
    <g id="text_15">
     <!-- Frequency -->
     <g transform="translate(18.2825 189.451961) rotate(-90) scale(0.1 -0.1)">
      <defs>
       <path id="DejaVuSerif-46" d="M 353 0 
L 353 331 
L 947 331 
L 947 4331 
L 353 4331 
L 353 4666 
L 4172 4666 
L 4172 3628 
L 3788 3628 
L 3788 4281 
L 1581 4281 
L 1581 2719 
L 3175 2719 
L 3175 3303 
L 3559 3303 
L 3559 1753 
L 3175 1753 
L 3175 2338 
L 1581 2338 
L 1581 331 
L 2328 331 
L 2328 0 
L 353 0 
z
" transform="scale(0.015625)"/>
       <path id="DejaVuSerif-71" d="M 3359 2988 
L 3359 -997 
L 3909 -997 
L 3909 -1331 
L 2241 -1331 
L 2241 -997 
L 2784 -997 
L 2784 519 
Q 2616 206 2355 57 
Q 2094 -91 1709 -91 
Q 1097 -91 708 395 
Q 319 881 319 1663 
Q 319 2444 706 2928 
Q 1094 3413 1709 3413 
Q 2094 3413 2355 3264 
Q 2616 3116 2784 2803 
L 2784 3322 
L 3909 3322 
L 3909 2988 
L 3359 2988 
z
M 2784 1825 
Q 2784 2422 2554 2737 
Q 2325 3053 1888 3053 
Q 1444 3053 1217 2703 
Q 991 2353 991 1663 
Q 991 975 1217 622 
Q 1444 269 1888 269 
Q 2325 269 2554 583 
Q 2784 897 2784 1497 
L 2784 1825 
z
" transform="scale(0.015625)"/>
       <path id="DejaVuSerif-6e" d="M 263 0 
L 263 331 
L 781 331 
L 781 2988 
L 231 2988 
L 231 3322 
L 1356 3322 
L 1356 2731 
Q 1516 3069 1770 3241 
Q 2025 3413 2363 3413 
Q 2913 3413 3172 3097 
Q 3431 2781 3431 2113 
L 3431 331 
L 3944 331 
L 3944 0 
L 2356 0 
L 2356 331 
L 2853 331 
L 2853 1931 
Q 2853 2541 2703 2767 
Q 2553 2994 2175 2994 
Q 1775 2994 1565 2701 
Q 1356 2409 1356 1850 
L 1356 331 
L 1856 331 
L 1856 0 
L 263 0 
z
" transform="scale(0.015625)"/>
       <path id="DejaVuSerif-79" d="M 1381 -609 
L 1600 -56 
L 359 2988 
L -19 2988 
L -19 3322 
L 1509 3322 
L 1509 2988 
L 978 2988 
L 1913 703 
L 2847 2988 
L 2350 2988 
L 2350 3322 
L 3597 3322 
L 3597 2988 
L 3225 2988 
L 1703 -750 
Q 1547 -1138 1356 -1280 
Q 1166 -1422 819 -1422 
Q 672 -1422 517 -1397 
Q 363 -1372 206 -1325 
L 206 -691 
L 500 -691 
Q 519 -903 608 -995 
Q 697 -1088 884 -1088 
Q 1056 -1088 1161 -992 
Q 1266 -897 1381 -609 
z
" transform="scale(0.015625)"/>
      </defs>
      <use xlink:href="#DejaVuSerif-46"/>
      <use xlink:href="#DejaVuSerif-72" x="69.384766"/>
      <use xlink:href="#DejaVuSerif-65" x="117.1875"/>
      <use xlink:href="#DejaVuSerif-71" x="176.367188"/>
      <use xlink:href="#DejaVuSerif-75" x="240.380859"/>
      <use xlink:href="#DejaVuSerif-65" x="304.785156"/>
      <use xlink:href="#DejaVuSerif-6e" x="363.964844"/>
      <use xlink:href="#DejaVuSerif-63" x="428.369141"/>
      <use xlink:href="#DejaVuSerif-79" x="484.375"/>
     </g>
    </g>
   </g>
   <g id="patch_3">
    <path d="M 79.22 298.65486 
L 79.22 26.16 
" style="fill: none; stroke: #000000; stroke-width: 0.8; stroke-linejoin: miter; stroke-linecap: square"/>
   </g>
   <g id="patch_4">
    <path d="M 334.49925 298.65486 
L 334.49925 26.16 
" style="fill: none; stroke: #000000; stroke-width: 0.8; stroke-linejoin: miter; stroke-linecap: square"/>
   </g>
   <g id="patch_5">
    <path d="M 79.22 298.65486 
L 334.49925 298.65486 
" style="fill: none; stroke: #000000; stroke-width: 0.8; stroke-linejoin: miter; stroke-linecap: square"/>
   </g>
   <g id="patch_6">
    <path d="M 79.22 26.16 
L 334.49925 26.16 
" style="fill: none; stroke: #000000; stroke-width: 0.8; stroke-linejoin: miter; stroke-linecap: square"/>
   </g>
   <g id="text_16">
    <!-- HLCA -->
    <g transform="translate(188.719 20.16) scale(0.12 -0.12)">
     <defs>
      <path id="DejaVuSerif-48" d="M 353 0 
L 353 331 
L 947 331 
L 947 4331 
L 353 4331 
L 353 4666 
L 2175 4666 
L 2175 4331 
L 1581 4331 
L 1581 2719 
L 4000 2719 
L 4000 4331 
L 3406 4331 
L 3406 4666 
L 5228 4666 
L 5228 4331 
L 4634 4331 
L 4634 331 
L 5228 331 
L 5228 0 
L 3406 0 
L 3406 331 
L 4000 331 
L 4000 2338 
L 1581 2338 
L 1581 331 
L 2175 331 
L 2175 0 
L 353 0 
z
" transform="scale(0.015625)"/>
      <path id="DejaVuSerif-4c" d="M 353 0 
L 353 331 
L 947 331 
L 947 4331 
L 353 4331 
L 353 4666 
L 2175 4666 
L 2175 4331 
L 1581 4331 
L 1581 384 
L 3713 384 
L 3713 1166 
L 4097 1166 
L 4097 0 
L 353 0 
z
" transform="scale(0.015625)"/>
      <path id="DejaVuSerif-43" d="M 4513 1234 
Q 4306 581 3820 245 
Q 3334 -91 2591 -91 
Q 2134 -91 1743 65 
Q 1353 222 1050 525 
Q 700 875 529 1320 
Q 359 1766 359 2328 
Q 359 3416 987 4083 
Q 1616 4750 2644 4750 
Q 3025 4750 3456 4650 
Q 3888 4550 4384 4347 
L 4384 3272 
L 4031 3272 
Q 3916 3859 3567 4137 
Q 3219 4416 2591 4416 
Q 1844 4416 1459 3886 
Q 1075 3356 1075 2328 
Q 1075 1303 1459 773 
Q 1844 244 2591 244 
Q 3113 244 3450 492 
Q 3788 741 3938 1234 
L 4513 1234 
z
" transform="scale(0.015625)"/>
      <path id="DejaVuSerif-41" d="M 1281 1691 
L 2994 1691 
L 2138 3909 
L 1281 1691 
z
M -38 0 
L -38 331 
L 372 331 
L 2034 4666 
L 2559 4666 
L 4225 331 
L 4684 331 
L 4684 0 
L 2988 0 
L 2988 331 
L 3506 331 
L 3116 1356 
L 1153 1356 
L 763 331 
L 1275 331 
L 1275 0 
L -38 0 
z
" transform="scale(0.015625)"/>
     </defs>
     <use xlink:href="#DejaVuSerif-48"/>
     <use xlink:href="#DejaVuSerif-4c" x="87.207031"/>
     <use xlink:href="#DejaVuSerif-43" x="153.613281"/>
     <use xlink:href="#DejaVuSerif-41" x="230.126953"/>
    </g>
   </g>
  </g>
 </g>
 <defs>
  <clipPath id="pb81efd64d5">
   <rect x="79.22" y="26.16" width="255.27925" height="272.49486"/>
  </clipPath>
 </defs>
</svg>
