<?xml version="1.0" encoding="utf-8" standalone="no"?>
<!DOCTYPE svg PUBLIC "-//W3C//DTD SVG 1.1//EN"
  "http://www.w3.org/Graphics/SVG/1.1/DTD/svg11.dtd">
<svg xmlns:xlink="http://www.w3.org/1999/xlink" width="360pt" height="360pt" viewBox="0 0 360 360" xmlns="http://www.w3.org/2000/svg" version="1.1">
 <metadata>
  <rdf:RDF xmlns:dc="http://purl.org/dc/elements/1.1/" xmlns:cc="http://creativecommons.org/ns#" xmlns:rdf="http://www.w3.org/1999/02/22-rdf-syntax-ns#">
   <cc:Work>
    <dc:type rdf:resource="http://purl.org/dc/dcmitype/StillImage"/>
    <dc:date>2024-11-19T12:39:07.835612</dc:date>
    <dc:format>image/svg+xml</dc:format>
    <dc:creator>
     <cc:Agent>
      <dc:title>Matplotlib v3.8.1, https://matplotlib.org/</dc:title>
     </cc:Agent>
    </dc:creator>
   </cc:Work>
  </rdf:RDF>
 </metadata>
 <defs>
  <style type="text/css">*{stroke-linejoin: round; stroke-linecap: butt}</style>
 </defs>
 <g id="figure_1">
  <g id="patch_1">
   <path d="M 0 360 
L 360 360 
L 360 0 
L 0 0 
z
" style="fill: #ffffff"/>
  </g>
  <g id="axes_1">
   <g id="patch_2">
    <path d="M 66.53 303.109633 
L 349.2 303.109633 
L 349.2 26.16 
L 66.53 26.16 
z
" style="fill: #ffffff"/>
   </g>
   <g id="PolyCollection_1">
    <defs>
     <path id="mc436446a01" d="M 116.589635 -56.919171 
L 116.589635 -56.890367 
L 117.645776 -56.890367 
L 118.701918 -56.890367 
L 119.75806 -56.890367 
L 120.814202 -56.890367 
L 121.870343 -56.890367 
L 122.926485 -56.890367 
L 123.982627 -56.890367 
L 125.038769 -56.890367 
L 126.094911 -56.890367 
L 127.151052 -56.890367 
L 128.207194 -56.890367 
L 129.263336 -56.890367 
L 130.319478 -56.890367 
L 131.375619 -56.890367 
L 132.431761 -56.890367 
L 133.487903 -56.890367 
L 134.544045 -56.890367 
L 135.600186 -56.890367 
L 136.656328 -56.890367 
L 137.71247 -56.890367 
L 138.768612 -56.890367 
L 139.824753 -56.890367 
L 140.880895 -56.890367 
L 141.937037 -56.890367 
L 142.993179 -56.890367 
L 144.04932 -56.890367 
L 145.105462 -56.890367 
L 146.161604 -56.890367 
L 147.217746 -56.890367 
L 148.273888 -56.890367 
L 149.330029 -56.890367 
L 150.386171 -56.890367 
L 151.442313 -56.890367 
L 152.498455 -56.890367 
L 153.554596 -56.890367 
L 154.610738 -56.890367 
L 155.66688 -56.890367 
L 156.723022 -56.890367 
L 157.779163 -56.890367 
L 158.835305 -56.890367 
L 159.891447 -56.890367 
L 160.947589 -56.890367 
L 162.00373 -56.890367 
L 163.059872 -56.890367 
L 164.116014 -56.890367 
L 165.172156 -56.890367 
L 166.228298 -56.890367 
L 167.284439 -56.890367 
L 168.340581 -56.890367 
L 169.396723 -56.890367 
L 170.452865 -56.890367 
L 171.509006 -56.890367 
L 172.565148 -56.890367 
L 173.62129 -56.890367 
L 174.677432 -56.890367 
L 175.733573 -56.890367 
L 176.789715 -56.890367 
L 177.845857 -56.890367 
L 178.901999 -56.890367 
L 179.95814 -56.890367 
L 181.014282 -56.890367 
L 182.070424 -56.890367 
L 183.126566 -56.890367 
L 184.182707 -56.890367 
L 185.238849 -56.890367 
L 186.294991 -56.890367 
L 187.351133 -56.890367 
L 188.407275 -56.890367 
L 189.463416 -56.890367 
L 190.519558 -56.890367 
L 191.5757 -56.890367 
L 192.631842 -56.890367 
L 193.687983 -56.890367 
L 194.744125 -56.890367 
L 195.800267 -56.890367 
L 196.856409 -56.890367 
L 197.91255 -56.890367 
L 198.968692 -56.890367 
L 200.024834 -56.890367 
L 201.080976 -56.890367 
L 202.137117 -56.890367 
L 203.193259 -56.890367 
L 204.249401 -56.890367 
L 205.305543 -56.890367 
L 206.361684 -56.890367 
L 207.417826 -56.890367 
L 208.473968 -56.890367 
L 209.53011 -56.890367 
L 210.586252 -56.890367 
L 211.642393 -56.890367 
L 212.698535 -56.890367 
L 213.754677 -56.890367 
L 214.810819 -56.890367 
L 215.86696 -56.890367 
L 216.923102 -56.890367 
L 217.979244 -56.890367 
L 219.035386 -56.890367 
L 220.091527 -56.890367 
L 221.147669 -56.890367 
L 222.203811 -56.890367 
L 223.259953 -56.890367 
L 224.316094 -56.890367 
L 225.372236 -56.890367 
L 226.428378 -56.890367 
L 227.48452 -56.890367 
L 228.540661 -56.890367 
L 229.596803 -56.890367 
L 230.652945 -56.890367 
L 231.709087 -56.890367 
L 232.765229 -56.890367 
L 233.82137 -56.890367 
L 234.877512 -56.890367 
L 235.933654 -56.890367 
L 236.989796 -56.890367 
L 238.045937 -56.890367 
L 239.102079 -56.890367 
L 240.158221 -56.890367 
L 241.214363 -56.890367 
L 242.270504 -56.890367 
L 243.326646 -56.890367 
L 244.382788 -56.890367 
L 245.43893 -56.890367 
L 246.495071 -56.890367 
L 247.551213 -56.890367 
L 248.607355 -56.890367 
L 249.663497 -56.890367 
L 250.719638 -56.890367 
L 251.77578 -56.890367 
L 252.831922 -56.890367 
L 253.888064 -56.890367 
L 254.944206 -56.890367 
L 256.000347 -56.890367 
L 257.056489 -56.890367 
L 258.112631 -56.890367 
L 259.168773 -56.890367 
L 260.224914 -56.890367 
L 261.281056 -56.890367 
L 262.337198 -56.890367 
L 263.39334 -56.890367 
L 264.449481 -56.890367 
L 265.505623 -56.890367 
L 266.561765 -56.890367 
L 267.617907 -56.890367 
L 268.674048 -56.890367 
L 269.73019 -56.890367 
L 270.786332 -56.890367 
L 271.842474 -56.890367 
L 272.898616 -56.890367 
L 273.954757 -56.890367 
L 275.010899 -56.890367 
L 276.067041 -56.890367 
L 277.123183 -56.890367 
L 278.179324 -56.890367 
L 279.235466 -56.890367 
L 280.291608 -56.890367 
L 281.34775 -56.890367 
L 282.403891 -56.890367 
L 283.460033 -56.890367 
L 284.516175 -56.890367 
L 285.572317 -56.890367 
L 286.628458 -56.890367 
L 287.6846 -56.890367 
L 288.740742 -56.890367 
L 289.796884 -56.890367 
L 290.853025 -56.890367 
L 291.909167 -56.890367 
L 292.965309 -56.890367 
L 294.021451 -56.890367 
L 295.077593 -56.890367 
L 296.133734 -56.890367 
L 297.189876 -56.890367 
L 298.246018 -56.890367 
L 299.30216 -56.890367 
L 300.358301 -56.890367 
L 301.414443 -56.890367 
L 302.470585 -56.890367 
L 303.526727 -56.890367 
L 304.582868 -56.890367 
L 305.63901 -56.890367 
L 306.695152 -56.890367 
L 307.751294 -56.890367 
L 308.807435 -56.890367 
L 309.863577 -56.890367 
L 310.919719 -56.890367 
L 311.975861 -56.890367 
L 313.032002 -56.890367 
L 314.088144 -56.890367 
L 315.144286 -56.890367 
L 316.200428 -56.890367 
L 317.25657 -56.890367 
L 318.312711 -56.890367 
L 319.368853 -56.890367 
L 320.424995 -56.890367 
L 321.481137 -56.890367 
L 322.537278 -56.890367 
L 323.59342 -56.890367 
L 324.649562 -56.890367 
L 325.705704 -56.890367 
L 326.761845 -56.890367 
L 326.761845 -56.930691 
L 326.761845 -56.930691 
L 325.705704 -56.956899 
L 324.649562 -56.997745 
L 323.59342 -57.059912 
L 322.537278 -57.152323 
L 321.481137 -57.286489 
L 320.424995 -57.476754 
L 319.368853 -57.740332 
L 318.312711 -58.097057 
L 317.25657 -58.56877 
L 316.200428 -59.178313 
L 315.144286 -59.948121 
L 314.088144 -60.898522 
L 313.032002 -62.045861 
L 311.975861 -63.400706 
L 310.919719 -64.966367 
L 309.863577 -66.738 
L 308.807435 -68.702525 
L 307.751294 -70.839479 
L 306.695152 -73.122809 
L 305.63901 -75.523494 
L 304.582868 -78.012708 
L 303.526727 -80.565222 
L 302.470585 -83.162634 
L 301.414443 -85.796136 
L 300.358301 -88.468537 
L 299.30216 -91.195466 
L 298.246018 -94.005734 
L 297.189876 -96.940961 
L 296.133734 -100.054606 
L 295.077593 -103.410479 
L 294.021451 -107.080762 
L 292.965309 -111.143441 
L 291.909167 -115.678985 
L 290.853025 -120.766115 
L 289.796884 -126.476575 
L 288.740742 -132.869028 
L 287.6846 -139.982438 
L 286.628458 -147.829602 
L 285.572317 -156.391648 
L 284.516175 -165.614433 
L 283.460033 -175.407643 
L 282.403891 -185.647092 
L 281.34775 -196.180297 
L 280.291608 -206.834879 
L 279.235466 -217.42891 
L 278.179324 -227.781999 
L 277.123183 -237.725853 
L 276.067041 -247.113198 
L 275.010899 -255.824309 
L 273.954757 -263.770873 
L 272.898616 -270.89733 
L 271.842474 -277.180203 
L 270.786332 -282.626002 
L 269.73019 -287.268254 
L 268.674048 -291.163929 
L 267.617907 -294.389301 
L 266.561765 -297.035019 
L 265.505623 -299.200125 
L 264.449481 -300.984871 
L 263.39334 -302.482496 
L 262.337198 -303.770478 
L 261.281056 -304.902156 
L 260.224914 -305.899812 
L 259.168773 -306.750322 
L 258.112631 -307.40425 
L 257.056489 -307.778848 
L 256.000347 -307.76487 
L 254.944206 -307.236571 
L 253.888064 -306.063797 
L 252.831922 -304.124759 
L 251.77578 -301.318012 
L 250.719638 -297.572278 
L 249.663497 -292.85307 
L 248.607355 -287.165527 
L 247.551213 -280.553412 
L 246.495071 -273.094713 
L 245.43893 -264.894725 
L 244.382788 -256.077787 
L 243.326646 -246.778896 
L 242.270504 -237.136331 
L 241.214363 -227.286073 
L 240.158221 -217.3584 
L 239.102079 -207.476499 
L 238.045937 -197.756532 
L 236.989796 -188.308256 
L 235.933654 -179.235245 
L 234.877512 -170.633864 
L 233.82137 -162.590548 
L 232.765229 -155.177423 
L 231.709087 -148.446826 
L 230.652945 -142.425765 
L 229.596803 -137.111561 
L 228.540661 -132.469895 
L 227.48452 -128.436177 
L 226.428378 -124.920576 
L 225.372236 -121.81638 
L 224.316094 -119.01068 
L 223.259953 -116.395883 
L 222.203811 -113.880306 
L 221.147669 -111.396238 
L 220.091527 -108.904243 
L 219.035386 -106.393166 
L 217.979244 -103.876062 
L 216.923102 -101.382946 
L 215.86696 -98.95184 
L 214.810819 -96.619776 
L 213.754677 -94.415352 
L 212.698535 -92.354047 
L 211.642393 -90.436895 
L 210.586252 -88.652428 
L 209.53011 -86.9812 
L 208.473968 -85.40168 
L 207.417826 -83.89617 
L 206.361684 -82.455432 
L 205.305543 -81.081064 
L 204.249401 -79.785188 
L 203.193259 -78.587553 
L 202.137117 -77.510709 
L 201.080976 -76.574243 
L 200.024834 -75.789231 
L 198.968692 -75.153993 
L 197.91255 -74.651926 
L 196.856409 -74.251826 
L 195.800267 -73.910639 
L 194.744125 -73.578167 
L 193.687983 -73.202963 
L 192.631842 -72.738477 
L 191.5757 -72.148544 
L 190.519558 -71.411436 
L 189.463416 -70.521981 
L 188.407275 -69.491576 
L 187.351133 -68.346226 
L 186.294991 -67.123039 
L 185.238849 -65.865764 
L 184.182707 -64.620047 
L 183.126566 -63.429021 
L 182.070424 -62.329723 
L 181.014282 -61.350637 
L 179.95814 -60.510447 
L 178.901999 -59.817921 
L 177.845857 -59.272684 
L 176.789715 -58.866613 
L 175.733573 -58.585547 
L 174.677432 -58.411092 
L 173.62129 -58.322337 
L 172.565148 -58.297409 
L 171.509006 -58.314835 
L 170.452865 -58.354703 
L 169.396723 -58.399646 
L 168.340581 -58.435634 
L 167.284439 -58.452544 
L 166.228298 -58.444484 
L 165.172156 -58.409819 
L 164.116014 -58.350879 
L 163.059872 -58.273383 
L 162.00373 -58.185594 
L 160.947589 -58.097326 
L 159.891447 -58.018874 
L 158.835305 -57.960001 
L 157.779163 -57.92906 
L 156.723022 -57.932345 
L 155.66688 -57.973698 
L 154.610738 -58.054398 
L 153.554596 -58.173298 
L 152.498455 -58.327166 
L 151.442313 -58.511164 
L 150.386171 -58.719358 
L 149.330029 -58.945188 
L 148.273888 -59.181819 
L 147.217746 -59.422319 
L 146.161604 -59.659663 
L 145.105462 -59.886617 
L 144.04932 -60.095584 
L 142.993179 -60.278531 
L 141.937037 -60.427088 
L 140.880895 -60.532924 
L 139.824753 -60.588368 
L 138.768612 -60.587234 
L 137.71247 -60.525704 
L 136.656328 -60.4031 
L 135.600186 -60.22236 
L 134.544045 -59.990108 
L 133.487903 -59.716251 
L 132.431761 -59.41315 
L 131.375619 -59.09448 
L 130.319478 -58.773966 
L 129.263336 -58.464175 
L 128.207194 -58.17555 
L 127.151052 -57.915773 
L 126.094911 -57.689532 
L 125.038769 -57.498641 
L 123.982627 -57.342443 
L 122.926485 -57.218398 
L 121.870343 -57.122727 
L 120.814202 -57.05103 
L 119.75806 -56.998796 
L 118.701918 -56.961788 
L 117.645776 -56.93628 
L 116.589635 -56.919171 
z
" style="stroke: #029e73; stroke-width: 2"/>
    </defs>
    <g clip-path="url(#pfc709a5deb)">
     <use xlink:href="#mc436446a01" x="0" y="360" style="fill: #029e73; fill-opacity: 0.2; stroke: #029e73; stroke-width: 2"/>
    </g>
   </g>
   <g id="PolyCollection_2">
    <defs>
     <path id="m7b429cc6e6" d="M 144.088182 -56.912358 
L 144.088182 -56.890367 
L 145.03364 -56.890367 
L 145.979098 -56.890367 
L 146.924557 -56.890367 
L 147.870015 -56.890367 
L 148.815473 -56.890367 
L 149.760932 -56.890367 
L 150.70639 -56.890367 
L 151.651848 -56.890367 
L 152.597307 -56.890367 
L 153.542765 -56.890367 
L 154.488223 -56.890367 
L 155.433682 -56.890367 
L 156.37914 -56.890367 
L 157.324598 -56.890367 
L 158.270057 -56.890367 
L 159.215515 -56.890367 
L 160.160974 -56.890367 
L 161.106432 -56.890367 
L 162.05189 -56.890367 
L 162.997349 -56.890367 
L 163.942807 -56.890367 
L 164.888265 -56.890367 
L 165.833724 -56.890367 
L 166.779182 -56.890367 
L 167.72464 -56.890367 
L 168.670099 -56.890367 
L 169.615557 -56.890367 
L 170.561015 -56.890367 
L 171.506474 -56.890367 
L 172.451932 -56.890367 
L 173.39739 -56.890367 
L 174.342849 -56.890367 
L 175.288307 -56.890367 
L 176.233765 -56.890367 
L 177.179224 -56.890367 
L 178.124682 -56.890367 
L 179.070141 -56.890367 
L 180.015599 -56.890367 
L 180.961057 -56.890367 
L 181.906516 -56.890367 
L 182.851974 -56.890367 
L 183.797432 -56.890367 
L 184.742891 -56.890367 
L 185.688349 -56.890367 
L 186.633807 -56.890367 
L 187.579266 -56.890367 
L 188.524724 -56.890367 
L 189.470182 -56.890367 
L 190.415641 -56.890367 
L 191.361099 -56.890367 
L 192.306557 -56.890367 
L 193.252016 -56.890367 
L 194.197474 -56.890367 
L 195.142932 -56.890367 
L 196.088391 -56.890367 
L 197.033849 -56.890367 
L 197.979308 -56.890367 
L 198.924766 -56.890367 
L 199.870224 -56.890367 
L 200.815683 -56.890367 
L 201.761141 -56.890367 
L 202.706599 -56.890367 
L 203.652058 -56.890367 
L 204.597516 -56.890367 
L 205.542974 -56.890367 
L 206.488433 -56.890367 
L 207.433891 -56.890367 
L 208.379349 -56.890367 
L 209.324808 -56.890367 
L 210.270266 -56.890367 
L 211.215724 -56.890367 
L 212.161183 -56.890367 
L 213.106641 -56.890367 
L 214.052099 -56.890367 
L 214.997558 -56.890367 
L 215.943016 -56.890367 
L 216.888475 -56.890367 
L 217.833933 -56.890367 
L 218.779391 -56.890367 
L 219.72485 -56.890367 
L 220.670308 -56.890367 
L 221.615766 -56.890367 
L 222.561225 -56.890367 
L 223.506683 -56.890367 
L 224.452141 -56.890367 
L 225.3976 -56.890367 
L 226.343058 -56.890367 
L 227.288516 -56.890367 
L 228.233975 -56.890367 
L 229.179433 -56.890367 
L 230.124891 -56.890367 
L 231.07035 -56.890367 
L 232.015808 -56.890367 
L 232.961266 -56.890367 
L 233.906725 -56.890367 
L 234.852183 -56.890367 
L 235.797642 -56.890367 
L 236.7431 -56.890367 
L 237.688558 -56.890367 
L 238.634017 -56.890367 
L 239.579475 -56.890367 
L 240.524933 -56.890367 
L 241.470392 -56.890367 
L 242.41585 -56.890367 
L 243.361308 -56.890367 
L 244.306767 -56.890367 
L 245.252225 -56.890367 
L 246.197683 -56.890367 
L 247.143142 -56.890367 
L 248.0886 -56.890367 
L 249.034058 -56.890367 
L 249.979517 -56.890367 
L 250.924975 -56.890367 
L 251.870433 -56.890367 
L 252.815892 -56.890367 
L 253.76135 -56.890367 
L 254.706809 -56.890367 
L 255.652267 -56.890367 
L 256.597725 -56.890367 
L 257.543184 -56.890367 
L 258.488642 -56.890367 
L 259.4341 -56.890367 
L 260.379559 -56.890367 
L 261.325017 -56.890367 
L 262.270475 -56.890367 
L 263.215934 -56.890367 
L 264.161392 -56.890367 
L 265.10685 -56.890367 
L 266.052309 -56.890367 
L 266.997767 -56.890367 
L 267.943225 -56.890367 
L 268.888684 -56.890367 
L 269.834142 -56.890367 
L 270.7796 -56.890367 
L 271.725059 -56.890367 
L 272.670517 -56.890367 
L 273.615976 -56.890367 
L 274.561434 -56.890367 
L 275.506892 -56.890367 
L 276.452351 -56.890367 
L 277.397809 -56.890367 
L 278.343267 -56.890367 
L 279.288726 -56.890367 
L 280.234184 -56.890367 
L 281.179642 -56.890367 
L 282.125101 -56.890367 
L 283.070559 -56.890367 
L 284.016017 -56.890367 
L 284.961476 -56.890367 
L 285.906934 -56.890367 
L 286.852392 -56.890367 
L 287.797851 -56.890367 
L 288.743309 -56.890367 
L 289.688767 -56.890367 
L 290.634226 -56.890367 
L 291.579684 -56.890367 
L 292.525143 -56.890367 
L 293.470601 -56.890367 
L 294.416059 -56.890367 
L 295.361518 -56.890367 
L 296.306976 -56.890367 
L 297.252434 -56.890367 
L 298.197893 -56.890367 
L 299.143351 -56.890367 
L 300.088809 -56.890367 
L 301.034268 -56.890367 
L 301.979726 -56.890367 
L 302.925184 -56.890367 
L 303.870643 -56.890367 
L 304.816101 -56.890367 
L 305.761559 -56.890367 
L 306.707018 -56.890367 
L 307.652476 -56.890367 
L 308.597934 -56.890367 
L 309.543393 -56.890367 
L 310.488851 -56.890367 
L 311.43431 -56.890367 
L 312.379768 -56.890367 
L 313.325226 -56.890367 
L 314.270685 -56.890367 
L 315.216143 -56.890367 
L 316.161601 -56.890367 
L 317.10706 -56.890367 
L 318.052518 -56.890367 
L 318.997976 -56.890367 
L 319.943435 -56.890367 
L 320.888893 -56.890367 
L 321.834351 -56.890367 
L 322.77981 -56.890367 
L 323.725268 -56.890367 
L 324.670726 -56.890367 
L 325.616185 -56.890367 
L 326.561643 -56.890367 
L 327.507101 -56.890367 
L 328.45256 -56.890367 
L 329.398018 -56.890367 
L 330.343477 -56.890367 
L 331.288935 -56.890367 
L 332.234393 -56.890367 
L 332.234393 -56.922194 
L 332.234393 -56.922194 
L 331.288935 -56.940552 
L 330.343477 -56.968011 
L 329.398018 -57.00826 
L 328.45256 -57.066073 
L 327.507101 -57.147467 
L 326.561643 -57.259796 
L 325.616185 -57.411786 
L 324.670726 -57.613463 
L 323.725268 -57.875964 
L 322.77981 -58.211222 
L 321.834351 -58.631542 
L 320.888893 -59.149095 
L 319.943435 -59.775385 
L 318.997976 -60.520771 
L 318.052518 -61.39413 
L 317.10706 -62.402735 
L 316.161601 -63.552431 
L 315.216143 -64.848128 
L 314.270685 -66.294605 
L 313.325226 -67.897549 
L 312.379768 -69.664705 
L 311.43431 -71.606966 
L 310.488851 -73.7392 
L 309.543393 -76.080651 
L 308.597934 -78.654753 
L 307.652476 -81.488301 
L 306.707018 -84.61002 
L 305.761559 -88.048671 
L 304.816101 -91.830921 
L 303.870643 -95.9793 
L 302.925184 -100.510526 
L 301.979726 -105.434473 
L 301.034268 -110.753926 
L 300.088809 -116.465105 
L 299.143351 -122.558814 
L 298.197893 -129.021872 
L 297.252434 -135.83846 
L 296.306976 -142.990962 
L 295.361518 -150.460023 
L 294.416059 -158.223695 
L 293.470601 -166.255803 
L 292.525143 -174.523871 
L 291.579684 -182.987152 
L 290.634226 -191.595349 
L 289.688767 -200.288581 
L 288.743309 -208.998919 
L 287.797851 -217.653529 
L 286.852392 -226.179127 
L 285.906934 -234.507102 
L 284.961476 -242.578491 
L 284.016017 -250.347882 
L 283.070559 -257.785484 
L 282.125101 -264.87684 
L 281.179642 -271.620093 
L 280.234184 -278.021108 
L 279.288726 -284.087217 
L 278.343267 -289.82058 
L 277.397809 -295.212323 
L 276.452351 -300.238499 
L 275.506892 -304.85864 
L 274.561434 -309.017246 
L 273.615976 -312.648033 
L 272.670517 -315.68027 
L 271.725059 -318.04616 
L 270.7796 -319.688017 
L 269.834142 -320.564063 
L 268.888684 -320.651922 
L 267.943225 -319.949384 
L 266.997767 -318.47254 
L 266.052309 -316.251918 
L 265.10685 -313.327622 
L 264.161392 -309.744601 
L 263.215934 -305.549103 
L 262.270475 -300.78698 
L 261.325017 -295.50407 
L 260.379559 -289.748331 
L 259.4341 -283.573 
L 258.488642 -277.039753 
L 257.543184 -270.220862 
L 256.597725 -263.199485 
L 255.652267 -256.067637 
L 254.706809 -248.921819 
L 253.76135 -241.856765 
L 252.815892 -234.958127 
L 251.870433 -228.295168 
L 250.924975 -221.914569 
L 249.979517 -215.836329 
L 249.034058 -210.052474 
L 248.0886 -204.528889 
L 247.143142 -199.210158 
L 246.197683 -194.026886 
L 245.252225 -188.904638 
L 244.306767 -183.773399 
L 243.361308 -178.576395 
L 242.41585 -173.277219 
L 241.470392 -167.864428 
L 240.524933 -162.353146 
L 239.579475 -156.783607 
L 238.634017 -151.216963 
L 237.688558 -145.729024 
L 236.7431 -140.402784 
L 235.797642 -135.320677 
L 234.852183 -130.557423 
L 233.906725 -126.174136 
L 232.961266 -122.214135 
L 232.015808 -118.700624 
L 231.07035 -115.636198 
L 230.124891 -113.003946 
L 229.179433 -110.769864 
L 228.233975 -108.886221 
L 227.288516 -107.295568 
L 226.343058 -105.935076 
L 225.3976 -104.740918 
L 224.452141 -103.652403 
L 223.506683 -102.615588 
L 222.561225 -101.586072 
L 221.615766 -100.530747 
L 220.670308 -99.428365 
L 219.72485 -98.268886 
L 218.779391 -97.051746 
L 217.833933 -95.783338 
L 216.888475 -94.474089 
L 215.943016 -93.135591 
L 214.997558 -91.778197 
L 214.052099 -90.409396 
L 213.106641 -89.033117 
L 212.161183 -87.649937 
L 211.215724 -86.25801 
L 210.270266 -84.854436 
L 209.324808 -83.436733 
L 208.379349 -82.004123 
L 207.433891 -80.558416 
L 206.488433 -79.104394 
L 205.542974 -77.649704 
L 204.597516 -76.204352 
L 203.652058 -74.77994 
L 202.706599 -73.388798 
L 201.761141 -72.043131 
L 200.815683 -70.754272 
L 199.870224 -69.532073 
L 198.924766 -68.38445 
L 197.979308 -67.317072 
L 197.033849 -66.333184 
L 196.088391 -65.433564 
L 195.142932 -64.616618 
L 194.197474 -63.878628 
L 193.252016 -63.214151 
L 192.306557 -62.616554 
L 191.361099 -62.078658 
L 190.415641 -61.593424 
L 189.470182 -61.15461 
L 188.524724 -60.757322 
L 187.579266 -60.398385 
L 186.633807 -60.076486 
L 185.688349 -59.79207 
L 184.742891 -59.547007 
L 183.797432 -59.34407 
L 182.851974 -59.186306 
L 181.906516 -59.076382 
L 180.961057 -59.015983 
L 180.015599 -59.005344 
L 179.070141 -59.042949 
L 178.124682 -59.125425 
L 177.179224 -59.247606 
L 176.233765 -59.402744 
L 175.288307 -59.582808 
L 174.342849 -59.778824 
L 173.39739 -59.981226 
L 172.451932 -60.180181 
L 171.506474 -60.365893 
L 170.561015 -60.528907 
L 169.615557 -60.660416 
L 168.670099 -60.752602 
L 167.72464 -60.799015 
L 166.779182 -60.794956 
L 165.833724 -60.737844 
L 164.888265 -60.627504 
L 163.942807 -60.46631 
L 162.997349 -60.259152 
L 162.05189 -60.013187 
L 161.106432 -59.737379 
L 160.160974 -59.441876 
L 159.215515 -59.137282 
L 158.270057 -58.833904 
L 157.324598 -58.541072 
L 156.37914 -58.266584 
L 155.433682 -58.01635 
L 154.488223 -57.794235 
L 153.542765 -57.602105 
L 152.597307 -57.440037 
L 151.651848 -57.306648 
L 150.70639 -57.199479 
L 149.760932 -57.115397 
L 148.815473 -57.050957 
L 147.870015 -57.002701 
L 146.924557 -56.967384 
L 145.979098 -56.942118 
L 145.03364 -56.924445 
L 144.088182 -56.912358 
z
" style="stroke: #de8f05; stroke-width: 2"/>
    </defs>
    <g clip-path="url(#pfc709a5deb)">
     <use xlink:href="#m7b429cc6e6" x="0" y="360" style="fill: #de8f05; fill-opacity: 0.2; stroke: #de8f05; stroke-width: 2"/>
    </g>
   </g>
   <g id="PolyCollection_3">
    <defs>
     <path id="m37399c148a" d="M 79.378636 -56.904933 
L 79.378636 -56.890367 
L 80.669957 -56.890367 
L 81.961277 -56.890367 
L 83.252597 -56.890367 
L 84.543917 -56.890367 
L 85.835238 -56.890367 
L 87.126558 -56.890367 
L 88.417878 -56.890367 
L 89.709198 -56.890367 
L 91.000519 -56.890367 
L 92.291839 -56.890367 
L 93.583159 -56.890367 
L 94.874479 -56.890367 
L 96.165799 -56.890367 
L 97.45712 -56.890367 
L 98.74844 -56.890367 
L 100.03976 -56.890367 
L 101.33108 -56.890367 
L 102.622401 -56.890367 
L 103.913721 -56.890367 
L 105.205041 -56.890367 
L 106.496361 -56.890367 
L 107.787682 -56.890367 
L 109.079002 -56.890367 
L 110.370322 -56.890367 
L 111.661642 -56.890367 
L 112.952963 -56.890367 
L 114.244283 -56.890367 
L 115.535603 -56.890367 
L 116.826923 -56.890367 
L 118.118243 -56.890367 
L 119.409564 -56.890367 
L 120.700884 -56.890367 
L 121.992204 -56.890367 
L 123.283524 -56.890367 
L 124.574845 -56.890367 
L 125.866165 -56.890367 
L 127.157485 -56.890367 
L 128.448805 -56.890367 
L 129.740126 -56.890367 
L 131.031446 -56.890367 
L 132.322766 -56.890367 
L 133.614086 -56.890367 
L 134.905407 -56.890367 
L 136.196727 -56.890367 
L 137.488047 -56.890367 
L 138.779367 -56.890367 
L 140.070688 -56.890367 
L 141.362008 -56.890367 
L 142.653328 -56.890367 
L 143.944648 -56.890367 
L 145.235968 -56.890367 
L 146.527289 -56.890367 
L 147.818609 -56.890367 
L 149.109929 -56.890367 
L 150.401249 -56.890367 
L 151.69257 -56.890367 
L 152.98389 -56.890367 
L 154.27521 -56.890367 
L 155.56653 -56.890367 
L 156.857851 -56.890367 
L 158.149171 -56.890367 
L 159.440491 -56.890367 
L 160.731811 -56.890367 
L 162.023132 -56.890367 
L 163.314452 -56.890367 
L 164.605772 -56.890367 
L 165.897092 -56.890367 
L 167.188413 -56.890367 
L 168.479733 -56.890367 
L 169.771053 -56.890367 
L 171.062373 -56.890367 
L 172.353693 -56.890367 
L 173.645014 -56.890367 
L 174.936334 -56.890367 
L 176.227654 -56.890367 
L 177.518974 -56.890367 
L 178.810295 -56.890367 
L 180.101615 -56.890367 
L 181.392935 -56.890367 
L 182.684255 -56.890367 
L 183.975576 -56.890367 
L 185.266896 -56.890367 
L 186.558216 -56.890367 
L 187.849536 -56.890367 
L 189.140857 -56.890367 
L 190.432177 -56.890367 
L 191.723497 -56.890367 
L 193.014817 -56.890367 
L 194.306138 -56.890367 
L 195.597458 -56.890367 
L 196.888778 -56.890367 
L 198.180098 -56.890367 
L 199.471418 -56.890367 
L 200.762739 -56.890367 
L 202.054059 -56.890367 
L 203.345379 -56.890367 
L 204.636699 -56.890367 
L 205.92802 -56.890367 
L 207.21934 -56.890367 
L 208.51066 -56.890367 
L 209.80198 -56.890367 
L 211.093301 -56.890367 
L 212.384621 -56.890367 
L 213.675941 -56.890367 
L 214.967261 -56.890367 
L 216.258582 -56.890367 
L 217.549902 -56.890367 
L 218.841222 -56.890367 
L 220.132542 -56.890367 
L 221.423862 -56.890367 
L 222.715183 -56.890367 
L 224.006503 -56.890367 
L 225.297823 -56.890367 
L 226.589143 -56.890367 
L 227.880464 -56.890367 
L 229.171784 -56.890367 
L 230.463104 -56.890367 
L 231.754424 -56.890367 
L 233.045745 -56.890367 
L 234.337065 -56.890367 
L 235.628385 -56.890367 
L 236.919705 -56.890367 
L 238.211026 -56.890367 
L 239.502346 -56.890367 
L 240.793666 -56.890367 
L 242.084986 -56.890367 
L 243.376307 -56.890367 
L 244.667627 -56.890367 
L 245.958947 -56.890367 
L 247.250267 -56.890367 
L 248.541587 -56.890367 
L 249.832908 -56.890367 
L 251.124228 -56.890367 
L 252.415548 -56.890367 
L 253.706868 -56.890367 
L 254.998189 -56.890367 
L 256.289509 -56.890367 
L 257.580829 -56.890367 
L 258.872149 -56.890367 
L 260.16347 -56.890367 
L 261.45479 -56.890367 
L 262.74611 -56.890367 
L 264.03743 -56.890367 
L 265.328751 -56.890367 
L 266.620071 -56.890367 
L 267.911391 -56.890367 
L 269.202711 -56.890367 
L 270.494032 -56.890367 
L 271.785352 -56.890367 
L 273.076672 -56.890367 
L 274.367992 -56.890367 
L 275.659312 -56.890367 
L 276.950633 -56.890367 
L 278.241953 -56.890367 
L 279.533273 -56.890367 
L 280.824593 -56.890367 
L 282.115914 -56.890367 
L 283.407234 -56.890367 
L 284.698554 -56.890367 
L 285.989874 -56.890367 
L 287.281195 -56.890367 
L 288.572515 -56.890367 
L 289.863835 -56.890367 
L 291.155155 -56.890367 
L 292.446476 -56.890367 
L 293.737796 -56.890367 
L 295.029116 -56.890367 
L 296.320436 -56.890367 
L 297.611757 -56.890367 
L 298.903077 -56.890367 
L 300.194397 -56.890367 
L 301.485717 -56.890367 
L 302.777037 -56.890367 
L 304.068358 -56.890367 
L 305.359678 -56.890367 
L 306.650998 -56.890367 
L 307.942318 -56.890367 
L 309.233639 -56.890367 
L 310.524959 -56.890367 
L 311.816279 -56.890367 
L 313.107599 -56.890367 
L 314.39892 -56.890367 
L 315.69024 -56.890367 
L 316.98156 -56.890367 
L 318.27288 -56.890367 
L 319.564201 -56.890367 
L 320.855521 -56.890367 
L 322.146841 -56.890367 
L 323.438161 -56.890367 
L 324.729481 -56.890367 
L 326.020802 -56.890367 
L 327.312122 -56.890367 
L 328.603442 -56.890367 
L 329.894762 -56.890367 
L 331.186083 -56.890367 
L 332.477403 -56.890367 
L 333.768723 -56.890367 
L 335.060043 -56.890367 
L 336.351364 -56.890367 
L 336.351364 -56.905817 
L 336.351364 -56.905817 
L 335.060043 -56.91578 
L 333.768723 -56.931162 
L 332.477403 -56.954318 
L 331.186083 -56.988346 
L 329.894762 -57.037213 
L 328.603442 -57.10589 
L 327.312122 -57.200488 
L 326.020802 -57.328425 
L 324.729481 -57.49861 
L 323.438161 -57.721667 
L 322.146841 -58.010181 
L 320.855521 -58.378915 
L 319.564201 -58.844935 
L 318.27288 -59.427545 
L 316.98156 -60.147933 
L 315.69024 -61.028452 
L 314.39892 -62.09154 
L 313.107599 -63.358366 
L 311.816279 -64.84739 
L 310.524959 -66.573102 
L 309.233639 -68.545213 
L 307.942318 -70.768523 
L 306.650998 -73.243549 
L 305.359678 -75.967856 
L 304.068358 -78.937849 
L 302.777037 -82.150701 
L 301.485717 -85.606089 
L 300.194397 -89.30746 
L 298.903077 -93.262685 
L 297.611757 -97.484053 
L 296.320436 -101.987647 
L 295.029116 -106.792086 
L 293.737796 -111.916598 
L 292.446476 -117.378329 
L 291.155155 -123.188815 
L 289.863835 -129.349793 
L 288.572515 -135.848767 
L 287.281195 -142.655197 
L 285.989874 -149.718425 
L 284.698554 -156.968553 
L 283.407234 -164.321183 
L 282.115914 -171.686282 
L 280.824593 -178.980468 
L 279.533273 -186.140971 
L 278.241953 -193.138704 
L 276.950633 -199.987451 
L 275.659312 -206.746474 
L 274.367992 -213.514784 
L 273.076672 -220.416769 
L 271.785352 -227.580624 
L 270.494032 -235.112567 
L 269.202711 -243.07088 
L 267.911391 -251.444156 
L 266.620071 -260.137596 
L 265.328751 -268.969995 
L 264.03743 -277.682409 
L 262.74611 -285.957654 
L 261.45479 -293.44824 
L 260.16347 -299.809105 
L 258.872149 -304.730962 
L 257.580829 -307.970012 
L 256.289509 -309.370409 
L 254.998189 -308.87679 
L 253.706868 -306.535579 
L 252.415548 -302.485215 
L 251.124228 -296.936859 
L 249.832908 -290.148447 
L 248.541587 -282.395725 
L 247.250267 -273.944322 
L 245.958947 -265.026664 
L 244.667627 -255.826702 
L 243.376307 -246.474186 
L 242.084986 -237.048561 
L 240.793666 -227.590984 
L 239.502346 -218.12158 
L 238.211026 -208.658229 
L 236.919705 -199.233037 
L 235.628385 -189.903287 
L 234.337065 -180.754879 
L 233.045745 -171.897905 
L 231.754424 -163.455567 
L 230.463104 -155.548976 
L 229.171784 -148.281024 
L 227.880464 -141.722514 
L 226.589143 -135.903092 
L 225.297823 -130.808361 
L 224.006503 -126.383318 
L 222.715183 -122.541026 
L 221.423862 -119.174653 
L 220.132542 -116.170605 
L 218.841222 -113.420659 
L 217.549902 -110.831465 
L 216.258582 -108.330562 
L 214.967261 -105.868776 
L 213.675941 -103.419547 
L 212.384621 -100.976067 
L 211.093301 -98.547264 
L 209.80198 -96.153467 
L 208.51066 -93.822344 
L 207.21934 -91.585327 
L 205.92802 -89.474472 
L 204.636699 -87.51961 
L 203.345379 -85.745639 
L 202.054059 -84.169989 
L 200.762739 -82.800494 
L 199.471418 -81.634011 
L 198.180098 -80.656211 
L 196.888778 -79.842771 
L 195.597458 -79.162009 
L 194.306138 -78.578636 
L 193.014817 -78.058062 
L 191.723497 -77.570495 
L 190.432177 -77.094083 
L 189.140857 -76.616533 
L 187.849536 -76.134917 
L 186.558216 -75.653783 
L 185.266896 -75.182019 
L 183.975576 -74.729135 
L 182.684255 -74.301768 
L 181.392935 -73.901069 
L 180.101615 -73.521466 
L 178.810295 -73.150938 
L 177.518974 -72.772661 
L 176.227654 -72.36759 
L 174.936334 -71.917412 
L 173.645014 -71.407292 
L 172.353693 -70.827927 
L 171.062373 -70.176628 
L 169.771053 -69.45737 
L 168.479733 -68.679955 
L 167.188413 -67.858552 
L 165.897092 -67.009958 
L 164.605772 -66.151876 
L 163.314452 -65.301431 
L 162.023132 -64.474072 
L 160.731811 -63.682874 
L 159.440491 -62.938239 
L 158.149171 -62.247902 
L 156.857851 -61.617169 
L 155.56653 -61.049288 
L 154.27521 -60.545851 
L 152.98389 -60.10714 
L 151.69257 -59.732343 
L 150.401249 -59.41959 
L 149.109929 -59.165839 
L 147.818609 -58.96664 
L 146.527289 -58.815927 
L 145.235968 -58.705926 
L 143.944648 -58.627307 
L 142.653328 -58.569652 
L 141.362008 -58.522193 
L 140.070688 -58.474751 
L 138.779367 -58.418711 
L 137.488047 -58.347859 
L 136.196727 -58.258908 
L 134.905407 -58.151645 
L 133.614086 -58.028648 
L 132.322766 -57.894664 
L 131.031446 -57.755768 
L 129.740126 -57.61847 
L 128.448805 -57.488922 
L 127.157485 -57.372339 
L 125.866165 -57.272694 
L 124.574845 -57.192688 
L 123.283524 -57.133925 
L 121.992204 -57.097203 
L 120.700884 -57.082834 
L 119.409564 -57.090877 
L 118.118243 -57.121234 
L 116.826923 -57.173572 
L 115.535603 -57.247096 
L 114.244283 -57.340206 
L 112.952963 -57.450146 
L 111.661642 -57.572721 
L 110.370322 -57.702202 
L 109.079002 -57.831476 
L 107.787682 -57.952484 
L 106.496361 -58.056903 
L 105.205041 -58.137 
L 103.913721 -58.186523 
L 102.622401 -58.201471 
L 101.33108 -58.180605 
L 100.03976 -58.125608 
L 98.74844 -58.040852 
L 97.45712 -57.932821 
L 96.165799 -57.809289 
L 94.874479 -57.678404 
L 93.583159 -57.547814 
L 92.291839 -57.423973 
L 91.000519 -57.311701 
L 89.709198 -57.214019 
L 88.417878 -57.132233 
L 87.126558 -57.066207 
L 85.835238 -57.014735 
L 84.543917 -56.975941 
L 83.252597 -56.94765 
L 81.961277 -56.92767 
L 80.669957 -56.914 
L 79.378636 -56.904933 
z
" style="stroke: #0173b2; stroke-width: 2"/>
    </defs>
    <g clip-path="url(#pfc709a5deb)">
     <use xlink:href="#m37399c148a" x="0" y="360" style="fill: #0173b2; fill-opacity: 0.2; stroke: #0173b2; stroke-width: 2"/>
    </g>
   </g>
   <g id="matplotlib.axis_1">
    <g id="xtick_1">
     <g id="line2d_1">
      <defs>
       <path id="m49e4aee1eb" d="M 0 0 
L 0 3.5 
" style="stroke: #000000; stroke-width: 0.8"/>
      </defs>
      <g>
       <use xlink:href="#m49e4aee1eb" x="115.720616" y="303.109633" style="stroke: #000000; stroke-width: 0.8"/>
      </g>
     </g>
     <g id="text_1">
      <!-- 6500 -->
      <g transform="translate(108.673855 333.478407) rotate(-45) scale(0.1 -0.1)">
       <defs>
        <path id="DejaVuSerif-36" d="M 2094 219 
Q 2534 219 2771 542 
Q 3009 866 3009 1472 
Q 3009 2078 2771 2401 
Q 2534 2725 2094 2725 
Q 1647 2725 1412 2412 
Q 1178 2100 1178 1509 
Q 1178 888 1415 553 
Q 1653 219 2094 219 
z
M 1075 2569 
Q 1288 2803 1556 2918 
Q 1825 3034 2163 3034 
Q 2859 3034 3264 2615 
Q 3669 2197 3669 1472 
Q 3669 763 3233 336 
Q 2797 -91 2069 -91 
Q 1278 -91 853 498 
Q 428 1088 428 2181 
Q 428 3406 931 4078 
Q 1434 4750 2350 4750 
Q 2597 4750 2869 4703 
Q 3141 4656 3425 4563 
L 3425 3794 
L 3072 3794 
Q 3034 4109 2831 4275 
Q 2628 4441 2284 4441 
Q 1678 4441 1381 3981 
Q 1084 3522 1075 2569 
z
" transform="scale(0.015625)"/>
        <path id="DejaVuSerif-35" d="M 3219 4666 
L 3219 4153 
L 1081 4153 
L 1081 2816 
Q 1244 2928 1461 2984 
Q 1678 3041 1947 3041 
Q 2703 3041 3140 2622 
Q 3578 2203 3578 1478 
Q 3578 738 3136 323 
Q 2694 -91 1894 -91 
Q 1572 -91 1234 -12 
Q 897 66 544 225 
L 544 1131 
L 897 1131 
Q 925 688 1179 453 
Q 1434 219 1894 219 
Q 2388 219 2653 544 
Q 2919 869 2919 1478 
Q 2919 2084 2655 2407 
Q 2391 2731 1894 2731 
Q 1613 2731 1398 2631 
Q 1184 2531 1019 2322 
L 750 2322 
L 750 4666 
L 3219 4666 
z
" transform="scale(0.015625)"/>
        <path id="DejaVuSerif-30" d="M 2034 219 
Q 2513 219 2750 744 
Q 2988 1269 2988 2328 
Q 2988 3391 2750 3916 
Q 2513 4441 2034 4441 
Q 1556 4441 1318 3916 
Q 1081 3391 1081 2328 
Q 1081 1269 1318 744 
Q 1556 219 2034 219 
z
M 2034 -91 
Q 1275 -91 848 546 
Q 422 1184 422 2328 
Q 422 3475 848 4112 
Q 1275 4750 2034 4750 
Q 2797 4750 3222 4112 
Q 3647 3475 3647 2328 
Q 3647 1184 3222 546 
Q 2797 -91 2034 -91 
z
" transform="scale(0.015625)"/>
       </defs>
       <use xlink:href="#DejaVuSerif-36"/>
       <use xlink:href="#DejaVuSerif-35" x="63.623047"/>
       <use xlink:href="#DejaVuSerif-30" x="127.246094"/>
       <use xlink:href="#DejaVuSerif-30" x="190.869141"/>
      </g>
     </g>
    </g>
    <g id="xtick_2">
     <g id="line2d_2">
      <g>
       <use xlink:href="#m49e4aee1eb" x="170.308521" y="303.109633" style="stroke: #000000; stroke-width: 0.8"/>
      </g>
     </g>
     <g id="text_2">
      <!-- 7000 -->
      <g transform="translate(163.26176 333.478407) rotate(-45) scale(0.1 -0.1)">
       <defs>
        <path id="DejaVuSerif-37" d="M 3609 4347 
L 1784 0 
L 1319 0 
L 3059 4153 
L 903 4153 
L 903 3578 
L 538 3578 
L 538 4666 
L 3609 4666 
L 3609 4347 
z
" transform="scale(0.015625)"/>
       </defs>
       <use xlink:href="#DejaVuSerif-37"/>
       <use xlink:href="#DejaVuSerif-30" x="63.623047"/>
       <use xlink:href="#DejaVuSerif-30" x="127.246094"/>
       <use xlink:href="#DejaVuSerif-30" x="190.869141"/>
      </g>
     </g>
    </g>
    <g id="xtick_3">
     <g id="line2d_3">
      <g>
       <use xlink:href="#m49e4aee1eb" x="224.896426" y="303.109633" style="stroke: #000000; stroke-width: 0.8"/>
      </g>
     </g>
     <g id="text_3">
      <!-- 7500 -->
      <g transform="translate(217.849665 333.478407) rotate(-45) scale(0.1 -0.1)">
       <use xlink:href="#DejaVuSerif-37"/>
       <use xlink:href="#DejaVuSerif-35" x="63.623047"/>
       <use xlink:href="#DejaVuSerif-30" x="127.246094"/>
       <use xlink:href="#DejaVuSerif-30" x="190.869141"/>
      </g>
     </g>
    </g>
    <g id="xtick_4">
     <g id="line2d_4">
      <g>
       <use xlink:href="#m49e4aee1eb" x="279.484332" y="303.109633" style="stroke: #000000; stroke-width: 0.8"/>
      </g>
     </g>
     <g id="text_4">
      <!-- 8000 -->
      <g transform="translate(272.437571 333.478407) rotate(-45) scale(0.1 -0.1)">
       <defs>
        <path id="DejaVuSerif-38" d="M 2981 1275 
Q 2981 1775 2732 2051 
Q 2484 2328 2034 2328 
Q 1584 2328 1336 2051 
Q 1088 1775 1088 1275 
Q 1088 772 1336 495 
Q 1584 219 2034 219 
Q 2484 219 2732 495 
Q 2981 772 2981 1275 
z
M 2853 3541 
Q 2853 3966 2637 4203 
Q 2422 4441 2034 4441 
Q 1650 4441 1433 4203 
Q 1216 3966 1216 3541 
Q 1216 3113 1433 2875 
Q 1650 2638 2034 2638 
Q 2422 2638 2637 2875 
Q 2853 3113 2853 3541 
z
M 2516 2484 
Q 3047 2413 3344 2092 
Q 3641 1772 3641 1275 
Q 3641 619 3225 264 
Q 2809 -91 2034 -91 
Q 1263 -91 845 264 
Q 428 619 428 1275 
Q 428 1772 725 2092 
Q 1022 2413 1556 2484 
Q 1084 2569 832 2842 
Q 581 3116 581 3541 
Q 581 4103 968 4426 
Q 1356 4750 2034 4750 
Q 2713 4750 3100 4426 
Q 3488 4103 3488 3541 
Q 3488 3116 3236 2842 
Q 2984 2569 2516 2484 
z
" transform="scale(0.015625)"/>
       </defs>
       <use xlink:href="#DejaVuSerif-38"/>
       <use xlink:href="#DejaVuSerif-30" x="63.623047"/>
       <use xlink:href="#DejaVuSerif-30" x="127.246094"/>
       <use xlink:href="#DejaVuSerif-30" x="190.869141"/>
      </g>
     </g>
    </g>
    <g id="xtick_5">
     <g id="line2d_5">
      <g>
       <use xlink:href="#m49e4aee1eb" x="334.072237" y="303.109633" style="stroke: #000000; stroke-width: 0.8"/>
      </g>
     </g>
     <g id="text_5">
      <!-- 8500 -->
      <g transform="translate(327.025476 333.478407) rotate(-45) scale(0.1 -0.1)">
       <use xlink:href="#DejaVuSerif-38"/>
       <use xlink:href="#DejaVuSerif-35" x="63.623047"/>
       <use xlink:href="#DejaVuSerif-30" x="127.246094"/>
       <use xlink:href="#DejaVuSerif-30" x="190.869141"/>
      </g>
     </g>
    </g>
    <g id="text_6">
     <!-- Number of zeroes per cell -->
     <g transform="translate(141.734531 346.547406) scale(0.1 -0.1)">
      <defs>
       <path id="DejaVuSerif-4e" d="M 313 0 
L 313 331 
L 941 331 
L 941 4331 
L 313 4331 
L 313 4666 
L 1509 4666 
L 4306 984 
L 4306 4331 
L 3681 4331 
L 3681 4666 
L 5319 4666 
L 5319 4331 
L 4691 4331 
L 4691 -91 
L 4313 -91 
L 1325 3841 
L 1325 331 
L 1953 331 
L 1953 0 
L 313 0 
z
" transform="scale(0.015625)"/>
       <path id="DejaVuSerif-75" d="M 2266 3322 
L 3341 3322 
L 3341 331 
L 3884 331 
L 3884 0 
L 2766 0 
L 2766 588 
Q 2606 256 2353 82 
Q 2100 -91 1766 -91 
Q 1213 -91 952 223 
Q 691 538 691 1209 
L 691 2988 
L 172 2988 
L 172 3322 
L 1269 3322 
L 1269 1388 
Q 1269 781 1417 556 
Q 1566 331 1947 331 
Q 2347 331 2556 625 
Q 2766 919 2766 1478 
L 2766 2988 
L 2266 2988 
L 2266 3322 
z
" transform="scale(0.015625)"/>
       <path id="DejaVuSerif-6d" d="M 3316 2675 
Q 3481 3041 3739 3227 
Q 3997 3413 4341 3413 
Q 4863 3413 5119 3089 
Q 5375 2766 5375 2113 
L 5375 331 
L 5894 331 
L 5894 0 
L 4300 0 
L 4300 331 
L 4800 331 
L 4800 2047 
Q 4800 2556 4650 2772 
Q 4500 2988 4153 2988 
Q 3769 2988 3567 2697 
Q 3366 2406 3366 1850 
L 3366 331 
L 3866 331 
L 3866 0 
L 2291 0 
L 2291 331 
L 2791 331 
L 2791 2069 
Q 2791 2566 2641 2777 
Q 2491 2988 2144 2988 
Q 1759 2988 1557 2697 
Q 1356 2406 1356 1850 
L 1356 331 
L 1856 331 
L 1856 0 
L 263 0 
L 263 331 
L 781 331 
L 781 2994 
L 231 2994 
L 231 3322 
L 1356 3322 
L 1356 2731 
Q 1516 3063 1762 3238 
Q 2009 3413 2322 3413 
Q 2709 3413 2968 3220 
Q 3228 3028 3316 2675 
z
" transform="scale(0.015625)"/>
       <path id="DejaVuSerif-62" d="M 738 331 
L 738 4531 
L 184 4531 
L 184 4863 
L 1313 4863 
L 1313 2803 
Q 1481 3116 1742 3264 
Q 2003 3413 2388 3413 
Q 3000 3413 3387 2928 
Q 3775 2444 3775 1663 
Q 3775 881 3387 395 
Q 3000 -91 2388 -91 
Q 2003 -91 1742 57 
Q 1481 206 1313 519 
L 1313 0 
L 184 0 
L 184 331 
L 738 331 
z
M 1313 1497 
Q 1313 897 1542 583 
Q 1772 269 2209 269 
Q 2650 269 2876 622 
Q 3103 975 3103 1663 
Q 3103 2353 2876 2703 
Q 2650 3053 2209 3053 
Q 1772 3053 1542 2737 
Q 1313 2422 1313 1825 
L 1313 1497 
z
" transform="scale(0.015625)"/>
       <path id="DejaVuSerif-65" d="M 3469 1600 
L 991 1600 
L 991 1575 
Q 991 903 1244 561 
Q 1497 219 1991 219 
Q 2369 219 2611 417 
Q 2853 616 2950 1006 
L 3413 1006 
Q 3275 459 2904 184 
Q 2534 -91 1931 -91 
Q 1203 -91 761 389 
Q 319 869 319 1663 
Q 319 2450 753 2931 
Q 1188 3413 1894 3413 
Q 2647 3413 3050 2948 
Q 3453 2484 3469 1600 
z
M 2791 1931 
Q 2772 2513 2545 2808 
Q 2319 3103 1894 3103 
Q 1497 3103 1269 2806 
Q 1041 2509 991 1931 
L 2791 1931 
z
" transform="scale(0.015625)"/>
       <path id="DejaVuSerif-72" d="M 3059 3328 
L 3059 2497 
L 2728 2497 
Q 2713 2744 2591 2866 
Q 2469 2988 2234 2988 
Q 1809 2988 1582 2694 
Q 1356 2400 1356 1850 
L 1356 331 
L 2022 331 
L 2022 0 
L 263 0 
L 263 331 
L 781 331 
L 781 2994 
L 231 2994 
L 231 3322 
L 1356 3322 
L 1356 2731 
Q 1525 3078 1790 3245 
Q 2056 3413 2438 3413 
Q 2578 3413 2733 3391 
Q 2888 3369 3059 3328 
z
" transform="scale(0.015625)"/>
       <path id="DejaVuSerif-20" transform="scale(0.015625)"/>
       <path id="DejaVuSerif-6f" d="M 1925 219 
Q 2388 219 2623 584 
Q 2859 950 2859 1663 
Q 2859 2375 2623 2739 
Q 2388 3103 1925 3103 
Q 1463 3103 1227 2739 
Q 991 2375 991 1663 
Q 991 950 1228 584 
Q 1466 219 1925 219 
z
M 1925 -91 
Q 1200 -91 759 389 
Q 319 869 319 1663 
Q 319 2456 758 2934 
Q 1197 3413 1925 3413 
Q 2653 3413 3092 2934 
Q 3531 2456 3531 1663 
Q 3531 869 3092 389 
Q 2653 -91 1925 -91 
z
" transform="scale(0.015625)"/>
       <path id="DejaVuSerif-66" d="M 2753 4078 
L 2450 4078 
Q 2447 4313 2317 4434 
Q 2188 4556 1941 4556 
Q 1619 4556 1487 4379 
Q 1356 4203 1356 3750 
L 1356 3322 
L 2284 3322 
L 2284 2988 
L 1356 2988 
L 1356 331 
L 2094 331 
L 2094 0 
L 231 0 
L 231 331 
L 781 331 
L 781 2988 
L 231 2988 
L 231 3322 
L 781 3322 
L 781 3738 
Q 781 4294 1070 4578 
Q 1359 4863 1919 4863 
Q 2128 4863 2337 4825 
Q 2547 4788 2753 4709 
L 2753 4078 
z
" transform="scale(0.015625)"/>
       <path id="DejaVuSerif-7a" d="M 256 0 
L 256 269 
L 2338 2988 
L 691 2988 
L 691 2413 
L 359 2413 
L 359 3322 
L 3078 3322 
L 3078 3053 
L 997 331 
L 2803 331 
L 2803 934 
L 3138 934 
L 3138 0 
L 256 0 
z
" transform="scale(0.015625)"/>
       <path id="DejaVuSerif-73" d="M 359 184 
L 359 959 
L 691 959 
Q 703 588 923 403 
Q 1144 219 1575 219 
Q 1963 219 2166 364 
Q 2369 509 2369 788 
Q 2369 1006 2220 1140 
Q 2072 1275 1594 1428 
L 1178 1569 
Q 750 1706 558 1912 
Q 366 2119 366 2438 
Q 366 2894 700 3153 
Q 1034 3413 1625 3413 
Q 1888 3413 2178 3344 
Q 2469 3275 2778 3144 
L 2778 2419 
L 2447 2419 
Q 2434 2741 2221 2922 
Q 2009 3103 1644 3103 
Q 1281 3103 1095 2975 
Q 909 2847 909 2591 
Q 909 2381 1050 2254 
Q 1191 2128 1613 1997 
L 2069 1856 
Q 2541 1709 2748 1489 
Q 2956 1269 2956 922 
Q 2956 450 2595 179 
Q 2234 -91 1600 -91 
Q 1278 -91 972 -22 
Q 666 47 359 184 
z
" transform="scale(0.015625)"/>
       <path id="DejaVuSerif-70" d="M 1313 1825 
L 1313 1497 
Q 1313 897 1542 583 
Q 1772 269 2209 269 
Q 2650 269 2876 622 
Q 3103 975 3103 1663 
Q 3103 2353 2876 2703 
Q 2650 3053 2209 3053 
Q 1772 3053 1542 2737 
Q 1313 2422 1313 1825 
z
M 738 2988 
L 184 2988 
L 184 3322 
L 1313 3322 
L 1313 2803 
Q 1481 3116 1742 3264 
Q 2003 3413 2388 3413 
Q 3000 3413 3387 2928 
Q 3775 2444 3775 1663 
Q 3775 881 3387 395 
Q 3000 -91 2388 -91 
Q 2003 -91 1742 57 
Q 1481 206 1313 519 
L 1313 -997 
L 1856 -997 
L 1856 -1331 
L 184 -1331 
L 184 -997 
L 738 -997 
L 738 2988 
z
" transform="scale(0.015625)"/>
       <path id="DejaVuSerif-63" d="M 3291 997 
Q 3169 466 2822 187 
Q 2475 -91 1925 -91 
Q 1200 -91 759 389 
Q 319 869 319 1663 
Q 319 2459 759 2936 
Q 1200 3413 1925 3413 
Q 2241 3413 2553 3339 
Q 2866 3266 3181 3116 
L 3181 2266 
L 2847 2266 
Q 2781 2703 2561 2903 
Q 2341 3103 1931 3103 
Q 1466 3103 1228 2742 
Q 991 2381 991 1663 
Q 991 944 1227 581 
Q 1463 219 1931 219 
Q 2303 219 2525 412 
Q 2747 606 2828 997 
L 3291 997 
z
" transform="scale(0.015625)"/>
       <path id="DejaVuSerif-6c" d="M 1313 331 
L 1856 331 
L 1856 0 
L 184 0 
L 184 331 
L 738 331 
L 738 4531 
L 184 4531 
L 184 4863 
L 1313 4863 
L 1313 331 
z
" transform="scale(0.015625)"/>
      </defs>
      <use xlink:href="#DejaVuSerif-4e"/>
      <use xlink:href="#DejaVuSerif-75" x="87.5"/>
      <use xlink:href="#DejaVuSerif-6d" x="151.904297"/>
      <use xlink:href="#DejaVuSerif-62" x="246.728516"/>
      <use xlink:href="#DejaVuSerif-65" x="310.742188"/>
      <use xlink:href="#DejaVuSerif-72" x="369.921875"/>
      <use xlink:href="#DejaVuSerif-20" x="417.724609"/>
      <use xlink:href="#DejaVuSerif-6f" x="449.511719"/>
      <use xlink:href="#DejaVuSerif-66" x="509.716797"/>
      <use xlink:href="#DejaVuSerif-20" x="546.728516"/>
      <use xlink:href="#DejaVuSerif-7a" x="578.515625"/>
      <use xlink:href="#DejaVuSerif-65" x="631.201172"/>
      <use xlink:href="#DejaVuSerif-72" x="690.380859"/>
      <use xlink:href="#DejaVuSerif-6f" x="738.183594"/>
      <use xlink:href="#DejaVuSerif-65" x="798.388672"/>
      <use xlink:href="#DejaVuSerif-73" x="857.568359"/>
      <use xlink:href="#DejaVuSerif-20" x="908.886719"/>
      <use xlink:href="#DejaVuSerif-70" x="940.673828"/>
      <use xlink:href="#DejaVuSerif-65" x="1004.6875"/>
      <use xlink:href="#DejaVuSerif-72" x="1063.867188"/>
      <use xlink:href="#DejaVuSerif-20" x="1111.669922"/>
      <use xlink:href="#DejaVuSerif-63" x="1143.457031"/>
      <use xlink:href="#DejaVuSerif-65" x="1199.462891"/>
      <use xlink:href="#DejaVuSerif-6c" x="1258.642578"/>
      <use xlink:href="#DejaVuSerif-6c" x="1290.625"/>
     </g>
    </g>
   </g>
   <g id="matplotlib.axis_2">
    <g id="ytick_1">
     <g id="line2d_6">
      <defs>
       <path id="m8f41ad6ae0" d="M 0 0 
L -3.5 0 
" style="stroke: #000000; stroke-width: 0.8"/>
      </defs>
      <g>
       <use xlink:href="#m8f41ad6ae0" x="66.53" y="303.109633" style="stroke: #000000; stroke-width: 0.8"/>
      </g>
     </g>
     <g id="text_7">
      <!-- 0.0000 -->
      <g transform="translate(24.539375 306.908852) scale(0.1 -0.1)">
       <defs>
        <path id="DejaVuSerif-2e" d="M 603 325 
Q 603 500 722 622 
Q 841 744 1019 744 
Q 1191 744 1312 622 
Q 1434 500 1434 325 
Q 1434 153 1312 31 
Q 1191 -91 1019 -91 
Q 841 -91 722 29 
Q 603 150 603 325 
z
" transform="scale(0.015625)"/>
       </defs>
       <use xlink:href="#DejaVuSerif-30"/>
       <use xlink:href="#DejaVuSerif-2e" x="63.623047"/>
       <use xlink:href="#DejaVuSerif-30" x="95.410156"/>
       <use xlink:href="#DejaVuSerif-30" x="159.033203"/>
       <use xlink:href="#DejaVuSerif-30" x="222.65625"/>
       <use xlink:href="#DejaVuSerif-30" x="286.279297"/>
      </g>
     </g>
    </g>
    <g id="ytick_2">
     <g id="line2d_7">
      <g>
       <use xlink:href="#m8f41ad6ae0" x="66.53" y="265.994472" style="stroke: #000000; stroke-width: 0.8"/>
      </g>
     </g>
     <g id="text_8">
      <!-- 0.0001 -->
      <g transform="translate(24.539375 269.793691) scale(0.1 -0.1)">
       <defs>
        <path id="DejaVuSerif-31" d="M 909 0 
L 909 331 
L 1722 331 
L 1722 4213 
L 781 3603 
L 781 4013 
L 1919 4750 
L 2350 4750 
L 2350 331 
L 3163 331 
L 3163 0 
L 909 0 
z
" transform="scale(0.015625)"/>
       </defs>
       <use xlink:href="#DejaVuSerif-30"/>
       <use xlink:href="#DejaVuSerif-2e" x="63.623047"/>
       <use xlink:href="#DejaVuSerif-30" x="95.410156"/>
       <use xlink:href="#DejaVuSerif-30" x="159.033203"/>
       <use xlink:href="#DejaVuSerif-30" x="222.65625"/>
       <use xlink:href="#DejaVuSerif-31" x="286.279297"/>
      </g>
     </g>
    </g>
    <g id="ytick_3">
     <g id="line2d_8">
      <g>
       <use xlink:href="#m8f41ad6ae0" x="66.53" y="228.879312" style="stroke: #000000; stroke-width: 0.8"/>
      </g>
     </g>
     <g id="text_9">
      <!-- 0.0002 -->
      <g transform="translate(24.539375 232.678531) scale(0.1 -0.1)">
       <defs>
        <path id="DejaVuSerif-32" d="M 819 3553 
L 469 3553 
L 469 4384 
Q 803 4563 1142 4656 
Q 1481 4750 1806 4750 
Q 2534 4750 2956 4397 
Q 3378 4044 3378 3438 
Q 3378 2753 2422 1800 
Q 2347 1728 2309 1691 
L 1131 513 
L 3078 513 
L 3078 1088 
L 3444 1088 
L 3444 0 
L 434 0 
L 434 341 
L 1850 1753 
Q 2319 2222 2519 2614 
Q 2719 3006 2719 3438 
Q 2719 3909 2473 4175 
Q 2228 4441 1797 4441 
Q 1350 4441 1106 4219 
Q 863 3997 819 3553 
z
" transform="scale(0.015625)"/>
       </defs>
       <use xlink:href="#DejaVuSerif-30"/>
       <use xlink:href="#DejaVuSerif-2e" x="63.623047"/>
       <use xlink:href="#DejaVuSerif-30" x="95.410156"/>
       <use xlink:href="#DejaVuSerif-30" x="159.033203"/>
       <use xlink:href="#DejaVuSerif-30" x="222.65625"/>
       <use xlink:href="#DejaVuSerif-32" x="286.279297"/>
      </g>
     </g>
    </g>
    <g id="ytick_4">
     <g id="line2d_9">
      <g>
       <use xlink:href="#m8f41ad6ae0" x="66.53" y="191.764151" style="stroke: #000000; stroke-width: 0.8"/>
      </g>
     </g>
     <g id="text_10">
      <!-- 0.0003 -->
      <g transform="translate(24.539375 195.56337) scale(0.1 -0.1)">
       <defs>
        <path id="DejaVuSerif-33" d="M 622 4469 
Q 988 4606 1323 4678 
Q 1659 4750 1953 4750 
Q 2638 4750 3022 4454 
Q 3406 4159 3406 3634 
Q 3406 3213 3140 2930 
Q 2875 2647 2388 2547 
Q 2963 2466 3280 2130 
Q 3597 1794 3597 1259 
Q 3597 606 3158 257 
Q 2719 -91 1894 -91 
Q 1528 -91 1179 -12 
Q 831 66 488 225 
L 488 1131 
L 838 1131 
Q 869 681 1141 450 
Q 1413 219 1906 219 
Q 2384 219 2661 495 
Q 2938 772 2938 1253 
Q 2938 1803 2653 2086 
Q 2369 2369 1819 2369 
L 1522 2369 
L 1522 2688 
L 1678 2688 
Q 2225 2688 2498 2914 
Q 2772 3141 2772 3597 
Q 2772 4006 2547 4223 
Q 2322 4441 1900 4441 
Q 1478 4441 1245 4241 
Q 1013 4041 972 3647 
L 622 3647 
L 622 4469 
z
" transform="scale(0.015625)"/>
       </defs>
       <use xlink:href="#DejaVuSerif-30"/>
       <use xlink:href="#DejaVuSerif-2e" x="63.623047"/>
       <use xlink:href="#DejaVuSerif-30" x="95.410156"/>
       <use xlink:href="#DejaVuSerif-30" x="159.033203"/>
       <use xlink:href="#DejaVuSerif-30" x="222.65625"/>
       <use xlink:href="#DejaVuSerif-33" x="286.279297"/>
      </g>
     </g>
    </g>
    <g id="ytick_5">
     <g id="line2d_10">
      <g>
       <use xlink:href="#m8f41ad6ae0" x="66.53" y="154.64899" style="stroke: #000000; stroke-width: 0.8"/>
      </g>
     </g>
     <g id="text_11">
      <!-- 0.0004 -->
      <g transform="translate(24.539375 158.448209) scale(0.1 -0.1)">
       <defs>
        <path id="DejaVuSerif-34" d="M 2234 1581 
L 2234 4063 
L 641 1581 
L 2234 1581 
z
M 3609 0 
L 1484 0 
L 1484 331 
L 2234 331 
L 2234 1247 
L 197 1247 
L 197 1588 
L 2241 4750 
L 2859 4750 
L 2859 1581 
L 3750 1581 
L 3750 1247 
L 2859 1247 
L 2859 331 
L 3609 331 
L 3609 0 
z
" transform="scale(0.015625)"/>
       </defs>
       <use xlink:href="#DejaVuSerif-30"/>
       <use xlink:href="#DejaVuSerif-2e" x="63.623047"/>
       <use xlink:href="#DejaVuSerif-30" x="95.410156"/>
       <use xlink:href="#DejaVuSerif-30" x="159.033203"/>
       <use xlink:href="#DejaVuSerif-30" x="222.65625"/>
       <use xlink:href="#DejaVuSerif-34" x="286.279297"/>
      </g>
     </g>
    </g>
    <g id="ytick_6">
     <g id="line2d_11">
      <g>
       <use xlink:href="#m8f41ad6ae0" x="66.53" y="117.53383" style="stroke: #000000; stroke-width: 0.8"/>
      </g>
     </g>
     <g id="text_12">
      <!-- 0.0005 -->
      <g transform="translate(24.539375 121.333049) scale(0.1 -0.1)">
       <use xlink:href="#DejaVuSerif-30"/>
       <use xlink:href="#DejaVuSerif-2e" x="63.623047"/>
       <use xlink:href="#DejaVuSerif-30" x="95.410156"/>
       <use xlink:href="#DejaVuSerif-30" x="159.033203"/>
       <use xlink:href="#DejaVuSerif-30" x="222.65625"/>
       <use xlink:href="#DejaVuSerif-35" x="286.279297"/>
      </g>
     </g>
    </g>
    <g id="ytick_7">
     <g id="line2d_12">
      <g>
       <use xlink:href="#m8f41ad6ae0" x="66.53" y="80.418669" style="stroke: #000000; stroke-width: 0.8"/>
      </g>
     </g>
     <g id="text_13">
      <!-- 0.0006 -->
      <g transform="translate(24.539375 84.217888) scale(0.1 -0.1)">
       <use xlink:href="#DejaVuSerif-30"/>
       <use xlink:href="#DejaVuSerif-2e" x="63.623047"/>
       <use xlink:href="#DejaVuSerif-30" x="95.410156"/>
       <use xlink:href="#DejaVuSerif-30" x="159.033203"/>
       <use xlink:href="#DejaVuSerif-30" x="222.65625"/>
       <use xlink:href="#DejaVuSerif-36" x="286.279297"/>
      </g>
     </g>
    </g>
    <g id="ytick_8">
     <g id="line2d_13">
      <g>
       <use xlink:href="#m8f41ad6ae0" x="66.53" y="43.303508" style="stroke: #000000; stroke-width: 0.8"/>
      </g>
     </g>
     <g id="text_14">
      <!-- 0.0007 -->
      <g transform="translate(24.539375 47.102727) scale(0.1 -0.1)">
       <use xlink:href="#DejaVuSerif-30"/>
       <use xlink:href="#DejaVuSerif-2e" x="63.623047"/>
       <use xlink:href="#DejaVuSerif-30" x="95.410156"/>
       <use xlink:href="#DejaVuSerif-30" x="159.033203"/>
       <use xlink:href="#DejaVuSerif-30" x="222.65625"/>
       <use xlink:href="#DejaVuSerif-37" x="286.279297"/>
      </g>
     </g>
    </g>
    <g id="text_15">
     <!-- Frequency -->
     <g transform="translate(18.3175 191.679348) rotate(-90) scale(0.1 -0.1)">
      <defs>
       <path id="DejaVuSerif-46" d="M 353 0 
L 353 331 
L 947 331 
L 947 4331 
L 353 4331 
L 353 4666 
L 4172 4666 
L 4172 3628 
L 3788 3628 
L 3788 4281 
L 1581 4281 
L 1581 2719 
L 3175 2719 
L 3175 3303 
L 3559 3303 
L 3559 1753 
L 3175 1753 
L 3175 2338 
L 1581 2338 
L 1581 331 
L 2328 331 
L 2328 0 
L 353 0 
z
" transform="scale(0.015625)"/>
       <path id="DejaVuSerif-71" d="M 3359 2988 
L 3359 -997 
L 3909 -997 
L 3909 -1331 
L 2241 -1331 
L 2241 -997 
L 2784 -997 
L 2784 519 
Q 2616 206 2355 57 
Q 2094 -91 1709 -91 
Q 1097 -91 708 395 
Q 319 881 319 1663 
Q 319 2444 706 2928 
Q 1094 3413 1709 3413 
Q 2094 3413 2355 3264 
Q 2616 3116 2784 2803 
L 2784 3322 
L 3909 3322 
L 3909 2988 
L 3359 2988 
z
M 2784 1825 
Q 2784 2422 2554 2737 
Q 2325 3053 1888 3053 
Q 1444 3053 1217 2703 
Q 991 2353 991 1663 
Q 991 975 1217 622 
Q 1444 269 1888 269 
Q 2325 269 2554 583 
Q 2784 897 2784 1497 
L 2784 1825 
z
" transform="scale(0.015625)"/>
       <path id="DejaVuSerif-6e" d="M 263 0 
L 263 331 
L 781 331 
L 781 2988 
L 231 2988 
L 231 3322 
L 1356 3322 
L 1356 2731 
Q 1516 3069 1770 3241 
Q 2025 3413 2363 3413 
Q 2913 3413 3172 3097 
Q 3431 2781 3431 2113 
L 3431 331 
L 3944 331 
L 3944 0 
L 2356 0 
L 2356 331 
L 2853 331 
L 2853 1931 
Q 2853 2541 2703 2767 
Q 2553 2994 2175 2994 
Q 1775 2994 1565 2701 
Q 1356 2409 1356 1850 
L 1356 331 
L 1856 331 
L 1856 0 
L 263 0 
z
" transform="scale(0.015625)"/>
       <path id="DejaVuSerif-79" d="M 1381 -609 
L 1600 -56 
L 359 2988 
L -19 2988 
L -19 3322 
L 1509 3322 
L 1509 2988 
L 978 2988 
L 1913 703 
L 2847 2988 
L 2350 2988 
L 2350 3322 
L 3597 3322 
L 3597 2988 
L 3225 2988 
L 1703 -750 
Q 1547 -1138 1356 -1280 
Q 1166 -1422 819 -1422 
Q 672 -1422 517 -1397 
Q 363 -1372 206 -1325 
L 206 -691 
L 500 -691 
Q 519 -903 608 -995 
Q 697 -1088 884 -1088 
Q 1056 -1088 1161 -992 
Q 1266 -897 1381 -609 
z
" transform="scale(0.015625)"/>
      </defs>
      <use xlink:href="#DejaVuSerif-46"/>
      <use xlink:href="#DejaVuSerif-72" x="69.384766"/>
      <use xlink:href="#DejaVuSerif-65" x="117.1875"/>
      <use xlink:href="#DejaVuSerif-71" x="176.367188"/>
      <use xlink:href="#DejaVuSerif-75" x="240.380859"/>
      <use xlink:href="#DejaVuSerif-65" x="304.785156"/>
      <use xlink:href="#DejaVuSerif-6e" x="363.964844"/>
      <use xlink:href="#DejaVuSerif-63" x="428.369141"/>
      <use xlink:href="#DejaVuSerif-79" x="484.375"/>
     </g>
    </g>
   </g>
   <g id="patch_3">
    <path d="M 66.53 303.109633 
L 66.53 26.16 
" style="fill: none; stroke: #000000; stroke-width: 0.8; stroke-linejoin: miter; stroke-linecap: square"/>
   </g>
   <g id="patch_4">
    <path d="M 349.2 303.109633 
L 349.2 26.16 
" style="fill: none; stroke: #000000; stroke-width: 0.8; stroke-linejoin: miter; stroke-linecap: square"/>
   </g>
   <g id="patch_5">
    <path d="M 66.53 303.109633 
L 349.2 303.109633 
" style="fill: none; stroke: #000000; stroke-width: 0.8; stroke-linejoin: miter; stroke-linecap: square"/>
   </g>
   <g id="patch_6">
    <path d="M 66.53 26.16 
L 349.2 26.16 
" style="fill: none; stroke: #000000; stroke-width: 0.8; stroke-linejoin: miter; stroke-linecap: square"/>
   </g>
   <g id="text_16">
    <!-- PBMC3K_scvi -->
    <g transform="translate(165.637187 20.16) scale(0.12 -0.12)">
     <defs>
      <path id="DejaVuSerif-50" d="M 1581 2375 
L 2406 2375 
Q 2872 2375 3115 2626 
Q 3359 2878 3359 3353 
Q 3359 3831 3115 4081 
Q 2872 4331 2406 4331 
L 1581 4331 
L 1581 2375 
z
M 353 0 
L 353 331 
L 947 331 
L 947 4331 
L 353 4331 
L 353 4666 
L 2559 4666 
Q 3259 4666 3668 4311 
Q 4078 3956 4078 3353 
Q 4078 2753 3668 2397 
Q 3259 2041 2559 2041 
L 1581 2041 
L 1581 331 
L 2303 331 
L 2303 0 
L 353 0 
z
" transform="scale(0.015625)"/>
      <path id="DejaVuSerif-42" d="M 1581 331 
L 2516 331 
Q 3078 331 3337 575 
Q 3597 819 3597 1350 
Q 3597 1878 3339 2120 
Q 3081 2363 2516 2363 
L 1581 2363 
L 1581 331 
z
M 1581 2694 
L 2375 2694 
Q 2888 2694 3123 2891 
Q 3359 3088 3359 3513 
Q 3359 3941 3123 4136 
Q 2888 4331 2375 4331 
L 1581 4331 
L 1581 2694 
z
M 353 0 
L 353 331 
L 947 331 
L 947 4331 
L 353 4331 
L 353 4666 
L 2656 4666 
Q 3363 4666 3720 4377 
Q 4078 4088 4078 3513 
Q 4078 3097 3829 2850 
Q 3581 2603 3103 2547 
Q 3697 2472 4005 2167 
Q 4313 1863 4313 1350 
Q 4313 656 3875 328 
Q 3438 0 2509 0 
L 353 0 
z
" transform="scale(0.015625)"/>
      <path id="DejaVuSerif-4d" d="M 353 0 
L 353 331 
L 947 331 
L 947 4331 
L 319 4331 
L 319 4666 
L 1678 4666 
L 3316 1344 
L 4953 4666 
L 6228 4666 
L 6228 4331 
L 5606 4331 
L 5606 331 
L 6203 331 
L 6203 0 
L 4378 0 
L 4378 331 
L 4972 331 
L 4972 3938 
L 3372 684 
L 2931 684 
L 1331 3938 
L 1331 331 
L 1925 331 
L 1925 0 
L 353 0 
z
" transform="scale(0.015625)"/>
      <path id="DejaVuSerif-43" d="M 4513 1234 
Q 4306 581 3820 245 
Q 3334 -91 2591 -91 
Q 2134 -91 1743 65 
Q 1353 222 1050 525 
Q 700 875 529 1320 
Q 359 1766 359 2328 
Q 359 3416 987 4083 
Q 1616 4750 2644 4750 
Q 3025 4750 3456 4650 
Q 3888 4550 4384 4347 
L 4384 3272 
L 4031 3272 
Q 3916 3859 3567 4137 
Q 3219 4416 2591 4416 
Q 1844 4416 1459 3886 
Q 1075 3356 1075 2328 
Q 1075 1303 1459 773 
Q 1844 244 2591 244 
Q 3113 244 3450 492 
Q 3788 741 3938 1234 
L 4513 1234 
z
" transform="scale(0.015625)"/>
      <path id="DejaVuSerif-4b" d="M 353 0 
L 353 331 
L 947 331 
L 947 4331 
L 353 4331 
L 353 4666 
L 2175 4666 
L 2175 4331 
L 1581 4331 
L 1581 2566 
L 3591 4331 
L 3084 4331 
L 3084 4666 
L 4634 4666 
L 4634 4331 
L 4109 4331 
L 2106 2572 
L 4347 331 
L 4878 331 
L 4878 0 
L 3794 0 
L 1581 2216 
L 1581 331 
L 2175 331 
L 2175 0 
L 353 0 
z
" transform="scale(0.015625)"/>
      <path id="DejaVuSerif-5f" d="M 3200 -1259 
L 3200 -1509 
L 0 -1509 
L 0 -1259 
L 3200 -1259 
z
" transform="scale(0.015625)"/>
      <path id="DejaVuSerif-76" d="M 1581 0 
L 359 2988 
L -19 2988 
L -19 3322 
L 1509 3322 
L 1509 2988 
L 978 2988 
L 1913 703 
L 2847 2988 
L 2350 2988 
L 2350 3322 
L 3597 3322 
L 3597 2988 
L 3225 2988 
L 2003 0 
L 1581 0 
z
" transform="scale(0.015625)"/>
      <path id="DejaVuSerif-69" d="M 622 4353 
Q 622 4497 726 4603 
Q 831 4709 978 4709 
Q 1122 4709 1226 4603 
Q 1331 4497 1331 4353 
Q 1331 4206 1228 4103 
Q 1125 4000 978 4000 
Q 831 4000 726 4103 
Q 622 4206 622 4353 
z
M 1356 331 
L 1900 331 
L 1900 0 
L 231 0 
L 231 331 
L 781 331 
L 781 2988 
L 231 2988 
L 231 3322 
L 1356 3322 
L 1356 331 
z
" transform="scale(0.015625)"/>
     </defs>
     <use xlink:href="#DejaVuSerif-50"/>
     <use xlink:href="#DejaVuSerif-42" x="67.285156"/>
     <use xlink:href="#DejaVuSerif-4d" x="140.771484"/>
     <use xlink:href="#DejaVuSerif-43" x="243.164062"/>
     <use xlink:href="#DejaVuSerif-33" x="319.677734"/>
     <use xlink:href="#DejaVuSerif-4b" x="383.300781"/>
     <use xlink:href="#DejaVuSerif-5f" x="458.007812"/>
     <use xlink:href="#DejaVuSerif-73" x="508.007812"/>
     <use xlink:href="#DejaVuSerif-63" x="559.326172"/>
     <use xlink:href="#DejaVuSerif-76" x="615.332031"/>
     <use xlink:href="#DejaVuSerif-69" x="671.826172"/>
    </g>
   </g>
  </g>
 </g>
 <defs>
  <clipPath id="pfc709a5deb">
   <rect x="66.53" y="26.16" width="282.67" height="276.949633"/>
  </clipPath>
 </defs>
</svg>
