<?xml version="1.0" encoding="utf-8" standalone="no"?>
<!DOCTYPE svg PUBLIC "-//W3C//DTD SVG 1.1//EN"
  "http://www.w3.org/Graphics/SVG/1.1/DTD/svg11.dtd">
<svg xmlns:xlink="http://www.w3.org/1999/xlink" width="360pt" height="360pt" viewBox="0 0 360 360" xmlns="http://www.w3.org/2000/svg" version="1.1">
 <metadata>
  <rdf:RDF xmlns:dc="http://purl.org/dc/elements/1.1/" xmlns:cc="http://creativecommons.org/ns#" xmlns:rdf="http://www.w3.org/1999/02/22-rdf-syntax-ns#">
   <cc:Work>
    <dc:type rdf:resource="http://purl.org/dc/dcmitype/StillImage"/>
    <dc:date>2024-11-13T13:22:50.563201</dc:date>
    <dc:format>image/svg+xml</dc:format>
    <dc:creator>
     <cc:Agent>
      <dc:title>Matplotlib v3.8.1, https://matplotlib.org/</dc:title>
     </cc:Agent>
    </dc:creator>
   </cc:Work>
  </rdf:RDF>
 </metadata>
 <defs>
  <style type="text/css">*{stroke-linejoin: round; stroke-linecap: butt}</style>
 </defs>
 <g id="figure_1">
  <g id="patch_1">
   <path d="M 0 360 
L 360 360 
L 360 0 
L 0 0 
z
" style="fill: #ffffff"/>
  </g>
  <g id="axes_1">
   <g id="patch_2">
    <path d="M 66.53 303.109633 
L 349.2 303.109633 
L 349.2 26.16 
L 66.53 26.16 
z
" style="fill: #ffffff"/>
   </g>
   <g id="PolyCollection_1">
    <defs>
     <path id="m0edffe3283" d="M 226.400706 -56.899996 
L 226.400706 -56.890367 
L 226.917951 -56.890367 
L 227.435195 -56.890367 
L 227.95244 -56.890367 
L 228.469684 -56.890367 
L 228.986929 -56.890367 
L 229.504173 -56.890367 
L 230.021418 -56.890367 
L 230.538662 -56.890367 
L 231.055907 -56.890367 
L 231.573151 -56.890367 
L 232.090396 -56.890367 
L 232.60764 -56.890367 
L 233.124885 -56.890367 
L 233.642129 -56.890367 
L 234.159374 -56.890367 
L 234.676618 -56.890367 
L 235.193863 -56.890367 
L 235.711107 -56.890367 
L 236.228352 -56.890367 
L 236.745596 -56.890367 
L 237.262841 -56.890367 
L 237.780085 -56.890367 
L 238.29733 -56.890367 
L 238.814574 -56.890367 
L 239.331819 -56.890367 
L 239.849063 -56.890367 
L 240.366308 -56.890367 
L 240.883552 -56.890367 
L 241.400797 -56.890367 
L 241.918041 -56.890367 
L 242.435286 -56.890367 
L 242.95253 -56.890367 
L 243.469775 -56.890367 
L 243.987019 -56.890367 
L 244.504264 -56.890367 
L 245.021508 -56.890367 
L 245.538753 -56.890367 
L 246.055997 -56.890367 
L 246.573242 -56.890367 
L 247.090486 -56.890367 
L 247.607731 -56.890367 
L 248.124975 -56.890367 
L 248.64222 -56.890367 
L 249.159464 -56.890367 
L 249.676709 -56.890367 
L 250.193953 -56.890367 
L 250.711198 -56.890367 
L 251.228442 -56.890367 
L 251.745687 -56.890367 
L 252.262931 -56.890367 
L 252.780176 -56.890367 
L 253.29742 -56.890367 
L 253.814665 -56.890367 
L 254.331909 -56.890367 
L 254.849154 -56.890367 
L 255.366398 -56.890367 
L 255.883643 -56.890367 
L 256.400887 -56.890367 
L 256.918132 -56.890367 
L 257.435376 -56.890367 
L 257.952621 -56.890367 
L 258.469865 -56.890367 
L 258.98711 -56.890367 
L 259.504354 -56.890367 
L 260.021599 -56.890367 
L 260.538843 -56.890367 
L 261.056088 -56.890367 
L 261.573332 -56.890367 
L 262.090577 -56.890367 
L 262.607821 -56.890367 
L 263.125066 -56.890367 
L 263.64231 -56.890367 
L 264.159555 -56.890367 
L 264.676799 -56.890367 
L 265.194044 -56.890367 
L 265.711288 -56.890367 
L 266.228533 -56.890367 
L 266.745777 -56.890367 
L 267.263022 -56.890367 
L 267.780266 -56.890367 
L 268.297511 -56.890367 
L 268.814755 -56.890367 
L 269.332 -56.890367 
L 269.849244 -56.890367 
L 270.366489 -56.890367 
L 270.883733 -56.890367 
L 271.400978 -56.890367 
L 271.918222 -56.890367 
L 272.435467 -56.890367 
L 272.952711 -56.890367 
L 273.469956 -56.890367 
L 273.9872 -56.890367 
L 274.504445 -56.890367 
L 275.021689 -56.890367 
L 275.538934 -56.890367 
L 276.056178 -56.890367 
L 276.573423 -56.890367 
L 277.090667 -56.890367 
L 277.607912 -56.890367 
L 278.125156 -56.890367 
L 278.642401 -56.890367 
L 279.159646 -56.890367 
L 279.67689 -56.890367 
L 280.194135 -56.890367 
L 280.711379 -56.890367 
L 281.228624 -56.890367 
L 281.745868 -56.890367 
L 282.263113 -56.890367 
L 282.780357 -56.890367 
L 283.297602 -56.890367 
L 283.814846 -56.890367 
L 284.332091 -56.890367 
L 284.849335 -56.890367 
L 285.36658 -56.890367 
L 285.883824 -56.890367 
L 286.401069 -56.890367 
L 286.918313 -56.890367 
L 287.435558 -56.890367 
L 287.952802 -56.890367 
L 288.470047 -56.890367 
L 288.987291 -56.890367 
L 289.504536 -56.890367 
L 290.02178 -56.890367 
L 290.539025 -56.890367 
L 291.056269 -56.890367 
L 291.573514 -56.890367 
L 292.090758 -56.890367 
L 292.608003 -56.890367 
L 293.125247 -56.890367 
L 293.642492 -56.890367 
L 294.159736 -56.890367 
L 294.676981 -56.890367 
L 295.194225 -56.890367 
L 295.71147 -56.890367 
L 296.228714 -56.890367 
L 296.745959 -56.890367 
L 297.263203 -56.890367 
L 297.780448 -56.890367 
L 298.297692 -56.890367 
L 298.814937 -56.890367 
L 299.332181 -56.890367 
L 299.849426 -56.890367 
L 300.36667 -56.890367 
L 300.883915 -56.890367 
L 301.401159 -56.890367 
L 301.918404 -56.890367 
L 302.435648 -56.890367 
L 302.952893 -56.890367 
L 303.470137 -56.890367 
L 303.987382 -56.890367 
L 304.504626 -56.890367 
L 305.021871 -56.890367 
L 305.539115 -56.890367 
L 306.05636 -56.890367 
L 306.573604 -56.890367 
L 307.090849 -56.890367 
L 307.608093 -56.890367 
L 308.125338 -56.890367 
L 308.642582 -56.890367 
L 309.159827 -56.890367 
L 309.677071 -56.890367 
L 310.194316 -56.890367 
L 310.71156 -56.890367 
L 311.228805 -56.890367 
L 311.746049 -56.890367 
L 312.263294 -56.890367 
L 312.780538 -56.890367 
L 313.297783 -56.890367 
L 313.815027 -56.890367 
L 314.332272 -56.890367 
L 314.849516 -56.890367 
L 315.366761 -56.890367 
L 315.884005 -56.890367 
L 316.40125 -56.890367 
L 316.918494 -56.890367 
L 317.435739 -56.890367 
L 317.952983 -56.890367 
L 318.470228 -56.890367 
L 318.987472 -56.890367 
L 319.504717 -56.890367 
L 320.021961 -56.890367 
L 320.539206 -56.890367 
L 321.05645 -56.890367 
L 321.573695 -56.890367 
L 322.090939 -56.890367 
L 322.608184 -56.890367 
L 323.125428 -56.890367 
L 323.642673 -56.890367 
L 324.159917 -56.890367 
L 324.677162 -56.890367 
L 325.194406 -56.890367 
L 325.711651 -56.890367 
L 326.228895 -56.890367 
L 326.74614 -56.890367 
L 327.263384 -56.890367 
L 327.780629 -56.890367 
L 328.297873 -56.890367 
L 328.815118 -56.890367 
L 329.332362 -56.890367 
L 329.332362 -56.913033 
L 329.332362 -56.913033 
L 328.815118 -56.925582 
L 328.297873 -56.944161 
L 327.780629 -56.971177 
L 327.263384 -57.00976 
L 326.74614 -57.063887 
L 326.228895 -57.138486 
L 325.711651 -57.239501 
L 325.194406 -57.373919 
L 324.677162 -57.54972 
L 324.159917 -57.775753 
L 323.642673 -58.061528 
L 323.125428 -58.416925 
L 322.608184 -58.851837 
L 322.090939 -59.375775 
L 321.573695 -59.997476 
L 321.05645 -60.724548 
L 320.539206 -61.563211 
L 320.021961 -62.518158 
L 319.504717 -63.592575 
L 318.987472 -64.7883 
L 318.470228 -66.106113 
L 317.952983 -67.546094 
L 317.435739 -69.107975 
L 316.918494 -70.791412 
L 316.40125 -72.596074 
L 315.884005 -74.521522 
L 315.366761 -76.566828 
L 314.849516 -78.729979 
L 314.332272 -81.007138 
L 313.815027 -83.391905 
L 313.297783 -85.874721 
L 312.780538 -88.442587 
L 312.263294 -91.079234 
L 311.746049 -93.765831 
L 311.228805 -96.482209 
L 310.71156 -99.208533 
L 310.194316 -101.927211 
L 309.677071 -104.624805 
L 309.159827 -107.293651 
L 308.642582 -109.932919 
L 308.125338 -112.548902 
L 307.608093 -115.154428 
L 307.090849 -117.767395 
L 306.573604 -120.408577 
L 306.05636 -123.09893 
L 305.539115 -125.856719 
L 305.021871 -128.694798 
L 304.504626 -131.618364 
L 303.987382 -134.623416 
L 303.470137 -137.696087 
L 302.952893 -140.812871 
L 302.435648 -143.941684 
L 301.918404 -147.043619 
L 301.401159 -150.075161 
L 300.883915 -152.990651 
L 300.36667 -155.744757 
L 299.849426 -158.29475 
L 299.332181 -160.602433 
L 298.814937 -162.635624 
L 298.297692 -164.369134 
L 297.780448 -165.785244 
L 297.263203 -166.873717 
L 296.745959 -167.631401 
L 296.228714 -168.061521 
L 295.71147 -168.172741 
L 295.194225 -167.978095 
L 294.676981 -167.493885 
L 294.159736 -166.738628 
L 293.642492 -165.732113 
L 293.125247 -164.494648 
L 292.608003 -163.046509 
L 292.090758 -161.407622 
L 291.573514 -159.597443 
L 291.056269 -157.635028 
L 290.539025 -155.539192 
L 290.02178 -153.328713 
L 289.504536 -151.022457 
L 288.987291 -148.63938 
L 288.470047 -146.198319 
L 287.952802 -143.717582 
L 287.435558 -141.214345 
L 286.918313 -138.703938 
L 286.401069 -136.199136 
L 285.883824 -133.709571 
L 285.36658 -131.241393 
L 284.849335 -128.797258 
L 284.332091 -126.376682 
L 283.814846 -123.976731 
L 283.297602 -121.592942 
L 282.780357 -119.220354 
L 282.263113 -116.854497 
L 281.745868 -114.492195 
L 281.228624 -112.132092 
L 280.711379 -109.774857 
L 280.194135 -107.423106 
L 279.67689 -105.0811 
L 279.159646 -102.754344 
L 278.642401 -100.449179 
L 278.125156 -98.172482 
L 277.607912 -95.931496 
L 277.090667 -93.733799 
L 276.573423 -91.587367 
L 276.056178 -89.500632 
L 275.538934 -87.482472 
L 275.021689 -85.542035 
L 274.504445 -83.688379 
L 273.9872 -81.929931 
L 273.469956 -80.273813 
L 272.952711 -78.725145 
L 272.435467 -77.286428 
L 271.918222 -75.957129 
L 271.400978 -74.733555 
L 270.883733 -73.609071 
L 270.366489 -72.574657 
L 269.849244 -71.619761 
L 269.332 -70.733346 
L 268.814755 -69.905012 
L 268.297511 -69.126037 
L 267.780266 -68.390229 
L 267.263022 -67.694453 
L 266.745777 -67.038797 
L 266.228533 -66.426338 
L 265.711288 -65.862548 
L 265.194044 -65.35442 
L 264.676799 -64.909417 
L 264.159555 -64.534368 
L 263.64231 -64.234442 
L 263.125066 -64.012294 
L 262.607821 -63.867475 
L 262.090577 -63.796134 
L 261.573332 -63.791027 
L 261.056088 -63.841809 
L 260.538843 -63.935559 
L 260.021599 -64.057479 
L 259.504354 -64.191708 
L 258.98711 -64.322186 
L 258.469865 -64.433525 
L 257.952621 -64.51183 
L 257.435376 -64.545445 
L 256.918132 -64.525567 
L 256.400887 -64.446715 
L 255.883643 -64.306992 
L 255.366398 -64.108139 
L 254.849154 -63.855338 
L 254.331909 -63.556775 
L 253.814665 -63.222983 
L 253.29742 -62.866 
L 252.780176 -62.498425 
L 252.262931 -62.132446 
L 251.745687 -61.778945 
L 251.228442 -61.446766 
L 250.711198 -61.142222 
L 250.193953 -60.86889 
L 249.676709 -60.627705 
L 249.159464 -60.417326 
L 248.64222 -60.234707 
L 248.124975 -60.075793 
L 247.607731 -59.936231 
L 247.090486 -59.812008 
L 246.573242 -59.699919 
L 246.055997 -59.597826 
L 245.538753 -59.504687 
L 245.021508 -59.420367 
L 244.504264 -59.345298 
L 243.987019 -59.280044 
L 243.469775 -59.224864 
L 242.95253 -59.179343 
L 242.435286 -59.142154 
L 241.918041 -59.110988 
L 241.400797 -59.082653 
L 240.883552 -59.053323 
L 240.366308 -59.018906 
L 239.849063 -58.975457 
L 239.331819 -58.919591 
L 238.814574 -58.848843 
L 238.29733 -58.761907 
L 237.780085 -58.658768 
L 237.262841 -58.540678 
L 236.745596 -58.410017 
L 236.228352 -58.270046 
L 235.711107 -58.124596 
L 235.193863 -57.977732 
L 234.676618 -57.833418 
L 234.159374 -57.695239 
L 233.642129 -57.566182 
L 233.124885 -57.448497 
L 232.60764 -57.343643 
L 232.090396 -57.252305 
L 231.573151 -57.174475 
L 231.055907 -57.109575 
L 230.538662 -57.056593 
L 230.021418 -57.014237 
L 229.504173 -56.981069 
L 228.986929 -56.955621 
L 228.469684 -56.936489 
L 227.95244 -56.922392 
L 227.435195 -56.91221 
L 226.917951 -56.905001 
L 226.400706 -56.899996 
z
" style="stroke: #cc78bc; stroke-width: 2"/>
    </defs>
    <g clip-path="url(#p96188eb70b)">
     <use xlink:href="#m0edffe3283" x="0" y="360" style="fill: #cc78bc; fill-opacity: 0.2; stroke: #cc78bc; stroke-width: 2"/>
    </g>
   </g>
   <g id="PolyCollection_2">
    <defs>
     <path id="mdc41bbf5e1" d="M 275.559162 -56.904357 
L 275.559162 -56.890367 
L 275.838743 -56.890367 
L 276.118324 -56.890367 
L 276.397905 -56.890367 
L 276.677486 -56.890367 
L 276.957067 -56.890367 
L 277.236648 -56.890367 
L 277.516229 -56.890367 
L 277.79581 -56.890367 
L 278.075391 -56.890367 
L 278.354972 -56.890367 
L 278.634553 -56.890367 
L 278.914133 -56.890367 
L 279.193714 -56.890367 
L 279.473295 -56.890367 
L 279.752876 -56.890367 
L 280.032457 -56.890367 
L 280.312038 -56.890367 
L 280.591619 -56.890367 
L 280.8712 -56.890367 
L 281.150781 -56.890367 
L 281.430362 -56.890367 
L 281.709943 -56.890367 
L 281.989524 -56.890367 
L 282.269105 -56.890367 
L 282.548686 -56.890367 
L 282.828267 -56.890367 
L 283.107848 -56.890367 
L 283.387429 -56.890367 
L 283.66701 -56.890367 
L 283.946591 -56.890367 
L 284.226172 -56.890367 
L 284.505753 -56.890367 
L 284.785334 -56.890367 
L 285.064915 -56.890367 
L 285.344496 -56.890367 
L 285.624077 -56.890367 
L 285.903658 -56.890367 
L 286.183239 -56.890367 
L 286.46282 -56.890367 
L 286.7424 -56.890367 
L 287.021981 -56.890367 
L 287.301562 -56.890367 
L 287.581143 -56.890367 
L 287.860724 -56.890367 
L 288.140305 -56.890367 
L 288.419886 -56.890367 
L 288.699467 -56.890367 
L 288.979048 -56.890367 
L 289.258629 -56.890367 
L 289.53821 -56.890367 
L 289.817791 -56.890367 
L 290.097372 -56.890367 
L 290.376953 -56.890367 
L 290.656534 -56.890367 
L 290.936115 -56.890367 
L 291.215696 -56.890367 
L 291.495277 -56.890367 
L 291.774858 -56.890367 
L 292.054439 -56.890367 
L 292.33402 -56.890367 
L 292.613601 -56.890367 
L 292.893182 -56.890367 
L 293.172763 -56.890367 
L 293.452344 -56.890367 
L 293.731925 -56.890367 
L 294.011506 -56.890367 
L 294.291087 -56.890367 
L 294.570667 -56.890367 
L 294.850248 -56.890367 
L 295.129829 -56.890367 
L 295.40941 -56.890367 
L 295.688991 -56.890367 
L 295.968572 -56.890367 
L 296.248153 -56.890367 
L 296.527734 -56.890367 
L 296.807315 -56.890367 
L 297.086896 -56.890367 
L 297.366477 -56.890367 
L 297.646058 -56.890367 
L 297.925639 -56.890367 
L 298.20522 -56.890367 
L 298.484801 -56.890367 
L 298.764382 -56.890367 
L 299.043963 -56.890367 
L 299.323544 -56.890367 
L 299.603125 -56.890367 
L 299.882706 -56.890367 
L 300.162287 -56.890367 
L 300.441868 -56.890367 
L 300.721449 -56.890367 
L 301.00103 -56.890367 
L 301.280611 -56.890367 
L 301.560192 -56.890367 
L 301.839773 -56.890367 
L 302.119354 -56.890367 
L 302.398935 -56.890367 
L 302.678515 -56.890367 
L 302.958096 -56.890367 
L 303.237677 -56.890367 
L 303.517258 -56.890367 
L 303.796839 -56.890367 
L 304.07642 -56.890367 
L 304.356001 -56.890367 
L 304.635582 -56.890367 
L 304.915163 -56.890367 
L 305.194744 -56.890367 
L 305.474325 -56.890367 
L 305.753906 -56.890367 
L 306.033487 -56.890367 
L 306.313068 -56.890367 
L 306.592649 -56.890367 
L 306.87223 -56.890367 
L 307.151811 -56.890367 
L 307.431392 -56.890367 
L 307.710973 -56.890367 
L 307.990554 -56.890367 
L 308.270135 -56.890367 
L 308.549716 -56.890367 
L 308.829297 -56.890367 
L 309.108878 -56.890367 
L 309.388459 -56.890367 
L 309.66804 -56.890367 
L 309.947621 -56.890367 
L 310.227202 -56.890367 
L 310.506782 -56.890367 
L 310.786363 -56.890367 
L 311.065944 -56.890367 
L 311.345525 -56.890367 
L 311.625106 -56.890367 
L 311.904687 -56.890367 
L 312.184268 -56.890367 
L 312.463849 -56.890367 
L 312.74343 -56.890367 
L 313.023011 -56.890367 
L 313.302592 -56.890367 
L 313.582173 -56.890367 
L 313.861754 -56.890367 
L 314.141335 -56.890367 
L 314.420916 -56.890367 
L 314.700497 -56.890367 
L 314.980078 -56.890367 
L 315.259659 -56.890367 
L 315.53924 -56.890367 
L 315.818821 -56.890367 
L 316.098402 -56.890367 
L 316.377983 -56.890367 
L 316.657564 -56.890367 
L 316.937145 -56.890367 
L 317.216726 -56.890367 
L 317.496307 -56.890367 
L 317.775888 -56.890367 
L 318.055469 -56.890367 
L 318.335049 -56.890367 
L 318.61463 -56.890367 
L 318.894211 -56.890367 
L 319.173792 -56.890367 
L 319.453373 -56.890367 
L 319.732954 -56.890367 
L 320.012535 -56.890367 
L 320.292116 -56.890367 
L 320.571697 -56.890367 
L 320.851278 -56.890367 
L 321.130859 -56.890367 
L 321.41044 -56.890367 
L 321.690021 -56.890367 
L 321.969602 -56.890367 
L 322.249183 -56.890367 
L 322.528764 -56.890367 
L 322.808345 -56.890367 
L 323.087926 -56.890367 
L 323.367507 -56.890367 
L 323.647088 -56.890367 
L 323.926669 -56.890367 
L 324.20625 -56.890367 
L 324.485831 -56.890367 
L 324.765412 -56.890367 
L 325.044993 -56.890367 
L 325.324574 -56.890367 
L 325.604155 -56.890367 
L 325.883736 -56.890367 
L 326.163317 -56.890367 
L 326.442897 -56.890367 
L 326.722478 -56.890367 
L 327.002059 -56.890367 
L 327.28164 -56.890367 
L 327.561221 -56.890367 
L 327.840802 -56.890367 
L 328.120383 -56.890367 
L 328.399964 -56.890367 
L 328.679545 -56.890367 
L 328.959126 -56.890367 
L 329.238707 -56.890367 
L 329.518288 -56.890367 
L 329.797869 -56.890367 
L 330.07745 -56.890367 
L 330.357031 -56.890367 
L 330.636612 -56.890367 
L 330.916193 -56.890367 
L 331.195774 -56.890367 
L 331.195774 -56.915676 
L 331.195774 -56.915676 
L 330.916193 -56.929821 
L 330.636612 -56.950691 
L 330.357031 -56.980832 
L 330.07745 -57.023442 
L 329.797869 -57.082394 
L 329.518288 -57.162198 
L 329.238707 -57.267884 
L 328.959126 -57.404771 
L 328.679545 -57.578121 
L 328.399964 -57.792677 
L 328.120383 -58.052098 
L 327.840802 -58.358343 
L 327.561221 -58.711043 
L 327.28164 -59.106958 
L 327.002059 -59.539586 
L 326.722478 -59.999009 
L 326.442897 -60.472046 
L 326.163317 -60.942741 
L 325.883736 -61.393182 
L 325.604155 -61.804608 
L 325.324574 -62.15872 
L 325.044993 -62.439064 
L 324.765412 -62.63235 
L 324.485831 -62.729588 
L 324.20625 -62.726892 
L 323.926669 -62.62591 
L 323.647088 -62.433817 
L 323.367507 -62.162911 
L 323.087926 -61.829865 
L 322.808345 -61.454742 
L 322.528764 -61.05989 
L 322.249183 -60.668823 
L 321.969602 -60.305209 
L 321.690021 -59.992021 
L 321.41044 -59.750894 
L 321.130859 -59.601703 
L 320.851278 -59.562318 
L 320.571697 -59.648502 
L 320.292116 -59.873888 
L 320.012535 -60.249992 
L 319.732954 -60.786196 
L 319.453373 -61.489692 
L 319.173792 -62.365366 
L 318.894211 -63.415616 
L 318.61463 -64.640157 
L 318.335049 -66.035817 
L 318.055469 -67.596392 
L 317.775888 -69.312607 
L 317.496307 -71.172234 
L 317.216726 -73.160424 
L 316.937145 -75.260281 
L 316.657564 -77.453697 
L 316.377983 -79.722413 
L 316.098402 -82.049271 
L 315.818821 -84.419537 
L 315.53924 -86.822187 
L 315.259659 -89.251 
L 314.980078 -91.705321 
L 314.700497 -94.190385 
L 314.420916 -96.717123 
L 314.141335 -99.301463 
L 313.861754 -101.96318 
L 313.582173 -104.724425 
L 313.302592 -107.608122 
L 313.023011 -110.636402 
L 312.74343 -113.829258 
L 312.463849 -117.203539 
L 312.184268 -120.772325 
L 311.904687 -124.544655 
L 311.625106 -128.525475 
L 311.345525 -132.715672 
L 311.065944 -137.111976 
L 310.786363 -141.706634 
L 310.506782 -146.486744 
L 310.227202 -151.433334 
L 309.947621 -156.520309 
L 309.66804 -161.713539 
L 309.388459 -166.970392 
L 309.108878 -172.240023 
L 308.829297 -177.464629 
L 308.549716 -182.581773 
L 308.270135 -187.527668 
L 307.990554 -192.241141 
L 307.710973 -196.667822 
L 307.431392 -200.764024 
L 307.151811 -204.49976 
L 306.87223 -207.860457 
L 306.592649 -210.847112 
L 306.313068 -213.474857 
L 306.033487 -215.77016 
L 305.753906 -217.767117 
L 305.474325 -219.503375 
L 305.194744 -221.016303 
L 304.915163 -222.339916 
L 304.635582 -223.502903 
L 304.356001 -224.527899 
L 304.07642 -225.431884 
L 303.796839 -226.227433 
L 303.517258 -226.924365 
L 303.237677 -227.531324 
L 302.958096 -228.056859 
L 302.678515 -228.50968 
L 302.398935 -228.897992 
L 302.119354 -229.227974 
L 301.839773 -229.50171 
L 301.560192 -229.715011 
L 301.280611 -229.855657 
L 301.00103 -229.90253 
L 300.721449 -229.826013 
L 300.441868 -229.589768 
L 300.162287 -229.153783 
L 299.882706 -228.478289 
L 299.603125 -227.527956 
L 299.323544 -226.275687 
L 299.043963 -224.705382 
L 298.764382 -222.8132 
L 298.484801 -220.607119 
L 298.20522 -218.104929 
L 297.925639 -215.331057 
L 297.646058 -212.312843 
L 297.366477 -209.076972 
L 297.086896 -205.646706 
L 296.807315 -202.040362 
L 296.527734 -198.271245 
L 296.248153 -194.348912 
L 295.968572 -190.281419 
L 295.688991 -186.077997 
L 295.40941 -181.751557 
L 295.129829 -177.320463 
L 294.850248 -172.809192 
L 294.570667 -168.247723 
L 294.291087 -163.669726 
L 294.011506 -159.109882 
L 293.731925 -154.600801 
L 293.452344 -150.170053 
L 293.172763 -145.837831 
L 292.893182 -141.615603 
L 292.613601 -137.505943 
L 292.33402 -133.503527 
L 292.054439 -129.597093 
L 291.774858 -125.772005 
L 291.495277 -122.013045 
L 291.215696 -118.306996 
L 290.936115 -114.644726 
L 290.656534 -111.022536 
L 290.376953 -107.44271 
L 290.097372 -103.91331 
L 289.817791 -100.447336 
L 289.53821 -97.061462 
L 289.258629 -93.774522 
L 288.979048 -90.60595 
L 288.699467 -87.574308 
L 288.419886 -84.696033 
L 288.140305 -81.984445 
L 287.860724 -79.449093 
L 287.581143 -77.095421 
L 287.301562 -74.92478 
L 287.021981 -72.934747 
L 286.7424 -71.119698 
L 286.46282 -69.47159 
L 286.183239 -67.980832 
L 285.903658 -66.637167 
L 285.624077 -65.430447 
L 285.344496 -64.351221 
L 285.064915 -63.391059 
L 284.785334 -62.542614 
L 284.505753 -61.799415 
L 284.226172 -61.15547 
L 283.946591 -60.604767 
L 283.66701 -60.140775 
L 283.387429 -59.756044 
L 283.107848 -59.441994 
L 282.828267 -59.188928 
L 282.548686 -58.986284 
L 282.269105 -58.823083 
L 281.989524 -58.688504 
L 281.709943 -58.572515 
L 281.430362 -58.466441 
L 281.150781 -58.363415 
L 280.8712 -58.258642 
L 280.591619 -58.149443 
L 280.312038 -58.035106 
L 280.032457 -57.916555 
L 279.752876 -57.795913 
L 279.473295 -57.676007 
L 279.193714 -57.559891 
L 278.914133 -57.450437 
L 278.634553 -57.350023 
L 278.354972 -57.260346 
L 278.075391 -57.18235 
L 277.79581 -57.116252 
L 277.516229 -57.061646 
L 277.236648 -57.017648 
L 276.957067 -56.983056 
L 276.677486 -56.956509 
L 276.397905 -56.936615 
L 276.118324 -56.922052 
L 275.838743 -56.911637 
L 275.559162 -56.904357 
z
" style="stroke: #d55e00; stroke-width: 2"/>
    </defs>
    <g clip-path="url(#p96188eb70b)">
     <use xlink:href="#mdc41bbf5e1" x="0" y="360" style="fill: #d55e00; fill-opacity: 0.2; stroke: #d55e00; stroke-width: 2"/>
    </g>
   </g>
   <g id="PolyCollection_3">
    <defs>
     <path id="mc80b0b7912" d="M 79.378636 -56.903885 
L 79.378636 -56.890367 
L 80.562414 -56.890367 
L 81.746192 -56.890367 
L 82.929969 -56.890367 
L 84.113747 -56.890367 
L 85.297525 -56.890367 
L 86.481303 -56.890367 
L 87.66508 -56.890367 
L 88.848858 -56.890367 
L 90.032636 -56.890367 
L 91.216413 -56.890367 
L 92.400191 -56.890367 
L 93.583969 -56.890367 
L 94.767747 -56.890367 
L 95.951524 -56.890367 
L 97.135302 -56.890367 
L 98.31908 -56.890367 
L 99.502857 -56.890367 
L 100.686635 -56.890367 
L 101.870413 -56.890367 
L 103.05419 -56.890367 
L 104.237968 -56.890367 
L 105.421746 -56.890367 
L 106.605524 -56.890367 
L 107.789301 -56.890367 
L 108.973079 -56.890367 
L 110.156857 -56.890367 
L 111.340634 -56.890367 
L 112.524412 -56.890367 
L 113.70819 -56.890367 
L 114.891967 -56.890367 
L 116.075745 -56.890367 
L 117.259523 -56.890367 
L 118.443301 -56.890367 
L 119.627078 -56.890367 
L 120.810856 -56.890367 
L 121.994634 -56.890367 
L 123.178411 -56.890367 
L 124.362189 -56.890367 
L 125.545967 -56.890367 
L 126.729745 -56.890367 
L 127.913522 -56.890367 
L 129.0973 -56.890367 
L 130.281078 -56.890367 
L 131.464855 -56.890367 
L 132.648633 -56.890367 
L 133.832411 -56.890367 
L 135.016188 -56.890367 
L 136.199966 -56.890367 
L 137.383744 -56.890367 
L 138.567522 -56.890367 
L 139.751299 -56.890367 
L 140.935077 -56.890367 
L 142.118855 -56.890367 
L 143.302632 -56.890367 
L 144.48641 -56.890367 
L 145.670188 -56.890367 
L 146.853965 -56.890367 
L 148.037743 -56.890367 
L 149.221521 -56.890367 
L 150.405299 -56.890367 
L 151.589076 -56.890367 
L 152.772854 -56.890367 
L 153.956632 -56.890367 
L 155.140409 -56.890367 
L 156.324187 -56.890367 
L 157.507965 -56.890367 
L 158.691743 -56.890367 
L 159.87552 -56.890367 
L 161.059298 -56.890367 
L 162.243076 -56.890367 
L 163.426853 -56.890367 
L 164.610631 -56.890367 
L 165.794409 -56.890367 
L 166.978186 -56.890367 
L 168.161964 -56.890367 
L 169.345742 -56.890367 
L 170.52952 -56.890367 
L 171.713297 -56.890367 
L 172.897075 -56.890367 
L 174.080853 -56.890367 
L 175.26463 -56.890367 
L 176.448408 -56.890367 
L 177.632186 -56.890367 
L 178.815963 -56.890367 
L 179.999741 -56.890367 
L 181.183519 -56.890367 
L 182.367297 -56.890367 
L 183.551074 -56.890367 
L 184.734852 -56.890367 
L 185.91863 -56.890367 
L 187.102407 -56.890367 
L 188.286185 -56.890367 
L 189.469963 -56.890367 
L 190.653741 -56.890367 
L 191.837518 -56.890367 
L 193.021296 -56.890367 
L 194.205074 -56.890367 
L 195.388851 -56.890367 
L 196.572629 -56.890367 
L 197.756407 -56.890367 
L 198.940184 -56.890367 
L 200.123962 -56.890367 
L 201.30774 -56.890367 
L 202.491518 -56.890367 
L 203.675295 -56.890367 
L 204.859073 -56.890367 
L 206.042851 -56.890367 
L 207.226628 -56.890367 
L 208.410406 -56.890367 
L 209.594184 -56.890367 
L 210.777961 -56.890367 
L 211.961739 -56.890367 
L 213.145517 -56.890367 
L 214.329295 -56.890367 
L 215.513072 -56.890367 
L 216.69685 -56.890367 
L 217.880628 -56.890367 
L 219.064405 -56.890367 
L 220.248183 -56.890367 
L 221.431961 -56.890367 
L 222.615739 -56.890367 
L 223.799516 -56.890367 
L 224.983294 -56.890367 
L 226.167072 -56.890367 
L 227.350849 -56.890367 
L 228.534627 -56.890367 
L 229.718405 -56.890367 
L 230.902182 -56.890367 
L 232.08596 -56.890367 
L 233.269738 -56.890367 
L 234.453516 -56.890367 
L 235.637293 -56.890367 
L 236.821071 -56.890367 
L 238.004849 -56.890367 
L 239.188626 -56.890367 
L 240.372404 -56.890367 
L 241.556182 -56.890367 
L 242.739959 -56.890367 
L 243.923737 -56.890367 
L 245.107515 -56.890367 
L 246.291293 -56.890367 
L 247.47507 -56.890367 
L 248.658848 -56.890367 
L 249.842626 -56.890367 
L 251.026403 -56.890367 
L 252.210181 -56.890367 
L 253.393959 -56.890367 
L 254.577737 -56.890367 
L 255.761514 -56.890367 
L 256.945292 -56.890367 
L 258.12907 -56.890367 
L 259.312847 -56.890367 
L 260.496625 -56.890367 
L 261.680403 -56.890367 
L 262.86418 -56.890367 
L 264.047958 -56.890367 
L 265.231736 -56.890367 
L 266.415514 -56.890367 
L 267.599291 -56.890367 
L 268.783069 -56.890367 
L 269.966847 -56.890367 
L 271.150624 -56.890367 
L 272.334402 -56.890367 
L 273.51818 -56.890367 
L 274.701957 -56.890367 
L 275.885735 -56.890367 
L 277.069513 -56.890367 
L 278.253291 -56.890367 
L 279.437068 -56.890367 
L 280.620846 -56.890367 
L 281.804624 -56.890367 
L 282.988401 -56.890367 
L 284.172179 -56.890367 
L 285.355957 -56.890367 
L 286.539735 -56.890367 
L 287.723512 -56.890367 
L 288.90729 -56.890367 
L 290.091068 -56.890367 
L 291.274845 -56.890367 
L 292.458623 -56.890367 
L 293.642401 -56.890367 
L 294.826178 -56.890367 
L 296.009956 -56.890367 
L 297.193734 -56.890367 
L 298.377512 -56.890367 
L 299.561289 -56.890367 
L 300.745067 -56.890367 
L 301.928845 -56.890367 
L 303.112622 -56.890367 
L 304.2964 -56.890367 
L 305.480178 -56.890367 
L 306.663955 -56.890367 
L 307.847733 -56.890367 
L 309.031511 -56.890367 
L 310.215289 -56.890367 
L 311.399066 -56.890367 
L 312.582844 -56.890367 
L 313.766622 -56.890367 
L 314.950399 -56.890367 
L 314.950399 -56.904518 
L 314.950399 -56.904518 
L 313.766622 -56.913081 
L 312.582844 -56.926059 
L 311.399066 -56.945284 
L 310.215289 -56.973126 
L 309.031511 -57.012555 
L 307.847733 -57.067162 
L 306.663955 -57.141154 
L 305.480178 -57.239267 
L 304.2964 -57.366641 
L 303.112622 -57.528616 
L 301.928845 -57.730491 
L 300.745067 -57.977257 
L 299.561289 -58.27333 
L 298.377512 -58.622327 
L 297.193734 -59.026906 
L 296.009956 -59.488695 
L 294.826178 -60.008312 
L 293.642401 -60.585457 
L 292.458623 -61.219062 
L 291.274845 -61.907438 
L 290.091068 -62.648395 
L 288.90729 -63.439279 
L 287.723512 -64.276913 
L 286.539735 -65.157438 
L 285.355957 -66.07608 
L 284.172179 -67.026885 
L 282.988401 -68.002487 
L 281.804624 -68.993978 
L 280.620846 -69.990935 
L 279.437068 -70.981663 
L 278.253291 -71.95365 
L 277.069513 -72.894234 
L 275.885735 -73.791397 
L 274.701957 -74.634635 
L 273.51818 -75.415745 
L 272.334402 -76.129458 
L 271.150624 -76.773772 
L 269.966847 -77.349954 
L 268.783069 -77.862169 
L 267.599291 -78.316776 
L 266.415514 -78.721385 
L 265.231736 -79.083797 
L 264.047958 -79.410963 
L 262.86418 -79.708094 
L 261.680403 -79.978019 
L 260.496625 -80.220853 
L 259.312847 -80.433971 
L 258.12907 -80.612282 
L 256.945292 -80.748729 
L 255.761514 -80.834996 
L 254.577737 -80.862329 
L 253.393959 -80.822454 
L 252.210181 -80.708523 
L 251.026403 -80.516029 
L 249.842626 -80.243613 
L 248.658848 -79.89366 
L 247.47507 -79.472602 
L 246.291293 -78.990836 
L 245.107515 -78.46224 
L 243.923737 -77.903288 
L 242.739959 -77.331867 
L 241.556182 -76.765918 
L 240.372404 -76.222079 
L 239.188626 -75.714485 
L 238.004849 -75.253875 
L 236.821071 -74.847094 
L 235.637293 -74.497015 
L 234.453516 -74.202879 
L 233.269738 -73.960989 
L 232.08596 -73.765687 
L 230.902182 -73.610537 
L 229.718405 -73.48965 
L 228.534627 -73.399097 
L 227.350849 -73.338369 
L 226.167072 -73.311855 
L 224.983294 -73.330304 
L 223.799516 -73.41224 
L 222.615739 -73.585271 
L 221.431961 -73.887229 
L 220.248183 -74.367042 
L 219.064405 -75.085235 
L 217.880628 -76.113928 
L 216.69685 -77.536243 
L 215.513072 -79.445014 
L 214.329295 -81.940811 
L 213.145517 -85.129304 
L 211.961739 -89.118119 
L 210.777961 -94.013335 
L 209.594184 -99.915804 
L 208.410406 -106.917371 
L 207.226628 -115.096933 
L 206.042851 -124.516089 
L 204.859073 -135.213942 
L 203.675295 -147.20055 
L 202.491518 -160.44858 
L 201.30774 -174.883066 
L 200.123962 -190.369712 
L 198.940184 -206.70292 
L 197.756407 -223.5955 
L 196.572629 -240.67265 
L 195.388851 -257.472997 
L 194.205074 -273.459236 
L 193.021296 -288.039893 
L 191.837518 -300.60224 
L 190.653741 -310.554473 
L 189.469963 -317.37335 
L 188.286185 -320.651922 
L 187.102407 -320.141233 
L 185.91863 -315.780063 
L 184.734852 -307.708098 
L 183.551074 -296.260049 
L 182.367297 -281.940935 
L 181.183519 -265.385425 
L 179.999741 -247.306331 
L 178.815963 -228.438677 
L 177.632186 -209.486014 
L 176.448408 -191.0748 
L 175.26463 -173.721033 
L 174.080853 -157.811193 
L 172.897075 -143.597405 
L 171.713297 -131.204882 
L 170.52952 -120.648524 
L 169.345742 -111.85499 
L 168.161964 -104.686709 
L 166.978186 -98.964919 
L 165.794409 -94.489734 
L 164.610631 -91.0562 
L 163.426853 -88.466135 
L 162.243076 -86.536163 
L 161.059298 -85.102659 
L 159.87552 -84.024433 
L 158.691743 -83.183851 
L 157.507965 -82.486938 
L 156.324187 -81.862783 
L 155.140409 -81.262419 
L 153.956632 -80.657239 
L 152.772854 -80.037012 
L 151.589076 -79.40754 
L 150.405299 -78.788057 
L 149.221521 -78.208463 
L 148.037743 -77.70646 
L 146.853965 -77.32463 
L 145.670188 -77.10739 
L 144.48641 -77.097738 
L 143.302632 -77.333676 
L 142.118855 -77.844279 
L 140.935077 -78.645502 
L 139.751299 -79.736025 
L 138.567522 -81.09365 
L 137.383744 -82.672914 
L 136.199966 -84.404649 
L 135.016188 -86.198105 
L 133.832411 -87.945969 
L 132.648633 -89.532187 
L 131.464855 -90.841993 
L 130.281078 -91.773034 
L 129.0973 -92.246174 
L 127.913522 -92.214404 
L 126.729745 -91.668456 
L 125.545967 -90.63816 
L 124.362189 -89.189199 
L 123.178411 -87.415617 
L 121.994634 -85.429132 
L 120.810856 -83.34674 
L 119.627078 -81.278348 
L 118.443301 -79.316081 
L 117.259523 -77.526579 
L 116.075745 -75.94708 
L 114.891967 -74.58546 
L 113.70819 -73.423859 
L 112.524412 -72.425013 
L 111.340634 -71.540159 
L 110.156857 -70.717285 
L 108.973079 -69.908585 
L 107.789301 -69.076261 
L 106.605524 -68.196135 
L 105.421746 -67.258911 
L 104.237968 -66.269292 
L 103.05419 -65.243411 
L 101.870413 -64.205179 
L 100.686635 -63.182246 
L 99.502857 -62.202159 
L 98.31908 -61.289197 
L 97.135302 -60.462165 
L 95.951524 -59.733244 
L 94.767747 -59.107829 
L 93.583969 -58.585149 
L 92.400191 -58.159433 
L 91.216413 -57.821337 
L 90.032636 -57.5594 
L 88.848858 -57.361352 
L 87.66508 -57.215161 
L 86.481303 -57.109771 
L 85.297525 -57.035551 
L 84.113747 -56.984476 
L 82.929969 -56.950124 
L 81.746192 -56.927536 
L 80.562414 -56.913014 
L 79.378636 -56.903885 
z
" style="stroke: #029e73; stroke-width: 2"/>
    </defs>
    <g clip-path="url(#p96188eb70b)">
     <use xlink:href="#mc80b0b7912" x="0" y="360" style="fill: #029e73; fill-opacity: 0.2; stroke: #029e73; stroke-width: 2"/>
    </g>
   </g>
   <g id="PolyCollection_4">
    <defs>
     <path id="m7b1b7dffe2" d="M 213.084149 -56.897435 
L 213.084149 -56.890367 
L 213.703582 -56.890367 
L 214.323015 -56.890367 
L 214.942448 -56.890367 
L 215.561882 -56.890367 
L 216.181315 -56.890367 
L 216.800748 -56.890367 
L 217.420181 -56.890367 
L 218.039615 -56.890367 
L 218.659048 -56.890367 
L 219.278481 -56.890367 
L 219.897914 -56.890367 
L 220.517348 -56.890367 
L 221.136781 -56.890367 
L 221.756214 -56.890367 
L 222.375647 -56.890367 
L 222.995081 -56.890367 
L 223.614514 -56.890367 
L 224.233947 -56.890367 
L 224.85338 -56.890367 
L 225.472813 -56.890367 
L 226.092247 -56.890367 
L 226.71168 -56.890367 
L 227.331113 -56.890367 
L 227.950546 -56.890367 
L 228.56998 -56.890367 
L 229.189413 -56.890367 
L 229.808846 -56.890367 
L 230.428279 -56.890367 
L 231.047713 -56.890367 
L 231.667146 -56.890367 
L 232.286579 -56.890367 
L 232.906012 -56.890367 
L 233.525446 -56.890367 
L 234.144879 -56.890367 
L 234.764312 -56.890367 
L 235.383745 -56.890367 
L 236.003179 -56.890367 
L 236.622612 -56.890367 
L 237.242045 -56.890367 
L 237.861478 -56.890367 
L 238.480912 -56.890367 
L 239.100345 -56.890367 
L 239.719778 -56.890367 
L 240.339211 -56.890367 
L 240.958645 -56.890367 
L 241.578078 -56.890367 
L 242.197511 -56.890367 
L 242.816944 -56.890367 
L 243.436377 -56.890367 
L 244.055811 -56.890367 
L 244.675244 -56.890367 
L 245.294677 -56.890367 
L 245.91411 -56.890367 
L 246.533544 -56.890367 
L 247.152977 -56.890367 
L 247.77241 -56.890367 
L 248.391843 -56.890367 
L 249.011277 -56.890367 
L 249.63071 -56.890367 
L 250.250143 -56.890367 
L 250.869576 -56.890367 
L 251.48901 -56.890367 
L 252.108443 -56.890367 
L 252.727876 -56.890367 
L 253.347309 -56.890367 
L 253.966743 -56.890367 
L 254.586176 -56.890367 
L 255.205609 -56.890367 
L 255.825042 -56.890367 
L 256.444476 -56.890367 
L 257.063909 -56.890367 
L 257.683342 -56.890367 
L 258.302775 -56.890367 
L 258.922208 -56.890367 
L 259.541642 -56.890367 
L 260.161075 -56.890367 
L 260.780508 -56.890367 
L 261.399941 -56.890367 
L 262.019375 -56.890367 
L 262.638808 -56.890367 
L 263.258241 -56.890367 
L 263.877674 -56.890367 
L 264.497108 -56.890367 
L 265.116541 -56.890367 
L 265.735974 -56.890367 
L 266.355407 -56.890367 
L 266.974841 -56.890367 
L 267.594274 -56.890367 
L 268.213707 -56.890367 
L 268.83314 -56.890367 
L 269.452574 -56.890367 
L 270.072007 -56.890367 
L 270.69144 -56.890367 
L 271.310873 -56.890367 
L 271.930307 -56.890367 
L 272.54974 -56.890367 
L 273.169173 -56.890367 
L 273.788606 -56.890367 
L 274.40804 -56.890367 
L 275.027473 -56.890367 
L 275.646906 -56.890367 
L 276.266339 -56.890367 
L 276.885772 -56.890367 
L 277.505206 -56.890367 
L 278.124639 -56.890367 
L 278.744072 -56.890367 
L 279.363505 -56.890367 
L 279.982939 -56.890367 
L 280.602372 -56.890367 
L 281.221805 -56.890367 
L 281.841238 -56.890367 
L 282.460672 -56.890367 
L 283.080105 -56.890367 
L 283.699538 -56.890367 
L 284.318971 -56.890367 
L 284.938405 -56.890367 
L 285.557838 -56.890367 
L 286.177271 -56.890367 
L 286.796704 -56.890367 
L 287.416138 -56.890367 
L 288.035571 -56.890367 
L 288.655004 -56.890367 
L 289.274437 -56.890367 
L 289.893871 -56.890367 
L 290.513304 -56.890367 
L 291.132737 -56.890367 
L 291.75217 -56.890367 
L 292.371604 -56.890367 
L 292.991037 -56.890367 
L 293.61047 -56.890367 
L 294.229903 -56.890367 
L 294.849336 -56.890367 
L 295.46877 -56.890367 
L 296.088203 -56.890367 
L 296.707636 -56.890367 
L 297.327069 -56.890367 
L 297.946503 -56.890367 
L 298.565936 -56.890367 
L 299.185369 -56.890367 
L 299.804802 -56.890367 
L 300.424236 -56.890367 
L 301.043669 -56.890367 
L 301.663102 -56.890367 
L 302.282535 -56.890367 
L 302.901969 -56.890367 
L 303.521402 -56.890367 
L 304.140835 -56.890367 
L 304.760268 -56.890367 
L 305.379702 -56.890367 
L 305.999135 -56.890367 
L 306.618568 -56.890367 
L 307.238001 -56.890367 
L 307.857435 -56.890367 
L 308.476868 -56.890367 
L 309.096301 -56.890367 
L 309.715734 -56.890367 
L 310.335168 -56.890367 
L 310.954601 -56.890367 
L 311.574034 -56.890367 
L 312.193467 -56.890367 
L 312.8129 -56.890367 
L 313.432334 -56.890367 
L 314.051767 -56.890367 
L 314.6712 -56.890367 
L 315.290633 -56.890367 
L 315.910067 -56.890367 
L 316.5295 -56.890367 
L 317.148933 -56.890367 
L 317.768366 -56.890367 
L 318.3878 -56.890367 
L 319.007233 -56.890367 
L 319.626666 -56.890367 
L 320.246099 -56.890367 
L 320.865533 -56.890367 
L 321.484966 -56.890367 
L 322.104399 -56.890367 
L 322.723832 -56.890367 
L 323.343266 -56.890367 
L 323.962699 -56.890367 
L 324.582132 -56.890367 
L 325.201565 -56.890367 
L 325.820999 -56.890367 
L 326.440432 -56.890367 
L 327.059865 -56.890367 
L 327.679298 -56.890367 
L 328.298732 -56.890367 
L 328.918165 -56.890367 
L 329.537598 -56.890367 
L 330.157031 -56.890367 
L 330.776464 -56.890367 
L 331.395898 -56.890367 
L 332.015331 -56.890367 
L 332.634764 -56.890367 
L 333.254197 -56.890367 
L 333.873631 -56.890367 
L 334.493064 -56.890367 
L 335.112497 -56.890367 
L 335.73193 -56.890367 
L 336.351364 -56.890367 
L 336.351364 -56.902325 
L 336.351364 -56.902325 
L 335.73193 -56.910081 
L 335.112497 -56.922137 
L 334.493064 -56.940436 
L 333.873631 -56.967563 
L 333.254197 -57.006866 
L 332.634764 -57.062549 
L 332.015331 -57.139746 
L 331.395898 -57.24456 
L 330.776464 -57.384068 
L 330.157031 -57.566293 
L 329.537598 -57.800159 
L 328.918165 -58.095447 
L 328.298732 -58.462753 
L 327.679298 -58.913474 
L 327.059865 -59.4598 
L 326.440432 -60.114687 
L 325.820999 -60.891774 
L 325.201565 -61.805203 
L 324.582132 -62.869275 
L 323.962699 -64.097947 
L 323.343266 -65.504153 
L 322.723832 -67.099015 
L 322.104399 -68.891014 
L 321.484966 -70.885233 
L 320.865533 -73.082767 
L 320.246099 -75.480399 
L 319.626666 -78.070574 
L 319.007233 -80.841672 
L 318.3878 -83.778545 
L 317.768366 -86.863232 
L 317.148933 -90.075782 
L 316.5295 -93.395088 
L 315.910067 -96.799682 
L 315.290633 -100.268447 
L 314.6712 -103.78121 
L 314.051767 -107.319214 
L 313.432334 -110.865432 
L 312.8129 -114.404717 
L 312.193467 -117.923755 
L 311.574034 -121.410805 
L 310.954601 -124.855213 
L 310.335168 -128.246706 
L 309.715734 -131.57451 
L 309.096301 -134.826361 
L 308.476868 -137.987524 
L 307.857435 -141.039956 
L 307.238001 -143.961787 
L 306.618568 -146.727262 
L 305.999135 -149.307268 
L 305.379702 -151.670513 
L 304.760268 -153.785305 
L 304.140835 -155.621813 
L 303.521402 -157.154572 
L 302.901969 -158.364951 
L 302.282535 -159.243246 
L 301.663102 -159.790093 
L 301.043669 -160.016958 
L 300.424236 -159.945546 
L 299.804802 -159.606111 
L 299.185369 -159.034793 
L 298.565936 -158.270218 
L 297.946503 -157.34975 
L 297.327069 -156.30582 
L 296.707636 -155.162795 
L 296.088203 -153.934811 
L 295.46877 -152.624894 
L 294.849336 -151.225501 
L 294.229903 -149.720463 
L 293.61047 -148.088075 
L 292.991037 -146.304899 
L 292.371604 -144.349744 
L 291.75217 -142.207218 
L 291.132737 -139.870343 
L 290.513304 -137.341854 
L 289.893871 -134.634061 
L 289.274437 -131.767375 
L 288.655004 -128.767886 
L 288.035571 -125.664504 
L 287.416138 -122.486254 
L 286.796704 -119.260244 
L 286.177271 -116.010645 
L 285.557838 -112.758787 
L 284.938405 -109.524199 
L 284.318971 -106.326216 
L 283.699538 -103.185632 
L 283.080105 -100.125903 
L 282.460672 -97.173473 
L 281.841238 -94.35702 
L 281.221805 -91.705659 
L 280.602372 -89.24636 
L 279.982939 -87.001021 
L 279.363505 -84.983703 
L 278.744072 -83.198541 
L 278.124639 -81.638683 
L 277.505206 -80.28649 
L 276.885772 -79.114969 
L 276.266339 -78.090266 
L 275.646906 -77.174873 
L 275.027473 -76.331136 
L 274.40804 -75.524618 
L 273.788606 -74.726949 
L 273.169173 -73.917837 
L 272.54974 -73.086084 
L 271.930307 -72.229544 
L 271.310873 -71.354098 
L 270.69144 -70.471839 
L 270.072007 -69.598724 
L 269.452574 -68.752017 
L 268.83314 -67.947852 
L 268.213707 -67.199207 
L 267.594274 -66.514502 
L 266.974841 -65.896956 
L 266.355407 -65.344685 
L 265.735974 -64.85144 
L 265.116541 -64.407803 
L 264.497108 -64.002604 
L 263.877674 -63.624336 
L 263.258241 -63.262382 
L 262.638808 -62.907938 
L 262.019375 -62.55458 
L 261.399941 -62.198486 
L 260.780508 -61.838368 
L 260.161075 -61.475188 
L 259.541642 -61.111728 
L 258.922208 -60.752073 
L 258.302775 -60.401063 
L 257.683342 -60.063769 
L 257.063909 -59.745005 
L 256.444476 -59.448941 
L 255.825042 -59.178835 
L 255.205609 -58.936891 
L 254.586176 -58.724263 
L 253.966743 -58.541157 
L 253.347309 -58.387012 
L 252.727876 -58.260694 
L 252.108443 -58.160669 
L 251.48901 -58.085126 
L 250.869576 -58.032035 
L 250.250143 -57.999168 
L 249.63071 -57.984105 
L 249.011277 -57.984254 
L 248.391843 -57.996922 
L 247.77241 -58.019427 
L 247.152977 -58.049254 
L 246.533544 -58.084206 
L 245.91411 -58.12254 
L 245.294677 -58.163017 
L 244.675244 -58.204887 
L 244.055811 -58.247758 
L 243.436377 -58.291396 
L 242.816944 -58.335466 
L 242.197511 -58.379266 
L 241.578078 -58.421499 
L 240.958645 -58.460141 
L 240.339211 -58.492435 
L 239.719778 -58.515046 
L 239.100345 -58.524366 
L 238.480912 -58.516941 
L 237.861478 -58.489965 
L 237.242045 -58.44176 
L 236.622612 -58.372159 
L 236.003179 -58.282725 
L 235.383745 -58.176755 
L 234.764312 -58.059067 
L 234.144879 -57.935581 
L 233.525446 -57.812777 
L 232.906012 -57.697077 
L 232.286579 -57.594263 
L 231.667146 -57.508962 
L 231.047713 -57.444281 
L 230.428279 -57.401589 
L 229.808846 -57.380472 
L 229.189413 -57.378834 
L 228.56998 -57.39314 
L 227.950546 -57.418763 
L 227.331113 -57.45042 
L 226.71168 -57.48265 
L 226.092247 -57.510309 
L 225.472813 -57.529018 
L 224.85338 -57.535534 
L 224.233947 -57.527989 
L 223.614514 -57.505978 
L 222.995081 -57.470481 
L 222.375647 -57.423638 
L 221.756214 -57.368408 
L 221.136781 -57.308175 
L 220.517348 -57.246352 
L 219.897914 -57.186029 
L 219.278481 -57.129727 
L 218.659048 -57.079246 
L 218.039615 -57.035641 
L 217.420181 -56.999275 
L 216.800748 -56.969946 
L 216.181315 -56.947043 
L 215.561882 -56.929709 
L 214.942448 -56.916985 
L 214.323015 -56.90792 
L 213.703582 -56.901649 
L 213.084149 -56.897435 
z
" style="stroke: #de8f05; stroke-width: 2"/>
    </defs>
    <g clip-path="url(#p96188eb70b)">
     <use xlink:href="#m7b1b7dffe2" x="0" y="360" style="fill: #de8f05; fill-opacity: 0.2; stroke: #de8f05; stroke-width: 2"/>
    </g>
   </g>
   <g id="PolyCollection_5">
    <defs>
     <path id="m3d464e8ee4" d="M 198.337977 -56.896943 
L 198.337977 -56.890367 
L 199.02767 -56.890367 
L 199.717363 -56.890367 
L 200.407056 -56.890367 
L 201.096749 -56.890367 
L 201.786442 -56.890367 
L 202.476135 -56.890367 
L 203.165828 -56.890367 
L 203.855521 -56.890367 
L 204.545214 -56.890367 
L 205.234907 -56.890367 
L 205.9246 -56.890367 
L 206.614293 -56.890367 
L 207.303986 -56.890367 
L 207.993679 -56.890367 
L 208.683372 -56.890367 
L 209.373065 -56.890367 
L 210.062758 -56.890367 
L 210.752452 -56.890367 
L 211.442145 -56.890367 
L 212.131838 -56.890367 
L 212.821531 -56.890367 
L 213.511224 -56.890367 
L 214.200917 -56.890367 
L 214.89061 -56.890367 
L 215.580303 -56.890367 
L 216.269996 -56.890367 
L 216.959689 -56.890367 
L 217.649382 -56.890367 
L 218.339075 -56.890367 
L 219.028768 -56.890367 
L 219.718461 -56.890367 
L 220.408154 -56.890367 
L 221.097847 -56.890367 
L 221.78754 -56.890367 
L 222.477233 -56.890367 
L 223.166926 -56.890367 
L 223.856619 -56.890367 
L 224.546312 -56.890367 
L 225.236005 -56.890367 
L 225.925698 -56.890367 
L 226.615391 -56.890367 
L 227.305084 -56.890367 
L 227.994777 -56.890367 
L 228.68447 -56.890367 
L 229.374163 -56.890367 
L 230.063856 -56.890367 
L 230.753549 -56.890367 
L 231.443242 -56.890367 
L 232.132935 -56.890367 
L 232.822628 -56.890367 
L 233.512321 -56.890367 
L 234.202014 -56.890367 
L 234.891707 -56.890367 
L 235.5814 -56.890367 
L 236.271093 -56.890367 
L 236.960786 -56.890367 
L 237.650479 -56.890367 
L 238.340172 -56.890367 
L 239.029865 -56.890367 
L 239.719558 -56.890367 
L 240.409251 -56.890367 
L 241.098944 -56.890367 
L 241.788637 -56.890367 
L 242.47833 -56.890367 
L 243.168023 -56.890367 
L 243.857716 -56.890367 
L 244.547409 -56.890367 
L 245.237102 -56.890367 
L 245.926795 -56.890367 
L 246.616488 -56.890367 
L 247.306181 -56.890367 
L 247.995874 -56.890367 
L 248.685567 -56.890367 
L 249.37526 -56.890367 
L 250.064953 -56.890367 
L 250.754646 -56.890367 
L 251.444339 -56.890367 
L 252.134032 -56.890367 
L 252.823725 -56.890367 
L 253.513419 -56.890367 
L 254.203112 -56.890367 
L 254.892805 -56.890367 
L 255.582498 -56.890367 
L 256.272191 -56.890367 
L 256.961884 -56.890367 
L 257.651577 -56.890367 
L 258.34127 -56.890367 
L 259.030963 -56.890367 
L 259.720656 -56.890367 
L 260.410349 -56.890367 
L 261.100042 -56.890367 
L 261.789735 -56.890367 
L 262.479428 -56.890367 
L 263.169121 -56.890367 
L 263.858814 -56.890367 
L 264.548507 -56.890367 
L 265.2382 -56.890367 
L 265.927893 -56.890367 
L 266.617586 -56.890367 
L 267.307279 -56.890367 
L 267.996972 -56.890367 
L 268.686665 -56.890367 
L 269.376358 -56.890367 
L 270.066051 -56.890367 
L 270.755744 -56.890367 
L 271.445437 -56.890367 
L 272.13513 -56.890367 
L 272.824823 -56.890367 
L 273.514516 -56.890367 
L 274.204209 -56.890367 
L 274.893902 -56.890367 
L 275.583595 -56.890367 
L 276.273288 -56.890367 
L 276.962981 -56.890367 
L 277.652674 -56.890367 
L 278.342367 -56.890367 
L 279.03206 -56.890367 
L 279.721753 -56.890367 
L 280.411446 -56.890367 
L 281.101139 -56.890367 
L 281.790832 -56.890367 
L 282.480525 -56.890367 
L 283.170218 -56.890367 
L 283.859911 -56.890367 
L 284.549604 -56.890367 
L 285.239297 -56.890367 
L 285.92899 -56.890367 
L 286.618683 -56.890367 
L 287.308376 -56.890367 
L 287.998069 -56.890367 
L 288.687762 -56.890367 
L 289.377455 -56.890367 
L 290.067148 -56.890367 
L 290.756841 -56.890367 
L 291.446534 -56.890367 
L 292.136227 -56.890367 
L 292.82592 -56.890367 
L 293.515613 -56.890367 
L 294.205306 -56.890367 
L 294.894999 -56.890367 
L 295.584692 -56.890367 
L 296.274386 -56.890367 
L 296.964079 -56.890367 
L 297.653772 -56.890367 
L 298.343465 -56.890367 
L 299.033158 -56.890367 
L 299.722851 -56.890367 
L 300.412544 -56.890367 
L 301.102237 -56.890367 
L 301.79193 -56.890367 
L 302.481623 -56.890367 
L 303.171316 -56.890367 
L 303.861009 -56.890367 
L 304.550702 -56.890367 
L 305.240395 -56.890367 
L 305.930088 -56.890367 
L 306.619781 -56.890367 
L 307.309474 -56.890367 
L 307.999167 -56.890367 
L 308.68886 -56.890367 
L 309.378553 -56.890367 
L 310.068246 -56.890367 
L 310.757939 -56.890367 
L 311.447632 -56.890367 
L 312.137325 -56.890367 
L 312.827018 -56.890367 
L 313.516711 -56.890367 
L 314.206404 -56.890367 
L 314.896097 -56.890367 
L 315.58579 -56.890367 
L 316.275483 -56.890367 
L 316.965176 -56.890367 
L 317.654869 -56.890367 
L 318.344562 -56.890367 
L 319.034255 -56.890367 
L 319.723948 -56.890367 
L 320.413641 -56.890367 
L 321.103334 -56.890367 
L 321.793027 -56.890367 
L 322.48272 -56.890367 
L 323.172413 -56.890367 
L 323.862106 -56.890367 
L 324.551799 -56.890367 
L 325.241492 -56.890367 
L 325.931185 -56.890367 
L 326.620878 -56.890367 
L 327.310571 -56.890367 
L 328.000264 -56.890367 
L 328.689957 -56.890367 
L 329.37965 -56.890367 
L 330.069343 -56.890367 
L 330.759036 -56.890367 
L 331.448729 -56.890367 
L 332.138422 -56.890367 
L 332.828115 -56.890367 
L 333.517808 -56.890367 
L 334.207501 -56.890367 
L 334.897194 -56.890367 
L 335.586887 -56.890367 
L 335.586887 -56.897342 
L 335.586887 -56.897342 
L 334.897194 -56.90184 
L 334.207501 -56.908785 
L 333.517808 -56.919239 
L 332.828115 -56.934602 
L 332.138422 -56.956664 
L 331.448729 -56.98767 
L 330.759036 -57.030378 
L 330.069343 -57.088138 
L 329.37965 -57.164972 
L 328.689957 -57.265676 
L 328.000264 -57.395933 
L 327.310571 -57.562406 
L 326.620878 -57.772801 
L 325.931185 -58.035834 
L 325.241492 -58.36107 
L 324.551799 -58.7586 
L 323.862106 -59.238555 
L 323.172413 -59.810493 
L 322.48272 -60.482747 
L 321.793027 -61.261859 
L 321.103334 -62.152214 
L 320.413641 -63.155978 
L 319.723948 -64.273385 
L 319.034255 -65.503336 
L 318.344562 -66.844207 
L 317.654869 -68.294722 
L 316.965176 -69.854736 
L 316.275483 -71.525805 
L 315.58579 -73.311481 
L 314.896097 -75.217315 
L 314.206404 -77.250565 
L 313.516711 -79.419639 
L 312.827018 -81.733217 
L 312.137325 -84.19904 
L 311.447632 -86.822317 
L 310.757939 -89.603831 
L 310.068246 -92.537942 
L 309.378553 -95.61086 
L 308.68886 -98.799716 
L 307.999167 -102.072952 
L 307.309474 -105.392465 
L 306.619781 -108.717607 
L 305.930088 -112.010734 
L 305.240395 -115.243507 
L 304.550702 -118.402794 
L 303.861009 -121.494817 
L 303.171316 -124.546332 
L 302.481623 -127.602041 
L 301.79193 -130.718099 
L 301.102237 -133.952386 
L 300.412544 -137.352854 
L 299.722851 -140.945816 
L 299.033158 -144.726123 
L 298.343465 -148.650975 
L 297.653772 -152.638564 
L 296.964079 -156.571982 
L 296.274386 -160.308031 
L 295.584692 -163.689827 
L 294.894999 -166.561585 
L 294.205306 -168.783669 
L 293.515613 -170.246013 
L 292.82592 -170.878254 
L 292.136227 -170.655398 
L 291.446534 -169.598405 
L 290.756841 -167.769776 
L 290.067148 -165.264844 
L 289.377455 -162.20006 
L 288.687762 -158.699916 
L 287.998069 -154.884337 
L 287.308376 -150.858256 
L 286.618683 -146.704723 
L 285.92899 -142.482316 
L 285.239297 -138.226902 
L 284.549604 -133.957063 
L 283.859911 -129.681884 
L 283.170218 -125.409438 
L 282.480525 -121.15422 
L 281.790832 -116.94209 
L 281.101139 -112.811833 
L 280.411446 -108.813149 
L 279.721753 -105.001663 
L 279.03206 -101.432052 
L 278.342367 -98.150768 
L 277.652674 -95.189779 
L 276.962981 -92.562468 
L 276.273288 -90.262335 
L 275.583595 -88.264548 
L 274.893902 -86.529858 
L 274.204209 -85.010032 
L 273.514516 -83.653785 
L 272.824823 -82.412259 
L 272.13513 -81.243309 
L 271.445437 -80.114219 
L 270.755744 -79.00279 
L 270.066051 -77.897029 
L 269.376358 -76.793864 
L 268.686665 -75.697326 
L 267.996972 -74.616591 
L 267.307279 -73.564152 
L 266.617586 -72.5542 
L 265.927893 -71.601206 
L 265.2382 -70.718639 
L 264.548507 -69.917739 
L 263.858814 -69.206376 
L 263.169121 -68.588086 
L 262.479428 -68.061451 
L 261.789735 -67.62 
L 261.100042 -67.252754 
L 260.410349 -66.945409 
L 259.720656 -66.682032 
L 259.030963 -66.447007 
L 258.34127 -66.226883 
L 257.651577 -66.011797 
L 256.961884 -65.796196 
L 256.272191 -65.578759 
L 255.582498 -65.36154 
L 254.892805 -65.148551 
L 254.203112 -64.944087 
L 253.513419 -64.751142 
L 252.823725 -64.570237 
L 252.134032 -64.398857 
L 251.444339 -64.231573 
L 250.754646 -64.060792 
L 250.064953 -63.877913 
L 249.37526 -63.67467 
L 248.685567 -63.444365 
L 247.995874 -63.182797 
L 247.306181 -62.888753 
L 246.616488 -62.564028 
L 245.926795 -62.213046 
L 245.237102 -61.842205 
L 244.547409 -61.459088 
L 243.857716 -61.071687 
L 243.168023 -60.687734 
L 242.47833 -60.314204 
L 241.788637 -59.957 
L 241.098944 -59.620817 
L 240.409251 -59.309149 
L 239.719558 -59.02439 
L 239.029865 -58.768007 
L 238.340172 -58.540719 
L 237.650479 -58.342653 
L 236.960786 -58.173442 
L 236.271093 -58.032243 
L 235.5814 -57.917681 
L 234.891707 -57.827748 
L 234.202014 -57.759705 
L 233.512321 -57.710042 
L 232.822628 -57.674548 
L 232.132935 -57.648519 
L 231.443242 -57.627092 
L 230.753549 -57.605673 
L 230.063856 -57.580373 
L 229.374163 -57.548385 
L 228.68447 -57.508226 
L 227.994777 -57.4598 
L 227.305084 -57.40427 
L 226.615391 -57.34378 
L 225.925698 -57.281072 
L 225.236005 -57.219086 
L 224.546312 -57.160598 
L 223.856619 -57.107964 
L 223.166926 -57.062977 
L 222.477233 -57.026857 
L 221.78754 -57.000327 
L 221.097847 -56.983748 
L 220.408154 -56.977261 
L 219.718461 -56.980892 
L 219.028768 -56.994597 
L 218.339075 -57.018226 
L 217.649382 -57.05142 
L 216.959689 -57.093457 
L 216.269996 -57.143092 
L 215.580303 -57.198431 
L 214.89061 -57.256888 
L 214.200917 -57.315252 
L 213.511224 -57.369884 
L 212.821531 -57.417026 
L 212.131838 -57.453188 
L 211.442145 -57.475546 
L 210.752452 -57.482295 
L 210.062758 -57.472874 
L 209.373065 -57.448045 
L 208.683372 -57.40978 
L 207.993679 -57.361006 
L 207.303986 -57.305235 
L 206.614293 -57.246144 
L 205.9246 -57.187186 
L 205.234907 -57.131275 
L 204.545214 -57.080588 
L 203.855521 -57.036487 
L 203.165828 -56.999563 
L 202.476135 -56.969754 
L 201.786442 -56.946515 
L 201.096749 -56.929001 
L 200.407056 -56.916228 
L 199.717363 -56.907208 
L 199.02767 -56.901037 
L 198.337977 -56.896943 
z
" style="stroke: #0173b2; stroke-width: 2"/>
    </defs>
    <g clip-path="url(#p96188eb70b)">
     <use xlink:href="#m3d464e8ee4" x="0" y="360" style="fill: #0173b2; fill-opacity: 0.2; stroke: #0173b2; stroke-width: 2"/>
    </g>
   </g>
   <g id="matplotlib.axis_1">
    <g id="xtick_1">
     <g id="line2d_1">
      <defs>
       <path id="m8ffe5c78d5" d="M 0 0 
L 0 3.5 
" style="stroke: #000000; stroke-width: 0.8"/>
      </defs>
      <g>
       <use xlink:href="#m8ffe5c78d5" x="71.971433" y="303.109633" style="stroke: #000000; stroke-width: 0.8"/>
      </g>
     </g>
     <g id="text_1">
      <!-- 4000 -->
      <g transform="translate(64.924672 333.478407) rotate(-45) scale(0.1 -0.1)">
       <defs>
        <path id="DejaVuSerif-34" d="M 2234 1581 
L 2234 4063 
L 641 1581 
L 2234 1581 
z
M 3609 0 
L 1484 0 
L 1484 331 
L 2234 331 
L 2234 1247 
L 197 1247 
L 197 1588 
L 2241 4750 
L 2859 4750 
L 2859 1581 
L 3750 1581 
L 3750 1247 
L 2859 1247 
L 2859 331 
L 3609 331 
L 3609 0 
z
" transform="scale(0.015625)"/>
        <path id="DejaVuSerif-30" d="M 2034 219 
Q 2513 219 2750 744 
Q 2988 1269 2988 2328 
Q 2988 3391 2750 3916 
Q 2513 4441 2034 4441 
Q 1556 4441 1318 3916 
Q 1081 3391 1081 2328 
Q 1081 1269 1318 744 
Q 1556 219 2034 219 
z
M 2034 -91 
Q 1275 -91 848 546 
Q 422 1184 422 2328 
Q 422 3475 848 4112 
Q 1275 4750 2034 4750 
Q 2797 4750 3222 4112 
Q 3647 3475 3647 2328 
Q 3647 1184 3222 546 
Q 2797 -91 2034 -91 
z
" transform="scale(0.015625)"/>
       </defs>
       <use xlink:href="#DejaVuSerif-34"/>
       <use xlink:href="#DejaVuSerif-30" x="63.623047"/>
       <use xlink:href="#DejaVuSerif-30" x="127.246094"/>
       <use xlink:href="#DejaVuSerif-30" x="190.869141"/>
      </g>
     </g>
    </g>
    <g id="xtick_2">
     <g id="line2d_2">
      <g>
       <use xlink:href="#m8ffe5c78d5" x="130.282139" y="303.109633" style="stroke: #000000; stroke-width: 0.8"/>
      </g>
     </g>
     <g id="text_2">
      <!-- 5000 -->
      <g transform="translate(123.235378 333.478407) rotate(-45) scale(0.1 -0.1)">
       <defs>
        <path id="DejaVuSerif-35" d="M 3219 4666 
L 3219 4153 
L 1081 4153 
L 1081 2816 
Q 1244 2928 1461 2984 
Q 1678 3041 1947 3041 
Q 2703 3041 3140 2622 
Q 3578 2203 3578 1478 
Q 3578 738 3136 323 
Q 2694 -91 1894 -91 
Q 1572 -91 1234 -12 
Q 897 66 544 225 
L 544 1131 
L 897 1131 
Q 925 688 1179 453 
Q 1434 219 1894 219 
Q 2388 219 2653 544 
Q 2919 869 2919 1478 
Q 2919 2084 2655 2407 
Q 2391 2731 1894 2731 
Q 1613 2731 1398 2631 
Q 1184 2531 1019 2322 
L 750 2322 
L 750 4666 
L 3219 4666 
z
" transform="scale(0.015625)"/>
       </defs>
       <use xlink:href="#DejaVuSerif-35"/>
       <use xlink:href="#DejaVuSerif-30" x="63.623047"/>
       <use xlink:href="#DejaVuSerif-30" x="127.246094"/>
       <use xlink:href="#DejaVuSerif-30" x="190.869141"/>
      </g>
     </g>
    </g>
    <g id="xtick_3">
     <g id="line2d_3">
      <g>
       <use xlink:href="#m8ffe5c78d5" x="188.592844" y="303.109633" style="stroke: #000000; stroke-width: 0.8"/>
      </g>
     </g>
     <g id="text_3">
      <!-- 6000 -->
      <g transform="translate(181.546083 333.478407) rotate(-45) scale(0.1 -0.1)">
       <defs>
        <path id="DejaVuSerif-36" d="M 2094 219 
Q 2534 219 2771 542 
Q 3009 866 3009 1472 
Q 3009 2078 2771 2401 
Q 2534 2725 2094 2725 
Q 1647 2725 1412 2412 
Q 1178 2100 1178 1509 
Q 1178 888 1415 553 
Q 1653 219 2094 219 
z
M 1075 2569 
Q 1288 2803 1556 2918 
Q 1825 3034 2163 3034 
Q 2859 3034 3264 2615 
Q 3669 2197 3669 1472 
Q 3669 763 3233 336 
Q 2797 -91 2069 -91 
Q 1278 -91 853 498 
Q 428 1088 428 2181 
Q 428 3406 931 4078 
Q 1434 4750 2350 4750 
Q 2597 4750 2869 4703 
Q 3141 4656 3425 4563 
L 3425 3794 
L 3072 3794 
Q 3034 4109 2831 4275 
Q 2628 4441 2284 4441 
Q 1678 4441 1381 3981 
Q 1084 3522 1075 2569 
z
" transform="scale(0.015625)"/>
       </defs>
       <use xlink:href="#DejaVuSerif-36"/>
       <use xlink:href="#DejaVuSerif-30" x="63.623047"/>
       <use xlink:href="#DejaVuSerif-30" x="127.246094"/>
       <use xlink:href="#DejaVuSerif-30" x="190.869141"/>
      </g>
     </g>
    </g>
    <g id="xtick_4">
     <g id="line2d_4">
      <g>
       <use xlink:href="#m8ffe5c78d5" x="246.90355" y="303.109633" style="stroke: #000000; stroke-width: 0.8"/>
      </g>
     </g>
     <g id="text_4">
      <!-- 7000 -->
      <g transform="translate(239.856789 333.478407) rotate(-45) scale(0.1 -0.1)">
       <defs>
        <path id="DejaVuSerif-37" d="M 3609 4347 
L 1784 0 
L 1319 0 
L 3059 4153 
L 903 4153 
L 903 3578 
L 538 3578 
L 538 4666 
L 3609 4666 
L 3609 4347 
z
" transform="scale(0.015625)"/>
       </defs>
       <use xlink:href="#DejaVuSerif-37"/>
       <use xlink:href="#DejaVuSerif-30" x="63.623047"/>
       <use xlink:href="#DejaVuSerif-30" x="127.246094"/>
       <use xlink:href="#DejaVuSerif-30" x="190.869141"/>
      </g>
     </g>
    </g>
    <g id="xtick_5">
     <g id="line2d_5">
      <g>
       <use xlink:href="#m8ffe5c78d5" x="305.214255" y="303.109633" style="stroke: #000000; stroke-width: 0.8"/>
      </g>
     </g>
     <g id="text_5">
      <!-- 8000 -->
      <g transform="translate(298.167494 333.478407) rotate(-45) scale(0.1 -0.1)">
       <defs>
        <path id="DejaVuSerif-38" d="M 2981 1275 
Q 2981 1775 2732 2051 
Q 2484 2328 2034 2328 
Q 1584 2328 1336 2051 
Q 1088 1775 1088 1275 
Q 1088 772 1336 495 
Q 1584 219 2034 219 
Q 2484 219 2732 495 
Q 2981 772 2981 1275 
z
M 2853 3541 
Q 2853 3966 2637 4203 
Q 2422 4441 2034 4441 
Q 1650 4441 1433 4203 
Q 1216 3966 1216 3541 
Q 1216 3113 1433 2875 
Q 1650 2638 2034 2638 
Q 2422 2638 2637 2875 
Q 2853 3113 2853 3541 
z
M 2516 2484 
Q 3047 2413 3344 2092 
Q 3641 1772 3641 1275 
Q 3641 619 3225 264 
Q 2809 -91 2034 -91 
Q 1263 -91 845 264 
Q 428 619 428 1275 
Q 428 1772 725 2092 
Q 1022 2413 1556 2484 
Q 1084 2569 832 2842 
Q 581 3116 581 3541 
Q 581 4103 968 4426 
Q 1356 4750 2034 4750 
Q 2713 4750 3100 4426 
Q 3488 4103 3488 3541 
Q 3488 3116 3236 2842 
Q 2984 2569 2516 2484 
z
" transform="scale(0.015625)"/>
       </defs>
       <use xlink:href="#DejaVuSerif-38"/>
       <use xlink:href="#DejaVuSerif-30" x="63.623047"/>
       <use xlink:href="#DejaVuSerif-30" x="127.246094"/>
       <use xlink:href="#DejaVuSerif-30" x="190.869141"/>
      </g>
     </g>
    </g>
    <g id="text_6">
     <!-- Number of zeroes per cell -->
     <g transform="translate(141.734531 346.547406) scale(0.1 -0.1)">
      <defs>
       <path id="DejaVuSerif-4e" d="M 313 0 
L 313 331 
L 941 331 
L 941 4331 
L 313 4331 
L 313 4666 
L 1509 4666 
L 4306 984 
L 4306 4331 
L 3681 4331 
L 3681 4666 
L 5319 4666 
L 5319 4331 
L 4691 4331 
L 4691 -91 
L 4313 -91 
L 1325 3841 
L 1325 331 
L 1953 331 
L 1953 0 
L 313 0 
z
" transform="scale(0.015625)"/>
       <path id="DejaVuSerif-75" d="M 2266 3322 
L 3341 3322 
L 3341 331 
L 3884 331 
L 3884 0 
L 2766 0 
L 2766 588 
Q 2606 256 2353 82 
Q 2100 -91 1766 -91 
Q 1213 -91 952 223 
Q 691 538 691 1209 
L 691 2988 
L 172 2988 
L 172 3322 
L 1269 3322 
L 1269 1388 
Q 1269 781 1417 556 
Q 1566 331 1947 331 
Q 2347 331 2556 625 
Q 2766 919 2766 1478 
L 2766 2988 
L 2266 2988 
L 2266 3322 
z
" transform="scale(0.015625)"/>
       <path id="DejaVuSerif-6d" d="M 3316 2675 
Q 3481 3041 3739 3227 
Q 3997 3413 4341 3413 
Q 4863 3413 5119 3089 
Q 5375 2766 5375 2113 
L 5375 331 
L 5894 331 
L 5894 0 
L 4300 0 
L 4300 331 
L 4800 331 
L 4800 2047 
Q 4800 2556 4650 2772 
Q 4500 2988 4153 2988 
Q 3769 2988 3567 2697 
Q 3366 2406 3366 1850 
L 3366 331 
L 3866 331 
L 3866 0 
L 2291 0 
L 2291 331 
L 2791 331 
L 2791 2069 
Q 2791 2566 2641 2777 
Q 2491 2988 2144 2988 
Q 1759 2988 1557 2697 
Q 1356 2406 1356 1850 
L 1356 331 
L 1856 331 
L 1856 0 
L 263 0 
L 263 331 
L 781 331 
L 781 2994 
L 231 2994 
L 231 3322 
L 1356 3322 
L 1356 2731 
Q 1516 3063 1762 3238 
Q 2009 3413 2322 3413 
Q 2709 3413 2968 3220 
Q 3228 3028 3316 2675 
z
" transform="scale(0.015625)"/>
       <path id="DejaVuSerif-62" d="M 738 331 
L 738 4531 
L 184 4531 
L 184 4863 
L 1313 4863 
L 1313 2803 
Q 1481 3116 1742 3264 
Q 2003 3413 2388 3413 
Q 3000 3413 3387 2928 
Q 3775 2444 3775 1663 
Q 3775 881 3387 395 
Q 3000 -91 2388 -91 
Q 2003 -91 1742 57 
Q 1481 206 1313 519 
L 1313 0 
L 184 0 
L 184 331 
L 738 331 
z
M 1313 1497 
Q 1313 897 1542 583 
Q 1772 269 2209 269 
Q 2650 269 2876 622 
Q 3103 975 3103 1663 
Q 3103 2353 2876 2703 
Q 2650 3053 2209 3053 
Q 1772 3053 1542 2737 
Q 1313 2422 1313 1825 
L 1313 1497 
z
" transform="scale(0.015625)"/>
       <path id="DejaVuSerif-65" d="M 3469 1600 
L 991 1600 
L 991 1575 
Q 991 903 1244 561 
Q 1497 219 1991 219 
Q 2369 219 2611 417 
Q 2853 616 2950 1006 
L 3413 1006 
Q 3275 459 2904 184 
Q 2534 -91 1931 -91 
Q 1203 -91 761 389 
Q 319 869 319 1663 
Q 319 2450 753 2931 
Q 1188 3413 1894 3413 
Q 2647 3413 3050 2948 
Q 3453 2484 3469 1600 
z
M 2791 1931 
Q 2772 2513 2545 2808 
Q 2319 3103 1894 3103 
Q 1497 3103 1269 2806 
Q 1041 2509 991 1931 
L 2791 1931 
z
" transform="scale(0.015625)"/>
       <path id="DejaVuSerif-72" d="M 3059 3328 
L 3059 2497 
L 2728 2497 
Q 2713 2744 2591 2866 
Q 2469 2988 2234 2988 
Q 1809 2988 1582 2694 
Q 1356 2400 1356 1850 
L 1356 331 
L 2022 331 
L 2022 0 
L 263 0 
L 263 331 
L 781 331 
L 781 2994 
L 231 2994 
L 231 3322 
L 1356 3322 
L 1356 2731 
Q 1525 3078 1790 3245 
Q 2056 3413 2438 3413 
Q 2578 3413 2733 3391 
Q 2888 3369 3059 3328 
z
" transform="scale(0.015625)"/>
       <path id="DejaVuSerif-20" transform="scale(0.015625)"/>
       <path id="DejaVuSerif-6f" d="M 1925 219 
Q 2388 219 2623 584 
Q 2859 950 2859 1663 
Q 2859 2375 2623 2739 
Q 2388 3103 1925 3103 
Q 1463 3103 1227 2739 
Q 991 2375 991 1663 
Q 991 950 1228 584 
Q 1466 219 1925 219 
z
M 1925 -91 
Q 1200 -91 759 389 
Q 319 869 319 1663 
Q 319 2456 758 2934 
Q 1197 3413 1925 3413 
Q 2653 3413 3092 2934 
Q 3531 2456 3531 1663 
Q 3531 869 3092 389 
Q 2653 -91 1925 -91 
z
" transform="scale(0.015625)"/>
       <path id="DejaVuSerif-66" d="M 2753 4078 
L 2450 4078 
Q 2447 4313 2317 4434 
Q 2188 4556 1941 4556 
Q 1619 4556 1487 4379 
Q 1356 4203 1356 3750 
L 1356 3322 
L 2284 3322 
L 2284 2988 
L 1356 2988 
L 1356 331 
L 2094 331 
L 2094 0 
L 231 0 
L 231 331 
L 781 331 
L 781 2988 
L 231 2988 
L 231 3322 
L 781 3322 
L 781 3738 
Q 781 4294 1070 4578 
Q 1359 4863 1919 4863 
Q 2128 4863 2337 4825 
Q 2547 4788 2753 4709 
L 2753 4078 
z
" transform="scale(0.015625)"/>
       <path id="DejaVuSerif-7a" d="M 256 0 
L 256 269 
L 2338 2988 
L 691 2988 
L 691 2413 
L 359 2413 
L 359 3322 
L 3078 3322 
L 3078 3053 
L 997 331 
L 2803 331 
L 2803 934 
L 3138 934 
L 3138 0 
L 256 0 
z
" transform="scale(0.015625)"/>
       <path id="DejaVuSerif-73" d="M 359 184 
L 359 959 
L 691 959 
Q 703 588 923 403 
Q 1144 219 1575 219 
Q 1963 219 2166 364 
Q 2369 509 2369 788 
Q 2369 1006 2220 1140 
Q 2072 1275 1594 1428 
L 1178 1569 
Q 750 1706 558 1912 
Q 366 2119 366 2438 
Q 366 2894 700 3153 
Q 1034 3413 1625 3413 
Q 1888 3413 2178 3344 
Q 2469 3275 2778 3144 
L 2778 2419 
L 2447 2419 
Q 2434 2741 2221 2922 
Q 2009 3103 1644 3103 
Q 1281 3103 1095 2975 
Q 909 2847 909 2591 
Q 909 2381 1050 2254 
Q 1191 2128 1613 1997 
L 2069 1856 
Q 2541 1709 2748 1489 
Q 2956 1269 2956 922 
Q 2956 450 2595 179 
Q 2234 -91 1600 -91 
Q 1278 -91 972 -22 
Q 666 47 359 184 
z
" transform="scale(0.015625)"/>
       <path id="DejaVuSerif-70" d="M 1313 1825 
L 1313 1497 
Q 1313 897 1542 583 
Q 1772 269 2209 269 
Q 2650 269 2876 622 
Q 3103 975 3103 1663 
Q 3103 2353 2876 2703 
Q 2650 3053 2209 3053 
Q 1772 3053 1542 2737 
Q 1313 2422 1313 1825 
z
M 738 2988 
L 184 2988 
L 184 3322 
L 1313 3322 
L 1313 2803 
Q 1481 3116 1742 3264 
Q 2003 3413 2388 3413 
Q 3000 3413 3387 2928 
Q 3775 2444 3775 1663 
Q 3775 881 3387 395 
Q 3000 -91 2388 -91 
Q 2003 -91 1742 57 
Q 1481 206 1313 519 
L 1313 -997 
L 1856 -997 
L 1856 -1331 
L 184 -1331 
L 184 -997 
L 738 -997 
L 738 2988 
z
" transform="scale(0.015625)"/>
       <path id="DejaVuSerif-63" d="M 3291 997 
Q 3169 466 2822 187 
Q 2475 -91 1925 -91 
Q 1200 -91 759 389 
Q 319 869 319 1663 
Q 319 2459 759 2936 
Q 1200 3413 1925 3413 
Q 2241 3413 2553 3339 
Q 2866 3266 3181 3116 
L 3181 2266 
L 2847 2266 
Q 2781 2703 2561 2903 
Q 2341 3103 1931 3103 
Q 1466 3103 1228 2742 
Q 991 2381 991 1663 
Q 991 944 1227 581 
Q 1463 219 1931 219 
Q 2303 219 2525 412 
Q 2747 606 2828 997 
L 3291 997 
z
" transform="scale(0.015625)"/>
       <path id="DejaVuSerif-6c" d="M 1313 331 
L 1856 331 
L 1856 0 
L 184 0 
L 184 331 
L 738 331 
L 738 4531 
L 184 4531 
L 184 4863 
L 1313 4863 
L 1313 331 
z
" transform="scale(0.015625)"/>
      </defs>
      <use xlink:href="#DejaVuSerif-4e"/>
      <use xlink:href="#DejaVuSerif-75" x="87.5"/>
      <use xlink:href="#DejaVuSerif-6d" x="151.904297"/>
      <use xlink:href="#DejaVuSerif-62" x="246.728516"/>
      <use xlink:href="#DejaVuSerif-65" x="310.742188"/>
      <use xlink:href="#DejaVuSerif-72" x="369.921875"/>
      <use xlink:href="#DejaVuSerif-20" x="417.724609"/>
      <use xlink:href="#DejaVuSerif-6f" x="449.511719"/>
      <use xlink:href="#DejaVuSerif-66" x="509.716797"/>
      <use xlink:href="#DejaVuSerif-20" x="546.728516"/>
      <use xlink:href="#DejaVuSerif-7a" x="578.515625"/>
      <use xlink:href="#DejaVuSerif-65" x="631.201172"/>
      <use xlink:href="#DejaVuSerif-72" x="690.380859"/>
      <use xlink:href="#DejaVuSerif-6f" x="738.183594"/>
      <use xlink:href="#DejaVuSerif-65" x="798.388672"/>
      <use xlink:href="#DejaVuSerif-73" x="857.568359"/>
      <use xlink:href="#DejaVuSerif-20" x="908.886719"/>
      <use xlink:href="#DejaVuSerif-70" x="940.673828"/>
      <use xlink:href="#DejaVuSerif-65" x="1004.6875"/>
      <use xlink:href="#DejaVuSerif-72" x="1063.867188"/>
      <use xlink:href="#DejaVuSerif-20" x="1111.669922"/>
      <use xlink:href="#DejaVuSerif-63" x="1143.457031"/>
      <use xlink:href="#DejaVuSerif-65" x="1199.462891"/>
      <use xlink:href="#DejaVuSerif-6c" x="1258.642578"/>
      <use xlink:href="#DejaVuSerif-6c" x="1290.625"/>
     </g>
    </g>
   </g>
   <g id="matplotlib.axis_2">
    <g id="ytick_1">
     <g id="line2d_6">
      <defs>
       <path id="m2196294094" d="M 0 0 
L -3.5 0 
" style="stroke: #000000; stroke-width: 0.8"/>
      </defs>
      <g>
       <use xlink:href="#m2196294094" x="66.53" y="303.109633" style="stroke: #000000; stroke-width: 0.8"/>
      </g>
     </g>
     <g id="text_7">
      <!-- 0.0000 -->
      <g transform="translate(24.539375 306.908852) scale(0.1 -0.1)">
       <defs>
        <path id="DejaVuSerif-2e" d="M 603 325 
Q 603 500 722 622 
Q 841 744 1019 744 
Q 1191 744 1312 622 
Q 1434 500 1434 325 
Q 1434 153 1312 31 
Q 1191 -91 1019 -91 
Q 841 -91 722 29 
Q 603 150 603 325 
z
" transform="scale(0.015625)"/>
       </defs>
       <use xlink:href="#DejaVuSerif-30"/>
       <use xlink:href="#DejaVuSerif-2e" x="63.623047"/>
       <use xlink:href="#DejaVuSerif-30" x="95.410156"/>
       <use xlink:href="#DejaVuSerif-30" x="159.033203"/>
       <use xlink:href="#DejaVuSerif-30" x="222.65625"/>
       <use xlink:href="#DejaVuSerif-30" x="286.279297"/>
      </g>
     </g>
    </g>
    <g id="ytick_2">
     <g id="line2d_7">
      <g>
       <use xlink:href="#m2196294094" x="66.53" y="264.02174" style="stroke: #000000; stroke-width: 0.8"/>
      </g>
     </g>
     <g id="text_8">
      <!-- 0.0001 -->
      <g transform="translate(24.539375 267.820959) scale(0.1 -0.1)">
       <defs>
        <path id="DejaVuSerif-31" d="M 909 0 
L 909 331 
L 1722 331 
L 1722 4213 
L 781 3603 
L 781 4013 
L 1919 4750 
L 2350 4750 
L 2350 331 
L 3163 331 
L 3163 0 
L 909 0 
z
" transform="scale(0.015625)"/>
       </defs>
       <use xlink:href="#DejaVuSerif-30"/>
       <use xlink:href="#DejaVuSerif-2e" x="63.623047"/>
       <use xlink:href="#DejaVuSerif-30" x="95.410156"/>
       <use xlink:href="#DejaVuSerif-30" x="159.033203"/>
       <use xlink:href="#DejaVuSerif-30" x="222.65625"/>
       <use xlink:href="#DejaVuSerif-31" x="286.279297"/>
      </g>
     </g>
    </g>
    <g id="ytick_3">
     <g id="line2d_8">
      <g>
       <use xlink:href="#m2196294094" x="66.53" y="224.933847" style="stroke: #000000; stroke-width: 0.8"/>
      </g>
     </g>
     <g id="text_9">
      <!-- 0.0002 -->
      <g transform="translate(24.539375 228.733066) scale(0.1 -0.1)">
       <defs>
        <path id="DejaVuSerif-32" d="M 819 3553 
L 469 3553 
L 469 4384 
Q 803 4563 1142 4656 
Q 1481 4750 1806 4750 
Q 2534 4750 2956 4397 
Q 3378 4044 3378 3438 
Q 3378 2753 2422 1800 
Q 2347 1728 2309 1691 
L 1131 513 
L 3078 513 
L 3078 1088 
L 3444 1088 
L 3444 0 
L 434 0 
L 434 341 
L 1850 1753 
Q 2319 2222 2519 2614 
Q 2719 3006 2719 3438 
Q 2719 3909 2473 4175 
Q 2228 4441 1797 4441 
Q 1350 4441 1106 4219 
Q 863 3997 819 3553 
z
" transform="scale(0.015625)"/>
       </defs>
       <use xlink:href="#DejaVuSerif-30"/>
       <use xlink:href="#DejaVuSerif-2e" x="63.623047"/>
       <use xlink:href="#DejaVuSerif-30" x="95.410156"/>
       <use xlink:href="#DejaVuSerif-30" x="159.033203"/>
       <use xlink:href="#DejaVuSerif-30" x="222.65625"/>
       <use xlink:href="#DejaVuSerif-32" x="286.279297"/>
      </g>
     </g>
    </g>
    <g id="ytick_4">
     <g id="line2d_9">
      <g>
       <use xlink:href="#m2196294094" x="66.53" y="185.845954" style="stroke: #000000; stroke-width: 0.8"/>
      </g>
     </g>
     <g id="text_10">
      <!-- 0.0003 -->
      <g transform="translate(24.539375 189.645173) scale(0.1 -0.1)">
       <defs>
        <path id="DejaVuSerif-33" d="M 622 4469 
Q 988 4606 1323 4678 
Q 1659 4750 1953 4750 
Q 2638 4750 3022 4454 
Q 3406 4159 3406 3634 
Q 3406 3213 3140 2930 
Q 2875 2647 2388 2547 
Q 2963 2466 3280 2130 
Q 3597 1794 3597 1259 
Q 3597 606 3158 257 
Q 2719 -91 1894 -91 
Q 1528 -91 1179 -12 
Q 831 66 488 225 
L 488 1131 
L 838 1131 
Q 869 681 1141 450 
Q 1413 219 1906 219 
Q 2384 219 2661 495 
Q 2938 772 2938 1253 
Q 2938 1803 2653 2086 
Q 2369 2369 1819 2369 
L 1522 2369 
L 1522 2688 
L 1678 2688 
Q 2225 2688 2498 2914 
Q 2772 3141 2772 3597 
Q 2772 4006 2547 4223 
Q 2322 4441 1900 4441 
Q 1478 4441 1245 4241 
Q 1013 4041 972 3647 
L 622 3647 
L 622 4469 
z
" transform="scale(0.015625)"/>
       </defs>
       <use xlink:href="#DejaVuSerif-30"/>
       <use xlink:href="#DejaVuSerif-2e" x="63.623047"/>
       <use xlink:href="#DejaVuSerif-30" x="95.410156"/>
       <use xlink:href="#DejaVuSerif-30" x="159.033203"/>
       <use xlink:href="#DejaVuSerif-30" x="222.65625"/>
       <use xlink:href="#DejaVuSerif-33" x="286.279297"/>
      </g>
     </g>
    </g>
    <g id="ytick_5">
     <g id="line2d_10">
      <g>
       <use xlink:href="#m2196294094" x="66.53" y="146.758061" style="stroke: #000000; stroke-width: 0.8"/>
      </g>
     </g>
     <g id="text_11">
      <!-- 0.0004 -->
      <g transform="translate(24.539375 150.55728) scale(0.1 -0.1)">
       <use xlink:href="#DejaVuSerif-30"/>
       <use xlink:href="#DejaVuSerif-2e" x="63.623047"/>
       <use xlink:href="#DejaVuSerif-30" x="95.410156"/>
       <use xlink:href="#DejaVuSerif-30" x="159.033203"/>
       <use xlink:href="#DejaVuSerif-30" x="222.65625"/>
       <use xlink:href="#DejaVuSerif-34" x="286.279297"/>
      </g>
     </g>
    </g>
    <g id="ytick_6">
     <g id="line2d_11">
      <g>
       <use xlink:href="#m2196294094" x="66.53" y="107.670168" style="stroke: #000000; stroke-width: 0.8"/>
      </g>
     </g>
     <g id="text_12">
      <!-- 0.0005 -->
      <g transform="translate(24.539375 111.469387) scale(0.1 -0.1)">
       <use xlink:href="#DejaVuSerif-30"/>
       <use xlink:href="#DejaVuSerif-2e" x="63.623047"/>
       <use xlink:href="#DejaVuSerif-30" x="95.410156"/>
       <use xlink:href="#DejaVuSerif-30" x="159.033203"/>
       <use xlink:href="#DejaVuSerif-30" x="222.65625"/>
       <use xlink:href="#DejaVuSerif-35" x="286.279297"/>
      </g>
     </g>
    </g>
    <g id="ytick_7">
     <g id="line2d_12">
      <g>
       <use xlink:href="#m2196294094" x="66.53" y="68.582276" style="stroke: #000000; stroke-width: 0.8"/>
      </g>
     </g>
     <g id="text_13">
      <!-- 0.0006 -->
      <g transform="translate(24.539375 72.381494) scale(0.1 -0.1)">
       <use xlink:href="#DejaVuSerif-30"/>
       <use xlink:href="#DejaVuSerif-2e" x="63.623047"/>
       <use xlink:href="#DejaVuSerif-30" x="95.410156"/>
       <use xlink:href="#DejaVuSerif-30" x="159.033203"/>
       <use xlink:href="#DejaVuSerif-30" x="222.65625"/>
       <use xlink:href="#DejaVuSerif-36" x="286.279297"/>
      </g>
     </g>
    </g>
    <g id="ytick_8">
     <g id="line2d_13">
      <g>
       <use xlink:href="#m2196294094" x="66.53" y="29.494383" style="stroke: #000000; stroke-width: 0.8"/>
      </g>
     </g>
     <g id="text_14">
      <!-- 0.0007 -->
      <g transform="translate(24.539375 33.293601) scale(0.1 -0.1)">
       <use xlink:href="#DejaVuSerif-30"/>
       <use xlink:href="#DejaVuSerif-2e" x="63.623047"/>
       <use xlink:href="#DejaVuSerif-30" x="95.410156"/>
       <use xlink:href="#DejaVuSerif-30" x="159.033203"/>
       <use xlink:href="#DejaVuSerif-30" x="222.65625"/>
       <use xlink:href="#DejaVuSerif-37" x="286.279297"/>
      </g>
     </g>
    </g>
    <g id="text_15">
     <!-- Frequency -->
     <g transform="translate(18.3175 191.679348) rotate(-90) scale(0.1 -0.1)">
      <defs>
       <path id="DejaVuSerif-46" d="M 353 0 
L 353 331 
L 947 331 
L 947 4331 
L 353 4331 
L 353 4666 
L 4172 4666 
L 4172 3628 
L 3788 3628 
L 3788 4281 
L 1581 4281 
L 1581 2719 
L 3175 2719 
L 3175 3303 
L 3559 3303 
L 3559 1753 
L 3175 1753 
L 3175 2338 
L 1581 2338 
L 1581 331 
L 2328 331 
L 2328 0 
L 353 0 
z
" transform="scale(0.015625)"/>
       <path id="DejaVuSerif-71" d="M 3359 2988 
L 3359 -997 
L 3909 -997 
L 3909 -1331 
L 2241 -1331 
L 2241 -997 
L 2784 -997 
L 2784 519 
Q 2616 206 2355 57 
Q 2094 -91 1709 -91 
Q 1097 -91 708 395 
Q 319 881 319 1663 
Q 319 2444 706 2928 
Q 1094 3413 1709 3413 
Q 2094 3413 2355 3264 
Q 2616 3116 2784 2803 
L 2784 3322 
L 3909 3322 
L 3909 2988 
L 3359 2988 
z
M 2784 1825 
Q 2784 2422 2554 2737 
Q 2325 3053 1888 3053 
Q 1444 3053 1217 2703 
Q 991 2353 991 1663 
Q 991 975 1217 622 
Q 1444 269 1888 269 
Q 2325 269 2554 583 
Q 2784 897 2784 1497 
L 2784 1825 
z
" transform="scale(0.015625)"/>
       <path id="DejaVuSerif-6e" d="M 263 0 
L 263 331 
L 781 331 
L 781 2988 
L 231 2988 
L 231 3322 
L 1356 3322 
L 1356 2731 
Q 1516 3069 1770 3241 
Q 2025 3413 2363 3413 
Q 2913 3413 3172 3097 
Q 3431 2781 3431 2113 
L 3431 331 
L 3944 331 
L 3944 0 
L 2356 0 
L 2356 331 
L 2853 331 
L 2853 1931 
Q 2853 2541 2703 2767 
Q 2553 2994 2175 2994 
Q 1775 2994 1565 2701 
Q 1356 2409 1356 1850 
L 1356 331 
L 1856 331 
L 1856 0 
L 263 0 
z
" transform="scale(0.015625)"/>
       <path id="DejaVuSerif-79" d="M 1381 -609 
L 1600 -56 
L 359 2988 
L -19 2988 
L -19 3322 
L 1509 3322 
L 1509 2988 
L 978 2988 
L 1913 703 
L 2847 2988 
L 2350 2988 
L 2350 3322 
L 3597 3322 
L 3597 2988 
L 3225 2988 
L 1703 -750 
Q 1547 -1138 1356 -1280 
Q 1166 -1422 819 -1422 
Q 672 -1422 517 -1397 
Q 363 -1372 206 -1325 
L 206 -691 
L 500 -691 
Q 519 -903 608 -995 
Q 697 -1088 884 -1088 
Q 1056 -1088 1161 -992 
Q 1266 -897 1381 -609 
z
" transform="scale(0.015625)"/>
      </defs>
      <use xlink:href="#DejaVuSerif-46"/>
      <use xlink:href="#DejaVuSerif-72" x="69.384766"/>
      <use xlink:href="#DejaVuSerif-65" x="117.1875"/>
      <use xlink:href="#DejaVuSerif-71" x="176.367188"/>
      <use xlink:href="#DejaVuSerif-75" x="240.380859"/>
      <use xlink:href="#DejaVuSerif-65" x="304.785156"/>
      <use xlink:href="#DejaVuSerif-6e" x="363.964844"/>
      <use xlink:href="#DejaVuSerif-63" x="428.369141"/>
      <use xlink:href="#DejaVuSerif-79" x="484.375"/>
     </g>
    </g>
   </g>
   <g id="patch_3">
    <path d="M 66.53 303.109633 
L 66.53 26.16 
" style="fill: none; stroke: #000000; stroke-width: 0.8; stroke-linejoin: miter; stroke-linecap: square"/>
   </g>
   <g id="patch_4">
    <path d="M 349.2 303.109633 
L 349.2 26.16 
" style="fill: none; stroke: #000000; stroke-width: 0.8; stroke-linejoin: miter; stroke-linecap: square"/>
   </g>
   <g id="patch_5">
    <path d="M 66.53 303.109633 
L 349.2 303.109633 
" style="fill: none; stroke: #000000; stroke-width: 0.8; stroke-linejoin: miter; stroke-linecap: square"/>
   </g>
   <g id="patch_6">
    <path d="M 66.53 26.16 
L 349.2 26.16 
" style="fill: none; stroke: #000000; stroke-width: 0.8; stroke-linejoin: miter; stroke-linecap: square"/>
   </g>
   <g id="text_16">
    <!-- PBMC3K -->
    <g transform="translate(180.385 20.16) scale(0.12 -0.12)">
     <defs>
      <path id="DejaVuSerif-50" d="M 1581 2375 
L 2406 2375 
Q 2872 2375 3115 2626 
Q 3359 2878 3359 3353 
Q 3359 3831 3115 4081 
Q 2872 4331 2406 4331 
L 1581 4331 
L 1581 2375 
z
M 353 0 
L 353 331 
L 947 331 
L 947 4331 
L 353 4331 
L 353 4666 
L 2559 4666 
Q 3259 4666 3668 4311 
Q 4078 3956 4078 3353 
Q 4078 2753 3668 2397 
Q 3259 2041 2559 2041 
L 1581 2041 
L 1581 331 
L 2303 331 
L 2303 0 
L 353 0 
z
" transform="scale(0.015625)"/>
      <path id="DejaVuSerif-42" d="M 1581 331 
L 2516 331 
Q 3078 331 3337 575 
Q 3597 819 3597 1350 
Q 3597 1878 3339 2120 
Q 3081 2363 2516 2363 
L 1581 2363 
L 1581 331 
z
M 1581 2694 
L 2375 2694 
Q 2888 2694 3123 2891 
Q 3359 3088 3359 3513 
Q 3359 3941 3123 4136 
Q 2888 4331 2375 4331 
L 1581 4331 
L 1581 2694 
z
M 353 0 
L 353 331 
L 947 331 
L 947 4331 
L 353 4331 
L 353 4666 
L 2656 4666 
Q 3363 4666 3720 4377 
Q 4078 4088 4078 3513 
Q 4078 3097 3829 2850 
Q 3581 2603 3103 2547 
Q 3697 2472 4005 2167 
Q 4313 1863 4313 1350 
Q 4313 656 3875 328 
Q 3438 0 2509 0 
L 353 0 
z
" transform="scale(0.015625)"/>
      <path id="DejaVuSerif-4d" d="M 353 0 
L 353 331 
L 947 331 
L 947 4331 
L 319 4331 
L 319 4666 
L 1678 4666 
L 3316 1344 
L 4953 4666 
L 6228 4666 
L 6228 4331 
L 5606 4331 
L 5606 331 
L 6203 331 
L 6203 0 
L 4378 0 
L 4378 331 
L 4972 331 
L 4972 3938 
L 3372 684 
L 2931 684 
L 1331 3938 
L 1331 331 
L 1925 331 
L 1925 0 
L 353 0 
z
" transform="scale(0.015625)"/>
      <path id="DejaVuSerif-43" d="M 4513 1234 
Q 4306 581 3820 245 
Q 3334 -91 2591 -91 
Q 2134 -91 1743 65 
Q 1353 222 1050 525 
Q 700 875 529 1320 
Q 359 1766 359 2328 
Q 359 3416 987 4083 
Q 1616 4750 2644 4750 
Q 3025 4750 3456 4650 
Q 3888 4550 4384 4347 
L 4384 3272 
L 4031 3272 
Q 3916 3859 3567 4137 
Q 3219 4416 2591 4416 
Q 1844 4416 1459 3886 
Q 1075 3356 1075 2328 
Q 1075 1303 1459 773 
Q 1844 244 2591 244 
Q 3113 244 3450 492 
Q 3788 741 3938 1234 
L 4513 1234 
z
" transform="scale(0.015625)"/>
      <path id="DejaVuSerif-4b" d="M 353 0 
L 353 331 
L 947 331 
L 947 4331 
L 353 4331 
L 353 4666 
L 2175 4666 
L 2175 4331 
L 1581 4331 
L 1581 2566 
L 3591 4331 
L 3084 4331 
L 3084 4666 
L 4634 4666 
L 4634 4331 
L 4109 4331 
L 2106 2572 
L 4347 331 
L 4878 331 
L 4878 0 
L 3794 0 
L 1581 2216 
L 1581 331 
L 2175 331 
L 2175 0 
L 353 0 
z
" transform="scale(0.015625)"/>
     </defs>
     <use xlink:href="#DejaVuSerif-50"/>
     <use xlink:href="#DejaVuSerif-42" x="67.285156"/>
     <use xlink:href="#DejaVuSerif-4d" x="140.771484"/>
     <use xlink:href="#DejaVuSerif-43" x="243.164062"/>
     <use xlink:href="#DejaVuSerif-33" x="319.677734"/>
     <use xlink:href="#DejaVuSerif-4b" x="383.300781"/>
    </g>
   </g>
  </g>
 </g>
 <defs>
  <clipPath id="p96188eb70b">
   <rect x="66.53" y="26.16" width="282.67" height="276.949633"/>
  </clipPath>
 </defs>
</svg>
