<?xml version="1.0" encoding="utf-8" standalone="no"?>
<!DOCTYPE svg PUBLIC "-//W3C//DTD SVG 1.1//EN"
  "http://www.w3.org/Graphics/SVG/1.1/DTD/svg11.dtd">
<svg xmlns:xlink="http://www.w3.org/1999/xlink" width="360pt" height="360pt" viewBox="0 0 360 360" xmlns="http://www.w3.org/2000/svg" version="1.1">
 <metadata>
  <rdf:RDF xmlns:dc="http://purl.org/dc/elements/1.1/" xmlns:cc="http://creativecommons.org/ns#" xmlns:rdf="http://www.w3.org/1999/02/22-rdf-syntax-ns#">
   <cc:Work>
    <dc:type rdf:resource="http://purl.org/dc/dcmitype/StillImage"/>
    <dc:date>2024-11-19T12:35:28.160883</dc:date>
    <dc:format>image/svg+xml</dc:format>
    <dc:creator>
     <cc:Agent>
      <dc:title>Matplotlib v3.8.1, https://matplotlib.org/</dc:title>
     </cc:Agent>
    </dc:creator>
   </cc:Work>
  </rdf:RDF>
 </metadata>
 <defs>
  <style type="text/css">*{stroke-linejoin: round; stroke-linecap: butt}</style>
 </defs>
 <g id="figure_1">
  <g id="patch_1">
   <path d="M 0 360 
L 360 360 
L 360 0 
L 0 0 
z
" style="fill: #ffffff"/>
  </g>
  <g id="axes_1">
   <g id="patch_2">
    <path d="M 72.83 298.591221 
L 334.46743 298.591221 
L 334.46743 26.16 
L 72.83 26.16 
z
" style="fill: #ffffff"/>
   </g>
   <g id="PolyCollection_1">
    <path d="M -92.279967 298.590592 
L -92.279967 298.591221 
L -90.188672 298.591221 
L -88.097376 298.591221 
L -86.00608 298.591221 
L -83.914785 298.591221 
L -81.823489 298.591221 
L -79.732193 298.591221 
L -77.640898 298.591221 
L -75.549602 298.591221 
L -73.458307 298.591221 
L -71.367011 298.591221 
L -69.275715 298.591221 
L -67.18442 298.591221 
L -65.093124 298.591221 
L -63.001828 298.591221 
L -60.910533 298.591221 
L -58.819237 298.591221 
L -56.727942 298.591221 
L -54.636646 298.591221 
L -52.54535 298.591221 
L -50.454055 298.591221 
L -48.362759 298.591221 
L -46.271463 298.591221 
L -44.180168 298.591221 
L -42.088872 298.591221 
L -39.997577 298.591221 
L -37.906281 298.591221 
L -35.814985 298.591221 
L -33.72369 298.591221 
L -31.632394 298.591221 
L -29.541098 298.591221 
L -27.449803 298.591221 
L -25.358507 298.591221 
L -23.267211 298.591221 
L -21.175916 298.591221 
L -19.08462 298.591221 
L -16.993325 298.591221 
L -14.902029 298.591221 
L -12.810733 298.591221 
L -10.719438 298.591221 
L -8.628142 298.591221 
L -6.536846 298.591221 
L -4.445551 298.591221 
L -2.354255 298.591221 
L -0.26296 298.591221 
L 1.828336 298.591221 
L 3.919632 298.591221 
L 6.010927 298.591221 
L 8.102223 298.591221 
L 10.193519 298.591221 
L 12.284814 298.591221 
L 14.37611 298.591221 
L 16.467405 298.591221 
L 18.558701 298.591221 
L 20.649997 298.591221 
L 22.741292 298.591221 
L 24.832588 298.591221 
L 26.923884 298.591221 
L 29.015179 298.591221 
L 31.106475 298.591221 
L 33.197771 298.591221 
L 35.289066 298.591221 
L 37.380362 298.591221 
L 39.471657 298.591221 
L 41.562953 298.591221 
L 43.654249 298.591221 
L 45.745544 298.591221 
L 47.83684 298.591221 
L 49.928136 298.591221 
L 52.019431 298.591221 
L 54.110727 298.591221 
L 56.202022 298.591221 
L 58.293318 298.591221 
L 60.384614 298.591221 
L 62.475909 298.591221 
L 64.567205 298.591221 
L 66.658501 298.591221 
L 68.749796 298.591221 
L 70.841092 298.591221 
L 72.932387 298.591221 
L 75.023683 298.591221 
L 77.114979 298.591221 
L 79.206274 298.591221 
L 81.29757 298.591221 
L 83.388866 298.591221 
L 85.480161 298.591221 
L 87.571457 298.591221 
L 89.662753 298.591221 
L 91.754048 298.591221 
L 93.845344 298.591221 
L 95.936639 298.591221 
L 98.027935 298.591221 
L 100.119231 298.591221 
L 102.210526 298.591221 
L 104.301822 298.591221 
L 106.393118 298.591221 
L 108.484413 298.591221 
L 110.575709 298.591221 
L 112.667004 298.591221 
L 114.7583 298.591221 
L 116.849596 298.591221 
L 118.940891 298.591221 
L 121.032187 298.591221 
L 123.123483 298.591221 
L 125.214778 298.591221 
L 127.306074 298.591221 
L 129.39737 298.591221 
L 131.488665 298.591221 
L 133.579961 298.591221 
L 135.671256 298.591221 
L 137.762552 298.591221 
L 139.853848 298.591221 
L 141.945143 298.591221 
L 144.036439 298.591221 
L 146.127735 298.591221 
L 148.21903 298.591221 
L 150.310326 298.591221 
L 152.401621 298.591221 
L 154.492917 298.591221 
L 156.584213 298.591221 
L 158.675508 298.591221 
L 160.766804 298.591221 
L 162.8581 298.591221 
L 164.949395 298.591221 
L 167.040691 298.591221 
L 169.131986 298.591221 
L 171.223282 298.591221 
L 173.314578 298.591221 
L 175.405873 298.591221 
L 177.497169 298.591221 
L 179.588465 298.591221 
L 181.67976 298.591221 
L 183.771056 298.591221 
L 185.862352 298.591221 
L 187.953647 298.591221 
L 190.044943 298.591221 
L 192.136238 298.591221 
L 194.227534 298.591221 
L 196.31883 298.591221 
L 198.410125 298.591221 
L 200.501421 298.591221 
L 202.592717 298.591221 
L 204.684012 298.591221 
L 206.775308 298.591221 
L 208.866603 298.591221 
L 210.957899 298.591221 
L 213.049195 298.591221 
L 215.14049 298.591221 
L 217.231786 298.591221 
L 219.323082 298.591221 
L 221.414377 298.591221 
L 223.505673 298.591221 
L 225.596968 298.591221 
L 227.688264 298.591221 
L 229.77956 298.591221 
L 231.870855 298.591221 
L 233.962151 298.591221 
L 236.053447 298.591221 
L 238.144742 298.591221 
L 240.236038 298.591221 
L 242.327334 298.591221 
L 244.418629 298.591221 
L 246.509925 298.591221 
L 248.60122 298.591221 
L 250.692516 298.591221 
L 252.783812 298.591221 
L 254.875107 298.591221 
L 256.966403 298.591221 
L 259.057699 298.591221 
L 261.148994 298.591221 
L 263.24029 298.591221 
L 265.331585 298.591221 
L 267.422881 298.591221 
L 269.514177 298.591221 
L 271.605472 298.591221 
L 273.696768 298.591221 
L 275.788064 298.591221 
L 277.879359 298.591221 
L 279.970655 298.591221 
L 282.06195 298.591221 
L 284.153246 298.591221 
L 286.244542 298.591221 
L 288.335837 298.591221 
L 290.427133 298.591221 
L 292.518429 298.591221 
L 294.609724 298.591221 
L 296.70102 298.591221 
L 298.792316 298.591221 
L 300.883611 298.591221 
L 302.974907 298.591221 
L 305.066202 298.591221 
L 307.157498 298.591221 
L 309.248794 298.591221 
L 311.340089 298.591221 
L 313.431385 298.591221 
L 315.522681 298.591221 
L 317.613976 298.591221 
L 319.705272 298.591221 
L 321.796567 298.591221 
L 323.887863 298.591221 
L 323.887863 298.589573 
L 323.887863 298.589573 
L 321.796567 298.58535 
L 319.705272 298.572678 
L 317.613976 298.538475 
L 315.522681 298.453526 
L 313.431385 298.254882 
L 311.340089 297.811124 
L 309.248794 296.863488 
L 307.157498 294.950283 
L 305.066202 291.352298 
L 302.974907 285.124708 
L 300.883611 275.267717 
L 298.792316 261.012393 
L 296.70102 242.104115 
L 294.609724 218.951234 
L 292.518429 192.60874 
L 290.427133 164.675391 
L 288.335837 137.153752 
L 286.244542 112.20053 
L 284.153246 91.69383 
L 282.06195 76.7403 
L 279.970655 67.420723 
L 277.879359 62.977455 
L 275.788064 62.325755 
L 273.696768 64.530324 
L 271.605472 68.967298 
L 269.514177 75.203234 
L 267.422881 82.838162 
L 265.331585 91.480292 
L 263.24029 100.803831 
L 261.148994 110.57157 
L 259.057699 120.607749 
L 256.966403 130.781246 
L 254.875107 141.010998 
L 252.783812 151.247873 
L 250.692516 161.414388 
L 248.60122 171.345173 
L 246.509925 180.78419 
L 244.418629 189.452309 
L 242.327334 197.147538 
L 240.236038 203.820303 
L 238.144742 209.584174 
L 236.053447 214.658123 
L 233.962151 219.268959 
L 231.870855 223.562833 
L 229.77956 227.574883 
L 227.688264 231.278748 
L 225.596968 234.6876 
L 223.505673 237.931746 
L 221.414377 241.236499 
L 219.323082 244.79378 
L 217.231786 248.620977 
L 215.14049 252.530385 
L 213.049195 256.240732 
L 210.957899 259.532986 
L 208.866603 262.325104 
L 206.775308 264.640419 
L 204.684012 266.549564 
L 202.592717 268.158251 
L 200.501421 269.622903 
L 198.410125 271.129595 
L 196.31883 272.820732 
L 194.227534 274.722604 
L 192.136238 276.730422 
L 190.044943 278.656165 
L 187.953647 280.304089 
L 185.862352 281.539095 
L 183.771056 282.331462 
L 181.67976 282.768768 
L 179.588465 283.024709 
L 177.497169 283.287371 
L 175.405873 283.679905 
L 173.314578 284.22331 
L 171.223282 284.864872 
L 169.131986 285.543033 
L 167.040691 286.232128 
L 164.949395 286.936281 
L 162.8581 287.651191 
L 160.766804 288.33709 
L 158.675508 288.930318 
L 156.584213 289.384875 
L 154.492917 289.707827 
L 152.401621 289.956887 
L 150.310326 290.204027 
L 148.21903 290.498716 
L 146.127735 290.854552 
L 144.036439 291.252931 
L 141.945143 291.650869 
L 139.853848 291.997074 
L 137.762552 292.26189 
L 135.671256 292.463697 
L 133.579961 292.663092 
L 131.488665 292.920905 
L 129.39737 293.251714 
L 127.306074 293.611132 
L 125.214778 293.926938 
L 123.123483 294.148802 
L 121.032187 294.278143 
L 118.940891 294.357037 
L 116.849596 294.429199 
L 114.7583 294.508866 
L 112.667004 294.583886 
L 110.575709 294.645769 
L 108.484413 294.713867 
L 106.393118 294.827692 
L 104.301822 295.014375 
L 102.210526 295.264416 
L 100.119231 295.539629 
L 98.027935 295.802119 
L 95.936639 296.033533 
L 93.845344 296.230699 
L 91.754048 296.391896 
L 89.662753 296.513021 
L 87.571457 296.595508 
L 85.480161 296.653531 
L 83.388866 296.710752 
L 81.29757 296.788425 
L 79.206274 296.893485 
L 77.114979 297.014421 
L 75.023683 297.128534 
L 72.932387 297.217968 
L 70.841092 297.284209 
L 68.749796 297.348574 
L 66.658501 297.436576 
L 64.567205 297.558874 
L 62.475909 297.704315 
L 60.384614 297.848246 
L 58.293318 297.966743 
L 56.202022 298.046874 
L 54.110727 298.090187 
L 52.019431 298.110754 
L 49.928136 298.128337 
L 47.83684 298.157793 
L 45.745544 298.200321 
L 43.654249 298.243997 
L 41.562953 298.274156 
L 39.471657 298.284554 
L 37.380362 298.279914 
L 35.289066 298.270324 
L 33.197771 298.265439 
L 31.106475 298.273019 
L 29.015179 298.298812 
L 26.923884 298.344101 
L 24.832588 298.402886 
L 22.741292 298.4632 
L 20.649997 298.512723 
L 18.558701 298.544159 
L 16.467405 298.556745 
L 14.37611 298.554538 
L 12.284814 298.543958 
L 10.193519 298.531604 
L 8.102223 298.522113 
L 6.010927 298.516689 
L 3.919632 298.513705 
L 1.828336 298.511115 
L -0.26296 298.508331 
L -2.354255 298.505935 
L -4.445551 298.504312 
L -6.536846 298.503079 
L -8.628142 298.501295 
L -10.719438 298.497546 
L -12.810733 298.490428 
L -14.902029 298.480394 
L -16.993325 298.471558 
L -19.08462 298.470479 
L -21.175916 298.481722 
L -23.267211 298.504063 
L -25.358507 298.531097 
L -27.449803 298.555505 
L -29.541098 298.573007 
L -31.632394 298.583261 
L -33.72369 298.588242 
L -35.814985 298.590267 
L -37.906281 298.59096 
L -39.997577 298.59116 
L -42.088872 298.591209 
L -44.180168 298.591219 
L -46.271463 298.591221 
L -48.362759 298.591221 
L -50.454055 298.591221 
L -52.54535 298.591219 
L -54.636646 298.591213 
L -56.727942 298.591182 
L -58.819237 298.591054 
L -60.910533 298.590617 
L -63.001828 298.589357 
L -65.093124 298.586319 
L -67.18442 298.580243 
L -69.275715 298.570285 
L -71.367011 298.557222 
L -73.458307 298.544205 
L -75.549602 298.535859 
L -77.640898 298.535709 
L -79.732193 298.543823 
L -81.823489 298.55676 
L -83.914785 298.569885 
L -86.00608 298.579973 
L -88.097376 298.586171 
L -90.188672 298.58929 
L -92.279967 298.590592 
z
" clip-path="url(#p045ac9ca9d)" style="fill: #029e73; fill-opacity: 0.2; stroke: #029e73; stroke-width: 2"/>
   </g>
   <g id="PolyCollection_2">
    <path d="M -37.103006 298.59049 
L -37.103006 298.591221 
L -35.279635 298.591221 
L -33.456264 298.591221 
L -31.632892 298.591221 
L -29.809521 298.591221 
L -27.98615 298.591221 
L -26.162779 298.591221 
L -24.339408 298.591221 
L -22.516036 298.591221 
L -20.692665 298.591221 
L -18.869294 298.591221 
L -17.045923 298.591221 
L -15.222552 298.591221 
L -13.39918 298.591221 
L -11.575809 298.591221 
L -9.752438 298.591221 
L -7.929067 298.591221 
L -6.105696 298.591221 
L -4.282324 298.591221 
L -2.458953 298.591221 
L -0.635582 298.591221 
L 1.187789 298.591221 
L 3.01116 298.591221 
L 4.834532 298.591221 
L 6.657903 298.591221 
L 8.481274 298.591221 
L 10.304645 298.591221 
L 12.128016 298.591221 
L 13.951387 298.591221 
L 15.774759 298.591221 
L 17.59813 298.591221 
L 19.421501 298.591221 
L 21.244872 298.591221 
L 23.068243 298.591221 
L 24.891615 298.591221 
L 26.714986 298.591221 
L 28.538357 298.591221 
L 30.361728 298.591221 
L 32.185099 298.591221 
L 34.008471 298.591221 
L 35.831842 298.591221 
L 37.655213 298.591221 
L 39.478584 298.591221 
L 41.301955 298.591221 
L 43.125327 298.591221 
L 44.948698 298.591221 
L 46.772069 298.591221 
L 48.59544 298.591221 
L 50.418811 298.591221 
L 52.242183 298.591221 
L 54.065554 298.591221 
L 55.888925 298.591221 
L 57.712296 298.591221 
L 59.535667 298.591221 
L 61.359039 298.591221 
L 63.18241 298.591221 
L 65.005781 298.591221 
L 66.829152 298.591221 
L 68.652523 298.591221 
L 70.475894 298.591221 
L 72.299266 298.591221 
L 74.122637 298.591221 
L 75.946008 298.591221 
L 77.769379 298.591221 
L 79.59275 298.591221 
L 81.416122 298.591221 
L 83.239493 298.591221 
L 85.062864 298.591221 
L 86.886235 298.591221 
L 88.709606 298.591221 
L 90.532978 298.591221 
L 92.356349 298.591221 
L 94.17972 298.591221 
L 96.003091 298.591221 
L 97.826462 298.591221 
L 99.649834 298.591221 
L 101.473205 298.591221 
L 103.296576 298.591221 
L 105.119947 298.591221 
L 106.943318 298.591221 
L 108.76669 298.591221 
L 110.590061 298.591221 
L 112.413432 298.591221 
L 114.236803 298.591221 
L 116.060174 298.591221 
L 117.883546 298.591221 
L 119.706917 298.591221 
L 121.530288 298.591221 
L 123.353659 298.591221 
L 125.17703 298.591221 
L 127.000401 298.591221 
L 128.823773 298.591221 
L 130.647144 298.591221 
L 132.470515 298.591221 
L 134.293886 298.591221 
L 136.117257 298.591221 
L 137.940629 298.591221 
L 139.764 298.591221 
L 141.587371 298.591221 
L 143.410742 298.591221 
L 145.234113 298.591221 
L 147.057485 298.591221 
L 148.880856 298.591221 
L 150.704227 298.591221 
L 152.527598 298.591221 
L 154.350969 298.591221 
L 156.174341 298.591221 
L 157.997712 298.591221 
L 159.821083 298.591221 
L 161.644454 298.591221 
L 163.467825 298.591221 
L 165.291197 298.591221 
L 167.114568 298.591221 
L 168.937939 298.591221 
L 170.76131 298.591221 
L 172.584681 298.591221 
L 174.408052 298.591221 
L 176.231424 298.591221 
L 178.054795 298.591221 
L 179.878166 298.591221 
L 181.701537 298.591221 
L 183.524908 298.591221 
L 185.34828 298.591221 
L 187.171651 298.591221 
L 188.995022 298.591221 
L 190.818393 298.591221 
L 192.641764 298.591221 
L 194.465136 298.591221 
L 196.288507 298.591221 
L 198.111878 298.591221 
L 199.935249 298.591221 
L 201.75862 298.591221 
L 203.581992 298.591221 
L 205.405363 298.591221 
L 207.228734 298.591221 
L 209.052105 298.591221 
L 210.875476 298.591221 
L 212.698848 298.591221 
L 214.522219 298.591221 
L 216.34559 298.591221 
L 218.168961 298.591221 
L 219.992332 298.591221 
L 221.815704 298.591221 
L 223.639075 298.591221 
L 225.462446 298.591221 
L 227.285817 298.591221 
L 229.109188 298.591221 
L 230.932559 298.591221 
L 232.755931 298.591221 
L 234.579302 298.591221 
L 236.402673 298.591221 
L 238.226044 298.591221 
L 240.049415 298.591221 
L 241.872787 298.591221 
L 243.696158 298.591221 
L 245.519529 298.591221 
L 247.3429 298.591221 
L 249.166271 298.591221 
L 250.989643 298.591221 
L 252.813014 298.591221 
L 254.636385 298.591221 
L 256.459756 298.591221 
L 258.283127 298.591221 
L 260.106499 298.591221 
L 261.92987 298.591221 
L 263.753241 298.591221 
L 265.576612 298.591221 
L 267.399983 298.591221 
L 269.223355 298.591221 
L 271.046726 298.591221 
L 272.870097 298.591221 
L 274.693468 298.591221 
L 276.516839 298.591221 
L 278.340211 298.591221 
L 280.163582 298.591221 
L 281.986953 298.591221 
L 283.810324 298.591221 
L 285.633695 298.591221 
L 287.457066 298.591221 
L 289.280438 298.591221 
L 291.103809 298.591221 
L 292.92718 298.591221 
L 294.750551 298.591221 
L 296.573922 298.591221 
L 298.397294 298.591221 
L 300.220665 298.591221 
L 302.044036 298.591221 
L 303.867407 298.591221 
L 305.690778 298.591221 
L 307.51415 298.591221 
L 309.337521 298.591221 
L 311.160892 298.591221 
L 312.984263 298.591221 
L 314.807634 298.591221 
L 316.631006 298.591221 
L 318.454377 298.591221 
L 320.277748 298.591221 
L 322.101119 298.591221 
L 323.92449 298.591221 
L 325.747862 298.591221 
L 325.747862 298.589219 
L 325.747862 298.589219 
L 323.92449 298.583769 
L 322.101119 298.566517 
L 320.277748 298.517584 
L 318.454377 298.392384 
L 316.631006 298.102632 
L 314.807634 297.496502 
L 312.984263 296.352351 
L 311.160892 294.402249 
L 309.337521 291.383489 
L 307.51415 287.084898 
L 305.690778 281.345916 
L 303.867407 274.005542 
L 302.044036 264.854422 
L 300.220665 253.654866 
L 298.397294 240.243239 
L 296.573922 224.66196 
L 294.750551 207.241084 
L 292.92718 188.585918 
L 291.103809 169.497022 
L 289.280438 150.875355 
L 287.457066 133.611909 
L 285.633695 118.417666 
L 283.810324 105.624304 
L 281.986953 95.103751 
L 280.163582 86.421153 
L 278.340211 79.14357 
L 276.516839 73.100887 
L 274.693468 68.465592 
L 272.870097 65.65838 
L 271.046726 65.153869 
L 269.223355 67.266048 
L 267.399983 71.982916 
L 265.576612 78.899115 
L 263.753241 87.27854 
L 261.92987 96.258167 
L 260.106499 105.133448 
L 258.283127 113.578087 
L 256.459756 121.66197 
L 254.636385 129.662401 
L 252.813014 137.806304 
L 250.989643 146.123269 
L 249.166271 154.489863 
L 247.3429 162.770529 
L 245.519529 170.884952 
L 243.696158 178.753848 
L 241.872787 186.24048 
L 240.049415 193.1973 
L 238.226044 199.574005 
L 236.402673 205.460271 
L 234.579302 211.0132 
L 232.755931 216.338531 
L 230.932559 221.431512 
L 229.109188 226.230196 
L 227.285817 230.735496 
L 225.462446 235.072067 
L 223.639075 239.397647 
L 221.815704 243.731002 
L 219.992332 247.888401 
L 218.168961 251.620254 
L 216.34559 254.8195 
L 214.522219 257.601783 
L 212.698848 260.207815 
L 210.875476 262.845233 
L 209.052105 265.595191 
L 207.228734 268.41156 
L 205.405363 271.172146 
L 203.581992 273.736092 
L 201.75862 275.981648 
L 199.935249 277.82139 
L 198.111878 279.210001 
L 196.288507 280.158518 
L 194.465136 280.749278 
L 192.641764 281.132514 
L 190.818393 281.494238 
L 188.995022 282.002768 
L 187.171651 282.753757 
L 185.34828 283.739138 
L 183.524908 284.857479 
L 181.701537 285.959612 
L 179.878166 286.905698 
L 178.054795 287.615247 
L 176.231424 288.099401 
L 174.408052 288.456378 
L 172.584681 288.813534 
L 170.76131 289.241658 
L 168.937939 289.70993 
L 167.114568 290.126073 
L 165.291197 290.424523 
L 163.467825 290.618425 
L 161.644454 290.776033 
L 159.821083 290.962818 
L 157.997712 291.211432 
L 156.174341 291.529873 
L 154.350969 291.911908 
L 152.527598 292.329828 
L 150.704227 292.730913 
L 148.880856 293.060643 
L 147.057485 293.300058 
L 145.234113 293.483604 
L 143.410742 293.67914 
L 141.587371 293.942066 
L 139.764 294.276584 
L 137.940629 294.635289 
L 136.117257 294.959059 
L 134.293886 295.222569 
L 132.470515 295.444762 
L 130.647144 295.658668 
L 128.823773 295.873923 
L 127.000401 296.067516 
L 125.17703 296.207304 
L 123.353659 296.284321 
L 121.530288 296.327105 
L 119.706917 296.388338 
L 117.883546 296.514075 
L 116.060174 296.716867 
L 114.236803 296.970139 
L 112.413432 297.224653 
L 110.590061 297.432374 
L 108.76669 297.562898 
L 106.943318 297.60986 
L 105.119947 297.592217 
L 103.296576 297.55013 
L 101.473205 297.530584 
L 99.649834 297.565712 
L 97.826462 297.657963 
L 96.003091 297.783426 
L 94.17972 297.908814 
L 92.356349 298.007053 
L 90.532978 298.062076 
L 88.709606 298.066653 
L 86.886235 298.021973 
L 85.062864 297.941091 
L 83.239493 297.850319 
L 81.416122 297.782599 
L 79.59275 297.763836 
L 77.769379 297.800127 
L 75.946008 297.875247 
L 74.122637 297.961575 
L 72.299266 298.037389 
L 70.475894 298.097516 
L 68.652523 298.149623 
L 66.829152 298.201066 
L 65.005781 298.249156 
L 63.18241 298.283251 
L 61.359039 298.295612 
L 59.535667 298.290684 
L 57.712296 298.284522 
L 55.888925 298.294295 
L 54.065554 298.326087 
L 52.242183 298.371063 
L 50.418811 298.413089 
L 48.59544 298.440736 
L 46.772069 298.453629 
L 44.948698 298.45958 
L 43.125327 298.466913 
L 41.301955 298.478622 
L 39.478584 298.491734 
L 37.655213 298.501055 
L 35.831842 298.50361 
L 34.008471 298.499879 
L 32.185099 298.491086 
L 30.361728 298.476316 
L 28.538357 298.453853 
L 26.714986 298.426196 
L 24.891615 298.402877 
L 23.068243 298.396393 
L 21.244872 298.413697 
L 19.421501 298.450838 
L 17.59813 298.495589 
L 15.774759 298.535264 
L 13.951387 298.562911 
L 12.128016 298.57799 
L 10.304645 298.583113 
L 8.481274 298.580669 
L 6.657903 298.571727 
L 4.834532 298.557178 
L 3.01116 298.539409 
L 1.187789 298.522469 
L -0.635582 298.510093 
L -2.458953 298.50348 
L -4.282324 298.501491 
L -6.105696 298.503151 
L -7.929067 298.509238 
L -9.752438 298.520772 
L -11.575809 298.536265 
L -13.39918 298.551111 
L -15.222552 298.559838 
L -17.045923 298.559165 
L -18.869294 298.549875 
L -20.692665 298.536847 
L -22.516036 298.527067 
L -24.339408 298.526096 
L -26.162779 298.534971 
L -27.98615 298.55 
L -29.809521 298.56561 
L -31.632892 298.577733 
L -33.456264 298.585199 
L -35.279635 298.588942 
L -37.103006 298.59049 
z
" clip-path="url(#p045ac9ca9d)" style="fill: #de8f05; fill-opacity: 0.2; stroke: #de8f05; stroke-width: 2"/>
   </g>
   <g id="PolyCollection_3">
    <path d="M -169.04761 298.590534 
L -169.04761 298.591221 
L -166.587097 298.591221 
L -164.126584 298.591221 
L -161.666071 298.591221 
L -159.205558 298.591221 
L -156.745045 298.591221 
L -154.284532 298.591221 
L -151.82402 298.591221 
L -149.363507 298.591221 
L -146.902994 298.591221 
L -144.442481 298.591221 
L -141.981968 298.591221 
L -139.521455 298.591221 
L -137.060942 298.591221 
L -134.600429 298.591221 
L -132.139917 298.591221 
L -129.679404 298.591221 
L -127.218891 298.591221 
L -124.758378 298.591221 
L -122.297865 298.591221 
L -119.837352 298.591221 
L -117.376839 298.591221 
L -114.916327 298.591221 
L -112.455814 298.591221 
L -109.995301 298.591221 
L -107.534788 298.591221 
L -105.074275 298.591221 
L -102.613762 298.591221 
L -100.153249 298.591221 
L -97.692736 298.591221 
L -95.232224 298.591221 
L -92.771711 298.591221 
L -90.311198 298.591221 
L -87.850685 298.591221 
L -85.390172 298.591221 
L -82.929659 298.591221 
L -80.469146 298.591221 
L -78.008633 298.591221 
L -75.548121 298.591221 
L -73.087608 298.591221 
L -70.627095 298.591221 
L -68.166582 298.591221 
L -65.706069 298.591221 
L -63.245556 298.591221 
L -60.785043 298.591221 
L -58.32453 298.591221 
L -55.864018 298.591221 
L -53.403505 298.591221 
L -50.942992 298.591221 
L -48.482479 298.591221 
L -46.021966 298.591221 
L -43.561453 298.591221 
L -41.10094 298.591221 
L -38.640427 298.591221 
L -36.179915 298.591221 
L -33.719402 298.591221 
L -31.258889 298.591221 
L -28.798376 298.591221 
L -26.337863 298.591221 
L -23.87735 298.591221 
L -21.416837 298.591221 
L -18.956324 298.591221 
L -16.495812 298.591221 
L -14.035299 298.591221 
L -11.574786 298.591221 
L -9.114273 298.591221 
L -6.65376 298.591221 
L -4.193247 298.591221 
L -1.732734 298.591221 
L 0.727778 298.591221 
L 3.188291 298.591221 
L 5.648804 298.591221 
L 8.109317 298.591221 
L 10.56983 298.591221 
L 13.030343 298.591221 
L 15.490856 298.591221 
L 17.951369 298.591221 
L 20.411881 298.591221 
L 22.872394 298.591221 
L 25.332907 298.591221 
L 27.79342 298.591221 
L 30.253933 298.591221 
L 32.714446 298.591221 
L 35.174959 298.591221 
L 37.635472 298.591221 
L 40.095984 298.591221 
L 42.556497 298.591221 
L 45.01701 298.591221 
L 47.477523 298.591221 
L 49.938036 298.591221 
L 52.398549 298.591221 
L 54.859062 298.591221 
L 57.319575 298.591221 
L 59.780087 298.591221 
L 62.2406 298.591221 
L 64.701113 298.591221 
L 67.161626 298.591221 
L 69.622139 298.591221 
L 72.082652 298.591221 
L 74.543165 298.591221 
L 77.003678 298.591221 
L 79.46419 298.591221 
L 81.924703 298.591221 
L 84.385216 298.591221 
L 86.845729 298.591221 
L 89.306242 298.591221 
L 91.766755 298.591221 
L 94.227268 298.591221 
L 96.687781 298.591221 
L 99.148293 298.591221 
L 101.608806 298.591221 
L 104.069319 298.591221 
L 106.529832 298.591221 
L 108.990345 298.591221 
L 111.450858 298.591221 
L 113.911371 298.591221 
L 116.371883 298.591221 
L 118.832396 298.591221 
L 121.292909 298.591221 
L 123.753422 298.591221 
L 126.213935 298.591221 
L 128.674448 298.591221 
L 131.134961 298.591221 
L 133.595474 298.591221 
L 136.055986 298.591221 
L 138.516499 298.591221 
L 140.977012 298.591221 
L 143.437525 298.591221 
L 145.898038 298.591221 
L 148.358551 298.591221 
L 150.819064 298.591221 
L 153.279577 298.591221 
L 155.740089 298.591221 
L 158.200602 298.591221 
L 160.661115 298.591221 
L 163.121628 298.591221 
L 165.582141 298.591221 
L 168.042654 298.591221 
L 170.503167 298.591221 
L 172.96368 298.591221 
L 175.424192 298.591221 
L 177.884705 298.591221 
L 180.345218 298.591221 
L 182.805731 298.591221 
L 185.266244 298.591221 
L 187.726757 298.591221 
L 190.18727 298.591221 
L 192.647783 298.591221 
L 195.108295 298.591221 
L 197.568808 298.591221 
L 200.029321 298.591221 
L 202.489834 298.591221 
L 204.950347 298.591221 
L 207.41086 298.591221 
L 209.871373 298.591221 
L 212.331885 298.591221 
L 214.792398 298.591221 
L 217.252911 298.591221 
L 219.713424 298.591221 
L 222.173937 298.591221 
L 224.63445 298.591221 
L 227.094963 298.591221 
L 229.555476 298.591221 
L 232.015988 298.591221 
L 234.476501 298.591221 
L 236.937014 298.591221 
L 239.397527 298.591221 
L 241.85804 298.591221 
L 244.318553 298.591221 
L 246.779066 298.591221 
L 249.239579 298.591221 
L 251.700091 298.591221 
L 254.160604 298.591221 
L 256.621117 298.591221 
L 259.08163 298.591221 
L 261.542143 298.591221 
L 264.002656 298.591221 
L 266.463169 298.591221 
L 268.923682 298.591221 
L 271.384194 298.591221 
L 273.844707 298.591221 
L 276.30522 298.591221 
L 278.765733 298.591221 
L 281.226246 298.591221 
L 283.686759 298.591221 
L 286.147272 298.591221 
L 288.607785 298.591221 
L 291.068297 298.591221 
L 293.52881 298.591221 
L 295.989323 298.591221 
L 298.449836 298.591221 
L 300.910349 298.591221 
L 303.370862 298.591221 
L 305.831375 298.591221 
L 308.291888 298.591221 
L 310.7524 298.591221 
L 313.212913 298.591221 
L 315.673426 298.591221 
L 318.133939 298.591221 
L 320.594452 298.591221 
L 320.594452 298.586574 
L 320.594452 298.586574 
L 318.133939 298.565713 
L 315.673426 298.476039 
L 313.212913 298.157025 
L 310.7524 297.204083 
L 308.291888 294.779781 
L 305.831375 289.455069 
L 303.370862 279.232253 
L 300.910349 261.920096 
L 298.449836 235.966505 
L 295.989323 201.589258 
L 293.52881 161.576831 
L 291.068297 120.994298 
L 288.607785 85.635539 
L 286.147272 59.858928 
L 283.686759 44.941517 
L 281.226246 39.132915 
L 278.765733 39.463464 
L 276.30522 43.649055 
L 273.844707 50.562749 
L 271.384194 59.716037 
L 268.923682 70.9362 
L 266.463169 84.221707 
L 264.002656 99.324523 
L 261.542143 115.50685 
L 259.08163 131.829933 
L 256.621117 147.441121 
L 254.160604 161.644608 
L 251.700091 174.141714 
L 249.239579 185.219574 
L 246.779066 195.376371 
L 244.318553 204.77752 
L 241.85804 213.233816 
L 239.397527 220.589242 
L 236.937014 226.968608 
L 234.476501 232.65431 
L 232.015988 237.823607 
L 229.555476 242.492007 
L 227.094963 246.652466 
L 224.63445 250.351561 
L 222.173937 253.663858 
L 219.713424 256.711454 
L 217.252911 259.711946 
L 214.792398 262.886766 
L 212.331885 266.238954 
L 209.871373 269.466938 
L 207.41086 272.182582 
L 204.950347 274.222533 
L 202.489834 275.713936 
L 200.029321 276.879691 
L 197.568808 277.871704 
L 195.108295 278.782365 
L 192.647783 279.698463 
L 190.18727 280.676638 
L 187.726757 281.698638 
L 185.266244 282.687369 
L 182.805731 283.588659 
L 180.345218 284.449959 
L 177.884705 285.380326 
L 175.424192 286.415174 
L 172.96368 287.478718 
L 170.503167 288.486392 
L 168.042654 289.414569 
L 165.582141 290.26429 
L 163.121628 291.014805 
L 160.661115 291.626118 
L 158.200602 292.066699 
L 155.740089 292.348283 
L 153.279577 292.546529 
L 150.819064 292.7661 
L 148.358551 293.068585 
L 145.898038 293.440485 
L 143.437525 293.82444 
L 140.977012 294.166732 
L 138.516499 294.44324 
L 136.055986 294.661331 
L 133.595474 294.84839 
L 131.134961 295.043896 
L 128.674448 295.293778 
L 126.213935 295.618891 
L 123.753422 295.97584 
L 121.292909 296.275953 
L 118.832396 296.45587 
L 116.371883 296.51851 
L 113.911371 296.51145 
L 111.450858 296.481842 
L 108.990345 296.45326 
L 106.529832 296.435824 
L 104.069319 296.438677 
L 101.608806 296.462676 
L 99.148293 296.503697 
L 96.687781 296.574575 
L 94.227268 296.693984 
L 91.766755 296.841996 
L 89.306242 296.962053 
L 86.845729 297.027976 
L 84.385216 297.082774 
L 81.924703 297.187761 
L 79.46419 297.350656 
L 77.003678 297.524677 
L 74.543165 297.662329 
L 72.082652 297.747676 
L 69.622139 297.789912 
L 67.161626 297.812608 
L 64.701113 297.84722 
L 62.2406 297.915647 
L 59.780087 298.010476 
L 57.319575 298.098903 
L 54.859062 298.153556 
L 52.398549 298.180962 
L 49.938036 298.215792 
L 47.477523 298.284729 
L 45.01701 298.379555 
L 42.556497 298.467331 
L 40.095984 298.520998 
L 37.635472 298.537275 
L 35.174959 298.532596 
L 32.714446 298.528289 
L 30.253933 298.536259 
L 27.79342 298.553978 
L 25.332907 298.571752 
L 22.872394 298.582941 
L 20.411881 298.586316 
L 17.951369 298.581525 
L 15.490856 298.565673 
L 13.030343 298.536414 
L 10.56983 298.499918 
L 8.109317 298.473339 
L 5.648804 298.472742 
L 3.188291 298.49654 
L 0.727778 298.525407 
L -1.732734 298.54012 
L -4.193247 298.537372 
L -6.65376 298.529331 
L -9.114273 298.530171 
L -11.574786 298.542849 
L -14.035299 298.558038 
L -16.495812 298.563996 
L -18.956324 298.556253 
L -21.416837 298.540734 
L -23.87735 298.529916 
L -26.337863 298.533194 
L -28.798376 298.548997 
L -31.258889 298.567656 
L -33.719402 298.581138 
L -36.179915 298.587913 
L -38.640427 298.590389 
L -41.10094 298.59106 
L -43.561453 298.591197 
L -46.021966 298.591218 
L -48.482479 298.591221 
L -50.942992 298.591221 
L -53.403505 298.591221 
L -55.864018 298.591221 
L -58.32453 298.591221 
L -60.785043 298.591221 
L -63.245556 298.591221 
L -65.706069 298.591221 
L -68.166582 298.591221 
L -70.627095 298.591221 
L -73.087608 298.591221 
L -75.548121 298.591221 
L -78.008633 298.591221 
L -80.469146 298.591221 
L -82.929659 298.591221 
L -85.390172 298.591221 
L -87.850685 298.591221 
L -90.311198 298.591221 
L -92.771711 298.591221 
L -95.232224 298.591221 
L -97.692736 298.591221 
L -100.153249 298.591221 
L -102.613762 298.591221 
L -105.074275 298.591221 
L -107.534788 298.591221 
L -109.995301 298.591221 
L -112.455814 298.591221 
L -114.916327 298.591221 
L -117.376839 298.591221 
L -119.837352 298.591221 
L -122.297865 298.591221 
L -124.758378 298.591221 
L -127.218891 298.591221 
L -129.679404 298.591221 
L -132.139917 298.59122 
L -134.600429 298.591212 
L -137.060942 298.591155 
L -139.521455 298.590835 
L -141.981968 298.589474 
L -144.442481 298.585161 
L -146.902994 298.575104 
L -149.363507 298.558358 
L -151.82402 298.539853 
L -154.284532 298.529667 
L -156.745045 298.534675 
L -159.205558 298.551398 
L -161.666071 298.569721 
L -164.126584 298.582322 
L -166.587097 298.588397 
L -169.04761 298.590534 
z
" clip-path="url(#p045ac9ca9d)" style="fill: #0173b2; fill-opacity: 0.2; stroke: #0173b2; stroke-width: 2"/>
   </g>
   <g id="matplotlib.axis_1">
    <g id="xtick_1">
     <g id="line2d_1">
      <defs>
       <path id="mfe1ab86d4d" d="M 0 0 
L 0 3.5 
" style="stroke: #000000; stroke-width: 0.8"/>
      </defs>
      <g>
       <use xlink:href="#mfe1ab86d4d" x="72.83" y="298.591221" style="stroke: #000000; stroke-width: 0.8"/>
      </g>
     </g>
     <g id="text_1">
      <!-- 14000 -->
      <g transform="translate(63.533756 333.458962) rotate(-45) scale(0.1 -0.1)">
       <defs>
        <path id="DejaVuSerif-31" d="M 909 0 
L 909 331 
L 1722 331 
L 1722 4213 
L 781 3603 
L 781 4013 
L 1919 4750 
L 2350 4750 
L 2350 331 
L 3163 331 
L 3163 0 
L 909 0 
z
" transform="scale(0.015625)"/>
        <path id="DejaVuSerif-34" d="M 2234 1581 
L 2234 4063 
L 641 1581 
L 2234 1581 
z
M 3609 0 
L 1484 0 
L 1484 331 
L 2234 331 
L 2234 1247 
L 197 1247 
L 197 1588 
L 2241 4750 
L 2859 4750 
L 2859 1581 
L 3750 1581 
L 3750 1247 
L 2859 1247 
L 2859 331 
L 3609 331 
L 3609 0 
z
" transform="scale(0.015625)"/>
        <path id="DejaVuSerif-30" d="M 2034 219 
Q 2513 219 2750 744 
Q 2988 1269 2988 2328 
Q 2988 3391 2750 3916 
Q 2513 4441 2034 4441 
Q 1556 4441 1318 3916 
Q 1081 3391 1081 2328 
Q 1081 1269 1318 744 
Q 1556 219 2034 219 
z
M 2034 -91 
Q 1275 -91 848 546 
Q 422 1184 422 2328 
Q 422 3475 848 4112 
Q 1275 4750 2034 4750 
Q 2797 4750 3222 4112 
Q 3647 3475 3647 2328 
Q 3647 1184 3222 546 
Q 2797 -91 2034 -91 
z
" transform="scale(0.015625)"/>
       </defs>
       <use xlink:href="#DejaVuSerif-31"/>
       <use xlink:href="#DejaVuSerif-34" x="63.623047"/>
       <use xlink:href="#DejaVuSerif-30" x="127.246094"/>
       <use xlink:href="#DejaVuSerif-30" x="190.869141"/>
       <use xlink:href="#DejaVuSerif-30" x="254.492188"/>
      </g>
     </g>
    </g>
    <g id="xtick_2">
     <g id="line2d_2">
      <g>
       <use xlink:href="#mfe1ab86d4d" x="105.534679" y="298.591221" style="stroke: #000000; stroke-width: 0.8"/>
      </g>
     </g>
     <g id="text_2">
      <!-- 14500 -->
      <g transform="translate(96.238434 333.458962) rotate(-45) scale(0.1 -0.1)">
       <defs>
        <path id="DejaVuSerif-35" d="M 3219 4666 
L 3219 4153 
L 1081 4153 
L 1081 2816 
Q 1244 2928 1461 2984 
Q 1678 3041 1947 3041 
Q 2703 3041 3140 2622 
Q 3578 2203 3578 1478 
Q 3578 738 3136 323 
Q 2694 -91 1894 -91 
Q 1572 -91 1234 -12 
Q 897 66 544 225 
L 544 1131 
L 897 1131 
Q 925 688 1179 453 
Q 1434 219 1894 219 
Q 2388 219 2653 544 
Q 2919 869 2919 1478 
Q 2919 2084 2655 2407 
Q 2391 2731 1894 2731 
Q 1613 2731 1398 2631 
Q 1184 2531 1019 2322 
L 750 2322 
L 750 4666 
L 3219 4666 
z
" transform="scale(0.015625)"/>
       </defs>
       <use xlink:href="#DejaVuSerif-31"/>
       <use xlink:href="#DejaVuSerif-34" x="63.623047"/>
       <use xlink:href="#DejaVuSerif-35" x="127.246094"/>
       <use xlink:href="#DejaVuSerif-30" x="190.869141"/>
       <use xlink:href="#DejaVuSerif-30" x="254.492188"/>
      </g>
     </g>
    </g>
    <g id="xtick_3">
     <g id="line2d_3">
      <g>
       <use xlink:href="#mfe1ab86d4d" x="138.239358" y="298.591221" style="stroke: #000000; stroke-width: 0.8"/>
      </g>
     </g>
     <g id="text_3">
      <!-- 15000 -->
      <g transform="translate(128.943113 333.458962) rotate(-45) scale(0.1 -0.1)">
       <use xlink:href="#DejaVuSerif-31"/>
       <use xlink:href="#DejaVuSerif-35" x="63.623047"/>
       <use xlink:href="#DejaVuSerif-30" x="127.246094"/>
       <use xlink:href="#DejaVuSerif-30" x="190.869141"/>
       <use xlink:href="#DejaVuSerif-30" x="254.492188"/>
      </g>
     </g>
    </g>
    <g id="xtick_4">
     <g id="line2d_4">
      <g>
       <use xlink:href="#mfe1ab86d4d" x="170.944036" y="298.591221" style="stroke: #000000; stroke-width: 0.8"/>
      </g>
     </g>
     <g id="text_4">
      <!-- 15500 -->
      <g transform="translate(161.647792 333.458962) rotate(-45) scale(0.1 -0.1)">
       <use xlink:href="#DejaVuSerif-31"/>
       <use xlink:href="#DejaVuSerif-35" x="63.623047"/>
       <use xlink:href="#DejaVuSerif-35" x="127.246094"/>
       <use xlink:href="#DejaVuSerif-30" x="190.869141"/>
       <use xlink:href="#DejaVuSerif-30" x="254.492188"/>
      </g>
     </g>
    </g>
    <g id="xtick_5">
     <g id="line2d_5">
      <g>
       <use xlink:href="#mfe1ab86d4d" x="203.648715" y="298.591221" style="stroke: #000000; stroke-width: 0.8"/>
      </g>
     </g>
     <g id="text_5">
      <!-- 16000 -->
      <g transform="translate(194.352471 333.458962) rotate(-45) scale(0.1 -0.1)">
       <defs>
        <path id="DejaVuSerif-36" d="M 2094 219 
Q 2534 219 2771 542 
Q 3009 866 3009 1472 
Q 3009 2078 2771 2401 
Q 2534 2725 2094 2725 
Q 1647 2725 1412 2412 
Q 1178 2100 1178 1509 
Q 1178 888 1415 553 
Q 1653 219 2094 219 
z
M 1075 2569 
Q 1288 2803 1556 2918 
Q 1825 3034 2163 3034 
Q 2859 3034 3264 2615 
Q 3669 2197 3669 1472 
Q 3669 763 3233 336 
Q 2797 -91 2069 -91 
Q 1278 -91 853 498 
Q 428 1088 428 2181 
Q 428 3406 931 4078 
Q 1434 4750 2350 4750 
Q 2597 4750 2869 4703 
Q 3141 4656 3425 4563 
L 3425 3794 
L 3072 3794 
Q 3034 4109 2831 4275 
Q 2628 4441 2284 4441 
Q 1678 4441 1381 3981 
Q 1084 3522 1075 2569 
z
" transform="scale(0.015625)"/>
       </defs>
       <use xlink:href="#DejaVuSerif-31"/>
       <use xlink:href="#DejaVuSerif-36" x="63.623047"/>
       <use xlink:href="#DejaVuSerif-30" x="127.246094"/>
       <use xlink:href="#DejaVuSerif-30" x="190.869141"/>
       <use xlink:href="#DejaVuSerif-30" x="254.492188"/>
      </g>
     </g>
    </g>
    <g id="xtick_6">
     <g id="line2d_6">
      <g>
       <use xlink:href="#mfe1ab86d4d" x="236.353394" y="298.591221" style="stroke: #000000; stroke-width: 0.8"/>
      </g>
     </g>
     <g id="text_6">
      <!-- 16500 -->
      <g transform="translate(227.057149 333.458962) rotate(-45) scale(0.1 -0.1)">
       <use xlink:href="#DejaVuSerif-31"/>
       <use xlink:href="#DejaVuSerif-36" x="63.623047"/>
       <use xlink:href="#DejaVuSerif-35" x="127.246094"/>
       <use xlink:href="#DejaVuSerif-30" x="190.869141"/>
       <use xlink:href="#DejaVuSerif-30" x="254.492188"/>
      </g>
     </g>
    </g>
    <g id="xtick_7">
     <g id="line2d_7">
      <g>
       <use xlink:href="#mfe1ab86d4d" x="269.058073" y="298.591221" style="stroke: #000000; stroke-width: 0.8"/>
      </g>
     </g>
     <g id="text_7">
      <!-- 17000 -->
      <g transform="translate(259.761828 333.458962) rotate(-45) scale(0.1 -0.1)">
       <defs>
        <path id="DejaVuSerif-37" d="M 3609 4347 
L 1784 0 
L 1319 0 
L 3059 4153 
L 903 4153 
L 903 3578 
L 538 3578 
L 538 4666 
L 3609 4666 
L 3609 4347 
z
" transform="scale(0.015625)"/>
       </defs>
       <use xlink:href="#DejaVuSerif-31"/>
       <use xlink:href="#DejaVuSerif-37" x="63.623047"/>
       <use xlink:href="#DejaVuSerif-30" x="127.246094"/>
       <use xlink:href="#DejaVuSerif-30" x="190.869141"/>
       <use xlink:href="#DejaVuSerif-30" x="254.492188"/>
      </g>
     </g>
    </g>
    <g id="xtick_8">
     <g id="line2d_8">
      <g>
       <use xlink:href="#mfe1ab86d4d" x="301.762751" y="298.591221" style="stroke: #000000; stroke-width: 0.8"/>
      </g>
     </g>
     <g id="text_8">
      <!-- 17500 -->
      <g transform="translate(292.466507 333.458962) rotate(-45) scale(0.1 -0.1)">
       <use xlink:href="#DejaVuSerif-31"/>
       <use xlink:href="#DejaVuSerif-37" x="63.623047"/>
       <use xlink:href="#DejaVuSerif-35" x="127.246094"/>
       <use xlink:href="#DejaVuSerif-30" x="190.869141"/>
       <use xlink:href="#DejaVuSerif-30" x="254.492188"/>
      </g>
     </g>
    </g>
    <g id="xtick_9">
     <g id="line2d_9">
      <g>
       <use xlink:href="#mfe1ab86d4d" x="334.46743" y="298.591221" style="stroke: #000000; stroke-width: 0.8"/>
      </g>
     </g>
     <g id="text_9">
      <!-- 18000 -->
      <g transform="translate(325.171186 333.458962) rotate(-45) scale(0.1 -0.1)">
       <defs>
        <path id="DejaVuSerif-38" d="M 2981 1275 
Q 2981 1775 2732 2051 
Q 2484 2328 2034 2328 
Q 1584 2328 1336 2051 
Q 1088 1775 1088 1275 
Q 1088 772 1336 495 
Q 1584 219 2034 219 
Q 2484 219 2732 495 
Q 2981 772 2981 1275 
z
M 2853 3541 
Q 2853 3966 2637 4203 
Q 2422 4441 2034 4441 
Q 1650 4441 1433 4203 
Q 1216 3966 1216 3541 
Q 1216 3113 1433 2875 
Q 1650 2638 2034 2638 
Q 2422 2638 2637 2875 
Q 2853 3113 2853 3541 
z
M 2516 2484 
Q 3047 2413 3344 2092 
Q 3641 1772 3641 1275 
Q 3641 619 3225 264 
Q 2809 -91 2034 -91 
Q 1263 -91 845 264 
Q 428 619 428 1275 
Q 428 1772 725 2092 
Q 1022 2413 1556 2484 
Q 1084 2569 832 2842 
Q 581 3116 581 3541 
Q 581 4103 968 4426 
Q 1356 4750 2034 4750 
Q 2713 4750 3100 4426 
Q 3488 4103 3488 3541 
Q 3488 3116 3236 2842 
Q 2984 2569 2516 2484 
z
" transform="scale(0.015625)"/>
       </defs>
       <use xlink:href="#DejaVuSerif-31"/>
       <use xlink:href="#DejaVuSerif-38" x="63.623047"/>
       <use xlink:href="#DejaVuSerif-30" x="127.246094"/>
       <use xlink:href="#DejaVuSerif-30" x="190.869141"/>
       <use xlink:href="#DejaVuSerif-30" x="254.492188"/>
      </g>
     </g>
    </g>
    <g id="text_10">
     <!-- Number of zeroes per cell -->
     <g transform="translate(137.518246 346.527961) scale(0.1 -0.1)">
      <defs>
       <path id="DejaVuSerif-4e" d="M 313 0 
L 313 331 
L 941 331 
L 941 4331 
L 313 4331 
L 313 4666 
L 1509 4666 
L 4306 984 
L 4306 4331 
L 3681 4331 
L 3681 4666 
L 5319 4666 
L 5319 4331 
L 4691 4331 
L 4691 -91 
L 4313 -91 
L 1325 3841 
L 1325 331 
L 1953 331 
L 1953 0 
L 313 0 
z
" transform="scale(0.015625)"/>
       <path id="DejaVuSerif-75" d="M 2266 3322 
L 3341 3322 
L 3341 331 
L 3884 331 
L 3884 0 
L 2766 0 
L 2766 588 
Q 2606 256 2353 82 
Q 2100 -91 1766 -91 
Q 1213 -91 952 223 
Q 691 538 691 1209 
L 691 2988 
L 172 2988 
L 172 3322 
L 1269 3322 
L 1269 1388 
Q 1269 781 1417 556 
Q 1566 331 1947 331 
Q 2347 331 2556 625 
Q 2766 919 2766 1478 
L 2766 2988 
L 2266 2988 
L 2266 3322 
z
" transform="scale(0.015625)"/>
       <path id="DejaVuSerif-6d" d="M 3316 2675 
Q 3481 3041 3739 3227 
Q 3997 3413 4341 3413 
Q 4863 3413 5119 3089 
Q 5375 2766 5375 2113 
L 5375 331 
L 5894 331 
L 5894 0 
L 4300 0 
L 4300 331 
L 4800 331 
L 4800 2047 
Q 4800 2556 4650 2772 
Q 4500 2988 4153 2988 
Q 3769 2988 3567 2697 
Q 3366 2406 3366 1850 
L 3366 331 
L 3866 331 
L 3866 0 
L 2291 0 
L 2291 331 
L 2791 331 
L 2791 2069 
Q 2791 2566 2641 2777 
Q 2491 2988 2144 2988 
Q 1759 2988 1557 2697 
Q 1356 2406 1356 1850 
L 1356 331 
L 1856 331 
L 1856 0 
L 263 0 
L 263 331 
L 781 331 
L 781 2994 
L 231 2994 
L 231 3322 
L 1356 3322 
L 1356 2731 
Q 1516 3063 1762 3238 
Q 2009 3413 2322 3413 
Q 2709 3413 2968 3220 
Q 3228 3028 3316 2675 
z
" transform="scale(0.015625)"/>
       <path id="DejaVuSerif-62" d="M 738 331 
L 738 4531 
L 184 4531 
L 184 4863 
L 1313 4863 
L 1313 2803 
Q 1481 3116 1742 3264 
Q 2003 3413 2388 3413 
Q 3000 3413 3387 2928 
Q 3775 2444 3775 1663 
Q 3775 881 3387 395 
Q 3000 -91 2388 -91 
Q 2003 -91 1742 57 
Q 1481 206 1313 519 
L 1313 0 
L 184 0 
L 184 331 
L 738 331 
z
M 1313 1497 
Q 1313 897 1542 583 
Q 1772 269 2209 269 
Q 2650 269 2876 622 
Q 3103 975 3103 1663 
Q 3103 2353 2876 2703 
Q 2650 3053 2209 3053 
Q 1772 3053 1542 2737 
Q 1313 2422 1313 1825 
L 1313 1497 
z
" transform="scale(0.015625)"/>
       <path id="DejaVuSerif-65" d="M 3469 1600 
L 991 1600 
L 991 1575 
Q 991 903 1244 561 
Q 1497 219 1991 219 
Q 2369 219 2611 417 
Q 2853 616 2950 1006 
L 3413 1006 
Q 3275 459 2904 184 
Q 2534 -91 1931 -91 
Q 1203 -91 761 389 
Q 319 869 319 1663 
Q 319 2450 753 2931 
Q 1188 3413 1894 3413 
Q 2647 3413 3050 2948 
Q 3453 2484 3469 1600 
z
M 2791 1931 
Q 2772 2513 2545 2808 
Q 2319 3103 1894 3103 
Q 1497 3103 1269 2806 
Q 1041 2509 991 1931 
L 2791 1931 
z
" transform="scale(0.015625)"/>
       <path id="DejaVuSerif-72" d="M 3059 3328 
L 3059 2497 
L 2728 2497 
Q 2713 2744 2591 2866 
Q 2469 2988 2234 2988 
Q 1809 2988 1582 2694 
Q 1356 2400 1356 1850 
L 1356 331 
L 2022 331 
L 2022 0 
L 263 0 
L 263 331 
L 781 331 
L 781 2994 
L 231 2994 
L 231 3322 
L 1356 3322 
L 1356 2731 
Q 1525 3078 1790 3245 
Q 2056 3413 2438 3413 
Q 2578 3413 2733 3391 
Q 2888 3369 3059 3328 
z
" transform="scale(0.015625)"/>
       <path id="DejaVuSerif-20" transform="scale(0.015625)"/>
       <path id="DejaVuSerif-6f" d="M 1925 219 
Q 2388 219 2623 584 
Q 2859 950 2859 1663 
Q 2859 2375 2623 2739 
Q 2388 3103 1925 3103 
Q 1463 3103 1227 2739 
Q 991 2375 991 1663 
Q 991 950 1228 584 
Q 1466 219 1925 219 
z
M 1925 -91 
Q 1200 -91 759 389 
Q 319 869 319 1663 
Q 319 2456 758 2934 
Q 1197 3413 1925 3413 
Q 2653 3413 3092 2934 
Q 3531 2456 3531 1663 
Q 3531 869 3092 389 
Q 2653 -91 1925 -91 
z
" transform="scale(0.015625)"/>
       <path id="DejaVuSerif-66" d="M 2753 4078 
L 2450 4078 
Q 2447 4313 2317 4434 
Q 2188 4556 1941 4556 
Q 1619 4556 1487 4379 
Q 1356 4203 1356 3750 
L 1356 3322 
L 2284 3322 
L 2284 2988 
L 1356 2988 
L 1356 331 
L 2094 331 
L 2094 0 
L 231 0 
L 231 331 
L 781 331 
L 781 2988 
L 231 2988 
L 231 3322 
L 781 3322 
L 781 3738 
Q 781 4294 1070 4578 
Q 1359 4863 1919 4863 
Q 2128 4863 2337 4825 
Q 2547 4788 2753 4709 
L 2753 4078 
z
" transform="scale(0.015625)"/>
       <path id="DejaVuSerif-7a" d="M 256 0 
L 256 269 
L 2338 2988 
L 691 2988 
L 691 2413 
L 359 2413 
L 359 3322 
L 3078 3322 
L 3078 3053 
L 997 331 
L 2803 331 
L 2803 934 
L 3138 934 
L 3138 0 
L 256 0 
z
" transform="scale(0.015625)"/>
       <path id="DejaVuSerif-73" d="M 359 184 
L 359 959 
L 691 959 
Q 703 588 923 403 
Q 1144 219 1575 219 
Q 1963 219 2166 364 
Q 2369 509 2369 788 
Q 2369 1006 2220 1140 
Q 2072 1275 1594 1428 
L 1178 1569 
Q 750 1706 558 1912 
Q 366 2119 366 2438 
Q 366 2894 700 3153 
Q 1034 3413 1625 3413 
Q 1888 3413 2178 3344 
Q 2469 3275 2778 3144 
L 2778 2419 
L 2447 2419 
Q 2434 2741 2221 2922 
Q 2009 3103 1644 3103 
Q 1281 3103 1095 2975 
Q 909 2847 909 2591 
Q 909 2381 1050 2254 
Q 1191 2128 1613 1997 
L 2069 1856 
Q 2541 1709 2748 1489 
Q 2956 1269 2956 922 
Q 2956 450 2595 179 
Q 2234 -91 1600 -91 
Q 1278 -91 972 -22 
Q 666 47 359 184 
z
" transform="scale(0.015625)"/>
       <path id="DejaVuSerif-70" d="M 1313 1825 
L 1313 1497 
Q 1313 897 1542 583 
Q 1772 269 2209 269 
Q 2650 269 2876 622 
Q 3103 975 3103 1663 
Q 3103 2353 2876 2703 
Q 2650 3053 2209 3053 
Q 1772 3053 1542 2737 
Q 1313 2422 1313 1825 
z
M 738 2988 
L 184 2988 
L 184 3322 
L 1313 3322 
L 1313 2803 
Q 1481 3116 1742 3264 
Q 2003 3413 2388 3413 
Q 3000 3413 3387 2928 
Q 3775 2444 3775 1663 
Q 3775 881 3387 395 
Q 3000 -91 2388 -91 
Q 2003 -91 1742 57 
Q 1481 206 1313 519 
L 1313 -997 
L 1856 -997 
L 1856 -1331 
L 184 -1331 
L 184 -997 
L 738 -997 
L 738 2988 
z
" transform="scale(0.015625)"/>
       <path id="DejaVuSerif-63" d="M 3291 997 
Q 3169 466 2822 187 
Q 2475 -91 1925 -91 
Q 1200 -91 759 389 
Q 319 869 319 1663 
Q 319 2459 759 2936 
Q 1200 3413 1925 3413 
Q 2241 3413 2553 3339 
Q 2866 3266 3181 3116 
L 3181 2266 
L 2847 2266 
Q 2781 2703 2561 2903 
Q 2341 3103 1931 3103 
Q 1466 3103 1228 2742 
Q 991 2381 991 1663 
Q 991 944 1227 581 
Q 1463 219 1931 219 
Q 2303 219 2525 412 
Q 2747 606 2828 997 
L 3291 997 
z
" transform="scale(0.015625)"/>
       <path id="DejaVuSerif-6c" d="M 1313 331 
L 1856 331 
L 1856 0 
L 184 0 
L 184 331 
L 738 331 
L 738 4531 
L 184 4531 
L 184 4863 
L 1313 4863 
L 1313 331 
z
" transform="scale(0.015625)"/>
      </defs>
      <use xlink:href="#DejaVuSerif-4e"/>
      <use xlink:href="#DejaVuSerif-75" x="87.5"/>
      <use xlink:href="#DejaVuSerif-6d" x="151.904297"/>
      <use xlink:href="#DejaVuSerif-62" x="246.728516"/>
      <use xlink:href="#DejaVuSerif-65" x="310.742188"/>
      <use xlink:href="#DejaVuSerif-72" x="369.921875"/>
      <use xlink:href="#DejaVuSerif-20" x="417.724609"/>
      <use xlink:href="#DejaVuSerif-6f" x="449.511719"/>
      <use xlink:href="#DejaVuSerif-66" x="509.716797"/>
      <use xlink:href="#DejaVuSerif-20" x="546.728516"/>
      <use xlink:href="#DejaVuSerif-7a" x="578.515625"/>
      <use xlink:href="#DejaVuSerif-65" x="631.201172"/>
      <use xlink:href="#DejaVuSerif-72" x="690.380859"/>
      <use xlink:href="#DejaVuSerif-6f" x="738.183594"/>
      <use xlink:href="#DejaVuSerif-65" x="798.388672"/>
      <use xlink:href="#DejaVuSerif-73" x="857.568359"/>
      <use xlink:href="#DejaVuSerif-20" x="908.886719"/>
      <use xlink:href="#DejaVuSerif-70" x="940.673828"/>
      <use xlink:href="#DejaVuSerif-65" x="1004.6875"/>
      <use xlink:href="#DejaVuSerif-72" x="1063.867188"/>
      <use xlink:href="#DejaVuSerif-20" x="1111.669922"/>
      <use xlink:href="#DejaVuSerif-63" x="1143.457031"/>
      <use xlink:href="#DejaVuSerif-65" x="1199.462891"/>
      <use xlink:href="#DejaVuSerif-6c" x="1258.642578"/>
      <use xlink:href="#DejaVuSerif-6c" x="1290.625"/>
     </g>
    </g>
   </g>
   <g id="matplotlib.axis_2">
    <g id="ytick_1">
     <g id="line2d_10">
      <defs>
       <path id="m04a1a53bc4" d="M 0 0 
L -3.5 0 
" style="stroke: #000000; stroke-width: 0.8"/>
      </defs>
      <g>
       <use xlink:href="#m04a1a53bc4" x="72.83" y="298.591221" style="stroke: #000000; stroke-width: 0.8"/>
      </g>
     </g>
     <g id="text_11">
      <!-- 0.00000 -->
      <g transform="translate(24.476875 302.39044) scale(0.1 -0.1)">
       <defs>
        <path id="DejaVuSerif-2e" d="M 603 325 
Q 603 500 722 622 
Q 841 744 1019 744 
Q 1191 744 1312 622 
Q 1434 500 1434 325 
Q 1434 153 1312 31 
Q 1191 -91 1019 -91 
Q 841 -91 722 29 
Q 603 150 603 325 
z
" transform="scale(0.015625)"/>
       </defs>
       <use xlink:href="#DejaVuSerif-30"/>
       <use xlink:href="#DejaVuSerif-2e" x="63.623047"/>
       <use xlink:href="#DejaVuSerif-30" x="95.410156"/>
       <use xlink:href="#DejaVuSerif-30" x="159.033203"/>
       <use xlink:href="#DejaVuSerif-30" x="222.65625"/>
       <use xlink:href="#DejaVuSerif-30" x="286.279297"/>
       <use xlink:href="#DejaVuSerif-30" x="349.902344"/>
      </g>
     </g>
    </g>
    <g id="ytick_2">
     <g id="line2d_11">
      <g>
       <use xlink:href="#m04a1a53bc4" x="72.83" y="268.127792" style="stroke: #000000; stroke-width: 0.8"/>
      </g>
     </g>
     <g id="text_12">
      <!-- 0.00005 -->
      <g transform="translate(24.476875 271.927011) scale(0.1 -0.1)">
       <use xlink:href="#DejaVuSerif-30"/>
       <use xlink:href="#DejaVuSerif-2e" x="63.623047"/>
       <use xlink:href="#DejaVuSerif-30" x="95.410156"/>
       <use xlink:href="#DejaVuSerif-30" x="159.033203"/>
       <use xlink:href="#DejaVuSerif-30" x="222.65625"/>
       <use xlink:href="#DejaVuSerif-30" x="286.279297"/>
       <use xlink:href="#DejaVuSerif-35" x="349.902344"/>
      </g>
     </g>
    </g>
    <g id="ytick_3">
     <g id="line2d_12">
      <g>
       <use xlink:href="#m04a1a53bc4" x="72.83" y="237.664364" style="stroke: #000000; stroke-width: 0.8"/>
      </g>
     </g>
     <g id="text_13">
      <!-- 0.00010 -->
      <g transform="translate(24.476875 241.463583) scale(0.1 -0.1)">
       <use xlink:href="#DejaVuSerif-30"/>
       <use xlink:href="#DejaVuSerif-2e" x="63.623047"/>
       <use xlink:href="#DejaVuSerif-30" x="95.410156"/>
       <use xlink:href="#DejaVuSerif-30" x="159.033203"/>
       <use xlink:href="#DejaVuSerif-30" x="222.65625"/>
       <use xlink:href="#DejaVuSerif-31" x="286.279297"/>
       <use xlink:href="#DejaVuSerif-30" x="349.902344"/>
      </g>
     </g>
    </g>
    <g id="ytick_4">
     <g id="line2d_13">
      <g>
       <use xlink:href="#m04a1a53bc4" x="72.83" y="207.200935" style="stroke: #000000; stroke-width: 0.8"/>
      </g>
     </g>
     <g id="text_14">
      <!-- 0.00015 -->
      <g transform="translate(24.476875 211.000154) scale(0.1 -0.1)">
       <use xlink:href="#DejaVuSerif-30"/>
       <use xlink:href="#DejaVuSerif-2e" x="63.623047"/>
       <use xlink:href="#DejaVuSerif-30" x="95.410156"/>
       <use xlink:href="#DejaVuSerif-30" x="159.033203"/>
       <use xlink:href="#DejaVuSerif-30" x="222.65625"/>
       <use xlink:href="#DejaVuSerif-31" x="286.279297"/>
       <use xlink:href="#DejaVuSerif-35" x="349.902344"/>
      </g>
     </g>
    </g>
    <g id="ytick_5">
     <g id="line2d_14">
      <g>
       <use xlink:href="#m04a1a53bc4" x="72.83" y="176.737507" style="stroke: #000000; stroke-width: 0.8"/>
      </g>
     </g>
     <g id="text_15">
      <!-- 0.00020 -->
      <g transform="translate(24.476875 180.536726) scale(0.1 -0.1)">
       <defs>
        <path id="DejaVuSerif-32" d="M 819 3553 
L 469 3553 
L 469 4384 
Q 803 4563 1142 4656 
Q 1481 4750 1806 4750 
Q 2534 4750 2956 4397 
Q 3378 4044 3378 3438 
Q 3378 2753 2422 1800 
Q 2347 1728 2309 1691 
L 1131 513 
L 3078 513 
L 3078 1088 
L 3444 1088 
L 3444 0 
L 434 0 
L 434 341 
L 1850 1753 
Q 2319 2222 2519 2614 
Q 2719 3006 2719 3438 
Q 2719 3909 2473 4175 
Q 2228 4441 1797 4441 
Q 1350 4441 1106 4219 
Q 863 3997 819 3553 
z
" transform="scale(0.015625)"/>
       </defs>
       <use xlink:href="#DejaVuSerif-30"/>
       <use xlink:href="#DejaVuSerif-2e" x="63.623047"/>
       <use xlink:href="#DejaVuSerif-30" x="95.410156"/>
       <use xlink:href="#DejaVuSerif-30" x="159.033203"/>
       <use xlink:href="#DejaVuSerif-30" x="222.65625"/>
       <use xlink:href="#DejaVuSerif-32" x="286.279297"/>
       <use xlink:href="#DejaVuSerif-30" x="349.902344"/>
      </g>
     </g>
    </g>
    <g id="ytick_6">
     <g id="line2d_15">
      <g>
       <use xlink:href="#m04a1a53bc4" x="72.83" y="146.274078" style="stroke: #000000; stroke-width: 0.8"/>
      </g>
     </g>
     <g id="text_16">
      <!-- 0.00025 -->
      <g transform="translate(24.476875 150.073297) scale(0.1 -0.1)">
       <use xlink:href="#DejaVuSerif-30"/>
       <use xlink:href="#DejaVuSerif-2e" x="63.623047"/>
       <use xlink:href="#DejaVuSerif-30" x="95.410156"/>
       <use xlink:href="#DejaVuSerif-30" x="159.033203"/>
       <use xlink:href="#DejaVuSerif-30" x="222.65625"/>
       <use xlink:href="#DejaVuSerif-32" x="286.279297"/>
       <use xlink:href="#DejaVuSerif-35" x="349.902344"/>
      </g>
     </g>
    </g>
    <g id="ytick_7">
     <g id="line2d_16">
      <g>
       <use xlink:href="#m04a1a53bc4" x="72.83" y="115.81065" style="stroke: #000000; stroke-width: 0.8"/>
      </g>
     </g>
     <g id="text_17">
      <!-- 0.00030 -->
      <g transform="translate(24.476875 119.609869) scale(0.1 -0.1)">
       <defs>
        <path id="DejaVuSerif-33" d="M 622 4469 
Q 988 4606 1323 4678 
Q 1659 4750 1953 4750 
Q 2638 4750 3022 4454 
Q 3406 4159 3406 3634 
Q 3406 3213 3140 2930 
Q 2875 2647 2388 2547 
Q 2963 2466 3280 2130 
Q 3597 1794 3597 1259 
Q 3597 606 3158 257 
Q 2719 -91 1894 -91 
Q 1528 -91 1179 -12 
Q 831 66 488 225 
L 488 1131 
L 838 1131 
Q 869 681 1141 450 
Q 1413 219 1906 219 
Q 2384 219 2661 495 
Q 2938 772 2938 1253 
Q 2938 1803 2653 2086 
Q 2369 2369 1819 2369 
L 1522 2369 
L 1522 2688 
L 1678 2688 
Q 2225 2688 2498 2914 
Q 2772 3141 2772 3597 
Q 2772 4006 2547 4223 
Q 2322 4441 1900 4441 
Q 1478 4441 1245 4241 
Q 1013 4041 972 3647 
L 622 3647 
L 622 4469 
z
" transform="scale(0.015625)"/>
       </defs>
       <use xlink:href="#DejaVuSerif-30"/>
       <use xlink:href="#DejaVuSerif-2e" x="63.623047"/>
       <use xlink:href="#DejaVuSerif-30" x="95.410156"/>
       <use xlink:href="#DejaVuSerif-30" x="159.033203"/>
       <use xlink:href="#DejaVuSerif-30" x="222.65625"/>
       <use xlink:href="#DejaVuSerif-33" x="286.279297"/>
       <use xlink:href="#DejaVuSerif-30" x="349.902344"/>
      </g>
     </g>
    </g>
    <g id="ytick_8">
     <g id="line2d_17">
      <g>
       <use xlink:href="#m04a1a53bc4" x="72.83" y="85.347222" style="stroke: #000000; stroke-width: 0.8"/>
      </g>
     </g>
     <g id="text_18">
      <!-- 0.00035 -->
      <g transform="translate(24.476875 89.14644) scale(0.1 -0.1)">
       <use xlink:href="#DejaVuSerif-30"/>
       <use xlink:href="#DejaVuSerif-2e" x="63.623047"/>
       <use xlink:href="#DejaVuSerif-30" x="95.410156"/>
       <use xlink:href="#DejaVuSerif-30" x="159.033203"/>
       <use xlink:href="#DejaVuSerif-30" x="222.65625"/>
       <use xlink:href="#DejaVuSerif-33" x="286.279297"/>
       <use xlink:href="#DejaVuSerif-35" x="349.902344"/>
      </g>
     </g>
    </g>
    <g id="ytick_9">
     <g id="line2d_18">
      <g>
       <use xlink:href="#m04a1a53bc4" x="72.83" y="54.883793" style="stroke: #000000; stroke-width: 0.8"/>
      </g>
     </g>
     <g id="text_19">
      <!-- 0.00040 -->
      <g transform="translate(24.476875 58.683012) scale(0.1 -0.1)">
       <use xlink:href="#DejaVuSerif-30"/>
       <use xlink:href="#DejaVuSerif-2e" x="63.623047"/>
       <use xlink:href="#DejaVuSerif-30" x="95.410156"/>
       <use xlink:href="#DejaVuSerif-30" x="159.033203"/>
       <use xlink:href="#DejaVuSerif-30" x="222.65625"/>
       <use xlink:href="#DejaVuSerif-34" x="286.279297"/>
       <use xlink:href="#DejaVuSerif-30" x="349.902344"/>
      </g>
     </g>
    </g>
    <g id="text_20">
     <!-- Frequency -->
     <g transform="translate(18.255 189.420142) rotate(-90) scale(0.1 -0.1)">
      <defs>
       <path id="DejaVuSerif-46" d="M 353 0 
L 353 331 
L 947 331 
L 947 4331 
L 353 4331 
L 353 4666 
L 4172 4666 
L 4172 3628 
L 3788 3628 
L 3788 4281 
L 1581 4281 
L 1581 2719 
L 3175 2719 
L 3175 3303 
L 3559 3303 
L 3559 1753 
L 3175 1753 
L 3175 2338 
L 1581 2338 
L 1581 331 
L 2328 331 
L 2328 0 
L 353 0 
z
" transform="scale(0.015625)"/>
       <path id="DejaVuSerif-71" d="M 3359 2988 
L 3359 -997 
L 3909 -997 
L 3909 -1331 
L 2241 -1331 
L 2241 -997 
L 2784 -997 
L 2784 519 
Q 2616 206 2355 57 
Q 2094 -91 1709 -91 
Q 1097 -91 708 395 
Q 319 881 319 1663 
Q 319 2444 706 2928 
Q 1094 3413 1709 3413 
Q 2094 3413 2355 3264 
Q 2616 3116 2784 2803 
L 2784 3322 
L 3909 3322 
L 3909 2988 
L 3359 2988 
z
M 2784 1825 
Q 2784 2422 2554 2737 
Q 2325 3053 1888 3053 
Q 1444 3053 1217 2703 
Q 991 2353 991 1663 
Q 991 975 1217 622 
Q 1444 269 1888 269 
Q 2325 269 2554 583 
Q 2784 897 2784 1497 
L 2784 1825 
z
" transform="scale(0.015625)"/>
       <path id="DejaVuSerif-6e" d="M 263 0 
L 263 331 
L 781 331 
L 781 2988 
L 231 2988 
L 231 3322 
L 1356 3322 
L 1356 2731 
Q 1516 3069 1770 3241 
Q 2025 3413 2363 3413 
Q 2913 3413 3172 3097 
Q 3431 2781 3431 2113 
L 3431 331 
L 3944 331 
L 3944 0 
L 2356 0 
L 2356 331 
L 2853 331 
L 2853 1931 
Q 2853 2541 2703 2767 
Q 2553 2994 2175 2994 
Q 1775 2994 1565 2701 
Q 1356 2409 1356 1850 
L 1356 331 
L 1856 331 
L 1856 0 
L 263 0 
z
" transform="scale(0.015625)"/>
       <path id="DejaVuSerif-79" d="M 1381 -609 
L 1600 -56 
L 359 2988 
L -19 2988 
L -19 3322 
L 1509 3322 
L 1509 2988 
L 978 2988 
L 1913 703 
L 2847 2988 
L 2350 2988 
L 2350 3322 
L 3597 3322 
L 3597 2988 
L 3225 2988 
L 1703 -750 
Q 1547 -1138 1356 -1280 
Q 1166 -1422 819 -1422 
Q 672 -1422 517 -1397 
Q 363 -1372 206 -1325 
L 206 -691 
L 500 -691 
Q 519 -903 608 -995 
Q 697 -1088 884 -1088 
Q 1056 -1088 1161 -992 
Q 1266 -897 1381 -609 
z
" transform="scale(0.015625)"/>
      </defs>
      <use xlink:href="#DejaVuSerif-46"/>
      <use xlink:href="#DejaVuSerif-72" x="69.384766"/>
      <use xlink:href="#DejaVuSerif-65" x="117.1875"/>
      <use xlink:href="#DejaVuSerif-71" x="176.367188"/>
      <use xlink:href="#DejaVuSerif-75" x="240.380859"/>
      <use xlink:href="#DejaVuSerif-65" x="304.785156"/>
      <use xlink:href="#DejaVuSerif-6e" x="363.964844"/>
      <use xlink:href="#DejaVuSerif-63" x="428.369141"/>
      <use xlink:href="#DejaVuSerif-79" x="484.375"/>
     </g>
    </g>
   </g>
   <g id="patch_3">
    <path d="M 72.83 298.591221 
L 72.83 26.16 
" style="fill: none; stroke: #000000; stroke-width: 0.8; stroke-linejoin: miter; stroke-linecap: square"/>
   </g>
   <g id="patch_4">
    <path d="M 334.46743 298.591221 
L 334.46743 26.16 
" style="fill: none; stroke: #000000; stroke-width: 0.8; stroke-linejoin: miter; stroke-linecap: square"/>
   </g>
   <g id="patch_5">
    <path d="M 72.83 298.591221 
L 334.46743 298.591221 
" style="fill: none; stroke: #000000; stroke-width: 0.8; stroke-linejoin: miter; stroke-linecap: square"/>
   </g>
   <g id="patch_6">
    <path d="M 72.83 26.16 
L 334.46743 26.16 
" style="fill: none; stroke: #000000; stroke-width: 0.8; stroke-linejoin: miter; stroke-linecap: square"/>
   </g>
   <g id="text_21">
    <!-- Tabula Muris_scvi -->
    <g transform="translate(148.804028 20.16) scale(0.12 -0.12)">
     <defs>
      <path id="DejaVuSerif-54" d="M 1222 0 
L 1222 331 
L 1819 331 
L 1819 4294 
L 447 4294 
L 447 3566 
L 63 3566 
L 63 4666 
L 4206 4666 
L 4206 3566 
L 3822 3566 
L 3822 4294 
L 2450 4294 
L 2450 331 
L 3047 331 
L 3047 0 
L 1222 0 
z
" transform="scale(0.015625)"/>
      <path id="DejaVuSerif-61" d="M 2547 1044 
L 2547 1747 
L 1806 1747 
Q 1378 1747 1168 1562 
Q 959 1378 959 997 
Q 959 650 1171 447 
Q 1384 244 1747 244 
Q 2106 244 2326 466 
Q 2547 688 2547 1044 
z
M 3122 2075 
L 3122 331 
L 3634 331 
L 3634 0 
L 2547 0 
L 2547 359 
Q 2356 128 2106 18 
Q 1856 -91 1522 -91 
Q 969 -91 644 203 
Q 319 497 319 997 
Q 319 1513 691 1797 
Q 1063 2081 1741 2081 
L 2547 2081 
L 2547 2309 
Q 2547 2688 2317 2895 
Q 2088 3103 1672 3103 
Q 1328 3103 1125 2947 
Q 922 2791 872 2484 
L 575 2484 
L 575 3156 
Q 875 3284 1158 3348 
Q 1441 3413 1709 3413 
Q 2400 3413 2761 3070 
Q 3122 2728 3122 2075 
z
" transform="scale(0.015625)"/>
      <path id="DejaVuSerif-4d" d="M 353 0 
L 353 331 
L 947 331 
L 947 4331 
L 319 4331 
L 319 4666 
L 1678 4666 
L 3316 1344 
L 4953 4666 
L 6228 4666 
L 6228 4331 
L 5606 4331 
L 5606 331 
L 6203 331 
L 6203 0 
L 4378 0 
L 4378 331 
L 4972 331 
L 4972 3938 
L 3372 684 
L 2931 684 
L 1331 3938 
L 1331 331 
L 1925 331 
L 1925 0 
L 353 0 
z
" transform="scale(0.015625)"/>
      <path id="DejaVuSerif-69" d="M 622 4353 
Q 622 4497 726 4603 
Q 831 4709 978 4709 
Q 1122 4709 1226 4603 
Q 1331 4497 1331 4353 
Q 1331 4206 1228 4103 
Q 1125 4000 978 4000 
Q 831 4000 726 4103 
Q 622 4206 622 4353 
z
M 1356 331 
L 1900 331 
L 1900 0 
L 231 0 
L 231 331 
L 781 331 
L 781 2988 
L 231 2988 
L 231 3322 
L 1356 3322 
L 1356 331 
z
" transform="scale(0.015625)"/>
      <path id="DejaVuSerif-5f" d="M 3200 -1259 
L 3200 -1509 
L 0 -1509 
L 0 -1259 
L 3200 -1259 
z
" transform="scale(0.015625)"/>
      <path id="DejaVuSerif-76" d="M 1581 0 
L 359 2988 
L -19 2988 
L -19 3322 
L 1509 3322 
L 1509 2988 
L 978 2988 
L 1913 703 
L 2847 2988 
L 2350 2988 
L 2350 3322 
L 3597 3322 
L 3597 2988 
L 3225 2988 
L 2003 0 
L 1581 0 
z
" transform="scale(0.015625)"/>
     </defs>
     <use xlink:href="#DejaVuSerif-54"/>
     <use xlink:href="#DejaVuSerif-61" x="58.949219"/>
     <use xlink:href="#DejaVuSerif-62" x="118.568359"/>
     <use xlink:href="#DejaVuSerif-75" x="182.582031"/>
     <use xlink:href="#DejaVuSerif-6c" x="246.986328"/>
     <use xlink:href="#DejaVuSerif-61" x="278.96875"/>
     <use xlink:href="#DejaVuSerif-20" x="338.587891"/>
     <use xlink:href="#DejaVuSerif-4d" x="370.375"/>
     <use xlink:href="#DejaVuSerif-75" x="472.767578"/>
     <use xlink:href="#DejaVuSerif-72" x="537.171875"/>
     <use xlink:href="#DejaVuSerif-69" x="584.974609"/>
     <use xlink:href="#DejaVuSerif-73" x="616.957031"/>
     <use xlink:href="#DejaVuSerif-5f" x="668.275391"/>
     <use xlink:href="#DejaVuSerif-73" x="718.275391"/>
     <use xlink:href="#DejaVuSerif-63" x="769.59375"/>
     <use xlink:href="#DejaVuSerif-76" x="825.599609"/>
     <use xlink:href="#DejaVuSerif-69" x="882.09375"/>
    </g>
   </g>
  </g>
 </g>
 <defs>
  <clipPath id="p045ac9ca9d">
   <rect x="72.83" y="26.16" width="261.63743" height="272.431221"/>
  </clipPath>
 </defs>
</svg>
