<?xml version="1.0" encoding="utf-8" standalone="no"?>
<!DOCTYPE svg PUBLIC "-//W3C//DTD SVG 1.1//EN"
  "http://www.w3.org/Graphics/SVG/1.1/DTD/svg11.dtd">
<svg xmlns:xlink="http://www.w3.org/1999/xlink" width="216pt" height="216pt" viewBox="0 0 216 216" xmlns="http://www.w3.org/2000/svg" version="1.1">
 <metadata>
  <rdf:RDF xmlns:dc="http://purl.org/dc/elements/1.1/" xmlns:cc="http://creativecommons.org/ns#" xmlns:rdf="http://www.w3.org/1999/02/22-rdf-syntax-ns#">
   <cc:Work>
    <dc:type rdf:resource="http://purl.org/dc/dcmitype/StillImage"/>
    <dc:date>2024-08-06T10:42:11.804380</dc:date>
    <dc:format>image/svg+xml</dc:format>
    <dc:creator>
     <cc:Agent>
      <dc:title>Matplotlib v3.8.1, https://matplotlib.org/</dc:title>
     </cc:Agent>
    </dc:creator>
   </cc:Work>
  </rdf:RDF>
 </metadata>
 <defs>
  <style type="text/css">*{stroke-linejoin: round; stroke-linecap: butt}</style>
 </defs>
 <g id="figure_1">
  <g id="patch_1">
   <path d="M 0 216 
L 216 216 
L 216 0 
L 0 0 
z
" style="fill: #ffffff"/>
  </g>
  <g id="axes_1">
   <g id="patch_2">
    <path d="M 57.17 154.591221 
L 190.46743 154.591221 
L 190.46743 26.16 
L 57.17 26.16 
z
" style="fill: #ffffff"/>
   </g>
   <g id="patch_3">
    <path d="M -58.76544 154.591221 
L -50.738713 154.591221 
L -50.738713 154.591221 
L -58.76544 154.591221 
z
" clip-path="url(#p9e621fa601)" style="fill: #d55e00; fill-opacity: 0.4; stroke: #000000; stroke-width: 0.507273; stroke-linejoin: miter"/>
   </g>
   <g id="patch_4">
    <path d="M -50.738713 154.591221 
L -42.711986 154.591221 
L -42.711986 154.591221 
L -50.738713 154.591221 
z
" clip-path="url(#p9e621fa601)" style="fill: #d55e00; fill-opacity: 0.4; stroke: #000000; stroke-width: 0.507273; stroke-linejoin: miter"/>
   </g>
   <g id="patch_5">
    <path d="M -42.711986 154.591221 
L -34.685259 154.591221 
L -34.685259 154.591221 
L -42.711986 154.591221 
z
" clip-path="url(#p9e621fa601)" style="fill: #d55e00; fill-opacity: 0.4; stroke: #000000; stroke-width: 0.507273; stroke-linejoin: miter"/>
   </g>
   <g id="patch_6">
    <path d="M -34.685259 154.591221 
L -26.658532 154.591221 
L -26.658532 154.591221 
L -34.685259 154.591221 
z
" clip-path="url(#p9e621fa601)" style="fill: #d55e00; fill-opacity: 0.4; stroke: #000000; stroke-width: 0.507273; stroke-linejoin: miter"/>
   </g>
   <g id="patch_7">
    <path d="M -26.658532 154.591221 
L -18.631805 154.591221 
L -18.631805 154.591221 
L -26.658532 154.591221 
z
" clip-path="url(#p9e621fa601)" style="fill: #d55e00; fill-opacity: 0.4; stroke: #000000; stroke-width: 0.507273; stroke-linejoin: miter"/>
   </g>
   <g id="patch_8">
    <path d="M -18.631805 154.591221 
L -10.605078 154.591221 
L -10.605078 154.591221 
L -18.631805 154.591221 
z
" clip-path="url(#p9e621fa601)" style="fill: #d55e00; fill-opacity: 0.4; stroke: #000000; stroke-width: 0.507273; stroke-linejoin: miter"/>
   </g>
   <g id="patch_9">
    <path d="M -10.605078 154.591221 
L -2.578351 154.591221 
L -2.578351 154.591221 
L -10.605078 154.591221 
z
" clip-path="url(#p9e621fa601)" style="fill: #d55e00; fill-opacity: 0.4; stroke: #000000; stroke-width: 0.507273; stroke-linejoin: miter"/>
   </g>
   <g id="patch_10">
    <path d="M -2.578351 154.591221 
L 5.448375 154.591221 
L 5.448375 154.591221 
L -2.578351 154.591221 
z
" clip-path="url(#p9e621fa601)" style="fill: #d55e00; fill-opacity: 0.4; stroke: #000000; stroke-width: 0.507273; stroke-linejoin: miter"/>
   </g>
   <g id="patch_11">
    <path d="M 5.448375 154.591221 
L 13.475102 154.591221 
L 13.475102 154.591221 
L 5.448375 154.591221 
z
" clip-path="url(#p9e621fa601)" style="fill: #d55e00; fill-opacity: 0.4; stroke: #000000; stroke-width: 0.507273; stroke-linejoin: miter"/>
   </g>
   <g id="patch_12">
    <path d="M 13.475102 154.591221 
L 21.501829 154.591221 
L 21.501829 154.591221 
L 13.475102 154.591221 
z
" clip-path="url(#p9e621fa601)" style="fill: #d55e00; fill-opacity: 0.4; stroke: #000000; stroke-width: 0.507273; stroke-linejoin: miter"/>
   </g>
   <g id="patch_13">
    <path d="M 21.501829 154.591221 
L 29.528556 154.591221 
L 29.528556 154.591221 
L 21.501829 154.591221 
z
" clip-path="url(#p9e621fa601)" style="fill: #d55e00; fill-opacity: 0.4; stroke: #000000; stroke-width: 0.507273; stroke-linejoin: miter"/>
   </g>
   <g id="patch_14">
    <path d="M 29.528556 154.591221 
L 37.555283 154.591221 
L 37.555283 154.591221 
L 29.528556 154.591221 
z
" clip-path="url(#p9e621fa601)" style="fill: #d55e00; fill-opacity: 0.4; stroke: #000000; stroke-width: 0.507273; stroke-linejoin: miter"/>
   </g>
   <g id="patch_15">
    <path d="M 37.555283 154.591221 
L 45.58201 154.591221 
L 45.58201 154.591221 
L 37.555283 154.591221 
z
" clip-path="url(#p9e621fa601)" style="fill: #d55e00; fill-opacity: 0.4; stroke: #000000; stroke-width: 0.507273; stroke-linejoin: miter"/>
   </g>
   <g id="patch_16">
    <path d="M 45.58201 154.591221 
L 53.608737 154.591221 
L 53.608737 154.591221 
L 45.58201 154.591221 
z
" clip-path="url(#p9e621fa601)" style="fill: #d55e00; fill-opacity: 0.4; stroke: #000000; stroke-width: 0.507273; stroke-linejoin: miter"/>
   </g>
   <g id="patch_17">
    <path d="M 53.608737 154.591221 
L 61.635464 154.591221 
L 61.635464 154.591221 
L 53.608737 154.591221 
z
" clip-path="url(#p9e621fa601)" style="fill: #d55e00; fill-opacity: 0.4; stroke: #000000; stroke-width: 0.507273; stroke-linejoin: miter"/>
   </g>
   <g id="patch_18">
    <path d="M 61.635464 154.591221 
L 69.662191 154.591221 
L 69.662191 154.591221 
L 61.635464 154.591221 
z
" clip-path="url(#p9e621fa601)" style="fill: #d55e00; fill-opacity: 0.4; stroke: #000000; stroke-width: 0.507273; stroke-linejoin: miter"/>
   </g>
   <g id="patch_19">
    <path d="M 69.662191 154.591221 
L 77.688918 154.591221 
L 77.688918 154.591221 
L 69.662191 154.591221 
z
" clip-path="url(#p9e621fa601)" style="fill: #d55e00; fill-opacity: 0.4; stroke: #000000; stroke-width: 0.507273; stroke-linejoin: miter"/>
   </g>
   <g id="patch_20">
    <path d="M 77.688918 154.591221 
L 85.715645 154.591221 
L 85.715645 154.591221 
L 77.688918 154.591221 
z
" clip-path="url(#p9e621fa601)" style="fill: #d55e00; fill-opacity: 0.4; stroke: #000000; stroke-width: 0.507273; stroke-linejoin: miter"/>
   </g>
   <g id="patch_21">
    <path d="M 85.715645 154.591221 
L 93.742372 154.591221 
L 93.742372 154.591221 
L 85.715645 154.591221 
z
" clip-path="url(#p9e621fa601)" style="fill: #d55e00; fill-opacity: 0.4; stroke: #000000; stroke-width: 0.507273; stroke-linejoin: miter"/>
   </g>
   <g id="patch_22">
    <path d="M 93.742372 154.591221 
L 101.769099 154.591221 
L 101.769099 154.591221 
L 93.742372 154.591221 
z
" clip-path="url(#p9e621fa601)" style="fill: #d55e00; fill-opacity: 0.4; stroke: #000000; stroke-width: 0.507273; stroke-linejoin: miter"/>
   </g>
   <g id="patch_23">
    <path d="M 101.769099 154.591221 
L 109.795825 154.591221 
L 109.795825 154.591221 
L 101.769099 154.591221 
z
" clip-path="url(#p9e621fa601)" style="fill: #d55e00; fill-opacity: 0.4; stroke: #000000; stroke-width: 0.507273; stroke-linejoin: miter"/>
   </g>
   <g id="patch_24">
    <path d="M 109.795825 154.591221 
L 117.822552 154.591221 
L 117.822552 154.591221 
L 109.795825 154.591221 
z
" clip-path="url(#p9e621fa601)" style="fill: #d55e00; fill-opacity: 0.4; stroke: #000000; stroke-width: 0.507273; stroke-linejoin: miter"/>
   </g>
   <g id="patch_25">
    <path d="M 117.822552 154.591221 
L 125.849279 154.591221 
L 125.849279 154.573411 
L 117.822552 154.573411 
z
" clip-path="url(#p9e621fa601)" style="fill: #d55e00; fill-opacity: 0.4; stroke: #000000; stroke-width: 0.507273; stroke-linejoin: miter"/>
   </g>
   <g id="patch_26">
    <path d="M 125.849279 154.591221 
L 133.876006 154.591221 
L 133.876006 154.430936 
L 125.849279 154.430936 
z
" clip-path="url(#p9e621fa601)" style="fill: #d55e00; fill-opacity: 0.4; stroke: #000000; stroke-width: 0.507273; stroke-linejoin: miter"/>
   </g>
   <g id="patch_27">
    <path d="M 133.876006 154.591221 
L 141.902733 154.591221 
L 141.902733 153.522653 
L 133.876006 153.522653 
z
" clip-path="url(#p9e621fa601)" style="fill: #d55e00; fill-opacity: 0.4; stroke: #000000; stroke-width: 0.507273; stroke-linejoin: miter"/>
   </g>
   <g id="patch_28">
    <path d="M 141.902733 154.591221 
L 149.92946 154.591221 
L 149.92946 148.126383 
L 141.902733 148.126383 
z
" clip-path="url(#p9e621fa601)" style="fill: #d55e00; fill-opacity: 0.4; stroke: #000000; stroke-width: 0.507273; stroke-linejoin: miter"/>
   </g>
   <g id="patch_29">
    <path d="M 149.92946 154.591221 
L 157.956187 154.591221 
L 157.956187 130.192245 
L 149.92946 130.192245 
z
" clip-path="url(#p9e621fa601)" style="fill: #d55e00; fill-opacity: 0.4; stroke: #000000; stroke-width: 0.507273; stroke-linejoin: miter"/>
   </g>
   <g id="patch_30">
    <path d="M 157.956187 154.591221 
L 165.982914 154.591221 
L 165.982914 92.578642 
L 157.956187 92.578642 
z
" clip-path="url(#p9e621fa601)" style="fill: #d55e00; fill-opacity: 0.4; stroke: #000000; stroke-width: 0.507273; stroke-linejoin: miter"/>
   </g>
   <g id="patch_31">
    <path d="M 165.982914 154.591221 
L 174.009641 154.591221 
L 174.009641 51.634668 
L 165.982914 51.634668 
z
" clip-path="url(#p9e621fa601)" style="fill: #d55e00; fill-opacity: 0.4; stroke: #000000; stroke-width: 0.507273; stroke-linejoin: miter"/>
   </g>
   <g id="patch_32">
    <path d="M 174.009641 154.591221 
L 182.036368 154.591221 
L 182.036368 32.275772 
L 174.009641 32.275772 
z
" clip-path="url(#p9e621fa601)" style="fill: #d55e00; fill-opacity: 0.4; stroke: #000000; stroke-width: 0.507273; stroke-linejoin: miter"/>
   </g>
   <g id="patch_33">
    <path d="M -58.76544 154.591221 
L -50.738713 154.591221 
L -50.738713 154.591221 
L -58.76544 154.591221 
z
" clip-path="url(#p9e621fa601)" style="fill: #029e73; fill-opacity: 0.4; stroke: #000000; stroke-width: 0.507273; stroke-linejoin: miter"/>
   </g>
   <g id="patch_34">
    <path d="M -50.738713 154.591221 
L -42.711986 154.591221 
L -42.711986 154.591221 
L -50.738713 154.591221 
z
" clip-path="url(#p9e621fa601)" style="fill: #029e73; fill-opacity: 0.4; stroke: #000000; stroke-width: 0.507273; stroke-linejoin: miter"/>
   </g>
   <g id="patch_35">
    <path d="M -42.711986 154.591221 
L -34.685259 154.591221 
L -34.685259 154.591221 
L -42.711986 154.591221 
z
" clip-path="url(#p9e621fa601)" style="fill: #029e73; fill-opacity: 0.4; stroke: #000000; stroke-width: 0.507273; stroke-linejoin: miter"/>
   </g>
   <g id="patch_36">
    <path d="M -34.685259 154.591221 
L -26.658532 154.591221 
L -26.658532 154.591221 
L -34.685259 154.591221 
z
" clip-path="url(#p9e621fa601)" style="fill: #029e73; fill-opacity: 0.4; stroke: #000000; stroke-width: 0.507273; stroke-linejoin: miter"/>
   </g>
   <g id="patch_37">
    <path d="M -26.658532 154.591221 
L -18.631805 154.591221 
L -18.631805 154.591221 
L -26.658532 154.591221 
z
" clip-path="url(#p9e621fa601)" style="fill: #029e73; fill-opacity: 0.4; stroke: #000000; stroke-width: 0.507273; stroke-linejoin: miter"/>
   </g>
   <g id="patch_38">
    <path d="M -18.631805 154.591221 
L -10.605078 154.591221 
L -10.605078 154.591221 
L -18.631805 154.591221 
z
" clip-path="url(#p9e621fa601)" style="fill: #029e73; fill-opacity: 0.4; stroke: #000000; stroke-width: 0.507273; stroke-linejoin: miter"/>
   </g>
   <g id="patch_39">
    <path d="M -10.605078 154.591221 
L -2.578351 154.591221 
L -2.578351 154.591221 
L -10.605078 154.591221 
z
" clip-path="url(#p9e621fa601)" style="fill: #029e73; fill-opacity: 0.4; stroke: #000000; stroke-width: 0.507273; stroke-linejoin: miter"/>
   </g>
   <g id="patch_40">
    <path d="M -2.578351 154.591221 
L 5.448375 154.591221 
L 5.448375 154.591221 
L -2.578351 154.591221 
z
" clip-path="url(#p9e621fa601)" style="fill: #029e73; fill-opacity: 0.4; stroke: #000000; stroke-width: 0.507273; stroke-linejoin: miter"/>
   </g>
   <g id="patch_41">
    <path d="M 5.448375 154.591221 
L 13.475102 154.591221 
L 13.475102 154.591221 
L 5.448375 154.591221 
z
" clip-path="url(#p9e621fa601)" style="fill: #029e73; fill-opacity: 0.4; stroke: #000000; stroke-width: 0.507273; stroke-linejoin: miter"/>
   </g>
   <g id="patch_42">
    <path d="M 13.475102 154.591221 
L 21.501829 154.591221 
L 21.501829 154.591221 
L 13.475102 154.591221 
z
" clip-path="url(#p9e621fa601)" style="fill: #029e73; fill-opacity: 0.4; stroke: #000000; stroke-width: 0.507273; stroke-linejoin: miter"/>
   </g>
   <g id="patch_43">
    <path d="M 21.501829 154.591221 
L 29.528556 154.591221 
L 29.528556 154.591221 
L 21.501829 154.591221 
z
" clip-path="url(#p9e621fa601)" style="fill: #029e73; fill-opacity: 0.4; stroke: #000000; stroke-width: 0.507273; stroke-linejoin: miter"/>
   </g>
   <g id="patch_44">
    <path d="M 29.528556 154.591221 
L 37.555283 154.591221 
L 37.555283 154.484364 
L 29.528556 154.484364 
z
" clip-path="url(#p9e621fa601)" style="fill: #029e73; fill-opacity: 0.4; stroke: #000000; stroke-width: 0.507273; stroke-linejoin: miter"/>
   </g>
   <g id="patch_45">
    <path d="M 37.555283 154.591221 
L 45.58201 154.591221 
L 45.58201 154.448745 
L 37.555283 154.448745 
z
" clip-path="url(#p9e621fa601)" style="fill: #029e73; fill-opacity: 0.4; stroke: #000000; stroke-width: 0.507273; stroke-linejoin: miter"/>
   </g>
   <g id="patch_46">
    <path d="M 45.58201 154.591221 
L 53.608737 154.591221 
L 53.608737 154.235031 
L 45.58201 154.235031 
z
" clip-path="url(#p9e621fa601)" style="fill: #029e73; fill-opacity: 0.4; stroke: #000000; stroke-width: 0.507273; stroke-linejoin: miter"/>
   </g>
   <g id="patch_47">
    <path d="M 53.608737 154.591221 
L 61.635464 154.591221 
L 61.635464 153.789795 
L 53.608737 153.789795 
z
" clip-path="url(#p9e621fa601)" style="fill: #029e73; fill-opacity: 0.4; stroke: #000000; stroke-width: 0.507273; stroke-linejoin: miter"/>
   </g>
   <g id="patch_48">
    <path d="M 61.635464 154.591221 
L 69.662191 154.591221 
L 69.662191 153.184273 
L 61.635464 153.184273 
z
" clip-path="url(#p9e621fa601)" style="fill: #029e73; fill-opacity: 0.4; stroke: #000000; stroke-width: 0.507273; stroke-linejoin: miter"/>
   </g>
   <g id="patch_49">
    <path d="M 69.662191 154.591221 
L 77.688918 154.591221 
L 77.688918 152.543132 
L 69.662191 152.543132 
z
" clip-path="url(#p9e621fa601)" style="fill: #029e73; fill-opacity: 0.4; stroke: #000000; stroke-width: 0.507273; stroke-linejoin: miter"/>
   </g>
   <g id="patch_50">
    <path d="M 77.688918 154.591221 
L 85.715645 154.591221 
L 85.715645 151.545801 
L 77.688918 151.545801 
z
" clip-path="url(#p9e621fa601)" style="fill: #029e73; fill-opacity: 0.4; stroke: #000000; stroke-width: 0.507273; stroke-linejoin: miter"/>
   </g>
   <g id="patch_51">
    <path d="M 85.715645 154.591221 
L 93.742372 154.591221 
L 93.742372 150.940279 
L 85.715645 150.940279 
z
" clip-path="url(#p9e621fa601)" style="fill: #029e73; fill-opacity: 0.4; stroke: #000000; stroke-width: 0.507273; stroke-linejoin: miter"/>
   </g>
   <g id="patch_52">
    <path d="M 93.742372 154.591221 
L 101.769099 154.591221 
L 101.769099 148.838762 
L 93.742372 148.838762 
z
" clip-path="url(#p9e621fa601)" style="fill: #029e73; fill-opacity: 0.4; stroke: #000000; stroke-width: 0.507273; stroke-linejoin: miter"/>
   </g>
   <g id="patch_53">
    <path d="M 101.769099 154.591221 
L 109.795825 154.591221 
L 109.795825 146.719435 
L 101.769099 146.719435 
z
" clip-path="url(#p9e621fa601)" style="fill: #029e73; fill-opacity: 0.4; stroke: #000000; stroke-width: 0.507273; stroke-linejoin: miter"/>
   </g>
   <g id="patch_54">
    <path d="M 109.795825 154.591221 
L 117.822552 154.591221 
L 117.822552 141.020404 
L 109.795825 141.020404 
z
" clip-path="url(#p9e621fa601)" style="fill: #029e73; fill-opacity: 0.4; stroke: #000000; stroke-width: 0.507273; stroke-linejoin: miter"/>
   </g>
   <g id="patch_55">
    <path d="M 117.822552 154.591221 
L 125.849279 154.591221 
L 125.849279 132.596524 
L 117.822552 132.596524 
z
" clip-path="url(#p9e621fa601)" style="fill: #029e73; fill-opacity: 0.4; stroke: #000000; stroke-width: 0.507273; stroke-linejoin: miter"/>
   </g>
   <g id="patch_56">
    <path d="M 125.849279 154.591221 
L 133.876006 154.591221 
L 133.876006 108.055072 
L 125.849279 108.055072 
z
" clip-path="url(#p9e621fa601)" style="fill: #029e73; fill-opacity: 0.4; stroke: #000000; stroke-width: 0.507273; stroke-linejoin: miter"/>
   </g>
   <g id="patch_57">
    <path d="M 133.876006 154.591221 
L 141.902733 154.591221 
L 141.902733 68.375571 
L 133.876006 68.375571 
z
" clip-path="url(#p9e621fa601)" style="fill: #029e73; fill-opacity: 0.4; stroke: #000000; stroke-width: 0.507273; stroke-linejoin: miter"/>
   </g>
   <g id="patch_58">
    <path d="M 141.902733 154.591221 
L 149.92946 154.591221 
L 149.92946 50.797622 
L 141.902733 50.797622 
z
" clip-path="url(#p9e621fa601)" style="fill: #029e73; fill-opacity: 0.4; stroke: #000000; stroke-width: 0.507273; stroke-linejoin: miter"/>
   </g>
   <g id="patch_59">
    <path d="M 149.92946 154.591221 
L 157.956187 154.591221 
L 157.956187 113.665056 
L 149.92946 113.665056 
z
" clip-path="url(#p9e621fa601)" style="fill: #029e73; fill-opacity: 0.4; stroke: #000000; stroke-width: 0.507273; stroke-linejoin: miter"/>
   </g>
   <g id="patch_60">
    <path d="M 157.956187 154.591221 
L 165.982914 154.591221 
L 165.982914 144.048014 
L 157.956187 144.048014 
z
" clip-path="url(#p9e621fa601)" style="fill: #029e73; fill-opacity: 0.4; stroke: #000000; stroke-width: 0.507273; stroke-linejoin: miter"/>
   </g>
   <g id="patch_61">
    <path d="M 165.982914 154.591221 
L 174.009641 154.591221 
L 174.009641 153.647319 
L 165.982914 153.647319 
z
" clip-path="url(#p9e621fa601)" style="fill: #029e73; fill-opacity: 0.4; stroke: #000000; stroke-width: 0.507273; stroke-linejoin: miter"/>
   </g>
   <g id="patch_62">
    <path d="M 174.009641 154.591221 
L 182.036368 154.591221 
L 182.036368 154.591221 
L 174.009641 154.591221 
z
" clip-path="url(#p9e621fa601)" style="fill: #029e73; fill-opacity: 0.4; stroke: #000000; stroke-width: 0.507273; stroke-linejoin: miter"/>
   </g>
   <g id="patch_63">
    <path d="M -58.76544 154.591221 
L -50.738713 154.591221 
L -50.738713 154.591221 
L -58.76544 154.591221 
z
" clip-path="url(#p9e621fa601)" style="fill: #de8f05; fill-opacity: 0.4; stroke: #000000; stroke-width: 0.507273; stroke-linejoin: miter"/>
   </g>
   <g id="patch_64">
    <path d="M -50.738713 154.591221 
L -42.711986 154.591221 
L -42.711986 154.591221 
L -50.738713 154.591221 
z
" clip-path="url(#p9e621fa601)" style="fill: #de8f05; fill-opacity: 0.4; stroke: #000000; stroke-width: 0.507273; stroke-linejoin: miter"/>
   </g>
   <g id="patch_65">
    <path d="M -42.711986 154.591221 
L -34.685259 154.591221 
L -34.685259 154.591221 
L -42.711986 154.591221 
z
" clip-path="url(#p9e621fa601)" style="fill: #de8f05; fill-opacity: 0.4; stroke: #000000; stroke-width: 0.507273; stroke-linejoin: miter"/>
   </g>
   <g id="patch_66">
    <path d="M -34.685259 154.591221 
L -26.658532 154.591221 
L -26.658532 154.591221 
L -34.685259 154.591221 
z
" clip-path="url(#p9e621fa601)" style="fill: #de8f05; fill-opacity: 0.4; stroke: #000000; stroke-width: 0.507273; stroke-linejoin: miter"/>
   </g>
   <g id="patch_67">
    <path d="M -26.658532 154.591221 
L -18.631805 154.591221 
L -18.631805 154.591221 
L -26.658532 154.591221 
z
" clip-path="url(#p9e621fa601)" style="fill: #de8f05; fill-opacity: 0.4; stroke: #000000; stroke-width: 0.507273; stroke-linejoin: miter"/>
   </g>
   <g id="patch_68">
    <path d="M -18.631805 154.591221 
L -10.605078 154.591221 
L -10.605078 154.591221 
L -18.631805 154.591221 
z
" clip-path="url(#p9e621fa601)" style="fill: #de8f05; fill-opacity: 0.4; stroke: #000000; stroke-width: 0.507273; stroke-linejoin: miter"/>
   </g>
   <g id="patch_69">
    <path d="M -10.605078 154.591221 
L -2.578351 154.591221 
L -2.578351 154.591221 
L -10.605078 154.591221 
z
" clip-path="url(#p9e621fa601)" style="fill: #de8f05; fill-opacity: 0.4; stroke: #000000; stroke-width: 0.507273; stroke-linejoin: miter"/>
   </g>
   <g id="patch_70">
    <path d="M -2.578351 154.591221 
L 5.448375 154.591221 
L 5.448375 154.591221 
L -2.578351 154.591221 
z
" clip-path="url(#p9e621fa601)" style="fill: #de8f05; fill-opacity: 0.4; stroke: #000000; stroke-width: 0.507273; stroke-linejoin: miter"/>
   </g>
   <g id="patch_71">
    <path d="M 5.448375 154.591221 
L 13.475102 154.591221 
L 13.475102 154.573411 
L 5.448375 154.573411 
z
" clip-path="url(#p9e621fa601)" style="fill: #de8f05; fill-opacity: 0.4; stroke: #000000; stroke-width: 0.507273; stroke-linejoin: miter"/>
   </g>
   <g id="patch_72">
    <path d="M 13.475102 154.591221 
L 21.501829 154.591221 
L 21.501829 154.555602 
L 13.475102 154.555602 
z
" clip-path="url(#p9e621fa601)" style="fill: #de8f05; fill-opacity: 0.4; stroke: #000000; stroke-width: 0.507273; stroke-linejoin: miter"/>
   </g>
   <g id="patch_73">
    <path d="M 21.501829 154.591221 
L 29.528556 154.591221 
L 29.528556 154.591221 
L 21.501829 154.591221 
z
" clip-path="url(#p9e621fa601)" style="fill: #de8f05; fill-opacity: 0.4; stroke: #000000; stroke-width: 0.507273; stroke-linejoin: miter"/>
   </g>
   <g id="patch_74">
    <path d="M 29.528556 154.591221 
L 37.555283 154.591221 
L 37.555283 154.519983 
L 29.528556 154.519983 
z
" clip-path="url(#p9e621fa601)" style="fill: #de8f05; fill-opacity: 0.4; stroke: #000000; stroke-width: 0.507273; stroke-linejoin: miter"/>
   </g>
   <g id="patch_75">
    <path d="M 37.555283 154.591221 
L 45.58201 154.591221 
L 45.58201 154.555602 
L 37.555283 154.555602 
z
" clip-path="url(#p9e621fa601)" style="fill: #de8f05; fill-opacity: 0.4; stroke: #000000; stroke-width: 0.507273; stroke-linejoin: miter"/>
   </g>
   <g id="patch_76">
    <path d="M 45.58201 154.591221 
L 53.608737 154.591221 
L 53.608737 154.502173 
L 45.58201 154.502173 
z
" clip-path="url(#p9e621fa601)" style="fill: #de8f05; fill-opacity: 0.4; stroke: #000000; stroke-width: 0.507273; stroke-linejoin: miter"/>
   </g>
   <g id="patch_77">
    <path d="M 53.608737 154.591221 
L 61.635464 154.591221 
L 61.635464 154.306269 
L 53.608737 154.306269 
z
" clip-path="url(#p9e621fa601)" style="fill: #de8f05; fill-opacity: 0.4; stroke: #000000; stroke-width: 0.507273; stroke-linejoin: miter"/>
   </g>
   <g id="patch_78">
    <path d="M 61.635464 154.591221 
L 69.662191 154.591221 
L 69.662191 154.413126 
L 61.635464 154.413126 
z
" clip-path="url(#p9e621fa601)" style="fill: #de8f05; fill-opacity: 0.4; stroke: #000000; stroke-width: 0.507273; stroke-linejoin: miter"/>
   </g>
   <g id="patch_79">
    <path d="M 69.662191 154.591221 
L 77.688918 154.591221 
L 77.688918 154.199412 
L 69.662191 154.199412 
z
" clip-path="url(#p9e621fa601)" style="fill: #de8f05; fill-opacity: 0.4; stroke: #000000; stroke-width: 0.507273; stroke-linejoin: miter"/>
   </g>
   <g id="patch_80">
    <path d="M 77.688918 154.591221 
L 85.715645 154.591221 
L 85.715645 153.736366 
L 77.688918 153.736366 
z
" clip-path="url(#p9e621fa601)" style="fill: #de8f05; fill-opacity: 0.4; stroke: #000000; stroke-width: 0.507273; stroke-linejoin: miter"/>
   </g>
   <g id="patch_81">
    <path d="M 85.715645 154.591221 
L 93.742372 154.591221 
L 93.742372 153.130844 
L 85.715645 153.130844 
z
" clip-path="url(#p9e621fa601)" style="fill: #de8f05; fill-opacity: 0.4; stroke: #000000; stroke-width: 0.507273; stroke-linejoin: miter"/>
   </g>
   <g id="patch_82">
    <path d="M 93.742372 154.591221 
L 101.769099 154.591221 
L 101.769099 152.25818 
L 93.742372 152.25818 
z
" clip-path="url(#p9e621fa601)" style="fill: #de8f05; fill-opacity: 0.4; stroke: #000000; stroke-width: 0.507273; stroke-linejoin: miter"/>
   </g>
   <g id="patch_83">
    <path d="M 101.769099 154.591221 
L 109.795825 154.591221 
L 109.795825 151.118374 
L 101.769099 151.118374 
z
" clip-path="url(#p9e621fa601)" style="fill: #de8f05; fill-opacity: 0.4; stroke: #000000; stroke-width: 0.507273; stroke-linejoin: miter"/>
   </g>
   <g id="patch_84">
    <path d="M 109.795825 154.591221 
L 117.822552 154.591221 
L 117.822552 149.319617 
L 109.795825 149.319617 
z
" clip-path="url(#p9e621fa601)" style="fill: #de8f05; fill-opacity: 0.4; stroke: #000000; stroke-width: 0.507273; stroke-linejoin: miter"/>
   </g>
   <g id="patch_85">
    <path d="M 117.822552 154.591221 
L 125.849279 154.591221 
L 125.849279 146.719435 
L 117.822552 146.719435 
z
" clip-path="url(#p9e621fa601)" style="fill: #de8f05; fill-opacity: 0.4; stroke: #000000; stroke-width: 0.507273; stroke-linejoin: miter"/>
   </g>
   <g id="patch_86">
    <path d="M 125.849279 154.591221 
L 133.876006 154.591221 
L 133.876006 138.43803 
L 125.849279 138.43803 
z
" clip-path="url(#p9e621fa601)" style="fill: #de8f05; fill-opacity: 0.4; stroke: #000000; stroke-width: 0.507273; stroke-linejoin: miter"/>
   </g>
   <g id="patch_87">
    <path d="M 133.876006 154.591221 
L 141.902733 154.591221 
L 141.902733 124.742547 
L 133.876006 124.742547 
z
" clip-path="url(#p9e621fa601)" style="fill: #de8f05; fill-opacity: 0.4; stroke: #000000; stroke-width: 0.507273; stroke-linejoin: miter"/>
   </g>
   <g id="patch_88">
    <path d="M 141.902733 154.591221 
L 149.92946 154.591221 
L 149.92946 103.531467 
L 141.902733 103.531467 
z
" clip-path="url(#p9e621fa601)" style="fill: #de8f05; fill-opacity: 0.4; stroke: #000000; stroke-width: 0.507273; stroke-linejoin: miter"/>
   </g>
   <g id="patch_89">
    <path d="M 149.92946 154.591221 
L 157.956187 154.591221 
L 157.956187 76.087072 
L 149.92946 76.087072 
z
" clip-path="url(#p9e621fa601)" style="fill: #de8f05; fill-opacity: 0.4; stroke: #000000; stroke-width: 0.507273; stroke-linejoin: miter"/>
   </g>
   <g id="patch_90">
    <path d="M 157.956187 154.591221 
L 165.982914 154.591221 
L 165.982914 70.690802 
L 157.956187 70.690802 
z
" clip-path="url(#p9e621fa601)" style="fill: #de8f05; fill-opacity: 0.4; stroke: #000000; stroke-width: 0.507273; stroke-linejoin: miter"/>
   </g>
   <g id="patch_91">
    <path d="M 165.982914 154.591221 
L 174.009641 154.591221 
L 174.009641 118.188662 
L 165.982914 118.188662 
z
" clip-path="url(#p9e621fa601)" style="fill: #de8f05; fill-opacity: 0.4; stroke: #000000; stroke-width: 0.507273; stroke-linejoin: miter"/>
   </g>
   <g id="patch_92">
    <path d="M 174.009641 154.591221 
L 182.036368 154.591221 
L 182.036368 152.25818 
L 174.009641 152.25818 
z
" clip-path="url(#p9e621fa601)" style="fill: #de8f05; fill-opacity: 0.4; stroke: #000000; stroke-width: 0.507273; stroke-linejoin: miter"/>
   </g>
   <g id="patch_93">
    <path d="M -58.76544 154.591221 
L -50.738713 154.591221 
L -50.738713 154.573411 
L -58.76544 154.573411 
z
" clip-path="url(#p9e621fa601)" style="fill: #0173b2; fill-opacity: 0.4; stroke: #000000; stroke-width: 0.507273; stroke-linejoin: miter"/>
   </g>
   <g id="patch_94">
    <path d="M -50.738713 154.591221 
L -42.711986 154.591221 
L -42.711986 154.591221 
L -50.738713 154.591221 
z
" clip-path="url(#p9e621fa601)" style="fill: #0173b2; fill-opacity: 0.4; stroke: #000000; stroke-width: 0.507273; stroke-linejoin: miter"/>
   </g>
   <g id="patch_95">
    <path d="M -42.711986 154.591221 
L -34.685259 154.591221 
L -34.685259 154.591221 
L -42.711986 154.591221 
z
" clip-path="url(#p9e621fa601)" style="fill: #0173b2; fill-opacity: 0.4; stroke: #000000; stroke-width: 0.507273; stroke-linejoin: miter"/>
   </g>
   <g id="patch_96">
    <path d="M -34.685259 154.591221 
L -26.658532 154.591221 
L -26.658532 154.591221 
L -34.685259 154.591221 
z
" clip-path="url(#p9e621fa601)" style="fill: #0173b2; fill-opacity: 0.4; stroke: #000000; stroke-width: 0.507273; stroke-linejoin: miter"/>
   </g>
   <g id="patch_97">
    <path d="M -26.658532 154.591221 
L -18.631805 154.591221 
L -18.631805 154.591221 
L -26.658532 154.591221 
z
" clip-path="url(#p9e621fa601)" style="fill: #0173b2; fill-opacity: 0.4; stroke: #000000; stroke-width: 0.507273; stroke-linejoin: miter"/>
   </g>
   <g id="patch_98">
    <path d="M -18.631805 154.591221 
L -10.605078 154.591221 
L -10.605078 154.591221 
L -18.631805 154.591221 
z
" clip-path="url(#p9e621fa601)" style="fill: #0173b2; fill-opacity: 0.4; stroke: #000000; stroke-width: 0.507273; stroke-linejoin: miter"/>
   </g>
   <g id="patch_99">
    <path d="M -10.605078 154.591221 
L -2.578351 154.591221 
L -2.578351 154.591221 
L -10.605078 154.591221 
z
" clip-path="url(#p9e621fa601)" style="fill: #0173b2; fill-opacity: 0.4; stroke: #000000; stroke-width: 0.507273; stroke-linejoin: miter"/>
   </g>
   <g id="patch_100">
    <path d="M -2.578351 154.591221 
L 5.448375 154.591221 
L 5.448375 154.591221 
L -2.578351 154.591221 
z
" clip-path="url(#p9e621fa601)" style="fill: #0173b2; fill-opacity: 0.4; stroke: #000000; stroke-width: 0.507273; stroke-linejoin: miter"/>
   </g>
   <g id="patch_101">
    <path d="M 5.448375 154.591221 
L 13.475102 154.591221 
L 13.475102 154.573411 
L 5.448375 154.573411 
z
" clip-path="url(#p9e621fa601)" style="fill: #0173b2; fill-opacity: 0.4; stroke: #000000; stroke-width: 0.507273; stroke-linejoin: miter"/>
   </g>
   <g id="patch_102">
    <path d="M 13.475102 154.591221 
L 21.501829 154.591221 
L 21.501829 154.573411 
L 13.475102 154.573411 
z
" clip-path="url(#p9e621fa601)" style="fill: #0173b2; fill-opacity: 0.4; stroke: #000000; stroke-width: 0.507273; stroke-linejoin: miter"/>
   </g>
   <g id="patch_103">
    <path d="M 21.501829 154.591221 
L 29.528556 154.591221 
L 29.528556 154.555602 
L 21.501829 154.555602 
z
" clip-path="url(#p9e621fa601)" style="fill: #0173b2; fill-opacity: 0.4; stroke: #000000; stroke-width: 0.507273; stroke-linejoin: miter"/>
   </g>
   <g id="patch_104">
    <path d="M 29.528556 154.591221 
L 37.555283 154.591221 
L 37.555283 154.573411 
L 29.528556 154.573411 
z
" clip-path="url(#p9e621fa601)" style="fill: #0173b2; fill-opacity: 0.4; stroke: #000000; stroke-width: 0.507273; stroke-linejoin: miter"/>
   </g>
   <g id="patch_105">
    <path d="M 37.555283 154.591221 
L 45.58201 154.591221 
L 45.58201 154.537792 
L 37.555283 154.537792 
z
" clip-path="url(#p9e621fa601)" style="fill: #0173b2; fill-opacity: 0.4; stroke: #000000; stroke-width: 0.507273; stroke-linejoin: miter"/>
   </g>
   <g id="patch_106">
    <path d="M 45.58201 154.591221 
L 53.608737 154.591221 
L 53.608737 154.377507 
L 45.58201 154.377507 
z
" clip-path="url(#p9e621fa601)" style="fill: #0173b2; fill-opacity: 0.4; stroke: #000000; stroke-width: 0.507273; stroke-linejoin: miter"/>
   </g>
   <g id="patch_107">
    <path d="M 53.608737 154.591221 
L 61.635464 154.591221 
L 61.635464 154.27065 
L 53.608737 154.27065 
z
" clip-path="url(#p9e621fa601)" style="fill: #0173b2; fill-opacity: 0.4; stroke: #000000; stroke-width: 0.507273; stroke-linejoin: miter"/>
   </g>
   <g id="patch_108">
    <path d="M 61.635464 154.591221 
L 69.662191 154.591221 
L 69.662191 153.93227 
L 61.635464 153.93227 
z
" clip-path="url(#p9e621fa601)" style="fill: #0173b2; fill-opacity: 0.4; stroke: #000000; stroke-width: 0.507273; stroke-linejoin: miter"/>
   </g>
   <g id="patch_109">
    <path d="M 69.662191 154.591221 
L 77.688918 154.591221 
L 77.688918 153.736366 
L 69.662191 153.736366 
z
" clip-path="url(#p9e621fa601)" style="fill: #0173b2; fill-opacity: 0.4; stroke: #000000; stroke-width: 0.507273; stroke-linejoin: miter"/>
   </g>
   <g id="patch_110">
    <path d="M 77.688918 154.591221 
L 85.715645 154.591221 
L 85.715645 153.736366 
L 77.688918 153.736366 
z
" clip-path="url(#p9e621fa601)" style="fill: #0173b2; fill-opacity: 0.4; stroke: #000000; stroke-width: 0.507273; stroke-linejoin: miter"/>
   </g>
   <g id="patch_111">
    <path d="M 85.715645 154.591221 
L 93.742372 154.591221 
L 93.742372 153.059606 
L 85.715645 153.059606 
z
" clip-path="url(#p9e621fa601)" style="fill: #0173b2; fill-opacity: 0.4; stroke: #000000; stroke-width: 0.507273; stroke-linejoin: miter"/>
   </g>
   <g id="patch_112">
    <path d="M 93.742372 154.591221 
L 101.769099 154.591221 
L 101.769099 152.329418 
L 93.742372 152.329418 
z
" clip-path="url(#p9e621fa601)" style="fill: #0173b2; fill-opacity: 0.4; stroke: #000000; stroke-width: 0.507273; stroke-linejoin: miter"/>
   </g>
   <g id="patch_113">
    <path d="M 101.769099 154.591221 
L 109.795825 154.591221 
L 109.795825 151.171802 
L 101.769099 151.171802 
z
" clip-path="url(#p9e621fa601)" style="fill: #0173b2; fill-opacity: 0.4; stroke: #000000; stroke-width: 0.507273; stroke-linejoin: miter"/>
   </g>
   <g id="patch_114">
    <path d="M 109.795825 154.591221 
L 117.822552 154.591221 
L 117.822552 148.678476 
L 109.795825 148.678476 
z
" clip-path="url(#p9e621fa601)" style="fill: #0173b2; fill-opacity: 0.4; stroke: #000000; stroke-width: 0.507273; stroke-linejoin: miter"/>
   </g>
   <g id="patch_115">
    <path d="M 117.822552 154.591221 
L 125.849279 154.591221 
L 125.849279 146.398864 
L 117.822552 146.398864 
z
" clip-path="url(#p9e621fa601)" style="fill: #0173b2; fill-opacity: 0.4; stroke: #000000; stroke-width: 0.507273; stroke-linejoin: miter"/>
   </g>
   <g id="patch_116">
    <path d="M 125.849279 154.591221 
L 133.876006 154.591221 
L 133.876006 140.80669 
L 125.849279 140.80669 
z
" clip-path="url(#p9e621fa601)" style="fill: #0173b2; fill-opacity: 0.4; stroke: #000000; stroke-width: 0.507273; stroke-linejoin: miter"/>
   </g>
   <g id="patch_117">
    <path d="M 133.876006 154.591221 
L 141.902733 154.591221 
L 141.902733 132.06224 
L 133.876006 132.06224 
z
" clip-path="url(#p9e621fa601)" style="fill: #0173b2; fill-opacity: 0.4; stroke: #000000; stroke-width: 0.507273; stroke-linejoin: miter"/>
   </g>
   <g id="patch_118">
    <path d="M 141.902733 154.591221 
L 149.92946 154.591221 
L 149.92946 115.713145 
L 141.902733 115.713145 
z
" clip-path="url(#p9e621fa601)" style="fill: #0173b2; fill-opacity: 0.4; stroke: #000000; stroke-width: 0.507273; stroke-linejoin: miter"/>
   </g>
   <g id="patch_119">
    <path d="M 149.92946 154.591221 
L 157.956187 154.591221 
L 157.956187 81.376485 
L 149.92946 81.376485 
z
" clip-path="url(#p9e621fa601)" style="fill: #0173b2; fill-opacity: 0.4; stroke: #000000; stroke-width: 0.507273; stroke-linejoin: miter"/>
   </g>
   <g id="patch_120">
    <path d="M 157.956187 154.591221 
L 165.982914 154.591221 
L 165.982914 55.997988 
L 157.956187 55.997988 
z
" clip-path="url(#p9e621fa601)" style="fill: #0173b2; fill-opacity: 0.4; stroke: #000000; stroke-width: 0.507273; stroke-linejoin: miter"/>
   </g>
   <g id="patch_121">
    <path d="M 165.982914 154.591221 
L 174.009641 154.591221 
L 174.009641 106.80841 
L 165.982914 106.80841 
z
" clip-path="url(#p9e621fa601)" style="fill: #0173b2; fill-opacity: 0.4; stroke: #000000; stroke-width: 0.507273; stroke-linejoin: miter"/>
   </g>
   <g id="patch_122">
    <path d="M 174.009641 154.591221 
L 182.036368 154.591221 
L 182.036368 154.235031 
L 174.009641 154.235031 
z
" clip-path="url(#p9e621fa601)" style="fill: #0173b2; fill-opacity: 0.4; stroke: #000000; stroke-width: 0.507273; stroke-linejoin: miter"/>
   </g>
   <g id="matplotlib.axis_1">
    <g id="xtick_1">
     <g id="line2d_1">
      <defs>
       <path id="mfc5140b334" d="M 0 0 
L 0 3.5 
" style="stroke: #000000; stroke-width: 0.8"/>
      </defs>
      <g>
       <use xlink:href="#mfc5140b334" x="57.17" y="154.591221" style="stroke: #000000; stroke-width: 0.8"/>
      </g>
     </g>
     <g id="text_1">
      <!-- 14000 -->
      <g transform="translate(47.873756 189.458962) rotate(-45) scale(0.1 -0.1)">
       <defs>
        <path id="DejaVuSerif-31" d="M 909 0 
L 909 331 
L 1722 331 
L 1722 4213 
L 781 3603 
L 781 4013 
L 1919 4750 
L 2350 4750 
L 2350 331 
L 3163 331 
L 3163 0 
L 909 0 
z
" transform="scale(0.015625)"/>
        <path id="DejaVuSerif-34" d="M 2234 1581 
L 2234 4063 
L 641 1581 
L 2234 1581 
z
M 3609 0 
L 1484 0 
L 1484 331 
L 2234 331 
L 2234 1247 
L 197 1247 
L 197 1588 
L 2241 4750 
L 2859 4750 
L 2859 1581 
L 3750 1581 
L 3750 1247 
L 2859 1247 
L 2859 331 
L 3609 331 
L 3609 0 
z
" transform="scale(0.015625)"/>
        <path id="DejaVuSerif-30" d="M 2034 219 
Q 2513 219 2750 744 
Q 2988 1269 2988 2328 
Q 2988 3391 2750 3916 
Q 2513 4441 2034 4441 
Q 1556 4441 1318 3916 
Q 1081 3391 1081 2328 
Q 1081 1269 1318 744 
Q 1556 219 2034 219 
z
M 2034 -91 
Q 1275 -91 848 546 
Q 422 1184 422 2328 
Q 422 3475 848 4112 
Q 1275 4750 2034 4750 
Q 2797 4750 3222 4112 
Q 3647 3475 3647 2328 
Q 3647 1184 3222 546 
Q 2797 -91 2034 -91 
z
" transform="scale(0.015625)"/>
       </defs>
       <use xlink:href="#DejaVuSerif-31"/>
       <use xlink:href="#DejaVuSerif-34" x="63.623047"/>
       <use xlink:href="#DejaVuSerif-30" x="127.246094"/>
       <use xlink:href="#DejaVuSerif-30" x="190.869141"/>
       <use xlink:href="#DejaVuSerif-30" x="254.492188"/>
      </g>
     </g>
    </g>
    <g id="xtick_2">
     <g id="line2d_2">
      <g>
       <use xlink:href="#mfc5140b334" x="90.494358" y="154.591221" style="stroke: #000000; stroke-width: 0.8"/>
      </g>
     </g>
     <g id="text_2">
      <!-- 15000 -->
      <g transform="translate(81.198113 189.458962) rotate(-45) scale(0.1 -0.1)">
       <defs>
        <path id="DejaVuSerif-35" d="M 3219 4666 
L 3219 4153 
L 1081 4153 
L 1081 2816 
Q 1244 2928 1461 2984 
Q 1678 3041 1947 3041 
Q 2703 3041 3140 2622 
Q 3578 2203 3578 1478 
Q 3578 738 3136 323 
Q 2694 -91 1894 -91 
Q 1572 -91 1234 -12 
Q 897 66 544 225 
L 544 1131 
L 897 1131 
Q 925 688 1179 453 
Q 1434 219 1894 219 
Q 2388 219 2653 544 
Q 2919 869 2919 1478 
Q 2919 2084 2655 2407 
Q 2391 2731 1894 2731 
Q 1613 2731 1398 2631 
Q 1184 2531 1019 2322 
L 750 2322 
L 750 4666 
L 3219 4666 
z
" transform="scale(0.015625)"/>
       </defs>
       <use xlink:href="#DejaVuSerif-31"/>
       <use xlink:href="#DejaVuSerif-35" x="63.623047"/>
       <use xlink:href="#DejaVuSerif-30" x="127.246094"/>
       <use xlink:href="#DejaVuSerif-30" x="190.869141"/>
       <use xlink:href="#DejaVuSerif-30" x="254.492188"/>
      </g>
     </g>
    </g>
    <g id="xtick_3">
     <g id="line2d_3">
      <g>
       <use xlink:href="#mfc5140b334" x="123.818715" y="154.591221" style="stroke: #000000; stroke-width: 0.8"/>
      </g>
     </g>
     <g id="text_3">
      <!-- 16000 -->
      <g transform="translate(114.522471 189.458962) rotate(-45) scale(0.1 -0.1)">
       <defs>
        <path id="DejaVuSerif-36" d="M 2094 219 
Q 2534 219 2771 542 
Q 3009 866 3009 1472 
Q 3009 2078 2771 2401 
Q 2534 2725 2094 2725 
Q 1647 2725 1412 2412 
Q 1178 2100 1178 1509 
Q 1178 888 1415 553 
Q 1653 219 2094 219 
z
M 1075 2569 
Q 1288 2803 1556 2918 
Q 1825 3034 2163 3034 
Q 2859 3034 3264 2615 
Q 3669 2197 3669 1472 
Q 3669 763 3233 336 
Q 2797 -91 2069 -91 
Q 1278 -91 853 498 
Q 428 1088 428 2181 
Q 428 3406 931 4078 
Q 1434 4750 2350 4750 
Q 2597 4750 2869 4703 
Q 3141 4656 3425 4563 
L 3425 3794 
L 3072 3794 
Q 3034 4109 2831 4275 
Q 2628 4441 2284 4441 
Q 1678 4441 1381 3981 
Q 1084 3522 1075 2569 
z
" transform="scale(0.015625)"/>
       </defs>
       <use xlink:href="#DejaVuSerif-31"/>
       <use xlink:href="#DejaVuSerif-36" x="63.623047"/>
       <use xlink:href="#DejaVuSerif-30" x="127.246094"/>
       <use xlink:href="#DejaVuSerif-30" x="190.869141"/>
       <use xlink:href="#DejaVuSerif-30" x="254.492188"/>
      </g>
     </g>
    </g>
    <g id="xtick_4">
     <g id="line2d_4">
      <g>
       <use xlink:href="#mfc5140b334" x="157.143073" y="154.591221" style="stroke: #000000; stroke-width: 0.8"/>
      </g>
     </g>
     <g id="text_4">
      <!-- 17000 -->
      <g transform="translate(147.846828 189.458962) rotate(-45) scale(0.1 -0.1)">
       <defs>
        <path id="DejaVuSerif-37" d="M 3609 4347 
L 1784 0 
L 1319 0 
L 3059 4153 
L 903 4153 
L 903 3578 
L 538 3578 
L 538 4666 
L 3609 4666 
L 3609 4347 
z
" transform="scale(0.015625)"/>
       </defs>
       <use xlink:href="#DejaVuSerif-31"/>
       <use xlink:href="#DejaVuSerif-37" x="63.623047"/>
       <use xlink:href="#DejaVuSerif-30" x="127.246094"/>
       <use xlink:href="#DejaVuSerif-30" x="190.869141"/>
       <use xlink:href="#DejaVuSerif-30" x="254.492188"/>
      </g>
     </g>
    </g>
    <g id="xtick_5">
     <g id="line2d_5">
      <g>
       <use xlink:href="#mfc5140b334" x="190.46743" y="154.591221" style="stroke: #000000; stroke-width: 0.8"/>
      </g>
     </g>
     <g id="text_5">
      <!-- 18000 -->
      <g transform="translate(181.171186 189.458962) rotate(-45) scale(0.1 -0.1)">
       <defs>
        <path id="DejaVuSerif-38" d="M 2981 1275 
Q 2981 1775 2732 2051 
Q 2484 2328 2034 2328 
Q 1584 2328 1336 2051 
Q 1088 1775 1088 1275 
Q 1088 772 1336 495 
Q 1584 219 2034 219 
Q 2484 219 2732 495 
Q 2981 772 2981 1275 
z
M 2853 3541 
Q 2853 3966 2637 4203 
Q 2422 4441 2034 4441 
Q 1650 4441 1433 4203 
Q 1216 3966 1216 3541 
Q 1216 3113 1433 2875 
Q 1650 2638 2034 2638 
Q 2422 2638 2637 2875 
Q 2853 3113 2853 3541 
z
M 2516 2484 
Q 3047 2413 3344 2092 
Q 3641 1772 3641 1275 
Q 3641 619 3225 264 
Q 2809 -91 2034 -91 
Q 1263 -91 845 264 
Q 428 619 428 1275 
Q 428 1772 725 2092 
Q 1022 2413 1556 2484 
Q 1084 2569 832 2842 
Q 581 3116 581 3541 
Q 581 4103 968 4426 
Q 1356 4750 2034 4750 
Q 2713 4750 3100 4426 
Q 3488 4103 3488 3541 
Q 3488 3116 3236 2842 
Q 2984 2569 2516 2484 
z
" transform="scale(0.015625)"/>
       </defs>
       <use xlink:href="#DejaVuSerif-31"/>
       <use xlink:href="#DejaVuSerif-38" x="63.623047"/>
       <use xlink:href="#DejaVuSerif-30" x="127.246094"/>
       <use xlink:href="#DejaVuSerif-30" x="190.869141"/>
       <use xlink:href="#DejaVuSerif-30" x="254.492188"/>
      </g>
     </g>
    </g>
    <g id="text_6">
     <!-- Number of zeroes per cell -->
     <g transform="translate(57.688246 202.527961) scale(0.1 -0.1)">
      <defs>
       <path id="DejaVuSerif-4e" d="M 313 0 
L 313 331 
L 941 331 
L 941 4331 
L 313 4331 
L 313 4666 
L 1509 4666 
L 4306 984 
L 4306 4331 
L 3681 4331 
L 3681 4666 
L 5319 4666 
L 5319 4331 
L 4691 4331 
L 4691 -91 
L 4313 -91 
L 1325 3841 
L 1325 331 
L 1953 331 
L 1953 0 
L 313 0 
z
" transform="scale(0.015625)"/>
       <path id="DejaVuSerif-75" d="M 2266 3322 
L 3341 3322 
L 3341 331 
L 3884 331 
L 3884 0 
L 2766 0 
L 2766 588 
Q 2606 256 2353 82 
Q 2100 -91 1766 -91 
Q 1213 -91 952 223 
Q 691 538 691 1209 
L 691 2988 
L 172 2988 
L 172 3322 
L 1269 3322 
L 1269 1388 
Q 1269 781 1417 556 
Q 1566 331 1947 331 
Q 2347 331 2556 625 
Q 2766 919 2766 1478 
L 2766 2988 
L 2266 2988 
L 2266 3322 
z
" transform="scale(0.015625)"/>
       <path id="DejaVuSerif-6d" d="M 3316 2675 
Q 3481 3041 3739 3227 
Q 3997 3413 4341 3413 
Q 4863 3413 5119 3089 
Q 5375 2766 5375 2113 
L 5375 331 
L 5894 331 
L 5894 0 
L 4300 0 
L 4300 331 
L 4800 331 
L 4800 2047 
Q 4800 2556 4650 2772 
Q 4500 2988 4153 2988 
Q 3769 2988 3567 2697 
Q 3366 2406 3366 1850 
L 3366 331 
L 3866 331 
L 3866 0 
L 2291 0 
L 2291 331 
L 2791 331 
L 2791 2069 
Q 2791 2566 2641 2777 
Q 2491 2988 2144 2988 
Q 1759 2988 1557 2697 
Q 1356 2406 1356 1850 
L 1356 331 
L 1856 331 
L 1856 0 
L 263 0 
L 263 331 
L 781 331 
L 781 2994 
L 231 2994 
L 231 3322 
L 1356 3322 
L 1356 2731 
Q 1516 3063 1762 3238 
Q 2009 3413 2322 3413 
Q 2709 3413 2968 3220 
Q 3228 3028 3316 2675 
z
" transform="scale(0.015625)"/>
       <path id="DejaVuSerif-62" d="M 738 331 
L 738 4531 
L 184 4531 
L 184 4863 
L 1313 4863 
L 1313 2803 
Q 1481 3116 1742 3264 
Q 2003 3413 2388 3413 
Q 3000 3413 3387 2928 
Q 3775 2444 3775 1663 
Q 3775 881 3387 395 
Q 3000 -91 2388 -91 
Q 2003 -91 1742 57 
Q 1481 206 1313 519 
L 1313 0 
L 184 0 
L 184 331 
L 738 331 
z
M 1313 1497 
Q 1313 897 1542 583 
Q 1772 269 2209 269 
Q 2650 269 2876 622 
Q 3103 975 3103 1663 
Q 3103 2353 2876 2703 
Q 2650 3053 2209 3053 
Q 1772 3053 1542 2737 
Q 1313 2422 1313 1825 
L 1313 1497 
z
" transform="scale(0.015625)"/>
       <path id="DejaVuSerif-65" d="M 3469 1600 
L 991 1600 
L 991 1575 
Q 991 903 1244 561 
Q 1497 219 1991 219 
Q 2369 219 2611 417 
Q 2853 616 2950 1006 
L 3413 1006 
Q 3275 459 2904 184 
Q 2534 -91 1931 -91 
Q 1203 -91 761 389 
Q 319 869 319 1663 
Q 319 2450 753 2931 
Q 1188 3413 1894 3413 
Q 2647 3413 3050 2948 
Q 3453 2484 3469 1600 
z
M 2791 1931 
Q 2772 2513 2545 2808 
Q 2319 3103 1894 3103 
Q 1497 3103 1269 2806 
Q 1041 2509 991 1931 
L 2791 1931 
z
" transform="scale(0.015625)"/>
       <path id="DejaVuSerif-72" d="M 3059 3328 
L 3059 2497 
L 2728 2497 
Q 2713 2744 2591 2866 
Q 2469 2988 2234 2988 
Q 1809 2988 1582 2694 
Q 1356 2400 1356 1850 
L 1356 331 
L 2022 331 
L 2022 0 
L 263 0 
L 263 331 
L 781 331 
L 781 2994 
L 231 2994 
L 231 3322 
L 1356 3322 
L 1356 2731 
Q 1525 3078 1790 3245 
Q 2056 3413 2438 3413 
Q 2578 3413 2733 3391 
Q 2888 3369 3059 3328 
z
" transform="scale(0.015625)"/>
       <path id="DejaVuSerif-20" transform="scale(0.015625)"/>
       <path id="DejaVuSerif-6f" d="M 1925 219 
Q 2388 219 2623 584 
Q 2859 950 2859 1663 
Q 2859 2375 2623 2739 
Q 2388 3103 1925 3103 
Q 1463 3103 1227 2739 
Q 991 2375 991 1663 
Q 991 950 1228 584 
Q 1466 219 1925 219 
z
M 1925 -91 
Q 1200 -91 759 389 
Q 319 869 319 1663 
Q 319 2456 758 2934 
Q 1197 3413 1925 3413 
Q 2653 3413 3092 2934 
Q 3531 2456 3531 1663 
Q 3531 869 3092 389 
Q 2653 -91 1925 -91 
z
" transform="scale(0.015625)"/>
       <path id="DejaVuSerif-66" d="M 2753 4078 
L 2450 4078 
Q 2447 4313 2317 4434 
Q 2188 4556 1941 4556 
Q 1619 4556 1487 4379 
Q 1356 4203 1356 3750 
L 1356 3322 
L 2284 3322 
L 2284 2988 
L 1356 2988 
L 1356 331 
L 2094 331 
L 2094 0 
L 231 0 
L 231 331 
L 781 331 
L 781 2988 
L 231 2988 
L 231 3322 
L 781 3322 
L 781 3738 
Q 781 4294 1070 4578 
Q 1359 4863 1919 4863 
Q 2128 4863 2337 4825 
Q 2547 4788 2753 4709 
L 2753 4078 
z
" transform="scale(0.015625)"/>
       <path id="DejaVuSerif-7a" d="M 256 0 
L 256 269 
L 2338 2988 
L 691 2988 
L 691 2413 
L 359 2413 
L 359 3322 
L 3078 3322 
L 3078 3053 
L 997 331 
L 2803 331 
L 2803 934 
L 3138 934 
L 3138 0 
L 256 0 
z
" transform="scale(0.015625)"/>
       <path id="DejaVuSerif-73" d="M 359 184 
L 359 959 
L 691 959 
Q 703 588 923 403 
Q 1144 219 1575 219 
Q 1963 219 2166 364 
Q 2369 509 2369 788 
Q 2369 1006 2220 1140 
Q 2072 1275 1594 1428 
L 1178 1569 
Q 750 1706 558 1912 
Q 366 2119 366 2438 
Q 366 2894 700 3153 
Q 1034 3413 1625 3413 
Q 1888 3413 2178 3344 
Q 2469 3275 2778 3144 
L 2778 2419 
L 2447 2419 
Q 2434 2741 2221 2922 
Q 2009 3103 1644 3103 
Q 1281 3103 1095 2975 
Q 909 2847 909 2591 
Q 909 2381 1050 2254 
Q 1191 2128 1613 1997 
L 2069 1856 
Q 2541 1709 2748 1489 
Q 2956 1269 2956 922 
Q 2956 450 2595 179 
Q 2234 -91 1600 -91 
Q 1278 -91 972 -22 
Q 666 47 359 184 
z
" transform="scale(0.015625)"/>
       <path id="DejaVuSerif-70" d="M 1313 1825 
L 1313 1497 
Q 1313 897 1542 583 
Q 1772 269 2209 269 
Q 2650 269 2876 622 
Q 3103 975 3103 1663 
Q 3103 2353 2876 2703 
Q 2650 3053 2209 3053 
Q 1772 3053 1542 2737 
Q 1313 2422 1313 1825 
z
M 738 2988 
L 184 2988 
L 184 3322 
L 1313 3322 
L 1313 2803 
Q 1481 3116 1742 3264 
Q 2003 3413 2388 3413 
Q 3000 3413 3387 2928 
Q 3775 2444 3775 1663 
Q 3775 881 3387 395 
Q 3000 -91 2388 -91 
Q 2003 -91 1742 57 
Q 1481 206 1313 519 
L 1313 -997 
L 1856 -997 
L 1856 -1331 
L 184 -1331 
L 184 -997 
L 738 -997 
L 738 2988 
z
" transform="scale(0.015625)"/>
       <path id="DejaVuSerif-63" d="M 3291 997 
Q 3169 466 2822 187 
Q 2475 -91 1925 -91 
Q 1200 -91 759 389 
Q 319 869 319 1663 
Q 319 2459 759 2936 
Q 1200 3413 1925 3413 
Q 2241 3413 2553 3339 
Q 2866 3266 3181 3116 
L 3181 2266 
L 2847 2266 
Q 2781 2703 2561 2903 
Q 2341 3103 1931 3103 
Q 1466 3103 1228 2742 
Q 991 2381 991 1663 
Q 991 944 1227 581 
Q 1463 219 1931 219 
Q 2303 219 2525 412 
Q 2747 606 2828 997 
L 3291 997 
z
" transform="scale(0.015625)"/>
       <path id="DejaVuSerif-6c" d="M 1313 331 
L 1856 331 
L 1856 0 
L 184 0 
L 184 331 
L 738 331 
L 738 4531 
L 184 4531 
L 184 4863 
L 1313 4863 
L 1313 331 
z
" transform="scale(0.015625)"/>
      </defs>
      <use xlink:href="#DejaVuSerif-4e"/>
      <use xlink:href="#DejaVuSerif-75" x="87.5"/>
      <use xlink:href="#DejaVuSerif-6d" x="151.904297"/>
      <use xlink:href="#DejaVuSerif-62" x="246.728516"/>
      <use xlink:href="#DejaVuSerif-65" x="310.742188"/>
      <use xlink:href="#DejaVuSerif-72" x="369.921875"/>
      <use xlink:href="#DejaVuSerif-20" x="417.724609"/>
      <use xlink:href="#DejaVuSerif-6f" x="449.511719"/>
      <use xlink:href="#DejaVuSerif-66" x="509.716797"/>
      <use xlink:href="#DejaVuSerif-20" x="546.728516"/>
      <use xlink:href="#DejaVuSerif-7a" x="578.515625"/>
      <use xlink:href="#DejaVuSerif-65" x="631.201172"/>
      <use xlink:href="#DejaVuSerif-72" x="690.380859"/>
      <use xlink:href="#DejaVuSerif-6f" x="738.183594"/>
      <use xlink:href="#DejaVuSerif-65" x="798.388672"/>
      <use xlink:href="#DejaVuSerif-73" x="857.568359"/>
      <use xlink:href="#DejaVuSerif-20" x="908.886719"/>
      <use xlink:href="#DejaVuSerif-70" x="940.673828"/>
      <use xlink:href="#DejaVuSerif-65" x="1004.6875"/>
      <use xlink:href="#DejaVuSerif-72" x="1063.867188"/>
      <use xlink:href="#DejaVuSerif-20" x="1111.669922"/>
      <use xlink:href="#DejaVuSerif-63" x="1143.457031"/>
      <use xlink:href="#DejaVuSerif-65" x="1199.462891"/>
      <use xlink:href="#DejaVuSerif-6c" x="1258.642578"/>
      <use xlink:href="#DejaVuSerif-6c" x="1290.625"/>
     </g>
    </g>
   </g>
   <g id="matplotlib.axis_2">
    <g id="ytick_1">
     <g id="line2d_6">
      <defs>
       <path id="mbf8060faa3" d="M 0 0 
L -3.5 0 
" style="stroke: #000000; stroke-width: 0.8"/>
      </defs>
      <g>
       <use xlink:href="#mbf8060faa3" x="57.17" y="154.591221" style="stroke: #000000; stroke-width: 0.8"/>
      </g>
     </g>
     <g id="text_7">
      <!-- 0 -->
      <g transform="translate(43.8075 158.39044) scale(0.1 -0.1)">
       <use xlink:href="#DejaVuSerif-30"/>
      </g>
     </g>
    </g>
    <g id="ytick_2">
     <g id="line2d_7">
      <g>
       <use xlink:href="#mbf8060faa3" x="57.17" y="118.972278" style="stroke: #000000; stroke-width: 0.8"/>
      </g>
     </g>
     <g id="text_8">
      <!-- 2000 -->
      <g transform="translate(24.72 122.771497) scale(0.1 -0.1)">
       <defs>
        <path id="DejaVuSerif-32" d="M 819 3553 
L 469 3553 
L 469 4384 
Q 803 4563 1142 4656 
Q 1481 4750 1806 4750 
Q 2534 4750 2956 4397 
Q 3378 4044 3378 3438 
Q 3378 2753 2422 1800 
Q 2347 1728 2309 1691 
L 1131 513 
L 3078 513 
L 3078 1088 
L 3444 1088 
L 3444 0 
L 434 0 
L 434 341 
L 1850 1753 
Q 2319 2222 2519 2614 
Q 2719 3006 2719 3438 
Q 2719 3909 2473 4175 
Q 2228 4441 1797 4441 
Q 1350 4441 1106 4219 
Q 863 3997 819 3553 
z
" transform="scale(0.015625)"/>
       </defs>
       <use xlink:href="#DejaVuSerif-32"/>
       <use xlink:href="#DejaVuSerif-30" x="63.623047"/>
       <use xlink:href="#DejaVuSerif-30" x="127.246094"/>
       <use xlink:href="#DejaVuSerif-30" x="190.869141"/>
      </g>
     </g>
    </g>
    <g id="ytick_3">
     <g id="line2d_8">
      <g>
       <use xlink:href="#mbf8060faa3" x="57.17" y="83.353336" style="stroke: #000000; stroke-width: 0.8"/>
      </g>
     </g>
     <g id="text_9">
      <!-- 4000 -->
      <g transform="translate(24.72 87.152555) scale(0.1 -0.1)">
       <use xlink:href="#DejaVuSerif-34"/>
       <use xlink:href="#DejaVuSerif-30" x="63.623047"/>
       <use xlink:href="#DejaVuSerif-30" x="127.246094"/>
       <use xlink:href="#DejaVuSerif-30" x="190.869141"/>
      </g>
     </g>
    </g>
    <g id="ytick_4">
     <g id="line2d_9">
      <g>
       <use xlink:href="#mbf8060faa3" x="57.17" y="47.734393" style="stroke: #000000; stroke-width: 0.8"/>
      </g>
     </g>
     <g id="text_10">
      <!-- 6000 -->
      <g transform="translate(24.72 51.533612) scale(0.1 -0.1)">
       <use xlink:href="#DejaVuSerif-36"/>
       <use xlink:href="#DejaVuSerif-30" x="63.623047"/>
       <use xlink:href="#DejaVuSerif-30" x="127.246094"/>
       <use xlink:href="#DejaVuSerif-30" x="190.869141"/>
      </g>
     </g>
    </g>
    <g id="text_11">
     <!-- Frequency -->
     <g transform="translate(18.498125 117.420142) rotate(-90) scale(0.1 -0.1)">
      <defs>
       <path id="DejaVuSerif-46" d="M 353 0 
L 353 331 
L 947 331 
L 947 4331 
L 353 4331 
L 353 4666 
L 4172 4666 
L 4172 3628 
L 3788 3628 
L 3788 4281 
L 1581 4281 
L 1581 2719 
L 3175 2719 
L 3175 3303 
L 3559 3303 
L 3559 1753 
L 3175 1753 
L 3175 2338 
L 1581 2338 
L 1581 331 
L 2328 331 
L 2328 0 
L 353 0 
z
" transform="scale(0.015625)"/>
       <path id="DejaVuSerif-71" d="M 3359 2988 
L 3359 -997 
L 3909 -997 
L 3909 -1331 
L 2241 -1331 
L 2241 -997 
L 2784 -997 
L 2784 519 
Q 2616 206 2355 57 
Q 2094 -91 1709 -91 
Q 1097 -91 708 395 
Q 319 881 319 1663 
Q 319 2444 706 2928 
Q 1094 3413 1709 3413 
Q 2094 3413 2355 3264 
Q 2616 3116 2784 2803 
L 2784 3322 
L 3909 3322 
L 3909 2988 
L 3359 2988 
z
M 2784 1825 
Q 2784 2422 2554 2737 
Q 2325 3053 1888 3053 
Q 1444 3053 1217 2703 
Q 991 2353 991 1663 
Q 991 975 1217 622 
Q 1444 269 1888 269 
Q 2325 269 2554 583 
Q 2784 897 2784 1497 
L 2784 1825 
z
" transform="scale(0.015625)"/>
       <path id="DejaVuSerif-6e" d="M 263 0 
L 263 331 
L 781 331 
L 781 2988 
L 231 2988 
L 231 3322 
L 1356 3322 
L 1356 2731 
Q 1516 3069 1770 3241 
Q 2025 3413 2363 3413 
Q 2913 3413 3172 3097 
Q 3431 2781 3431 2113 
L 3431 331 
L 3944 331 
L 3944 0 
L 2356 0 
L 2356 331 
L 2853 331 
L 2853 1931 
Q 2853 2541 2703 2767 
Q 2553 2994 2175 2994 
Q 1775 2994 1565 2701 
Q 1356 2409 1356 1850 
L 1356 331 
L 1856 331 
L 1856 0 
L 263 0 
z
" transform="scale(0.015625)"/>
       <path id="DejaVuSerif-79" d="M 1381 -609 
L 1600 -56 
L 359 2988 
L -19 2988 
L -19 3322 
L 1509 3322 
L 1509 2988 
L 978 2988 
L 1913 703 
L 2847 2988 
L 2350 2988 
L 2350 3322 
L 3597 3322 
L 3597 2988 
L 3225 2988 
L 1703 -750 
Q 1547 -1138 1356 -1280 
Q 1166 -1422 819 -1422 
Q 672 -1422 517 -1397 
Q 363 -1372 206 -1325 
L 206 -691 
L 500 -691 
Q 519 -903 608 -995 
Q 697 -1088 884 -1088 
Q 1056 -1088 1161 -992 
Q 1266 -897 1381 -609 
z
" transform="scale(0.015625)"/>
      </defs>
      <use xlink:href="#DejaVuSerif-46"/>
      <use xlink:href="#DejaVuSerif-72" x="69.384766"/>
      <use xlink:href="#DejaVuSerif-65" x="117.1875"/>
      <use xlink:href="#DejaVuSerif-71" x="176.367188"/>
      <use xlink:href="#DejaVuSerif-75" x="240.380859"/>
      <use xlink:href="#DejaVuSerif-65" x="304.785156"/>
      <use xlink:href="#DejaVuSerif-6e" x="363.964844"/>
      <use xlink:href="#DejaVuSerif-63" x="428.369141"/>
      <use xlink:href="#DejaVuSerif-79" x="484.375"/>
     </g>
    </g>
   </g>
   <g id="line2d_10">
    <path d="M -1 154.591221 
L 127.583698 154.52168 
L 130.003816 154.390755 
L 133.633994 154.351064 
L 134.844054 154.174207 
L 137.264172 153.598456 
L 138.474232 153.467458 
L 139.684291 153.167097 
L 140.89435 152.612356 
L 143.314469 151.093157 
L 144.524528 150.112892 
L 145.734588 148.892798 
L 146.944647 147.407822 
L 150.574825 140.967075 
L 151.784884 138.415742 
L 152.994944 134.478873 
L 155.415062 124.341106 
L 156.625122 120.039443 
L 157.835181 114.244317 
L 160.2553 101.482242 
L 162.675418 89.77342 
L 166.305596 69.796223 
L 168.725715 58.090897 
L 171.145834 44.372858 
L 172.355893 41.029756 
L 173.565952 38.898252 
L 174.776012 37.615479 
L 175.986071 37.132458 
L 177.19613 36.970278 
L 178.40619 35.916314 
L 179.616249 33.204291 
L 180.826308 43.391955 
L 182.036368 85.893519 
L 182.036368 85.893519 
" clip-path="url(#p9e621fa601)" style="fill: none; stroke: #d55e00; stroke-width: 2; stroke-linecap: square"/>
   </g>
   <g id="line2d_11">
    <path d="M -1 154.591221 
L 33.19907 154.494255 
L 53.770078 154.09381 
L 56.190197 153.987314 
L 61.030434 153.493411 
L 64.660612 153.291361 
L 68.29079 152.811197 
L 71.920968 152.61823 
L 75.551146 152.533366 
L 77.971265 152.130622 
L 81.601443 151.491801 
L 85.231621 151.158728 
L 90.071858 150.977387 
L 92.491977 150.54228 
L 94.912096 149.864068 
L 99.752333 148.127936 
L 104.59257 147.36428 
L 105.80263 146.965659 
L 107.012689 146.309462 
L 113.062986 141.890881 
L 115.483104 139.796696 
L 117.903223 137.242666 
L 120.323342 134.139612 
L 121.533401 132.346331 
L 122.74346 130.25483 
L 123.95352 127.645877 
L 125.163579 124.400279 
L 127.583698 116.515481 
L 130.003816 107.586503 
L 132.423935 97.467271 
L 133.633994 91.739506 
L 136.054113 78.540374 
L 138.474232 64.931616 
L 139.684291 59.154056 
L 140.89435 54.358033 
L 142.10441 50.604328 
L 143.314469 48.164427 
L 144.524528 47.644302 
L 145.734588 49.736752 
L 146.944647 54.769216 
L 148.154706 62.486545 
L 149.364766 72.240036 
L 154.205003 115.945409 
L 155.415062 124.348825 
L 156.625122 130.839203 
L 157.835181 135.537355 
L 159.04524 138.875207 
L 160.2553 141.358866 
L 161.465359 143.373585 
L 165.095537 148.567923 
L 167.515656 151.657204 
L 168.725715 152.834389 
L 169.935774 153.667834 
L 171.145834 154.17388 
L 172.355893 154.431977 
L 174.776012 154.578075 
L 182.036368 154.591221 
L 182.036368 154.591221 
" clip-path="url(#p9e621fa601)" style="fill: none; stroke: #029e73; stroke-width: 2; stroke-linecap: square"/>
   </g>
   <g id="line2d_12">
    <path d="M -1 154.591207 
L 47.719782 154.488843 
L 76.761206 154.124621 
L 81.601443 153.739756 
L 85.231621 153.599047 
L 90.071858 153.128343 
L 93.702036 152.679985 
L 96.122155 152.468336 
L 102.172452 151.643335 
L 104.59257 151.459843 
L 109.432808 150.674774 
L 110.642867 150.459014 
L 111.852926 150.10768 
L 116.693164 148.217882 
L 120.323342 147.51518 
L 121.533401 146.956082 
L 122.74346 146.106893 
L 123.95352 144.992979 
L 130.003816 138.320743 
L 131.213876 136.77543 
L 132.423935 134.8962 
L 136.054113 128.501303 
L 138.474232 123.755991 
L 140.89435 118.345468 
L 142.10441 115.305348 
L 143.314469 111.904852 
L 145.734588 104.217408 
L 152.994944 79.720874 
L 155.415062 71.101978 
L 156.625122 67.887215 
L 157.835181 66.194034 
L 159.04524 66.196166 
L 160.2553 67.685811 
L 161.465359 70.277093 
L 162.675418 73.698561 
L 163.885478 78.00851 
L 165.095537 83.552159 
L 166.305596 90.615799 
L 167.515656 99.069321 
L 171.145834 126.437303 
L 172.355893 133.995148 
L 173.565952 140.14144 
L 174.776012 144.919867 
L 175.986071 148.515068 
L 177.19613 151.099587 
L 178.40619 152.806854 
L 179.616249 153.797891 
L 180.826308 154.288027 
L 182.036368 154.492041 
L 182.036368 154.492041 
" clip-path="url(#p9e621fa601)" style="fill: none; stroke: #de8f05; stroke-width: 2; stroke-linecap: square"/>
   </g>
   <g id="line2d_13">
    <path d="M -1 154.591159 
L 44.089604 154.479315 
L 77.971265 153.801233 
L 81.601443 153.731071 
L 102.172452 151.90674 
L 104.59257 151.390988 
L 108.222748 150.363683 
L 111.852926 149.251361 
L 116.693164 147.877048 
L 123.95352 145.605239 
L 125.163579 144.956486 
L 126.373638 144.079162 
L 128.793757 141.755419 
L 131.213876 139.415978 
L 133.633994 137.182378 
L 136.054113 134.538382 
L 138.474232 131.232686 
L 140.89435 127.208252 
L 142.10441 124.849046 
L 143.314469 122.139423 
L 144.524528 119.040233 
L 146.944647 111.904177 
L 148.154706 107.888426 
L 149.364766 103.391548 
L 150.574825 98.292949 
L 152.994944 86.71878 
L 155.415062 75.056129 
L 156.625122 69.943902 
L 157.835181 65.549892 
L 159.04524 61.885163 
L 160.2553 58.973296 
L 161.465359 56.928114 
L 162.675418 56.003742 
L 163.885478 56.762964 
L 165.095537 60.148286 
L 166.305596 67.10097 
L 167.515656 77.876163 
L 169.935774 106.662914 
L 171.145834 120.96552 
L 172.355893 132.967648 
L 173.565952 141.906863 
L 174.776012 147.842661 
L 175.986071 151.360408 
L 177.19613 153.213762 
L 178.40619 154.074437 
L 179.616249 154.422782 
L 182.036368 154.580097 
L 182.036368 154.580097 
" clip-path="url(#p9e621fa601)" style="fill: none; stroke: #0173b2; stroke-width: 2; stroke-linecap: square"/>
   </g>
   <g id="patch_123">
    <path d="M 57.17 154.591221 
L 57.17 26.16 
" style="fill: none; stroke: #000000; stroke-width: 0.8; stroke-linejoin: miter; stroke-linecap: square"/>
   </g>
   <g id="patch_124">
    <path d="M 190.46743 154.591221 
L 190.46743 26.16 
" style="fill: none; stroke: #000000; stroke-width: 0.8; stroke-linejoin: miter; stroke-linecap: square"/>
   </g>
   <g id="patch_125">
    <path d="M 57.17 154.591221 
L 190.46743 154.591221 
" style="fill: none; stroke: #000000; stroke-width: 0.8; stroke-linejoin: miter; stroke-linecap: square"/>
   </g>
   <g id="patch_126">
    <path d="M 57.17 26.16 
L 190.46743 26.16 
" style="fill: none; stroke: #000000; stroke-width: 0.8; stroke-linejoin: miter; stroke-linecap: square"/>
   </g>
   <g id="text_12">
    <!-- Tabula Muris -->
    <g transform="translate(83.72184 20.16) scale(0.12 -0.12)">
     <defs>
      <path id="DejaVuSerif-54" d="M 1222 0 
L 1222 331 
L 1819 331 
L 1819 4294 
L 447 4294 
L 447 3566 
L 63 3566 
L 63 4666 
L 4206 4666 
L 4206 3566 
L 3822 3566 
L 3822 4294 
L 2450 4294 
L 2450 331 
L 3047 331 
L 3047 0 
L 1222 0 
z
" transform="scale(0.015625)"/>
      <path id="DejaVuSerif-61" d="M 2547 1044 
L 2547 1747 
L 1806 1747 
Q 1378 1747 1168 1562 
Q 959 1378 959 997 
Q 959 650 1171 447 
Q 1384 244 1747 244 
Q 2106 244 2326 466 
Q 2547 688 2547 1044 
z
M 3122 2075 
L 3122 331 
L 3634 331 
L 3634 0 
L 2547 0 
L 2547 359 
Q 2356 128 2106 18 
Q 1856 -91 1522 -91 
Q 969 -91 644 203 
Q 319 497 319 997 
Q 319 1513 691 1797 
Q 1063 2081 1741 2081 
L 2547 2081 
L 2547 2309 
Q 2547 2688 2317 2895 
Q 2088 3103 1672 3103 
Q 1328 3103 1125 2947 
Q 922 2791 872 2484 
L 575 2484 
L 575 3156 
Q 875 3284 1158 3348 
Q 1441 3413 1709 3413 
Q 2400 3413 2761 3070 
Q 3122 2728 3122 2075 
z
" transform="scale(0.015625)"/>
      <path id="DejaVuSerif-4d" d="M 353 0 
L 353 331 
L 947 331 
L 947 4331 
L 319 4331 
L 319 4666 
L 1678 4666 
L 3316 1344 
L 4953 4666 
L 6228 4666 
L 6228 4331 
L 5606 4331 
L 5606 331 
L 6203 331 
L 6203 0 
L 4378 0 
L 4378 331 
L 4972 331 
L 4972 3938 
L 3372 684 
L 2931 684 
L 1331 3938 
L 1331 331 
L 1925 331 
L 1925 0 
L 353 0 
z
" transform="scale(0.015625)"/>
      <path id="DejaVuSerif-69" d="M 622 4353 
Q 622 4497 726 4603 
Q 831 4709 978 4709 
Q 1122 4709 1226 4603 
Q 1331 4497 1331 4353 
Q 1331 4206 1228 4103 
Q 1125 4000 978 4000 
Q 831 4000 726 4103 
Q 622 4206 622 4353 
z
M 1356 331 
L 1900 331 
L 1900 0 
L 231 0 
L 231 331 
L 781 331 
L 781 2988 
L 231 2988 
L 231 3322 
L 1356 3322 
L 1356 331 
z
" transform="scale(0.015625)"/>
     </defs>
     <use xlink:href="#DejaVuSerif-54"/>
     <use xlink:href="#DejaVuSerif-61" x="58.949219"/>
     <use xlink:href="#DejaVuSerif-62" x="118.568359"/>
     <use xlink:href="#DejaVuSerif-75" x="182.582031"/>
     <use xlink:href="#DejaVuSerif-6c" x="246.986328"/>
     <use xlink:href="#DejaVuSerif-61" x="278.96875"/>
     <use xlink:href="#DejaVuSerif-20" x="338.587891"/>
     <use xlink:href="#DejaVuSerif-4d" x="370.375"/>
     <use xlink:href="#DejaVuSerif-75" x="472.767578"/>
     <use xlink:href="#DejaVuSerif-72" x="537.171875"/>
     <use xlink:href="#DejaVuSerif-69" x="584.974609"/>
     <use xlink:href="#DejaVuSerif-73" x="616.957031"/>
    </g>
   </g>
  </g>
 </g>
 <defs>
  <clipPath id="p9e621fa601">
   <rect x="57.17" y="26.16" width="133.29743" height="128.431221"/>
  </clipPath>
 </defs>
</svg>
