<?xml version="1.0" encoding="utf-8" standalone="no"?>
<!DOCTYPE svg PUBLIC "-//W3C//DTD SVG 1.1//EN"
  "http://www.w3.org/Graphics/SVG/1.1/DTD/svg11.dtd">
<svg xmlns:xlink="http://www.w3.org/1999/xlink" width="352.563125pt" height="348.190125pt" viewBox="0 0 352.563125 348.190125" xmlns="http://www.w3.org/2000/svg" version="1.1">
 <metadata>
  <rdf:RDF xmlns:dc="http://purl.org/dc/elements/1.1/" xmlns:cc="http://creativecommons.org/ns#" xmlns:rdf="http://www.w3.org/1999/02/22-rdf-syntax-ns#">
   <cc:Work>
    <dc:type rdf:resource="http://purl.org/dc/dcmitype/StillImage"/>
    <dc:date>2024-11-19T20:01:53.878165</dc:date>
    <dc:format>image/svg+xml</dc:format>
    <dc:creator>
     <cc:Agent>
      <dc:title>Matplotlib v3.8.1, https://matplotlib.org/</dc:title>
     </cc:Agent>
    </dc:creator>
   </cc:Work>
  </rdf:RDF>
 </metadata>
 <defs>
  <style type="text/css">*{stroke-linejoin: round; stroke-linecap: butt}</style>
 </defs>
 <g id="figure_1">
  <g id="patch_1">
   <path d="M 0 348.190125 
L 352.563125 348.190125 
L 352.563125 0 
L 0 0 
z
" style="fill: #ffffff"/>
  </g>
  <g id="axes_1">
   <g id="patch_2">
    <path d="M 59.286875 306.592 
L 292.649375 306.592 
L 292.649375 59.918667 
L 59.286875 59.918667 
z
" style="fill: #ffffff"/>
   </g>
   <g id="PathCollection_1">
    <defs>
     <path id="m30ef2b7f3d" d="M 0 3.162278 
C 0.838646 3.162278 1.643056 2.82908 2.236068 2.236068 
C 2.82908 1.643056 3.162278 0.838646 3.162278 0 
C 3.162278 -0.838646 2.82908 -1.643056 2.236068 -2.236068 
C 1.643056 -2.82908 0.838646 -3.162278 0 -3.162278 
C -0.838646 -3.162278 -1.643056 -2.82908 -2.236068 -2.236068 
C -2.82908 -1.643056 -3.162278 -0.838646 -3.162278 0 
C -3.162278 0.838646 -2.82908 1.643056 -2.236068 2.236068 
C -1.643056 2.82908 -0.838646 3.162278 0 3.162278 
z
" style="stroke: #0072b2"/>
    </defs>
    <g clip-path="url(#p561a30f8b1)">
     <use xlink:href="#m30ef2b7f3d" x="250.702007" y="246.13938" style="fill: #0072b2; stroke: #0072b2"/>
     <use xlink:href="#m30ef2b7f3d" x="225.714528" y="245.405461" style="fill: #0072b2; stroke: #0072b2"/>
     <use xlink:href="#m30ef2b7f3d" x="210.992218" y="227.493398" style="fill: #0072b2; stroke: #0072b2"/>
     <use xlink:href="#m30ef2b7f3d" x="197.182757" y="238.416077" style="fill: #0072b2; stroke: #0072b2"/>
     <use xlink:href="#m30ef2b7f3d" x="192.422972" y="201.451965" style="fill: #0072b2; stroke: #0072b2"/>
     <use xlink:href="#m30ef2b7f3d" x="191.888386" y="221.333277" style="fill: #0072b2; stroke: #0072b2"/>
     <use xlink:href="#m30ef2b7f3d" x="191.480992" y="203.01385" style="fill: #0072b2; stroke: #0072b2"/>
     <use xlink:href="#m30ef2b7f3d" x="188.155383" y="191.890009" style="fill: #0072b2; stroke: #0072b2"/>
     <use xlink:href="#m30ef2b7f3d" x="178.404398" y="212.192686" style="fill: #0072b2; stroke: #0072b2"/>
     <use xlink:href="#m30ef2b7f3d" x="177.649288" y="241.581258" style="fill: #0072b2; stroke: #0072b2"/>
     <use xlink:href="#m30ef2b7f3d" x="167.897119" y="134.086813" style="fill: #0072b2; stroke: #0072b2"/>
     <use xlink:href="#m30ef2b7f3d" x="165.274792" y="182.071435" style="fill: #0072b2; stroke: #0072b2"/>
     <use xlink:href="#m30ef2b7f3d" x="159.81279" y="237.636681" style="fill: #0072b2; stroke: #0072b2"/>
     <use xlink:href="#m30ef2b7f3d" x="159.712615" y="246.631881" style="fill: #0072b2; stroke: #0072b2"/>
     <use xlink:href="#m30ef2b7f3d" x="117.793762" y="229.439223" style="fill: #0072b2; stroke: #0072b2"/>
     <use xlink:href="#m30ef2b7f3d" x="113.79495" y="148.214324" style="fill: #0072b2; stroke: #0072b2"/>
     <use xlink:href="#m30ef2b7f3d" x="71.929663" y="71.131091" style="fill: #0072b2; stroke: #0072b2"/>
     <use xlink:href="#m30ef2b7f3d" x="69.894261" y="216.52883" style="fill: #0072b2; stroke: #0072b2"/>
    </g>
   </g>
   <g id="PathCollection_2">
    <defs>
     <path id="m8d850d859a" d="M 0 3.162278 
C 0.838646 3.162278 1.643056 2.82908 2.236068 2.236068 
C 2.82908 1.643056 3.162278 0.838646 3.162278 0 
C 3.162278 -0.838646 2.82908 -1.643056 2.236068 -2.236068 
C 1.643056 -2.82908 0.838646 -3.162278 0 -3.162278 
C -0.838646 -3.162278 -1.643056 -2.82908 -2.236068 -2.236068 
C -2.82908 -1.643056 -3.162278 -0.838646 -3.162278 0 
C -3.162278 0.838646 -2.82908 1.643056 -2.236068 2.236068 
C -1.643056 2.82908 -0.838646 3.162278 0 3.162278 
z
" style="stroke: #d55e00"/>
    </defs>
    <g clip-path="url(#p561a30f8b1)">
     <use xlink:href="#m8d850d859a" x="282.041989" y="249.541843" style="fill: #d55e00; stroke: #d55e00"/>
     <use xlink:href="#m8d850d859a" x="269.764121" y="252.649545" style="fill: #d55e00; stroke: #d55e00"/>
     <use xlink:href="#m8d850d859a" x="255.431525" y="276.714774" style="fill: #d55e00; stroke: #d55e00"/>
     <use xlink:href="#m8d850d859a" x="253.691129" y="259.901742" style="fill: #d55e00; stroke: #d55e00"/>
     <use xlink:href="#m8d850d859a" x="239.322176" y="257.457402" style="fill: #d55e00; stroke: #d55e00"/>
     <use xlink:href="#m8d850d859a" x="234.257802" y="286.145921" style="fill: #d55e00; stroke: #d55e00"/>
     <use xlink:href="#m8d850d859a" x="216.394517" y="252.764928" style="fill: #d55e00; stroke: #d55e00"/>
     <use xlink:href="#m8d850d859a" x="143.897228" y="253.282555" style="fill: #d55e00; stroke: #d55e00"/>
     <use xlink:href="#m8d850d859a" x="138.655345" y="260.429113" style="fill: #d55e00; stroke: #d55e00"/>
    </g>
   </g>
   <g id="PathCollection_3">
    <defs>
     <path id="m39dfaf43e8" d="M 0 3.162278 
C 0.838646 3.162278 1.643056 2.82908 2.236068 2.236068 
C 2.82908 1.643056 3.162278 0.838646 3.162278 0 
C 3.162278 -0.838646 2.82908 -1.643056 2.236068 -2.236068 
C 1.643056 -2.82908 0.838646 -3.162278 0 -3.162278 
C -0.838646 -3.162278 -1.643056 -2.82908 -2.236068 -2.236068 
C -2.82908 -1.643056 -3.162278 -0.838646 -3.162278 0 
C -3.162278 0.838646 -2.82908 1.643056 -2.236068 2.236068 
C -1.643056 2.82908 -0.838646 3.162278 0 3.162278 
z
" style="stroke: #999999"/>
    </defs>
    <g clip-path="url(#p561a30f8b1)">
     <use xlink:href="#m39dfaf43e8" x="111.314361" y="248.137034" style="fill: #999999; stroke: #999999"/>
    </g>
   </g>
   <g id="PolyCollection_1">
    <path d="M 69.894261 123.851745 
L 69.894261 218.997014 
L 148.579753 231.946932 
L 167.986077 235.284993 
L 179.592055 237.496248 
L 187.89957 239.283266 
L 194.374396 240.756136 
L 199.680775 242.318538 
L 204.176646 243.725259 
L 208.07711 244.897107 
L 211.521588 246.540211 
L 214.605621 248.219777 
L 217.397552 249.688856 
L 219.947956 251.196938 
L 222.295316 252.443716 
L 224.46959 253.691462 
L 226.494561 254.973211 
L 228.389422 256.109014 
L 230.169888 257.406787 
L 231.848989 258.495812 
L 233.437648 259.661578 
L 234.945112 260.622878 
L 236.379277 261.626745 
L 237.746944 262.684987 
L 239.054006 263.552247 
L 240.305608 264.294112 
L 241.506264 265.276361 
L 242.659962 266.142335 
L 243.770235 266.843297 
L 244.840235 267.761213 
L 245.872781 268.295317 
L 246.870408 268.789755 
L 247.835399 269.386817 
L 248.769823 270.116363 
L 249.675557 270.823508 
L 250.554309 271.509588 
L 251.407643 272.182314 
L 252.236985 272.827959 
L 253.04365 273.462385 
L 253.828844 274.079925 
L 254.59368 274.680924 
L 255.339188 275.26477 
L 256.06632 275.81155 
L 256.77596 276.30456 
L 257.468931 276.783973 
L 258.145997 277.251328 
L 258.807873 277.679397 
L 259.455224 278.159316 
L 260.088676 278.600496 
L 260.708811 279.032402 
L 261.316179 279.455014 
L 261.911294 279.867384 
L 262.494641 280.271601 
L 263.066677 280.667979 
L 263.627832 281.056817 
L 264.178512 281.438397 
L 264.719101 281.812985 
L 265.249963 282.180832 
L 265.77144 282.542177 
L 266.28386 282.897245 
L 266.787531 283.246251 
L 267.282747 283.62078 
L 267.769787 284.027409 
L 268.248917 284.427434 
L 268.72039 284.821066 
L 269.184447 285.208506 
L 269.641317 285.589946 
L 270.09122 285.965569 
L 270.534364 286.335549 
L 270.97095 286.700778 
L 271.40117 287.062322 
L 271.825206 287.418668 
L 272.243233 287.769966 
L 272.655419 288.116355 
L 273.061926 288.457971 
L 273.462908 288.794944 
L 273.858512 289.126258 
L 274.248882 289.452389 
L 274.634154 289.774261 
L 275.014459 290.091984 
L 275.389924 290.405663 
L 275.760671 290.7154 
L 276.126816 291.021293 
L 276.488472 291.300812 
L 276.845749 291.564288 
L 277.19875 291.824934 
L 277.547578 292.082458 
L 277.892329 292.33672 
L 278.233098 292.608931 
L 278.569976 292.894372 
L 278.90305 293.176107 
L 279.232406 293.389488 
L 279.558125 293.59449 
L 279.880288 293.797253 
L 280.19897 294.029708 
L 280.514247 294.261094 
L 280.82619 294.490033 
L 281.134869 294.716201 
L 281.440352 294.934275 
L 281.742704 295.128 
L 282.041989 295.379576 
L 282.041989 243.545986 
L 282.041989 243.545986 
L 281.742704 243.507433 
L 281.440352 243.468484 
L 281.134869 243.429133 
L 280.82619 243.38937 
L 280.514247 243.349186 
L 280.19897 243.308573 
L 279.880288 243.267521 
L 279.558125 243.226021 
L 279.232406 243.184063 
L 278.90305 243.141636 
L 278.569976 243.08459 
L 278.233098 243.025991 
L 277.892329 242.966714 
L 277.547578 242.906745 
L 277.19875 242.846067 
L 276.845749 242.784663 
L 276.488472 242.722516 
L 276.126816 242.670313 
L 275.760671 242.626886 
L 275.389924 242.582914 
L 275.014459 242.538382 
L 274.634154 242.485997 
L 274.248882 242.411106 
L 273.858512 242.335224 
L 273.462908 242.258324 
L 273.061926 242.12731 
L 272.655419 242.048832 
L 272.243233 241.974773 
L 271.825206 241.901062 
L 271.40117 241.826983 
L 270.97095 241.751824 
L 270.534364 241.675552 
L 270.09122 241.598135 
L 269.641317 241.513266 
L 269.184447 241.424779 
L 268.72039 241.334901 
L 268.248917 241.243586 
L 267.769787 241.158124 
L 267.282747 241.085858 
L 266.787531 241.012378 
L 266.28386 240.931027 
L 265.77144 240.840897 
L 265.249963 240.749174 
L 264.719101 240.6558 
L 264.178512 240.546742 
L 263.627832 240.410128 
L 263.066677 240.29605 
L 262.494641 240.220751 
L 261.911294 240.1056 
L 261.316179 239.981641 
L 260.708811 239.856353 
L 260.088676 239.728432 
L 259.455224 239.543057 
L 258.807873 239.402606 
L 258.145997 239.271688 
L 257.468931 239.137766 
L 256.77596 239.000699 
L 256.06632 238.812068 
L 255.339188 238.576767 
L 254.59368 238.337003 
L 253.828844 238.184232 
L 253.04365 238.082632 
L 252.236985 237.980752 
L 251.407643 237.876007 
L 250.554309 237.737774 
L 249.675557 237.516971 
L 248.769823 237.289388 
L 247.835399 237.054597 
L 246.870408 236.852531 
L 245.872781 236.698443 
L 244.840235 236.540813 
L 243.770235 236.354981 
L 242.659962 236.100493 
L 241.506264 235.836021 
L 240.305608 235.556709 
L 239.054006 235.267337 
L 237.746944 234.914983 
L 236.379277 234.655079 
L 234.945112 234.320345 
L 233.437648 233.970929 
L 231.848989 233.605345 
L 230.169888 233.08166 
L 228.389422 232.423191 
L 226.494561 231.903619 
L 224.46959 231.276415 
L 222.295316 230.571248 
L 219.947956 229.484589 
L 217.397552 228.404391 
L 214.605621 227.167108 
L 211.521588 226.025809 
L 208.07711 224.821314 
L 204.176646 223.020078 
L 199.680775 220.331387 
L 194.374396 216.996412 
L 187.89957 212.96044 
L 179.592055 207.207717 
L 167.986077 198.53124 
L 148.579753 184.128508 
L 69.894261 123.851745 
z
" clip-path="url(#p561a30f8b1)" style="fill-opacity: 0.15"/>
   </g>
   <g id="matplotlib.axis_1">
    <g id="xtick_1">
     <g id="line2d_1">
      <defs>
       <path id="m5f683d4792" d="M 0 0 
L 0 3.5 
" style="stroke: #000000; stroke-width: 0.8"/>
      </defs>
      <g>
       <use xlink:href="#m5f683d4792" x="118.937649" y="306.592" style="stroke: #000000; stroke-width: 0.8"/>
      </g>
     </g>
     <g id="text_1">
      <!-- $\mathdefault{10^{-1}}$ -->
      <g transform="translate(104.897649 322.710125) scale(0.12 -0.12)">
       <defs>
        <path id="DejaVuSerif-31" d="M 909 0 
L 909 331 
L 1722 331 
L 1722 4213 
L 781 3603 
L 781 4013 
L 1919 4750 
L 2350 4750 
L 2350 331 
L 3163 331 
L 3163 0 
L 909 0 
z
" transform="scale(0.015625)"/>
        <path id="DejaVuSerif-30" d="M 2034 219 
Q 2513 219 2750 744 
Q 2988 1269 2988 2328 
Q 2988 3391 2750 3916 
Q 2513 4441 2034 4441 
Q 1556 4441 1318 3916 
Q 1081 3391 1081 2328 
Q 1081 1269 1318 744 
Q 1556 219 2034 219 
z
M 2034 -91 
Q 1275 -91 848 546 
Q 422 1184 422 2328 
Q 422 3475 848 4112 
Q 1275 4750 2034 4750 
Q 2797 4750 3222 4112 
Q 3647 3475 3647 2328 
Q 3647 1184 3222 546 
Q 2797 -91 2034 -91 
z
" transform="scale(0.015625)"/>
        <path id="DejaVuSerif-2212" d="M 678 2259 
L 4684 2259 
L 4684 1753 
L 678 1753 
L 678 2259 
z
" transform="scale(0.015625)"/>
       </defs>
       <use xlink:href="#DejaVuSerif-31" transform="translate(0 0.7125)"/>
       <use xlink:href="#DejaVuSerif-30" transform="translate(63.623047 0.7125)"/>
       <use xlink:href="#DejaVuSerif-2212" transform="translate(128.154453 37.046875) scale(0.7)"/>
       <use xlink:href="#DejaVuSerif-31" transform="translate(186.806797 37.046875) scale(0.7)"/>
      </g>
     </g>
    </g>
    <g id="xtick_2">
     <g id="line2d_2">
      <g>
       <use xlink:href="#m5f683d4792" x="186.867646" y="306.592" style="stroke: #000000; stroke-width: 0.8"/>
      </g>
     </g>
     <g id="text_2">
      <!-- $\mathdefault{10^{0}}$ -->
      <g transform="translate(176.307646 322.710125) scale(0.12 -0.12)">
       <use xlink:href="#DejaVuSerif-31" transform="translate(0 0.7125)"/>
       <use xlink:href="#DejaVuSerif-30" transform="translate(63.623047 0.7125)"/>
       <use xlink:href="#DejaVuSerif-30" transform="translate(128.154453 37.046875) scale(0.7)"/>
      </g>
     </g>
    </g>
    <g id="xtick_3">
     <g id="line2d_3">
      <g>
       <use xlink:href="#m5f683d4792" x="254.797643" y="306.592" style="stroke: #000000; stroke-width: 0.8"/>
      </g>
     </g>
     <g id="text_3">
      <!-- $\mathdefault{10^{1}}$ -->
      <g transform="translate(244.237643 322.710125) scale(0.12 -0.12)">
       <use xlink:href="#DejaVuSerif-31" transform="translate(0 0.7125)"/>
       <use xlink:href="#DejaVuSerif-30" transform="translate(63.623047 0.7125)"/>
       <use xlink:href="#DejaVuSerif-31" transform="translate(128.154453 37.046875) scale(0.7)"/>
      </g>
     </g>
    </g>
    <g id="xtick_4">
     <g id="line2d_4">
      <defs>
       <path id="m54b028b38a" d="M 0 0 
L 0 2 
" style="stroke: #000000; stroke-width: 0.6"/>
      </defs>
      <g>
       <use xlink:href="#m54b028b38a" x="71.456618" y="306.592" style="stroke: #000000; stroke-width: 0.6"/>
      </g>
     </g>
    </g>
    <g id="xtick_5">
     <g id="line2d_5">
      <g>
       <use xlink:href="#m54b028b38a" x="83.418497" y="306.592" style="stroke: #000000; stroke-width: 0.6"/>
      </g>
     </g>
    </g>
    <g id="xtick_6">
     <g id="line2d_6">
      <g>
       <use xlink:href="#m54b028b38a" x="91.905585" y="306.592" style="stroke: #000000; stroke-width: 0.6"/>
      </g>
     </g>
    </g>
    <g id="xtick_7">
     <g id="line2d_7">
      <g>
       <use xlink:href="#m54b028b38a" x="98.488682" y="306.592" style="stroke: #000000; stroke-width: 0.6"/>
      </g>
     </g>
    </g>
    <g id="xtick_8">
     <g id="line2d_8">
      <g>
       <use xlink:href="#m54b028b38a" x="103.867464" y="306.592" style="stroke: #000000; stroke-width: 0.6"/>
      </g>
     </g>
    </g>
    <g id="xtick_9">
     <g id="line2d_9">
      <g>
       <use xlink:href="#m54b028b38a" x="108.415159" y="306.592" style="stroke: #000000; stroke-width: 0.6"/>
      </g>
     </g>
    </g>
    <g id="xtick_10">
     <g id="line2d_10">
      <g>
       <use xlink:href="#m54b028b38a" x="112.354552" y="306.592" style="stroke: #000000; stroke-width: 0.6"/>
      </g>
     </g>
    </g>
    <g id="xtick_11">
     <g id="line2d_11">
      <g>
       <use xlink:href="#m54b028b38a" x="115.829343" y="306.592" style="stroke: #000000; stroke-width: 0.6"/>
      </g>
     </g>
    </g>
    <g id="xtick_12">
     <g id="line2d_12">
      <g>
       <use xlink:href="#m54b028b38a" x="139.386616" y="306.592" style="stroke: #000000; stroke-width: 0.6"/>
      </g>
     </g>
    </g>
    <g id="xtick_13">
     <g id="line2d_13">
      <g>
       <use xlink:href="#m54b028b38a" x="151.348494" y="306.592" style="stroke: #000000; stroke-width: 0.6"/>
      </g>
     </g>
    </g>
    <g id="xtick_14">
     <g id="line2d_14">
      <g>
       <use xlink:href="#m54b028b38a" x="159.835582" y="306.592" style="stroke: #000000; stroke-width: 0.6"/>
      </g>
     </g>
    </g>
    <g id="xtick_15">
     <g id="line2d_15">
      <g>
       <use xlink:href="#m54b028b38a" x="166.418679" y="306.592" style="stroke: #000000; stroke-width: 0.6"/>
      </g>
     </g>
    </g>
    <g id="xtick_16">
     <g id="line2d_16">
      <g>
       <use xlink:href="#m54b028b38a" x="171.797461" y="306.592" style="stroke: #000000; stroke-width: 0.6"/>
      </g>
     </g>
    </g>
    <g id="xtick_17">
     <g id="line2d_17">
      <g>
       <use xlink:href="#m54b028b38a" x="176.345156" y="306.592" style="stroke: #000000; stroke-width: 0.6"/>
      </g>
     </g>
    </g>
    <g id="xtick_18">
     <g id="line2d_18">
      <g>
       <use xlink:href="#m54b028b38a" x="180.284549" y="306.592" style="stroke: #000000; stroke-width: 0.6"/>
      </g>
     </g>
    </g>
    <g id="xtick_19">
     <g id="line2d_19">
      <g>
       <use xlink:href="#m54b028b38a" x="183.75934" y="306.592" style="stroke: #000000; stroke-width: 0.6"/>
      </g>
     </g>
    </g>
    <g id="xtick_20">
     <g id="line2d_20">
      <g>
       <use xlink:href="#m54b028b38a" x="207.316613" y="306.592" style="stroke: #000000; stroke-width: 0.6"/>
      </g>
     </g>
    </g>
    <g id="xtick_21">
     <g id="line2d_21">
      <g>
       <use xlink:href="#m54b028b38a" x="219.278492" y="306.592" style="stroke: #000000; stroke-width: 0.6"/>
      </g>
     </g>
    </g>
    <g id="xtick_22">
     <g id="line2d_22">
      <g>
       <use xlink:href="#m54b028b38a" x="227.76558" y="306.592" style="stroke: #000000; stroke-width: 0.6"/>
      </g>
     </g>
    </g>
    <g id="xtick_23">
     <g id="line2d_23">
      <g>
       <use xlink:href="#m54b028b38a" x="234.348677" y="306.592" style="stroke: #000000; stroke-width: 0.6"/>
      </g>
     </g>
    </g>
    <g id="xtick_24">
     <g id="line2d_24">
      <g>
       <use xlink:href="#m54b028b38a" x="239.727458" y="306.592" style="stroke: #000000; stroke-width: 0.6"/>
      </g>
     </g>
    </g>
    <g id="xtick_25">
     <g id="line2d_25">
      <g>
       <use xlink:href="#m54b028b38a" x="244.275154" y="306.592" style="stroke: #000000; stroke-width: 0.6"/>
      </g>
     </g>
    </g>
    <g id="xtick_26">
     <g id="line2d_26">
      <g>
       <use xlink:href="#m54b028b38a" x="248.214546" y="306.592" style="stroke: #000000; stroke-width: 0.6"/>
      </g>
     </g>
    </g>
    <g id="xtick_27">
     <g id="line2d_27">
      <g>
       <use xlink:href="#m54b028b38a" x="251.689337" y="306.592" style="stroke: #000000; stroke-width: 0.6"/>
      </g>
     </g>
    </g>
    <g id="xtick_28">
     <g id="line2d_28">
      <g>
       <use xlink:href="#m54b028b38a" x="275.24661" y="306.592" style="stroke: #000000; stroke-width: 0.6"/>
      </g>
     </g>
    </g>
    <g id="xtick_29">
     <g id="line2d_29">
      <g>
       <use xlink:href="#m54b028b38a" x="287.208489" y="306.592" style="stroke: #000000; stroke-width: 0.6"/>
      </g>
     </g>
    </g>
    <g id="text_4">
     <!-- Relative Frequency (%) -->
     <g transform="translate(104.480937 338.323875) scale(0.12 -0.12)">
      <defs>
       <path id="DejaVuSerif-52" d="M 3066 2316 
Q 3284 2256 3442 2114 
Q 3600 1972 3725 1716 
L 4403 331 
L 4972 331 
L 4972 0 
L 3872 0 
L 3144 1484 
Q 2934 1916 2759 2042 
Q 2584 2169 2278 2169 
L 1581 2169 
L 1581 331 
L 2241 331 
L 2241 0 
L 353 0 
L 353 331 
L 947 331 
L 947 4331 
L 353 4331 
L 353 4666 
L 2719 4666 
Q 3400 4666 3770 4341 
Q 4141 4016 4141 3419 
Q 4141 2938 3870 2661 
Q 3600 2384 3066 2316 
z
M 1581 2503 
L 2503 2503 
Q 2975 2503 3200 2726 
Q 3425 2950 3425 3419 
Q 3425 3888 3200 4109 
Q 2975 4331 2503 4331 
L 1581 4331 
L 1581 2503 
z
" transform="scale(0.015625)"/>
       <path id="DejaVuSerif-65" d="M 3469 1600 
L 991 1600 
L 991 1575 
Q 991 903 1244 561 
Q 1497 219 1991 219 
Q 2369 219 2611 417 
Q 2853 616 2950 1006 
L 3413 1006 
Q 3275 459 2904 184 
Q 2534 -91 1931 -91 
Q 1203 -91 761 389 
Q 319 869 319 1663 
Q 319 2450 753 2931 
Q 1188 3413 1894 3413 
Q 2647 3413 3050 2948 
Q 3453 2484 3469 1600 
z
M 2791 1931 
Q 2772 2513 2545 2808 
Q 2319 3103 1894 3103 
Q 1497 3103 1269 2806 
Q 1041 2509 991 1931 
L 2791 1931 
z
" transform="scale(0.015625)"/>
       <path id="DejaVuSerif-6c" d="M 1313 331 
L 1856 331 
L 1856 0 
L 184 0 
L 184 331 
L 738 331 
L 738 4531 
L 184 4531 
L 184 4863 
L 1313 4863 
L 1313 331 
z
" transform="scale(0.015625)"/>
       <path id="DejaVuSerif-61" d="M 2547 1044 
L 2547 1747 
L 1806 1747 
Q 1378 1747 1168 1562 
Q 959 1378 959 997 
Q 959 650 1171 447 
Q 1384 244 1747 244 
Q 2106 244 2326 466 
Q 2547 688 2547 1044 
z
M 3122 2075 
L 3122 331 
L 3634 331 
L 3634 0 
L 2547 0 
L 2547 359 
Q 2356 128 2106 18 
Q 1856 -91 1522 -91 
Q 969 -91 644 203 
Q 319 497 319 997 
Q 319 1513 691 1797 
Q 1063 2081 1741 2081 
L 2547 2081 
L 2547 2309 
Q 2547 2688 2317 2895 
Q 2088 3103 1672 3103 
Q 1328 3103 1125 2947 
Q 922 2791 872 2484 
L 575 2484 
L 575 3156 
Q 875 3284 1158 3348 
Q 1441 3413 1709 3413 
Q 2400 3413 2761 3070 
Q 3122 2728 3122 2075 
z
" transform="scale(0.015625)"/>
       <path id="DejaVuSerif-74" d="M 691 2988 
L 184 2988 
L 184 3322 
L 691 3322 
L 691 4353 
L 1269 4353 
L 1269 3322 
L 2350 3322 
L 2350 2988 
L 1269 2988 
L 1269 878 
Q 1269 456 1350 337 
Q 1431 219 1650 219 
Q 1875 219 1978 351 
Q 2081 484 2088 781 
L 2522 781 
Q 2497 328 2275 118 
Q 2053 -91 1600 -91 
Q 1103 -91 897 129 
Q 691 350 691 878 
L 691 2988 
z
" transform="scale(0.015625)"/>
       <path id="DejaVuSerif-69" d="M 622 4353 
Q 622 4497 726 4603 
Q 831 4709 978 4709 
Q 1122 4709 1226 4603 
Q 1331 4497 1331 4353 
Q 1331 4206 1228 4103 
Q 1125 4000 978 4000 
Q 831 4000 726 4103 
Q 622 4206 622 4353 
z
M 1356 331 
L 1900 331 
L 1900 0 
L 231 0 
L 231 331 
L 781 331 
L 781 2988 
L 231 2988 
L 231 3322 
L 1356 3322 
L 1356 331 
z
" transform="scale(0.015625)"/>
       <path id="DejaVuSerif-76" d="M 1581 0 
L 359 2988 
L -19 2988 
L -19 3322 
L 1509 3322 
L 1509 2988 
L 978 2988 
L 1913 703 
L 2847 2988 
L 2350 2988 
L 2350 3322 
L 3597 3322 
L 3597 2988 
L 3225 2988 
L 2003 0 
L 1581 0 
z
" transform="scale(0.015625)"/>
       <path id="DejaVuSerif-20" transform="scale(0.015625)"/>
       <path id="DejaVuSerif-46" d="M 353 0 
L 353 331 
L 947 331 
L 947 4331 
L 353 4331 
L 353 4666 
L 4172 4666 
L 4172 3628 
L 3788 3628 
L 3788 4281 
L 1581 4281 
L 1581 2719 
L 3175 2719 
L 3175 3303 
L 3559 3303 
L 3559 1753 
L 3175 1753 
L 3175 2338 
L 1581 2338 
L 1581 331 
L 2328 331 
L 2328 0 
L 353 0 
z
" transform="scale(0.015625)"/>
       <path id="DejaVuSerif-72" d="M 3059 3328 
L 3059 2497 
L 2728 2497 
Q 2713 2744 2591 2866 
Q 2469 2988 2234 2988 
Q 1809 2988 1582 2694 
Q 1356 2400 1356 1850 
L 1356 331 
L 2022 331 
L 2022 0 
L 263 0 
L 263 331 
L 781 331 
L 781 2994 
L 231 2994 
L 231 3322 
L 1356 3322 
L 1356 2731 
Q 1525 3078 1790 3245 
Q 2056 3413 2438 3413 
Q 2578 3413 2733 3391 
Q 2888 3369 3059 3328 
z
" transform="scale(0.015625)"/>
       <path id="DejaVuSerif-71" d="M 3359 2988 
L 3359 -997 
L 3909 -997 
L 3909 -1331 
L 2241 -1331 
L 2241 -997 
L 2784 -997 
L 2784 519 
Q 2616 206 2355 57 
Q 2094 -91 1709 -91 
Q 1097 -91 708 395 
Q 319 881 319 1663 
Q 319 2444 706 2928 
Q 1094 3413 1709 3413 
Q 2094 3413 2355 3264 
Q 2616 3116 2784 2803 
L 2784 3322 
L 3909 3322 
L 3909 2988 
L 3359 2988 
z
M 2784 1825 
Q 2784 2422 2554 2737 
Q 2325 3053 1888 3053 
Q 1444 3053 1217 2703 
Q 991 2353 991 1663 
Q 991 975 1217 622 
Q 1444 269 1888 269 
Q 2325 269 2554 583 
Q 2784 897 2784 1497 
L 2784 1825 
z
" transform="scale(0.015625)"/>
       <path id="DejaVuSerif-75" d="M 2266 3322 
L 3341 3322 
L 3341 331 
L 3884 331 
L 3884 0 
L 2766 0 
L 2766 588 
Q 2606 256 2353 82 
Q 2100 -91 1766 -91 
Q 1213 -91 952 223 
Q 691 538 691 1209 
L 691 2988 
L 172 2988 
L 172 3322 
L 1269 3322 
L 1269 1388 
Q 1269 781 1417 556 
Q 1566 331 1947 331 
Q 2347 331 2556 625 
Q 2766 919 2766 1478 
L 2766 2988 
L 2266 2988 
L 2266 3322 
z
" transform="scale(0.015625)"/>
       <path id="DejaVuSerif-6e" d="M 263 0 
L 263 331 
L 781 331 
L 781 2988 
L 231 2988 
L 231 3322 
L 1356 3322 
L 1356 2731 
Q 1516 3069 1770 3241 
Q 2025 3413 2363 3413 
Q 2913 3413 3172 3097 
Q 3431 2781 3431 2113 
L 3431 331 
L 3944 331 
L 3944 0 
L 2356 0 
L 2356 331 
L 2853 331 
L 2853 1931 
Q 2853 2541 2703 2767 
Q 2553 2994 2175 2994 
Q 1775 2994 1565 2701 
Q 1356 2409 1356 1850 
L 1356 331 
L 1856 331 
L 1856 0 
L 263 0 
z
" transform="scale(0.015625)"/>
       <path id="DejaVuSerif-63" d="M 3291 997 
Q 3169 466 2822 187 
Q 2475 -91 1925 -91 
Q 1200 -91 759 389 
Q 319 869 319 1663 
Q 319 2459 759 2936 
Q 1200 3413 1925 3413 
Q 2241 3413 2553 3339 
Q 2866 3266 3181 3116 
L 3181 2266 
L 2847 2266 
Q 2781 2703 2561 2903 
Q 2341 3103 1931 3103 
Q 1466 3103 1228 2742 
Q 991 2381 991 1663 
Q 991 944 1227 581 
Q 1463 219 1931 219 
Q 2303 219 2525 412 
Q 2747 606 2828 997 
L 3291 997 
z
" transform="scale(0.015625)"/>
       <path id="DejaVuSerif-79" d="M 1381 -609 
L 1600 -56 
L 359 2988 
L -19 2988 
L -19 3322 
L 1509 3322 
L 1509 2988 
L 978 2988 
L 1913 703 
L 2847 2988 
L 2350 2988 
L 2350 3322 
L 3597 3322 
L 3597 2988 
L 3225 2988 
L 1703 -750 
Q 1547 -1138 1356 -1280 
Q 1166 -1422 819 -1422 
Q 672 -1422 517 -1397 
Q 363 -1372 206 -1325 
L 206 -691 
L 500 -691 
Q 519 -903 608 -995 
Q 697 -1088 884 -1088 
Q 1056 -1088 1161 -992 
Q 1266 -897 1381 -609 
z
" transform="scale(0.015625)"/>
       <path id="DejaVuSerif-28" d="M 2041 -997 
Q 1281 -656 893 83 
Q 506 822 506 1931 
Q 506 3044 893 3783 
Q 1281 4522 2041 4863 
L 2041 4556 
Q 1559 4225 1350 3623 
Q 1141 3022 1141 1931 
Q 1141 844 1350 242 
Q 1559 -359 2041 -691 
L 2041 -997 
z
" transform="scale(0.015625)"/>
       <path id="DejaVuSerif-25" d="M 1434 4459 
Q 1159 4459 1004 4200 
Q 850 3941 850 3475 
Q 850 3016 1008 2753 
Q 1166 2491 1434 2491 
Q 1700 2491 1854 2752 
Q 2009 3013 2009 3475 
Q 2009 3938 1854 4198 
Q 1700 4459 1434 4459 
z
M 4653 2169 
Q 4381 2169 4226 1906 
Q 4072 1644 4072 1178 
Q 4072 719 4228 458 
Q 4384 197 4653 197 
Q 4922 197 5075 458 
Q 5228 719 5228 1178 
Q 5228 1641 5073 1905 
Q 4919 2169 4653 2169 
z
M 4653 2450 
Q 5147 2450 5437 2106 
Q 5728 1763 5728 1178 
Q 5728 594 5436 251 
Q 5144 -91 4653 -91 
Q 4153 -91 3862 251 
Q 3572 594 3572 1178 
Q 3572 1766 3864 2108 
Q 4156 2450 4653 2450 
z
M 4263 4750 
L 4738 4750 
L 1819 -91 
L 1344 -91 
L 4263 4750 
z
M 1428 4750 
Q 1922 4750 2215 4408 
Q 2509 4066 2509 3481 
Q 2509 2891 2217 2550 
Q 1925 2209 1428 2209 
Q 931 2209 642 2551 
Q 353 2894 353 3481 
Q 353 4063 643 4406 
Q 934 4750 1428 4750 
z
" transform="scale(0.015625)"/>
       <path id="DejaVuSerif-29" d="M 453 -997 
L 453 -691 
Q 934 -359 1145 242 
Q 1356 844 1356 1931 
Q 1356 3022 1145 3623 
Q 934 4225 453 4556 
L 453 4863 
Q 1216 4522 1603 3783 
Q 1991 3044 1991 1931 
Q 1991 822 1603 83 
Q 1216 -656 453 -997 
z
" transform="scale(0.015625)"/>
      </defs>
      <use xlink:href="#DejaVuSerif-52"/>
      <use xlink:href="#DejaVuSerif-65" x="75.292969"/>
      <use xlink:href="#DejaVuSerif-6c" x="134.472656"/>
      <use xlink:href="#DejaVuSerif-61" x="166.455078"/>
      <use xlink:href="#DejaVuSerif-74" x="226.074219"/>
      <use xlink:href="#DejaVuSerif-69" x="266.259766"/>
      <use xlink:href="#DejaVuSerif-76" x="298.242188"/>
      <use xlink:href="#DejaVuSerif-65" x="354.736328"/>
      <use xlink:href="#DejaVuSerif-20" x="413.916016"/>
      <use xlink:href="#DejaVuSerif-46" x="445.703125"/>
      <use xlink:href="#DejaVuSerif-72" x="515.087891"/>
      <use xlink:href="#DejaVuSerif-65" x="562.890625"/>
      <use xlink:href="#DejaVuSerif-71" x="622.070312"/>
      <use xlink:href="#DejaVuSerif-75" x="686.083984"/>
      <use xlink:href="#DejaVuSerif-65" x="750.488281"/>
      <use xlink:href="#DejaVuSerif-6e" x="809.667969"/>
      <use xlink:href="#DejaVuSerif-63" x="874.072266"/>
      <use xlink:href="#DejaVuSerif-79" x="930.078125"/>
      <use xlink:href="#DejaVuSerif-20" x="986.572266"/>
      <use xlink:href="#DejaVuSerif-28" x="1018.359375"/>
      <use xlink:href="#DejaVuSerif-25" x="1057.373047"/>
      <use xlink:href="#DejaVuSerif-29" x="1152.392578"/>
     </g>
    </g>
   </g>
   <g id="matplotlib.axis_2">
    <g id="ytick_1">
     <g id="line2d_30">
      <defs>
       <path id="mf7404bff49" d="M 0 0 
L -3.5 0 
" style="stroke: #000000; stroke-width: 0.8"/>
      </defs>
      <g>
       <use xlink:href="#mf7404bff49" x="59.286875" y="292.388519" style="stroke: #000000; stroke-width: 0.8"/>
      </g>
     </g>
     <g id="text_5">
      <!-- −0.1 -->
      <g transform="translate(23.1475 296.947582) scale(0.12 -0.12)">
       <defs>
        <path id="DejaVuSerif-2e" d="M 603 325 
Q 603 500 722 622 
Q 841 744 1019 744 
Q 1191 744 1312 622 
Q 1434 500 1434 325 
Q 1434 153 1312 31 
Q 1191 -91 1019 -91 
Q 841 -91 722 29 
Q 603 150 603 325 
z
" transform="scale(0.015625)"/>
       </defs>
       <use xlink:href="#DejaVuSerif-2212"/>
       <use xlink:href="#DejaVuSerif-30" x="83.789062"/>
       <use xlink:href="#DejaVuSerif-2e" x="147.412109"/>
       <use xlink:href="#DejaVuSerif-31" x="179.199219"/>
      </g>
     </g>
    </g>
    <g id="ytick_2">
     <g id="line2d_31">
      <g>
       <use xlink:href="#mf7404bff49" x="59.286875" y="248.137034" style="stroke: #000000; stroke-width: 0.8"/>
      </g>
     </g>
     <g id="text_6">
      <!-- 0.0 -->
      <g transform="translate(33.203125 252.696096) scale(0.12 -0.12)">
       <use xlink:href="#DejaVuSerif-30"/>
       <use xlink:href="#DejaVuSerif-2e" x="63.623047"/>
       <use xlink:href="#DejaVuSerif-30" x="95.410156"/>
      </g>
     </g>
    </g>
    <g id="ytick_3">
     <g id="line2d_32">
      <g>
       <use xlink:href="#mf7404bff49" x="59.286875" y="203.885548" style="stroke: #000000; stroke-width: 0.8"/>
      </g>
     </g>
     <g id="text_7">
      <!-- 0.1 -->
      <g transform="translate(33.203125 208.444611) scale(0.12 -0.12)">
       <use xlink:href="#DejaVuSerif-30"/>
       <use xlink:href="#DejaVuSerif-2e" x="63.623047"/>
       <use xlink:href="#DejaVuSerif-31" x="95.410156"/>
      </g>
     </g>
    </g>
    <g id="ytick_4">
     <g id="line2d_33">
      <g>
       <use xlink:href="#mf7404bff49" x="59.286875" y="159.634062" style="stroke: #000000; stroke-width: 0.8"/>
      </g>
     </g>
     <g id="text_8">
      <!-- 0.2 -->
      <g transform="translate(33.203125 164.193125) scale(0.12 -0.12)">
       <defs>
        <path id="DejaVuSerif-32" d="M 819 3553 
L 469 3553 
L 469 4384 
Q 803 4563 1142 4656 
Q 1481 4750 1806 4750 
Q 2534 4750 2956 4397 
Q 3378 4044 3378 3438 
Q 3378 2753 2422 1800 
Q 2347 1728 2309 1691 
L 1131 513 
L 3078 513 
L 3078 1088 
L 3444 1088 
L 3444 0 
L 434 0 
L 434 341 
L 1850 1753 
Q 2319 2222 2519 2614 
Q 2719 3006 2719 3438 
Q 2719 3909 2473 4175 
Q 2228 4441 1797 4441 
Q 1350 4441 1106 4219 
Q 863 3997 819 3553 
z
" transform="scale(0.015625)"/>
       </defs>
       <use xlink:href="#DejaVuSerif-30"/>
       <use xlink:href="#DejaVuSerif-2e" x="63.623047"/>
       <use xlink:href="#DejaVuSerif-32" x="95.410156"/>
      </g>
     </g>
    </g>
    <g id="ytick_5">
     <g id="line2d_34">
      <g>
       <use xlink:href="#mf7404bff49" x="59.286875" y="115.382577" style="stroke: #000000; stroke-width: 0.8"/>
      </g>
     </g>
     <g id="text_9">
      <!-- 0.3 -->
      <g transform="translate(33.203125 119.941639) scale(0.12 -0.12)">
       <defs>
        <path id="DejaVuSerif-33" d="M 622 4469 
Q 988 4606 1323 4678 
Q 1659 4750 1953 4750 
Q 2638 4750 3022 4454 
Q 3406 4159 3406 3634 
Q 3406 3213 3140 2930 
Q 2875 2647 2388 2547 
Q 2963 2466 3280 2130 
Q 3597 1794 3597 1259 
Q 3597 606 3158 257 
Q 2719 -91 1894 -91 
Q 1528 -91 1179 -12 
Q 831 66 488 225 
L 488 1131 
L 838 1131 
Q 869 681 1141 450 
Q 1413 219 1906 219 
Q 2384 219 2661 495 
Q 2938 772 2938 1253 
Q 2938 1803 2653 2086 
Q 2369 2369 1819 2369 
L 1522 2369 
L 1522 2688 
L 1678 2688 
Q 2225 2688 2498 2914 
Q 2772 3141 2772 3597 
Q 2772 4006 2547 4223 
Q 2322 4441 1900 4441 
Q 1478 4441 1245 4241 
Q 1013 4041 972 3647 
L 622 3647 
L 622 4469 
z
" transform="scale(0.015625)"/>
       </defs>
       <use xlink:href="#DejaVuSerif-30"/>
       <use xlink:href="#DejaVuSerif-2e" x="63.623047"/>
       <use xlink:href="#DejaVuSerif-33" x="95.410156"/>
      </g>
     </g>
    </g>
    <g id="ytick_6">
     <g id="line2d_35">
      <g>
       <use xlink:href="#mf7404bff49" x="59.286875" y="71.131091" style="stroke: #000000; stroke-width: 0.8"/>
      </g>
     </g>
     <g id="text_10">
      <!-- 0.4 -->
      <g transform="translate(33.203125 75.690153) scale(0.12 -0.12)">
       <defs>
        <path id="DejaVuSerif-34" d="M 2234 1581 
L 2234 4063 
L 641 1581 
L 2234 1581 
z
M 3609 0 
L 1484 0 
L 1484 331 
L 2234 331 
L 2234 1247 
L 197 1247 
L 197 1588 
L 2241 4750 
L 2859 4750 
L 2859 1581 
L 3750 1581 
L 3750 1247 
L 2859 1247 
L 2859 331 
L 3609 331 
L 3609 0 
z
" transform="scale(0.015625)"/>
       </defs>
       <use xlink:href="#DejaVuSerif-30"/>
       <use xlink:href="#DejaVuSerif-2e" x="63.623047"/>
       <use xlink:href="#DejaVuSerif-34" x="95.410156"/>
      </g>
     </g>
    </g>
    <g id="text_11">
     <!-- Accuracy_Difference -->
     <g transform="translate(16.318125 246.285333) rotate(-90) scale(0.12 -0.12)">
      <defs>
       <path id="DejaVuSerif-41" d="M 1281 1691 
L 2994 1691 
L 2138 3909 
L 1281 1691 
z
M -38 0 
L -38 331 
L 372 331 
L 2034 4666 
L 2559 4666 
L 4225 331 
L 4684 331 
L 4684 0 
L 2988 0 
L 2988 331 
L 3506 331 
L 3116 1356 
L 1153 1356 
L 763 331 
L 1275 331 
L 1275 0 
L -38 0 
z
" transform="scale(0.015625)"/>
       <path id="DejaVuSerif-5f" d="M 3200 -1259 
L 3200 -1509 
L 0 -1509 
L 0 -1259 
L 3200 -1259 
z
" transform="scale(0.015625)"/>
       <path id="DejaVuSerif-44" d="M 1581 331 
L 2163 331 
Q 3072 331 3558 850 
Q 4044 1369 4044 2338 
Q 4044 3306 3559 3818 
Q 3075 4331 2163 4331 
L 1581 4331 
L 1581 331 
z
M 353 0 
L 353 331 
L 947 331 
L 947 4331 
L 353 4331 
L 353 4666 
L 2209 4666 
Q 3416 4666 4089 4050 
Q 4763 3434 4763 2338 
Q 4763 1238 4088 619 
Q 3413 0 2209 0 
L 353 0 
z
" transform="scale(0.015625)"/>
       <path id="DejaVuSerif-66" d="M 2753 4078 
L 2450 4078 
Q 2447 4313 2317 4434 
Q 2188 4556 1941 4556 
Q 1619 4556 1487 4379 
Q 1356 4203 1356 3750 
L 1356 3322 
L 2284 3322 
L 2284 2988 
L 1356 2988 
L 1356 331 
L 2094 331 
L 2094 0 
L 231 0 
L 231 331 
L 781 331 
L 781 2988 
L 231 2988 
L 231 3322 
L 781 3322 
L 781 3738 
Q 781 4294 1070 4578 
Q 1359 4863 1919 4863 
Q 2128 4863 2337 4825 
Q 2547 4788 2753 4709 
L 2753 4078 
z
" transform="scale(0.015625)"/>
      </defs>
      <use xlink:href="#DejaVuSerif-41"/>
      <use xlink:href="#DejaVuSerif-63" x="72.216797"/>
      <use xlink:href="#DejaVuSerif-63" x="128.222656"/>
      <use xlink:href="#DejaVuSerif-75" x="184.228516"/>
      <use xlink:href="#DejaVuSerif-72" x="248.632812"/>
      <use xlink:href="#DejaVuSerif-61" x="296.435547"/>
      <use xlink:href="#DejaVuSerif-63" x="356.054688"/>
      <use xlink:href="#DejaVuSerif-79" x="412.060547"/>
      <use xlink:href="#DejaVuSerif-5f" x="468.554688"/>
      <use xlink:href="#DejaVuSerif-44" x="518.554688"/>
      <use xlink:href="#DejaVuSerif-69" x="598.730469"/>
      <use xlink:href="#DejaVuSerif-66" x="630.712891"/>
      <use xlink:href="#DejaVuSerif-66" x="667.724609"/>
      <use xlink:href="#DejaVuSerif-65" x="704.736328"/>
      <use xlink:href="#DejaVuSerif-72" x="763.916016"/>
      <use xlink:href="#DejaVuSerif-65" x="811.71875"/>
      <use xlink:href="#DejaVuSerif-6e" x="870.898438"/>
      <use xlink:href="#DejaVuSerif-63" x="935.302734"/>
      <use xlink:href="#DejaVuSerif-65" x="991.308594"/>
     </g>
    </g>
   </g>
   <g id="line2d_36">
    <path d="M 69.894261 172.975998 
L 148.579753 208.38592 
L 167.986077 217.119124 
L 179.592055 222.342028 
L 187.89957 226.080563 
L 194.374396 228.994354 
L 199.680775 231.382323 
L 204.176646 233.405548 
L 208.07711 235.160829 
L 211.521588 236.710907 
L 214.605621 238.098779 
L 217.397552 239.355199 
L 219.947956 240.502928 
L 222.295316 241.559283 
L 224.46959 242.537747 
L 226.494561 243.449021 
L 228.389422 244.301744 
L 230.169888 245.102986 
L 231.848989 245.858613 
L 233.437648 246.573539 
L 234.945112 247.251925 
L 236.379277 247.897326 
L 237.746944 248.512801 
L 239.054006 249.101003 
L 240.305608 249.664247 
L 241.506264 250.204565 
L 242.659962 250.72375 
L 243.770235 251.223393 
L 244.840235 251.704913 
L 245.872781 252.169578 
L 246.870408 252.618528 
L 247.835399 253.052792 
L 248.769823 253.4733 
L 249.675557 253.880897 
L 250.554309 254.276352 
L 251.407643 254.660368 
L 252.236985 255.033587 
L 253.04365 255.396601 
L 253.828844 255.749953 
L 254.59368 256.094143 
L 255.339188 256.429635 
L 256.06632 256.756858 
L 256.77596 257.076209 
L 257.468931 257.388059 
L 258.145997 257.692752 
L 258.807873 257.990608 
L 259.455224 258.281928 
L 260.088676 258.566993 
L 260.708811 258.846065 
L 261.316179 259.119392 
L 261.911294 259.387204 
L 262.494641 259.649722 
L 263.066677 259.907148 
L 263.627832 260.159678 
L 264.178512 260.407495 
L 264.719101 260.65077 
L 265.249963 260.889667 
L 265.77144 261.124341 
L 266.28386 261.35494 
L 266.787531 261.581601 
L 267.282747 261.804457 
L 267.769787 262.023634 
L 268.248917 262.239252 
L 268.72039 262.451423 
L 269.184447 262.660257 
L 269.641317 262.865857 
L 270.09122 263.068322 
L 270.534364 263.267745 
L 270.97095 263.464217 
L 271.40117 263.657824 
L 271.825206 263.848648 
L 272.243233 264.036767 
L 272.655419 264.222259 
L 273.061926 264.405195 
L 273.462908 264.585644 
L 273.858512 264.763673 
L 274.248882 264.939347 
L 274.634154 265.112726 
L 275.014459 265.28387 
L 275.389924 265.452837 
L 275.760671 265.619679 
L 276.126816 265.784451 
L 276.488472 265.947203 
L 276.845749 266.107985 
L 277.19875 266.266842 
L 277.547578 266.423821 
L 277.892329 266.578965 
L 278.233098 266.732317 
L 278.569976 266.883919 
L 278.90305 267.033808 
L 279.232406 267.182024 
L 279.558125 267.328604 
L 279.880288 267.473583 
L 280.19897 267.616996 
L 280.514247 267.758877 
L 280.82619 267.899257 
L 281.134869 268.038168 
L 281.440352 268.175641 
L 281.742704 268.311705 
L 282.041989 268.446388 
" clip-path="url(#p561a30f8b1)" style="fill: none; stroke: #000000; stroke-width: 2; stroke-linecap: square"/>
   </g>
   <g id="patch_3">
    <path d="M 59.286875 306.592 
L 59.286875 59.918667 
" style="fill: none; stroke: #000000; stroke-width: 0.8; stroke-linejoin: miter; stroke-linecap: square"/>
   </g>
   <g id="patch_4">
    <path d="M 59.286875 306.592 
L 292.649375 306.592 
" style="fill: none; stroke: #000000; stroke-width: 0.8; stroke-linejoin: miter; stroke-linecap: square"/>
   </g>
   <g id="text_12">
    <g id="patch_5">
     <path d="M 70.955 100.903458 
L 176.271875 100.903458 
Q 179.871875 100.903458 179.871875 97.303458 
L 179.871875 72.252333 
Q 179.871875 68.652333 176.271875 68.652333 
L 70.955 68.652333 
Q 67.355 68.652333 67.355 72.252333 
L 67.355 97.303458 
Q 67.355 100.903458 70.955 100.903458 
z
" style="fill: #ffffff; opacity: 0.5; stroke: #000000; stroke-linejoin: miter"/>
    </g>
    <!-- Pearson r: -0.37 -->
    <g transform="translate(70.955 81.370458) scale(0.12 -0.12)">
     <defs>
      <path id="DejaVuSans-50" d="M 1259 4147 
L 1259 2394 
L 2053 2394 
Q 2494 2394 2734 2622 
Q 2975 2850 2975 3272 
Q 2975 3691 2734 3919 
Q 2494 4147 2053 4147 
L 1259 4147 
z
M 628 4666 
L 2053 4666 
Q 2838 4666 3239 4311 
Q 3641 3956 3641 3272 
Q 3641 2581 3239 2228 
Q 2838 1875 2053 1875 
L 1259 1875 
L 1259 0 
L 628 0 
L 628 4666 
z
" transform="scale(0.015625)"/>
      <path id="DejaVuSans-65" d="M 3597 1894 
L 3597 1613 
L 953 1613 
Q 991 1019 1311 708 
Q 1631 397 2203 397 
Q 2534 397 2845 478 
Q 3156 559 3463 722 
L 3463 178 
Q 3153 47 2828 -22 
Q 2503 -91 2169 -91 
Q 1331 -91 842 396 
Q 353 884 353 1716 
Q 353 2575 817 3079 
Q 1281 3584 2069 3584 
Q 2775 3584 3186 3129 
Q 3597 2675 3597 1894 
z
M 3022 2063 
Q 3016 2534 2758 2815 
Q 2500 3097 2075 3097 
Q 1594 3097 1305 2825 
Q 1016 2553 972 2059 
L 3022 2063 
z
" transform="scale(0.015625)"/>
      <path id="DejaVuSans-61" d="M 2194 1759 
Q 1497 1759 1228 1600 
Q 959 1441 959 1056 
Q 959 750 1161 570 
Q 1363 391 1709 391 
Q 2188 391 2477 730 
Q 2766 1069 2766 1631 
L 2766 1759 
L 2194 1759 
z
M 3341 1997 
L 3341 0 
L 2766 0 
L 2766 531 
Q 2569 213 2275 61 
Q 1981 -91 1556 -91 
Q 1019 -91 701 211 
Q 384 513 384 1019 
Q 384 1609 779 1909 
Q 1175 2209 1959 2209 
L 2766 2209 
L 2766 2266 
Q 2766 2663 2505 2880 
Q 2244 3097 1772 3097 
Q 1472 3097 1187 3025 
Q 903 2953 641 2809 
L 641 3341 
Q 956 3463 1253 3523 
Q 1550 3584 1831 3584 
Q 2591 3584 2966 3190 
Q 3341 2797 3341 1997 
z
" transform="scale(0.015625)"/>
      <path id="DejaVuSans-72" d="M 2631 2963 
Q 2534 3019 2420 3045 
Q 2306 3072 2169 3072 
Q 1681 3072 1420 2755 
Q 1159 2438 1159 1844 
L 1159 0 
L 581 0 
L 581 3500 
L 1159 3500 
L 1159 2956 
Q 1341 3275 1631 3429 
Q 1922 3584 2338 3584 
Q 2397 3584 2469 3576 
Q 2541 3569 2628 3553 
L 2631 2963 
z
" transform="scale(0.015625)"/>
      <path id="DejaVuSans-73" d="M 2834 3397 
L 2834 2853 
Q 2591 2978 2328 3040 
Q 2066 3103 1784 3103 
Q 1356 3103 1142 2972 
Q 928 2841 928 2578 
Q 928 2378 1081 2264 
Q 1234 2150 1697 2047 
L 1894 2003 
Q 2506 1872 2764 1633 
Q 3022 1394 3022 966 
Q 3022 478 2636 193 
Q 2250 -91 1575 -91 
Q 1294 -91 989 -36 
Q 684 19 347 128 
L 347 722 
Q 666 556 975 473 
Q 1284 391 1588 391 
Q 1994 391 2212 530 
Q 2431 669 2431 922 
Q 2431 1156 2273 1281 
Q 2116 1406 1581 1522 
L 1381 1569 
Q 847 1681 609 1914 
Q 372 2147 372 2553 
Q 372 3047 722 3315 
Q 1072 3584 1716 3584 
Q 2034 3584 2315 3537 
Q 2597 3491 2834 3397 
z
" transform="scale(0.015625)"/>
      <path id="DejaVuSans-6f" d="M 1959 3097 
Q 1497 3097 1228 2736 
Q 959 2375 959 1747 
Q 959 1119 1226 758 
Q 1494 397 1959 397 
Q 2419 397 2687 759 
Q 2956 1122 2956 1747 
Q 2956 2369 2687 2733 
Q 2419 3097 1959 3097 
z
M 1959 3584 
Q 2709 3584 3137 3096 
Q 3566 2609 3566 1747 
Q 3566 888 3137 398 
Q 2709 -91 1959 -91 
Q 1206 -91 779 398 
Q 353 888 353 1747 
Q 353 2609 779 3096 
Q 1206 3584 1959 3584 
z
" transform="scale(0.015625)"/>
      <path id="DejaVuSans-6e" d="M 3513 2113 
L 3513 0 
L 2938 0 
L 2938 2094 
Q 2938 2591 2744 2837 
Q 2550 3084 2163 3084 
Q 1697 3084 1428 2787 
Q 1159 2491 1159 1978 
L 1159 0 
L 581 0 
L 581 3500 
L 1159 3500 
L 1159 2956 
Q 1366 3272 1645 3428 
Q 1925 3584 2291 3584 
Q 2894 3584 3203 3211 
Q 3513 2838 3513 2113 
z
" transform="scale(0.015625)"/>
      <path id="DejaVuSans-20" transform="scale(0.015625)"/>
      <path id="DejaVuSans-3a" d="M 750 794 
L 1409 794 
L 1409 0 
L 750 0 
L 750 794 
z
M 750 3309 
L 1409 3309 
L 1409 2516 
L 750 2516 
L 750 3309 
z
" transform="scale(0.015625)"/>
      <path id="DejaVuSans-2d" d="M 313 2009 
L 1997 2009 
L 1997 1497 
L 313 1497 
L 313 2009 
z
" transform="scale(0.015625)"/>
      <path id="DejaVuSans-30" d="M 2034 4250 
Q 1547 4250 1301 3770 
Q 1056 3291 1056 2328 
Q 1056 1369 1301 889 
Q 1547 409 2034 409 
Q 2525 409 2770 889 
Q 3016 1369 3016 2328 
Q 3016 3291 2770 3770 
Q 2525 4250 2034 4250 
z
M 2034 4750 
Q 2819 4750 3233 4129 
Q 3647 3509 3647 2328 
Q 3647 1150 3233 529 
Q 2819 -91 2034 -91 
Q 1250 -91 836 529 
Q 422 1150 422 2328 
Q 422 3509 836 4129 
Q 1250 4750 2034 4750 
z
" transform="scale(0.015625)"/>
      <path id="DejaVuSans-2e" d="M 684 794 
L 1344 794 
L 1344 0 
L 684 0 
L 684 794 
z
" transform="scale(0.015625)"/>
      <path id="DejaVuSans-33" d="M 2597 2516 
Q 3050 2419 3304 2112 
Q 3559 1806 3559 1356 
Q 3559 666 3084 287 
Q 2609 -91 1734 -91 
Q 1441 -91 1130 -33 
Q 819 25 488 141 
L 488 750 
Q 750 597 1062 519 
Q 1375 441 1716 441 
Q 2309 441 2620 675 
Q 2931 909 2931 1356 
Q 2931 1769 2642 2001 
Q 2353 2234 1838 2234 
L 1294 2234 
L 1294 2753 
L 1863 2753 
Q 2328 2753 2575 2939 
Q 2822 3125 2822 3475 
Q 2822 3834 2567 4026 
Q 2313 4219 1838 4219 
Q 1578 4219 1281 4162 
Q 984 4106 628 3988 
L 628 4550 
Q 988 4650 1302 4700 
Q 1616 4750 1894 4750 
Q 2613 4750 3031 4423 
Q 3450 4097 3450 3541 
Q 3450 3153 3228 2886 
Q 3006 2619 2597 2516 
z
" transform="scale(0.015625)"/>
      <path id="DejaVuSans-37" d="M 525 4666 
L 3525 4666 
L 3525 4397 
L 1831 0 
L 1172 0 
L 2766 4134 
L 525 4134 
L 525 4666 
z
" transform="scale(0.015625)"/>
     </defs>
     <use xlink:href="#DejaVuSans-50"/>
     <use xlink:href="#DejaVuSans-65" x="56.677734"/>
     <use xlink:href="#DejaVuSans-61" x="118.201172"/>
     <use xlink:href="#DejaVuSans-72" x="179.480469"/>
     <use xlink:href="#DejaVuSans-73" x="220.59375"/>
     <use xlink:href="#DejaVuSans-6f" x="272.693359"/>
     <use xlink:href="#DejaVuSans-6e" x="333.875"/>
     <use xlink:href="#DejaVuSans-20" x="397.253906"/>
     <use xlink:href="#DejaVuSans-72" x="429.041016"/>
     <use xlink:href="#DejaVuSans-3a" x="468.404297"/>
     <use xlink:href="#DejaVuSans-20" x="502.095703"/>
     <use xlink:href="#DejaVuSans-2d" x="533.882812"/>
     <use xlink:href="#DejaVuSans-30" x="569.966797"/>
     <use xlink:href="#DejaVuSans-2e" x="633.589844"/>
     <use xlink:href="#DejaVuSans-33" x="665.376953"/>
     <use xlink:href="#DejaVuSans-37" x="729"/>
    </g>
    <!-- P-value: 5.29e-02 -->
    <g transform="translate(70.955 94.807833) scale(0.12 -0.12)">
     <defs>
      <path id="DejaVuSans-76" d="M 191 3500 
L 800 3500 
L 1894 563 
L 2988 3500 
L 3597 3500 
L 2284 0 
L 1503 0 
L 191 3500 
z
" transform="scale(0.015625)"/>
      <path id="DejaVuSans-6c" d="M 603 4863 
L 1178 4863 
L 1178 0 
L 603 0 
L 603 4863 
z
" transform="scale(0.015625)"/>
      <path id="DejaVuSans-75" d="M 544 1381 
L 544 3500 
L 1119 3500 
L 1119 1403 
Q 1119 906 1312 657 
Q 1506 409 1894 409 
Q 2359 409 2629 706 
Q 2900 1003 2900 1516 
L 2900 3500 
L 3475 3500 
L 3475 0 
L 2900 0 
L 2900 538 
Q 2691 219 2414 64 
Q 2138 -91 1772 -91 
Q 1169 -91 856 284 
Q 544 659 544 1381 
z
M 1991 3584 
L 1991 3584 
z
" transform="scale(0.015625)"/>
      <path id="DejaVuSans-35" d="M 691 4666 
L 3169 4666 
L 3169 4134 
L 1269 4134 
L 1269 2991 
Q 1406 3038 1543 3061 
Q 1681 3084 1819 3084 
Q 2600 3084 3056 2656 
Q 3513 2228 3513 1497 
Q 3513 744 3044 326 
Q 2575 -91 1722 -91 
Q 1428 -91 1123 -41 
Q 819 9 494 109 
L 494 744 
Q 775 591 1075 516 
Q 1375 441 1709 441 
Q 2250 441 2565 725 
Q 2881 1009 2881 1497 
Q 2881 1984 2565 2268 
Q 2250 2553 1709 2553 
Q 1456 2553 1204 2497 
Q 953 2441 691 2322 
L 691 4666 
z
" transform="scale(0.015625)"/>
      <path id="DejaVuSans-32" d="M 1228 531 
L 3431 531 
L 3431 0 
L 469 0 
L 469 531 
Q 828 903 1448 1529 
Q 2069 2156 2228 2338 
Q 2531 2678 2651 2914 
Q 2772 3150 2772 3378 
Q 2772 3750 2511 3984 
Q 2250 4219 1831 4219 
Q 1534 4219 1204 4116 
Q 875 4013 500 3803 
L 500 4441 
Q 881 4594 1212 4672 
Q 1544 4750 1819 4750 
Q 2544 4750 2975 4387 
Q 3406 4025 3406 3419 
Q 3406 3131 3298 2873 
Q 3191 2616 2906 2266 
Q 2828 2175 2409 1742 
Q 1991 1309 1228 531 
z
" transform="scale(0.015625)"/>
      <path id="DejaVuSans-39" d="M 703 97 
L 703 672 
Q 941 559 1184 500 
Q 1428 441 1663 441 
Q 2288 441 2617 861 
Q 2947 1281 2994 2138 
Q 2813 1869 2534 1725 
Q 2256 1581 1919 1581 
Q 1219 1581 811 2004 
Q 403 2428 403 3163 
Q 403 3881 828 4315 
Q 1253 4750 1959 4750 
Q 2769 4750 3195 4129 
Q 3622 3509 3622 2328 
Q 3622 1225 3098 567 
Q 2575 -91 1691 -91 
Q 1453 -91 1209 -44 
Q 966 3 703 97 
z
M 1959 2075 
Q 2384 2075 2632 2365 
Q 2881 2656 2881 3163 
Q 2881 3666 2632 3958 
Q 2384 4250 1959 4250 
Q 1534 4250 1286 3958 
Q 1038 3666 1038 3163 
Q 1038 2656 1286 2365 
Q 1534 2075 1959 2075 
z
" transform="scale(0.015625)"/>
     </defs>
     <use xlink:href="#DejaVuSans-50"/>
     <use xlink:href="#DejaVuSans-2d" x="58.052734"/>
     <use xlink:href="#DejaVuSans-76" x="91.511719"/>
     <use xlink:href="#DejaVuSans-61" x="150.691406"/>
     <use xlink:href="#DejaVuSans-6c" x="211.970703"/>
     <use xlink:href="#DejaVuSans-75" x="239.753906"/>
     <use xlink:href="#DejaVuSans-65" x="303.132812"/>
     <use xlink:href="#DejaVuSans-3a" x="364.65625"/>
     <use xlink:href="#DejaVuSans-20" x="398.347656"/>
     <use xlink:href="#DejaVuSans-35" x="430.134766"/>
     <use xlink:href="#DejaVuSans-2e" x="493.757812"/>
     <use xlink:href="#DejaVuSans-32" x="525.544922"/>
     <use xlink:href="#DejaVuSans-39" x="589.167969"/>
     <use xlink:href="#DejaVuSans-65" x="652.791016"/>
     <use xlink:href="#DejaVuSans-2d" x="714.314453"/>
     <use xlink:href="#DejaVuSans-30" x="750.398438"/>
     <use xlink:href="#DejaVuSans-32" x="814.021484"/>
    </g>
   </g>
  </g>
  <g id="axes_2">
   <g id="patch_6">
    <path d="M 59.286875 42.998667 
L 292.649375 42.998667 
L 292.649375 7.2 
L 59.286875 7.2 
z
" style="fill: #ffffff"/>
   </g>
   <g id="patch_7">
    <path d="M 69.894261 42.998667 
L 81.059931 42.998667 
L 81.059931 25.951683 
L 69.894261 25.951683 
z
" clip-path="url(#pe506b7da6b)" style="fill: #808080; opacity: 0.6; stroke: #000000; stroke-linejoin: miter"/>
   </g>
   <g id="patch_8">
    <path d="M 81.059931 42.998667 
L 92.225601 42.998667 
L 92.225601 42.998667 
L 81.059931 42.998667 
z
" clip-path="url(#pe506b7da6b)" style="fill: #808080; opacity: 0.6; stroke: #000000; stroke-linejoin: miter"/>
   </g>
   <g id="patch_9">
    <path d="M 92.225601 42.998667 
L 103.391271 42.998667 
L 103.391271 42.998667 
L 92.225601 42.998667 
z
" clip-path="url(#pe506b7da6b)" style="fill: #808080; opacity: 0.6; stroke: #000000; stroke-linejoin: miter"/>
   </g>
   <g id="patch_10">
    <path d="M 103.391271 42.998667 
L 114.556941 42.998667 
L 114.556941 25.951683 
L 103.391271 25.951683 
z
" clip-path="url(#pe506b7da6b)" style="fill: #808080; opacity: 0.6; stroke: #000000; stroke-linejoin: miter"/>
   </g>
   <g id="patch_11">
    <path d="M 114.556941 42.998667 
L 125.722611 42.998667 
L 125.722611 34.475175 
L 114.556941 34.475175 
z
" clip-path="url(#pe506b7da6b)" style="fill: #808080; opacity: 0.6; stroke: #000000; stroke-linejoin: miter"/>
   </g>
   <g id="patch_12">
    <path d="M 125.722611 42.998667 
L 136.888281 42.998667 
L 136.888281 42.998667 
L 125.722611 42.998667 
z
" clip-path="url(#pe506b7da6b)" style="fill: #808080; opacity: 0.6; stroke: #000000; stroke-linejoin: miter"/>
   </g>
   <g id="patch_13">
    <path d="M 136.888281 42.998667 
L 148.05395 42.998667 
L 148.05395 25.951683 
L 136.888281 25.951683 
z
" clip-path="url(#pe506b7da6b)" style="fill: #808080; opacity: 0.6; stroke: #000000; stroke-linejoin: miter"/>
   </g>
   <g id="patch_14">
    <path d="M 148.05395 42.998667 
L 159.21962 42.998667 
L 159.21962 42.998667 
L 148.05395 42.998667 
z
" clip-path="url(#pe506b7da6b)" style="fill: #808080; opacity: 0.6; stroke: #000000; stroke-linejoin: miter"/>
   </g>
   <g id="patch_15">
    <path d="M 159.21962 42.998667 
L 170.38529 42.998667 
L 170.38529 8.904698 
L 159.21962 8.904698 
z
" clip-path="url(#pe506b7da6b)" style="fill: #808080; opacity: 0.6; stroke: #000000; stroke-linejoin: miter"/>
   </g>
   <g id="patch_16">
    <path d="M 170.38529 42.998667 
L 181.55096 42.998667 
L 181.55096 25.951683 
L 170.38529 25.951683 
z
" clip-path="url(#pe506b7da6b)" style="fill: #808080; opacity: 0.6; stroke: #000000; stroke-linejoin: miter"/>
   </g>
   <g id="patch_17">
    <path d="M 181.55096 42.998667 
L 192.71663 42.998667 
L 192.71663 8.904698 
L 181.55096 8.904698 
z
" clip-path="url(#pe506b7da6b)" style="fill: #808080; opacity: 0.6; stroke: #000000; stroke-linejoin: miter"/>
   </g>
   <g id="patch_18">
    <path d="M 192.71663 42.998667 
L 203.8823 42.998667 
L 203.8823 34.475175 
L 192.71663 34.475175 
z
" clip-path="url(#pe506b7da6b)" style="fill: #808080; opacity: 0.6; stroke: #000000; stroke-linejoin: miter"/>
   </g>
   <g id="patch_19">
    <path d="M 203.8823 42.998667 
L 215.047969 42.998667 
L 215.047969 34.475175 
L 203.8823 34.475175 
z
" clip-path="url(#pe506b7da6b)" style="fill: #808080; opacity: 0.6; stroke: #000000; stroke-linejoin: miter"/>
   </g>
   <g id="patch_20">
    <path d="M 215.047969 42.998667 
L 226.213639 42.998667 
L 226.213639 25.951683 
L 215.047969 25.951683 
z
" clip-path="url(#pe506b7da6b)" style="fill: #808080; opacity: 0.6; stroke: #000000; stroke-linejoin: miter"/>
   </g>
   <g id="patch_21">
    <path d="M 226.213639 42.998667 
L 237.379309 42.998667 
L 237.379309 34.475175 
L 226.213639 34.475175 
z
" clip-path="url(#pe506b7da6b)" style="fill: #808080; opacity: 0.6; stroke: #000000; stroke-linejoin: miter"/>
   </g>
   <g id="patch_22">
    <path d="M 237.379309 42.998667 
L 248.544979 42.998667 
L 248.544979 34.475175 
L 237.379309 34.475175 
z
" clip-path="url(#pe506b7da6b)" style="fill: #808080; opacity: 0.6; stroke: #000000; stroke-linejoin: miter"/>
   </g>
   <g id="patch_23">
    <path d="M 248.544979 42.998667 
L 259.710649 42.998667 
L 259.710649 17.42819 
L 248.544979 17.42819 
z
" clip-path="url(#pe506b7da6b)" style="fill: #808080; opacity: 0.6; stroke: #000000; stroke-linejoin: miter"/>
   </g>
   <g id="patch_24">
    <path d="M 259.710649 42.998667 
L 270.876319 42.998667 
L 270.876319 34.475175 
L 259.710649 34.475175 
z
" clip-path="url(#pe506b7da6b)" style="fill: #808080; opacity: 0.6; stroke: #000000; stroke-linejoin: miter"/>
   </g>
   <g id="patch_25">
    <path d="M 270.876319 42.998667 
L 282.041989 42.998667 
L 282.041989 34.475175 
L 270.876319 34.475175 
z
" clip-path="url(#pe506b7da6b)" style="fill: #808080; opacity: 0.6; stroke: #000000; stroke-linejoin: miter"/>
   </g>
   <g id="matplotlib.axis_3">
    <g id="xtick_30">
     <g id="line2d_37">
      <g>
       <use xlink:href="#m5f683d4792" x="118.937649" y="42.998667" style="stroke: #000000; stroke-width: 0.8"/>
      </g>
     </g>
    </g>
    <g id="xtick_31">
     <g id="line2d_38">
      <g>
       <use xlink:href="#m5f683d4792" x="186.867646" y="42.998667" style="stroke: #000000; stroke-width: 0.8"/>
      </g>
     </g>
    </g>
    <g id="xtick_32">
     <g id="line2d_39">
      <g>
       <use xlink:href="#m5f683d4792" x="254.797643" y="42.998667" style="stroke: #000000; stroke-width: 0.8"/>
      </g>
     </g>
    </g>
    <g id="xtick_33">
     <g id="line2d_40">
      <g>
       <use xlink:href="#m54b028b38a" x="71.456618" y="42.998667" style="stroke: #000000; stroke-width: 0.6"/>
      </g>
     </g>
    </g>
    <g id="xtick_34">
     <g id="line2d_41">
      <g>
       <use xlink:href="#m54b028b38a" x="83.418497" y="42.998667" style="stroke: #000000; stroke-width: 0.6"/>
      </g>
     </g>
    </g>
    <g id="xtick_35">
     <g id="line2d_42">
      <g>
       <use xlink:href="#m54b028b38a" x="91.905585" y="42.998667" style="stroke: #000000; stroke-width: 0.6"/>
      </g>
     </g>
    </g>
    <g id="xtick_36">
     <g id="line2d_43">
      <g>
       <use xlink:href="#m54b028b38a" x="98.488682" y="42.998667" style="stroke: #000000; stroke-width: 0.6"/>
      </g>
     </g>
    </g>
    <g id="xtick_37">
     <g id="line2d_44">
      <g>
       <use xlink:href="#m54b028b38a" x="103.867464" y="42.998667" style="stroke: #000000; stroke-width: 0.6"/>
      </g>
     </g>
    </g>
    <g id="xtick_38">
     <g id="line2d_45">
      <g>
       <use xlink:href="#m54b028b38a" x="108.415159" y="42.998667" style="stroke: #000000; stroke-width: 0.6"/>
      </g>
     </g>
    </g>
    <g id="xtick_39">
     <g id="line2d_46">
      <g>
       <use xlink:href="#m54b028b38a" x="112.354552" y="42.998667" style="stroke: #000000; stroke-width: 0.6"/>
      </g>
     </g>
    </g>
    <g id="xtick_40">
     <g id="line2d_47">
      <g>
       <use xlink:href="#m54b028b38a" x="115.829343" y="42.998667" style="stroke: #000000; stroke-width: 0.6"/>
      </g>
     </g>
    </g>
    <g id="xtick_41">
     <g id="line2d_48">
      <g>
       <use xlink:href="#m54b028b38a" x="139.386616" y="42.998667" style="stroke: #000000; stroke-width: 0.6"/>
      </g>
     </g>
    </g>
    <g id="xtick_42">
     <g id="line2d_49">
      <g>
       <use xlink:href="#m54b028b38a" x="151.348494" y="42.998667" style="stroke: #000000; stroke-width: 0.6"/>
      </g>
     </g>
    </g>
    <g id="xtick_43">
     <g id="line2d_50">
      <g>
       <use xlink:href="#m54b028b38a" x="159.835582" y="42.998667" style="stroke: #000000; stroke-width: 0.6"/>
      </g>
     </g>
    </g>
    <g id="xtick_44">
     <g id="line2d_51">
      <g>
       <use xlink:href="#m54b028b38a" x="166.418679" y="42.998667" style="stroke: #000000; stroke-width: 0.6"/>
      </g>
     </g>
    </g>
    <g id="xtick_45">
     <g id="line2d_52">
      <g>
       <use xlink:href="#m54b028b38a" x="171.797461" y="42.998667" style="stroke: #000000; stroke-width: 0.6"/>
      </g>
     </g>
    </g>
    <g id="xtick_46">
     <g id="line2d_53">
      <g>
       <use xlink:href="#m54b028b38a" x="176.345156" y="42.998667" style="stroke: #000000; stroke-width: 0.6"/>
      </g>
     </g>
    </g>
    <g id="xtick_47">
     <g id="line2d_54">
      <g>
       <use xlink:href="#m54b028b38a" x="180.284549" y="42.998667" style="stroke: #000000; stroke-width: 0.6"/>
      </g>
     </g>
    </g>
    <g id="xtick_48">
     <g id="line2d_55">
      <g>
       <use xlink:href="#m54b028b38a" x="183.75934" y="42.998667" style="stroke: #000000; stroke-width: 0.6"/>
      </g>
     </g>
    </g>
    <g id="xtick_49">
     <g id="line2d_56">
      <g>
       <use xlink:href="#m54b028b38a" x="207.316613" y="42.998667" style="stroke: #000000; stroke-width: 0.6"/>
      </g>
     </g>
    </g>
    <g id="xtick_50">
     <g id="line2d_57">
      <g>
       <use xlink:href="#m54b028b38a" x="219.278492" y="42.998667" style="stroke: #000000; stroke-width: 0.6"/>
      </g>
     </g>
    </g>
    <g id="xtick_51">
     <g id="line2d_58">
      <g>
       <use xlink:href="#m54b028b38a" x="227.76558" y="42.998667" style="stroke: #000000; stroke-width: 0.6"/>
      </g>
     </g>
    </g>
    <g id="xtick_52">
     <g id="line2d_59">
      <g>
       <use xlink:href="#m54b028b38a" x="234.348677" y="42.998667" style="stroke: #000000; stroke-width: 0.6"/>
      </g>
     </g>
    </g>
    <g id="xtick_53">
     <g id="line2d_60">
      <g>
       <use xlink:href="#m54b028b38a" x="239.727458" y="42.998667" style="stroke: #000000; stroke-width: 0.6"/>
      </g>
     </g>
    </g>
    <g id="xtick_54">
     <g id="line2d_61">
      <g>
       <use xlink:href="#m54b028b38a" x="244.275154" y="42.998667" style="stroke: #000000; stroke-width: 0.6"/>
      </g>
     </g>
    </g>
    <g id="xtick_55">
     <g id="line2d_62">
      <g>
       <use xlink:href="#m54b028b38a" x="248.214546" y="42.998667" style="stroke: #000000; stroke-width: 0.6"/>
      </g>
     </g>
    </g>
    <g id="xtick_56">
     <g id="line2d_63">
      <g>
       <use xlink:href="#m54b028b38a" x="251.689337" y="42.998667" style="stroke: #000000; stroke-width: 0.6"/>
      </g>
     </g>
    </g>
    <g id="xtick_57">
     <g id="line2d_64">
      <g>
       <use xlink:href="#m54b028b38a" x="275.24661" y="42.998667" style="stroke: #000000; stroke-width: 0.6"/>
      </g>
     </g>
    </g>
    <g id="xtick_58">
     <g id="line2d_65">
      <g>
       <use xlink:href="#m54b028b38a" x="287.208489" y="42.998667" style="stroke: #000000; stroke-width: 0.6"/>
      </g>
     </g>
    </g>
   </g>
   <g id="matplotlib.axis_4">
    <g id="ytick_7">
     <g id="line2d_66">
      <g>
       <use xlink:href="#mf7404bff49" x="59.286875" y="42.998667" style="stroke: #000000; stroke-width: 0.8"/>
      </g>
     </g>
     <g id="text_13">
      <!-- 0.0 -->
      <g transform="translate(36.38375 46.797885) scale(0.1 -0.1)">
       <use xlink:href="#DejaVuSans-30"/>
       <use xlink:href="#DejaVuSans-2e" x="63.623047"/>
       <use xlink:href="#DejaVuSans-30" x="95.410156"/>
      </g>
     </g>
    </g>
    <g id="ytick_8">
     <g id="line2d_67">
      <g>
       <use xlink:href="#mf7404bff49" x="59.286875" y="21.689937" style="stroke: #000000; stroke-width: 0.8"/>
      </g>
     </g>
     <g id="text_14">
      <!-- 2.5 -->
      <g transform="translate(36.38375 25.489155) scale(0.1 -0.1)">
       <use xlink:href="#DejaVuSans-32"/>
       <use xlink:href="#DejaVuSans-2e" x="63.623047"/>
       <use xlink:href="#DejaVuSans-35" x="95.410156"/>
      </g>
     </g>
    </g>
   </g>
   <g id="patch_26">
    <path d="M 59.286875 42.998667 
L 59.286875 7.2 
" style="fill: none; stroke: #000000; stroke-width: 0.8; stroke-linejoin: miter; stroke-linecap: square"/>
   </g>
   <g id="patch_27">
    <path d="M 59.286875 42.998667 
L 292.649375 42.998667 
" style="fill: none; stroke: #000000; stroke-width: 0.8; stroke-linejoin: miter; stroke-linecap: square"/>
   </g>
  </g>
  <g id="axes_3">
   <g id="patch_28">
    <path d="M 306.949375 306.592 
L 342.181875 306.592 
L 342.181875 59.918667 
L 306.949375 59.918667 
z
" style="fill: #ffffff"/>
   </g>
   <g id="matplotlib.axis_5">
    <g id="xtick_59">
     <g id="line2d_68">
      <g>
       <use xlink:href="#m5f683d4792" x="306.949375" y="306.592" style="stroke: #000000; stroke-width: 0.8"/>
      </g>
     </g>
     <g id="text_15">
      <!-- 0 -->
      <g transform="translate(303.768125 321.190437) scale(0.1 -0.1)">
       <use xlink:href="#DejaVuSans-30"/>
      </g>
     </g>
    </g>
    <g id="xtick_60">
     <g id="line2d_69">
      <g>
       <use xlink:href="#m5f683d4792" x="342.181875" y="306.592" style="stroke: #000000; stroke-width: 0.8"/>
      </g>
     </g>
     <g id="text_16">
      <!-- 1 -->
      <g transform="translate(339.000625 321.190437) scale(0.1 -0.1)">
       <defs>
        <path id="DejaVuSans-31" d="M 794 531 
L 1825 531 
L 1825 4091 
L 703 3866 
L 703 4441 
L 1819 4666 
L 2450 4666 
L 2450 531 
L 3481 531 
L 3481 0 
L 794 0 
L 794 531 
z
" transform="scale(0.015625)"/>
       </defs>
       <use xlink:href="#DejaVuSans-31"/>
      </g>
     </g>
    </g>
   </g>
   <g id="matplotlib.axis_6">
    <g id="ytick_9">
     <g id="line2d_70">
      <g>
       <use xlink:href="#mf7404bff49" x="306.949375" y="292.388519" style="stroke: #000000; stroke-width: 0.8"/>
      </g>
     </g>
    </g>
    <g id="ytick_10">
     <g id="line2d_71">
      <g>
       <use xlink:href="#mf7404bff49" x="306.949375" y="248.137034" style="stroke: #000000; stroke-width: 0.8"/>
      </g>
     </g>
    </g>
    <g id="ytick_11">
     <g id="line2d_72">
      <g>
       <use xlink:href="#mf7404bff49" x="306.949375" y="203.885548" style="stroke: #000000; stroke-width: 0.8"/>
      </g>
     </g>
    </g>
    <g id="ytick_12">
     <g id="line2d_73">
      <g>
       <use xlink:href="#mf7404bff49" x="306.949375" y="159.634062" style="stroke: #000000; stroke-width: 0.8"/>
      </g>
     </g>
    </g>
    <g id="ytick_13">
     <g id="line2d_74">
      <g>
       <use xlink:href="#mf7404bff49" x="306.949375" y="115.382577" style="stroke: #000000; stroke-width: 0.8"/>
      </g>
     </g>
    </g>
    <g id="ytick_14">
     <g id="line2d_75">
      <g>
       <use xlink:href="#mf7404bff49" x="306.949375" y="71.131091" style="stroke: #000000; stroke-width: 0.8"/>
      </g>
     </g>
    </g>
   </g>
   <g id="patch_29">
    <path d="M 306.949375 306.592 
L 306.949375 59.918667 
" style="fill: none; stroke: #000000; stroke-width: 0.8; stroke-linejoin: miter; stroke-linecap: square"/>
   </g>
   <g id="patch_30">
    <path d="M 306.949375 306.592 
L 342.181875 306.592 
" style="fill: none; stroke: #000000; stroke-width: 0.8; stroke-linejoin: miter; stroke-linecap: square"/>
   </g>
  </g>
 </g>
 <defs>
  <clipPath id="p561a30f8b1">
   <rect x="59.286875" y="59.918667" width="233.3625" height="246.673333"/>
  </clipPath>
  <clipPath id="pe506b7da6b">
   <rect x="59.286875" y="7.2" width="233.3625" height="35.798667"/>
  </clipPath>
 </defs>
</svg>
