<?xml version="1.0" encoding="utf-8" standalone="no"?>
<!DOCTYPE svg PUBLIC "-//W3C//DTD SVG 1.1//EN"
  "http://www.w3.org/Graphics/SVG/1.1/DTD/svg11.dtd">
<svg xmlns:xlink="http://www.w3.org/1999/xlink" width="352.575625pt" height="208.329688pt" viewBox="0 0 352.575625 208.329688" xmlns="http://www.w3.org/2000/svg" version="1.1">
 <metadata>
  <rdf:RDF xmlns:dc="http://purl.org/dc/elements/1.1/" xmlns:cc="http://creativecommons.org/ns#" xmlns:rdf="http://www.w3.org/1999/02/22-rdf-syntax-ns#">
   <cc:Work>
    <dc:type rdf:resource="http://purl.org/dc/dcmitype/StillImage"/>
    <dc:date>2024-11-19T19:00:56.061513</dc:date>
    <dc:format>image/svg+xml</dc:format>
    <dc:creator>
     <cc:Agent>
      <dc:title>Matplotlib v3.8.1, https://matplotlib.org/</dc:title>
     </cc:Agent>
    </dc:creator>
   </cc:Work>
  </rdf:RDF>
 </metadata>
 <defs>
  <style type="text/css">*{stroke-linejoin: round; stroke-linecap: butt}</style>
 </defs>
 <g id="figure_1">
  <g id="patch_1">
   <path d="M 0 208.329688 
L 352.575625 208.329688 
L 352.575625 0 
L 0 0 
z
" style="fill: #ffffff"/>
  </g>
  <g id="axes_1">
   <g id="patch_2">
    <path d="M 42.17625 162.837813 
L 217.19625 162.837813 
L 217.19625 32.837813 
L 42.17625 32.837813 
z
" style="fill: #ffffff"/>
   </g>
   <g id="PolyCollection_1"/>
   <g id="PolyCollection_2"/>
   <g id="PolyCollection_3"/>
   <g id="PolyCollection_4"/>
   <g id="PolyCollection_5"/>
   <g id="matplotlib.axis_1">
    <g id="xtick_1">
     <g id="line2d_1">
      <defs>
       <path id="m3bc1f4114d" d="M 0 0 
L 0 3.5 
" style="stroke: #000000; stroke-width: 0.8"/>
      </defs>
      <g>
       <use xlink:href="#m3bc1f4114d" x="83.628355" y="162.837813" style="stroke: #000000; stroke-width: 0.8"/>
      </g>
     </g>
     <g id="text_1">
      <!-- 10000 -->
      <g transform="translate(67.722105 177.43625) scale(0.1 -0.1)">
       <defs>
        <path id="DejaVuSerif-31" d="M 909 0 
L 909 331 
L 1722 331 
L 1722 4213 
L 781 3603 
L 781 4013 
L 1919 4750 
L 2350 4750 
L 2350 331 
L 3163 331 
L 3163 0 
L 909 0 
z
" transform="scale(0.015625)"/>
        <path id="DejaVuSerif-30" d="M 2034 219 
Q 2513 219 2750 744 
Q 2988 1269 2988 2328 
Q 2988 3391 2750 3916 
Q 2513 4441 2034 4441 
Q 1556 4441 1318 3916 
Q 1081 3391 1081 2328 
Q 1081 1269 1318 744 
Q 1556 219 2034 219 
z
M 2034 -91 
Q 1275 -91 848 546 
Q 422 1184 422 2328 
Q 422 3475 848 4112 
Q 1275 4750 2034 4750 
Q 2797 4750 3222 4112 
Q 3647 3475 3647 2328 
Q 3647 1184 3222 546 
Q 2797 -91 2034 -91 
z
" transform="scale(0.015625)"/>
       </defs>
       <use xlink:href="#DejaVuSerif-31"/>
       <use xlink:href="#DejaVuSerif-30" x="63.623047"/>
       <use xlink:href="#DejaVuSerif-30" x="127.246094"/>
       <use xlink:href="#DejaVuSerif-30" x="190.869141"/>
       <use xlink:href="#DejaVuSerif-30" x="254.492188"/>
      </g>
     </g>
    </g>
    <g id="xtick_2">
     <g id="line2d_2">
      <g>
       <use xlink:href="#m3bc1f4114d" x="125.499169" y="162.837813" style="stroke: #000000; stroke-width: 0.8"/>
      </g>
     </g>
     <g id="text_2">
      <!-- 20000 -->
      <g transform="translate(109.592919 177.43625) scale(0.1 -0.1)">
       <defs>
        <path id="DejaVuSerif-32" d="M 819 3553 
L 469 3553 
L 469 4384 
Q 803 4563 1142 4656 
Q 1481 4750 1806 4750 
Q 2534 4750 2956 4397 
Q 3378 4044 3378 3438 
Q 3378 2753 2422 1800 
Q 2347 1728 2309 1691 
L 1131 513 
L 3078 513 
L 3078 1088 
L 3444 1088 
L 3444 0 
L 434 0 
L 434 341 
L 1850 1753 
Q 2319 2222 2519 2614 
Q 2719 3006 2719 3438 
Q 2719 3909 2473 4175 
Q 2228 4441 1797 4441 
Q 1350 4441 1106 4219 
Q 863 3997 819 3553 
z
" transform="scale(0.015625)"/>
       </defs>
       <use xlink:href="#DejaVuSerif-32"/>
       <use xlink:href="#DejaVuSerif-30" x="63.623047"/>
       <use xlink:href="#DejaVuSerif-30" x="127.246094"/>
       <use xlink:href="#DejaVuSerif-30" x="190.869141"/>
       <use xlink:href="#DejaVuSerif-30" x="254.492188"/>
      </g>
     </g>
    </g>
    <g id="xtick_3">
     <g id="line2d_3">
      <g>
       <use xlink:href="#m3bc1f4114d" x="167.369982" y="162.837813" style="stroke: #000000; stroke-width: 0.8"/>
      </g>
     </g>
     <g id="text_3">
      <!-- 30000 -->
      <g transform="translate(151.463732 177.43625) scale(0.1 -0.1)">
       <defs>
        <path id="DejaVuSerif-33" d="M 622 4469 
Q 988 4606 1323 4678 
Q 1659 4750 1953 4750 
Q 2638 4750 3022 4454 
Q 3406 4159 3406 3634 
Q 3406 3213 3140 2930 
Q 2875 2647 2388 2547 
Q 2963 2466 3280 2130 
Q 3597 1794 3597 1259 
Q 3597 606 3158 257 
Q 2719 -91 1894 -91 
Q 1528 -91 1179 -12 
Q 831 66 488 225 
L 488 1131 
L 838 1131 
Q 869 681 1141 450 
Q 1413 219 1906 219 
Q 2384 219 2661 495 
Q 2938 772 2938 1253 
Q 2938 1803 2653 2086 
Q 2369 2369 1819 2369 
L 1522 2369 
L 1522 2688 
L 1678 2688 
Q 2225 2688 2498 2914 
Q 2772 3141 2772 3597 
Q 2772 4006 2547 4223 
Q 2322 4441 1900 4441 
Q 1478 4441 1245 4241 
Q 1013 4041 972 3647 
L 622 3647 
L 622 4469 
z
" transform="scale(0.015625)"/>
       </defs>
       <use xlink:href="#DejaVuSerif-33"/>
       <use xlink:href="#DejaVuSerif-30" x="63.623047"/>
       <use xlink:href="#DejaVuSerif-30" x="127.246094"/>
       <use xlink:href="#DejaVuSerif-30" x="190.869141"/>
       <use xlink:href="#DejaVuSerif-30" x="254.492188"/>
      </g>
     </g>
    </g>
    <g id="xtick_4">
     <g id="line2d_4">
      <g>
       <use xlink:href="#m3bc1f4114d" x="209.240795" y="162.837813" style="stroke: #000000; stroke-width: 0.8"/>
      </g>
     </g>
     <g id="text_4">
      <!-- 40000 -->
      <g transform="translate(193.334545 177.43625) scale(0.1 -0.1)">
       <defs>
        <path id="DejaVuSerif-34" d="M 2234 1581 
L 2234 4063 
L 641 1581 
L 2234 1581 
z
M 3609 0 
L 1484 0 
L 1484 331 
L 2234 331 
L 2234 1247 
L 197 1247 
L 197 1588 
L 2241 4750 
L 2859 4750 
L 2859 1581 
L 3750 1581 
L 3750 1247 
L 2859 1247 
L 2859 331 
L 3609 331 
L 3609 0 
z
" transform="scale(0.015625)"/>
       </defs>
       <use xlink:href="#DejaVuSerif-34"/>
       <use xlink:href="#DejaVuSerif-30" x="63.623047"/>
       <use xlink:href="#DejaVuSerif-30" x="127.246094"/>
       <use xlink:href="#DejaVuSerif-30" x="190.869141"/>
       <use xlink:href="#DejaVuSerif-30" x="254.492188"/>
      </g>
     </g>
    </g>
    <g id="text_5">
     <!-- Number of Genes -->
     <g transform="translate(76.13625 198.634062) scale(0.12 -0.12)">
      <defs>
       <path id="DejaVuSerif-4e" d="M 313 0 
L 313 331 
L 941 331 
L 941 4331 
L 313 4331 
L 313 4666 
L 1509 4666 
L 4306 984 
L 4306 4331 
L 3681 4331 
L 3681 4666 
L 5319 4666 
L 5319 4331 
L 4691 4331 
L 4691 -91 
L 4313 -91 
L 1325 3841 
L 1325 331 
L 1953 331 
L 1953 0 
L 313 0 
z
" transform="scale(0.015625)"/>
       <path id="DejaVuSerif-75" d="M 2266 3322 
L 3341 3322 
L 3341 331 
L 3884 331 
L 3884 0 
L 2766 0 
L 2766 588 
Q 2606 256 2353 82 
Q 2100 -91 1766 -91 
Q 1213 -91 952 223 
Q 691 538 691 1209 
L 691 2988 
L 172 2988 
L 172 3322 
L 1269 3322 
L 1269 1388 
Q 1269 781 1417 556 
Q 1566 331 1947 331 
Q 2347 331 2556 625 
Q 2766 919 2766 1478 
L 2766 2988 
L 2266 2988 
L 2266 3322 
z
" transform="scale(0.015625)"/>
       <path id="DejaVuSerif-6d" d="M 3316 2675 
Q 3481 3041 3739 3227 
Q 3997 3413 4341 3413 
Q 4863 3413 5119 3089 
Q 5375 2766 5375 2113 
L 5375 331 
L 5894 331 
L 5894 0 
L 4300 0 
L 4300 331 
L 4800 331 
L 4800 2047 
Q 4800 2556 4650 2772 
Q 4500 2988 4153 2988 
Q 3769 2988 3567 2697 
Q 3366 2406 3366 1850 
L 3366 331 
L 3866 331 
L 3866 0 
L 2291 0 
L 2291 331 
L 2791 331 
L 2791 2069 
Q 2791 2566 2641 2777 
Q 2491 2988 2144 2988 
Q 1759 2988 1557 2697 
Q 1356 2406 1356 1850 
L 1356 331 
L 1856 331 
L 1856 0 
L 263 0 
L 263 331 
L 781 331 
L 781 2994 
L 231 2994 
L 231 3322 
L 1356 3322 
L 1356 2731 
Q 1516 3063 1762 3238 
Q 2009 3413 2322 3413 
Q 2709 3413 2968 3220 
Q 3228 3028 3316 2675 
z
" transform="scale(0.015625)"/>
       <path id="DejaVuSerif-62" d="M 738 331 
L 738 4531 
L 184 4531 
L 184 4863 
L 1313 4863 
L 1313 2803 
Q 1481 3116 1742 3264 
Q 2003 3413 2388 3413 
Q 3000 3413 3387 2928 
Q 3775 2444 3775 1663 
Q 3775 881 3387 395 
Q 3000 -91 2388 -91 
Q 2003 -91 1742 57 
Q 1481 206 1313 519 
L 1313 0 
L 184 0 
L 184 331 
L 738 331 
z
M 1313 1497 
Q 1313 897 1542 583 
Q 1772 269 2209 269 
Q 2650 269 2876 622 
Q 3103 975 3103 1663 
Q 3103 2353 2876 2703 
Q 2650 3053 2209 3053 
Q 1772 3053 1542 2737 
Q 1313 2422 1313 1825 
L 1313 1497 
z
" transform="scale(0.015625)"/>
       <path id="DejaVuSerif-65" d="M 3469 1600 
L 991 1600 
L 991 1575 
Q 991 903 1244 561 
Q 1497 219 1991 219 
Q 2369 219 2611 417 
Q 2853 616 2950 1006 
L 3413 1006 
Q 3275 459 2904 184 
Q 2534 -91 1931 -91 
Q 1203 -91 761 389 
Q 319 869 319 1663 
Q 319 2450 753 2931 
Q 1188 3413 1894 3413 
Q 2647 3413 3050 2948 
Q 3453 2484 3469 1600 
z
M 2791 1931 
Q 2772 2513 2545 2808 
Q 2319 3103 1894 3103 
Q 1497 3103 1269 2806 
Q 1041 2509 991 1931 
L 2791 1931 
z
" transform="scale(0.015625)"/>
       <path id="DejaVuSerif-72" d="M 3059 3328 
L 3059 2497 
L 2728 2497 
Q 2713 2744 2591 2866 
Q 2469 2988 2234 2988 
Q 1809 2988 1582 2694 
Q 1356 2400 1356 1850 
L 1356 331 
L 2022 331 
L 2022 0 
L 263 0 
L 263 331 
L 781 331 
L 781 2994 
L 231 2994 
L 231 3322 
L 1356 3322 
L 1356 2731 
Q 1525 3078 1790 3245 
Q 2056 3413 2438 3413 
Q 2578 3413 2733 3391 
Q 2888 3369 3059 3328 
z
" transform="scale(0.015625)"/>
       <path id="DejaVuSerif-20" transform="scale(0.015625)"/>
       <path id="DejaVuSerif-6f" d="M 1925 219 
Q 2388 219 2623 584 
Q 2859 950 2859 1663 
Q 2859 2375 2623 2739 
Q 2388 3103 1925 3103 
Q 1463 3103 1227 2739 
Q 991 2375 991 1663 
Q 991 950 1228 584 
Q 1466 219 1925 219 
z
M 1925 -91 
Q 1200 -91 759 389 
Q 319 869 319 1663 
Q 319 2456 758 2934 
Q 1197 3413 1925 3413 
Q 2653 3413 3092 2934 
Q 3531 2456 3531 1663 
Q 3531 869 3092 389 
Q 2653 -91 1925 -91 
z
" transform="scale(0.015625)"/>
       <path id="DejaVuSerif-66" d="M 2753 4078 
L 2450 4078 
Q 2447 4313 2317 4434 
Q 2188 4556 1941 4556 
Q 1619 4556 1487 4379 
Q 1356 4203 1356 3750 
L 1356 3322 
L 2284 3322 
L 2284 2988 
L 1356 2988 
L 1356 331 
L 2094 331 
L 2094 0 
L 231 0 
L 231 331 
L 781 331 
L 781 2988 
L 231 2988 
L 231 3322 
L 781 3322 
L 781 3738 
Q 781 4294 1070 4578 
Q 1359 4863 1919 4863 
Q 2128 4863 2337 4825 
Q 2547 4788 2753 4709 
L 2753 4078 
z
" transform="scale(0.015625)"/>
       <path id="DejaVuSerif-47" d="M 4097 3272 
Q 3988 3856 3641 4136 
Q 3294 4416 2675 4416 
Q 1869 4416 1472 3897 
Q 1075 3378 1075 2328 
Q 1075 1300 1484 772 
Q 1894 244 2688 244 
Q 3041 244 3362 331 
Q 3684 419 3975 594 
L 3975 1797 
L 3097 1797 
L 3097 2131 
L 4609 2131 
L 4609 391 
Q 4194 150 3714 29 
Q 3234 -91 2688 -91 
Q 1631 -91 995 570 
Q 359 1231 359 2328 
Q 359 3434 996 4092 
Q 1634 4750 2713 4750 
Q 3113 4750 3539 4658 
Q 3966 4566 4447 4378 
L 4447 3272 
L 4097 3272 
z
" transform="scale(0.015625)"/>
       <path id="DejaVuSerif-6e" d="M 263 0 
L 263 331 
L 781 331 
L 781 2988 
L 231 2988 
L 231 3322 
L 1356 3322 
L 1356 2731 
Q 1516 3069 1770 3241 
Q 2025 3413 2363 3413 
Q 2913 3413 3172 3097 
Q 3431 2781 3431 2113 
L 3431 331 
L 3944 331 
L 3944 0 
L 2356 0 
L 2356 331 
L 2853 331 
L 2853 1931 
Q 2853 2541 2703 2767 
Q 2553 2994 2175 2994 
Q 1775 2994 1565 2701 
Q 1356 2409 1356 1850 
L 1356 331 
L 1856 331 
L 1856 0 
L 263 0 
z
" transform="scale(0.015625)"/>
       <path id="DejaVuSerif-73" d="M 359 184 
L 359 959 
L 691 959 
Q 703 588 923 403 
Q 1144 219 1575 219 
Q 1963 219 2166 364 
Q 2369 509 2369 788 
Q 2369 1006 2220 1140 
Q 2072 1275 1594 1428 
L 1178 1569 
Q 750 1706 558 1912 
Q 366 2119 366 2438 
Q 366 2894 700 3153 
Q 1034 3413 1625 3413 
Q 1888 3413 2178 3344 
Q 2469 3275 2778 3144 
L 2778 2419 
L 2447 2419 
Q 2434 2741 2221 2922 
Q 2009 3103 1644 3103 
Q 1281 3103 1095 2975 
Q 909 2847 909 2591 
Q 909 2381 1050 2254 
Q 1191 2128 1613 1997 
L 2069 1856 
Q 2541 1709 2748 1489 
Q 2956 1269 2956 922 
Q 2956 450 2595 179 
Q 2234 -91 1600 -91 
Q 1278 -91 972 -22 
Q 666 47 359 184 
z
" transform="scale(0.015625)"/>
      </defs>
      <use xlink:href="#DejaVuSerif-4e"/>
      <use xlink:href="#DejaVuSerif-75" x="87.5"/>
      <use xlink:href="#DejaVuSerif-6d" x="151.904297"/>
      <use xlink:href="#DejaVuSerif-62" x="246.728516"/>
      <use xlink:href="#DejaVuSerif-65" x="310.742188"/>
      <use xlink:href="#DejaVuSerif-72" x="369.921875"/>
      <use xlink:href="#DejaVuSerif-20" x="417.724609"/>
      <use xlink:href="#DejaVuSerif-6f" x="449.511719"/>
      <use xlink:href="#DejaVuSerif-66" x="509.716797"/>
      <use xlink:href="#DejaVuSerif-20" x="546.728516"/>
      <use xlink:href="#DejaVuSerif-47" x="578.515625"/>
      <use xlink:href="#DejaVuSerif-65" x="658.398438"/>
      <use xlink:href="#DejaVuSerif-6e" x="717.578125"/>
      <use xlink:href="#DejaVuSerif-65" x="781.982422"/>
      <use xlink:href="#DejaVuSerif-73" x="841.162109"/>
     </g>
    </g>
   </g>
   <g id="matplotlib.axis_2">
    <g id="ytick_1">
     <g id="line2d_5">
      <defs>
       <path id="m4924b64a6f" d="M 0 0 
L -3.5 0 
" style="stroke: #000000; stroke-width: 0.8"/>
      </defs>
      <g>
       <use xlink:href="#m4924b64a6f" x="42.17625" y="142.447611" style="stroke: #000000; stroke-width: 0.8"/>
      </g>
     </g>
     <g id="text_6">
      <!-- 1 -->
      <g transform="translate(28.81375 146.24683) scale(0.1 -0.1)">
       <use xlink:href="#DejaVuSerif-31"/>
      </g>
     </g>
    </g>
    <g id="ytick_2">
     <g id="line2d_6">
      <g>
       <use xlink:href="#m4924b64a6f" x="42.17625" y="120.542914" style="stroke: #000000; stroke-width: 0.8"/>
      </g>
     </g>
     <g id="text_7">
      <!-- 2 -->
      <g transform="translate(28.81375 124.342133) scale(0.1 -0.1)">
       <use xlink:href="#DejaVuSerif-32"/>
      </g>
     </g>
    </g>
    <g id="ytick_3">
     <g id="line2d_7">
      <g>
       <use xlink:href="#m4924b64a6f" x="42.17625" y="98.638216" style="stroke: #000000; stroke-width: 0.8"/>
      </g>
     </g>
     <g id="text_8">
      <!-- 3 -->
      <g transform="translate(28.81375 102.437435) scale(0.1 -0.1)">
       <use xlink:href="#DejaVuSerif-33"/>
      </g>
     </g>
    </g>
    <g id="ytick_4">
     <g id="line2d_8">
      <g>
       <use xlink:href="#m4924b64a6f" x="42.17625" y="76.733518" style="stroke: #000000; stroke-width: 0.8"/>
      </g>
     </g>
     <g id="text_9">
      <!-- 4 -->
      <g transform="translate(28.81375 80.532737) scale(0.1 -0.1)">
       <use xlink:href="#DejaVuSerif-34"/>
      </g>
     </g>
    </g>
    <g id="ytick_5">
     <g id="line2d_9">
      <g>
       <use xlink:href="#m4924b64a6f" x="42.17625" y="54.828821" style="stroke: #000000; stroke-width: 0.8"/>
      </g>
     </g>
     <g id="text_10">
      <!-- 5 -->
      <g transform="translate(28.81375 58.628039) scale(0.1 -0.1)">
       <defs>
        <path id="DejaVuSerif-35" d="M 3219 4666 
L 3219 4153 
L 1081 4153 
L 1081 2816 
Q 1244 2928 1461 2984 
Q 1678 3041 1947 3041 
Q 2703 3041 3140 2622 
Q 3578 2203 3578 1478 
Q 3578 738 3136 323 
Q 2694 -91 1894 -91 
Q 1572 -91 1234 -12 
Q 897 66 544 225 
L 544 1131 
L 897 1131 
Q 925 688 1179 453 
Q 1434 219 1894 219 
Q 2388 219 2653 544 
Q 2919 869 2919 1478 
Q 2919 2084 2655 2407 
Q 2391 2731 1894 2731 
Q 1613 2731 1398 2631 
Q 1184 2531 1019 2322 
L 750 2322 
L 750 4666 
L 3219 4666 
z
" transform="scale(0.015625)"/>
       </defs>
       <use xlink:href="#DejaVuSerif-35"/>
      </g>
     </g>
    </g>
    <g id="ytick_6">
     <g id="line2d_10">
      <g>
       <use xlink:href="#m4924b64a6f" x="42.17625" y="32.924123" style="stroke: #000000; stroke-width: 0.8"/>
      </g>
     </g>
     <g id="text_11">
      <!-- 6 -->
      <g transform="translate(28.81375 36.723342) scale(0.1 -0.1)">
       <defs>
        <path id="DejaVuSerif-36" d="M 2094 219 
Q 2534 219 2771 542 
Q 3009 866 3009 1472 
Q 3009 2078 2771 2401 
Q 2534 2725 2094 2725 
Q 1647 2725 1412 2412 
Q 1178 2100 1178 1509 
Q 1178 888 1415 553 
Q 1653 219 2094 219 
z
M 1075 2569 
Q 1288 2803 1556 2918 
Q 1825 3034 2163 3034 
Q 2859 3034 3264 2615 
Q 3669 2197 3669 1472 
Q 3669 763 3233 336 
Q 2797 -91 2069 -91 
Q 1278 -91 853 498 
Q 428 1088 428 2181 
Q 428 3406 931 4078 
Q 1434 4750 2350 4750 
Q 2597 4750 2869 4703 
Q 3141 4656 3425 4563 
L 3425 3794 
L 3072 3794 
Q 3034 4109 2831 4275 
Q 2628 4441 2284 4441 
Q 1678 4441 1381 3981 
Q 1084 3522 1075 2569 
z
" transform="scale(0.015625)"/>
       </defs>
       <use xlink:href="#DejaVuSerif-36"/>
      </g>
     </g>
    </g>
    <g id="text_12">
     <!-- Time (seconds) -->
     <g transform="translate(16.318125 143.975) rotate(-90) scale(0.12 -0.12)">
      <defs>
       <path id="DejaVuSerif-54" d="M 1222 0 
L 1222 331 
L 1819 331 
L 1819 4294 
L 447 4294 
L 447 3566 
L 63 3566 
L 63 4666 
L 4206 4666 
L 4206 3566 
L 3822 3566 
L 3822 4294 
L 2450 4294 
L 2450 331 
L 3047 331 
L 3047 0 
L 1222 0 
z
" transform="scale(0.015625)"/>
       <path id="DejaVuSerif-69" d="M 622 4353 
Q 622 4497 726 4603 
Q 831 4709 978 4709 
Q 1122 4709 1226 4603 
Q 1331 4497 1331 4353 
Q 1331 4206 1228 4103 
Q 1125 4000 978 4000 
Q 831 4000 726 4103 
Q 622 4206 622 4353 
z
M 1356 331 
L 1900 331 
L 1900 0 
L 231 0 
L 231 331 
L 781 331 
L 781 2988 
L 231 2988 
L 231 3322 
L 1356 3322 
L 1356 331 
z
" transform="scale(0.015625)"/>
       <path id="DejaVuSerif-28" d="M 2041 -997 
Q 1281 -656 893 83 
Q 506 822 506 1931 
Q 506 3044 893 3783 
Q 1281 4522 2041 4863 
L 2041 4556 
Q 1559 4225 1350 3623 
Q 1141 3022 1141 1931 
Q 1141 844 1350 242 
Q 1559 -359 2041 -691 
L 2041 -997 
z
" transform="scale(0.015625)"/>
       <path id="DejaVuSerif-63" d="M 3291 997 
Q 3169 466 2822 187 
Q 2475 -91 1925 -91 
Q 1200 -91 759 389 
Q 319 869 319 1663 
Q 319 2459 759 2936 
Q 1200 3413 1925 3413 
Q 2241 3413 2553 3339 
Q 2866 3266 3181 3116 
L 3181 2266 
L 2847 2266 
Q 2781 2703 2561 2903 
Q 2341 3103 1931 3103 
Q 1466 3103 1228 2742 
Q 991 2381 991 1663 
Q 991 944 1227 581 
Q 1463 219 1931 219 
Q 2303 219 2525 412 
Q 2747 606 2828 997 
L 3291 997 
z
" transform="scale(0.015625)"/>
       <path id="DejaVuSerif-64" d="M 3359 331 
L 3909 331 
L 3909 0 
L 2784 0 
L 2784 519 
Q 2616 206 2355 57 
Q 2094 -91 1709 -91 
Q 1097 -91 708 395 
Q 319 881 319 1663 
Q 319 2444 706 2928 
Q 1094 3413 1709 3413 
Q 2094 3413 2355 3264 
Q 2616 3116 2784 2803 
L 2784 4531 
L 2241 4531 
L 2241 4863 
L 3359 4863 
L 3359 331 
z
M 2784 1497 
L 2784 1825 
Q 2784 2422 2554 2737 
Q 2325 3053 1888 3053 
Q 1444 3053 1217 2703 
Q 991 2353 991 1663 
Q 991 975 1217 622 
Q 1444 269 1888 269 
Q 2325 269 2554 583 
Q 2784 897 2784 1497 
z
" transform="scale(0.015625)"/>
       <path id="DejaVuSerif-29" d="M 453 -997 
L 453 -691 
Q 934 -359 1145 242 
Q 1356 844 1356 1931 
Q 1356 3022 1145 3623 
Q 934 4225 453 4556 
L 453 4863 
Q 1216 4522 1603 3783 
Q 1991 3044 1991 1931 
Q 1991 822 1603 83 
Q 1216 -656 453 -997 
z
" transform="scale(0.015625)"/>
      </defs>
      <use xlink:href="#DejaVuSerif-54"/>
      <use xlink:href="#DejaVuSerif-69" x="66.699219"/>
      <use xlink:href="#DejaVuSerif-6d" x="98.681641"/>
      <use xlink:href="#DejaVuSerif-65" x="193.505859"/>
      <use xlink:href="#DejaVuSerif-20" x="252.685547"/>
      <use xlink:href="#DejaVuSerif-28" x="284.472656"/>
      <use xlink:href="#DejaVuSerif-73" x="323.486328"/>
      <use xlink:href="#DejaVuSerif-65" x="374.804688"/>
      <use xlink:href="#DejaVuSerif-63" x="433.984375"/>
      <use xlink:href="#DejaVuSerif-6f" x="489.990234"/>
      <use xlink:href="#DejaVuSerif-6e" x="550.195312"/>
      <use xlink:href="#DejaVuSerif-64" x="614.599609"/>
      <use xlink:href="#DejaVuSerif-73" x="678.613281"/>
      <use xlink:href="#DejaVuSerif-29" x="729.931641"/>
     </g>
    </g>
   </g>
   <g id="line2d_11">
    <path d="M 50.131705 154.410162 
L 62.692949 149.43615 
L 83.628355 139.697492 
L 125.499169 117.878375 
L 167.369982 97.424756 
L 209.240795 76.976839 
" clip-path="url(#pc829506613)" style="fill: none; stroke: #e41a1c; stroke-width: 2; stroke-linecap: square"/>
   </g>
   <g id="line2d_12">
    <path d="M 50.131705 156.928722 
L 62.692949 150.361089 
L 83.628355 139.243344 
L 125.499169 117.520253 
L 167.369982 93.587977 
L 209.240795 74.329597 
" clip-path="url(#pc829506613)" style="fill: none; stroke: #377eb8; stroke-width: 2; stroke-linecap: square"/>
   </g>
   <g id="line2d_13">
    <path d="M 50.131705 156.596347 
L 62.692949 150.035827 
L 83.628355 138.785562 
L 125.499169 117.435539 
L 167.369982 95.737589 
L 209.240795 72.004828 
" clip-path="url(#pc829506613)" style="fill: none; stroke: #4daf4a; stroke-width: 2; stroke-linecap: square"/>
   </g>
   <g id="line2d_14">
    <path d="M 50.131705 153.59666 
L 62.692949 145.989314 
L 83.628355 133.910245 
L 125.499169 109.176249 
L 167.369982 82.735994 
L 209.240795 57.556661 
" clip-path="url(#pc829506613)" style="fill: none; stroke: #984ea3; stroke-width: 2; stroke-linecap: square"/>
   </g>
   <g id="line2d_15">
    <path d="M 50.131705 148.693157 
L 62.692949 140.166769 
L 83.628355 125.483418 
L 125.499169 96.843869 
L 167.369982 65.828913 
L 209.240795 38.746903 
" clip-path="url(#pc829506613)" style="fill: none; stroke: #ff7f00; stroke-width: 2; stroke-linecap: square"/>
   </g>
   <g id="line2d_16"/>
   <g id="line2d_17"/>
   <g id="line2d_18"/>
   <g id="line2d_19"/>
   <g id="line2d_20"/>
   <g id="patch_3">
    <path d="M 42.17625 162.837813 
L 42.17625 32.837813 
" style="fill: none; stroke: #000000; stroke-width: 0.8; stroke-linejoin: miter; stroke-linecap: square"/>
   </g>
   <g id="patch_4">
    <path d="M 217.19625 162.837813 
L 217.19625 32.837813 
" style="fill: none; stroke: #000000; stroke-width: 0.8; stroke-linejoin: miter; stroke-linecap: square"/>
   </g>
   <g id="patch_5">
    <path d="M 42.17625 162.837813 
L 217.19625 162.837813 
" style="fill: none; stroke: #000000; stroke-width: 0.8; stroke-linejoin: miter; stroke-linecap: square"/>
   </g>
   <g id="patch_6">
    <path d="M 42.17625 32.837813 
L 217.19625 32.837813 
" style="fill: none; stroke: #000000; stroke-width: 0.8; stroke-linejoin: miter; stroke-linecap: square"/>
   </g>
   <g id="text_13">
    <!-- Time vs. Number of Genes -->
    <g transform="translate(35.301094 17.837813) scale(0.14 -0.14)">
     <defs>
      <path id="DejaVuSerif-76" d="M 1581 0 
L 359 2988 
L -19 2988 
L -19 3322 
L 1509 3322 
L 1509 2988 
L 978 2988 
L 1913 703 
L 2847 2988 
L 2350 2988 
L 2350 3322 
L 3597 3322 
L 3597 2988 
L 3225 2988 
L 2003 0 
L 1581 0 
z
" transform="scale(0.015625)"/>
      <path id="DejaVuSerif-2e" d="M 603 325 
Q 603 500 722 622 
Q 841 744 1019 744 
Q 1191 744 1312 622 
Q 1434 500 1434 325 
Q 1434 153 1312 31 
Q 1191 -91 1019 -91 
Q 841 -91 722 29 
Q 603 150 603 325 
z
" transform="scale(0.015625)"/>
     </defs>
     <use xlink:href="#DejaVuSerif-54"/>
     <use xlink:href="#DejaVuSerif-69" x="66.699219"/>
     <use xlink:href="#DejaVuSerif-6d" x="98.681641"/>
     <use xlink:href="#DejaVuSerif-65" x="193.505859"/>
     <use xlink:href="#DejaVuSerif-20" x="252.685547"/>
     <use xlink:href="#DejaVuSerif-76" x="284.472656"/>
     <use xlink:href="#DejaVuSerif-73" x="340.966797"/>
     <use xlink:href="#DejaVuSerif-2e" x="392.285156"/>
     <use xlink:href="#DejaVuSerif-20" x="424.072266"/>
     <use xlink:href="#DejaVuSerif-4e" x="455.859375"/>
     <use xlink:href="#DejaVuSerif-75" x="543.359375"/>
     <use xlink:href="#DejaVuSerif-6d" x="607.763672"/>
     <use xlink:href="#DejaVuSerif-62" x="702.587891"/>
     <use xlink:href="#DejaVuSerif-65" x="766.601562"/>
     <use xlink:href="#DejaVuSerif-72" x="825.78125"/>
     <use xlink:href="#DejaVuSerif-20" x="873.583984"/>
     <use xlink:href="#DejaVuSerif-6f" x="905.371094"/>
     <use xlink:href="#DejaVuSerif-66" x="965.576172"/>
     <use xlink:href="#DejaVuSerif-20" x="1002.587891"/>
     <use xlink:href="#DejaVuSerif-47" x="1034.375"/>
     <use xlink:href="#DejaVuSerif-65" x="1114.257812"/>
     <use xlink:href="#DejaVuSerif-6e" x="1173.4375"/>
     <use xlink:href="#DejaVuSerif-65" x="1237.841797"/>
     <use xlink:href="#DejaVuSerif-73" x="1297.021484"/>
    </g>
   </g>
   <g id="legend_1">
    <g id="patch_7">
     <path d="M 224.19625 130.842188 
L 343.375625 130.842188 
Q 345.375625 130.842188 345.375625 128.842188 
L 345.375625 39.837813 
Q 345.375625 37.837813 343.375625 37.837813 
L 224.19625 37.837813 
Q 222.19625 37.837813 222.19625 39.837813 
L 222.19625 128.842188 
Q 222.19625 130.842188 224.19625 130.842188 
z
" style="fill: #ffffff; opacity: 0.8; stroke: #cccccc; stroke-linejoin: miter"/>
    </g>
    <g id="text_14">
     <!-- Number of Latents -->
     <g transform="translate(226.19625 50.955938) scale(0.12 -0.12)">
      <defs>
       <path id="DejaVuSerif-4c" d="M 353 0 
L 353 331 
L 947 331 
L 947 4331 
L 353 4331 
L 353 4666 
L 2175 4666 
L 2175 4331 
L 1581 4331 
L 1581 384 
L 3713 384 
L 3713 1166 
L 4097 1166 
L 4097 0 
L 353 0 
z
" transform="scale(0.015625)"/>
       <path id="DejaVuSerif-61" d="M 2547 1044 
L 2547 1747 
L 1806 1747 
Q 1378 1747 1168 1562 
Q 959 1378 959 997 
Q 959 650 1171 447 
Q 1384 244 1747 244 
Q 2106 244 2326 466 
Q 2547 688 2547 1044 
z
M 3122 2075 
L 3122 331 
L 3634 331 
L 3634 0 
L 2547 0 
L 2547 359 
Q 2356 128 2106 18 
Q 1856 -91 1522 -91 
Q 969 -91 644 203 
Q 319 497 319 997 
Q 319 1513 691 1797 
Q 1063 2081 1741 2081 
L 2547 2081 
L 2547 2309 
Q 2547 2688 2317 2895 
Q 2088 3103 1672 3103 
Q 1328 3103 1125 2947 
Q 922 2791 872 2484 
L 575 2484 
L 575 3156 
Q 875 3284 1158 3348 
Q 1441 3413 1709 3413 
Q 2400 3413 2761 3070 
Q 3122 2728 3122 2075 
z
" transform="scale(0.015625)"/>
       <path id="DejaVuSerif-74" d="M 691 2988 
L 184 2988 
L 184 3322 
L 691 3322 
L 691 4353 
L 1269 4353 
L 1269 3322 
L 2350 3322 
L 2350 2988 
L 1269 2988 
L 1269 878 
Q 1269 456 1350 337 
Q 1431 219 1650 219 
Q 1875 219 1978 351 
Q 2081 484 2088 781 
L 2522 781 
Q 2497 328 2275 118 
Q 2053 -91 1600 -91 
Q 1103 -91 897 129 
Q 691 350 691 878 
L 691 2988 
z
" transform="scale(0.015625)"/>
      </defs>
      <use xlink:href="#DejaVuSerif-4e"/>
      <use xlink:href="#DejaVuSerif-75" x="87.5"/>
      <use xlink:href="#DejaVuSerif-6d" x="151.904297"/>
      <use xlink:href="#DejaVuSerif-62" x="246.728516"/>
      <use xlink:href="#DejaVuSerif-65" x="310.742188"/>
      <use xlink:href="#DejaVuSerif-72" x="369.921875"/>
      <use xlink:href="#DejaVuSerif-20" x="417.724609"/>
      <use xlink:href="#DejaVuSerif-6f" x="449.511719"/>
      <use xlink:href="#DejaVuSerif-66" x="509.716797"/>
      <use xlink:href="#DejaVuSerif-20" x="546.728516"/>
      <use xlink:href="#DejaVuSerif-4c" x="578.515625"/>
      <use xlink:href="#DejaVuSerif-61" x="644.921875"/>
      <use xlink:href="#DejaVuSerif-74" x="704.541016"/>
      <use xlink:href="#DejaVuSerif-65" x="744.726562"/>
      <use xlink:href="#DejaVuSerif-6e" x="803.90625"/>
      <use xlink:href="#DejaVuSerif-74" x="868.310547"/>
      <use xlink:href="#DejaVuSerif-73" x="908.496094"/>
     </g>
    </g>
    <g id="line2d_21">
     <path d="M 257.060937 62.55 
L 267.060937 62.55 
L 277.060937 62.55 
" style="fill: none; stroke: #e41a1c; stroke-width: 1.5; stroke-linecap: square"/>
    </g>
    <g id="text_15">
     <!-- 10 -->
     <g transform="translate(285.060937 66.05) scale(0.1 -0.1)">
      <use xlink:href="#DejaVuSerif-31"/>
      <use xlink:href="#DejaVuSerif-30" x="63.623047"/>
     </g>
    </g>
    <g id="line2d_22">
     <path d="M 257.060937 77.228125 
L 267.060937 77.228125 
L 277.060937 77.228125 
" style="fill: none; stroke: #377eb8; stroke-width: 1.5; stroke-linecap: square"/>
    </g>
    <g id="text_16">
     <!-- 50 -->
     <g transform="translate(285.060937 80.728125) scale(0.1 -0.1)">
      <use xlink:href="#DejaVuSerif-35"/>
      <use xlink:href="#DejaVuSerif-30" x="63.623047"/>
     </g>
    </g>
    <g id="line2d_23">
     <path d="M 257.060937 91.90625 
L 267.060937 91.90625 
L 277.060937 91.90625 
" style="fill: none; stroke: #4daf4a; stroke-width: 1.5; stroke-linecap: square"/>
    </g>
    <g id="text_17">
     <!-- 100 -->
     <g transform="translate(285.060937 95.40625) scale(0.1 -0.1)">
      <use xlink:href="#DejaVuSerif-31"/>
      <use xlink:href="#DejaVuSerif-30" x="63.623047"/>
      <use xlink:href="#DejaVuSerif-30" x="127.246094"/>
     </g>
    </g>
    <g id="line2d_24">
     <path d="M 257.060937 106.584375 
L 267.060937 106.584375 
L 277.060937 106.584375 
" style="fill: none; stroke: #984ea3; stroke-width: 1.5; stroke-linecap: square"/>
    </g>
    <g id="text_18">
     <!-- 500 -->
     <g transform="translate(285.060937 110.084375) scale(0.1 -0.1)">
      <use xlink:href="#DejaVuSerif-35"/>
      <use xlink:href="#DejaVuSerif-30" x="63.623047"/>
      <use xlink:href="#DejaVuSerif-30" x="127.246094"/>
     </g>
    </g>
    <g id="line2d_25">
     <path d="M 257.060937 121.2625 
L 267.060937 121.2625 
L 277.060937 121.2625 
" style="fill: none; stroke: #ff7f00; stroke-width: 1.5; stroke-linecap: square"/>
    </g>
    <g id="text_19">
     <!-- 1000 -->
     <g transform="translate(285.060937 124.7625) scale(0.1 -0.1)">
      <use xlink:href="#DejaVuSerif-31"/>
      <use xlink:href="#DejaVuSerif-30" x="63.623047"/>
      <use xlink:href="#DejaVuSerif-30" x="127.246094"/>
      <use xlink:href="#DejaVuSerif-30" x="190.869141"/>
     </g>
    </g>
   </g>
  </g>
 </g>
 <defs>
  <clipPath id="pc829506613">
   <rect x="42.17625" y="32.837813" width="175.02" height="130"/>
  </clipPath>
 </defs>
</svg>
