<?xml version="1.0" encoding="utf-8" standalone="no"?>
<!DOCTYPE svg PUBLIC "-//W3C//DTD SVG 1.1//EN"
  "http://www.w3.org/Graphics/SVG/1.1/DTD/svg11.dtd">
<svg xmlns:xlink="http://www.w3.org/1999/xlink" width="864pt" height="288pt" viewBox="0 0 864 288" xmlns="http://www.w3.org/2000/svg" version="1.1">
 <metadata>
  <rdf:RDF xmlns:dc="http://purl.org/dc/elements/1.1/" xmlns:cc="http://creativecommons.org/ns#" xmlns:rdf="http://www.w3.org/1999/02/22-rdf-syntax-ns#">
   <cc:Work>
    <dc:type rdf:resource="http://purl.org/dc/dcmitype/StillImage"/>
    <dc:date>2024-06-21T12:19:42.483737</dc:date>
    <dc:format>image/svg+xml</dc:format>
    <dc:creator>
     <cc:Agent>
      <dc:title>Matplotlib v3.8.1, https://matplotlib.org/</dc:title>
     </cc:Agent>
    </dc:creator>
   </cc:Work>
  </rdf:RDF>
 </metadata>
 <defs>
  <style type="text/css">*{stroke-linejoin: round; stroke-linecap: butt}</style>
 </defs>
 <g id="figure_1">
  <g id="patch_1">
   <path d="M 0 288 
L 864 288 
L 864 0 
L 0 0 
z
" style="fill: #ffffff"/>
  </g>
  <g id="axes_1">
   <g id="patch_2">
    <path d="M 27.43 108.02 
L 725.4 108.02 
L 725.4 27.6 
L 27.43 27.6 
z
" style="fill: #ffffff"/>
   </g>
   <g id="patch_3">
    <path d="M 32.4155 108.02 
L 52.3575 108.02 
L 52.3575 32.162799 
L 32.4155 32.162799 
z
" clip-path="url(#pe9aa9ae448)" style="fill: #cb3335"/>
   </g>
   <g id="patch_4">
    <path d="M 82.2705 108.02 
L 102.2125 108.02 
L 102.2125 31.565611 
L 82.2705 31.565611 
z
" clip-path="url(#pe9aa9ae448)" style="fill: #cb3335"/>
   </g>
   <g id="patch_5">
    <path d="M 132.1255 108.02 
L 152.0675 108.02 
L 152.0675 34.652104 
L 132.1255 34.652104 
z
" clip-path="url(#pe9aa9ae448)" style="fill: #cb3335"/>
   </g>
   <g id="patch_6">
    <path d="M 181.9805 108.02 
L 201.9225 108.02 
L 201.9225 31.429524 
L 181.9805 31.429524 
z
" clip-path="url(#pe9aa9ae448)" style="fill: #cb3335"/>
   </g>
   <g id="patch_7">
    <path d="M 231.8355 108.02 
L 251.7775 108.02 
L 251.7775 32.152738 
L 231.8355 32.152738 
z
" clip-path="url(#pe9aa9ae448)" style="fill: #cb3335"/>
   </g>
   <g id="patch_8">
    <path d="M 281.6905 108.02 
L 301.6325 108.02 
L 301.6325 32.835034 
L 281.6905 32.835034 
z
" clip-path="url(#pe9aa9ae448)" style="fill: #cb3335"/>
   </g>
   <g id="patch_9">
    <path d="M 331.5455 108.02 
L 351.4875 108.02 
L 351.4875 32.169351 
L 331.5455 32.169351 
z
" clip-path="url(#pe9aa9ae448)" style="fill: #cb3335"/>
   </g>
   <g id="patch_10">
    <path d="M 381.4005 108.02 
L 401.3425 108.02 
L 401.3425 32.168335 
L 381.4005 32.168335 
z
" clip-path="url(#pe9aa9ae448)" style="fill: #cb3335"/>
   </g>
   <g id="patch_11">
    <path d="M 431.2555 108.02 
L 451.1975 108.02 
L 451.1975 34.407388 
L 431.2555 34.407388 
z
" clip-path="url(#pe9aa9ae448)" style="fill: #cb3335"/>
   </g>
   <g id="patch_12">
    <path d="M 481.1105 108.02 
L 501.0525 108.02 
L 501.0525 37.453232 
L 481.1105 37.453232 
z
" clip-path="url(#pe9aa9ae448)" style="fill: #cb3335"/>
   </g>
   <g id="patch_13">
    <path d="M 530.9655 108.02 
L 550.9075 108.02 
L 550.9075 31.824581 
L 530.9655 31.824581 
z
" clip-path="url(#pe9aa9ae448)" style="fill: #cb3335"/>
   </g>
   <g id="patch_14">
    <path d="M 580.8205 108.02 
L 600.7625 108.02 
L 600.7625 33.765601 
L 580.8205 33.765601 
z
" clip-path="url(#pe9aa9ae448)" style="fill: #cb3335"/>
   </g>
   <g id="patch_15">
    <path d="M 630.6755 108.02 
L 650.6175 108.02 
L 650.6175 38.673547 
L 630.6755 38.673547 
z
" clip-path="url(#pe9aa9ae448)" style="fill: #cb3335"/>
   </g>
   <g id="patch_16">
    <path d="M 680.5305 108.02 
L 700.4725 108.02 
L 700.4725 44.657942 
L 680.5305 44.657942 
z
" clip-path="url(#pe9aa9ae448)" style="fill: #cb3335"/>
   </g>
   <g id="patch_17">
    <path d="M 52.3575 108.02 
L 72.2995 108.02 
L 72.2995 40.529995 
L 52.3575 40.529995 
z
" clip-path="url(#pe9aa9ae448)" style="fill: #477ca8"/>
   </g>
   <g id="patch_18">
    <path d="M 102.2125 108.02 
L 122.1545 108.02 
L 122.1545 38.883035 
L 102.2125 38.883035 
z
" clip-path="url(#pe9aa9ae448)" style="fill: #477ca8"/>
   </g>
   <g id="patch_19">
    <path d="M 152.0675 108.02 
L 172.0095 108.02 
L 172.0095 50.216573 
L 152.0675 50.216573 
z
" clip-path="url(#pe9aa9ae448)" style="fill: #477ca8"/>
   </g>
   <g id="patch_20">
    <path d="M 201.9225 108.02 
L 221.8645 108.02 
L 221.8645 35.635293 
L 201.9225 35.635293 
z
" clip-path="url(#pe9aa9ae448)" style="fill: #477ca8"/>
   </g>
   <g id="patch_21">
    <path d="M 251.7775 108.02 
L 271.7195 108.02 
L 271.7195 40.552293 
L 251.7775 40.552293 
z
" clip-path="url(#pe9aa9ae448)" style="fill: #477ca8"/>
   </g>
   <g id="patch_22">
    <path d="M 301.6325 108.02 
L 321.5745 108.02 
L 321.5745 39.803306 
L 301.6325 39.803306 
z
" clip-path="url(#pe9aa9ae448)" style="fill: #477ca8"/>
   </g>
   <g id="patch_23">
    <path d="M 351.4875 108.02 
L 371.4295 108.02 
L 371.4295 35.781804 
L 351.4875 35.781804 
z
" clip-path="url(#pe9aa9ae448)" style="fill: #477ca8"/>
   </g>
   <g id="patch_24">
    <path d="M 401.3425 108.02 
L 421.2845 108.02 
L 421.2845 37.17862 
L 401.3425 37.17862 
z
" clip-path="url(#pe9aa9ae448)" style="fill: #477ca8"/>
   </g>
   <g id="patch_25">
    <path d="M 451.1975 108.02 
L 471.1395 108.02 
L 471.1395 40.532601 
L 451.1975 40.532601 
z
" clip-path="url(#pe9aa9ae448)" style="fill: #477ca8"/>
   </g>
   <g id="patch_26">
    <path d="M 501.0525 108.02 
L 520.9945 108.02 
L 520.9945 40.359324 
L 501.0525 40.359324 
z
" clip-path="url(#pe9aa9ae448)" style="fill: #477ca8"/>
   </g>
   <g id="patch_27">
    <path d="M 550.9075 108.02 
L 570.8495 108.02 
L 570.8495 40.255663 
L 550.9075 40.255663 
z
" clip-path="url(#pe9aa9ae448)" style="fill: #477ca8"/>
   </g>
   <g id="patch_28">
    <path d="M 600.7625 108.02 
L 620.7045 108.02 
L 620.7045 40.916422 
L 600.7625 40.916422 
z
" clip-path="url(#pe9aa9ae448)" style="fill: #477ca8"/>
   </g>
   <g id="patch_29">
    <path d="M 650.6175 108.02 
L 670.5595 108.02 
L 670.5595 44.040784 
L 650.6175 44.040784 
z
" clip-path="url(#pe9aa9ae448)" style="fill: #477ca8"/>
   </g>
   <g id="patch_30">
    <path d="M 700.4725 108.02 
L 720.4145 108.02 
L 720.4145 65.346277 
L 700.4725 65.346277 
z
" clip-path="url(#pe9aa9ae448)" style="fill: #477ca8"/>
   </g>
   <g id="matplotlib.axis_1">
    <g id="xtick_1">
     <g id="line2d_1">
      <defs>
       <path id="mf1fe88d6e0" d="M 0 0 
L 0 3.5 
" style="stroke: #000000; stroke-width: 0.8"/>
      </defs>
      <g>
       <use xlink:href="#mf1fe88d6e0" x="52.3575" y="108.02" style="stroke: #000000; stroke-width: 0.8"/>
      </g>
     </g>
     <g id="text_1">
      <!-- Naive CD4 T cells -->
      <g transform="translate(55.944688 233.01125) rotate(-90) scale(0.13 -0.13)">
       <defs>
        <path id="DejaVuSerif-4e" d="M 313 0 
L 313 331 
L 941 331 
L 941 4331 
L 313 4331 
L 313 4666 
L 1509 4666 
L 4306 984 
L 4306 4331 
L 3681 4331 
L 3681 4666 
L 5319 4666 
L 5319 4331 
L 4691 4331 
L 4691 -91 
L 4313 -91 
L 1325 3841 
L 1325 331 
L 1953 331 
L 1953 0 
L 313 0 
z
" transform="scale(0.015625)"/>
        <path id="DejaVuSerif-61" d="M 2547 1044 
L 2547 1747 
L 1806 1747 
Q 1378 1747 1168 1562 
Q 959 1378 959 997 
Q 959 650 1171 447 
Q 1384 244 1747 244 
Q 2106 244 2326 466 
Q 2547 688 2547 1044 
z
M 3122 2075 
L 3122 331 
L 3634 331 
L 3634 0 
L 2547 0 
L 2547 359 
Q 2356 128 2106 18 
Q 1856 -91 1522 -91 
Q 969 -91 644 203 
Q 319 497 319 997 
Q 319 1513 691 1797 
Q 1063 2081 1741 2081 
L 2547 2081 
L 2547 2309 
Q 2547 2688 2317 2895 
Q 2088 3103 1672 3103 
Q 1328 3103 1125 2947 
Q 922 2791 872 2484 
L 575 2484 
L 575 3156 
Q 875 3284 1158 3348 
Q 1441 3413 1709 3413 
Q 2400 3413 2761 3070 
Q 3122 2728 3122 2075 
z
" transform="scale(0.015625)"/>
        <path id="DejaVuSerif-69" d="M 622 4353 
Q 622 4497 726 4603 
Q 831 4709 978 4709 
Q 1122 4709 1226 4603 
Q 1331 4497 1331 4353 
Q 1331 4206 1228 4103 
Q 1125 4000 978 4000 
Q 831 4000 726 4103 
Q 622 4206 622 4353 
z
M 1356 331 
L 1900 331 
L 1900 0 
L 231 0 
L 231 331 
L 781 331 
L 781 2988 
L 231 2988 
L 231 3322 
L 1356 3322 
L 1356 331 
z
" transform="scale(0.015625)"/>
        <path id="DejaVuSerif-76" d="M 1581 0 
L 359 2988 
L -19 2988 
L -19 3322 
L 1509 3322 
L 1509 2988 
L 978 2988 
L 1913 703 
L 2847 2988 
L 2350 2988 
L 2350 3322 
L 3597 3322 
L 3597 2988 
L 3225 2988 
L 2003 0 
L 1581 0 
z
" transform="scale(0.015625)"/>
        <path id="DejaVuSerif-65" d="M 3469 1600 
L 991 1600 
L 991 1575 
Q 991 903 1244 561 
Q 1497 219 1991 219 
Q 2369 219 2611 417 
Q 2853 616 2950 1006 
L 3413 1006 
Q 3275 459 2904 184 
Q 2534 -91 1931 -91 
Q 1203 -91 761 389 
Q 319 869 319 1663 
Q 319 2450 753 2931 
Q 1188 3413 1894 3413 
Q 2647 3413 3050 2948 
Q 3453 2484 3469 1600 
z
M 2791 1931 
Q 2772 2513 2545 2808 
Q 2319 3103 1894 3103 
Q 1497 3103 1269 2806 
Q 1041 2509 991 1931 
L 2791 1931 
z
" transform="scale(0.015625)"/>
        <path id="DejaVuSerif-20" transform="scale(0.015625)"/>
        <path id="DejaVuSerif-43" d="M 4513 1234 
Q 4306 581 3820 245 
Q 3334 -91 2591 -91 
Q 2134 -91 1743 65 
Q 1353 222 1050 525 
Q 700 875 529 1320 
Q 359 1766 359 2328 
Q 359 3416 987 4083 
Q 1616 4750 2644 4750 
Q 3025 4750 3456 4650 
Q 3888 4550 4384 4347 
L 4384 3272 
L 4031 3272 
Q 3916 3859 3567 4137 
Q 3219 4416 2591 4416 
Q 1844 4416 1459 3886 
Q 1075 3356 1075 2328 
Q 1075 1303 1459 773 
Q 1844 244 2591 244 
Q 3113 244 3450 492 
Q 3788 741 3938 1234 
L 4513 1234 
z
" transform="scale(0.015625)"/>
        <path id="DejaVuSerif-44" d="M 1581 331 
L 2163 331 
Q 3072 331 3558 850 
Q 4044 1369 4044 2338 
Q 4044 3306 3559 3818 
Q 3075 4331 2163 4331 
L 1581 4331 
L 1581 331 
z
M 353 0 
L 353 331 
L 947 331 
L 947 4331 
L 353 4331 
L 353 4666 
L 2209 4666 
Q 3416 4666 4089 4050 
Q 4763 3434 4763 2338 
Q 4763 1238 4088 619 
Q 3413 0 2209 0 
L 353 0 
z
" transform="scale(0.015625)"/>
        <path id="DejaVuSerif-34" d="M 2234 1581 
L 2234 4063 
L 641 1581 
L 2234 1581 
z
M 3609 0 
L 1484 0 
L 1484 331 
L 2234 331 
L 2234 1247 
L 197 1247 
L 197 1588 
L 2241 4750 
L 2859 4750 
L 2859 1581 
L 3750 1581 
L 3750 1247 
L 2859 1247 
L 2859 331 
L 3609 331 
L 3609 0 
z
" transform="scale(0.015625)"/>
        <path id="DejaVuSerif-54" d="M 1222 0 
L 1222 331 
L 1819 331 
L 1819 4294 
L 447 4294 
L 447 3566 
L 63 3566 
L 63 4666 
L 4206 4666 
L 4206 3566 
L 3822 3566 
L 3822 4294 
L 2450 4294 
L 2450 331 
L 3047 331 
L 3047 0 
L 1222 0 
z
" transform="scale(0.015625)"/>
        <path id="DejaVuSerif-63" d="M 3291 997 
Q 3169 466 2822 187 
Q 2475 -91 1925 -91 
Q 1200 -91 759 389 
Q 319 869 319 1663 
Q 319 2459 759 2936 
Q 1200 3413 1925 3413 
Q 2241 3413 2553 3339 
Q 2866 3266 3181 3116 
L 3181 2266 
L 2847 2266 
Q 2781 2703 2561 2903 
Q 2341 3103 1931 3103 
Q 1466 3103 1228 2742 
Q 991 2381 991 1663 
Q 991 944 1227 581 
Q 1463 219 1931 219 
Q 2303 219 2525 412 
Q 2747 606 2828 997 
L 3291 997 
z
" transform="scale(0.015625)"/>
        <path id="DejaVuSerif-6c" d="M 1313 331 
L 1856 331 
L 1856 0 
L 184 0 
L 184 331 
L 738 331 
L 738 4531 
L 184 4531 
L 184 4863 
L 1313 4863 
L 1313 331 
z
" transform="scale(0.015625)"/>
        <path id="DejaVuSerif-73" d="M 359 184 
L 359 959 
L 691 959 
Q 703 588 923 403 
Q 1144 219 1575 219 
Q 1963 219 2166 364 
Q 2369 509 2369 788 
Q 2369 1006 2220 1140 
Q 2072 1275 1594 1428 
L 1178 1569 
Q 750 1706 558 1912 
Q 366 2119 366 2438 
Q 366 2894 700 3153 
Q 1034 3413 1625 3413 
Q 1888 3413 2178 3344 
Q 2469 3275 2778 3144 
L 2778 2419 
L 2447 2419 
Q 2434 2741 2221 2922 
Q 2009 3103 1644 3103 
Q 1281 3103 1095 2975 
Q 909 2847 909 2591 
Q 909 2381 1050 2254 
Q 1191 2128 1613 1997 
L 2069 1856 
Q 2541 1709 2748 1489 
Q 2956 1269 2956 922 
Q 2956 450 2595 179 
Q 2234 -91 1600 -91 
Q 1278 -91 972 -22 
Q 666 47 359 184 
z
" transform="scale(0.015625)"/>
       </defs>
       <use xlink:href="#DejaVuSerif-4e"/>
       <use xlink:href="#DejaVuSerif-61" x="87.5"/>
       <use xlink:href="#DejaVuSerif-69" x="147.119141"/>
       <use xlink:href="#DejaVuSerif-76" x="179.101562"/>
       <use xlink:href="#DejaVuSerif-65" x="235.595703"/>
       <use xlink:href="#DejaVuSerif-20" x="294.775391"/>
       <use xlink:href="#DejaVuSerif-43" x="326.5625"/>
       <use xlink:href="#DejaVuSerif-44" x="403.076172"/>
       <use xlink:href="#DejaVuSerif-34" x="483.251953"/>
       <use xlink:href="#DejaVuSerif-20" x="546.875"/>
       <use xlink:href="#DejaVuSerif-54" x="578.662109"/>
       <use xlink:href="#DejaVuSerif-20" x="645.361328"/>
       <use xlink:href="#DejaVuSerif-63" x="677.148438"/>
       <use xlink:href="#DejaVuSerif-65" x="733.154297"/>
       <use xlink:href="#DejaVuSerif-6c" x="792.333984"/>
       <use xlink:href="#DejaVuSerif-6c" x="824.316406"/>
       <use xlink:href="#DejaVuSerif-73" x="856.298828"/>
      </g>
     </g>
    </g>
    <g id="xtick_2">
     <g id="line2d_2">
      <g>
       <use xlink:href="#mf1fe88d6e0" x="102.2125" y="108.02" style="stroke: #000000; stroke-width: 0.8"/>
      </g>
     </g>
     <g id="text_2">
      <!-- Memory CD4 T cells -->
      <g transform="translate(105.707266 249.405469) rotate(-90) scale(0.13 -0.13)">
       <defs>
        <path id="DejaVuSerif-4d" d="M 353 0 
L 353 331 
L 947 331 
L 947 4331 
L 319 4331 
L 319 4666 
L 1678 4666 
L 3316 1344 
L 4953 4666 
L 6228 4666 
L 6228 4331 
L 5606 4331 
L 5606 331 
L 6203 331 
L 6203 0 
L 4378 0 
L 4378 331 
L 4972 331 
L 4972 3938 
L 3372 684 
L 2931 684 
L 1331 3938 
L 1331 331 
L 1925 331 
L 1925 0 
L 353 0 
z
" transform="scale(0.015625)"/>
        <path id="DejaVuSerif-6d" d="M 3316 2675 
Q 3481 3041 3739 3227 
Q 3997 3413 4341 3413 
Q 4863 3413 5119 3089 
Q 5375 2766 5375 2113 
L 5375 331 
L 5894 331 
L 5894 0 
L 4300 0 
L 4300 331 
L 4800 331 
L 4800 2047 
Q 4800 2556 4650 2772 
Q 4500 2988 4153 2988 
Q 3769 2988 3567 2697 
Q 3366 2406 3366 1850 
L 3366 331 
L 3866 331 
L 3866 0 
L 2291 0 
L 2291 331 
L 2791 331 
L 2791 2069 
Q 2791 2566 2641 2777 
Q 2491 2988 2144 2988 
Q 1759 2988 1557 2697 
Q 1356 2406 1356 1850 
L 1356 331 
L 1856 331 
L 1856 0 
L 263 0 
L 263 331 
L 781 331 
L 781 2994 
L 231 2994 
L 231 3322 
L 1356 3322 
L 1356 2731 
Q 1516 3063 1762 3238 
Q 2009 3413 2322 3413 
Q 2709 3413 2968 3220 
Q 3228 3028 3316 2675 
z
" transform="scale(0.015625)"/>
        <path id="DejaVuSerif-6f" d="M 1925 219 
Q 2388 219 2623 584 
Q 2859 950 2859 1663 
Q 2859 2375 2623 2739 
Q 2388 3103 1925 3103 
Q 1463 3103 1227 2739 
Q 991 2375 991 1663 
Q 991 950 1228 584 
Q 1466 219 1925 219 
z
M 1925 -91 
Q 1200 -91 759 389 
Q 319 869 319 1663 
Q 319 2456 758 2934 
Q 1197 3413 1925 3413 
Q 2653 3413 3092 2934 
Q 3531 2456 3531 1663 
Q 3531 869 3092 389 
Q 2653 -91 1925 -91 
z
" transform="scale(0.015625)"/>
        <path id="DejaVuSerif-72" d="M 3059 3328 
L 3059 2497 
L 2728 2497 
Q 2713 2744 2591 2866 
Q 2469 2988 2234 2988 
Q 1809 2988 1582 2694 
Q 1356 2400 1356 1850 
L 1356 331 
L 2022 331 
L 2022 0 
L 263 0 
L 263 331 
L 781 331 
L 781 2994 
L 231 2994 
L 231 3322 
L 1356 3322 
L 1356 2731 
Q 1525 3078 1790 3245 
Q 2056 3413 2438 3413 
Q 2578 3413 2733 3391 
Q 2888 3369 3059 3328 
z
" transform="scale(0.015625)"/>
        <path id="DejaVuSerif-79" d="M 1381 -609 
L 1600 -56 
L 359 2988 
L -19 2988 
L -19 3322 
L 1509 3322 
L 1509 2988 
L 978 2988 
L 1913 703 
L 2847 2988 
L 2350 2988 
L 2350 3322 
L 3597 3322 
L 3597 2988 
L 3225 2988 
L 1703 -750 
Q 1547 -1138 1356 -1280 
Q 1166 -1422 819 -1422 
Q 672 -1422 517 -1397 
Q 363 -1372 206 -1325 
L 206 -691 
L 500 -691 
Q 519 -903 608 -995 
Q 697 -1088 884 -1088 
Q 1056 -1088 1161 -992 
Q 1266 -897 1381 -609 
z
" transform="scale(0.015625)"/>
       </defs>
       <use xlink:href="#DejaVuSerif-4d"/>
       <use xlink:href="#DejaVuSerif-65" x="102.392578"/>
       <use xlink:href="#DejaVuSerif-6d" x="161.572266"/>
       <use xlink:href="#DejaVuSerif-6f" x="256.396484"/>
       <use xlink:href="#DejaVuSerif-72" x="316.601562"/>
       <use xlink:href="#DejaVuSerif-79" x="364.404297"/>
       <use xlink:href="#DejaVuSerif-20" x="420.898438"/>
       <use xlink:href="#DejaVuSerif-43" x="452.685547"/>
       <use xlink:href="#DejaVuSerif-44" x="529.199219"/>
       <use xlink:href="#DejaVuSerif-34" x="609.375"/>
       <use xlink:href="#DejaVuSerif-20" x="672.998047"/>
       <use xlink:href="#DejaVuSerif-54" x="704.785156"/>
       <use xlink:href="#DejaVuSerif-20" x="771.484375"/>
       <use xlink:href="#DejaVuSerif-63" x="803.271484"/>
       <use xlink:href="#DejaVuSerif-65" x="859.277344"/>
       <use xlink:href="#DejaVuSerif-6c" x="918.457031"/>
       <use xlink:href="#DejaVuSerif-6c" x="950.439453"/>
       <use xlink:href="#DejaVuSerif-73" x="982.421875"/>
      </g>
     </g>
    </g>
    <g id="xtick_3">
     <g id="line2d_3">
      <g>
       <use xlink:href="#mf1fe88d6e0" x="152.0675" y="108.02" style="stroke: #000000; stroke-width: 0.8"/>
      </g>
     </g>
     <g id="text_3">
      <!-- Effector CD8 T cells -->
      <g transform="translate(155.654687 248.040469) rotate(-90) scale(0.13 -0.13)">
       <defs>
        <path id="DejaVuSerif-45" d="M 353 0 
L 353 331 
L 947 331 
L 947 4331 
L 353 4331 
L 353 4666 
L 4109 4666 
L 4109 3628 
L 3725 3628 
L 3725 4281 
L 1581 4281 
L 1581 2719 
L 3109 2719 
L 3109 3303 
L 3494 3303 
L 3494 1753 
L 3109 1753 
L 3109 2338 
L 1581 2338 
L 1581 384 
L 3775 384 
L 3775 1038 
L 4159 1038 
L 4159 0 
L 353 0 
z
" transform="scale(0.015625)"/>
        <path id="DejaVuSerif-66" d="M 2753 4078 
L 2450 4078 
Q 2447 4313 2317 4434 
Q 2188 4556 1941 4556 
Q 1619 4556 1487 4379 
Q 1356 4203 1356 3750 
L 1356 3322 
L 2284 3322 
L 2284 2988 
L 1356 2988 
L 1356 331 
L 2094 331 
L 2094 0 
L 231 0 
L 231 331 
L 781 331 
L 781 2988 
L 231 2988 
L 231 3322 
L 781 3322 
L 781 3738 
Q 781 4294 1070 4578 
Q 1359 4863 1919 4863 
Q 2128 4863 2337 4825 
Q 2547 4788 2753 4709 
L 2753 4078 
z
" transform="scale(0.015625)"/>
        <path id="DejaVuSerif-74" d="M 691 2988 
L 184 2988 
L 184 3322 
L 691 3322 
L 691 4353 
L 1269 4353 
L 1269 3322 
L 2350 3322 
L 2350 2988 
L 1269 2988 
L 1269 878 
Q 1269 456 1350 337 
Q 1431 219 1650 219 
Q 1875 219 1978 351 
Q 2081 484 2088 781 
L 2522 781 
Q 2497 328 2275 118 
Q 2053 -91 1600 -91 
Q 1103 -91 897 129 
Q 691 350 691 878 
L 691 2988 
z
" transform="scale(0.015625)"/>
        <path id="DejaVuSerif-38" d="M 2981 1275 
Q 2981 1775 2732 2051 
Q 2484 2328 2034 2328 
Q 1584 2328 1336 2051 
Q 1088 1775 1088 1275 
Q 1088 772 1336 495 
Q 1584 219 2034 219 
Q 2484 219 2732 495 
Q 2981 772 2981 1275 
z
M 2853 3541 
Q 2853 3966 2637 4203 
Q 2422 4441 2034 4441 
Q 1650 4441 1433 4203 
Q 1216 3966 1216 3541 
Q 1216 3113 1433 2875 
Q 1650 2638 2034 2638 
Q 2422 2638 2637 2875 
Q 2853 3113 2853 3541 
z
M 2516 2484 
Q 3047 2413 3344 2092 
Q 3641 1772 3641 1275 
Q 3641 619 3225 264 
Q 2809 -91 2034 -91 
Q 1263 -91 845 264 
Q 428 619 428 1275 
Q 428 1772 725 2092 
Q 1022 2413 1556 2484 
Q 1084 2569 832 2842 
Q 581 3116 581 3541 
Q 581 4103 968 4426 
Q 1356 4750 2034 4750 
Q 2713 4750 3100 4426 
Q 3488 4103 3488 3541 
Q 3488 3116 3236 2842 
Q 2984 2569 2516 2484 
z
" transform="scale(0.015625)"/>
       </defs>
       <use xlink:href="#DejaVuSerif-45"/>
       <use xlink:href="#DejaVuSerif-66" x="72.998047"/>
       <use xlink:href="#DejaVuSerif-66" x="110.009766"/>
       <use xlink:href="#DejaVuSerif-65" x="147.021484"/>
       <use xlink:href="#DejaVuSerif-63" x="206.201172"/>
       <use xlink:href="#DejaVuSerif-74" x="262.207031"/>
       <use xlink:href="#DejaVuSerif-6f" x="302.392578"/>
       <use xlink:href="#DejaVuSerif-72" x="362.597656"/>
       <use xlink:href="#DejaVuSerif-20" x="410.400391"/>
       <use xlink:href="#DejaVuSerif-43" x="442.1875"/>
       <use xlink:href="#DejaVuSerif-44" x="518.701172"/>
       <use xlink:href="#DejaVuSerif-38" x="598.876953"/>
       <use xlink:href="#DejaVuSerif-20" x="662.5"/>
       <use xlink:href="#DejaVuSerif-54" x="694.287109"/>
       <use xlink:href="#DejaVuSerif-20" x="760.986328"/>
       <use xlink:href="#DejaVuSerif-63" x="792.773438"/>
       <use xlink:href="#DejaVuSerif-65" x="848.779297"/>
       <use xlink:href="#DejaVuSerif-6c" x="907.958984"/>
       <use xlink:href="#DejaVuSerif-6c" x="939.941406"/>
       <use xlink:href="#DejaVuSerif-73" x="971.923828"/>
      </g>
     </g>
    </g>
    <g id="xtick_4">
     <g id="line2d_4">
      <g>
       <use xlink:href="#mf1fe88d6e0" x="201.9225" y="108.02" style="stroke: #000000; stroke-width: 0.8"/>
      </g>
     </g>
     <g id="text_4">
      <!-- Classical monocytes -->
      <g transform="translate(205.417266 248.263906) rotate(-90) scale(0.13 -0.13)">
       <defs>
        <path id="DejaVuSerif-6e" d="M 263 0 
L 263 331 
L 781 331 
L 781 2988 
L 231 2988 
L 231 3322 
L 1356 3322 
L 1356 2731 
Q 1516 3069 1770 3241 
Q 2025 3413 2363 3413 
Q 2913 3413 3172 3097 
Q 3431 2781 3431 2113 
L 3431 331 
L 3944 331 
L 3944 0 
L 2356 0 
L 2356 331 
L 2853 331 
L 2853 1931 
Q 2853 2541 2703 2767 
Q 2553 2994 2175 2994 
Q 1775 2994 1565 2701 
Q 1356 2409 1356 1850 
L 1356 331 
L 1856 331 
L 1856 0 
L 263 0 
z
" transform="scale(0.015625)"/>
       </defs>
       <use xlink:href="#DejaVuSerif-43"/>
       <use xlink:href="#DejaVuSerif-6c" x="76.513672"/>
       <use xlink:href="#DejaVuSerif-61" x="108.496094"/>
       <use xlink:href="#DejaVuSerif-73" x="168.115234"/>
       <use xlink:href="#DejaVuSerif-73" x="219.433594"/>
       <use xlink:href="#DejaVuSerif-69" x="270.751953"/>
       <use xlink:href="#DejaVuSerif-63" x="302.734375"/>
       <use xlink:href="#DejaVuSerif-61" x="358.740234"/>
       <use xlink:href="#DejaVuSerif-6c" x="418.359375"/>
       <use xlink:href="#DejaVuSerif-20" x="450.341797"/>
       <use xlink:href="#DejaVuSerif-6d" x="482.128906"/>
       <use xlink:href="#DejaVuSerif-6f" x="576.953125"/>
       <use xlink:href="#DejaVuSerif-6e" x="637.158203"/>
       <use xlink:href="#DejaVuSerif-6f" x="701.5625"/>
       <use xlink:href="#DejaVuSerif-63" x="761.767578"/>
       <use xlink:href="#DejaVuSerif-79" x="817.773438"/>
       <use xlink:href="#DejaVuSerif-74" x="874.267578"/>
       <use xlink:href="#DejaVuSerif-65" x="914.453125"/>
       <use xlink:href="#DejaVuSerif-73" x="973.632812"/>
      </g>
     </g>
    </g>
    <g id="xtick_5">
     <g id="line2d_5">
      <g>
       <use xlink:href="#mf1fe88d6e0" x="251.7775" y="108.02" style="stroke: #000000; stroke-width: 0.8"/>
      </g>
     </g>
     <g id="text_5">
      <!-- Memory B cells -->
      <g transform="translate(255.272266 217.514844) rotate(-90) scale(0.13 -0.13)">
       <defs>
        <path id="DejaVuSerif-42" d="M 1581 331 
L 2516 331 
Q 3078 331 3337 575 
Q 3597 819 3597 1350 
Q 3597 1878 3339 2120 
Q 3081 2363 2516 2363 
L 1581 2363 
L 1581 331 
z
M 1581 2694 
L 2375 2694 
Q 2888 2694 3123 2891 
Q 3359 3088 3359 3513 
Q 3359 3941 3123 4136 
Q 2888 4331 2375 4331 
L 1581 4331 
L 1581 2694 
z
M 353 0 
L 353 331 
L 947 331 
L 947 4331 
L 353 4331 
L 353 4666 
L 2656 4666 
Q 3363 4666 3720 4377 
Q 4078 4088 4078 3513 
Q 4078 3097 3829 2850 
Q 3581 2603 3103 2547 
Q 3697 2472 4005 2167 
Q 4313 1863 4313 1350 
Q 4313 656 3875 328 
Q 3438 0 2509 0 
L 353 0 
z
" transform="scale(0.015625)"/>
       </defs>
       <use xlink:href="#DejaVuSerif-4d"/>
       <use xlink:href="#DejaVuSerif-65" x="102.392578"/>
       <use xlink:href="#DejaVuSerif-6d" x="161.572266"/>
       <use xlink:href="#DejaVuSerif-6f" x="256.396484"/>
       <use xlink:href="#DejaVuSerif-72" x="316.601562"/>
       <use xlink:href="#DejaVuSerif-79" x="364.404297"/>
       <use xlink:href="#DejaVuSerif-20" x="420.898438"/>
       <use xlink:href="#DejaVuSerif-42" x="452.685547"/>
       <use xlink:href="#DejaVuSerif-20" x="526.171875"/>
       <use xlink:href="#DejaVuSerif-63" x="557.958984"/>
       <use xlink:href="#DejaVuSerif-65" x="613.964844"/>
       <use xlink:href="#DejaVuSerif-6c" x="673.144531"/>
       <use xlink:href="#DejaVuSerif-6c" x="705.126953"/>
       <use xlink:href="#DejaVuSerif-73" x="737.109375"/>
      </g>
     </g>
    </g>
    <g id="xtick_6">
     <g id="line2d_6">
      <g>
       <use xlink:href="#mf1fe88d6e0" x="301.6325" y="108.02" style="stroke: #000000; stroke-width: 0.8"/>
      </g>
     </g>
     <g id="text_6">
      <!-- Naive CD8 T cells -->
      <g transform="translate(305.219687 233.01125) rotate(-90) scale(0.13 -0.13)">
       <use xlink:href="#DejaVuSerif-4e"/>
       <use xlink:href="#DejaVuSerif-61" x="87.5"/>
       <use xlink:href="#DejaVuSerif-69" x="147.119141"/>
       <use xlink:href="#DejaVuSerif-76" x="179.101562"/>
       <use xlink:href="#DejaVuSerif-65" x="235.595703"/>
       <use xlink:href="#DejaVuSerif-20" x="294.775391"/>
       <use xlink:href="#DejaVuSerif-43" x="326.5625"/>
       <use xlink:href="#DejaVuSerif-44" x="403.076172"/>
       <use xlink:href="#DejaVuSerif-38" x="483.251953"/>
       <use xlink:href="#DejaVuSerif-20" x="546.875"/>
       <use xlink:href="#DejaVuSerif-54" x="578.662109"/>
       <use xlink:href="#DejaVuSerif-20" x="645.361328"/>
       <use xlink:href="#DejaVuSerif-63" x="677.148438"/>
       <use xlink:href="#DejaVuSerif-65" x="733.154297"/>
       <use xlink:href="#DejaVuSerif-6c" x="792.333984"/>
       <use xlink:href="#DejaVuSerif-6c" x="824.316406"/>
       <use xlink:href="#DejaVuSerif-73" x="856.298828"/>
      </g>
     </g>
    </g>
    <g id="xtick_7">
     <g id="line2d_7">
      <g>
       <use xlink:href="#mf1fe88d6e0" x="351.4875" y="108.02" style="stroke: #000000; stroke-width: 0.8"/>
      </g>
     </g>
     <g id="text_7">
      <!-- Naive B cells -->
      <g transform="translate(355.074687 201.120625) rotate(-90) scale(0.13 -0.13)">
       <use xlink:href="#DejaVuSerif-4e"/>
       <use xlink:href="#DejaVuSerif-61" x="87.5"/>
       <use xlink:href="#DejaVuSerif-69" x="147.119141"/>
       <use xlink:href="#DejaVuSerif-76" x="179.101562"/>
       <use xlink:href="#DejaVuSerif-65" x="235.595703"/>
       <use xlink:href="#DejaVuSerif-20" x="294.775391"/>
       <use xlink:href="#DejaVuSerif-42" x="326.5625"/>
       <use xlink:href="#DejaVuSerif-20" x="400.048828"/>
       <use xlink:href="#DejaVuSerif-63" x="431.835938"/>
       <use xlink:href="#DejaVuSerif-65" x="487.841797"/>
       <use xlink:href="#DejaVuSerif-6c" x="547.021484"/>
       <use xlink:href="#DejaVuSerif-6c" x="579.003906"/>
       <use xlink:href="#DejaVuSerif-73" x="610.986328"/>
      </g>
     </g>
    </g>
    <g id="xtick_8">
     <g id="line2d_8">
      <g>
       <use xlink:href="#mf1fe88d6e0" x="401.3425" y="108.02" style="stroke: #000000; stroke-width: 0.8"/>
      </g>
     </g>
     <g id="text_8">
      <!-- Intermediate monocytes -->
      <g transform="translate(404.837266 275.531406) rotate(-90) scale(0.13 -0.13)">
       <defs>
        <path id="DejaVuSerif-49" d="M 1581 331 
L 2175 331 
L 2175 0 
L 353 0 
L 353 331 
L 947 331 
L 947 4331 
L 353 4331 
L 353 4666 
L 2175 4666 
L 2175 4331 
L 1581 4331 
L 1581 331 
z
" transform="scale(0.015625)"/>
        <path id="DejaVuSerif-64" d="M 3359 331 
L 3909 331 
L 3909 0 
L 2784 0 
L 2784 519 
Q 2616 206 2355 57 
Q 2094 -91 1709 -91 
Q 1097 -91 708 395 
Q 319 881 319 1663 
Q 319 2444 706 2928 
Q 1094 3413 1709 3413 
Q 2094 3413 2355 3264 
Q 2616 3116 2784 2803 
L 2784 4531 
L 2241 4531 
L 2241 4863 
L 3359 4863 
L 3359 331 
z
M 2784 1497 
L 2784 1825 
Q 2784 2422 2554 2737 
Q 2325 3053 1888 3053 
Q 1444 3053 1217 2703 
Q 991 2353 991 1663 
Q 991 975 1217 622 
Q 1444 269 1888 269 
Q 2325 269 2554 583 
Q 2784 897 2784 1497 
z
" transform="scale(0.015625)"/>
       </defs>
       <use xlink:href="#DejaVuSerif-49"/>
       <use xlink:href="#DejaVuSerif-6e" x="39.501953"/>
       <use xlink:href="#DejaVuSerif-74" x="103.90625"/>
       <use xlink:href="#DejaVuSerif-65" x="144.091797"/>
       <use xlink:href="#DejaVuSerif-72" x="203.271484"/>
       <use xlink:href="#DejaVuSerif-6d" x="251.074219"/>
       <use xlink:href="#DejaVuSerif-65" x="345.898438"/>
       <use xlink:href="#DejaVuSerif-64" x="405.078125"/>
       <use xlink:href="#DejaVuSerif-69" x="469.091797"/>
       <use xlink:href="#DejaVuSerif-61" x="501.074219"/>
       <use xlink:href="#DejaVuSerif-74" x="560.693359"/>
       <use xlink:href="#DejaVuSerif-65" x="600.878906"/>
       <use xlink:href="#DejaVuSerif-20" x="660.058594"/>
       <use xlink:href="#DejaVuSerif-6d" x="691.845703"/>
       <use xlink:href="#DejaVuSerif-6f" x="786.669922"/>
       <use xlink:href="#DejaVuSerif-6e" x="846.875"/>
       <use xlink:href="#DejaVuSerif-6f" x="911.279297"/>
       <use xlink:href="#DejaVuSerif-63" x="971.484375"/>
       <use xlink:href="#DejaVuSerif-79" x="1027.490234"/>
       <use xlink:href="#DejaVuSerif-74" x="1083.984375"/>
       <use xlink:href="#DejaVuSerif-65" x="1124.169922"/>
       <use xlink:href="#DejaVuSerif-73" x="1183.349609"/>
      </g>
     </g>
    </g>
    <g id="xtick_9">
     <g id="line2d_9">
      <g>
       <use xlink:href="#mf1fe88d6e0" x="451.1975" y="108.02" style="stroke: #000000; stroke-width: 0.8"/>
      </g>
     </g>
     <g id="text_9">
      <!-- CD56 (dim) NK cells -->
      <g transform="translate(454.784687 250.325625) rotate(-90) scale(0.13 -0.13)">
       <defs>
        <path id="DejaVuSerif-35" d="M 3219 4666 
L 3219 4153 
L 1081 4153 
L 1081 2816 
Q 1244 2928 1461 2984 
Q 1678 3041 1947 3041 
Q 2703 3041 3140 2622 
Q 3578 2203 3578 1478 
Q 3578 738 3136 323 
Q 2694 -91 1894 -91 
Q 1572 -91 1234 -12 
Q 897 66 544 225 
L 544 1131 
L 897 1131 
Q 925 688 1179 453 
Q 1434 219 1894 219 
Q 2388 219 2653 544 
Q 2919 869 2919 1478 
Q 2919 2084 2655 2407 
Q 2391 2731 1894 2731 
Q 1613 2731 1398 2631 
Q 1184 2531 1019 2322 
L 750 2322 
L 750 4666 
L 3219 4666 
z
" transform="scale(0.015625)"/>
        <path id="DejaVuSerif-36" d="M 2094 219 
Q 2534 219 2771 542 
Q 3009 866 3009 1472 
Q 3009 2078 2771 2401 
Q 2534 2725 2094 2725 
Q 1647 2725 1412 2412 
Q 1178 2100 1178 1509 
Q 1178 888 1415 553 
Q 1653 219 2094 219 
z
M 1075 2569 
Q 1288 2803 1556 2918 
Q 1825 3034 2163 3034 
Q 2859 3034 3264 2615 
Q 3669 2197 3669 1472 
Q 3669 763 3233 336 
Q 2797 -91 2069 -91 
Q 1278 -91 853 498 
Q 428 1088 428 2181 
Q 428 3406 931 4078 
Q 1434 4750 2350 4750 
Q 2597 4750 2869 4703 
Q 3141 4656 3425 4563 
L 3425 3794 
L 3072 3794 
Q 3034 4109 2831 4275 
Q 2628 4441 2284 4441 
Q 1678 4441 1381 3981 
Q 1084 3522 1075 2569 
z
" transform="scale(0.015625)"/>
        <path id="DejaVuSerif-28" d="M 2041 -997 
Q 1281 -656 893 83 
Q 506 822 506 1931 
Q 506 3044 893 3783 
Q 1281 4522 2041 4863 
L 2041 4556 
Q 1559 4225 1350 3623 
Q 1141 3022 1141 1931 
Q 1141 844 1350 242 
Q 1559 -359 2041 -691 
L 2041 -997 
z
" transform="scale(0.015625)"/>
        <path id="DejaVuSerif-29" d="M 453 -997 
L 453 -691 
Q 934 -359 1145 242 
Q 1356 844 1356 1931 
Q 1356 3022 1145 3623 
Q 934 4225 453 4556 
L 453 4863 
Q 1216 4522 1603 3783 
Q 1991 3044 1991 1931 
Q 1991 822 1603 83 
Q 1216 -656 453 -997 
z
" transform="scale(0.015625)"/>
        <path id="DejaVuSerif-4b" d="M 353 0 
L 353 331 
L 947 331 
L 947 4331 
L 353 4331 
L 353 4666 
L 2175 4666 
L 2175 4331 
L 1581 4331 
L 1581 2566 
L 3591 4331 
L 3084 4331 
L 3084 4666 
L 4634 4666 
L 4634 4331 
L 4109 4331 
L 2106 2572 
L 4347 331 
L 4878 331 
L 4878 0 
L 3794 0 
L 1581 2216 
L 1581 331 
L 2175 331 
L 2175 0 
L 353 0 
z
" transform="scale(0.015625)"/>
       </defs>
       <use xlink:href="#DejaVuSerif-43"/>
       <use xlink:href="#DejaVuSerif-44" x="76.513672"/>
       <use xlink:href="#DejaVuSerif-35" x="156.689453"/>
       <use xlink:href="#DejaVuSerif-36" x="220.3125"/>
       <use xlink:href="#DejaVuSerif-20" x="283.935547"/>
       <use xlink:href="#DejaVuSerif-28" x="315.722656"/>
       <use xlink:href="#DejaVuSerif-64" x="354.736328"/>
       <use xlink:href="#DejaVuSerif-69" x="418.75"/>
       <use xlink:href="#DejaVuSerif-6d" x="450.732422"/>
       <use xlink:href="#DejaVuSerif-29" x="545.556641"/>
       <use xlink:href="#DejaVuSerif-20" x="584.570312"/>
       <use xlink:href="#DejaVuSerif-4e" x="616.357422"/>
       <use xlink:href="#DejaVuSerif-4b" x="703.857422"/>
       <use xlink:href="#DejaVuSerif-20" x="778.564453"/>
       <use xlink:href="#DejaVuSerif-63" x="810.351562"/>
       <use xlink:href="#DejaVuSerif-65" x="866.357422"/>
       <use xlink:href="#DejaVuSerif-6c" x="925.537109"/>
       <use xlink:href="#DejaVuSerif-6c" x="957.519531"/>
       <use xlink:href="#DejaVuSerif-73" x="989.501953"/>
      </g>
     </g>
    </g>
    <g id="xtick_10">
     <g id="line2d_10">
      <g>
       <use xlink:href="#mf1fe88d6e0" x="501.0525" y="108.02" style="stroke: #000000; stroke-width: 0.8"/>
      </g>
     </g>
     <g id="text_10">
      <!-- Myeloid DC -->
      <g transform="translate(504.547266 192.335469) rotate(-90) scale(0.13 -0.13)">
       <use xlink:href="#DejaVuSerif-4d"/>
       <use xlink:href="#DejaVuSerif-79" x="102.392578"/>
       <use xlink:href="#DejaVuSerif-65" x="158.886719"/>
       <use xlink:href="#DejaVuSerif-6c" x="218.066406"/>
       <use xlink:href="#DejaVuSerif-6f" x="250.048828"/>
       <use xlink:href="#DejaVuSerif-69" x="310.253906"/>
       <use xlink:href="#DejaVuSerif-64" x="342.236328"/>
       <use xlink:href="#DejaVuSerif-20" x="406.25"/>
       <use xlink:href="#DejaVuSerif-44" x="438.037109"/>
       <use xlink:href="#DejaVuSerif-43" x="518.212891"/>
      </g>
     </g>
    </g>
    <g id="xtick_11">
     <g id="line2d_11">
      <g>
       <use xlink:href="#mf1fe88d6e0" x="550.9075" y="108.02" style="stroke: #000000; stroke-width: 0.8"/>
      </g>
     </g>
     <g id="text_11">
      <!-- Non-classical monocytes -->
      <g transform="translate(554.402266 277.564687) rotate(-90) scale(0.13 -0.13)">
       <defs>
        <path id="DejaVuSerif-2d" d="M 281 1959 
L 1881 1959 
L 1881 1472 
L 281 1472 
L 281 1959 
z
" transform="scale(0.015625)"/>
       </defs>
       <use xlink:href="#DejaVuSerif-4e"/>
       <use xlink:href="#DejaVuSerif-6f" x="87.5"/>
       <use xlink:href="#DejaVuSerif-6e" x="147.705078"/>
       <use xlink:href="#DejaVuSerif-2d" x="212.109375"/>
       <use xlink:href="#DejaVuSerif-63" x="245.898438"/>
       <use xlink:href="#DejaVuSerif-6c" x="301.904297"/>
       <use xlink:href="#DejaVuSerif-61" x="333.886719"/>
       <use xlink:href="#DejaVuSerif-73" x="393.505859"/>
       <use xlink:href="#DejaVuSerif-73" x="444.824219"/>
       <use xlink:href="#DejaVuSerif-69" x="496.142578"/>
       <use xlink:href="#DejaVuSerif-63" x="528.125"/>
       <use xlink:href="#DejaVuSerif-61" x="584.130859"/>
       <use xlink:href="#DejaVuSerif-6c" x="643.75"/>
       <use xlink:href="#DejaVuSerif-20" x="675.732422"/>
       <use xlink:href="#DejaVuSerif-6d" x="707.519531"/>
       <use xlink:href="#DejaVuSerif-6f" x="802.34375"/>
       <use xlink:href="#DejaVuSerif-6e" x="862.548828"/>
       <use xlink:href="#DejaVuSerif-6f" x="926.953125"/>
       <use xlink:href="#DejaVuSerif-63" x="987.158203"/>
       <use xlink:href="#DejaVuSerif-79" x="1043.164062"/>
       <use xlink:href="#DejaVuSerif-74" x="1099.658203"/>
       <use xlink:href="#DejaVuSerif-65" x="1139.84375"/>
       <use xlink:href="#DejaVuSerif-73" x="1199.023438"/>
      </g>
     </g>
    </g>
    <g id="xtick_12">
     <g id="line2d_12">
      <g>
       <use xlink:href="#mf1fe88d6e0" x="600.7625" y="108.02" style="stroke: #000000; stroke-width: 0.8"/>
      </g>
     </g>
     <g id="text_12">
      <!-- CD56 (bright) NK cells -->
      <g transform="translate(604.257266 266.130781) rotate(-90) scale(0.13 -0.13)">
       <defs>
        <path id="DejaVuSerif-62" d="M 738 331 
L 738 4531 
L 184 4531 
L 184 4863 
L 1313 4863 
L 1313 2803 
Q 1481 3116 1742 3264 
Q 2003 3413 2388 3413 
Q 3000 3413 3387 2928 
Q 3775 2444 3775 1663 
Q 3775 881 3387 395 
Q 3000 -91 2388 -91 
Q 2003 -91 1742 57 
Q 1481 206 1313 519 
L 1313 0 
L 184 0 
L 184 331 
L 738 331 
z
M 1313 1497 
Q 1313 897 1542 583 
Q 1772 269 2209 269 
Q 2650 269 2876 622 
Q 3103 975 3103 1663 
Q 3103 2353 2876 2703 
Q 2650 3053 2209 3053 
Q 1772 3053 1542 2737 
Q 1313 2422 1313 1825 
L 1313 1497 
z
" transform="scale(0.015625)"/>
        <path id="DejaVuSerif-67" d="M 3359 2988 
L 3359 72 
Q 3359 -644 2965 -1033 
Q 2572 -1422 1844 -1422 
Q 1516 -1422 1216 -1362 
Q 916 -1303 641 -1184 
L 641 -488 
L 941 -488 
Q 997 -813 1206 -963 
Q 1416 -1113 1806 -1113 
Q 2313 -1113 2548 -827 
Q 2784 -541 2784 72 
L 2784 519 
Q 2616 206 2355 57 
Q 2094 -91 1709 -91 
Q 1097 -91 708 395 
Q 319 881 319 1663 
Q 319 2444 706 2928 
Q 1094 3413 1709 3413 
Q 2094 3413 2355 3264 
Q 2616 3116 2784 2803 
L 2784 3322 
L 3909 3322 
L 3909 2988 
L 3359 2988 
z
M 2784 1825 
Q 2784 2422 2554 2737 
Q 2325 3053 1888 3053 
Q 1444 3053 1217 2703 
Q 991 2353 991 1663 
Q 991 975 1217 622 
Q 1444 269 1888 269 
Q 2325 269 2554 583 
Q 2784 897 2784 1497 
L 2784 1825 
z
" transform="scale(0.015625)"/>
        <path id="DejaVuSerif-68" d="M 263 0 
L 263 331 
L 781 331 
L 781 4531 
L 231 4531 
L 231 4863 
L 1356 4863 
L 1356 2731 
Q 1516 3069 1770 3241 
Q 2025 3413 2363 3413 
Q 2913 3413 3172 3097 
Q 3431 2781 3431 2113 
L 3431 331 
L 3944 331 
L 3944 0 
L 2356 0 
L 2356 331 
L 2853 331 
L 2853 1931 
Q 2853 2541 2704 2764 
Q 2556 2988 2175 2988 
Q 1775 2988 1565 2697 
Q 1356 2406 1356 1850 
L 1356 331 
L 1856 331 
L 1856 0 
L 263 0 
z
" transform="scale(0.015625)"/>
       </defs>
       <use xlink:href="#DejaVuSerif-43"/>
       <use xlink:href="#DejaVuSerif-44" x="76.513672"/>
       <use xlink:href="#DejaVuSerif-35" x="156.689453"/>
       <use xlink:href="#DejaVuSerif-36" x="220.3125"/>
       <use xlink:href="#DejaVuSerif-20" x="283.935547"/>
       <use xlink:href="#DejaVuSerif-28" x="315.722656"/>
       <use xlink:href="#DejaVuSerif-62" x="354.736328"/>
       <use xlink:href="#DejaVuSerif-72" x="418.75"/>
       <use xlink:href="#DejaVuSerif-69" x="466.552734"/>
       <use xlink:href="#DejaVuSerif-67" x="498.535156"/>
       <use xlink:href="#DejaVuSerif-68" x="562.548828"/>
       <use xlink:href="#DejaVuSerif-74" x="626.953125"/>
       <use xlink:href="#DejaVuSerif-29" x="667.138672"/>
       <use xlink:href="#DejaVuSerif-20" x="706.152344"/>
       <use xlink:href="#DejaVuSerif-4e" x="737.939453"/>
       <use xlink:href="#DejaVuSerif-4b" x="825.439453"/>
       <use xlink:href="#DejaVuSerif-20" x="900.146484"/>
       <use xlink:href="#DejaVuSerif-63" x="931.933594"/>
       <use xlink:href="#DejaVuSerif-65" x="987.939453"/>
       <use xlink:href="#DejaVuSerif-6c" x="1047.119141"/>
       <use xlink:href="#DejaVuSerif-6c" x="1079.101562"/>
       <use xlink:href="#DejaVuSerif-73" x="1111.083984"/>
      </g>
     </g>
    </g>
    <g id="xtick_13">
     <g id="line2d_13">
      <g>
       <use xlink:href="#mf1fe88d6e0" x="650.6175" y="108.02" style="stroke: #000000; stroke-width: 0.8"/>
      </g>
     </g>
     <g id="text_13">
      <!-- MAIT T cells -->
      <g transform="translate(654.204687 198.421094) rotate(-90) scale(0.13 -0.13)">
       <defs>
        <path id="DejaVuSerif-41" d="M 1281 1691 
L 2994 1691 
L 2138 3909 
L 1281 1691 
z
M -38 0 
L -38 331 
L 372 331 
L 2034 4666 
L 2559 4666 
L 4225 331 
L 4684 331 
L 4684 0 
L 2988 0 
L 2988 331 
L 3506 331 
L 3116 1356 
L 1153 1356 
L 763 331 
L 1275 331 
L 1275 0 
L -38 0 
z
" transform="scale(0.015625)"/>
       </defs>
       <use xlink:href="#DejaVuSerif-4d"/>
       <use xlink:href="#DejaVuSerif-41" x="102.392578"/>
       <use xlink:href="#DejaVuSerif-49" x="174.609375"/>
       <use xlink:href="#DejaVuSerif-54" x="214.111328"/>
       <use xlink:href="#DejaVuSerif-20" x="280.810547"/>
       <use xlink:href="#DejaVuSerif-54" x="312.597656"/>
       <use xlink:href="#DejaVuSerif-20" x="379.296875"/>
       <use xlink:href="#DejaVuSerif-63" x="411.083984"/>
       <use xlink:href="#DejaVuSerif-65" x="467.089844"/>
       <use xlink:href="#DejaVuSerif-6c" x="526.269531"/>
       <use xlink:href="#DejaVuSerif-6c" x="558.251953"/>
       <use xlink:href="#DejaVuSerif-73" x="590.234375"/>
      </g>
     </g>
    </g>
    <g id="xtick_14">
     <g id="line2d_14">
      <g>
       <use xlink:href="#mf1fe88d6e0" x="700.4725" y="108.02" style="stroke: #000000; stroke-width: 0.8"/>
      </g>
     </g>
     <g id="text_14">
      <!-- Plasmacytoid DC -->
      <g transform="translate(703.967266 227.082031) rotate(-90) scale(0.13 -0.13)">
       <defs>
        <path id="DejaVuSerif-50" d="M 1581 2375 
L 2406 2375 
Q 2872 2375 3115 2626 
Q 3359 2878 3359 3353 
Q 3359 3831 3115 4081 
Q 2872 4331 2406 4331 
L 1581 4331 
L 1581 2375 
z
M 353 0 
L 353 331 
L 947 331 
L 947 4331 
L 353 4331 
L 353 4666 
L 2559 4666 
Q 3259 4666 3668 4311 
Q 4078 3956 4078 3353 
Q 4078 2753 3668 2397 
Q 3259 2041 2559 2041 
L 1581 2041 
L 1581 331 
L 2303 331 
L 2303 0 
L 353 0 
z
" transform="scale(0.015625)"/>
       </defs>
       <use xlink:href="#DejaVuSerif-50"/>
       <use xlink:href="#DejaVuSerif-6c" x="67.285156"/>
       <use xlink:href="#DejaVuSerif-61" x="99.267578"/>
       <use xlink:href="#DejaVuSerif-73" x="158.886719"/>
       <use xlink:href="#DejaVuSerif-6d" x="210.205078"/>
       <use xlink:href="#DejaVuSerif-61" x="305.029297"/>
       <use xlink:href="#DejaVuSerif-63" x="364.648438"/>
       <use xlink:href="#DejaVuSerif-79" x="420.654297"/>
       <use xlink:href="#DejaVuSerif-74" x="477.148438"/>
       <use xlink:href="#DejaVuSerif-6f" x="517.333984"/>
       <use xlink:href="#DejaVuSerif-69" x="577.539062"/>
       <use xlink:href="#DejaVuSerif-64" x="609.521484"/>
       <use xlink:href="#DejaVuSerif-20" x="673.535156"/>
       <use xlink:href="#DejaVuSerif-44" x="705.322266"/>
       <use xlink:href="#DejaVuSerif-43" x="785.498047"/>
      </g>
     </g>
    </g>
   </g>
   <g id="matplotlib.axis_2">
    <g id="ytick_1">
     <g id="line2d_15">
      <defs>
       <path id="m17429c7373" d="M 0 0 
L -3.5 0 
" style="stroke: #000000; stroke-width: 0.8"/>
      </defs>
      <g>
       <use xlink:href="#m17429c7373" x="27.43" y="108.02" style="stroke: #000000; stroke-width: 0.8"/>
      </g>
     </g>
     <g id="text_15">
      <!-- 0 -->
      <g transform="translate(10.88625 113.718828) scale(0.15 -0.15)">
       <defs>
        <path id="DejaVuSerif-30" d="M 2034 219 
Q 2513 219 2750 744 
Q 2988 1269 2988 2328 
Q 2988 3391 2750 3916 
Q 2513 4441 2034 4441 
Q 1556 4441 1318 3916 
Q 1081 3391 1081 2328 
Q 1081 1269 1318 744 
Q 1556 219 2034 219 
z
M 2034 -91 
Q 1275 -91 848 546 
Q 422 1184 422 2328 
Q 422 3475 848 4112 
Q 1275 4750 2034 4750 
Q 2797 4750 3222 4112 
Q 3647 3475 3647 2328 
Q 3647 1184 3222 546 
Q 2797 -91 2034 -91 
z
" transform="scale(0.015625)"/>
       </defs>
       <use xlink:href="#DejaVuSerif-30"/>
      </g>
     </g>
    </g>
    <g id="ytick_2">
     <g id="line2d_16">
      <g>
       <use xlink:href="#m17429c7373" x="27.43" y="30.924089" style="stroke: #000000; stroke-width: 0.8"/>
      </g>
     </g>
     <g id="text_16">
      <!-- 1 -->
      <g transform="translate(10.88625 36.622917) scale(0.15 -0.15)">
       <defs>
        <path id="DejaVuSerif-31" d="M 909 0 
L 909 331 
L 1722 331 
L 1722 4213 
L 781 3603 
L 781 4013 
L 1919 4750 
L 2350 4750 
L 2350 331 
L 3163 331 
L 3163 0 
L 909 0 
z
" transform="scale(0.015625)"/>
       </defs>
       <use xlink:href="#DejaVuSerif-31"/>
      </g>
     </g>
    </g>
   </g>
   <g id="line2d_17">
    <path clip-path="url(#pe9aa9ae448)" style="fill: none; stroke: #424242; stroke-width: 2.7; stroke-linecap: square"/>
   </g>
   <g id="line2d_18">
    <path clip-path="url(#pe9aa9ae448)" style="fill: none; stroke: #424242; stroke-width: 2.7; stroke-linecap: square"/>
   </g>
   <g id="line2d_19">
    <path clip-path="url(#pe9aa9ae448)" style="fill: none; stroke: #424242; stroke-width: 2.7; stroke-linecap: square"/>
   </g>
   <g id="line2d_20">
    <path clip-path="url(#pe9aa9ae448)" style="fill: none; stroke: #424242; stroke-width: 2.7; stroke-linecap: square"/>
   </g>
   <g id="line2d_21">
    <path clip-path="url(#pe9aa9ae448)" style="fill: none; stroke: #424242; stroke-width: 2.7; stroke-linecap: square"/>
   </g>
   <g id="line2d_22">
    <path clip-path="url(#pe9aa9ae448)" style="fill: none; stroke: #424242; stroke-width: 2.7; stroke-linecap: square"/>
   </g>
   <g id="line2d_23">
    <path clip-path="url(#pe9aa9ae448)" style="fill: none; stroke: #424242; stroke-width: 2.7; stroke-linecap: square"/>
   </g>
   <g id="line2d_24">
    <path clip-path="url(#pe9aa9ae448)" style="fill: none; stroke: #424242; stroke-width: 2.7; stroke-linecap: square"/>
   </g>
   <g id="line2d_25">
    <path clip-path="url(#pe9aa9ae448)" style="fill: none; stroke: #424242; stroke-width: 2.7; stroke-linecap: square"/>
   </g>
   <g id="line2d_26">
    <path clip-path="url(#pe9aa9ae448)" style="fill: none; stroke: #424242; stroke-width: 2.7; stroke-linecap: square"/>
   </g>
   <g id="line2d_27">
    <path clip-path="url(#pe9aa9ae448)" style="fill: none; stroke: #424242; stroke-width: 2.7; stroke-linecap: square"/>
   </g>
   <g id="line2d_28">
    <path clip-path="url(#pe9aa9ae448)" style="fill: none; stroke: #424242; stroke-width: 2.7; stroke-linecap: square"/>
   </g>
   <g id="line2d_29">
    <path clip-path="url(#pe9aa9ae448)" style="fill: none; stroke: #424242; stroke-width: 2.7; stroke-linecap: square"/>
   </g>
   <g id="line2d_30">
    <path clip-path="url(#pe9aa9ae448)" style="fill: none; stroke: #424242; stroke-width: 2.7; stroke-linecap: square"/>
   </g>
   <g id="line2d_31">
    <path clip-path="url(#pe9aa9ae448)" style="fill: none; stroke: #424242; stroke-width: 2.7; stroke-linecap: square"/>
   </g>
   <g id="line2d_32">
    <path clip-path="url(#pe9aa9ae448)" style="fill: none; stroke: #424242; stroke-width: 2.7; stroke-linecap: square"/>
   </g>
   <g id="line2d_33">
    <path clip-path="url(#pe9aa9ae448)" style="fill: none; stroke: #424242; stroke-width: 2.7; stroke-linecap: square"/>
   </g>
   <g id="line2d_34">
    <path clip-path="url(#pe9aa9ae448)" style="fill: none; stroke: #424242; stroke-width: 2.7; stroke-linecap: square"/>
   </g>
   <g id="line2d_35">
    <path clip-path="url(#pe9aa9ae448)" style="fill: none; stroke: #424242; stroke-width: 2.7; stroke-linecap: square"/>
   </g>
   <g id="line2d_36">
    <path clip-path="url(#pe9aa9ae448)" style="fill: none; stroke: #424242; stroke-width: 2.7; stroke-linecap: square"/>
   </g>
   <g id="line2d_37">
    <path clip-path="url(#pe9aa9ae448)" style="fill: none; stroke: #424242; stroke-width: 2.7; stroke-linecap: square"/>
   </g>
   <g id="line2d_38">
    <path clip-path="url(#pe9aa9ae448)" style="fill: none; stroke: #424242; stroke-width: 2.7; stroke-linecap: square"/>
   </g>
   <g id="line2d_39">
    <path clip-path="url(#pe9aa9ae448)" style="fill: none; stroke: #424242; stroke-width: 2.7; stroke-linecap: square"/>
   </g>
   <g id="line2d_40">
    <path clip-path="url(#pe9aa9ae448)" style="fill: none; stroke: #424242; stroke-width: 2.7; stroke-linecap: square"/>
   </g>
   <g id="line2d_41">
    <path clip-path="url(#pe9aa9ae448)" style="fill: none; stroke: #424242; stroke-width: 2.7; stroke-linecap: square"/>
   </g>
   <g id="line2d_42">
    <path clip-path="url(#pe9aa9ae448)" style="fill: none; stroke: #424242; stroke-width: 2.7; stroke-linecap: square"/>
   </g>
   <g id="line2d_43">
    <path clip-path="url(#pe9aa9ae448)" style="fill: none; stroke: #424242; stroke-width: 2.7; stroke-linecap: square"/>
   </g>
   <g id="line2d_44">
    <path clip-path="url(#pe9aa9ae448)" style="fill: none; stroke: #424242; stroke-width: 2.7; stroke-linecap: square"/>
   </g>
   <g id="patch_31">
    <path d="M 27.43 108.02 
L 27.43 27.6 
" style="fill: none; stroke: #000000; stroke-width: 0.8; stroke-linejoin: miter; stroke-linecap: square"/>
   </g>
   <g id="patch_32">
    <path d="M 725.4 108.02 
L 725.4 27.6 
" style="fill: none; stroke: #000000; stroke-width: 0.8; stroke-linejoin: miter; stroke-linecap: square"/>
   </g>
   <g id="patch_33">
    <path d="M 27.43 108.02 
L 725.4 108.02 
" style="fill: none; stroke: #000000; stroke-width: 0.8; stroke-linejoin: miter; stroke-linecap: square"/>
   </g>
   <g id="patch_34">
    <path d="M 27.43 27.6 
L 725.4 27.6 
" style="fill: none; stroke: #000000; stroke-width: 0.8; stroke-linejoin: miter; stroke-linecap: square"/>
   </g>
   <g id="text_17">
    <!-- Correlation real-generated average marker peak accessibility per cell type -->
    <g transform="translate(91.756016 21.6) scale(0.15 -0.15)">
     <defs>
      <path id="DejaVuSerif-6b" d="M 1831 0 
L 219 0 
L 219 331 
L 738 331 
L 738 4531 
L 184 4531 
L 184 4863 
L 1313 4863 
L 1313 1697 
L 2713 2988 
L 2234 2988 
L 2234 3322 
L 3738 3322 
L 3738 2988 
L 3169 2988 
L 2181 2075 
L 3444 331 
L 3922 331 
L 3922 0 
L 2284 0 
L 2284 331 
L 2759 331 
L 1766 1697 
L 1313 1275 
L 1313 331 
L 1831 331 
L 1831 0 
z
" transform="scale(0.015625)"/>
      <path id="DejaVuSerif-70" d="M 1313 1825 
L 1313 1497 
Q 1313 897 1542 583 
Q 1772 269 2209 269 
Q 2650 269 2876 622 
Q 3103 975 3103 1663 
Q 3103 2353 2876 2703 
Q 2650 3053 2209 3053 
Q 1772 3053 1542 2737 
Q 1313 2422 1313 1825 
z
M 738 2988 
L 184 2988 
L 184 3322 
L 1313 3322 
L 1313 2803 
Q 1481 3116 1742 3264 
Q 2003 3413 2388 3413 
Q 3000 3413 3387 2928 
Q 3775 2444 3775 1663 
Q 3775 881 3387 395 
Q 3000 -91 2388 -91 
Q 2003 -91 1742 57 
Q 1481 206 1313 519 
L 1313 -997 
L 1856 -997 
L 1856 -1331 
L 184 -1331 
L 184 -997 
L 738 -997 
L 738 2988 
z
" transform="scale(0.015625)"/>
     </defs>
     <use xlink:href="#DejaVuSerif-43"/>
     <use xlink:href="#DejaVuSerif-6f" x="76.513672"/>
     <use xlink:href="#DejaVuSerif-72" x="136.71875"/>
     <use xlink:href="#DejaVuSerif-72" x="184.521484"/>
     <use xlink:href="#DejaVuSerif-65" x="232.324219"/>
     <use xlink:href="#DejaVuSerif-6c" x="291.503906"/>
     <use xlink:href="#DejaVuSerif-61" x="323.486328"/>
     <use xlink:href="#DejaVuSerif-74" x="383.105469"/>
     <use xlink:href="#DejaVuSerif-69" x="423.291016"/>
     <use xlink:href="#DejaVuSerif-6f" x="455.273438"/>
     <use xlink:href="#DejaVuSerif-6e" x="515.478516"/>
     <use xlink:href="#DejaVuSerif-20" x="579.882812"/>
     <use xlink:href="#DejaVuSerif-72" x="611.669922"/>
     <use xlink:href="#DejaVuSerif-65" x="659.472656"/>
     <use xlink:href="#DejaVuSerif-61" x="718.652344"/>
     <use xlink:href="#DejaVuSerif-6c" x="778.271484"/>
     <use xlink:href="#DejaVuSerif-2d" x="810.253906"/>
     <use xlink:href="#DejaVuSerif-67" x="844.042969"/>
     <use xlink:href="#DejaVuSerif-65" x="908.056641"/>
     <use xlink:href="#DejaVuSerif-6e" x="967.236328"/>
     <use xlink:href="#DejaVuSerif-65" x="1031.640625"/>
     <use xlink:href="#DejaVuSerif-72" x="1090.820312"/>
     <use xlink:href="#DejaVuSerif-61" x="1138.623047"/>
     <use xlink:href="#DejaVuSerif-74" x="1198.242188"/>
     <use xlink:href="#DejaVuSerif-65" x="1238.427734"/>
     <use xlink:href="#DejaVuSerif-64" x="1297.607422"/>
     <use xlink:href="#DejaVuSerif-20" x="1361.621094"/>
     <use xlink:href="#DejaVuSerif-61" x="1393.408203"/>
     <use xlink:href="#DejaVuSerif-76" x="1453.027344"/>
     <use xlink:href="#DejaVuSerif-65" x="1509.521484"/>
     <use xlink:href="#DejaVuSerif-72" x="1568.701172"/>
     <use xlink:href="#DejaVuSerif-61" x="1616.503906"/>
     <use xlink:href="#DejaVuSerif-67" x="1676.123047"/>
     <use xlink:href="#DejaVuSerif-65" x="1740.136719"/>
     <use xlink:href="#DejaVuSerif-20" x="1799.316406"/>
     <use xlink:href="#DejaVuSerif-6d" x="1831.103516"/>
     <use xlink:href="#DejaVuSerif-61" x="1925.927734"/>
     <use xlink:href="#DejaVuSerif-72" x="1985.546875"/>
     <use xlink:href="#DejaVuSerif-6b" x="2033.349609"/>
     <use xlink:href="#DejaVuSerif-65" x="2093.945312"/>
     <use xlink:href="#DejaVuSerif-72" x="2153.125"/>
     <use xlink:href="#DejaVuSerif-20" x="2200.927734"/>
     <use xlink:href="#DejaVuSerif-70" x="2232.714844"/>
     <use xlink:href="#DejaVuSerif-65" x="2296.728516"/>
     <use xlink:href="#DejaVuSerif-61" x="2355.908203"/>
     <use xlink:href="#DejaVuSerif-6b" x="2415.527344"/>
     <use xlink:href="#DejaVuSerif-20" x="2476.123047"/>
     <use xlink:href="#DejaVuSerif-61" x="2507.910156"/>
     <use xlink:href="#DejaVuSerif-63" x="2567.529297"/>
     <use xlink:href="#DejaVuSerif-63" x="2623.535156"/>
     <use xlink:href="#DejaVuSerif-65" x="2679.541016"/>
     <use xlink:href="#DejaVuSerif-73" x="2738.720703"/>
     <use xlink:href="#DejaVuSerif-73" x="2790.039062"/>
     <use xlink:href="#DejaVuSerif-69" x="2841.357422"/>
     <use xlink:href="#DejaVuSerif-62" x="2873.339844"/>
     <use xlink:href="#DejaVuSerif-69" x="2937.353516"/>
     <use xlink:href="#DejaVuSerif-6c" x="2969.335938"/>
     <use xlink:href="#DejaVuSerif-69" x="3001.318359"/>
     <use xlink:href="#DejaVuSerif-74" x="3033.300781"/>
     <use xlink:href="#DejaVuSerif-79" x="3073.486328"/>
     <use xlink:href="#DejaVuSerif-20" x="3129.980469"/>
     <use xlink:href="#DejaVuSerif-70" x="3161.767578"/>
     <use xlink:href="#DejaVuSerif-65" x="3225.78125"/>
     <use xlink:href="#DejaVuSerif-72" x="3284.960938"/>
     <use xlink:href="#DejaVuSerif-20" x="3332.763672"/>
     <use xlink:href="#DejaVuSerif-63" x="3364.550781"/>
     <use xlink:href="#DejaVuSerif-65" x="3420.556641"/>
     <use xlink:href="#DejaVuSerif-6c" x="3479.736328"/>
     <use xlink:href="#DejaVuSerif-6c" x="3511.71875"/>
     <use xlink:href="#DejaVuSerif-20" x="3543.701172"/>
     <use xlink:href="#DejaVuSerif-74" x="3575.488281"/>
     <use xlink:href="#DejaVuSerif-79" x="3615.673828"/>
     <use xlink:href="#DejaVuSerif-70" x="3672.167969"/>
     <use xlink:href="#DejaVuSerif-65" x="3736.181641"/>
    </g>
   </g>
   <g id="legend_1">
    <g id="patch_35">
     <path d="M 762.6985 66.4275 
L 852.257875 66.4275 
Q 854.657875 66.4275 854.657875 64.0275 
L 854.657875 30 
Q 854.657875 27.6 852.257875 27.6 
L 762.6985 27.6 
Q 760.2985 27.6 760.2985 30 
L 760.2985 64.0275 
Q 760.2985 66.4275 762.6985 66.4275 
z
" style="fill: #ffffff; opacity: 0.8; stroke: #cccccc; stroke-linejoin: miter"/>
    </g>
    <g id="patch_36">
     <path d="M 765.0985 41.518125 
L 789.0985 41.518125 
L 789.0985 33.118125 
L 765.0985 33.118125 
z
" style="fill: #cb3335"/>
    </g>
    <g id="text_18">
     <!-- cellFlow -->
     <g transform="translate(798.6985 41.518125) scale(0.12 -0.12)">
      <defs>
       <path id="DejaVuSerif-46" d="M 353 0 
L 353 331 
L 947 331 
L 947 4331 
L 353 4331 
L 353 4666 
L 4172 4666 
L 4172 3628 
L 3788 3628 
L 3788 4281 
L 1581 4281 
L 1581 2719 
L 3175 2719 
L 3175 3303 
L 3559 3303 
L 3559 1753 
L 3175 1753 
L 3175 2338 
L 1581 2338 
L 1581 331 
L 2328 331 
L 2328 0 
L 353 0 
z
" transform="scale(0.015625)"/>
       <path id="DejaVuSerif-77" d="M 3072 3322 
L 3922 728 
L 4672 2988 
L 4191 2988 
L 4191 3322 
L 5394 3322 
L 5394 2988 
L 5025 2988 
L 4038 0 
L 3559 0 
L 2741 2484 
L 1919 0 
L 1459 0 
L 475 2988 
L 103 2988 
L 103 3322 
L 1606 3322 
L 1606 2988 
L 1069 2988 
L 1813 728 
L 2669 3322 
L 3072 3322 
z
" transform="scale(0.015625)"/>
      </defs>
      <use xlink:href="#DejaVuSerif-63"/>
      <use xlink:href="#DejaVuSerif-65" x="56.005859"/>
      <use xlink:href="#DejaVuSerif-6c" x="115.185547"/>
      <use xlink:href="#DejaVuSerif-6c" x="147.167969"/>
      <use xlink:href="#DejaVuSerif-46" x="179.150391"/>
      <use xlink:href="#DejaVuSerif-6c" x="248.535156"/>
      <use xlink:href="#DejaVuSerif-6f" x="280.517578"/>
      <use xlink:href="#DejaVuSerif-77" x="340.722656"/>
     </g>
    </g>
    <g id="patch_37">
     <path d="M 765.0985 59.131875 
L 789.0985 59.131875 
L 789.0985 50.731875 
L 765.0985 50.731875 
z
" style="fill: #477ca8"/>
    </g>
    <g id="text_19">
     <!-- MultiVI -->
     <g transform="translate(798.6985 59.131875) scale(0.12 -0.12)">
      <defs>
       <path id="DejaVuSerif-75" d="M 2266 3322 
L 3341 3322 
L 3341 331 
L 3884 331 
L 3884 0 
L 2766 0 
L 2766 588 
Q 2606 256 2353 82 
Q 2100 -91 1766 -91 
Q 1213 -91 952 223 
Q 691 538 691 1209 
L 691 2988 
L 172 2988 
L 172 3322 
L 1269 3322 
L 1269 1388 
Q 1269 781 1417 556 
Q 1566 331 1947 331 
Q 2347 331 2556 625 
Q 2766 919 2766 1478 
L 2766 2988 
L 2266 2988 
L 2266 3322 
z
" transform="scale(0.015625)"/>
       <path id="DejaVuSerif-56" d="M 1119 4331 
L 2497 750 
L 3872 4331 
L 3347 4331 
L 3347 4666 
L 4716 4666 
L 4716 4331 
L 4263 4331 
L 2597 0 
L 2059 0 
L 403 4331 
L -63 4331 
L -63 4666 
L 1638 4666 
L 1638 4331 
L 1119 4331 
z
" transform="scale(0.015625)"/>
      </defs>
      <use xlink:href="#DejaVuSerif-4d"/>
      <use xlink:href="#DejaVuSerif-75" x="102.392578"/>
      <use xlink:href="#DejaVuSerif-6c" x="166.796875"/>
      <use xlink:href="#DejaVuSerif-74" x="198.779297"/>
      <use xlink:href="#DejaVuSerif-69" x="238.964844"/>
      <use xlink:href="#DejaVuSerif-56" x="270.947266"/>
      <use xlink:href="#DejaVuSerif-49" x="343.164062"/>
     </g>
    </g>
   </g>
  </g>
 </g>
 <defs>
  <clipPath id="pe9aa9ae448">
   <rect x="27.43" y="27.6" width="697.97" height="80.42"/>
  </clipPath>
 </defs>
</svg>
