<?xml version="1.0" encoding="utf-8" standalone="no"?>
<!DOCTYPE svg PUBLIC "-//W3C//DTD SVG 1.1//EN"
  "http://www.w3.org/Graphics/SVG/1.1/DTD/svg11.dtd">
<svg xmlns:xlink="http://www.w3.org/1999/xlink" width="344.723437pt" height="351.91625pt" viewBox="0 0 344.723437 351.91625" xmlns="http://www.w3.org/2000/svg" version="1.1">
 <metadata>
  <rdf:RDF xmlns:dc="http://purl.org/dc/elements/1.1/" xmlns:cc="http://creativecommons.org/ns#" xmlns:rdf="http://www.w3.org/1999/02/22-rdf-syntax-ns#">
   <cc:Work>
    <dc:type rdf:resource="http://purl.org/dc/dcmitype/StillImage"/>
    <dc:date>2024-09-27T16:13:41.030358</dc:date>
    <dc:format>image/svg+xml</dc:format>
    <dc:creator>
     <cc:Agent>
      <dc:title>Matplotlib v3.8.1, https://matplotlib.org/</dc:title>
     </cc:Agent>
    </dc:creator>
   </cc:Work>
  </rdf:RDF>
 </metadata>
 <defs>
  <style type="text/css">*{stroke-linejoin: round; stroke-linecap: butt}</style>
 </defs>
 <g id="figure_1">
  <g id="patch_1">
   <path d="M -0 351.91625 
L 344.723437 351.91625 
L 344.723437 0 
L -0 0 
z
" style="fill: #ffffff"/>
  </g>
  <g id="axes_1">
   <g id="patch_2">
    <path d="M 58.523438 188.638125 
L 337.523438 188.638125 
L 337.523438 22.318125 
L 58.523438 22.318125 
z
" style="fill: #ffffff"/>
   </g>
   <g id="patch_3">
    <path d="M 0 0 
z
" clip-path="url(#pd9f7010710)" style="fill: #427fac"/>
   </g>
   <g id="patch_4">
    <path d="M 0 0 
z
" clip-path="url(#pd9f7010710)" style="fill: #78abc9"/>
   </g>
   <g id="patch_5">
    <path d="M 0 0 
z
" clip-path="url(#pd9f7010710)" style="fill: #a6c7d9"/>
   </g>
   <g id="patch_6">
    <path d="M 0 0 
z
" clip-path="url(#pd9f7010710)" style="fill: #cbdbea"/>
   </g>
   <g id="patch_7">
    <path d="M 0 0 
z
" clip-path="url(#pd9f7010710)" style="fill: #cb5e28"/>
   </g>
   <g id="patch_8">
    <path d="M 0 0 
z
" clip-path="url(#pd9f7010710)" style="fill: #e59154"/>
   </g>
   <g id="patch_9">
    <path d="M 0 0 
z
" clip-path="url(#pd9f7010710)" style="fill: #ebb07d"/>
   </g>
   <g id="patch_10">
    <path d="M 0 0 
z
" clip-path="url(#pd9f7010710)" style="fill: #f2d0ad"/>
   </g>
   <g id="patch_11">
    <path d="M 0 0 
z
" clip-path="url(#pd9f7010710)" style="fill: #3f955a"/>
   </g>
   <g id="patch_12">
    <path d="M 0 0 
z
" clip-path="url(#pd9f7010710)" style="fill: #7eba80"/>
   </g>
   <g id="patch_13">
    <path d="M 0 0 
z
" clip-path="url(#pd9f7010710)" style="fill: #a7d1a3"/>
   </g>
   <g id="patch_14">
    <path d="M 0 0 
z
" clip-path="url(#pd9f7010710)" style="fill: #cae4c5"/>
   </g>
   <g id="patch_15">
    <path d="M 0 0 
z
" clip-path="url(#pd9f7010710)" style="fill: #7b74a8"/>
   </g>
   <g id="patch_16">
    <path d="M 0 0 
z
" clip-path="url(#pd9f7010710)" style="fill: #a3a0c2"/>
   </g>
   <g id="patch_17">
    <path d="M 0 0 
z
" clip-path="url(#pd9f7010710)" style="fill: #c0c1d8"/>
   </g>
   <g id="patch_18">
    <path d="M 0 0 
z
" clip-path="url(#pd9f7010710)" style="fill: #dcdce9"/>
   </g>
   <g id="patch_19">
    <path d="M 0 0 
z
" clip-path="url(#pd9f7010710)" style="fill: #636363"/>
   </g>
   <g id="matplotlib.axis_1">
    <g id="xtick_1">
     <g id="line2d_1">
      <defs>
       <path id="m59c91c5632" d="M 0 0 
L 0 3.5 
" style="stroke: #000000; stroke-width: 0.8"/>
      </defs>
      <g>
       <use xlink:href="#m59c91c5632" x="66.72932" y="188.638125" style="stroke: #000000; stroke-width: 0.8"/>
      </g>
     </g>
     <g id="text_1">
      <!-- Joint cond. -->
      <g transform="translate(69.488695 248.402187) rotate(-90) scale(0.1 -0.1)">
       <defs>
        <path id="DejaVuSans-4a" d="M 628 4666 
L 1259 4666 
L 1259 325 
Q 1259 -519 939 -900 
Q 619 -1281 -91 -1281 
L -331 -1281 
L -331 -750 
L -134 -750 
Q 284 -750 456 -515 
Q 628 -281 628 325 
L 628 4666 
z
" transform="scale(0.015625)"/>
        <path id="DejaVuSans-6f" d="M 1959 3097 
Q 1497 3097 1228 2736 
Q 959 2375 959 1747 
Q 959 1119 1226 758 
Q 1494 397 1959 397 
Q 2419 397 2687 759 
Q 2956 1122 2956 1747 
Q 2956 2369 2687 2733 
Q 2419 3097 1959 3097 
z
M 1959 3584 
Q 2709 3584 3137 3096 
Q 3566 2609 3566 1747 
Q 3566 888 3137 398 
Q 2709 -91 1959 -91 
Q 1206 -91 779 398 
Q 353 888 353 1747 
Q 353 2609 779 3096 
Q 1206 3584 1959 3584 
z
" transform="scale(0.015625)"/>
        <path id="DejaVuSans-69" d="M 603 3500 
L 1178 3500 
L 1178 0 
L 603 0 
L 603 3500 
z
M 603 4863 
L 1178 4863 
L 1178 4134 
L 603 4134 
L 603 4863 
z
" transform="scale(0.015625)"/>
        <path id="DejaVuSans-6e" d="M 3513 2113 
L 3513 0 
L 2938 0 
L 2938 2094 
Q 2938 2591 2744 2837 
Q 2550 3084 2163 3084 
Q 1697 3084 1428 2787 
Q 1159 2491 1159 1978 
L 1159 0 
L 581 0 
L 581 3500 
L 1159 3500 
L 1159 2956 
Q 1366 3272 1645 3428 
Q 1925 3584 2291 3584 
Q 2894 3584 3203 3211 
Q 3513 2838 3513 2113 
z
" transform="scale(0.015625)"/>
        <path id="DejaVuSans-74" d="M 1172 4494 
L 1172 3500 
L 2356 3500 
L 2356 3053 
L 1172 3053 
L 1172 1153 
Q 1172 725 1289 603 
Q 1406 481 1766 481 
L 2356 481 
L 2356 0 
L 1766 0 
Q 1100 0 847 248 
Q 594 497 594 1153 
L 594 3053 
L 172 3053 
L 172 3500 
L 594 3500 
L 594 4494 
L 1172 4494 
z
" transform="scale(0.015625)"/>
        <path id="DejaVuSans-20" transform="scale(0.015625)"/>
        <path id="DejaVuSans-63" d="M 3122 3366 
L 3122 2828 
Q 2878 2963 2633 3030 
Q 2388 3097 2138 3097 
Q 1578 3097 1268 2742 
Q 959 2388 959 1747 
Q 959 1106 1268 751 
Q 1578 397 2138 397 
Q 2388 397 2633 464 
Q 2878 531 3122 666 
L 3122 134 
Q 2881 22 2623 -34 
Q 2366 -91 2075 -91 
Q 1284 -91 818 406 
Q 353 903 353 1747 
Q 353 2603 823 3093 
Q 1294 3584 2113 3584 
Q 2378 3584 2631 3529 
Q 2884 3475 3122 3366 
z
" transform="scale(0.015625)"/>
        <path id="DejaVuSans-64" d="M 2906 2969 
L 2906 4863 
L 3481 4863 
L 3481 0 
L 2906 0 
L 2906 525 
Q 2725 213 2448 61 
Q 2172 -91 1784 -91 
Q 1150 -91 751 415 
Q 353 922 353 1747 
Q 353 2572 751 3078 
Q 1150 3584 1784 3584 
Q 2172 3584 2448 3432 
Q 2725 3281 2906 2969 
z
M 947 1747 
Q 947 1113 1208 752 
Q 1469 391 1925 391 
Q 2381 391 2643 752 
Q 2906 1113 2906 1747 
Q 2906 2381 2643 2742 
Q 2381 3103 1925 3103 
Q 1469 3103 1208 2742 
Q 947 2381 947 1747 
z
" transform="scale(0.015625)"/>
        <path id="DejaVuSans-2e" d="M 684 794 
L 1344 794 
L 1344 0 
L 684 0 
L 684 794 
z
" transform="scale(0.015625)"/>
       </defs>
       <use xlink:href="#DejaVuSans-4a"/>
       <use xlink:href="#DejaVuSans-6f" x="29.492188"/>
       <use xlink:href="#DejaVuSans-69" x="90.673828"/>
       <use xlink:href="#DejaVuSans-6e" x="118.457031"/>
       <use xlink:href="#DejaVuSans-74" x="181.835938"/>
       <use xlink:href="#DejaVuSans-20" x="221.044922"/>
       <use xlink:href="#DejaVuSans-63" x="252.832031"/>
       <use xlink:href="#DejaVuSans-6f" x="307.8125"/>
       <use xlink:href="#DejaVuSans-6e" x="368.994141"/>
       <use xlink:href="#DejaVuSans-64" x="432.373047"/>
       <use xlink:href="#DejaVuSans-2e" x="495.849609"/>
      </g>
     </g>
    </g>
    <g id="xtick_2">
     <g id="line2d_2">
      <g>
       <use xlink:href="#m59c91c5632" x="83.141085" y="188.638125" style="stroke: #000000; stroke-width: 0.8"/>
      </g>
     </g>
     <g id="text_2">
      <!-- $\omega_{\mathrm{tissue}}=$1_1, $\omega_{\mathrm{mouse ID}}=$1_1 -->
      <g transform="translate(85.591085 331.038125) rotate(-90) scale(0.1 -0.1)">
       <defs>
        <path id="DejaVuSans-Oblique-3c9" d="M 1369 -91 
Q 72 -91 434 1766 
Q 575 2500 1256 3500 
L 1875 3500 
Q 1231 2500 1088 1750 
Q 819 397 1519 397 
Q 2166 397 2478 2078 
L 3009 2078 
Q 2669 388 3316 397 
Q 4013 403 4275 1750 
Q 4419 2500 4169 3500 
L 4788 3500 
Q 5075 2500 4934 1766 
Q 4578 -94 3278 -91 
Q 2428 -88 2503 844 
Q 2194 -91 1369 -91 
z
" transform="scale(0.015625)"/>
        <path id="DejaVuSans-73" d="M 2834 3397 
L 2834 2853 
Q 2591 2978 2328 3040 
Q 2066 3103 1784 3103 
Q 1356 3103 1142 2972 
Q 928 2841 928 2578 
Q 928 2378 1081 2264 
Q 1234 2150 1697 2047 
L 1894 2003 
Q 2506 1872 2764 1633 
Q 3022 1394 3022 966 
Q 3022 478 2636 193 
Q 2250 -91 1575 -91 
Q 1294 -91 989 -36 
Q 684 19 347 128 
L 347 722 
Q 666 556 975 473 
Q 1284 391 1588 391 
Q 1994 391 2212 530 
Q 2431 669 2431 922 
Q 2431 1156 2273 1281 
Q 2116 1406 1581 1522 
L 1381 1569 
Q 847 1681 609 1914 
Q 372 2147 372 2553 
Q 372 3047 722 3315 
Q 1072 3584 1716 3584 
Q 2034 3584 2315 3537 
Q 2597 3491 2834 3397 
z
" transform="scale(0.015625)"/>
        <path id="DejaVuSans-75" d="M 544 1381 
L 544 3500 
L 1119 3500 
L 1119 1403 
Q 1119 906 1312 657 
Q 1506 409 1894 409 
Q 2359 409 2629 706 
Q 2900 1003 2900 1516 
L 2900 3500 
L 3475 3500 
L 3475 0 
L 2900 0 
L 2900 538 
Q 2691 219 2414 64 
Q 2138 -91 1772 -91 
Q 1169 -91 856 284 
Q 544 659 544 1381 
z
M 1991 3584 
L 1991 3584 
z
" transform="scale(0.015625)"/>
        <path id="DejaVuSans-65" d="M 3597 1894 
L 3597 1613 
L 953 1613 
Q 991 1019 1311 708 
Q 1631 397 2203 397 
Q 2534 397 2845 478 
Q 3156 559 3463 722 
L 3463 178 
Q 3153 47 2828 -22 
Q 2503 -91 2169 -91 
Q 1331 -91 842 396 
Q 353 884 353 1716 
Q 353 2575 817 3079 
Q 1281 3584 2069 3584 
Q 2775 3584 3186 3129 
Q 3597 2675 3597 1894 
z
M 3022 2063 
Q 3016 2534 2758 2815 
Q 2500 3097 2075 3097 
Q 1594 3097 1305 2825 
Q 1016 2553 972 2059 
L 3022 2063 
z
" transform="scale(0.015625)"/>
        <path id="DejaVuSans-3d" d="M 678 2906 
L 4684 2906 
L 4684 2381 
L 678 2381 
L 678 2906 
z
M 678 1631 
L 4684 1631 
L 4684 1100 
L 678 1100 
L 678 1631 
z
" transform="scale(0.015625)"/>
        <path id="DejaVuSans-31" d="M 794 531 
L 1825 531 
L 1825 4091 
L 703 3866 
L 703 4441 
L 1819 4666 
L 2450 4666 
L 2450 531 
L 3481 531 
L 3481 0 
L 794 0 
L 794 531 
z
" transform="scale(0.015625)"/>
        <path id="DejaVuSans-5f" d="M 3263 -1063 
L 3263 -1509 
L -63 -1509 
L -63 -1063 
L 3263 -1063 
z
" transform="scale(0.015625)"/>
        <path id="DejaVuSans-2c" d="M 750 794 
L 1409 794 
L 1409 256 
L 897 -744 
L 494 -744 
L 750 256 
L 750 794 
z
" transform="scale(0.015625)"/>
        <path id="DejaVuSans-6d" d="M 3328 2828 
Q 3544 3216 3844 3400 
Q 4144 3584 4550 3584 
Q 5097 3584 5394 3201 
Q 5691 2819 5691 2113 
L 5691 0 
L 5113 0 
L 5113 2094 
Q 5113 2597 4934 2840 
Q 4756 3084 4391 3084 
Q 3944 3084 3684 2787 
Q 3425 2491 3425 1978 
L 3425 0 
L 2847 0 
L 2847 2094 
Q 2847 2600 2669 2842 
Q 2491 3084 2119 3084 
Q 1678 3084 1418 2786 
Q 1159 2488 1159 1978 
L 1159 0 
L 581 0 
L 581 3500 
L 1159 3500 
L 1159 2956 
Q 1356 3278 1631 3431 
Q 1906 3584 2284 3584 
Q 2666 3584 2933 3390 
Q 3200 3197 3328 2828 
z
" transform="scale(0.015625)"/>
        <path id="DejaVuSans-49" d="M 628 4666 
L 1259 4666 
L 1259 0 
L 628 0 
L 628 4666 
z
" transform="scale(0.015625)"/>
        <path id="DejaVuSans-44" d="M 1259 4147 
L 1259 519 
L 2022 519 
Q 2988 519 3436 956 
Q 3884 1394 3884 2338 
Q 3884 3275 3436 3711 
Q 2988 4147 2022 4147 
L 1259 4147 
z
M 628 4666 
L 1925 4666 
Q 3281 4666 3915 4102 
Q 4550 3538 4550 2338 
Q 4550 1131 3912 565 
Q 3275 0 1925 0 
L 628 0 
L 628 4666 
z
" transform="scale(0.015625)"/>
       </defs>
       <use xlink:href="#DejaVuSans-Oblique-3c9" transform="translate(0 0.09375)"/>
       <use xlink:href="#DejaVuSans-74" transform="translate(83.740234 -16.3125) scale(0.7)"/>
       <use xlink:href="#DejaVuSans-69" transform="translate(111.186523 -16.3125) scale(0.7)"/>
       <use xlink:href="#DejaVuSans-73" transform="translate(130.634766 -16.3125) scale(0.7)"/>
       <use xlink:href="#DejaVuSans-73" transform="translate(167.104492 -16.3125) scale(0.7)"/>
       <use xlink:href="#DejaVuSans-75" transform="translate(203.574219 -16.3125) scale(0.7)"/>
       <use xlink:href="#DejaVuSans-65" transform="translate(247.939453 -16.3125) scale(0.7)"/>
       <use xlink:href="#DejaVuSans-3d" transform="translate(313.222656 0.09375)"/>
       <use xlink:href="#DejaVuSans-31" transform="translate(416.494141 0.09375)"/>
       <use xlink:href="#DejaVuSans-5f" transform="translate(480.117188 0.09375)"/>
       <use xlink:href="#DejaVuSans-31" transform="translate(530.117188 0.09375)"/>
       <use xlink:href="#DejaVuSans-2c" transform="translate(593.740234 0.09375)"/>
       <use xlink:href="#DejaVuSans-20" transform="translate(625.527344 0.09375)"/>
       <use xlink:href="#DejaVuSans-Oblique-3c9" transform="translate(657.314453 0.09375)"/>
       <use xlink:href="#DejaVuSans-6d" transform="translate(741.054688 -16.3125) scale(0.7)"/>
       <use xlink:href="#DejaVuSans-6f" transform="translate(809.243164 -16.3125) scale(0.7)"/>
       <use xlink:href="#DejaVuSans-75" transform="translate(852.070312 -16.3125) scale(0.7)"/>
       <use xlink:href="#DejaVuSans-73" transform="translate(896.435547 -16.3125) scale(0.7)"/>
       <use xlink:href="#DejaVuSans-65" transform="translate(932.905273 -16.3125) scale(0.7)"/>
       <use xlink:href="#DejaVuSans-49" transform="translate(975.97168 -16.3125) scale(0.7)"/>
       <use xlink:href="#DejaVuSans-44" transform="translate(996.616211 -16.3125) scale(0.7)"/>
       <use xlink:href="#DejaVuSans-3d" transform="translate(1072.734375 0.09375)"/>
       <use xlink:href="#DejaVuSans-31" transform="translate(1176.005859 0.09375)"/>
       <use xlink:href="#DejaVuSans-5f" transform="translate(1239.628906 0.09375)"/>
       <use xlink:href="#DejaVuSans-31" transform="translate(1289.628906 0.09375)"/>
      </g>
     </g>
    </g>
    <g id="xtick_3">
     <g id="line2d_3">
      <g>
       <use xlink:href="#m59c91c5632" x="99.552849" y="188.638125" style="stroke: #000000; stroke-width: 0.8"/>
      </g>
     </g>
     <g id="text_3">
      <!-- $\omega_{\mathrm{tissue}}=$1_2, $\omega_{\mathrm{mouse ID}}=$1_2 -->
      <g transform="translate(102.102849 331.038125) rotate(-90) scale(0.1 -0.1)">
       <defs>
        <path id="DejaVuSans-32" d="M 1228 531 
L 3431 531 
L 3431 0 
L 469 0 
L 469 531 
Q 828 903 1448 1529 
Q 2069 2156 2228 2338 
Q 2531 2678 2651 2914 
Q 2772 3150 2772 3378 
Q 2772 3750 2511 3984 
Q 2250 4219 1831 4219 
Q 1534 4219 1204 4116 
Q 875 4013 500 3803 
L 500 4441 
Q 881 4594 1212 4672 
Q 1544 4750 1819 4750 
Q 2544 4750 2975 4387 
Q 3406 4025 3406 3419 
Q 3406 3131 3298 2873 
Q 3191 2616 2906 2266 
Q 2828 2175 2409 1742 
Q 1991 1309 1228 531 
z
" transform="scale(0.015625)"/>
       </defs>
       <use xlink:href="#DejaVuSans-Oblique-3c9" transform="translate(0 0.78125)"/>
       <use xlink:href="#DejaVuSans-74" transform="translate(83.740234 -15.625) scale(0.7)"/>
       <use xlink:href="#DejaVuSans-69" transform="translate(111.186523 -15.625) scale(0.7)"/>
       <use xlink:href="#DejaVuSans-73" transform="translate(130.634766 -15.625) scale(0.7)"/>
       <use xlink:href="#DejaVuSans-73" transform="translate(167.104492 -15.625) scale(0.7)"/>
       <use xlink:href="#DejaVuSans-75" transform="translate(203.574219 -15.625) scale(0.7)"/>
       <use xlink:href="#DejaVuSans-65" transform="translate(247.939453 -15.625) scale(0.7)"/>
       <use xlink:href="#DejaVuSans-3d" transform="translate(313.222656 0.78125)"/>
       <use xlink:href="#DejaVuSans-31" transform="translate(416.494141 0.78125)"/>
       <use xlink:href="#DejaVuSans-5f" transform="translate(480.117188 0.78125)"/>
       <use xlink:href="#DejaVuSans-32" transform="translate(530.117188 0.78125)"/>
       <use xlink:href="#DejaVuSans-2c" transform="translate(593.740234 0.78125)"/>
       <use xlink:href="#DejaVuSans-20" transform="translate(625.527344 0.78125)"/>
       <use xlink:href="#DejaVuSans-Oblique-3c9" transform="translate(657.314453 0.78125)"/>
       <use xlink:href="#DejaVuSans-6d" transform="translate(741.054688 -15.625) scale(0.7)"/>
       <use xlink:href="#DejaVuSans-6f" transform="translate(809.243164 -15.625) scale(0.7)"/>
       <use xlink:href="#DejaVuSans-75" transform="translate(852.070312 -15.625) scale(0.7)"/>
       <use xlink:href="#DejaVuSans-73" transform="translate(896.435547 -15.625) scale(0.7)"/>
       <use xlink:href="#DejaVuSans-65" transform="translate(932.905273 -15.625) scale(0.7)"/>
       <use xlink:href="#DejaVuSans-49" transform="translate(975.97168 -15.625) scale(0.7)"/>
       <use xlink:href="#DejaVuSans-44" transform="translate(996.616211 -15.625) scale(0.7)"/>
       <use xlink:href="#DejaVuSans-3d" transform="translate(1072.734375 0.78125)"/>
       <use xlink:href="#DejaVuSans-31" transform="translate(1176.005859 0.78125)"/>
       <use xlink:href="#DejaVuSans-5f" transform="translate(1239.628906 0.78125)"/>
       <use xlink:href="#DejaVuSans-32" transform="translate(1289.628906 0.78125)"/>
      </g>
     </g>
    </g>
    <g id="xtick_4">
     <g id="line2d_4">
      <g>
       <use xlink:href="#m59c91c5632" x="115.964614" y="188.638125" style="stroke: #000000; stroke-width: 0.8"/>
      </g>
     </g>
     <g id="text_4">
      <!-- $\omega_{\mathrm{tissue}}=$1_3, $\omega_{\mathrm{mouse ID}}=$1_3 -->
      <g transform="translate(118.514614 331.038125) rotate(-90) scale(0.1 -0.1)">
       <defs>
        <path id="DejaVuSans-33" d="M 2597 2516 
Q 3050 2419 3304 2112 
Q 3559 1806 3559 1356 
Q 3559 666 3084 287 
Q 2609 -91 1734 -91 
Q 1441 -91 1130 -33 
Q 819 25 488 141 
L 488 750 
Q 750 597 1062 519 
Q 1375 441 1716 441 
Q 2309 441 2620 675 
Q 2931 909 2931 1356 
Q 2931 1769 2642 2001 
Q 2353 2234 1838 2234 
L 1294 2234 
L 1294 2753 
L 1863 2753 
Q 2328 2753 2575 2939 
Q 2822 3125 2822 3475 
Q 2822 3834 2567 4026 
Q 2313 4219 1838 4219 
Q 1578 4219 1281 4162 
Q 984 4106 628 3988 
L 628 4550 
Q 988 4650 1302 4700 
Q 1616 4750 1894 4750 
Q 2613 4750 3031 4423 
Q 3450 4097 3450 3541 
Q 3450 3153 3228 2886 
Q 3006 2619 2597 2516 
z
" transform="scale(0.015625)"/>
       </defs>
       <use xlink:href="#DejaVuSans-Oblique-3c9" transform="translate(0 0.78125)"/>
       <use xlink:href="#DejaVuSans-74" transform="translate(83.740234 -15.625) scale(0.7)"/>
       <use xlink:href="#DejaVuSans-69" transform="translate(111.186523 -15.625) scale(0.7)"/>
       <use xlink:href="#DejaVuSans-73" transform="translate(130.634766 -15.625) scale(0.7)"/>
       <use xlink:href="#DejaVuSans-73" transform="translate(167.104492 -15.625) scale(0.7)"/>
       <use xlink:href="#DejaVuSans-75" transform="translate(203.574219 -15.625) scale(0.7)"/>
       <use xlink:href="#DejaVuSans-65" transform="translate(247.939453 -15.625) scale(0.7)"/>
       <use xlink:href="#DejaVuSans-3d" transform="translate(313.222656 0.78125)"/>
       <use xlink:href="#DejaVuSans-31" transform="translate(416.494141 0.78125)"/>
       <use xlink:href="#DejaVuSans-5f" transform="translate(480.117188 0.78125)"/>
       <use xlink:href="#DejaVuSans-33" transform="translate(530.117188 0.78125)"/>
       <use xlink:href="#DejaVuSans-2c" transform="translate(593.740234 0.78125)"/>
       <use xlink:href="#DejaVuSans-20" transform="translate(625.527344 0.78125)"/>
       <use xlink:href="#DejaVuSans-Oblique-3c9" transform="translate(657.314453 0.78125)"/>
       <use xlink:href="#DejaVuSans-6d" transform="translate(741.054688 -15.625) scale(0.7)"/>
       <use xlink:href="#DejaVuSans-6f" transform="translate(809.243164 -15.625) scale(0.7)"/>
       <use xlink:href="#DejaVuSans-75" transform="translate(852.070312 -15.625) scale(0.7)"/>
       <use xlink:href="#DejaVuSans-73" transform="translate(896.435547 -15.625) scale(0.7)"/>
       <use xlink:href="#DejaVuSans-65" transform="translate(932.905273 -15.625) scale(0.7)"/>
       <use xlink:href="#DejaVuSans-49" transform="translate(975.97168 -15.625) scale(0.7)"/>
       <use xlink:href="#DejaVuSans-44" transform="translate(996.616211 -15.625) scale(0.7)"/>
       <use xlink:href="#DejaVuSans-3d" transform="translate(1072.734375 0.78125)"/>
       <use xlink:href="#DejaVuSans-31" transform="translate(1176.005859 0.78125)"/>
       <use xlink:href="#DejaVuSans-5f" transform="translate(1239.628906 0.78125)"/>
       <use xlink:href="#DejaVuSans-33" transform="translate(1289.628906 0.78125)"/>
      </g>
     </g>
    </g>
    <g id="xtick_5">
     <g id="line2d_5">
      <g>
       <use xlink:href="#m59c91c5632" x="132.376379" y="188.638125" style="stroke: #000000; stroke-width: 0.8"/>
      </g>
     </g>
     <g id="text_5">
      <!-- $\omega_{\mathrm{tissue}}=$1_4, $\omega_{\mathrm{mouse ID}}=$1_4 -->
      <g transform="translate(134.826379 331.038125) rotate(-90) scale(0.1 -0.1)">
       <defs>
        <path id="DejaVuSans-34" d="M 2419 4116 
L 825 1625 
L 2419 1625 
L 2419 4116 
z
M 2253 4666 
L 3047 4666 
L 3047 1625 
L 3713 1625 
L 3713 1100 
L 3047 1100 
L 3047 0 
L 2419 0 
L 2419 1100 
L 313 1100 
L 313 1709 
L 2253 4666 
z
" transform="scale(0.015625)"/>
       </defs>
       <use xlink:href="#DejaVuSans-Oblique-3c9" transform="translate(0 0.09375)"/>
       <use xlink:href="#DejaVuSans-74" transform="translate(83.740234 -16.3125) scale(0.7)"/>
       <use xlink:href="#DejaVuSans-69" transform="translate(111.186523 -16.3125) scale(0.7)"/>
       <use xlink:href="#DejaVuSans-73" transform="translate(130.634766 -16.3125) scale(0.7)"/>
       <use xlink:href="#DejaVuSans-73" transform="translate(167.104492 -16.3125) scale(0.7)"/>
       <use xlink:href="#DejaVuSans-75" transform="translate(203.574219 -16.3125) scale(0.7)"/>
       <use xlink:href="#DejaVuSans-65" transform="translate(247.939453 -16.3125) scale(0.7)"/>
       <use xlink:href="#DejaVuSans-3d" transform="translate(313.222656 0.09375)"/>
       <use xlink:href="#DejaVuSans-31" transform="translate(416.494141 0.09375)"/>
       <use xlink:href="#DejaVuSans-5f" transform="translate(480.117188 0.09375)"/>
       <use xlink:href="#DejaVuSans-34" transform="translate(530.117188 0.09375)"/>
       <use xlink:href="#DejaVuSans-2c" transform="translate(593.740234 0.09375)"/>
       <use xlink:href="#DejaVuSans-20" transform="translate(625.527344 0.09375)"/>
       <use xlink:href="#DejaVuSans-Oblique-3c9" transform="translate(657.314453 0.09375)"/>
       <use xlink:href="#DejaVuSans-6d" transform="translate(741.054688 -16.3125) scale(0.7)"/>
       <use xlink:href="#DejaVuSans-6f" transform="translate(809.243164 -16.3125) scale(0.7)"/>
       <use xlink:href="#DejaVuSans-75" transform="translate(852.070312 -16.3125) scale(0.7)"/>
       <use xlink:href="#DejaVuSans-73" transform="translate(896.435547 -16.3125) scale(0.7)"/>
       <use xlink:href="#DejaVuSans-65" transform="translate(932.905273 -16.3125) scale(0.7)"/>
       <use xlink:href="#DejaVuSans-49" transform="translate(975.97168 -16.3125) scale(0.7)"/>
       <use xlink:href="#DejaVuSans-44" transform="translate(996.616211 -16.3125) scale(0.7)"/>
       <use xlink:href="#DejaVuSans-3d" transform="translate(1072.734375 0.09375)"/>
       <use xlink:href="#DejaVuSans-31" transform="translate(1176.005859 0.09375)"/>
       <use xlink:href="#DejaVuSans-5f" transform="translate(1239.628906 0.09375)"/>
       <use xlink:href="#DejaVuSans-34" transform="translate(1289.628906 0.09375)"/>
      </g>
     </g>
    </g>
    <g id="xtick_6">
     <g id="line2d_6">
      <g>
       <use xlink:href="#m59c91c5632" x="148.788143" y="188.638125" style="stroke: #000000; stroke-width: 0.8"/>
      </g>
     </g>
     <g id="text_6">
      <!-- $\omega_{\mathrm{tissue}}=$2_1, $\omega_{\mathrm{mouse ID}}=$2_1 -->
      <g transform="translate(151.338143 331.038125) rotate(-90) scale(0.1 -0.1)">
       <use xlink:href="#DejaVuSans-Oblique-3c9" transform="translate(0 0.78125)"/>
       <use xlink:href="#DejaVuSans-74" transform="translate(83.740234 -15.625) scale(0.7)"/>
       <use xlink:href="#DejaVuSans-69" transform="translate(111.186523 -15.625) scale(0.7)"/>
       <use xlink:href="#DejaVuSans-73" transform="translate(130.634766 -15.625) scale(0.7)"/>
       <use xlink:href="#DejaVuSans-73" transform="translate(167.104492 -15.625) scale(0.7)"/>
       <use xlink:href="#DejaVuSans-75" transform="translate(203.574219 -15.625) scale(0.7)"/>
       <use xlink:href="#DejaVuSans-65" transform="translate(247.939453 -15.625) scale(0.7)"/>
       <use xlink:href="#DejaVuSans-3d" transform="translate(313.222656 0.78125)"/>
       <use xlink:href="#DejaVuSans-32" transform="translate(416.494141 0.78125)"/>
       <use xlink:href="#DejaVuSans-5f" transform="translate(480.117188 0.78125)"/>
       <use xlink:href="#DejaVuSans-31" transform="translate(530.117188 0.78125)"/>
       <use xlink:href="#DejaVuSans-2c" transform="translate(593.740234 0.78125)"/>
       <use xlink:href="#DejaVuSans-20" transform="translate(625.527344 0.78125)"/>
       <use xlink:href="#DejaVuSans-Oblique-3c9" transform="translate(657.314453 0.78125)"/>
       <use xlink:href="#DejaVuSans-6d" transform="translate(741.054688 -15.625) scale(0.7)"/>
       <use xlink:href="#DejaVuSans-6f" transform="translate(809.243164 -15.625) scale(0.7)"/>
       <use xlink:href="#DejaVuSans-75" transform="translate(852.070312 -15.625) scale(0.7)"/>
       <use xlink:href="#DejaVuSans-73" transform="translate(896.435547 -15.625) scale(0.7)"/>
       <use xlink:href="#DejaVuSans-65" transform="translate(932.905273 -15.625) scale(0.7)"/>
       <use xlink:href="#DejaVuSans-49" transform="translate(975.97168 -15.625) scale(0.7)"/>
       <use xlink:href="#DejaVuSans-44" transform="translate(996.616211 -15.625) scale(0.7)"/>
       <use xlink:href="#DejaVuSans-3d" transform="translate(1072.734375 0.78125)"/>
       <use xlink:href="#DejaVuSans-32" transform="translate(1176.005859 0.78125)"/>
       <use xlink:href="#DejaVuSans-5f" transform="translate(1239.628906 0.78125)"/>
       <use xlink:href="#DejaVuSans-31" transform="translate(1289.628906 0.78125)"/>
      </g>
     </g>
    </g>
    <g id="xtick_7">
     <g id="line2d_7">
      <g>
       <use xlink:href="#m59c91c5632" x="165.199908" y="188.638125" style="stroke: #000000; stroke-width: 0.8"/>
      </g>
     </g>
     <g id="text_7">
      <!-- $\omega_{\mathrm{tissue}}=$2_2, $\omega_{\mathrm{mouse ID}}=$2_2 -->
      <g transform="translate(167.749908 331.038125) rotate(-90) scale(0.1 -0.1)">
       <use xlink:href="#DejaVuSans-Oblique-3c9" transform="translate(0 0.78125)"/>
       <use xlink:href="#DejaVuSans-74" transform="translate(83.740234 -15.625) scale(0.7)"/>
       <use xlink:href="#DejaVuSans-69" transform="translate(111.186523 -15.625) scale(0.7)"/>
       <use xlink:href="#DejaVuSans-73" transform="translate(130.634766 -15.625) scale(0.7)"/>
       <use xlink:href="#DejaVuSans-73" transform="translate(167.104492 -15.625) scale(0.7)"/>
       <use xlink:href="#DejaVuSans-75" transform="translate(203.574219 -15.625) scale(0.7)"/>
       <use xlink:href="#DejaVuSans-65" transform="translate(247.939453 -15.625) scale(0.7)"/>
       <use xlink:href="#DejaVuSans-3d" transform="translate(313.222656 0.78125)"/>
       <use xlink:href="#DejaVuSans-32" transform="translate(416.494141 0.78125)"/>
       <use xlink:href="#DejaVuSans-5f" transform="translate(480.117188 0.78125)"/>
       <use xlink:href="#DejaVuSans-32" transform="translate(530.117188 0.78125)"/>
       <use xlink:href="#DejaVuSans-2c" transform="translate(593.740234 0.78125)"/>
       <use xlink:href="#DejaVuSans-20" transform="translate(625.527344 0.78125)"/>
       <use xlink:href="#DejaVuSans-Oblique-3c9" transform="translate(657.314453 0.78125)"/>
       <use xlink:href="#DejaVuSans-6d" transform="translate(741.054688 -15.625) scale(0.7)"/>
       <use xlink:href="#DejaVuSans-6f" transform="translate(809.243164 -15.625) scale(0.7)"/>
       <use xlink:href="#DejaVuSans-75" transform="translate(852.070312 -15.625) scale(0.7)"/>
       <use xlink:href="#DejaVuSans-73" transform="translate(896.435547 -15.625) scale(0.7)"/>
       <use xlink:href="#DejaVuSans-65" transform="translate(932.905273 -15.625) scale(0.7)"/>
       <use xlink:href="#DejaVuSans-49" transform="translate(975.97168 -15.625) scale(0.7)"/>
       <use xlink:href="#DejaVuSans-44" transform="translate(996.616211 -15.625) scale(0.7)"/>
       <use xlink:href="#DejaVuSans-3d" transform="translate(1072.734375 0.78125)"/>
       <use xlink:href="#DejaVuSans-32" transform="translate(1176.005859 0.78125)"/>
       <use xlink:href="#DejaVuSans-5f" transform="translate(1239.628906 0.78125)"/>
       <use xlink:href="#DejaVuSans-32" transform="translate(1289.628906 0.78125)"/>
      </g>
     </g>
    </g>
    <g id="xtick_8">
     <g id="line2d_8">
      <g>
       <use xlink:href="#m59c91c5632" x="181.611673" y="188.638125" style="stroke: #000000; stroke-width: 0.8"/>
      </g>
     </g>
     <g id="text_8">
      <!-- $\omega_{\mathrm{tissue}}=$2_3, $\omega_{\mathrm{mouse ID}}=$2_3 -->
      <g transform="translate(184.161673 331.038125) rotate(-90) scale(0.1 -0.1)">
       <use xlink:href="#DejaVuSans-Oblique-3c9" transform="translate(0 0.78125)"/>
       <use xlink:href="#DejaVuSans-74" transform="translate(83.740234 -15.625) scale(0.7)"/>
       <use xlink:href="#DejaVuSans-69" transform="translate(111.186523 -15.625) scale(0.7)"/>
       <use xlink:href="#DejaVuSans-73" transform="translate(130.634766 -15.625) scale(0.7)"/>
       <use xlink:href="#DejaVuSans-73" transform="translate(167.104492 -15.625) scale(0.7)"/>
       <use xlink:href="#DejaVuSans-75" transform="translate(203.574219 -15.625) scale(0.7)"/>
       <use xlink:href="#DejaVuSans-65" transform="translate(247.939453 -15.625) scale(0.7)"/>
       <use xlink:href="#DejaVuSans-3d" transform="translate(313.222656 0.78125)"/>
       <use xlink:href="#DejaVuSans-32" transform="translate(416.494141 0.78125)"/>
       <use xlink:href="#DejaVuSans-5f" transform="translate(480.117188 0.78125)"/>
       <use xlink:href="#DejaVuSans-33" transform="translate(530.117188 0.78125)"/>
       <use xlink:href="#DejaVuSans-2c" transform="translate(593.740234 0.78125)"/>
       <use xlink:href="#DejaVuSans-20" transform="translate(625.527344 0.78125)"/>
       <use xlink:href="#DejaVuSans-Oblique-3c9" transform="translate(657.314453 0.78125)"/>
       <use xlink:href="#DejaVuSans-6d" transform="translate(741.054688 -15.625) scale(0.7)"/>
       <use xlink:href="#DejaVuSans-6f" transform="translate(809.243164 -15.625) scale(0.7)"/>
       <use xlink:href="#DejaVuSans-75" transform="translate(852.070312 -15.625) scale(0.7)"/>
       <use xlink:href="#DejaVuSans-73" transform="translate(896.435547 -15.625) scale(0.7)"/>
       <use xlink:href="#DejaVuSans-65" transform="translate(932.905273 -15.625) scale(0.7)"/>
       <use xlink:href="#DejaVuSans-49" transform="translate(975.97168 -15.625) scale(0.7)"/>
       <use xlink:href="#DejaVuSans-44" transform="translate(996.616211 -15.625) scale(0.7)"/>
       <use xlink:href="#DejaVuSans-3d" transform="translate(1072.734375 0.78125)"/>
       <use xlink:href="#DejaVuSans-32" transform="translate(1176.005859 0.78125)"/>
       <use xlink:href="#DejaVuSans-5f" transform="translate(1239.628906 0.78125)"/>
       <use xlink:href="#DejaVuSans-33" transform="translate(1289.628906 0.78125)"/>
      </g>
     </g>
    </g>
    <g id="xtick_9">
     <g id="line2d_9">
      <g>
       <use xlink:href="#m59c91c5632" x="198.023438" y="188.638125" style="stroke: #000000; stroke-width: 0.8"/>
      </g>
     </g>
     <g id="text_9">
      <!-- $\omega_{\mathrm{tissue}}=$2_4, $\omega_{\mathrm{mouse ID}}=$2_4 -->
      <g transform="translate(200.573437 331.038125) rotate(-90) scale(0.1 -0.1)">
       <use xlink:href="#DejaVuSans-Oblique-3c9" transform="translate(0 0.78125)"/>
       <use xlink:href="#DejaVuSans-74" transform="translate(83.740234 -15.625) scale(0.7)"/>
       <use xlink:href="#DejaVuSans-69" transform="translate(111.186523 -15.625) scale(0.7)"/>
       <use xlink:href="#DejaVuSans-73" transform="translate(130.634766 -15.625) scale(0.7)"/>
       <use xlink:href="#DejaVuSans-73" transform="translate(167.104492 -15.625) scale(0.7)"/>
       <use xlink:href="#DejaVuSans-75" transform="translate(203.574219 -15.625) scale(0.7)"/>
       <use xlink:href="#DejaVuSans-65" transform="translate(247.939453 -15.625) scale(0.7)"/>
       <use xlink:href="#DejaVuSans-3d" transform="translate(313.222656 0.78125)"/>
       <use xlink:href="#DejaVuSans-32" transform="translate(416.494141 0.78125)"/>
       <use xlink:href="#DejaVuSans-5f" transform="translate(480.117188 0.78125)"/>
       <use xlink:href="#DejaVuSans-34" transform="translate(530.117188 0.78125)"/>
       <use xlink:href="#DejaVuSans-2c" transform="translate(593.740234 0.78125)"/>
       <use xlink:href="#DejaVuSans-20" transform="translate(625.527344 0.78125)"/>
       <use xlink:href="#DejaVuSans-Oblique-3c9" transform="translate(657.314453 0.78125)"/>
       <use xlink:href="#DejaVuSans-6d" transform="translate(741.054688 -15.625) scale(0.7)"/>
       <use xlink:href="#DejaVuSans-6f" transform="translate(809.243164 -15.625) scale(0.7)"/>
       <use xlink:href="#DejaVuSans-75" transform="translate(852.070312 -15.625) scale(0.7)"/>
       <use xlink:href="#DejaVuSans-73" transform="translate(896.435547 -15.625) scale(0.7)"/>
       <use xlink:href="#DejaVuSans-65" transform="translate(932.905273 -15.625) scale(0.7)"/>
       <use xlink:href="#DejaVuSans-49" transform="translate(975.97168 -15.625) scale(0.7)"/>
       <use xlink:href="#DejaVuSans-44" transform="translate(996.616211 -15.625) scale(0.7)"/>
       <use xlink:href="#DejaVuSans-3d" transform="translate(1072.734375 0.78125)"/>
       <use xlink:href="#DejaVuSans-32" transform="translate(1176.005859 0.78125)"/>
       <use xlink:href="#DejaVuSans-5f" transform="translate(1239.628906 0.78125)"/>
       <use xlink:href="#DejaVuSans-34" transform="translate(1289.628906 0.78125)"/>
      </g>
     </g>
    </g>
    <g id="xtick_10">
     <g id="line2d_10">
      <g>
       <use xlink:href="#m59c91c5632" x="214.435202" y="188.638125" style="stroke: #000000; stroke-width: 0.8"/>
      </g>
     </g>
     <g id="text_10">
      <!-- $\omega_{\mathrm{tissue}}=$3_1, $\omega_{\mathrm{mouse ID}}=$3_1 -->
      <g transform="translate(216.985202 331.038125) rotate(-90) scale(0.1 -0.1)">
       <use xlink:href="#DejaVuSans-Oblique-3c9" transform="translate(0 0.78125)"/>
       <use xlink:href="#DejaVuSans-74" transform="translate(83.740234 -15.625) scale(0.7)"/>
       <use xlink:href="#DejaVuSans-69" transform="translate(111.186523 -15.625) scale(0.7)"/>
       <use xlink:href="#DejaVuSans-73" transform="translate(130.634766 -15.625) scale(0.7)"/>
       <use xlink:href="#DejaVuSans-73" transform="translate(167.104492 -15.625) scale(0.7)"/>
       <use xlink:href="#DejaVuSans-75" transform="translate(203.574219 -15.625) scale(0.7)"/>
       <use xlink:href="#DejaVuSans-65" transform="translate(247.939453 -15.625) scale(0.7)"/>
       <use xlink:href="#DejaVuSans-3d" transform="translate(313.222656 0.78125)"/>
       <use xlink:href="#DejaVuSans-33" transform="translate(416.494141 0.78125)"/>
       <use xlink:href="#DejaVuSans-5f" transform="translate(480.117188 0.78125)"/>
       <use xlink:href="#DejaVuSans-31" transform="translate(530.117188 0.78125)"/>
       <use xlink:href="#DejaVuSans-2c" transform="translate(593.740234 0.78125)"/>
       <use xlink:href="#DejaVuSans-20" transform="translate(625.527344 0.78125)"/>
       <use xlink:href="#DejaVuSans-Oblique-3c9" transform="translate(657.314453 0.78125)"/>
       <use xlink:href="#DejaVuSans-6d" transform="translate(741.054688 -15.625) scale(0.7)"/>
       <use xlink:href="#DejaVuSans-6f" transform="translate(809.243164 -15.625) scale(0.7)"/>
       <use xlink:href="#DejaVuSans-75" transform="translate(852.070312 -15.625) scale(0.7)"/>
       <use xlink:href="#DejaVuSans-73" transform="translate(896.435547 -15.625) scale(0.7)"/>
       <use xlink:href="#DejaVuSans-65" transform="translate(932.905273 -15.625) scale(0.7)"/>
       <use xlink:href="#DejaVuSans-49" transform="translate(975.97168 -15.625) scale(0.7)"/>
       <use xlink:href="#DejaVuSans-44" transform="translate(996.616211 -15.625) scale(0.7)"/>
       <use xlink:href="#DejaVuSans-3d" transform="translate(1072.734375 0.78125)"/>
       <use xlink:href="#DejaVuSans-33" transform="translate(1176.005859 0.78125)"/>
       <use xlink:href="#DejaVuSans-5f" transform="translate(1239.628906 0.78125)"/>
       <use xlink:href="#DejaVuSans-31" transform="translate(1289.628906 0.78125)"/>
      </g>
     </g>
    </g>
    <g id="xtick_11">
     <g id="line2d_11">
      <g>
       <use xlink:href="#m59c91c5632" x="230.846967" y="188.638125" style="stroke: #000000; stroke-width: 0.8"/>
      </g>
     </g>
     <g id="text_11">
      <!-- $\omega_{\mathrm{tissue}}=$3_2, $\omega_{\mathrm{mouse ID}}=$3_2 -->
      <g transform="translate(233.396967 331.038125) rotate(-90) scale(0.1 -0.1)">
       <use xlink:href="#DejaVuSans-Oblique-3c9" transform="translate(0 0.78125)"/>
       <use xlink:href="#DejaVuSans-74" transform="translate(83.740234 -15.625) scale(0.7)"/>
       <use xlink:href="#DejaVuSans-69" transform="translate(111.186523 -15.625) scale(0.7)"/>
       <use xlink:href="#DejaVuSans-73" transform="translate(130.634766 -15.625) scale(0.7)"/>
       <use xlink:href="#DejaVuSans-73" transform="translate(167.104492 -15.625) scale(0.7)"/>
       <use xlink:href="#DejaVuSans-75" transform="translate(203.574219 -15.625) scale(0.7)"/>
       <use xlink:href="#DejaVuSans-65" transform="translate(247.939453 -15.625) scale(0.7)"/>
       <use xlink:href="#DejaVuSans-3d" transform="translate(313.222656 0.78125)"/>
       <use xlink:href="#DejaVuSans-33" transform="translate(416.494141 0.78125)"/>
       <use xlink:href="#DejaVuSans-5f" transform="translate(480.117188 0.78125)"/>
       <use xlink:href="#DejaVuSans-32" transform="translate(530.117188 0.78125)"/>
       <use xlink:href="#DejaVuSans-2c" transform="translate(593.740234 0.78125)"/>
       <use xlink:href="#DejaVuSans-20" transform="translate(625.527344 0.78125)"/>
       <use xlink:href="#DejaVuSans-Oblique-3c9" transform="translate(657.314453 0.78125)"/>
       <use xlink:href="#DejaVuSans-6d" transform="translate(741.054688 -15.625) scale(0.7)"/>
       <use xlink:href="#DejaVuSans-6f" transform="translate(809.243164 -15.625) scale(0.7)"/>
       <use xlink:href="#DejaVuSans-75" transform="translate(852.070312 -15.625) scale(0.7)"/>
       <use xlink:href="#DejaVuSans-73" transform="translate(896.435547 -15.625) scale(0.7)"/>
       <use xlink:href="#DejaVuSans-65" transform="translate(932.905273 -15.625) scale(0.7)"/>
       <use xlink:href="#DejaVuSans-49" transform="translate(975.97168 -15.625) scale(0.7)"/>
       <use xlink:href="#DejaVuSans-44" transform="translate(996.616211 -15.625) scale(0.7)"/>
       <use xlink:href="#DejaVuSans-3d" transform="translate(1072.734375 0.78125)"/>
       <use xlink:href="#DejaVuSans-33" transform="translate(1176.005859 0.78125)"/>
       <use xlink:href="#DejaVuSans-5f" transform="translate(1239.628906 0.78125)"/>
       <use xlink:href="#DejaVuSans-32" transform="translate(1289.628906 0.78125)"/>
      </g>
     </g>
    </g>
    <g id="xtick_12">
     <g id="line2d_12">
      <g>
       <use xlink:href="#m59c91c5632" x="247.258732" y="188.638125" style="stroke: #000000; stroke-width: 0.8"/>
      </g>
     </g>
     <g id="text_12">
      <!-- $\omega_{\mathrm{tissue}}=$3_3, $\omega_{\mathrm{mouse ID}}=$3_3 -->
      <g transform="translate(249.808732 331.038125) rotate(-90) scale(0.1 -0.1)">
       <use xlink:href="#DejaVuSans-Oblique-3c9" transform="translate(0 0.78125)"/>
       <use xlink:href="#DejaVuSans-74" transform="translate(83.740234 -15.625) scale(0.7)"/>
       <use xlink:href="#DejaVuSans-69" transform="translate(111.186523 -15.625) scale(0.7)"/>
       <use xlink:href="#DejaVuSans-73" transform="translate(130.634766 -15.625) scale(0.7)"/>
       <use xlink:href="#DejaVuSans-73" transform="translate(167.104492 -15.625) scale(0.7)"/>
       <use xlink:href="#DejaVuSans-75" transform="translate(203.574219 -15.625) scale(0.7)"/>
       <use xlink:href="#DejaVuSans-65" transform="translate(247.939453 -15.625) scale(0.7)"/>
       <use xlink:href="#DejaVuSans-3d" transform="translate(313.222656 0.78125)"/>
       <use xlink:href="#DejaVuSans-33" transform="translate(416.494141 0.78125)"/>
       <use xlink:href="#DejaVuSans-5f" transform="translate(480.117188 0.78125)"/>
       <use xlink:href="#DejaVuSans-33" transform="translate(530.117188 0.78125)"/>
       <use xlink:href="#DejaVuSans-2c" transform="translate(593.740234 0.78125)"/>
       <use xlink:href="#DejaVuSans-20" transform="translate(625.527344 0.78125)"/>
       <use xlink:href="#DejaVuSans-Oblique-3c9" transform="translate(657.314453 0.78125)"/>
       <use xlink:href="#DejaVuSans-6d" transform="translate(741.054688 -15.625) scale(0.7)"/>
       <use xlink:href="#DejaVuSans-6f" transform="translate(809.243164 -15.625) scale(0.7)"/>
       <use xlink:href="#DejaVuSans-75" transform="translate(852.070312 -15.625) scale(0.7)"/>
       <use xlink:href="#DejaVuSans-73" transform="translate(896.435547 -15.625) scale(0.7)"/>
       <use xlink:href="#DejaVuSans-65" transform="translate(932.905273 -15.625) scale(0.7)"/>
       <use xlink:href="#DejaVuSans-49" transform="translate(975.97168 -15.625) scale(0.7)"/>
       <use xlink:href="#DejaVuSans-44" transform="translate(996.616211 -15.625) scale(0.7)"/>
       <use xlink:href="#DejaVuSans-3d" transform="translate(1072.734375 0.78125)"/>
       <use xlink:href="#DejaVuSans-33" transform="translate(1176.005859 0.78125)"/>
       <use xlink:href="#DejaVuSans-5f" transform="translate(1239.628906 0.78125)"/>
       <use xlink:href="#DejaVuSans-33" transform="translate(1289.628906 0.78125)"/>
      </g>
     </g>
    </g>
    <g id="xtick_13">
     <g id="line2d_13">
      <g>
       <use xlink:href="#m59c91c5632" x="263.670496" y="188.638125" style="stroke: #000000; stroke-width: 0.8"/>
      </g>
     </g>
     <g id="text_13">
      <!-- $\omega_{\mathrm{tissue}}=$3_4, $\omega_{\mathrm{mouse ID}}=$3_4 -->
      <g transform="translate(266.220496 331.038125) rotate(-90) scale(0.1 -0.1)">
       <use xlink:href="#DejaVuSans-Oblique-3c9" transform="translate(0 0.78125)"/>
       <use xlink:href="#DejaVuSans-74" transform="translate(83.740234 -15.625) scale(0.7)"/>
       <use xlink:href="#DejaVuSans-69" transform="translate(111.186523 -15.625) scale(0.7)"/>
       <use xlink:href="#DejaVuSans-73" transform="translate(130.634766 -15.625) scale(0.7)"/>
       <use xlink:href="#DejaVuSans-73" transform="translate(167.104492 -15.625) scale(0.7)"/>
       <use xlink:href="#DejaVuSans-75" transform="translate(203.574219 -15.625) scale(0.7)"/>
       <use xlink:href="#DejaVuSans-65" transform="translate(247.939453 -15.625) scale(0.7)"/>
       <use xlink:href="#DejaVuSans-3d" transform="translate(313.222656 0.78125)"/>
       <use xlink:href="#DejaVuSans-33" transform="translate(416.494141 0.78125)"/>
       <use xlink:href="#DejaVuSans-5f" transform="translate(480.117188 0.78125)"/>
       <use xlink:href="#DejaVuSans-34" transform="translate(530.117188 0.78125)"/>
       <use xlink:href="#DejaVuSans-2c" transform="translate(593.740234 0.78125)"/>
       <use xlink:href="#DejaVuSans-20" transform="translate(625.527344 0.78125)"/>
       <use xlink:href="#DejaVuSans-Oblique-3c9" transform="translate(657.314453 0.78125)"/>
       <use xlink:href="#DejaVuSans-6d" transform="translate(741.054688 -15.625) scale(0.7)"/>
       <use xlink:href="#DejaVuSans-6f" transform="translate(809.243164 -15.625) scale(0.7)"/>
       <use xlink:href="#DejaVuSans-75" transform="translate(852.070312 -15.625) scale(0.7)"/>
       <use xlink:href="#DejaVuSans-73" transform="translate(896.435547 -15.625) scale(0.7)"/>
       <use xlink:href="#DejaVuSans-65" transform="translate(932.905273 -15.625) scale(0.7)"/>
       <use xlink:href="#DejaVuSans-49" transform="translate(975.97168 -15.625) scale(0.7)"/>
       <use xlink:href="#DejaVuSans-44" transform="translate(996.616211 -15.625) scale(0.7)"/>
       <use xlink:href="#DejaVuSans-3d" transform="translate(1072.734375 0.78125)"/>
       <use xlink:href="#DejaVuSans-33" transform="translate(1176.005859 0.78125)"/>
       <use xlink:href="#DejaVuSans-5f" transform="translate(1239.628906 0.78125)"/>
       <use xlink:href="#DejaVuSans-34" transform="translate(1289.628906 0.78125)"/>
      </g>
     </g>
    </g>
    <g id="xtick_14">
     <g id="line2d_14">
      <g>
       <use xlink:href="#m59c91c5632" x="280.082261" y="188.638125" style="stroke: #000000; stroke-width: 0.8"/>
      </g>
     </g>
     <g id="text_14">
      <!-- $\omega_{\mathrm{tissue}}=$4_1, $\omega_{\mathrm{mouse ID}}=$4_1 -->
      <g transform="translate(282.532261 331.038125) rotate(-90) scale(0.1 -0.1)">
       <use xlink:href="#DejaVuSans-Oblique-3c9" transform="translate(0 0.09375)"/>
       <use xlink:href="#DejaVuSans-74" transform="translate(83.740234 -16.3125) scale(0.7)"/>
       <use xlink:href="#DejaVuSans-69" transform="translate(111.186523 -16.3125) scale(0.7)"/>
       <use xlink:href="#DejaVuSans-73" transform="translate(130.634766 -16.3125) scale(0.7)"/>
       <use xlink:href="#DejaVuSans-73" transform="translate(167.104492 -16.3125) scale(0.7)"/>
       <use xlink:href="#DejaVuSans-75" transform="translate(203.574219 -16.3125) scale(0.7)"/>
       <use xlink:href="#DejaVuSans-65" transform="translate(247.939453 -16.3125) scale(0.7)"/>
       <use xlink:href="#DejaVuSans-3d" transform="translate(313.222656 0.09375)"/>
       <use xlink:href="#DejaVuSans-34" transform="translate(416.494141 0.09375)"/>
       <use xlink:href="#DejaVuSans-5f" transform="translate(480.117188 0.09375)"/>
       <use xlink:href="#DejaVuSans-31" transform="translate(530.117188 0.09375)"/>
       <use xlink:href="#DejaVuSans-2c" transform="translate(593.740234 0.09375)"/>
       <use xlink:href="#DejaVuSans-20" transform="translate(625.527344 0.09375)"/>
       <use xlink:href="#DejaVuSans-Oblique-3c9" transform="translate(657.314453 0.09375)"/>
       <use xlink:href="#DejaVuSans-6d" transform="translate(741.054688 -16.3125) scale(0.7)"/>
       <use xlink:href="#DejaVuSans-6f" transform="translate(809.243164 -16.3125) scale(0.7)"/>
       <use xlink:href="#DejaVuSans-75" transform="translate(852.070312 -16.3125) scale(0.7)"/>
       <use xlink:href="#DejaVuSans-73" transform="translate(896.435547 -16.3125) scale(0.7)"/>
       <use xlink:href="#DejaVuSans-65" transform="translate(932.905273 -16.3125) scale(0.7)"/>
       <use xlink:href="#DejaVuSans-49" transform="translate(975.97168 -16.3125) scale(0.7)"/>
       <use xlink:href="#DejaVuSans-44" transform="translate(996.616211 -16.3125) scale(0.7)"/>
       <use xlink:href="#DejaVuSans-3d" transform="translate(1072.734375 0.09375)"/>
       <use xlink:href="#DejaVuSans-34" transform="translate(1176.005859 0.09375)"/>
       <use xlink:href="#DejaVuSans-5f" transform="translate(1239.628906 0.09375)"/>
       <use xlink:href="#DejaVuSans-31" transform="translate(1289.628906 0.09375)"/>
      </g>
     </g>
    </g>
    <g id="xtick_15">
     <g id="line2d_15">
      <g>
       <use xlink:href="#m59c91c5632" x="296.494026" y="188.638125" style="stroke: #000000; stroke-width: 0.8"/>
      </g>
     </g>
     <g id="text_15">
      <!-- $\omega_{\mathrm{tissue}}=$4_2, $\omega_{\mathrm{mouse ID}}=$4_2 -->
      <g transform="translate(299.044026 331.038125) rotate(-90) scale(0.1 -0.1)">
       <use xlink:href="#DejaVuSans-Oblique-3c9" transform="translate(0 0.78125)"/>
       <use xlink:href="#DejaVuSans-74" transform="translate(83.740234 -15.625) scale(0.7)"/>
       <use xlink:href="#DejaVuSans-69" transform="translate(111.186523 -15.625) scale(0.7)"/>
       <use xlink:href="#DejaVuSans-73" transform="translate(130.634766 -15.625) scale(0.7)"/>
       <use xlink:href="#DejaVuSans-73" transform="translate(167.104492 -15.625) scale(0.7)"/>
       <use xlink:href="#DejaVuSans-75" transform="translate(203.574219 -15.625) scale(0.7)"/>
       <use xlink:href="#DejaVuSans-65" transform="translate(247.939453 -15.625) scale(0.7)"/>
       <use xlink:href="#DejaVuSans-3d" transform="translate(313.222656 0.78125)"/>
       <use xlink:href="#DejaVuSans-34" transform="translate(416.494141 0.78125)"/>
       <use xlink:href="#DejaVuSans-5f" transform="translate(480.117188 0.78125)"/>
       <use xlink:href="#DejaVuSans-32" transform="translate(530.117188 0.78125)"/>
       <use xlink:href="#DejaVuSans-2c" transform="translate(593.740234 0.78125)"/>
       <use xlink:href="#DejaVuSans-20" transform="translate(625.527344 0.78125)"/>
       <use xlink:href="#DejaVuSans-Oblique-3c9" transform="translate(657.314453 0.78125)"/>
       <use xlink:href="#DejaVuSans-6d" transform="translate(741.054688 -15.625) scale(0.7)"/>
       <use xlink:href="#DejaVuSans-6f" transform="translate(809.243164 -15.625) scale(0.7)"/>
       <use xlink:href="#DejaVuSans-75" transform="translate(852.070312 -15.625) scale(0.7)"/>
       <use xlink:href="#DejaVuSans-73" transform="translate(896.435547 -15.625) scale(0.7)"/>
       <use xlink:href="#DejaVuSans-65" transform="translate(932.905273 -15.625) scale(0.7)"/>
       <use xlink:href="#DejaVuSans-49" transform="translate(975.97168 -15.625) scale(0.7)"/>
       <use xlink:href="#DejaVuSans-44" transform="translate(996.616211 -15.625) scale(0.7)"/>
       <use xlink:href="#DejaVuSans-3d" transform="translate(1072.734375 0.78125)"/>
       <use xlink:href="#DejaVuSans-34" transform="translate(1176.005859 0.78125)"/>
       <use xlink:href="#DejaVuSans-5f" transform="translate(1239.628906 0.78125)"/>
       <use xlink:href="#DejaVuSans-32" transform="translate(1289.628906 0.78125)"/>
      </g>
     </g>
    </g>
    <g id="xtick_16">
     <g id="line2d_16">
      <g>
       <use xlink:href="#m59c91c5632" x="312.90579" y="188.638125" style="stroke: #000000; stroke-width: 0.8"/>
      </g>
     </g>
     <g id="text_16">
      <!-- $\omega_{\mathrm{tissue}}=$4_3, $\omega_{\mathrm{mouse ID}}=$4_3 -->
      <g transform="translate(315.45579 331.038125) rotate(-90) scale(0.1 -0.1)">
       <use xlink:href="#DejaVuSans-Oblique-3c9" transform="translate(0 0.78125)"/>
       <use xlink:href="#DejaVuSans-74" transform="translate(83.740234 -15.625) scale(0.7)"/>
       <use xlink:href="#DejaVuSans-69" transform="translate(111.186523 -15.625) scale(0.7)"/>
       <use xlink:href="#DejaVuSans-73" transform="translate(130.634766 -15.625) scale(0.7)"/>
       <use xlink:href="#DejaVuSans-73" transform="translate(167.104492 -15.625) scale(0.7)"/>
       <use xlink:href="#DejaVuSans-75" transform="translate(203.574219 -15.625) scale(0.7)"/>
       <use xlink:href="#DejaVuSans-65" transform="translate(247.939453 -15.625) scale(0.7)"/>
       <use xlink:href="#DejaVuSans-3d" transform="translate(313.222656 0.78125)"/>
       <use xlink:href="#DejaVuSans-34" transform="translate(416.494141 0.78125)"/>
       <use xlink:href="#DejaVuSans-5f" transform="translate(480.117188 0.78125)"/>
       <use xlink:href="#DejaVuSans-33" transform="translate(530.117188 0.78125)"/>
       <use xlink:href="#DejaVuSans-2c" transform="translate(593.740234 0.78125)"/>
       <use xlink:href="#DejaVuSans-20" transform="translate(625.527344 0.78125)"/>
       <use xlink:href="#DejaVuSans-Oblique-3c9" transform="translate(657.314453 0.78125)"/>
       <use xlink:href="#DejaVuSans-6d" transform="translate(741.054688 -15.625) scale(0.7)"/>
       <use xlink:href="#DejaVuSans-6f" transform="translate(809.243164 -15.625) scale(0.7)"/>
       <use xlink:href="#DejaVuSans-75" transform="translate(852.070312 -15.625) scale(0.7)"/>
       <use xlink:href="#DejaVuSans-73" transform="translate(896.435547 -15.625) scale(0.7)"/>
       <use xlink:href="#DejaVuSans-65" transform="translate(932.905273 -15.625) scale(0.7)"/>
       <use xlink:href="#DejaVuSans-49" transform="translate(975.97168 -15.625) scale(0.7)"/>
       <use xlink:href="#DejaVuSans-44" transform="translate(996.616211 -15.625) scale(0.7)"/>
       <use xlink:href="#DejaVuSans-3d" transform="translate(1072.734375 0.78125)"/>
       <use xlink:href="#DejaVuSans-34" transform="translate(1176.005859 0.78125)"/>
       <use xlink:href="#DejaVuSans-5f" transform="translate(1239.628906 0.78125)"/>
       <use xlink:href="#DejaVuSans-33" transform="translate(1289.628906 0.78125)"/>
      </g>
     </g>
    </g>
    <g id="xtick_17">
     <g id="line2d_17">
      <g>
       <use xlink:href="#m59c91c5632" x="329.317555" y="188.638125" style="stroke: #000000; stroke-width: 0.8"/>
      </g>
     </g>
     <g id="text_17">
      <!-- $\omega_{\mathrm{tissue}}=$4_4, $\omega_{\mathrm{mouse ID}}=$4_4 -->
      <g transform="translate(331.767555 331.038125) rotate(-90) scale(0.1 -0.1)">
       <use xlink:href="#DejaVuSans-Oblique-3c9" transform="translate(0 0.09375)"/>
       <use xlink:href="#DejaVuSans-74" transform="translate(83.740234 -16.3125) scale(0.7)"/>
       <use xlink:href="#DejaVuSans-69" transform="translate(111.186523 -16.3125) scale(0.7)"/>
       <use xlink:href="#DejaVuSans-73" transform="translate(130.634766 -16.3125) scale(0.7)"/>
       <use xlink:href="#DejaVuSans-73" transform="translate(167.104492 -16.3125) scale(0.7)"/>
       <use xlink:href="#DejaVuSans-75" transform="translate(203.574219 -16.3125) scale(0.7)"/>
       <use xlink:href="#DejaVuSans-65" transform="translate(247.939453 -16.3125) scale(0.7)"/>
       <use xlink:href="#DejaVuSans-3d" transform="translate(313.222656 0.09375)"/>
       <use xlink:href="#DejaVuSans-34" transform="translate(416.494141 0.09375)"/>
       <use xlink:href="#DejaVuSans-5f" transform="translate(480.117188 0.09375)"/>
       <use xlink:href="#DejaVuSans-34" transform="translate(530.117188 0.09375)"/>
       <use xlink:href="#DejaVuSans-2c" transform="translate(593.740234 0.09375)"/>
       <use xlink:href="#DejaVuSans-20" transform="translate(625.527344 0.09375)"/>
       <use xlink:href="#DejaVuSans-Oblique-3c9" transform="translate(657.314453 0.09375)"/>
       <use xlink:href="#DejaVuSans-6d" transform="translate(741.054688 -16.3125) scale(0.7)"/>
       <use xlink:href="#DejaVuSans-6f" transform="translate(809.243164 -16.3125) scale(0.7)"/>
       <use xlink:href="#DejaVuSans-75" transform="translate(852.070312 -16.3125) scale(0.7)"/>
       <use xlink:href="#DejaVuSans-73" transform="translate(896.435547 -16.3125) scale(0.7)"/>
       <use xlink:href="#DejaVuSans-65" transform="translate(932.905273 -16.3125) scale(0.7)"/>
       <use xlink:href="#DejaVuSans-49" transform="translate(975.97168 -16.3125) scale(0.7)"/>
       <use xlink:href="#DejaVuSans-44" transform="translate(996.616211 -16.3125) scale(0.7)"/>
       <use xlink:href="#DejaVuSans-3d" transform="translate(1072.734375 0.09375)"/>
       <use xlink:href="#DejaVuSans-34" transform="translate(1176.005859 0.09375)"/>
       <use xlink:href="#DejaVuSans-5f" transform="translate(1239.628906 0.09375)"/>
       <use xlink:href="#DejaVuSans-34" transform="translate(1289.628906 0.09375)"/>
      </g>
     </g>
    </g>
    <g id="text_18">
     <!-- Guidance weights -->
     <g transform="translate(153.307031 342.636563) scale(0.1 -0.1)">
      <defs>
       <path id="DejaVuSans-47" d="M 3809 666 
L 3809 1919 
L 2778 1919 
L 2778 2438 
L 4434 2438 
L 4434 434 
Q 4069 175 3628 42 
Q 3188 -91 2688 -91 
Q 1594 -91 976 548 
Q 359 1188 359 2328 
Q 359 3472 976 4111 
Q 1594 4750 2688 4750 
Q 3144 4750 3555 4637 
Q 3966 4525 4313 4306 
L 4313 3634 
Q 3963 3931 3569 4081 
Q 3175 4231 2741 4231 
Q 1884 4231 1454 3753 
Q 1025 3275 1025 2328 
Q 1025 1384 1454 906 
Q 1884 428 2741 428 
Q 3075 428 3337 486 
Q 3600 544 3809 666 
z
" transform="scale(0.015625)"/>
       <path id="DejaVuSans-61" d="M 2194 1759 
Q 1497 1759 1228 1600 
Q 959 1441 959 1056 
Q 959 750 1161 570 
Q 1363 391 1709 391 
Q 2188 391 2477 730 
Q 2766 1069 2766 1631 
L 2766 1759 
L 2194 1759 
z
M 3341 1997 
L 3341 0 
L 2766 0 
L 2766 531 
Q 2569 213 2275 61 
Q 1981 -91 1556 -91 
Q 1019 -91 701 211 
Q 384 513 384 1019 
Q 384 1609 779 1909 
Q 1175 2209 1959 2209 
L 2766 2209 
L 2766 2266 
Q 2766 2663 2505 2880 
Q 2244 3097 1772 3097 
Q 1472 3097 1187 3025 
Q 903 2953 641 2809 
L 641 3341 
Q 956 3463 1253 3523 
Q 1550 3584 1831 3584 
Q 2591 3584 2966 3190 
Q 3341 2797 3341 1997 
z
" transform="scale(0.015625)"/>
       <path id="DejaVuSans-77" d="M 269 3500 
L 844 3500 
L 1563 769 
L 2278 3500 
L 2956 3500 
L 3675 769 
L 4391 3500 
L 4966 3500 
L 4050 0 
L 3372 0 
L 2619 2869 
L 1863 0 
L 1184 0 
L 269 3500 
z
" transform="scale(0.015625)"/>
       <path id="DejaVuSans-67" d="M 2906 1791 
Q 2906 2416 2648 2759 
Q 2391 3103 1925 3103 
Q 1463 3103 1205 2759 
Q 947 2416 947 1791 
Q 947 1169 1205 825 
Q 1463 481 1925 481 
Q 2391 481 2648 825 
Q 2906 1169 2906 1791 
z
M 3481 434 
Q 3481 -459 3084 -895 
Q 2688 -1331 1869 -1331 
Q 1566 -1331 1297 -1286 
Q 1028 -1241 775 -1147 
L 775 -588 
Q 1028 -725 1275 -790 
Q 1522 -856 1778 -856 
Q 2344 -856 2625 -561 
Q 2906 -266 2906 331 
L 2906 616 
Q 2728 306 2450 153 
Q 2172 0 1784 0 
Q 1141 0 747 490 
Q 353 981 353 1791 
Q 353 2603 747 3093 
Q 1141 3584 1784 3584 
Q 2172 3584 2450 3431 
Q 2728 3278 2906 2969 
L 2906 3500 
L 3481 3500 
L 3481 434 
z
" transform="scale(0.015625)"/>
       <path id="DejaVuSans-68" d="M 3513 2113 
L 3513 0 
L 2938 0 
L 2938 2094 
Q 2938 2591 2744 2837 
Q 2550 3084 2163 3084 
Q 1697 3084 1428 2787 
Q 1159 2491 1159 1978 
L 1159 0 
L 581 0 
L 581 4863 
L 1159 4863 
L 1159 2956 
Q 1366 3272 1645 3428 
Q 1925 3584 2291 3584 
Q 2894 3584 3203 3211 
Q 3513 2838 3513 2113 
z
" transform="scale(0.015625)"/>
      </defs>
      <use xlink:href="#DejaVuSans-47"/>
      <use xlink:href="#DejaVuSans-75" x="77.490234"/>
      <use xlink:href="#DejaVuSans-69" x="140.869141"/>
      <use xlink:href="#DejaVuSans-64" x="168.652344"/>
      <use xlink:href="#DejaVuSans-61" x="232.128906"/>
      <use xlink:href="#DejaVuSans-6e" x="293.408203"/>
      <use xlink:href="#DejaVuSans-63" x="356.787109"/>
      <use xlink:href="#DejaVuSans-65" x="411.767578"/>
      <use xlink:href="#DejaVuSans-20" x="473.291016"/>
      <use xlink:href="#DejaVuSans-77" x="505.078125"/>
      <use xlink:href="#DejaVuSans-65" x="586.865234"/>
      <use xlink:href="#DejaVuSans-69" x="648.388672"/>
      <use xlink:href="#DejaVuSans-67" x="676.171875"/>
      <use xlink:href="#DejaVuSans-68" x="739.648438"/>
      <use xlink:href="#DejaVuSans-74" x="803.027344"/>
      <use xlink:href="#DejaVuSans-73" x="842.236328"/>
     </g>
    </g>
   </g>
   <g id="matplotlib.axis_2">
    <g id="ytick_1">
     <g id="line2d_18">
      <defs>
       <path id="m95acd79abf" d="M 0 0 
L -3.5 0 
" style="stroke: #000000; stroke-width: 0.8"/>
      </defs>
      <g>
       <use xlink:href="#m95acd79abf" x="58.523438" y="165.958125" style="stroke: #000000; stroke-width: 0.8"/>
      </g>
     </g>
     <g id="text_19">
      <!-- 0.04 -->
      <g transform="translate(20.878125 169.757344) scale(0.1 -0.1)">
       <defs>
        <path id="DejaVuSans-2212" d="M 678 2272 
L 4684 2272 
L 4684 1741 
L 678 1741 
L 678 2272 
z
" transform="scale(0.015625)"/>
        <path id="DejaVuSans-30" d="M 2034 4250 
Q 1547 4250 1301 3770 
Q 1056 3291 1056 2328 
Q 1056 1369 1301 889 
Q 1547 409 2034 409 
Q 2525 409 2770 889 
Q 3016 1369 3016 2328 
Q 3016 3291 2770 3770 
Q 2525 4250 2034 4250 
z
M 2034 4750 
Q 2819 4750 3233 4129 
Q 3647 3509 3647 2328 
Q 3647 1150 3233 529 
Q 2819 -91 2034 -91 
Q 1250 -91 836 529 
Q 422 1150 422 2328 
Q 422 3509 836 4129 
Q 1250 4750 2034 4750 
z
" transform="scale(0.015625)"/>
       </defs>
       <use xlink:href="#DejaVuSans-2212"/>
       <use xlink:href="#DejaVuSans-30" x="83.789062"/>
       <use xlink:href="#DejaVuSans-2e" x="147.412109"/>
       <use xlink:href="#DejaVuSans-30" x="179.199219"/>
       <use xlink:href="#DejaVuSans-34" x="242.822266"/>
      </g>
     </g>
    </g>
    <g id="ytick_2">
     <g id="line2d_19">
      <g>
       <use xlink:href="#m95acd79abf" x="58.523438" y="135.718125" style="stroke: #000000; stroke-width: 0.8"/>
      </g>
     </g>
     <g id="text_20">
      <!-- 0.02 -->
      <g transform="translate(20.878125 139.517344) scale(0.1 -0.1)">
       <use xlink:href="#DejaVuSans-2212"/>
       <use xlink:href="#DejaVuSans-30" x="83.789062"/>
       <use xlink:href="#DejaVuSans-2e" x="147.412109"/>
       <use xlink:href="#DejaVuSans-30" x="179.199219"/>
       <use xlink:href="#DejaVuSans-32" x="242.822266"/>
      </g>
     </g>
    </g>
    <g id="ytick_3">
     <g id="line2d_20">
      <g>
       <use xlink:href="#m95acd79abf" x="58.523438" y="105.478125" style="stroke: #000000; stroke-width: 0.8"/>
      </g>
     </g>
     <g id="text_21">
      <!-- 0.00 -->
      <g transform="translate(29.257813 109.277344) scale(0.1 -0.1)">
       <use xlink:href="#DejaVuSans-30"/>
       <use xlink:href="#DejaVuSans-2e" x="63.623047"/>
       <use xlink:href="#DejaVuSans-30" x="95.410156"/>
       <use xlink:href="#DejaVuSans-30" x="159.033203"/>
      </g>
     </g>
    </g>
    <g id="ytick_4">
     <g id="line2d_21">
      <g>
       <use xlink:href="#m95acd79abf" x="58.523438" y="75.238125" style="stroke: #000000; stroke-width: 0.8"/>
      </g>
     </g>
     <g id="text_22">
      <!-- 0.02 -->
      <g transform="translate(29.257813 79.037344) scale(0.1 -0.1)">
       <use xlink:href="#DejaVuSans-30"/>
       <use xlink:href="#DejaVuSans-2e" x="63.623047"/>
       <use xlink:href="#DejaVuSans-30" x="95.410156"/>
       <use xlink:href="#DejaVuSans-32" x="159.033203"/>
      </g>
     </g>
    </g>
    <g id="ytick_5">
     <g id="line2d_22">
      <g>
       <use xlink:href="#m95acd79abf" x="58.523438" y="44.998125" style="stroke: #000000; stroke-width: 0.8"/>
      </g>
     </g>
     <g id="text_23">
      <!-- 0.04 -->
      <g transform="translate(29.257813 48.797344) scale(0.1 -0.1)">
       <use xlink:href="#DejaVuSans-30"/>
       <use xlink:href="#DejaVuSans-2e" x="63.623047"/>
       <use xlink:href="#DejaVuSans-30" x="95.410156"/>
       <use xlink:href="#DejaVuSans-34" x="159.033203"/>
      </g>
     </g>
    </g>
    <g id="text_24">
     <!-- Value ($\downarrow)$ -->
     <g transform="translate(14.798438 131.228125) rotate(-90) scale(0.1 -0.1)">
      <defs>
       <path id="DejaVuSans-56" d="M 1831 0 
L 50 4666 
L 709 4666 
L 2188 738 
L 3669 4666 
L 4325 4666 
L 2547 0 
L 1831 0 
z
" transform="scale(0.015625)"/>
       <path id="DejaVuSans-6c" d="M 603 4863 
L 1178 4863 
L 1178 0 
L 603 0 
L 603 4863 
z
" transform="scale(0.015625)"/>
       <path id="DejaVuSans-28" d="M 1984 4856 
Q 1566 4138 1362 3434 
Q 1159 2731 1159 2009 
Q 1159 1288 1364 580 
Q 1569 -128 1984 -844 
L 1484 -844 
Q 1016 -109 783 600 
Q 550 1309 550 2009 
Q 550 2706 781 3412 
Q 1013 4119 1484 4856 
L 1984 4856 
z
" transform="scale(0.015625)"/>
       <path id="DejaVuSans-2193" d="M 2822 -22 
L 2541 -22 
L 1309 1209 
L 1684 1584 
L 2416 853 
L 2416 4666 
L 2947 4666 
L 2947 853 
L 3672 1584 
L 4047 1209 
L 2822 -22 
z
" transform="scale(0.015625)"/>
       <path id="DejaVuSans-29" d="M 513 4856 
L 1013 4856 
Q 1481 4119 1714 3412 
Q 1947 2706 1947 2009 
Q 1947 1309 1714 600 
Q 1481 -109 1013 -844 
L 513 -844 
Q 928 -128 1133 580 
Q 1338 1288 1338 2009 
Q 1338 2731 1133 3434 
Q 928 4138 513 4856 
z
" transform="scale(0.015625)"/>
      </defs>
      <use xlink:href="#DejaVuSans-56" transform="translate(0 0.015625)"/>
      <use xlink:href="#DejaVuSans-61" transform="translate(68.408203 0.015625)"/>
      <use xlink:href="#DejaVuSans-6c" transform="translate(129.6875 0.015625)"/>
      <use xlink:href="#DejaVuSans-75" transform="translate(157.470703 0.015625)"/>
      <use xlink:href="#DejaVuSans-65" transform="translate(220.849609 0.015625)"/>
      <use xlink:href="#DejaVuSans-20" transform="translate(282.373047 0.015625)"/>
      <use xlink:href="#DejaVuSans-28" transform="translate(314.160156 0.015625)"/>
      <use xlink:href="#DejaVuSans-2193" transform="translate(372.65625 0.015625)"/>
      <use xlink:href="#DejaVuSans-29" transform="translate(475.927734 0.015625)"/>
     </g>
    </g>
   </g>
   <g id="line2d_23">
    <path clip-path="url(#pd9f7010710)" style="fill: none; stroke: #424242; stroke-width: 2.7; stroke-linecap: square"/>
   </g>
   <g id="line2d_24">
    <path clip-path="url(#pd9f7010710)" style="fill: none; stroke: #424242; stroke-width: 2.7; stroke-linecap: square"/>
   </g>
   <g id="line2d_25">
    <path clip-path="url(#pd9f7010710)" style="fill: none; stroke: #424242; stroke-width: 2.7; stroke-linecap: square"/>
   </g>
   <g id="line2d_26">
    <path clip-path="url(#pd9f7010710)" style="fill: none; stroke: #424242; stroke-width: 2.7; stroke-linecap: square"/>
   </g>
   <g id="line2d_27">
    <path clip-path="url(#pd9f7010710)" style="fill: none; stroke: #424242; stroke-width: 2.7; stroke-linecap: square"/>
   </g>
   <g id="line2d_28">
    <path clip-path="url(#pd9f7010710)" style="fill: none; stroke: #424242; stroke-width: 2.7; stroke-linecap: square"/>
   </g>
   <g id="line2d_29">
    <path clip-path="url(#pd9f7010710)" style="fill: none; stroke: #424242; stroke-width: 2.7; stroke-linecap: square"/>
   </g>
   <g id="line2d_30">
    <path clip-path="url(#pd9f7010710)" style="fill: none; stroke: #424242; stroke-width: 2.7; stroke-linecap: square"/>
   </g>
   <g id="line2d_31">
    <path clip-path="url(#pd9f7010710)" style="fill: none; stroke: #424242; stroke-width: 2.7; stroke-linecap: square"/>
   </g>
   <g id="line2d_32">
    <path clip-path="url(#pd9f7010710)" style="fill: none; stroke: #424242; stroke-width: 2.7; stroke-linecap: square"/>
   </g>
   <g id="line2d_33">
    <path clip-path="url(#pd9f7010710)" style="fill: none; stroke: #424242; stroke-width: 2.7; stroke-linecap: square"/>
   </g>
   <g id="line2d_34">
    <path clip-path="url(#pd9f7010710)" style="fill: none; stroke: #424242; stroke-width: 2.7; stroke-linecap: square"/>
   </g>
   <g id="line2d_35">
    <path clip-path="url(#pd9f7010710)" style="fill: none; stroke: #424242; stroke-width: 2.7; stroke-linecap: square"/>
   </g>
   <g id="line2d_36">
    <path clip-path="url(#pd9f7010710)" style="fill: none; stroke: #424242; stroke-width: 2.7; stroke-linecap: square"/>
   </g>
   <g id="line2d_37">
    <path clip-path="url(#pd9f7010710)" style="fill: none; stroke: #424242; stroke-width: 2.7; stroke-linecap: square"/>
   </g>
   <g id="line2d_38">
    <path clip-path="url(#pd9f7010710)" style="fill: none; stroke: #424242; stroke-width: 2.7; stroke-linecap: square"/>
   </g>
   <g id="line2d_39">
    <path clip-path="url(#pd9f7010710)" style="fill: none; stroke: #424242; stroke-width: 2.7; stroke-linecap: square"/>
   </g>
   <g id="patch_20">
    <path d="M 58.523438 188.638125 
L 58.523438 22.318125 
" style="fill: none; stroke: #000000; stroke-width: 0.8; stroke-linejoin: miter; stroke-linecap: square"/>
   </g>
   <g id="patch_21">
    <path d="M 337.523438 188.638125 
L 337.523438 22.318125 
" style="fill: none; stroke: #000000; stroke-width: 0.8; stroke-linejoin: miter; stroke-linecap: square"/>
   </g>
   <g id="patch_22">
    <path d="M 58.523438 188.638125 
L 337.523438 188.638125 
" style="fill: none; stroke: #000000; stroke-width: 0.8; stroke-linejoin: miter; stroke-linecap: square"/>
   </g>
   <g id="patch_23">
    <path d="M 58.523438 22.318125 
L 337.523438 22.318125 
" style="fill: none; stroke: #000000; stroke-width: 0.8; stroke-linejoin: miter; stroke-linecap: square"/>
   </g>
   <g id="text_25">
    <!-- MMD - Tabula Muris -->
    <g transform="translate(139.619063 16.318125) scale(0.12 -0.12)">
     <defs>
      <path id="DejaVuSans-4d" d="M 628 4666 
L 1569 4666 
L 2759 1491 
L 3956 4666 
L 4897 4666 
L 4897 0 
L 4281 0 
L 4281 4097 
L 3078 897 
L 2444 897 
L 1241 4097 
L 1241 0 
L 628 0 
L 628 4666 
z
" transform="scale(0.015625)"/>
      <path id="DejaVuSans-2d" d="M 313 2009 
L 1997 2009 
L 1997 1497 
L 313 1497 
L 313 2009 
z
" transform="scale(0.015625)"/>
      <path id="DejaVuSans-54" d="M -19 4666 
L 3928 4666 
L 3928 4134 
L 2272 4134 
L 2272 0 
L 1638 0 
L 1638 4134 
L -19 4134 
L -19 4666 
z
" transform="scale(0.015625)"/>
      <path id="DejaVuSans-62" d="M 3116 1747 
Q 3116 2381 2855 2742 
Q 2594 3103 2138 3103 
Q 1681 3103 1420 2742 
Q 1159 2381 1159 1747 
Q 1159 1113 1420 752 
Q 1681 391 2138 391 
Q 2594 391 2855 752 
Q 3116 1113 3116 1747 
z
M 1159 2969 
Q 1341 3281 1617 3432 
Q 1894 3584 2278 3584 
Q 2916 3584 3314 3078 
Q 3713 2572 3713 1747 
Q 3713 922 3314 415 
Q 2916 -91 2278 -91 
Q 1894 -91 1617 61 
Q 1341 213 1159 525 
L 1159 0 
L 581 0 
L 581 4863 
L 1159 4863 
L 1159 2969 
z
" transform="scale(0.015625)"/>
      <path id="DejaVuSans-72" d="M 2631 2963 
Q 2534 3019 2420 3045 
Q 2306 3072 2169 3072 
Q 1681 3072 1420 2755 
Q 1159 2438 1159 1844 
L 1159 0 
L 581 0 
L 581 3500 
L 1159 3500 
L 1159 2956 
Q 1341 3275 1631 3429 
Q 1922 3584 2338 3584 
Q 2397 3584 2469 3576 
Q 2541 3569 2628 3553 
L 2631 2963 
z
" transform="scale(0.015625)"/>
     </defs>
     <use xlink:href="#DejaVuSans-4d"/>
     <use xlink:href="#DejaVuSans-4d" x="86.279297"/>
     <use xlink:href="#DejaVuSans-44" x="172.558594"/>
     <use xlink:href="#DejaVuSans-20" x="249.560547"/>
     <use xlink:href="#DejaVuSans-2d" x="281.347656"/>
     <use xlink:href="#DejaVuSans-20" x="317.431641"/>
     <use xlink:href="#DejaVuSans-54" x="349.21875"/>
     <use xlink:href="#DejaVuSans-61" x="393.802734"/>
     <use xlink:href="#DejaVuSans-62" x="455.082031"/>
     <use xlink:href="#DejaVuSans-75" x="518.558594"/>
     <use xlink:href="#DejaVuSans-6c" x="581.9375"/>
     <use xlink:href="#DejaVuSans-61" x="609.720703"/>
     <use xlink:href="#DejaVuSans-20" x="671"/>
     <use xlink:href="#DejaVuSans-4d" x="702.787109"/>
     <use xlink:href="#DejaVuSans-75" x="789.066406"/>
     <use xlink:href="#DejaVuSans-72" x="852.445312"/>
     <use xlink:href="#DejaVuSans-69" x="893.558594"/>
     <use xlink:href="#DejaVuSans-73" x="921.341797"/>
    </g>
   </g>
  </g>
 </g>
 <defs>
  <clipPath id="pd9f7010710">
   <rect x="58.523438" y="22.318125" width="279" height="166.32"/>
  </clipPath>
 </defs>
</svg>
